<svg width="254" height="39" viewBox="0 0 254 39" fill="none" xmlns="http://www.w3.org/2000/svg">
<path d="M28.4854 19.8591C33.4297 19.8591 37.4384 23.8669 37.4385 28.8113C37.4385 33.7557 33.4298 37.7644 28.4854 37.7644H19.5332V19.8591H28.4854ZM18.0684 19.8591V37.7615C15.7509 37.7406 13.4585 37.2757 11.3164 36.3884C9.1245 35.4805 7.13274 34.15 5.45508 32.4724C3.7773 30.7946 2.44609 28.8022 1.53809 26.6101C0.650949 24.4683 0.185971 22.1763 0.165039 19.8591H18.0684ZM9.11523 0.325928H18.0684V18.2312H9.11523C4.17091 18.2311 0.163086 14.2224 0.163086 9.27808C0.163195 4.33382 4.17098 0.326036 9.11523 0.325928ZM19.5332 0.326904C21.8504 0.347796 24.1424 0.81382 26.2842 1.70093C28.4763 2.60893 30.4687 3.94014 32.1465 5.61792C33.8242 7.29566 35.1555 9.28721 36.0635 11.4792C36.9507 13.6213 37.4157 15.9138 37.4365 18.2312H19.5332V0.326904Z" fill="#4CDCB1" stroke="#4CDCB1" stroke-width="0.325551"/>
<path d="M44.1069 18.3937C44.1069 15.9996 44.5785 13.6289 45.4947 11.4171C46.4109 9.20519 47.7537 7.19543 49.4466 5.50254C51.1395 3.80965 53.1493 2.46677 55.3612 1.55058C57.573 0.634396 59.9437 0.162841 62.3378 0.162842L62.3378 18.3937L44.1069 18.3937Z" fill="#DF7153"/>
<path d="M63.64 0.162842H81.8709V18.3937H63.64V0.162842Z" fill="#DF7153"/>
<path d="M101.404 0.162842C101.404 2.55695 100.932 4.92762 100.016 7.13949C99.1 9.35137 97.7571 11.3611 96.0643 13.054C94.3714 14.7469 92.3616 16.0898 90.1497 17.006C87.9379 17.9222 85.5672 18.3937 83.1731 18.3937V0.162842H101.404Z" fill="#DF7153"/>
<path d="M63.64 19.6959H81.8709V37.9268H63.64V19.6959Z" fill="#DF7153"/>
<path d="M44.1069 18.3937C44.1069 15.9996 44.5785 13.6289 45.4947 11.4171C46.4109 9.20519 47.7537 7.19543 49.4466 5.50254C51.1395 3.80965 53.1493 2.46677 55.3612 1.55058C57.573 0.634396 59.9437 0.162841 62.3378 0.162842L62.3378 18.3937L44.1069 18.3937Z" stroke="#DF7153" stroke-width="0.325551"/>
<path d="M63.64 0.162842H81.8709V18.3937H63.64V0.162842Z" stroke="#DF7153" stroke-width="0.325551"/>
<path d="M101.404 0.162842C101.404 2.55695 100.932 4.92762 100.016 7.13949C99.1 9.35137 97.7571 11.3611 96.0643 13.054C94.3714 14.7469 92.3616 16.0898 90.1497 17.006C87.9379 17.9222 85.5672 18.3937 83.1731 18.3937V0.162842H101.404Z" stroke="#DF7153" stroke-width="0.325551"/>
<path d="M63.64 19.6959H81.8709V37.9268H63.64V19.6959Z" stroke="#DF7153" stroke-width="0.325551"/>
<path d="M125.976 19.8591C125.955 22.1763 125.489 24.4683 124.602 26.6101C123.694 28.8022 122.364 30.7946 120.686 32.4724C119.008 34.1502 117.016 35.4804 114.824 36.3884C112.682 37.2756 110.39 37.7406 108.073 37.7615V19.8591H125.976ZM145.511 19.8591V37.7615C143.194 37.7406 140.901 37.2757 138.759 36.3884C136.567 35.4805 134.576 34.15 132.898 32.4724C131.22 30.7946 129.889 28.8022 128.981 26.6101C128.094 24.4683 127.629 22.1763 127.608 19.8591H145.511ZM127.606 0.326904C129.923 0.347835 132.215 0.81379 134.357 1.70093C136.549 2.60893 138.541 3.94014 140.219 5.61792C141.897 7.29558 143.227 9.28735 144.135 11.4792C145.023 13.6213 145.488 15.9138 145.509 18.2312H127.606V0.326904ZM125.978 18.2312H108.075C108.096 15.9138 108.56 13.6213 109.448 11.4792C110.356 9.28716 111.687 7.29568 113.365 5.61792C115.043 3.94016 117.034 2.60893 119.226 1.70093C121.368 0.813657 123.661 0.347748 125.978 0.326904V18.2312Z" fill="#DFD153" stroke="#CCDF53" stroke-width="0.325551"/>
<path d="M170.248 19.8591V37.7644H152.342V19.8591H170.248ZM189.781 19.8591V37.7615C187.463 37.7406 185.171 37.2757 183.029 36.3884C180.837 35.4805 178.845 34.15 177.167 32.4724C175.49 30.7946 174.158 28.8022 173.25 26.6101C172.363 24.4683 171.898 22.1763 171.877 19.8591H189.781ZM209.313 19.8591V37.7615C206.996 37.7405 204.704 37.2756 202.562 36.3884C200.37 35.4804 198.377 34.1502 196.7 32.4724C195.022 30.7946 193.692 28.8022 192.784 26.6101C191.897 24.4683 191.431 22.1763 191.41 19.8591H209.313ZM191.408 0.326904C193.725 0.34773 196.018 0.813651 198.16 1.70093C200.352 2.60892 202.343 3.94018 204.021 5.61792C205.699 7.29567 207.03 9.28718 207.938 11.4792C208.825 13.6213 209.29 15.9138 209.311 18.2312H191.408V0.326904ZM171.875 0.326904C174.193 0.347836 176.485 0.813789 178.626 1.70093C180.819 2.60893 182.811 3.94014 184.489 5.61792C186.166 7.29558 187.497 9.28735 188.405 11.4792C189.292 13.6213 189.758 15.9138 189.779 18.2312H171.875V0.326904ZM170.248 0.325928V18.2312H152.342V0.325928H170.248Z" fill="#5376DF" stroke="#5376DF" stroke-width="0.325551"/>
<path d="M234.05 0.325928V37.7644H216.145V0.325928H234.05ZM244.63 0.325928C249.574 0.325928 253.583 4.33375 253.583 9.27808C253.583 14.2225 249.574 18.2312 244.63 18.2312H235.678V0.325928H244.63Z" fill="#DF538D" stroke="#DF538D" stroke-width="0.325551"/>
</svg>
