<svg xmlns="http://www.w3.org/2000/svg" xmlns:xlink="http://www.w3.org/1999/xlink" width="116" height="59" fill="none" viewBox="0 0 116 59"><g filter="url(#a)"><path fill="#538fdf" d="M115 1a57 57 0 0 1-16.695 40.305A57.001 57.001 0 0 1 1 1z"/><use xlink:href="#b" transform="rotate(-17.707 59.18 -366.812)scale(.00358)"/><use xlink:href="#b" transform="rotate(171.66 57.646 4.998)scale(.0026)"/><use xlink:href="#b" transform="rotate(-28.08 59.73 -228.28)scale(.00267)"/><use xlink:href="#b" transform="rotate(-5.482 70.48 -1196.04)scale(.0027)"/><use xlink:href="#b" transform="rotate(58.27 56.475 103.945)scale(.00315)"/><use xlink:href="#b" transform="rotate(92.59 56.997 56.059)scale(.00365)"/><use xlink:href="#b" transform="rotate(128.887 57.336 28.88)scale(.00403)"/><use xlink:href="#b" transform="rotate(144.783 57.39 19.798)scale(.0036)"/><use xlink:href="#b" transform="rotate(-4.572 88.814 -1432.986)scale(.00309)"/><use xlink:href="#b" transform="rotate(-9.41 74.2 -694.003)scale(.00311)"/><use xlink:href="#b" transform="rotate(-43.016 61.47 -143.474)scale(.00266)"/><use xlink:href="#b" transform="rotate(63.24 55.05 95.064)scale(.00269)"/><use xlink:href="#b" transform="rotate(79.663 55.62 70.797)scale(.00281)"/><use xlink:href="#b" transform="rotate(24.357 49.514 267.443)scale(.00349)"/><use xlink:href="#b" transform="rotate(56.466 54.157 108.99)scale(.00352)"/><use xlink:href="#b" transform="rotate(55.861 53.737 110.496)scale(.00287)"/><use xlink:href="#b" transform="rotate(252.143 59.23 -39.005)scale(.00336)"/><use xlink:href="#b" transform="rotate(-42.203 63.612 -145.611)scale(.00269)"/><use xlink:href="#b" transform="rotate(158.869 57.182 13.541)scale(.00307)"/><use xlink:href="#b" transform="rotate(225.852 58.684 -21.205)scale(.00309)"/><use xlink:href="#b" transform="matrix(0 .0039 -.0039 0 115.404 5.235)"/><use xlink:href="#b" transform="rotate(238.798 59.159 -28.983)scale(.00294)"/><use xlink:href="#b" transform="rotate(102.639 55.32 49.15)scale(.00348)"/><use xlink:href="#b" transform="rotate(243.187 59.451 -31.579)scale(.00365)"/><use xlink:href="#b" transform="rotate(-25.67 71.311 -246.918)scale(.0037)"/><use xlink:href="#b" transform="rotate(89.317 54.308 61.608)scale(.00389)"/><use xlink:href="#b" transform="rotate(-19.302 77.631 -331.604)scale(.0037)"/><use xlink:href="#b" transform="rotate(109.732 55.042 44.263)scale(.00355)"/><use xlink:href="#b" transform="rotate(-45.925 66.28 -130.513)scale(.0031)"/><use xlink:href="#b" transform="rotate(255.977 60.49 -40.19)scale(.00349)"/><use xlink:href="#b" transform="rotate(-97.729 60.932 -45.422)scale(.00283)"/><use xlink:href="#b" transform="rotate(257.845 60.738 -41.573)scale(.00263)"/><use xlink:href="#b" transform="rotate(16.891 29.325 388.667)scale(.00312)"/><use xlink:href="#b" transform="rotate(102.229 54.046 50.772)scale(.00385)"/><use xlink:href="#b" transform="rotate(-86.986 62.083 -55.065)scale(.00356)"/><use xlink:href="#b" transform="rotate(-91.41 61.851 -50.39)scale(.00392)"/><use xlink:href="#b" transform="rotate(-24.173 79.26 -260.401)scale(.00379)"/><use xlink:href="#b" transform="rotate(-67.942 64.534 -78.941)scale(.00404)"/><use xlink:href="#b" transform="rotate(210.81 58.738 -10.077)scale(.004)"/><use xlink:href="#b" transform="rotate(-36.863 72.793 -165.005)scale(.00303)"/><use xlink:href="#b" transform="rotate(180.392 57.314 5.609)scale(.00358)"/><use xlink:href="#b" transform="rotate(251.857 61.158 -35.32)scale(.00284)"/><use xlink:href="#b" transform="rotate(250.708 61.154 -34.194)scale(.00382)"/><use xlink:href="#b" transform="rotate(-73.547 64.774 -69.861)scale(.0029)"/><use xlink:href="#b" transform="rotate(155.919 55.937 18.348)scale(.00303)"/><use xlink:href="#b" transform="rotate(89.234 51.242 63.864)scale(.00354)"/><use xlink:href="#b" transform="rotate(-28.57 80.825 -216.365)scale(.00265)"/><use xlink:href="#b" transform="rotate(48.449 43.488 132.58)scale(.00297)"/><use xlink:href="#b" transform="rotate(-83.873 64.01 -56.375)scale(.00302)"/><use xlink:href="#b" transform="rotate(152.648 55.515 20.6)scale(.00313)"/><use xlink:href="#b" transform="rotate(239.874 60.752 -25.645)scale(.00326)"/><use xlink:href="#b" transform="rotate(46.298 41.666 139.375)scale(.00332)"/><use xlink:href="#b" transform="rotate(22.172 22.962 295.663)scale(.00359)"/><use xlink:href="#b" transform="rotate(52.105 43.071 122.898)scale(.00367)"/><use xlink:href="#b" transform="rotate(37.081 36.358 175.764)scale(.00404)"/><use xlink:href="#b" transform="rotate(126.791 53.377 35.915)scale(.00384)"/><use xlink:href="#b" transform="rotate(144.011 54.524 26.101)scale(.00363)"/><use xlink:href="#b" transform="rotate(-62.688 68.94 -84.678)scale(.0032)"/><use xlink:href="#b" transform="rotate(-10.282 140.532 -618.766)scale(.00265)"/><use xlink:href="#b" transform="rotate(255.467 62.63 -35.55)scale(.00275)"/><use xlink:href="#b" transform="rotate(93.245 49.537 61.41)scale(.00397)"/><use xlink:href="#b" transform="rotate(179.928 56.71 8.425)scale(.00367)"/><use xlink:href="#b" transform="rotate(62.367 43.38 101.37)scale(.00274)"/><use xlink:href="#b" transform="rotate(216.749 59.319 -10.047)scale(.0035)"/><use xlink:href="#b" transform="rotate(122.414 52.148 39.613)scale(.00404)"/><use xlink:href="#b" transform="rotate(93.292 48.73 61.845)scale(.00393)"/><use xlink:href="#b" transform="rotate(240.002 61.422 -23.3)scale(.0037)"/><use xlink:href="#b" transform="rotate(128.285 52.32 36.318)scale(.00376)"/><use xlink:href="#b" transform="rotate(57.892 40.634 110.462)scale(.00373)"/><use xlink:href="#b" transform="rotate(-7.953 183.995 -794.376)scale(.00394)"/><use xlink:href="#b" transform="rotate(170.692 55.564 14.068)scale(.00285)"/><use xlink:href="#b" transform="rotate(-53.894 74.264 -100.03)scale(.004)"/><use xlink:href="#b" transform="rotate(138.241 52.732 31.115)scale(.00365)"/><use xlink:href="#b" transform="rotate(108.818 49.524 49.87)scale(.00395)"/><use xlink:href="#b" transform="rotate(200.21 57.827 .08)scale(.00263)"/><use xlink:href="#b" transform="rotate(-82.198 67.2 -53.534)scale(.00393)"/><use xlink:href="#b" transform="rotate(247.954 62.688 -27.129)scale(.00358)"/><use xlink:href="#b" transform="rotate(-50.194 77.198 -108.056)scale(.00393)"/><use xlink:href="#b" transform="rotate(-64.139 72.067 -78.096)scale(.00302)"/><use xlink:href="#b" transform="rotate(1.531 -703.473 4159.94)scale(.00392)"/><use xlink:href="#b" transform="rotate(4.809 -189.587 1330.595)scale(.00358)"/><use xlink:href="#b" transform="rotate(-77.152 68.937 -58.468)scale(.00335)"/><use xlink:href="#b" transform="rotate(-73.168 70.038 -63.565)scale(.00286)"/><use xlink:href="#b" transform="rotate(6.97 -119.086 918.762)scale(.00368)"/><use xlink:href="#b" transform="rotate(-91.256 66.266 -42.704)scale(.0035)"/><use xlink:href="#b" transform="rotate(-62.46 73.69 -79.732)scale(.0027)"/><use xlink:href="#b" transform="rotate(-86.157 67.397 -47.555)scale(.00275)"/><use xlink:href="#b" transform="rotate(-87.995 67.084 -45.517)scale(.00294)"/><use xlink:href="#b" transform="rotate(-38.734 87.447 -144.945)scale(.00333)"/><use xlink:href="#b" transform="rotate(34.358 18.875 189.803)scale(.0036)"/><use xlink:href="#b" transform="rotate(129.609 49.976 37.803)scale(.0027)"/><use xlink:href="#b" transform="rotate(175.325 54.883 14.272)scale(.00286)"/><use xlink:href="#b" transform="rotate(229.798 60.746 -13.328)scale(.00315)"/><use xlink:href="#b" transform="rotate(161.197 53.363 21.384)scale(.0036)"/><use xlink:href="#b" transform="rotate(-34.935 93.104 -161.874)scale(.00277)"/><use xlink:href="#b" transform="rotate(167.143 53.88 18.72)scale(.0039)"/><use xlink:href="#b" transform="rotate(-41.368 87.24 -132.17)scale(.00338)"/><use xlink:href="#b" transform="rotate(235.851 61.57 -16.176)scale(.00349)"/><use xlink:href="#b" transform="rotate(68.218 36.803 93.442)scale(.00356)"/><use xlink:href="#b" transform="rotate(93.646 43.218 64.14)scale(.00307)"/><use xlink:href="#b" transform="rotate(222.798 59.838 -8.266)scale(.0031)"/><use xlink:href="#b" transform="rotate(49.953 27.552 130.036)scale(.00305)"/><use xlink:href="#b" transform="rotate(19.73 -18.845 325.924)scale(.00322)"/><use xlink:href="#b" transform="rotate(-1.301 1188.892 -4764.588)scale(.00385)"/><use xlink:href="#b" transform="rotate(-76.683 71.19 -55.114)scale(.00283)"/><use xlink:href="#b" transform="rotate(51.873 27.536 125.1)scale(.00283)"/><use xlink:href="#b" transform="rotate(-61.334 76.914 -77.559)scale(.0033)"/><use xlink:href="#b" transform="rotate(67.21 34.405 95.251)scale(.00302)"/><use xlink:href="#b" transform="rotate(91.402 41.276 66.672)scale(.00263)"/><use xlink:href="#b" transform="rotate(134.576 48.734 36.62)scale(.0029)"/><use xlink:href="#b" transform="rotate(175.96 53.865 15.995)scale(.00271)"/><use xlink:href="#b" transform="rotate(-81.309 70.32 -48.516)scale(.00326)"/><use xlink:href="#b" transform="rotate(-97.023 66.51 -33.307)scale(.00297)"/><use xlink:href="#b" transform="rotate(34.853 9.77 185.782)scale(.00311)"/><use xlink:href="#b" transform="rotate(-69.778 74.295 -62.454)scale(.00341)"/><use xlink:href="#b" transform="rotate(185.167 54.725 12.22)scale(.00306)"/><use xlink:href="#b" transform="rotate(131.412 47.58 38.938)scale(.00298)"/><use xlink:href="#b" transform="rotate(79.639 36.682 79.078)scale(.00264)"/><use xlink:href="#b" transform="rotate(193.53 55.626 8.559)scale(.00283)"/><use xlink:href="#b" transform="rotate(-.333 5045.165 -18358.945)scale(.00383)"/><use xlink:href="#b" transform="rotate(-46.878 87.645 -107.96)scale(.0031)"/><use xlink:href="#b" transform="rotate(-37.294 97.524 -142.738)scale(.0031)"/><use xlink:href="#b" transform="rotate(41.532 14.349 155.849)scale(.00268)"/><use xlink:href="#b" transform="rotate(-94.659 67.421 -33.484)scale(.0038)"/><use xlink:href="#b" transform="rotate(136.545 47.562 36.759)scale(.00341)"/><use xlink:href="#b" transform="rotate(89.163 38.091 69.523)scale(.00338)"/><use xlink:href="#b" transform="rotate(-97.2 66.913 -30.863)scale(.00351)"/><use xlink:href="#b" transform="rotate(116.99 43.865 48.326)scale(.00284)"/><use xlink:href="#b" transform="rotate(162.253 50.903 24.294)scale(.0037)"/><use xlink:href="#b" transform="rotate(19.638 -36.74 320.792)scale(.00402)"/><use xlink:href="#b" transform="rotate(145.676 48.254 32.513)scale(.00304)"/><use xlink:href="#b" transform="rotate(194.786 55.11 9.486)scale(.0029)"/><use xlink:href="#b" transform="rotate(45.396 14.873 142.137)scale(.00313)"/><use xlink:href="#b" transform="rotate(115.365 42.747 49.734)scale(.00273)"/><use xlink:href="#b" transform="rotate(229.138 60.277 -7.277)scale(.0038)"/><use xlink:href="#b" transform="rotate(137.12 46.389 37.284)scale(.00278)"/><use xlink:href="#b" transform="rotate(105.799 40.338 56.378)scale(.00272)"/><use xlink:href="#b" transform="rotate(172.176 51.546 20.468)scale(.00293)"/><use xlink:href="#b" transform="rotate(-17.58 159.438 -320.506)scale(.0032)"/><use xlink:href="#b" transform="rotate(241.966 62.526 -14.211)scale(.003)"/><use xlink:href="#b" transform="rotate(143.225 46.896 34.475)scale(.00274)"/><use xlink:href="#b" transform="rotate(224.585 59.337 -3.926)scale(.004)"/><use xlink:href="#b" transform="rotate(49.58 15.626 129.822)scale(.00278)"/><use xlink:href="#b" transform="rotate(191.619 53.99 12.192)scale(.00289)"/><use xlink:href="#b" transform="rotate(73.537 29.333 86.876)scale(.00319)"/><use xlink:href="#b" transform="rotate(259.217 66.362 -25.152)scale(.00287)"/><use xlink:href="#b" transform="rotate(-59.58 82.232 -72.323)scale(.00365)"/><use xlink:href="#b" transform="rotate(259.268 66.395 -24.765)scale(.00353)"/><use xlink:href="#b" transform="rotate(185.243 52.747 15.701)scale(.0039)"/><use xlink:href="#b" transform="rotate(-50.362 89.25 -91.06)scale(.00366)"/><use xlink:href="#b" transform="rotate(-43.353 96.253 -110.616)scale(.00396)"/><use xlink:href="#b" transform="rotate(-63.837 80.254 -63.69)scale(.004)"/><use xlink:href="#b" transform="rotate(167.024 49.521 24.295)scale(.00348)"/><use xlink:href="#b" transform="rotate(25.207 -29.15 246.628)scale(.00379)"/><use xlink:href="#b" transform="rotate(187.651 52.59 15.27)scale(.00321)"/><use xlink:href="#b" transform="rotate(226.641 59.172 -3.166)scale(.00311)"/><use xlink:href="#b" transform="rotate(-86.99 70.571 -34.523)scale(.004)"/><use xlink:href="#b" transform="rotate(-59.225 83.615 -70.068)scale(.00378)"/><use xlink:href="#b" transform="rotate(-59.062 83.819 -70.063)scale(.0039)"/><use xlink:href="#b" transform="rotate(115.66 39.146 50.958)scale(.00297)"/><use xlink:href="#b" transform="rotate(204.922 54.998 8.101)scale(.0028)"/><use xlink:href="#b" transform="rotate(127.434 41.423 44.21)scale(.00265)"/><use xlink:href="#b" transform="rotate(-28.732 124.592 -176.63)scale(.00387)"/><use xlink:href="#b" transform="rotate(-42.27 99.984 -110.402)scale(.0028)"/><use xlink:href="#b" transform="rotate(100.729 34.642 61.141)scale(.00264)"/><use xlink:href="#b" transform="rotate(235.521 60.595 -6.709)scale(.00264)"/><use xlink:href="#b" transform="rotate(-88.38 70.274 -31.691)scale(.00287)"/><use xlink:href="#b" transform="rotate(164.446 47.758 26.753)scale(.00403)"/><use xlink:href="#b" transform="rotate(6.142 -312.242 947.517)scale(.0038)"/><use xlink:href="#b" transform="rotate(-20.375 158.97 -256.152)scale(.00395)"/><use xlink:href="#b" transform="rotate(29.485 -24.733 208.658)scale(.00355)"/><use xlink:href="#b" transform="rotate(25.574 -37.425 238.58)scale(.00284)"/><use xlink:href="#b" transform="rotate(129.853 40.563 43.502)scale(.00304)"/><use xlink:href="#b" transform="rotate(-88.982 70.125 -29.796)scale(.00316)"/><use xlink:href="#b" transform="rotate(141.407 42.72 37.821)scale(.00351)"/><use xlink:href="#b" transform="rotate(63.539 17.15 100.054)scale(.0036)"/><use xlink:href="#b" transform="rotate(78.543 24.764 80.78)scale(.0032)"/><use xlink:href="#b" transform="rotate(82.4 26.162 76.807)scale(.00279)"/><use xlink:href="#b" transform="rotate(-94.638 68.187 -24.2)scale(.00332)"/><use xlink:href="#b" transform="rotate(189.34 50.927 16.954)scale(.0027)"/><use xlink:href="#b" transform="rotate(206.784 54.116 9.496)scale(.00358)"/><use xlink:href="#b" transform="rotate(171.248 47.521 24.88)scale(.00314)"/><use xlink:href="#b" transform="rotate(-7.81 353.22 -690.805)scale(.0029)"/><use xlink:href="#b" transform="rotate(-52.896 90.837 -76.292)scale(.00278)"/><use xlink:href="#b" transform="rotate(220.942 56.65 3.25)scale(.00266)"/><use xlink:href="#b" transform="rotate(-14.892 209.39 -348.767)scale(.00285)"/><use xlink:href="#b" transform="rotate(-26.13 139.357 -186.414)scale(.00336)"/><use xlink:href="#b" transform="rotate(73.185 20.223 86.51)scale(.00368)"/><use xlink:href="#b" transform="rotate(97.065 29.846 64.223)scale(.00401)"/><use xlink:href="#b" transform="rotate(.193 -12608.896 28477.267)scale(.003)"/><use xlink:href="#b" transform="rotate(-84.825 71.74 -30.409)scale(.00378)"/><use xlink:href="#b" transform="rotate(-95.297 67.81 -21.536)scale(.0033)"/><use xlink:href="#b" transform="rotate(99.927 30.022 62.149)scale(.0036)"/><use xlink:href="#b" transform="rotate(182.335 48.454 21.201)scale(.0032)"/><use xlink:href="#b" transform="rotate(217.549 55.31 6.083)scale(.00297)"/><use xlink:href="#b" transform="rotate(29.117 -36.056 204.711)scale(.00377)"/><use xlink:href="#b" transform="rotate(241.33 60.72 -5.688)scale(.00272)"/><use xlink:href="#b" transform="rotate(115.625 33.773 52.19)scale(.00286)"/><use xlink:href="#b" transform="rotate(66.812 14.115 94.015)scale(.00322)"/><use xlink:href="#b" transform="rotate(132.729 37.752 43.2)scale(.00284)"/><use xlink:href="#b" transform="rotate(4.127 -567.73 1324.208)scale(.00388)"/><use xlink:href="#b" transform="rotate(236.541 59.283 -2.283)scale(.004)"/><use xlink:href="#b" transform="rotate(41.262 -12.293 146.956)scale(.00342)"/><use xlink:href="#b" transform="rotate(-29.835 131.311 -151.733)scale(.0039)"/><use xlink:href="#b" transform="rotate(79.358 19.77 79.119)scale(.00353)"/><use xlink:href="#b" transform="rotate(75.258 17.534 83.323)scale(.00388)"/><use xlink:href="#b" transform="rotate(97.63 26.795 63.734)scale(.00306)"/><use xlink:href="#b" transform="rotate(137.154 37.626 41.406)scale(.00264)"/><use xlink:href="#b" transform="rotate(10.485 -203.028 526.082)scale(.00295)"/><use xlink:href="#b" transform="rotate(106.906 29.446 57.556)scale(.00324)"/><use xlink:href="#b" transform="rotate(126.311 34.688 46.751)scale(.00303)"/><use xlink:href="#b" transform="rotate(50.517 -2.765 120.756)scale(.00278)"/><use xlink:href="#b" transform="rotate(145.017 38.852 38.042)scale(.00282)"/><use xlink:href="#b" transform="rotate(-94.681 67.486 -18.29)scale(.0036)"/><use xlink:href="#b" transform="rotate(-66.136 81.788 -46.238)scale(.00282)"/><use xlink:href="#b" transform="rotate(-73.219 77.336 -37.287)scale(.00341)"/><use xlink:href="#b" transform="rotate(5.509 -440.912 966.007)scale(.00357)"/><use xlink:href="#b" transform="rotate(-83.484 72.023 -26.581)scale(.0038)"/><use xlink:href="#b" transform="rotate(-72.465 77.76 -37.43)scale(.00347)"/><use xlink:href="#b" transform="rotate(80.08 17.332 77.737)scale(.00365)"/><use xlink:href="#b" transform="rotate(69.696 11.131 88.758)scale(.00263)"/><use xlink:href="#b" transform="rotate(-89.678 69.202 -20.776)scale(.00312)"/><use xlink:href="#b" transform="rotate(7.509 -318.906 706.024)scale(.00308)"/><use xlink:href="#b" transform="rotate(235.828 57.74 .766)scale(.00294)"/><use xlink:href="#b" transform="rotate(-63.49 83.776 -47.5)scale(.00306)"/><use xlink:href="#b" transform="rotate(232.415 56.711 2.666)scale(.00297)"/><use xlink:href="#b" transform="rotate(171.399 42.94 27.937)scale(.0029)"/><use xlink:href="#b" transform="rotate(-33.383 125.458 -123.062)scale(.00267)"/><use xlink:href="#b" transform="rotate(-58.112 88.191 -54.567)scale(.00392)"/><use xlink:href="#b" transform="rotate(-21.302 173.674 -209.03)scale(.00372)"/><use xlink:href="#b" transform="rotate(-48.447 98.511 -72.476)scale(.00404)"/><use xlink:href="#b" transform="rotate(-82.32 72.241 -25.201)scale(.00267)"/><use xlink:href="#b" transform="rotate(52.676 -5.549 113.348)scale(.0026)"/><use xlink:href="#b" transform="rotate(190.392 46.281 21.117)scale(.00317)"/><use xlink:href="#b" transform="rotate(37.88 -28.018 152.007)scale(.00273)"/><use xlink:href="#b" transform="rotate(183.609 44.666 23.895)scale(.00388)"/><use xlink:href="#b" transform="rotate(-95.692 66.163 -13.923)scale(.00314)"/><use xlink:href="#b" transform="rotate(186.606 45.05 22.831)scale(.00305)"/><use xlink:href="#b" transform="rotate(-24.661 157.455 -171.736)scale(.00316)"/><use xlink:href="#b" transform="rotate(228.184 54.592 6.297)scale(.00369)"/><use xlink:href="#b" transform="rotate(178.29 42.925 26.169)scale(.00323)"/><use xlink:href="#b" transform="rotate(116.897 27.81 51.85)scale(.0035)"/><use xlink:href="#b" transform="rotate(-63.161 84.027 -43.817)scale(.00272)"/><use xlink:href="#b" transform="rotate(187.268 44.579 22.989)scale(.00308)"/><use xlink:href="#b" transform="rotate(186.164 44.241 23.475)scale(.00322)"/><use xlink:href="#b" transform="rotate(146.649 35.166 38.481)scale(.0029)"/><use xlink:href="#b" transform="rotate(259.795 63.888 -9.371)scale(.00367)"/><use xlink:href="#b" transform="rotate(-57.258 89.156 -51.21)scale(.00324)"/><use xlink:href="#b" transform="rotate(-59.794 86.773 -47.004)scale(.00347)"/><use xlink:href="#b" transform="rotate(-23.756 163.918 -173.232)scale(.00294)"/><use xlink:href="#b" transform="rotate(220.484 51.69 10.787)scale(.00399)"/><use xlink:href="#b" transform="rotate(107.924 23.356 56.469)scale(.0027)"/><use xlink:href="#b" transform="rotate(-70.34 78.485 -32.659)scale(.00371)"/><use xlink:href="#b" transform="matrix(0 -.00302 .00302 0 82.848 52.483)"/><use xlink:href="#b" transform="rotate(70.596 5.18 84.736)scale(.0026)"/><use xlink:href="#b" transform="rotate(211.308 48.93 14.815)scale(.00315)"/><use xlink:href="#b" transform="rotate(-16.224 223.734 -262.48)scale(.00276)"/><use xlink:href="#b" transform="rotate(33.08 -46.043 164.692)scale(.00308)"/><use xlink:href="#b" transform="rotate(-65.911 81.503 -36.53)scale(.00359)"/><use xlink:href="#b" transform="rotate(91.949 15.969 66.029)scale(.0027)"/><use xlink:href="#b" transform="rotate(41.889 -26.968 132.915)scale(.00388)"/><use xlink:href="#b" transform="rotate(186.655 42.542 24.33)scale(.0032)"/><use xlink:href="#b" transform="rotate(-12.286 285.052 -349.731)scale(.00272)"/><use xlink:href="#b" transform="rotate(207.232 47.175 16.983)scale(.00303)"/><use xlink:href="#b" transform="rotate(124.959 26.957 47.797)scale(.00286)"/><use xlink:href="#b" transform="rotate(-62.456 84.097 -39.322)scale(.00348)"/><use xlink:href="#b" transform="rotate(85.947 12.112 69.913)scale(.00317)"/><use xlink:href="#b" transform="rotate(114.507 23.38 52.67)scale(.00356)"/><use xlink:href="#b" transform="rotate(31.267 -54.658 169.374)scale(.00287)"/><use xlink:href="#b" transform="rotate(220.405 49.924 12.44)scale(.00308)"/><use xlink:href="#b" transform="rotate(-22.86 171.688 -168.763)scale(.00321)"/><use xlink:href="#b" transform="rotate(35.554 -43.173 150.284)scale(.00344)"/><use xlink:href="#b" transform="rotate(126.993 26.54 46.867)scale(.00385)"/><use xlink:href="#b" transform="rotate(-65.765 81.104 -33.54)scale(.00267)"/><use xlink:href="#b" transform="rotate(-69.73 78.008 -28.714)scale(.004)"/><use xlink:href="#b" transform="rotate(177.032 38.736 28.364)scale(.0032)"/><use xlink:href="#b" transform="rotate(-3.052 1050.783 -1434.206)scale(.0026)"/><use xlink:href="#b" transform="rotate(238.012 54.164 5.965)scale(.0035)"/><use xlink:href="#b" transform="rotate(239.988 54.671 5.095)scale(.0027)"/><use xlink:href="#b" transform="rotate(62.809 -5.328 90.713)scale(.00276)"/><use xlink:href="#b" transform="rotate(235.877 53.246 7.075)scale(.00263)"/><use xlink:href="#b" transform="rotate(72.568 1.955 79.845)scale(.0035)"/><use xlink:href="#b" transform="rotate(172.89 37.04 30.064)scale(.00395)"/><use xlink:href="#b" transform="rotate(240.098 54.264 5.57)scale(.00273)"/><use xlink:href="#b" transform="rotate(31.767 -57.225 161.298)scale(.00315)"/><use xlink:href="#b" transform="rotate(2.432 -1246.208 1813.465)scale(.003)"/><use xlink:href="#b" transform="rotate(1.465 -2096.634 2983.377)scale(.00319)"/><use xlink:href="#b" transform="rotate(47.261 -24.447 113.97)scale(.0028)"/><use xlink:href="#b" transform="rotate(150.649 30.874 37.728)scale(.00371)"/><use xlink:href="#b" transform="matrix(.0027 -.001 .001 .0027 74.796 55.026)"/><use xlink:href="#b" transform="rotate(-4.858 684.961 -852.492)scale(.00305)"/><use xlink:href="#b" transform="rotate(36.696 -45.244 140.231)scale(.003)"/><use xlink:href="#b" transform="rotate(222.123 48.127 13.646)scale(.00263)"/><use xlink:href="#b" transform="rotate(35.17 -49.465 144.839)scale(.0031)"/><use xlink:href="#b" transform="rotate(22.96 -98.084 209.471)scale(.00404)"/><use xlink:href="#b" transform="rotate(77.437 2.71 73.961)scale(.00298)"/><use xlink:href="#b" transform="rotate(212.436 45.141 17.554)scale(.00387)"/><use xlink:href="#b" transform="rotate(197.59 41.247 22.595)scale(.00384)"/><use xlink:href="#b" transform="rotate(-70.346 76.116 -23.278)scale(.00368)"/><use xlink:href="#b" transform="rotate(86.314 7.132 66.886)scale(.00383)"/><use xlink:href="#b" transform="rotate(81.076 4.077 70.48)scale(.00368)"/><use xlink:href="#b" transform="rotate(199.179 41.07 22.212)scale(.00273)"/><use xlink:href="#b" transform="rotate(28.567 -73.228 169.222)scale(.003)"/><use xlink:href="#b" transform="rotate(-13.925 264.373 -263.988)scale(.00356)"/><use xlink:href="#b" transform="rotate(134.827 24.448 43.242)scale(.00347)"/><use xlink:href="#b" transform="rotate(182.2 36.434 27.74)scale(.00286)"/><use xlink:href="#b" transform="rotate(23.593 -97.834 197.565)scale(.00404)"/><use xlink:href="#b" transform="rotate(183.405 36.488 27.458)scale(.00315)"/><use xlink:href="#b" transform="matrix(.00278 0 0 .00278 70.285 56.146)"/><use xlink:href="#b" transform="rotate(-58.175 85.835 -34.203)scale(.00386)"/><use xlink:href="#b" transform="rotate(22.8 -104.3 201.679)scale(.0026)"/><use xlink:href="#b" transform="rotate(207.718 42.158 20.114)scale(.00396)"/><use xlink:href="#b" transform="rotate(185.136 36.325 27.115)scale(.00347)"/><use xlink:href="#b" transform="rotate(68.67 -6.303 79.148)scale(.00339)"/><use xlink:href="#b" transform="rotate(-8.446 417.158 -437.167)scale(.00275)"/><use xlink:href="#b" transform="rotate(208.387 41.816 20.013)scale(.0028)"/><use xlink:href="#b" transform="rotate(108.564 14.25 53.287)scale(.00294)"/><use xlink:href="#b" transform="rotate(-10.2 351.547 -353.171)scale(.00269)"/><use xlink:href="#b" transform="rotate(153.13 27.595 36.863)scale(.00285)"/><use xlink:href="#b" transform="rotate(65.44 -9.763 81.447)scale(.00332)"/><use xlink:href="#b" transform="rotate(179.14 33.957 29.114)scale(.00373)"/><use xlink:href="#b" transform="rotate(-10.855 332.619 -324.796)scale(.00284)"/><use xlink:href="#b" transform="rotate(-23.57 169.944 -131.657)scale(.00292)"/><use xlink:href="#b" transform="rotate(97.265 8.8 58.248)scale(.00328)"/><use xlink:href="#b" transform="rotate(38.17 -48.411 124.92)scale(.00329)"/><use xlink:href="#b" transform="rotate(-95.962 59.136 -.795)scale(.00392)"/><use xlink:href="#b" transform="rotate(219.558 43.617 17.072)scale(.00305)"/><use xlink:href="#b" transform="rotate(19.56 -132.051 219.658)scale(.00278)"/><use xlink:href="#b" transform="rotate(29.809 -73.884 152.01)scale(.00301)"/><use xlink:href="#b" transform="rotate(16.918 -158.86 248.64)scale(.00262)"/><use xlink:href="#b" transform="rotate(212.174 41.188 19.651)scale(.00349)"/><use xlink:href="#b" transform="rotate(-96.61 58.23 .215)scale(.00353)"/><use xlink:href="#b" transform="rotate(-23.01 172.922 -129.462)scale(.00318)"/><use xlink:href="#b" transform="rotate(147.418 24.186 38.409)scale(.0026)"/><use xlink:href="#b" transform="rotate(61.342 -15.753 83.105)scale(.00286)"/><use xlink:href="#b" transform="rotate(85.055 1.172 63.89)scale(.00293)"/><use xlink:href="#b" transform="rotate(43.62 -39.287 108.655)scale(.0028)"/><use xlink:href="#b" transform="rotate(-25.06 160.909 -113.704)scale(.00298)"/><use xlink:href="#b" transform="rotate(17.513 -153.619 234.164)scale(.0034)"/><use xlink:href="#b" transform="rotate(170.992 29.68 31.635)scale(.0037)"/><use xlink:href="#b" transform="rotate(248.573 51.291 7.848)scale(.00375)"/><use xlink:href="#b" transform="rotate(146.212 22.935 38.627)scale(.00338)"/><use xlink:href="#b" transform="rotate(8.983 -332.53 423.698)scale(.00404)"/><use xlink:href="#b" transform="rotate(67.033 -11.981 75.843)scale(.00302)"/><use xlink:href="#b" transform="rotate(243.668 49.035 10.052)scale(.00315)"/><use xlink:href="#b" transform="rotate(31.378 -71.17 138.481)scale(.00278)"/><use xlink:href="#b" transform="rotate(87.32 .92 61.222)scale(.00312)"/><use xlink:href="#b" transform="rotate(160.517 25.994 34.465)scale(.00382)"/><use xlink:href="#b" transform="rotate(-59.802 80.712 -23.607)scale(.00269)"/><use xlink:href="#b" transform="rotate(-76.66 66.933 -8.882)scale(.00376)"/><use xlink:href="#b" transform="rotate(254.716 52.422 6.258)scale(.0031)"/><use xlink:href="#b" transform="rotate(-43.253 102.768 -46.146)scale(.00369)"/><use xlink:href="#b" transform="rotate(106.886 9.003 51.334)scale(.00392)"/><use xlink:href="#b" transform="rotate(-39.403 110.437 -53.744)scale(.00265)"/><use xlink:href="#b" transform="rotate(-1.778 1884.962 -1878.048)scale(.00274)"/><use xlink:href="#b" transform="rotate(180.289 29.956 29.171)scale(.00328)"/><use xlink:href="#b" transform="rotate(88.2 .131 59.493)scale(.00353)"/><use xlink:href="#b" transform="rotate(30.705 -75.056 135.512)scale(.00332)"/><use xlink:href="#b" transform="rotate(-81.52 62.847 -4.456)scale(.00325)"/><use xlink:href="#b" transform="rotate(84.388 -2.32 61.16)scale(.0034)"/><use xlink:href="#b" transform="rotate(14.356 -198.567 257.496)scale(.00397)"/><use xlink:href="#b" transform="rotate(12.34 -237.106 294.51)scale(.00293)"/><use xlink:href="#b" transform="rotate(-3.098 1092.201 -1026.183)scale(.0032)"/><use xlink:href="#b" transform="rotate(78.248 -6.427 64.17)scale(.00366)"/><use xlink:href="#b" transform="rotate(32.336 -70.443 126.784)scale(.0032)"/><use xlink:href="#b" transform="rotate(-98.55 53.33 5.096)scale(.00384)"/><use xlink:href="#b" transform="rotate(-17.18 218.958 -156.53)scale(.0027)"/><use xlink:href="#b" transform="rotate(-37.311 113.555 -53.589)scale(.00273)"/><use xlink:href="#b" transform="rotate(152.813 21.304 35.964)scale(.00338)"/><use xlink:href="#b" transform="rotate(106.559 6.675 49.87)scale(.00315)"/><use xlink:href="#b" transform="rotate(79.2 -6.71 62.526)scale(.00335)"/><use xlink:href="#b" transform="rotate(119.389 11.062 45.242)scale(.00304)"/><use xlink:href="#b" transform="rotate(12.493 -235.059 279.18)scale(.0026)"/><use xlink:href="#b" transform="rotate(92.897 .45 55.07)scale(.00397)"/><use xlink:href="#b" transform="rotate(-6.26 551.749 -464.966)scale(.00365)"/><use xlink:href="#b" transform="rotate(-48.392 91.116 -30.52)scale(.004)"/><use xlink:href="#b" transform="rotate(11.187 -265.598 302.484)scale(.00326)"/><use xlink:href="#b" transform="rotate(217.33 36.772 20.175)scale(.0033)"/><use xlink:href="#b" transform="rotate(62.82 -20.082 72.63)scale(.00263)"/><use xlink:href="#b" transform="rotate(78.85 -8.055 61.3)scale(.00279)"/><use xlink:href="#b" transform="rotate(21.646 -123.165 166.862)scale(.00304)"/><use xlink:href="#b" transform="rotate(49.841 -34.975 85.514)scale(.0033)"/><use xlink:href="#b" transform="rotate(-77.464 62.159 -3.238)scale(.00405)"/><use xlink:href="#b" transform="rotate(247.311 45.407 11.831)scale(.0031)"/><use xlink:href="#b" transform="rotate(57.258 -26.256 76.413)scale(.00264)"/><use xlink:href="#b" transform="rotate(149.53 18.342 36.071)scale(.003)"/><use xlink:href="#b" transform="rotate(221.195 36.769 19.462)scale(.00332)"/><use xlink:href="#b" transform="rotate(213.394 34.481 21.464)scale(.00369)"/><use xlink:href="#b" transform="rotate(-63.493 71.917 -11.96)scale(.0029)"/><use xlink:href="#b" transform="rotate(90.194 -2.712 54.149)scale(.00373)"/><use xlink:href="#b" transform="rotate(214.013 34.24 21.37)scale(.00354)"/><use xlink:href="#b" transform="rotate(210.844 33.233 22.09)scale(.00303)"/><use xlink:href="#b" transform="rotate(-52.266 83.321 -21.664)scale(.00308)"/><use xlink:href="#b" transform="rotate(49.646 -36.241 82.306)scale(.00384)"/><use xlink:href="#b" transform="rotate(-27.718 140.159 -70.462)scale(.00362)"/><use xlink:href="#b" transform="rotate(240.953 41.59 14.473)scale(.0027)"/><use xlink:href="#b" transform="rotate(222.671 35.865 19.437)scale(.0036)"/><use xlink:href="#b" transform="rotate(2.954 -1073.544 964.55)scale(.00398)"/><use xlink:href="#b" transform="rotate(-58.371 75.188 -14.054)scale(.00382)"/><use xlink:href="#b" transform="rotate(12.979 -224.918 239.106)scale(.00296)"/><use xlink:href="#b" transform="rotate(12.69 -230.43 242.783)scale(.00313)"/><use xlink:href="#b" transform="rotate(84.86 -6.755 54.669)scale(.00383)"/><use xlink:href="#b" transform="rotate(119.529 7.552 42.487)scale(.00384)"/><use xlink:href="#b" transform="rotate(139.348 13.386 37.407)scale(.00353)"/><use xlink:href="#b" transform="rotate(-36.993 107.915 -40.622)scale(.00375)"/><use xlink:href="#b" transform="rotate(21.71 -123.416 149.2)scale(.00324)"/><use xlink:href="#b" transform="rotate(-4.073 815.524 -618.175)scale(.0031)"/><use xlink:href="#b" transform="rotate(186.699 24.987 27.34)scale(.00384)"/><use xlink:href="#b" transform="rotate(211.2 31.011 22.235)scale(.00304)"/><use xlink:href="#b" transform="rotate(115.536 5.377 42.84)scale(.00345)"/><use xlink:href="#b" transform="rotate(156.636 17.17 33.23)scale(.00384)"/><use xlink:href="#b" transform="rotate(-94.274 48.773 7.85)scale(.00372)"/><use xlink:href="#b" transform="rotate(131.221 9.976 38.556)scale(.0034)"/><use xlink:href="#b" transform="rotate(-4.475 738.425 -537.252)scale(.00302)"/><use xlink:href="#b" transform="rotate(91.706 -4.714 49.752)scale(.00309)"/><use xlink:href="#b" transform="rotate(-15.965 221.102 -127.297)scale(.00347)"/><use xlink:href="#b" transform="rotate(21.638 -123.738 142.138)scale(.00303)"/><use xlink:href="#b" transform="rotate(56.465 -29.807 68.603)scale(.00313)"/><use xlink:href="#b" transform="rotate(-70.733 61.132 -2.038)scale(.00297)"/><use xlink:href="#b" transform="rotate(46.354 -42.914 78.168)scale(.00378)"/><use xlink:href="#b" transform="rotate(26.608 -95.32 117.896)scale(.00397)"/><use xlink:href="#b" transform="rotate(-94.48 47.163 8.656)scale(.00308)"/><use xlink:href="#b" transform="rotate(191.579 24.248 26.056)scale(.00347)"/><use xlink:href="#b" transform="rotate(-43.218 90.987 -24.418)scale(.00368)"/><use xlink:href="#b" transform="rotate(154.84 15.028 32.727)scale(.00344)"/><use xlink:href="#b" transform="rotate(183.969 21.975 27.298)scale(.0027)"/><use xlink:href="#b" transform="rotate(142.545 11.638 34.987)scale(.00352)"/><use xlink:href="#b" transform="rotate(59.689 -27.051 63.488)scale(.0034)"/><use xlink:href="#b" transform="rotate(100.841 -2.015 44.688)scale(.00306)"/><use xlink:href="#b" transform="rotate(92.623 -5.567 47.148)scale(.00349)"/><use xlink:href="#b" transform="rotate(-32.525 114.372 -40.89)scale(.00286)"/><use xlink:href="#b" transform="rotate(65.577 -21.942 58.699)scale(.00402)"/><use xlink:href="#b" transform="rotate(65.106 -22.453 58.723)scale(.0037)"/><use xlink:href="#b" transform="rotate(232.105 33.39 18.12)scale(.00302)"/><use xlink:href="#b" transform="rotate(-8.61 381.138 -231.411)scale(.00342)"/><use xlink:href="#b" transform="rotate(192.509 22.83 25.558)scale(.0035)"/><use xlink:href="#b" transform="rotate(100.543 -2.798 43.637)scale(.00343)"/><use xlink:href="#b" transform="rotate(-20.388 170.376 -79.22)scale(.0027)"/><use xlink:href="#b" transform="rotate(-2.85 1104.352 -736.078)scale(.00398)"/><use xlink:href="#b" transform="rotate(-74.522 54.816 2.668)scale(.00347)"/><use xlink:href="#b" transform="rotate(107.396 -.602 41.241)scale(.00289)"/><use xlink:href="#b" transform="rotate(190.208 21.551 25.774)scale(.00375)"/><use xlink:href="#b" transform="rotate(-62.79 63.025 -3.129)scale(.00285)"/><use xlink:href="#b" transform="rotate(206.87 25.309 22.943)scale(.00366)"/><use xlink:href="#b" transform="rotate(21.849 -120.146 122.378)scale(.00272)"/><use xlink:href="#b" transform="rotate(83.157 -11.503 47.774)scale(.00292)"/><use xlink:href="#b" transform="rotate(-43.774 84.91 -17.804)scale(.00367)"/><use xlink:href="#b" transform="rotate(224.328 29.284 19.823)scale(.00345)"/><use xlink:href="#b" transform="rotate(56.07 -31.486 60.587)scale(.0038)"/><use xlink:href="#b" transform="rotate(95.958 -5.765 43.008)scale(.0029)"/><use xlink:href="#b" transform="rotate(236.685 32.363 17.555)scale(.00399)"/><use xlink:href="#b" transform="rotate(119.476 2.574 37.139)scale(.00378)"/><use xlink:href="#b" transform="rotate(-94.462 42.199 10.754)scale(.00291)"/><use xlink:href="#b" transform="rotate(163.334 13.882 29.378)scale(.0038)"/><use xlink:href="#b" transform="rotate(161.813 13.358 29.494)scale(.0031)"/><use xlink:href="#b" transform="rotate(-25.943 131.17 -47.07)scale(.0035)"/><use xlink:href="#b" transform="rotate(31.113 -76.805 87.488)scale(.0027)"/><use xlink:href="#b" transform="rotate(146.072 9.337 31.77)scale(.00397)"/><use xlink:href="#b" transform="rotate(44.74 -46.07 66.99)scale(.00368)"/><use xlink:href="#b" transform="rotate(2.563 -1145.227 766.417)scale(.0031)"/><use xlink:href="#b" transform="rotate(96.158 -6.466 41.199)scale(.00283)"/><use xlink:href="#b" transform="rotate(98.286 -5.677 40.525)scale(.00274)"/><use xlink:href="#b" transform="rotate(1.223 -2400.512 1543.75)scale(.0039)"/><use xlink:href="#b" transform="rotate(3.15 -918.949 610.17)scale(.00397)"/><use xlink:href="#b" transform="rotate(-34.472 99.405 -25.451)scale(.00275)"/><use xlink:href="#b" transform="rotate(-4.846 622.466 -348.76)scale(.00345)"/><use xlink:href="#b" transform="rotate(183.788 17.052 25.582)scale(.00322)"/><use xlink:href="#b" transform="rotate(223.311 26.253 19.9)scale(.0039)"/><use xlink:href="#b" transform="rotate(202.391 21 22.884)scale(.00297)"/><use xlink:href="#b" transform="rotate(-44.829 77.453 -11.367)scale(.0036)"/><use xlink:href="#b" transform="rotate(-52.699 66.87 -4.88)scale(.00388)"/><use xlink:href="#b" transform="rotate(138.942 6.187 31.493)scale(.00377)"/><use xlink:href="#b" transform="matrix(0 .00404 -.00404 0 31.13 50.38)"/><use xlink:href="#b" transform="rotate(195.726 18.832 23.602)scale(.0034)"/><use xlink:href="#b" transform="rotate(165.417 12.058 27.504)scale(.00369)"/><use xlink:href="#b" transform="rotate(-84.73 42.529 9.492)scale(.00367)"/><use xlink:href="#b" transform="rotate(35.842 -61.955 70.34)scale(.00383)"/><use xlink:href="#b" transform="rotate(91.087 -9.623 39.54)scale(.0026)"/><use xlink:href="#b" transform="rotate(53.412 -34.68 53.887)scale(.0027)"/><use xlink:href="#b" transform="rotate(29.17 -80.366 79.96)scale(.0036)"/><use xlink:href="#b" transform="rotate(-87.033 40.604 10.263)scale(.00292)"/><use xlink:href="#b" transform="rotate(83.885 -12.91 40.763)scale(.00346)"/><use xlink:href="#b" transform="rotate(49.25 -39.293 55.485)scale(.00304)"/><use xlink:href="#b" transform="rotate(200.425 18.684 22.516)scale(.00315)"/><use xlink:href="#b" transform="rotate(146.653 6.844 29.062)scale(.00323)"/><use xlink:href="#b" transform="rotate(165.335 10.973 26.68)scale(.00399)"/><use xlink:href="#b" transform="rotate(-47.151 69.555 -5.986)scale(.00375)"/><use xlink:href="#b" transform="rotate(-26.964 114.755 -30.904)scale(.0036)"/><use xlink:href="#b" transform="rotate(92.505 -9.453 37.348)scale(.003)"/><use xlink:href="#b" transform="rotate(120.014 -.274 32.193)scale(.0035)"/><use xlink:href="#b" transform="rotate(196.456 16.944 22.586)scale(.00269)"/><use xlink:href="#b" transform="rotate(44.997 -44.305 55.696)scale(.00376)"/><use xlink:href="#b" transform="rotate(142.393 5.184 28.768)scale(.00357)"/><use xlink:href="#b" transform="rotate(190.778 15.415 23.093)scale(.0031)"/><use xlink:href="#b" transform="rotate(112.381 -2.861 32.697)scale(.00285)"/><use xlink:href="#b" transform="rotate(240.744 26.864 16.818)scale(.0032)"/><use xlink:href="#b" transform="rotate(-43.046 72.808 -7.557)scale(.00288)"/><use xlink:href="#b" transform="rotate(-3.573 768.565 -373.065)scale(.00293)"/><use xlink:href="#b" transform="rotate(-34.514 88.172 -15.34)scale(.00375)"/><use xlink:href="#b" transform="rotate(16.721 -146.456 106.461)scale(.00346)"/><use xlink:href="#b" transform="rotate(20.071 -119.577 92.091)scale(.0027)"/><use xlink:href="#b" transform="rotate(129.721 1.481 29.37)scale(.00318)"/><use xlink:href="#b" transform="rotate(86.09 -12.522 36.388)scale(.00323)"/><use xlink:href="#b" transform="rotate(166.752 9.506 24.966)scale(.00301)"/><use xlink:href="#b" transform="rotate(-6.818 398.475 -171.908)scale(.00356)"/><use xlink:href="#b" transform="rotate(93.333 -9.6 34.366)scale(.00368)"/><use xlink:href="#b" transform="rotate(116.647 -2.19 30.448)scale(.00356)"/><use xlink:href="#b" transform="rotate(3.845 -668.554 362.382)scale(.00277)"/><use xlink:href="#b" transform="rotate(-95.575 32.308 13.08)scale(.0037)"/><use xlink:href="#b" transform="rotate(110.924 -4.06 30.812)scale(.00266)"/><use xlink:href="#b" transform="rotate(-1.077 2417.156 -1157.383)scale(.00299)"/><use xlink:href="#b" transform="rotate(-10.206 263.988 -100.484)scale(.00271)"/><use xlink:href="#b" transform="rotate(83.376 -13.87 35.185)scale(.00317)"/><use xlink:href="#b" transform="rotate(-23.676 117.887 -28.591)scale(.00345)"/><use xlink:href="#b" transform="rotate(136.388 2.259 27.078)scale(.00357)"/><use xlink:href="#b" transform="rotate(147.66 4.654 25.798)scale(.00387)"/><use xlink:href="#b" transform="rotate(160.354 7.116 24.431)scale(.00347)"/><use xlink:href="#b" transform="rotate(-23.86 114.809 -26.346)scale(.00387)"/><use xlink:href="#b" transform="rotate(107.496 -5.3 29.958)scale(.00377)"/><use xlink:href="#b" transform="rotate(165.862 7.925 23.614)scale(.00367)"/><use xlink:href="#b" transform="rotate(142.31 3.034 25.651)scale(.0027)"/><use xlink:href="#b" transform="rotate(80.358 -15.133 33.966)scale(.00392)"/><use xlink:href="#b" transform="rotate(223.945 19.012 18.087)scale(.00321)"/><use xlink:href="#b" transform="rotate(60.142 -26.769 38.827)scale(.00386)"/><use xlink:href="#b" transform="rotate(155.608 5.463 23.967)scale(.00295)"/><use xlink:href="#b" transform="rotate(-85.019 33.303 11.28)scale(.00272)"/><use xlink:href="#b" transform="rotate(127.084 -.666 26.468)scale(.00283)"/><use xlink:href="#b" transform="rotate(129.905 -.07 26.067)scale(.00276)"/><use xlink:href="#b" transform="rotate(51.692 -33.804 40.921)scale(.0031)"/><use xlink:href="#b" transform="rotate(134.345 .801 25.403)scale(.00263)"/><use xlink:href="#b" transform="rotate(-3.4 715.702 -288.275)scale(.00327)"/><use xlink:href="#b" transform="rotate(195.379 12.37 20.155)scale(.00347)"/><use xlink:href="#b" transform="rotate(27.213 -76.19 58.361)scale(.0037)"/><use xlink:href="#b" transform="rotate(94.744 -9.672 29.373)scale(.00334)"/><use xlink:href="#b" transform="rotate(-64.897 41.69 7.11)scale(.00264)"/><use xlink:href="#b" transform="rotate(30.825 -65.462 52.865)scale(.00266)"/><use xlink:href="#b" transform="rotate(232.64 19.224 16.64)scale(.00307)"/><use xlink:href="#b" transform="rotate(-88.412 29.943 12.116)scale(.0038)"/><use xlink:href="#b" transform="rotate(180.883 9.049 20.655)scale(.0026)"/><use xlink:href="#b" transform="rotate(247.338 22.308 15.053)scale(.00298)"/><use xlink:href="#b" transform="rotate(-27.566 90.866 -13.523)scale(.00287)"/><use xlink:href="#b" transform="rotate(253.385 23.621 14.433)scale(.00372)"/><use xlink:href="#b" transform="rotate(83.75 -13.696 29.545)scale(.0028)"/><use xlink:href="#b" transform="rotate(15.657 -135.436 78.886)scale(.00381)"/><use xlink:href="#b" transform="rotate(26.276 -75.96 54.348)scale(.00369)"/><use xlink:href="#b" transform="rotate(226.489 16.768 16.732)scale(.00304)"/><use xlink:href="#b" transform="rotate(-23.831 100.77 -16.784)scale(.00368)"/><use xlink:href="#b" transform="rotate(89.82 -11.256 27.686)scale(.0039)"/><use xlink:href="#b" transform="rotate(71.802 -18.683 30.377)scale(.0031)"/><use xlink:href="#b" transform="rotate(-33.024 72.884 -5.616)scale(.00344)"/><use xlink:href="#b" transform="rotate(-18.826 123.576 -25.446)scale(.00298)"/><use xlink:href="#b" transform="rotate(-86.902 27.966 11.73)scale(.00289)"/><use xlink:href="#b" transform="rotate(106.683 -6.447 24.925)scale(.00274)"/><use xlink:href="#b" transform="rotate(-36.547 65.068 -2.677)scale(.00269)"/><use xlink:href="#b" transform="rotate(96.662 -9.236 25.72)scale(.0026)"/><use xlink:href="#b" transform="rotate(229.741 16.247 16.004)scale(.00365)"/><use xlink:href="#b" transform="rotate(57.999 -26.325 31.858)scale(.00264)"/><use xlink:href="#b" transform="rotate(-65.449 36.301 8.247)scale(.00319)"/><use xlink:href="#b" transform="rotate(230.565 16.048 15.773)scale(.00363)"/><use xlink:href="#b" transform="rotate(-12.798 171.052 -41.616)scale(.00325)"/><use xlink:href="#b" transform="rotate(75.97 -16.154 27.342)scale(.00385)"/><use xlink:href="#b" transform="rotate(163.837 4.52 19.637)scale(.0039)"/><use xlink:href="#b" transform="rotate(-45.532 49.93 3.073)scale(.00349)"/><use xlink:href="#b" transform="rotate(12.835 -152.223 75.359)scale(.00374)"/><use xlink:href="#b" transform="rotate(209.49 11.502 16.709)scale(.0038)"/><use xlink:href="#b" transform="rotate(-73.306 30.526 9.774)scale(.00306)"/><use xlink:href="#b" transform="rotate(256.625 20.545 13.327)scale(.00397)"/><use xlink:href="#b" transform="rotate(104.971 -6.928 22.687)scale(.00303)"/><use xlink:href="#b" transform="rotate(56.156 -26.035 29.161)scale(.00385)"/><use xlink:href="#b" transform="rotate(165.073 4.077 18.547)scale(.0027)"/><use xlink:href="#b" transform="rotate(225.496 13.531 15.218)scale(.0029)"/><use xlink:href="#b" transform="rotate(243.56 16.864 13.956)scale(.00262)"/><use xlink:href="#b" transform="rotate(-40.147 52.959 1.628)scale(.00263)"/><use xlink:href="#b" transform="rotate(158.206 2.916 18.589)scale(.00385)"/><use xlink:href="#b" transform="rotate(209.512 10.513 15.932)scale(.00402)"/><use xlink:href="#b" transform="rotate(204.905 9.647 15.987)scale(.00306)"/><use xlink:href="#b" transform="rotate(-29.785 68.316 -3.269)scale(.00355)"/><use xlink:href="#b" transform="rotate(-82.405 24.694 10.823)scale(.0029)"/><use xlink:href="#b" transform="rotate(88.794 -11.078 22.356)scale(.00285)"/><use xlink:href="#b" transform="rotate(183.194 6.15 16.689)scale(.00327)"/><use xlink:href="#b" transform="rotate(-.827 2245.284 -692.901)scale(.00401)"/><use xlink:href="#b" transform="rotate(2.247 -817.767 278.315)scale(.00275)"/><use xlink:href="#b" transform="rotate(244.033 15.493 13.327)scale(.00288)"/><use xlink:href="#b" transform="rotate(61.099 -21.503 24.837)scale(.00352)"/><use xlink:href="#b" transform="rotate(-30.396 63.684 -1.903)scale(.00277)"/><use xlink:href="#b" transform="rotate(168.116 3.637 16.717)scale(.00304)"/><use xlink:href="#b" transform="rotate(70.144 -17.003 22.931)scale(.0034)"/><use xlink:href="#b" transform="rotate(229.735 12.339 13.778)scale(.00268)"/><use xlink:href="#b" transform="rotate(81.51 -12.88 21.35)scale(.00279)"/><use xlink:href="#b" transform="rotate(156.292 1.802 16.794)scale(.00296)"/><use xlink:href="#b" transform="rotate(227.202 11.641 13.74)scale(.00303)"/><use xlink:href="#b" transform="rotate(-73.618 25.131 9.737)scale(.00373)"/><use xlink:href="#b" transform="rotate(105.609 -6.605 18.87)scale(.00284)"/><use xlink:href="#b" transform="rotate(78.284 -13.617 20.793)scale(.00287)"/><use xlink:href="#b" transform="rotate(136.463 -1.214 17.046)scale(.00297)"/><use xlink:href="#b" transform="rotate(149.053 .574 16.403)scale(.00294)"/><use xlink:href="#b" transform="rotate(205.68 7.988 14.248)scale(.00397)"/><use xlink:href="#b" transform="rotate(95.871 -8.504 18.716)scale(.00357)"/><use xlink:href="#b" transform="rotate(171.901 3.435 15.161)scale(.00286)"/><use xlink:href="#b" transform="rotate(114.758 -4.76 17.349)scale(.00298)"/><use xlink:href="#b" transform="rotate(-88.018 19.067 10.652)scale(.00336)"/><use xlink:href="#b" transform="rotate(203.275 7.184 13.747)scale(.00262)"/><use xlink:href="#b" transform="rotate(39.158 -35.049 25.206)scale(.00344)"/><use xlink:href="#b" transform="rotate(54.449 -22.652 21.632)scale(.00385)"/><use xlink:href="#b" transform="rotate(105.18 -6.404 17.078)scale(.0032)"/><use xlink:href="#b" transform="rotate(192.59 5.55 13.717)scale(.00274)"/><use xlink:href="#b" transform="rotate(73.17 -14.34 18.902)scale(.00275)"/><use xlink:href="#b" transform="rotate(212.384 7.905 13.005)scale(.004)"/><use xlink:href="#b" transform="rotate(189.239 5.014 13.599)scale(.00394)"/><use xlink:href="#b" transform="rotate(179.698 3.799 13.709)scale(.00327)"/><use xlink:href="#b" transform="rotate(41.6 -30.642 22.348)scale(.00334)"/><use xlink:href="#b" transform="rotate(62.975 -17.508 18.837)scale(.00302)"/><use xlink:href="#b" transform="rotate(-35.346 44.209 3.054)scale(.0026)"/><use xlink:href="#b" transform="rotate(97.528 -7.517 16.066)scale(.00368)"/><use xlink:href="#b" transform="rotate(229.869 9.44 11.678)scale(.00297)"/><use xlink:href="#b" transform="rotate(194.043 5.038 12.645)scale(.00283)"/><use xlink:href="#b" transform="rotate(255.084 13.043 10.575)scale(.00277)"/><use xlink:href="#b" transform="rotate(-36.887 40.345 4.097)scale(.00384)"/><use xlink:href="#b" transform="rotate(189.697 4.398 12.482)scale(.00329)"/><use xlink:href="#b" transform="rotate(229.172 8.846 11.285)scale(.00307)"/><use xlink:href="#b" transform="rotate(-17.299 82.362 -6.192)scale(.00292)"/><use xlink:href="#b" transform="rotate(171.717 2.325 12.585)scale(.00286)"/><use xlink:href="#b" transform="rotate(-24.815 56.752 -.01)scale(.00344)"/><use xlink:href="#b" transform="rotate(-97.306 13.392 9.858)scale(.00345)"/><use xlink:href="#b" transform="rotate(-17.926 76.456 -4.63)scale(.0031)"/><use xlink:href="#b" transform="rotate(238.686 9.453 10.479)scale(.00295)"/><use xlink:href="#b" transform="rotate(132.746 -2.007 12.956)scale(.00311)"/><use xlink:href="#b" transform="rotate(192.921 4.196 11.457)scale(.00318)"/><use xlink:href="#b" transform="rotate(257.8 11.865 9.63)scale(.00296)"/><use xlink:href="#b" transform="rotate(-68.702 18.94 8.085)scale(.00362)"/><use xlink:href="#b" transform="rotate(103.129 -5.817 13.259)scale(.0036)"/><use xlink:href="#b" transform="rotate(134.659 -1.778 12.226)scale(.00312)"/><use xlink:href="#b" transform="rotate(99.041 -6.363 13.08)scale(.00356)"/><use xlink:href="#b" transform="rotate(-49.105 25.676 6.258)scale(.00341)"/><use xlink:href="#b" transform="rotate(97.894 -6.479 12.789)scale(.00321)"/><use xlink:href="#b" transform="rotate(7.182 -160.793 43.866)scale(.00373)"/><use xlink:href="#b" transform="rotate(62.203 -14.24 14.049)scale(.00374)"/><use xlink:href="#b" transform="rotate(55.86 -16.287 14.263)scale(.004)"/><use xlink:href="#b" transform="rotate(40.825 -24.155 15.645)scale(.0033)"/><use xlink:href="#b" transform="rotate(-70.042 16.302 7.53)scale(.00321)"/><use xlink:href="#b" transform="rotate(41.253 -23.332 15.139)scale(.00324)"/><use xlink:href="#b" transform="rotate(32.577 -30.388 16.331)scale(.00318)"/><use xlink:href="#b" transform="rotate(84.615 -8.014 11.883)scale(.00385)"/><use xlink:href="#b" transform="rotate(101.298 -5.47 11.22)scale(.0029)"/><use xlink:href="#b" transform="rotate(110.358 -4.281 10.869)scale(.00283)"/><use xlink:href="#b" transform="rotate(58.41 -14.185 12.606)scale(.00294)"/><use xlink:href="#b" transform="rotate(256.225 9.116 8.256)scale(.0039)"/><use xlink:href="#b" transform="rotate(-58.18 17.826 6.6)scale(.00402)"/><use xlink:href="#b" transform="rotate(-37.045 27.928 4.518)scale(.00316)"/><use xlink:href="#b" transform="rotate(68.74 -10.563 11.29)scale(.00325)"/><use xlink:href="#b" transform="rotate(63.019 -11.842 11.366)scale(.0033)"/><use xlink:href="#b" transform="rotate(184.343 2.23 8.8)scale(.00367)"/><use xlink:href="#b" transform="rotate(-96.305 9.201 7.362)scale(.00268)"/><use xlink:href="#b" transform="rotate(46.077 -17.37 11.904)scale(.0027)"/><use xlink:href="#b" transform="rotate(179.6 1.743 8.48)scale(.00288)"/><use xlink:href="#b" transform="rotate(42.485 -18.444 11.756)scale(.00354)"/><use xlink:href="#b" transform="rotate(99.945 -4.826 9.343)scale(.003)"/><use xlink:href="#b" transform="rotate(42.456 -18.13 11.443)scale(.00281)"/><use xlink:href="#b" transform="rotate(78.57 -7.659 9.568)scale(.00267)"/><use xlink:href="#b" transform="rotate(6.623 -126.378 28.254)scale(.00366)"/><use xlink:href="#b" transform="rotate(238.974 5.746 7.158)scale(.00329)"/><use xlink:href="#b" transform="rotate(-42.57 20.154 4.62)scale(.00262)"/><use xlink:href="#b" transform="rotate(251.187 6.634 6.78)scale(.00308)"/><use xlink:href="#b" transform="rotate(14.458 -53.804 16.224)scale(.00289)"/><use xlink:href="#b" transform="rotate(147.202 -.573 7.666)scale(.00268)"/><use xlink:href="#b" transform="rotate(52.338 -12.27 9.371)scale(.0034)"/><use xlink:href="#b" transform="rotate(-92.321 7.823 6.23)scale(.00361)"/><use xlink:href="#b" transform="rotate(39.097 -16.777 9.699)scale(.0037)"/><use xlink:href="#b" transform="rotate(156.286 .024 7.064)scale(.00295)"/><use xlink:href="#b" transform="rotate(-53.22 13.928 4.84)scale(.00281)"/><use xlink:href="#b" transform="rotate(67.48 -7.795 7.988)scale(.00368)"/><use xlink:href="#b" transform="rotate(-96.637 6.663 5.829)scale(.00388)"/><use xlink:href="#b" transform="rotate(-10.586 65.15 -3.04)scale(.00283)"/><use xlink:href="#b" transform="rotate(-8.3 80.591 -4.813)scale(.00345)"/><use xlink:href="#b" transform="rotate(244.374 4.788 5.614)scale(.00294)"/><use xlink:href="#b" transform="rotate(120.796 -1.857 6.487)scale(.00386)"/><use xlink:href="#b" transform="rotate(-87.629 6.793 5.167)scale(.00365)"/><use xlink:href="#b" transform="rotate(217.155 2.912 5.469)scale(.00272)"/><use xlink:href="#b" transform="rotate(169.01 .67 5.734)scale(.00351)"/><use xlink:href="#b" transform="rotate(28.452 -18.53 8.134)scale(.00358)"/><use xlink:href="#b" transform="rotate(73.74 -5.34 6.251)scale(.00362)"/><use xlink:href="#b" transform="rotate(259.139 4.994 4.797)scale(.00387)"/><use xlink:href="#b" transform="rotate(106.615 -2.426 5.56)scale(.00287)"/><use xlink:href="#b" transform="rotate(-78.016 6.602 4.222)scale(.00299)"/><use xlink:href="#b" transform="rotate(79.887 -4.111 5.562)scale(.0038)"/><use xlink:href="#b" transform="rotate(215.976 2.363 4.522)scale(.0028)"/><use xlink:href="#b" transform="rotate(92.64 -2.869 5.15)scale(.00383)"/><use xlink:href="#b" transform="rotate(-25.395 18.625 2.206)scale(.00338)"/><use xlink:href="#b" transform="rotate(31.843 -12.772 6.234)scale(.00278)"/><use xlink:href="#b" transform="rotate(-21.51 20.486 1.869)scale(.00376)"/><use xlink:href="#b" transform="rotate(230.688 2.628 3.871)scale(.00306)"/><use xlink:href="#b" transform="rotate(209.956 1.866 3.92)scale(.00382)"/><use xlink:href="#b" transform="rotate(134.155 -.594 4.026)scale(.00263)"/><use xlink:href="#b" transform="rotate(72.77 -3.48 4.339)scale(.00353)"/><use xlink:href="#b" transform="rotate(184.503 .99 3.606)scale(.00328)"/><use xlink:href="#b" transform="rotate(158.313 .29 3.58)scale(.00336)"/><use xlink:href="#b" transform="rotate(16.155 -19.542 6.287)scale(.00301)"/><use xlink:href="#b" transform="rotate(249.818 2.753 2.92)scale(.00266)"/><use xlink:href="#b" transform="rotate(75.912 -2.536 3.635)scale(.00347)"/><use xlink:href="#b" transform="rotate(204.194 1.33 2.908)scale(.00276)"/><use xlink:href="#b" transform="rotate(63.529 -2.984 3.473)scale(.00376)"/><use xlink:href="#b" transform="rotate(-19.218 14.351 .577)scale(.00298)"/><use xlink:href="#b" transform="rotate(-81.18 3.272 2.362)scale(.00398)"/><use xlink:href="#b" transform="rotate(168.1 .519 2.513)scale(.00263)"/><use xlink:href="#b" transform="rotate(134.816 .012 2.556)scale(.0036)"/><use xlink:href="#b" transform="rotate(-28.32 7.901 .88)scale(.00287)"/><use xlink:href="#b" transform="rotate(211.637 1.204 2.03)scale(.00267)"/><use xlink:href="#b" transform="rotate(66.653 -1.506 2.507)scale(.0038)"/><use xlink:href="#b" transform="rotate(133.645 .121 2.042)scale(.00308)"/><use xlink:href="#b" transform="rotate(130.849 .078 1.92)scale(.00264)"/><use xlink:href="#b" transform="rotate(104.57 -.135 1.93)scale(.00364)"/><use xlink:href="#b" transform="rotate(83.062 -.353 1.877)scale(.00388)"/><use xlink:href="#b" transform="rotate(-50.238 2.732 .716)scale(.00283)"/><use xlink:href="#b" transform="rotate(158.251 .59 1.37)scale(.00345)"/><use xlink:href="#b" transform="rotate(163.72 .65 1.228)scale(.00352)"/><use xlink:href="#b" transform="rotate(169.494 .624 1.032)scale(.0026)"/><use xlink:href="#b" transform="rotate(172.535 .714 .974)scale(.00353)"/><use xlink:href="#b" transform="rotate(155.794 .648 .862)scale(.00316)"/><use xlink:href="#b" transform="rotate(-86.29 1.05 .3)scale(.0026)"/><use xlink:href="#b" transform="rotate(209.933 .93 .601)scale(.0029)"/><use xlink:href="#b" transform="rotate(112.034 .933 1.158)scale(.004)"/><use xlink:href="#b" transform="rotate(14.578 -1.153 6.434)scale(.00274)"/><use xlink:href="#b" transform="rotate(78.239 .838 1.738)scale(.00265)"/><use xlink:href="#b" transform="rotate(17.205 -.613 6.912)scale(.00271)"/><use xlink:href="#b" transform="rotate(224.687 1.577 .363)scale(.00355)"/><use xlink:href="#b" transform="rotate(-95.048 1.813 -.363)scale(.00276)"/><use xlink:href="#b" transform="rotate(55.051 1.13 3.168)scale(.00286)"/><use xlink:href="#b" transform="rotate(-37.181 2.537 -3.291)scale(.00333)"/><use xlink:href="#b" transform="rotate(194.036 1.935 .535)scale(.00286)"/><use xlink:href="#b" transform="rotate(136.799 1.87 1.348)scale(.00262)"/><use xlink:href="#b" transform="rotate(152.566 2.015 1.124)scale(.0026)"/><use xlink:href="#b" transform="rotate(80.233 1.842 2.877)scale(.00266)"/><use xlink:href="#b" transform="rotate(207.98 2.397 .265)scale(.00312)"/><use xlink:href="#b" transform="rotate(-77.952 2.77 -1.736)scale(.00333)"/><use xlink:href="#b" transform="rotate(-48.524 3.13 -3.988)scale(.0034)"/><use xlink:href="#b" transform="rotate(-53.002 3.219 -3.815)scale(.00326)"/><use xlink:href="#b" transform="rotate(-44.997 3.37 -4.899)scale(.004)"/><use xlink:href="#b" transform="rotate(233.153 3.095 -.582)scale(.0027)"/><use xlink:href="#b" transform="rotate(45.095 2.378 7.17)scale(.0028)"/><use xlink:href="#b" transform="rotate(67.608 2.902 4.88)scale(.00359)"/><use xlink:href="#b" transform="rotate(127.455 3.154 2.155)scale(.00272)"/><use xlink:href="#b" transform="rotate(37.28 2.53 9.696)scale(.00268)"/><use xlink:href="#b" transform="rotate(27.439 2.507 13.483)scale(.0032)"/><use xlink:href="#b" transform="rotate(221.799 3.795 -.433)scale(.00376)"/><use xlink:href="#b" transform="rotate(12.643 1.745 31.104)scale(.00348)"/><use xlink:href="#b" transform="rotate(-99.946 4.158 -2.185)scale(.00331)"/><use xlink:href="#b" transform="rotate(114.551 3.84 3.06)scale(.00271)"/><use xlink:href="#b" transform="rotate(-49.63 4.72 -7.335)scale(.0032)"/><use xlink:href="#b" transform="rotate(163.409 4.253 1.307)scale(.00316)"/><use xlink:href="#b" transform="rotate(18.625 3.098 24.92)scale(.0036)"/><use xlink:href="#b" transform="rotate(212.913 4.669 -.409)scale(.00386)"/><use xlink:href="#b" transform="rotate(17.817 3.424 27.807)scale(.00379)"/><use xlink:href="#b" transform="rotate(173.029 4.856 1.038)scale(.0035)"/><use xlink:href="#b" transform="rotate(170.516 4.904 1.083)scale(.00264)"/><use xlink:href="#b" transform="rotate(14.087 2.694 38.468)scale(.00273)"/><use xlink:href="#b" transform="rotate(92.282 4.975 5.314)scale(.00343)"/><use xlink:href="#b" transform="rotate(-17.107 6.907 -31.594)scale(.0034)"/><use xlink:href="#b" transform="rotate(210.696 5.554 -.569)scale(.00384)"/><use xlink:href="#b" transform="rotate(235.601 5.754 -1.897)scale(.0039)"/><use xlink:href="#b" transform="rotate(252.332 5.92 -3.136)scale(.00313)"/><use xlink:href="#b" transform="rotate(30.874 5.127 20.327)scale(.00371)"/><use xlink:href="#b" transform="rotate(220.65 6.091 -1.314)scale(.0032)"/><use xlink:href="#b" transform="rotate(151.355 6.027 2.181)scale(.00294)"/><use xlink:href="#b" transform="rotate(58.697 5.665 11.06)scale(.00268)"/><use xlink:href="#b" transform="rotate(-6.705 10.173 -99.58)scale(.00359)"/><use xlink:href="#b" transform="rotate(-73.333 6.817 -7.415)scale(.00282)"/><use xlink:href="#b" transform="rotate(237.087 6.704 -2.62)scale(.00295)"/><use xlink:href="#b" transform="rotate(93.794 6.444 6.599)scale(.00314)"/><use xlink:href="#b" transform="rotate(71.962 6.394 9.523)scale(.00285)"/><use xlink:href="#b" transform="rotate(195.426 6.993 -.087)scale(.00372)"/><use xlink:href="#b" transform="rotate(97.927 6.755 6.494)scale(.00265)"/><use xlink:href="#b" transform="rotate(252.239 7.33 -4.217)scale(.0027)"/><use xlink:href="#b" transform="rotate(85.996 6.92 8.06)scale(.00277)"/><use xlink:href="#b" transform="rotate(-38.621 8.107 -19.068)scale(.00309)"/><use xlink:href="#b" transform="rotate(-35.177 8.31 -21.535)scale(.00304)"/><use xlink:href="#b" transform="rotate(-40.268 8.34 -18.883)scale(.00283)"/><use xlink:href="#b" transform="rotate(87.204 7.57 8.406)scale(.00393)"/><use xlink:href="#b" transform="rotate(-87.023 8.13 -7.028)scale(.00357)"/><use xlink:href="#b" transform="rotate(227.599 8.098 -2.609)scale(.00299)"/><use xlink:href="#b" transform="rotate(-95.465 8.354 -6.136)scale(.00397)"/><use xlink:href="#b" transform="rotate(-59.58 8.732 -13.019)scale(.00263)"/><use xlink:href="#b" transform="rotate(127.704 8.22 4.631)scale(.00306)"/><use xlink:href="#b" transform="rotate(114.084 8.257 5.943)scale(.00277)"/><use xlink:href="#b" transform="rotate(199.073 8.643 -.604)scale(.00341)"/><use xlink:href="#b" transform="rotate(19.281 7.59 49.345)scale(.00387)"/><use xlink:href="#b" transform="rotate(213.609 8.967 -1.757)scale(.00365)"/><use xlink:href="#b" transform="rotate(.6 -38.506 1635.06)scale(.00325)"/><use xlink:href="#b" transform="rotate(123.212 8.92 5.418)scale(.00267)"/><use xlink:href="#b" transform="rotate(110.016 9.162 6.935)scale(.00399)"/><use xlink:href="#b" transform="rotate(92.984 9.193 9.247)scale(.00354)"/><use xlink:href="#b" transform="rotate(118.215 9.29 6.153)scale(.00265)"/><use xlink:href="#b" transform="rotate(1.595 -7.227 659.238)scale(.00344)"/><use xlink:href="#b" transform="rotate(106.169 9.61 7.757)scale(.00357)"/><use xlink:href="#b" transform="rotate(-46.627 10.485 -21.205)scale(.00304)"/><use xlink:href="#b" transform="rotate(174.341 9.999 1.23)scale(.00334)"/><use xlink:href="#b" transform="rotate(218.442 10.192 -2.665)scale(.00284)"/><use xlink:href="#b" transform="rotate(181.865 10.29 .634)scale(.0038)"/><use xlink:href="#b" transform="rotate(-64.722 10.788 -14.99)scale(.0029)"/><use xlink:href="#b" transform="rotate(81.587 10.223 12.4)scale(.00335)"/><use xlink:href="#b" transform="rotate(-85.176 10.893 -10.31)scale(.00335)"/><use xlink:href="#b" transform="rotate(3.232 1.013 366.603)scale(.00293)"/><use xlink:href="#b" transform="rotate(154.82 10.748 3.042)scale(.0027)"/><use xlink:href="#b" transform="rotate(167.07 10.9 1.917)scale(.00289)"/><use xlink:href="#b" transform="rotate(206.272 11.186 -1.661)scale(.00403)"/><use xlink:href="#b" transform="rotate(252.341 11.421 -7.091)scale(.00363)"/><use xlink:href="#b" transform="rotate(17.24 9.762 72.794)scale(.00332)"/><use xlink:href="#b" transform="rotate(230.408 11.59 -4.488)scale(.00287)"/><use xlink:href="#b" transform="rotate(-81.63 11.891 -12.233)scale(.00278)"/><use xlink:href="#b" transform="rotate(-35.38 12.537 -34.641)scale(.00294)"/><use xlink:href="#b" transform="rotate(248.765 11.983 -7.056)scale(.00305)"/><use xlink:href="#b" transform="rotate(178.429 11.965 .936)scale(.00361)"/><use xlink:href="#b" transform="rotate(144.198 11.978 4.5)scale(.00311)"/><use xlink:href="#b" transform="rotate(158.177 12.197 3.051)scale(.00377)"/><use xlink:href="#b" transform="rotate(144.187 12.284 4.61)scale(.0035)"/><use xlink:href="#b" transform="rotate(23.957 11.122 57.497)scale(.00287)"/><use xlink:href="#b" transform="rotate(197.269 12.568 -1.146)scale(.00261)"/><use xlink:href="#b" transform="rotate(144.533 12.652 4.693)scale(.00372)"/><use xlink:href="#b" transform="rotate(-56.477 13.26 -22.226)scale(.00367)"/><use xlink:href="#b" transform="rotate(201.696 13.051 -1.596)scale(.00385)"/><use xlink:href="#b" transform="rotate(-35.215 13.985 -39.293)scale(.00265)"/><use xlink:href="#b" transform="rotate(177.918 13.155 .94)scale(.0027)"/><use xlink:href="#b" transform="rotate(63.841 13.006 21.408)scale(.0037)"/><use xlink:href="#b" transform="rotate(-58.529 13.875 -22.396)scale(.00367)"/><use xlink:href="#b" transform="rotate(-51.68 14.125 -26.447)scale(.003)"/><use xlink:href="#b" transform="rotate(-18.775 14.93 -79.195)scale(.004)"/><use xlink:href="#b" transform="rotate(113.506 13.68 9.54)scale(.00315)"/><use xlink:href="#b" transform="rotate(-74.267 14.3 -17.057)scale(.00373)"/><use xlink:href="#b" transform="rotate(142.194 14.04 5.438)scale(.0033)"/><use xlink:href="#b" transform="rotate(-90.457 14.488 -13.01)scale(.00272)"/><use xlink:href="#b" transform="rotate(122.861 14.314 8.363)scale(.00403)"/><use xlink:href="#b" transform="rotate(32.619 13.48 48.85)scale(.00276)"/><use xlink:href="#b" transform="rotate(39.585 13.88 40.121)scale(.00313)"/><use xlink:href="#b" transform="rotate(138.402 14.593 6.157)scale(.0029)"/><use xlink:href="#b" transform="rotate(10.776 12.84 153.075)scale(.00396)"/><use xlink:href="#b" transform="rotate(-24.852 16.166 -65.322)scale(.00308)"/><use xlink:href="#b" transform="rotate(167.743 15.063 2.312)scale(.00307)"/><use xlink:href="#b" transform="rotate(153.729 15.17 4.203)scale(.00329)"/><use xlink:href="#b" transform="rotate(241.777 15.527 -8.09)scale(.00397)"/><use xlink:href="#b" transform="rotate(-54.106 15.964 -28.669)scale(.00363)"/><use xlink:href="#b" transform="rotate(-95.881 15.866 -12.945)scale(.00338)"/><use xlink:href="#b" transform="rotate(-52.878 16.277 -30.091)scale(.00312)"/><use xlink:href="#b" transform="rotate(-6.993 19.789 -251.862)scale(.0034)"/><use xlink:href="#b" transform="rotate(-74.307 16.35 -19.849)scale(.00291)"/><use xlink:href="#b" transform="rotate(163.121 16.11 3.092)scale(.00346)"/><use xlink:href="#b" transform="rotate(189.457 16.288 -.55)scale(.00335)"/><use xlink:href="#b" transform="rotate(257.405 16.605 -11.936)scale(.004)"/><use xlink:href="#b" transform="rotate(19.487 14.834 94.589)scale(.00278)"/><use xlink:href="#b" transform="rotate(-7.257 21.075 -255.145)scale(.0028)"/><use xlink:href="#b" transform="rotate(148.256 16.72 5.41)scale(.00361)"/><use xlink:href="#b" transform="rotate(83.54 16.57 19.16)scale(.00302)"/><use xlink:href="#b" transform="rotate(172.14 16.975 1.88)scale(.00312)"/><use xlink:href="#b" transform="rotate(173.247 17.174 1.788)scale(.00396)"/><use xlink:href="#b" transform="rotate(217.674 17.378 -4.962)scale(.00356)"/><use xlink:href="#b" transform="rotate(64.804 17.143 27.486)scale(.00385)"/><use xlink:href="#b" transform="rotate(-9.425 20.032 -206.423)scale(.0039)"/><use xlink:href="#b" transform="rotate(-85.874 17.97 -17.881)scale(.00264)"/><use xlink:href="#b" transform="rotate(129.168 17.688 9.002)scale(.00325)"/><use xlink:href="#b" transform="rotate(30.3 17.11 65.311)scale(.00352)"/><use xlink:href="#b" transform="rotate(4.624 12.16 437.036)scale(.00338)"/><use xlink:href="#b" transform="rotate(70.649 17.848 25.798)scale(.00328)"/><use xlink:href="#b" transform="rotate(168.56 18.364 2.595)scale(.004)"/><use xlink:href="#b" transform="rotate(56.652 18.163 34.186)scale(.00392)"/><use xlink:href="#b" transform="rotate(23.043 17.477 89.897)scale(.00342)"/><use xlink:href="#b" transform="rotate(-24.656 19.837 -82.958)scale(.00345)"/><use xlink:href="#b" transform="rotate(63.438 18.352 30.586)scale(.00265)"/><use xlink:href="#b" transform="rotate(233.356 19.14 -8.498)scale(.0039)"/><use xlink:href="#b" transform="rotate(109.231 18.937 14.02)scale(.00313)"/><use xlink:href="#b" transform="rotate(-43.376 19.86 -46.509)scale(.0034)"/><use xlink:href="#b" transform="rotate(52.698 18.876 38.987)scale(.00324)"/><use xlink:href="#b" transform="rotate(-63.202 19.918 -30.269)scale(.00302)"/><use xlink:href="#b" transform="rotate(111.83 19.422 13.718)scale(.00305)"/><use xlink:href="#b" transform="rotate(250.13 19.9 -12.824)scale(.00295)"/><use xlink:href="#b" transform="rotate(251.21 20.022 -13.159)scale(.00313)"/><use xlink:href="#b" transform="rotate(157.582 19.889 4.601)scale(.00297)"/><use xlink:href="#b" transform="rotate(258.295 20.292 -15.195)scale(.0036)"/><use xlink:href="#b" transform="rotate(134.426 20.132 9.068)scale(.00342)"/><use xlink:href="#b" transform="rotate(38.796 19.697 57.27)scale(.00344)"/><use xlink:href="#b" transform="rotate(229.456 20.606 -8.452)scale(.0035)"/><use xlink:href="#b" transform="rotate(-53.597 21.146 -39.289)scale(.00263)"/><use xlink:href="#b" transform="rotate(165.505 20.75 3.38)scale(.00397)"/><use xlink:href="#b" transform="rotate(46.077 20.395 48.753)scale(.00369)"/><use xlink:href="#b" transform="rotate(-39.55 21.768 -56.559)scale(.0027)"/><use xlink:href="#b" transform="rotate(80.176 20.912 25.311)scale(.00382)"/><use xlink:href="#b" transform="rotate(-7.325 24.845 -324.106)scale(.00352)"/><use xlink:href="#b" transform="rotate(60.365 20.882 36.763)scale(.0029)"/><use xlink:href="#b" transform="rotate(-21.095 22.73 -112.215)scale(.00357)"/><use xlink:href="#b" transform="rotate(217.985 21.725 -6.533)scale(.00335)"/><use xlink:href="#b" transform="rotate(-20.962 23.308 -114.696)scale(.00264)"/><use xlink:href="#b" transform="rotate(-61.867 22.251 -34.892)scale(.00387)"/><use xlink:href="#b" transform="rotate(-61.38 22.451 -35.67)scale(.00272)"/><use xlink:href="#b" transform="rotate(248.216 22.28 -13.93)scale(.00321)"/><use xlink:href="#b" transform="rotate(48.046 21.66 49.647)scale(.00319)"/><use xlink:href="#b" transform="rotate(167.045 22.285 3.207)scale(.0028)"/><use xlink:href="#b" transform="rotate(183.458 22.485 .1)scale(.00343)"/><use xlink:href="#b" transform="rotate(-12.775 24.578 -196.906)scale(.00365)"/><use xlink:href="#b" transform="rotate(175.907 22.716 1.541)scale(.00317)"/><use xlink:href="#b" transform="rotate(-27.006 23.9 -92.586)scale(.00321)"/><use xlink:href="#b" transform="rotate(17.114 20.946 150.662)scale(.00263)"/><use xlink:href="#b" transform="rotate(221.917 23.174 -7.915)scale(.00329)"/><use xlink:href="#b" transform="rotate(-3.28 31.763 -794.054)scale(.0033)"/><use xlink:href="#b" transform="rotate(11.66 20.353 225.132)scale(.00262)"/><use xlink:href="#b" transform="rotate(-96.152 23.654 -19.868)scale(.00343)"/><use xlink:href="#b" transform="rotate(55.104 23.216 45.047)scale(.00383)"/><use xlink:href="#b" transform="rotate(100.181 23.468 20.2)scale(.00307)"/><use xlink:href="#b" transform="rotate(83.857 23.579 26.785)scale(.00346)"/><use xlink:href="#b" transform="rotate(49.138 23.355 52.18)scale(.00304)"/><use xlink:href="#b" transform="rotate(143.408 23.942 8.539)scale(.00286)"/><use xlink:href="#b" transform="rotate(-53.466 24.687 -46.414)scale(.00302)"/><use xlink:href="#b" transform="rotate(229.864 24.375 -10.401)scale(.0026)"/><use xlink:href="#b" transform="rotate(-55.202 24.84 -44.978)scale(.00372)"/><use xlink:href="#b" transform="rotate(45.02 23.766 58.908)scale(.00264)"/><use xlink:href="#b" transform="rotate(96.194 24.468 22.471)scale(.00361)"/><use xlink:href="#b" transform="rotate(5.138 19.834 542.644)scale(.00359)"/><use xlink:href="#b" transform="rotate(-44.529 25.452 -58.883)scale(.0039)"/><use xlink:href="#b" transform="rotate(178.608 25.12 1.108)scale(.004)"/><use xlink:href="#b" transform="rotate(32.247 24.257 86.453)scale(.003)"/><use xlink:href="#b" transform="rotate(-14.965 27.387 -188.844)scale(.00292)"/><use xlink:href="#b" transform="rotate(-61.157 25.846 -41.506)scale(.0035)"/><use xlink:href="#b" transform="rotate(238.328 25.7 -13.29)scale(.00308)"/><use xlink:href="#b" transform="rotate(227.764 25.813 -10.396)scale(.00356)"/><use xlink:href="#b" transform="rotate(-39.16 26.562 -70.666)scale(.00295)"/><use xlink:href="#b" transform="rotate(67.53 25.638 38.881)scale(.00363)"/><use xlink:href="#b" transform="rotate(5.022 20.508 585.136)scale(.00331)"/><use xlink:href="#b" transform="rotate(-53.605 26.721 -50.31)scale(.0028)"/><use xlink:href="#b" transform="rotate(117.719 26.19 16.39)scale(.00351)"/><use xlink:href="#b" transform="rotate(103.108 26.194 21.378)scale(.00293)"/><use xlink:href="#b" transform="rotate(77.547 26.136 33.245)scale(.00268)"/><use xlink:href="#b" transform="rotate(-72.06 27.002 -35.333)scale(.00293)"/><use xlink:href="#b" transform="rotate(231.046 26.887 -11.811)scale(.00331)"/><use xlink:href="#b" transform="rotate(-30.97 27.85 -94.799)scale(.00293)"/><use xlink:href="#b" transform="rotate(-28.897 28.036 -102.414)scale(.00294)"/><use xlink:href="#b" transform="rotate(63.154 26.618 44.146)scale(.00282)"/><use xlink:href="#b" transform="rotate(-26.351 28.42 -113.803)scale(.0027)"/><use xlink:href="#b" transform="rotate(122.504 27.115 15.47)scale(.00268)"/><use xlink:href="#b" transform="rotate(133.489 27.348 12.36)scale(.00348)"/><use xlink:href="#b" transform="rotate(-81.91 27.848 -30.566)scale(.00272)"/><use xlink:href="#b" transform="rotate(-10.756 29.778 -287.978)scale(.00398)"/><use xlink:href="#b" transform="rotate(115.806 27.63 17.91)scale(.00304)"/><use xlink:href="#b" transform="rotate(-53.202 28.386 -54.028)scale(.0039)"/><use xlink:href="#b" transform="rotate(251.928 28.278 -19.239)scale(.00382)"/><use xlink:href="#b" transform="rotate(-78.411 28.53 -33.309)scale(.00324)"/><use xlink:href="#b" transform="rotate(28.305 27.587 111.355)scale(.00382)"/><use xlink:href="#b" transform="rotate(86.949 28.227 30.338)scale(.00322)"/><use xlink:href="#b" transform="rotate(-11.68 31.035 -274.678)scale(.00328)"/><use xlink:href="#b" transform="rotate(169.356 28.688 3.363)scale(.00291)"/><use xlink:href="#b" transform="rotate(-29.846 29.732 -105.78)scale(.00353)"/><use xlink:href="#b" transform="rotate(-97.093 29.214 -24.427)scale(.00354)"/><use xlink:href="#b" transform="rotate(-1.826 45.4 -1799.519)scale(.00312)"/><use xlink:href="#b" transform="rotate(-97.713 29.464 -24.383)scale(.00348)"/><use xlink:href="#b" transform="rotate(-13.04 31.593 -252.446)scale(.00318)"/><use xlink:href="#b" transform="rotate(1.56 11.47 2135.592)scale(.0033)"/><use xlink:href="#b" transform="rotate(199.976 29.66 -4.394)scale(.00318)"/><use xlink:href="#b" transform="rotate(226.023 29.866 -11.663)scale(.00356)"/><use xlink:href="#b" transform="rotate(54.865 29.406 57.46)scale(.00328)"/><use xlink:href="#b" transform="rotate(12.151 27.326 278.64)scale(.00283)"/><use xlink:href="#b" transform="rotate(147.882 30.07 9.309)scale(.00353)"/><use xlink:href="#b" transform="rotate(41.327 29.546 79.783)scale(.00312)"/><use xlink:href="#b" transform="rotate(209.639 30.437 -7.157)scale(.00334)"/><use xlink:href="#b" transform="rotate(-12.736 32.279 -268.13)scale(.00399)"/><use xlink:href="#b" transform="rotate(181.42 30.653 .382)scale(.00332)"/><use xlink:href="#b" transform="rotate(-77.677 31.083 -36.965)scale(.00291)"/><use xlink:href="#b" transform="rotate(157.815 30.767 6.675)scale(.0026)"/><use xlink:href="#b" transform="rotate(140.55 30.976 11.744)scale(.00398)"/><use xlink:href="#b" transform="rotate(138.186 31.004 12.458)scale(.00296)"/><use xlink:href="#b" transform="rotate(238.845 31.397 -16.596)scale(.0035)"/><use xlink:href="#b" transform="rotate(5.718 25.868 620.468)scale(.00293)"/><use xlink:href="#b" transform="rotate(-81.69 31.779 -35.165)scale(.00322)"/><use xlink:href="#b" transform="rotate(133.948 31.468 13.98)scale(.00292)"/><use xlink:href="#b" transform="rotate(258.434 31.946 -24.693)scale(.00397)"/><use xlink:href="#b" transform="rotate(231.985 32.012 -14.546)scale(.00354)"/><use xlink:href="#b" transform="rotate(182.338 32.04 .128)scale(.00352)"/><use xlink:href="#b" transform="rotate(157.287 32.047 7.086)scale(.00278)"/><use xlink:href="#b" transform="rotate(-61.713 32.673 -52.508)scale(.00314)"/><use xlink:href="#b" transform="rotate(197.768 32.366 -4.29)scale(.00267)"/><use xlink:href="#b" transform="rotate(136.763 32.307 13.412)scale(.00268)"/><use xlink:href="#b" transform="rotate(-6.467 36.53 -567.644)scale(.0036)"/><use xlink:href="#b" transform="rotate(57.238 32.314 59.888)scale(.0035)"/><use xlink:href="#b" transform="rotate(246.52 32.987 -20.568)scale(.00265)"/><use xlink:href="#b" transform="rotate(-47.325 33.52 -73.436)scale(.0032)"/><use xlink:href="#b" transform="rotate(216.167 33.197 -9.832)scale(.004)"/><use xlink:href="#b" transform="rotate(-37.794 33.922 -94.96)scale(.00345)"/><use xlink:href="#b" transform="rotate(89.262 33.089 34.086)scale(.00318)"/><use xlink:href="#b" transform="rotate(166.387 33.518 4.748)scale(.00401)"/><use xlink:href="#b" transform="rotate(256.024 33.808 -25.244)scale(.00275)"/><use xlink:href="#b" transform="rotate(34.461 32.753 108.13)scale(.00273)"/><use xlink:href="#b" transform="rotate(-8.074 36.814 -471.978)scale(.0038)"/><use xlink:href="#b" transform="rotate(-10.215 36.227 -374.066)scale(.00395)"/><use xlink:href="#b" transform="rotate(246.431 34.273 -21.371)scale(.00267)"/><use xlink:href="#b" transform="rotate(-86.865 34.493 -35.007)scale(.00274)"/><use xlink:href="#b" transform="rotate(-93.315 34.563 -31.314)scale(.00263)"/><use xlink:href="#b" transform="rotate(-36.348 35.19 -102.794)scale(.0033)"/><use xlink:href="#b" transform="rotate(135.977 34.528 14.576)scale(.0038)"/><use xlink:href="#b" transform="rotate(109.012 34.584 25.203)scale(.00363)"/><use xlink:href="#b" transform="rotate(125.378 34.683 18.502)scale(.00298)"/><use xlink:href="#b" transform="rotate(97.47 34.756 31.041)scale(.00335)"/><use xlink:href="#b" transform="rotate(95.215 34.91 32.388)scale(.00357)"/><use xlink:href="#b" transform="rotate(31.8 34.342 122.85)scale(.00323)"/><use xlink:href="#b" transform="rotate(203.868 35.445 -6.57)scale(.0039)"/><use xlink:href="#b" transform="rotate(-63.364 35.92 -56.135)scale(.00266)"/><use xlink:href="#b" transform="rotate(-59.754 35.996 -60.324)scale(.00396)"/><use xlink:href="#b" transform="rotate(-93.532 35.989 -32.382)scale(.00374)"/><use xlink:href="#b" transform="rotate(15.135 33.902 267.62)scale(.00308)"/><use xlink:href="#b" transform="rotate(.694 1.52 5872.9)scale(.00377)"/><use xlink:href="#b" transform="rotate(35.665 35.475 111.732)scale(.00355)"/><use xlink:href="#b" transform="rotate(200.59 36.382 -5.7)scale(.00394)"/><use xlink:href="#b" transform="rotate(227.392 36.514 -15.107)scale(.00264)"/><use xlink:href="#b" transform="rotate(37.214 35.958 107.926)scale(.00376)"/><use xlink:href="#b" transform="rotate(168.212 36.62 4.465)scale(.00288)"/><use xlink:href="#b" transform="rotate(-31.425 37.686 -128.468)scale(.0032)"/><use xlink:href="#b" transform="rotate(52.687 36.408 74.402)scale(.00324)"/><use xlink:href="#b" transform="rotate(226.527 37.11 -15.042)scale(.00264)"/><use xlink:href="#b" transform="rotate(218.875 37.232 -12.186)scale(.00337)"/><use xlink:href="#b" transform="rotate(4.814 30.836 877.08)scale(.00299)"/><use xlink:href="#b" transform="rotate(9.222 34.497 458.634)scale(.00345)"/><use xlink:href="#b" transform="rotate(160.431 37.413 7.106)scale(.00271)"/><use xlink:href="#b" transform="rotate(132.701 37.454 17.005)scale(.00283)"/><use xlink:href="#b" transform="rotate(63.684 37.44 60.776)scale(.00382)"/><use xlink:href="#b" transform="rotate(68.822 37.61 55.389)scale(.00379)"/><use xlink:href="#b" transform="rotate(215.754 38.136 -11.3)scale(.00396)"/><use xlink:href="#b" transform="rotate(103.805 37.923 30.313)scale(.00295)"/><use xlink:href="#b" transform="rotate(122.858 38.162 21.362)scale(.00343)"/><use xlink:href="#b" transform="rotate(224.99 38.495 -14.995)scale(.003)"/><use xlink:href="#b" transform="rotate(186.047 38.526 -1.267)scale(.00317)"/><use xlink:href="#b" transform="rotate(16.271 36.973 267.927)scale(.00337)"/><use xlink:href="#b" transform="rotate(114.348 38.59 25.47)scale(.00311)"/><use xlink:href="#b" transform="rotate(95.786 38.715 35.509)scale(.00359)"/><use xlink:href="#b" transform="rotate(188.872 39.05 -2.236)scale(.00333)"/><use xlink:href="#b" transform="rotate(156.156 39.077 8.91)scale(.00304)"/><use xlink:href="#b" transform="rotate(156.873 39.154 8.654)scale(.00264)"/><use xlink:href="#b" transform="rotate(4.522 33.902 986.214)scale(.00366)"/><use xlink:href="#b" transform="rotate(64.306 39.063 62.898)scale(.00302)"/><use xlink:href="#b" transform="rotate(201.676 39.63 -6.799)scale(.00268)"/><use xlink:href="#b" transform="rotate(116.45 39.611 25.097)scale(.00355)"/><use xlink:href="#b" transform="rotate(-14.853 41.745 -301.626)scale(.0033)"/><use xlink:href="#b" transform="rotate(216.657 40.06 -12.362)scale(.00311)"/><use xlink:href="#b" transform="rotate(-41.135 40.834 -105.066)scale(.0027)"/><use xlink:href="#b" transform="rotate(87.21 39.982 42.507)scale(.00346)"/><use xlink:href="#b" transform="rotate(215.777 40.395 -12.164)scale(.00285)"/><use xlink:href="#b" transform="rotate(126.01 40.342 21.139)scale(.00342)"/><use xlink:href="#b" transform="rotate(-41.33 41.294 -105.756)scale(.00278)"/><use xlink:href="#b" transform="rotate(115.823 40.626 26.017)scale(.00397)"/><use xlink:href="#b" transform="rotate(-37.125 41.496 -119.406)scale(.00382)"/><use xlink:href="#b" transform="rotate(174.676 40.944 2.615)scale(.00298)"/><use xlink:href="#b" transform="rotate(27.063 39.915 169.712)scale(.0029)"/><use xlink:href="#b" transform="rotate(82.878 40.899 46.92)scale(.00311)"/><use xlink:href="#b" transform="rotate(38.754 40.626 116.986)scale(.00329)"/><use xlink:href="#b" transform="rotate(191.761 41.49 -3.455)scale(.00346)"/><use xlink:href="#b" transform="rotate(170.268 41.522 4.224)scale(.00285)"/><use xlink:href="#b" transform="rotate(167.434 41.723 5.338)scale(.0039)"/><use xlink:href="#b" transform="rotate(157.921 41.825 8.85)scale(.0036)"/><use xlink:href="#b" transform="rotate(245.68 42.135 -26.057)scale(.00325)"/><use xlink:href="#b" transform="rotate(-2.58 50.864 -1846.948)scale(.00394)"/><use xlink:href="#b" transform="rotate(253.879 42.433 -30.693)scale(.00316)"/><use xlink:href="#b" transform="rotate(171.636 42.42 3.87)scale(.00399)"/><use xlink:href="#b" transform="rotate(37.02 41.81 126.43)scale(.00335)"/><use xlink:href="#b" transform="rotate(165.374 42.569 6.132)scale(.00275)"/><use xlink:href="#b" transform="rotate(32.632 41.992 145.272)scale(.0035)"/><use xlink:href="#b" transform="rotate(75.134 42.48 55.926)scale(.00281)"/><use xlink:href="#b" transform="rotate(-18.403 44.502 -261.894)scale(.00333)"/><use xlink:href="#b" transform="rotate(123.921 43.039 23.501)scale(.00364)"/><use xlink:href="#b" transform="rotate(207.538 43.29 -9.783)scale(.00278)"/><use xlink:href="#b" transform="rotate(219.945 43.494 -14.79)scale(.00388)"/><use xlink:href="#b" transform="rotate(-73.545 43.837 -56.788)scale(.0039)"/><use xlink:href="#b" transform="rotate(14.362 41.639 343.817)scale(.00318)"/><use xlink:href="#b" transform="rotate(-26.771 44.804 -181.351)scale(.00336)"/><use xlink:href="#b" transform="rotate(110.674 43.661 30.785)scale(.00269)"/><use xlink:href="#b" transform="rotate(79.154 43.85 53.478)scale(.004)"/><use xlink:href="#b" transform="rotate(196.601 44.197 -5.636)scale(.00316)"/><use xlink:href="#b" transform="rotate(241.633 44.415 -25.46)scale(.00272)"/><use xlink:href="#b" transform="rotate(-68.828 44.748 -63.36)scale(.00352)"/><use xlink:href="#b" transform="rotate(-21.72 45.686 -228.89)scale(.00369)"/><use xlink:href="#b" transform="rotate(77.426 44.428 55.932)scale(.00364)"/><use xlink:href="#b" transform="rotate(-55.733 45.282 -83.171)scale(.00315)"/><use xlink:href="#b" transform="rotate(255.949 45.14 -33.884)scale(.004)"/><use xlink:href="#b" transform="rotate(-87.113 45.337 -46.267)scale(.00267)"/><use xlink:href="#b" transform="rotate(210.277 45.3 -11.28)scale(.00404)"/><use xlink:href="#b" transform="rotate(241.872 45.463 -26.208)scale(.00275)"/><use xlink:href="#b" transform="rotate(.223 -75.282 23137.168)scale(.00344)"/><use xlink:href="#b" transform="rotate(182.445 45.577 -.21)scale(.00328)"/><use xlink:href="#b" transform="rotate(39.827 45.208 125.626)scale(.00392)"/><use xlink:href="#b" transform="rotate(136.707 45.782 18.787)scale(.00357)"/><use xlink:href="#b" transform="rotate(-73.732 46.303 -59.894)scale(.00381)"/><use xlink:href="#b" transform="rotate(227.321 46.208 -19.313)scale(.00276)"/><use xlink:href="#b" transform="rotate(14.534 44.121 359.896)scale(.00303)"/><use xlink:href="#b" transform="rotate(59.366 46.085 81.276)scale(.00404)"/><use xlink:href="#b" transform="rotate(166.427 46.461 6.226)scale(.00316)"/><use xlink:href="#b" transform="rotate(134.639 46.454 20.02)scale(.00273)"/><use xlink:href="#b" transform="rotate(72.316 46.356 64.083)scale(.0031)"/><use xlink:href="#b" transform="rotate(45.23 46.12 112.159)scale(.0028)"/><use xlink:href="#b" transform="rotate(114.294 46.706 30.756)scale(.00265)"/><use xlink:href="#b" transform="rotate(230.423 47.145 -21.236)scale(.00282)"/><use xlink:href="#b" transform="rotate(225.191 47.284 -18.65)scale(.00367)"/><use xlink:href="#b" transform="rotate(158.562 47.223 9.602)scale(.00298)"/><use xlink:href="#b" transform="rotate(.712 11.278 7561.968)scale(.00357)"/><use xlink:href="#b" transform="rotate(-29.38 48.475 -178.9)scale(.00336)"/><use xlink:href="#b" transform="rotate(-17.512 49.556 -306.16)scale(.00262)"/><use xlink:href="#b" transform="rotate(257.272 47.978 -37.066)scale(.0034)"/><use xlink:href="#b" transform="rotate(-13.06 50.237 -414.026)scale(.00299)"/><use xlink:href="#b" transform="rotate(-30.302 48.83 -174.809)scale(.0038)"/><use xlink:href="#b" transform="rotate(116.283 48.034 30.415)scale(.00344)"/><use xlink:href="#b" transform="rotate(37.515 47.597 141.649)scale(.00337)"/><use xlink:href="#b" transform="rotate(168.385 48.363 5.605)scale(.0029)"/><use xlink:href="#b" transform="rotate(193.198 48.527 -4.85)scale(.0028)"/><use xlink:href="#b" transform="rotate(-51.067 49.155 -100.13)scale(.00334)"/><use xlink:href="#b" transform="rotate(218.876 48.882 -16.26)scale(.00371)"/><use xlink:href="#b" transform="rotate(127.724 48.706 24.5)scale(.00261)"/><use xlink:href="#b" transform="rotate(57.652 48.648 88.992)scale(.00366)"/><use xlink:href="#b" transform="rotate(83.602 48.78 55.211)scale(.00274)"/><use xlink:href="#b" transform="rotate(76.799 48.85 62.327)scale(.00277)"/><use xlink:href="#b" transform="rotate(120.235 49.152 28.835)scale(.00278)"/><use xlink:href="#b" transform="rotate(51.758 49.064 101.788)scale(.00371)"/><use xlink:href="#b" transform="rotate(39.762 49.131 136.66)scale(.00397)"/><use xlink:href="#b" transform="rotate(40.797 48.992 133.378)scale(.00293)"/><use xlink:href="#b" transform="rotate(141.393 49.76 18.052)scale(.00307)"/><use xlink:href="#b" transform="rotate(-54.536 50.434 -95.273)scale(.0038)"/><use xlink:href="#b" transform="rotate(22.54 49.182 249.982)scale(.00389)"/><use xlink:href="#b" transform="rotate(163.76 50.185 7.82)scale(.00267)"/><use xlink:href="#b" transform="rotate(193.052 50.395 -4.975)scale(.00309)"/><use xlink:href="#b" transform="rotate(152.594 50.382 12.922)scale(.00274)"/><use xlink:href="#b" transform="rotate(-56.362 51.022 -92.74)scale(.00402)"/><use xlink:href="#b" transform="rotate(160.18 50.694 9.53)scale(.00309)"/><use xlink:href="#b" transform="rotate(210.08 50.93 -12.81)scale(.00312)"/><use xlink:href="#b" transform="rotate(244.329 51.124 -31.103)scale(.00264)"/><use xlink:href="#b" transform="rotate(218.211 51.173 -16.802)scale(.00316)"/><use xlink:href="#b" transform="rotate(-36.556 52.012 -153.029)scale(.00294)"/><use xlink:href="#b" transform="rotate(-64.316 51.725 -80.198)scale(.00313)"/><use xlink:href="#b" transform="rotate(-91.631 51.687 -48.807)scale(.00334)"/><use xlink:href="#b" transform="rotate(173.609 51.537 3.59)scale(.00303)"/><use xlink:href="#b" transform="rotate(-47.15 52.203 -116.568)scale(.00385)"/><use xlink:href="#b" transform="rotate(-76.783 52.149 -64.121)scale(.00316)"/><use xlink:href="#b" transform="rotate(22.491 50.406 259.927)scale(.00263)"/><use xlink:href="#b" transform="rotate(-2.375 63.364 -2488.66)scale(.00345)"/><use xlink:href="#b" transform="rotate(18.802 50.614 313.295)scale(.00313)"/><use xlink:href="#b" transform="rotate(-28.71 53.14 -201.723)scale(.0039)"/><use xlink:href="#b" transform="rotate(231.535 52.555 -24.394)scale(.00287)"/><use xlink:href="#b" transform="rotate(201.205 52.617 -8.996)scale(.00336)"/><use xlink:href="#b" transform="rotate(229.074 52.787 -23.135)scale(.00291)"/><use xlink:href="#b" transform="rotate(247.524 52.978 -34.218)scale(.00354)"/><use xlink:href="#b" transform="rotate(232.48 53.098 -25.044)scale(.00404)"/><use xlink:href="#b" transform="rotate(100.834 52.955 44.296)scale(.00372)"/><use xlink:href="#b" transform="rotate(240.655 53.408 -30.056)scale(.00396)"/><use xlink:href="#b" transform="rotate(176.153 53.337 2.497)scale(.00283)"/><use xlink:href="#b" transform="rotate(243.227 53.635 -31.927)scale(.00302)"/><use xlink:href="#b" transform="rotate(182.879 53.58 -.615)scale(.00286)"/><use xlink:href="#b" transform="rotate(151.994 53.595 14)scale(.0027)"/><use xlink:href="#b" transform="rotate(259.032 54.035 -43.22)scale(.0037)"/><use xlink:href="#b" transform="rotate(45.31 53.25 128.985)scale(.00284)"/><use xlink:href="#b" transform="rotate(-49.169 54.648 -116.542)scale(.00282)"/><use xlink:href="#b" transform="rotate(-28.845 55.027 -208.038)scale(.0038)"/><use xlink:href="#b" transform="rotate(73.992 53.958 72.257)scale(.00308)"/><use xlink:href="#b" transform="rotate(155.321 54.315 12.52)scale(.0026)"/><use xlink:href="#b" transform="rotate(-71.864 54.888 -73.945)scale(.00287)"/><use xlink:href="#b" transform="rotate(-55.643 55.14 -102.026)scale(.00288)"/><use xlink:href="#b" transform="rotate(256.48 54.94 -42.105)scale(.00278)"/><use xlink:href="#b" transform="rotate(137.342 54.715 21.975)scale(.00283)"/><use xlink:href="#b" transform="rotate(239.763 55.142 -30.508)scale(.00394)"/><use xlink:href="#b" transform="rotate(103.062 54.954 44.203)scale(.00347)"/><use xlink:href="#b" transform="rotate(34.325 54.65 178.176)scale(.00386)"/><use xlink:href="#b" transform="rotate(-14.52 57.64 -430.87)scale(.0027)"/><use xlink:href="#b" transform="rotate(-40.119 56.18 -150.029)scale(.0033)"/><use xlink:href="#b" transform="rotate(210.534 55.74 -14.251)scale(.00392)"/><use xlink:href="#b" transform="rotate(193.592 55.829 -5.82)scale(.00354)"/><use xlink:href="#b" transform="rotate(233.864 56.075 -27.351)scale(.00402)"/><use xlink:href="#b" transform="rotate(-49.803 56.624 -119.122)scale(.00297)"/><use xlink:href="#b" transform="rotate(-96.5 56.407 -48.946)scale(.00366)"/><use xlink:href="#b" transform="rotate(-34.399 57.01 -179.594)scale(.00394)"/><use xlink:href="#b" transform="rotate(200.363 56.498 -9.328)scale(.00305)"/><use xlink:href="#b" transform="rotate(-96.43 56.795 -49.497)scale(.0026)"/><use xlink:href="#b" transform="rotate(248.517 56.861 -37.529)scale(.00348)"/><use xlink:href="#b" transform="rotate(-1.62 76.367 -3986.349)scale(.00289)"/><use xlink:href="#b" transform="rotate(-33.952 57.787 -184.34)scale(.00298)"/><use xlink:href="#b" transform="rotate(83.614 56.738 64.034)scale(.00311)"/><use xlink:href="#b" transform="rotate(154.182 57.033 13.707)scale(.0026)"/><use xlink:href="#b" transform="rotate(40.528 56.432 154.668)scale(.00274)"/><use xlink:href="#b" transform="rotate(-98.88 57.564 -48.03)scale(.0027)"/><use xlink:href="#b" transform="rotate(86.491 57.263 61.387)scale(.00362)"/><use xlink:href="#b" transform="rotate(170.1 57.599 5.715)scale(.00343)"/><use xlink:href="#b" transform="rotate(-10.407 60.766 -628.542)scale(.00285)"/></g><defs><filter id="a" width="115.429" height="58.58" x=".335" y=".153" color-interpolation-filters="sRGB" filterUnits="userSpaceOnUse"><feFlood flood-opacity="0" result="BackgroundImageFix"/><feBlend in="SourceGraphic" in2="BackgroundImageFix" result="shape"/><feTurbulence baseFrequency="0.38759690523147583 0.38759690523147583" numOctaves="3" result="noise" seed="9800" stitchTiles="stitch" type="fractalNoise"/><feColorMatrix in="noise" result="alphaNoise" type="luminanceToAlpha"/><feComponentTransfer in="alphaNoise" result="coloredNoise1"><feFuncA tableValues="0 0 0 0 0 0 0 0 0 0 0 0 0 0 1 1 1 1 1 1 1 1 1 1 1 1 1 1 1 1 1 1 1 1 1 1 0 0 0 0 0 0 0 0 0 0 0 0 0 0 0 0 0 0 0 0 0 0 0 0 0 0 0 0 0 0 0 0 0 0 0 0 0 0 0 0 0 0 0 0 0 0 0 0 0 0 0 0 0 0 0 0 0 0 0 0 0 0 0 0" type="discrete"/></feComponentTransfer><feComposite in="coloredNoise1" in2="shape" operator="in" result="noise1Clipped"/><feComponentTransfer in="alphaNoise" result="coloredNoise2"><feFuncA tableValues="0 0 0 0 0 0 0 0 0 0 0 0 0 0 0 0 0 0 0 0 0 0 0 0 0 0 0 0 0 0 0 0 0 0 0 0 0 0 0 0 0 0 0 0 0 0 0 0 0 0 0 0 0 0 0 0 0 0 0 0 0 0 0 0 1 1 1 1 1 1 1 1 1 1 1 1 1 1 1 1 1 1 1 1 1 1 0 0 0 0 0 0 0 0 0 0 0 0 0 0" type="discrete"/></feComponentTransfer><feComposite in="coloredNoise2" in2="shape" operator="in" result="noise2Clipped"/><feFlood flood-color="rgba(255, 255, 255, 0.75)" result="color1Flood"/><feComposite in="color1Flood" in2="noise1Clipped" operator="in" result="color1"/><feFlood flood-color="rgba(255, 255, 255, 0.25)" result="color2Flood"/><feComposite in="color2Flood" in2="noise2Clipped" operator="in" result="color2"/><feMerge result="effect1_noise_6_45"><feMergeNode in="shape"/><feMergeNode in="color1"/><feMergeNode in="color2"/></feMerge></filter><path id="b" fill="#538fdf" d="M103.731 283.547c6.621-2.184 9.076-2.199 12.39-.079 13.988 8.95 8.729 25.25-8.149 25.259-17.595.01-20.911-19.681-4.241-25.18m36.106-248.132c1.1-.236 2.675-.301 3.5-.144s3.179.568 5.23.914c7.235 1.22 11.612 10.512 8.167 17.34-3.81 7.552-12.019 14.056-15.875 12.577-4.987-1.914-3.234 3.777 3.207 10.413 4.24 4.37 6.271 4.754 6.271 1.192 0-1.05 1.285-3.385 2.856-5.19 1.63-1.876 3.404-5.597 4.131-8.667 1.601-6.76 3.464-8.621 10.045-10.033 9.951-2.134 18.212 3.11 16.383 10.398-.459 1.827.149 3.45 2.338 6.243 10.769 13.74 7.785 33.815-5.494 36.96-3.547.84-3.764 1.114-3.823 4.852-.034 2.178-.408 4.717-.83 5.642-.688 1.505.003 1.652 6.563 1.398 7.909-.307 10.168.395 13.447 4.177 3.101 3.577 5.645 2.627 6.656-2.485.894-4.519 6.487-10.271 9.987-10.271 2.245 0 3.338-2.575 1.853-4.364-8.349-10.061 7.785-32.704 21.156-29.688 5.967 1.346 10.697 6.951 10.762 12.752.017 1.54 1.138 5.05 2.491 7.8 6.504 13.222-5.554 28.994-16.081 21.032-2.853-2.158-2.94-2.037-2.94 4.078 0 6.589-3.905 10.951-10.788 12.052-2.981.477-4.116 1.277-5.274 3.723-.811 1.713-2.225 4.299-3.145 5.747-1.646 2.593-1.61 2.702 2.517 7.391 2.304 2.617 4.19 5.301 4.19 5.964s.737 2.683 1.637 4.488c3.174 6.361 2.099 20.025-1.574 20.025-.348 0-1.43 1.35-2.405 3s-2.422 3-3.216 3c-2.184 0-1.735 2.086 1.084 5.029 3.521 3.675 4.562 12.107 1.865 15.098-5.225 5.791-11.678 10.152-16.664 11.264-4.12.919-5.234 1.583-5.26 3.137-.135 8.13-4.562 13.128-13.122 14.818-6.837 1.35-7.61 3.233-2.105 5.126 12.781 4.394 15.315 15.49 4.865 21.303-5.921 3.293-10.016 3.252-14.927-.152-3.621-2.509-4.354-2.668-7.836-1.701-5.942 1.65-12.316 1.281-18.342-1.06-5.463-2.123-10.613-3.525-16.648-4.532-5.974-.997-9.538-6.118-10.097-14.51-.408-6.134-.921-7.806-3.167-10.32-1.474-1.65-3.439-4.687-4.367-6.75-1.638-3.637-1.847-3.75-6.894-3.75-6.37 0-11.084-2.809-13.947-8.311-3.17-6.093-7.274-5.084-7.37 1.811-.037 2.75-.424 6.586-.859 8.524-.753 3.358-.637 3.569 2.449 4.5 10.063 3.035 9.961 20.691-.149 25.679-24.298 11.986-54.047-12.461-32.413-26.636 1.681-1.102 2.306-2.804 2.815-7.672.36-3.441 1.44-7.364 2.4-8.716a375 375 0 0 1 2.719-3.783c.693-.943.207-2.124-1.687-4.11-3.495-3.662-4.81-7.36-4.124-11.589.33-2.036.105-3.723-.552-4.129-.61-.377-1.109-1.954-1.11-3.505 0-1.55-.735-3.428-1.633-4.173-2.703-2.245-12.366-15.765-12.366-17.304 0-.788-1.574-3.495-3.498-6.015-1.924-2.521-3.44-4.918-3.366-5.327.973-5.497-2.826-8.55-7-5.627-2.218 1.554-9.25 1.428-13.607-.244-10.102-3.877-8.653-28.978 1.702-29.484 6.291-.307 14.769 2.931 14.769 5.641 0 1.757 2.773 4.47 4.57 4.47.786 0 1.43-.69 1.43-1.533 0-13.384 20.848-28.89 40.5-30.121 13.093-.822 18.425.42 27.352 6.37 4.261 2.84 11.148-2.563 11.148-8.746 0-2.041.835-4.23 2.146-5.626 2.251-2.396 1.321-5.344-1.687-5.344-2.393 0-5.24-6.189-4.719-10.26.969-7.587 13.556-11.704 19.212-6.285 2.35 2.252 3.419 2.622 5.956 2.065 3.809-.837 3.883-1.777.342-4.356-8.227-5.993-1.392-22.986 10.25-25.48m87.5 168.014c11.757-3.775 25.385 3.862 25.385 14.224 0 10.842-20.801 21.787-28.795 15.153-2.262-1.877-3.524-.443-2.915 3.312 1.085 6.684-7.501 18.613-13.396 18.613-13.37 0-18.816-8.499-13.159-20.533 3.745-7.967 9.996-10.414 18.781-7.351 4.298 1.498 4.642.84 2.683-5.15-2.869-8.772.969-14.914 11.416-18.268M179.7 192.695c-.651-.651-1.649-.282-2.926 1.084-8.404 8.989-11.711 9.934-20.268 5.792-6.76-3.273-10.056 1.888-4.545 7.118 2.248 2.133 2.521 3.055 2.077 6.993-.498 4.416-.374 4.662 4.644 9.285 5.154 4.749 5.155 4.749 5.669-.1.636-5.995 5.171-12.898 9.726-14.801 3.017-1.261 3.26-1.707 3.26-6.02 0-2.954.613-5.335 1.676-6.51 1.104-1.221 1.339-2.189.687-2.841m-165.965-8.998c7.495-3.335 12.2-2.472 18.37 3.369 8.46 8.008 4.924 18.546-7.474 22.277-15.224 4.582-25.336-19.219-10.896-25.646m239.221-35.446c9.173-2.519 14.854-1.048 18.027 4.67 6.414 11.557-13.631 27.998-23.804 19.524-10.086-8.401-7.163-20.64 5.777-24.194m-77.134 14.458c-.98-1.586-3.34-1.12-4.405.87-1.134 2.12-.033 7.334 1.669 7.902 1.28.424 3.675-7.252 2.736-8.772m-25.67-51.228c.34-2.955-.618-3.304-4.639-1.691-3.405 1.365-2.478 4.441 1.338 4.441 2.514 0 3.035-.435 3.301-2.75m6.685-12.75c-.825 0-1.5.675-1.5 1.5s.675 1.5 1.5 1.5 1.5-.675 1.5-1.5-.675-1.5-1.5-1.5m-25.5-13.093c0-2.838-1.846-4.238-3.908-2.964-.928.573-.744 1.616.756 4.286 1.088 1.94 2.131 4.5 2.315 5.689s.787 2.256 1.337 2.372c1.413.296 1.892-4.299.585-5.606-.597-.597-1.085-2.296-1.085-3.777m-51.5-48.717c10.045-5.672 23.056 9.928 15.821 18.971-3.456 4.319-4.454 8.089-3.788 14.308.662 6.184.612 6.364-2.833 10.163C76.04 94.7 55.153 78.5 64.824 61.583c1.515-2.65 2.493-5.938 2.5-8.408.016-5.47 5.092-12.063 12.513-16.254m41.059 41.81c-.243 0-.719.45-1.059 1s-.142 1 .44 1 1.06-.45 1.06-1-.198-1-.441-1m84.589-39.241c14.146-2.448 22.113 11.425 15.112 26.318-7.204 15.322-30.258 11.978-30.506-4.426-.111-7.306 9.418-20.858 15.394-21.892M51.837 14.554c12.608-8.69 23.843 4.813 16.787 20.177-6.239 13.586-27.287 9.044-27.287-5.889 0-2.809 6.316-11.404 10.5-14.288M108.212 2.17c13.218-8.981 33.334 11.922 25.025 26.004-1.153 1.956-2.418 3.556-2.81 3.557s-1.614.84-2.714 1.865c-8.257 7.691-19.927 2.18-24.346-11.497-3.215-9.953-1.904-15.343 4.845-19.929" data-figma-scatter="f0.28_w0_aj180_sj0.25_r0_s18067207608045981809_sw1" data-figma-scatter-ref="stroke0_6_45_ref"/></defs></svg>