<svg xmlns="http://www.w3.org/2000/svg" xmlns:xlink="http://www.w3.org/1999/xlink" width="58" height="29" fill="none" viewBox="0 0 58 29"><g filter="url(#a)"><path fill="#538fdf" d="M57 28c0-3.546-.724-7.057-2.131-10.332a27 27 0 0 0-6.07-8.76 28.1 28.1 0 0 0-9.084-5.853A28.9 28.9 0 0 0 29 1c-3.677 0-7.318.698-10.715 2.055A28.1 28.1 0 0 0 9.2 8.908a27 27 0 0 0-6.07 8.76A26.2 26.2 0 0 0 1 28z"/><use xlink:href="#b" transform="rotate(38.86 -10.121 94.364)scale(.00372)"/><use xlink:href="#b" transform="rotate(227.736 34.762 1.665)scale(.00393)"/><use xlink:href="#b" transform="rotate(-99.279 40.164 -10.07)scale(.0032)"/><use xlink:href="#b" transform="rotate(29.24 -22.601 122.306)scale(.0029)"/><use xlink:href="#b" transform="rotate(72.351 10.52 52.412)scale(.00279)"/><use xlink:href="#b" transform="rotate(15.646 -67.302 219.608)scale(.00266)"/><use xlink:href="#b" transform="rotate(-63.695 49.626 -31.872)scale(.00379)"/><use xlink:href="#b" transform="rotate(256.728 38.895 -9.036)scale(.00272)"/><use xlink:href="#b" transform="rotate(134.453 23.265 25.123)scale(.00274)"/><use xlink:href="#b" transform="rotate(224.419 33.849 1.639)scale(.00312)"/><use xlink:href="#b" transform="rotate(49.565 1.565 74.158)scale(.0036)"/><use xlink:href="#b" transform="rotate(145.608 24.884 21.681)scale(.00402)"/><use xlink:href="#b" transform="rotate(200.438 30.877 7.73)scale(.00385)"/><use xlink:href="#b" transform="rotate(-42.21 59.935 -60.256)scale(.00375)"/><use xlink:href="#b" transform="rotate(231.304 34.37 -.967)scale(.00405)"/><use xlink:href="#b" transform="rotate(-35.53 65.601 -75.613)scale(.0028)"/><use xlink:href="#b" transform="rotate(-40.49 60.226 -63.864)scale(.00387)"/><use xlink:href="#b" transform="rotate(70.264 12.185 51.988)scale(.00374)"/><use xlink:href="#b" transform="rotate(242.228 35.415 -5.043)scale(.00287)"/><use xlink:href="#b" transform="rotate(208.67 31.403 4.689)scale(.0036)"/><use xlink:href="#b" transform="rotate(49.217 4.177 72.832)scale(.0038)"/><use xlink:href="#b" transform="rotate(-98.745 37.914 -12.411)scale(.0037)"/><use xlink:href="#b" transform="rotate(177.477 28.128 11.997)scale(.00263)"/><use xlink:href="#b" transform="rotate(19.85 -33.023 170.784)scale(.00392)"/><use xlink:href="#b" transform="rotate(135.706 24.04 22.542)scale(.00356)"/><use xlink:href="#b" transform="rotate(-30.904 66.42 -89.774)scale(.00336)"/><use xlink:href="#b" transform="rotate(217.767 31.861 1.422)scale(.00359)"/><use xlink:href="#b" transform="rotate(-40.62 55.94 -64.223)scale(.00376)"/><use xlink:href="#b" transform="rotate(-9.84 146.747 -312.523)scale(.0026)"/><use xlink:href="#b" transform="rotate(186.34 28.715 8.986)scale(.00277)"/><use xlink:href="#b" transform="rotate(-95.003 37.26 -14.883)scale(.00372)"/><use xlink:href="#b" transform="rotate(243.39 34.174 -6.738)scale(.00356)"/><use xlink:href="#b" transform="rotate(209.961 30.645 2.754)scale(.00275)"/><use xlink:href="#b" transform="rotate(104.72 20.566 31.369)scale(.00266)"/><use xlink:href="#b" transform="rotate(59.836 11.423 57.92)scale(.00285)"/><use xlink:href="#b" transform="rotate(105.532 20.812 30.81)scale(.00307)"/><use xlink:href="#b" transform="rotate(231.232 32.382 -3.382)scale(.00345)"/><use xlink:href="#b" transform="rotate(12.257 -57.63 265.42)scale(.00298)"/><use xlink:href="#b" transform="rotate(128.994 23.53 22.622)scale(.00327)"/><use xlink:href="#b" transform="rotate(118.829 22.452 25.594)scale(.00266)"/><use xlink:href="#b" transform="rotate(219.231 30.894 -.453)scale(.0026)"/><use xlink:href="#b" transform="rotate(150.609 25.406 16.391)scale(.00297)"/><use xlink:href="#b" transform="rotate(189.152 28.412 7.012)scale(.004)"/><use xlink:href="#b" transform="rotate(127.945 23.44 22.268)scale(.00299)"/><use xlink:href="#b" transform="rotate(-75.21 38.432 -26.215)scale(.00395)"/><use xlink:href="#b" transform="rotate(83.307 18.33 39.177)scale(.00387)"/><use xlink:href="#b" transform="rotate(-50.886 44.621 -48.282)scale(.0026)"/><use xlink:href="#b" transform="rotate(-96.363 34.582 -15.509)scale(.00385)"/><use xlink:href="#b" transform="rotate(-91.412 35.06 -17.862)scale(.00307)"/><use xlink:href="#b" transform="rotate(93.665 20.086 33.475)scale(.00402)"/><use xlink:href="#b" transform="rotate(53.837 12.217 60.868)scale(.00363)"/><use xlink:href="#b" transform="rotate(-30.488 54.706 -89.826)scale(.00368)"/><use xlink:href="#b" transform="rotate(-41.589 46.522 -62.1)scale(.00379)"/><use xlink:href="#b" transform="rotate(109.915 21.946 26.433)scale(.0036)"/><use xlink:href="#b" transform="rotate(-67.62 37.602 -31.78)scale(.00395)"/><use xlink:href="#b" transform="rotate(171.611 26.33 9.462)scale(.00287)"/><use xlink:href="#b" transform="rotate(222.992 29.568 -2.87)scale(.00396)"/><use xlink:href="#b" transform="rotate(15.15 -24.972 205.345)scale(.0027)"/><use xlink:href="#b" transform="rotate(-46.02 42.641 -54.707)scale(.00261)"/><use xlink:href="#b" transform="rotate(134.641 23.906 18.11)scale(.00383)"/><use xlink:href="#b" transform="rotate(-60.398 37.698 -37.703)scale(.0039)"/><use xlink:href="#b" transform="rotate(222.8 28.98 -3.282)scale(.00338)"/><use xlink:href="#b" transform="rotate(100.482 21.133 28.39)scale(.00308)"/><use xlink:href="#b" transform="rotate(88.363 19.95 33.338)scale(.00326)"/><use xlink:href="#b" transform="rotate(70.874 17.798 42.845)scale(.00385)"/><use xlink:href="#b" transform="rotate(76.555 18.63 39.077)scale(.00347)"/><use xlink:href="#b" transform="rotate(47.677 12.798 64.425)scale(.00325)"/><use xlink:href="#b" transform="rotate(-98.256 31.011 -15.838)scale(.00339)"/><use xlink:href="#b" transform="rotate(216.144 27.778 -2.185)scale(.00281)"/><use xlink:href="#b" transform="rotate(226.781 28.296 -4.873)scale(.00364)"/><use xlink:href="#b" transform="rotate(121.141 22.738 20.286)scale(.00364)"/><use xlink:href="#b" transform="rotate(-28.485 46.622 -93.335)scale(.00403)"/><use xlink:href="#b" transform="rotate(147.031 24.003 13.18)scale(.00273)"/><use xlink:href="#b" transform="rotate(193.973 26.154 2.577)scale(.00293)"/><use xlink:href="#b" transform="rotate(254.038 29.308 -13.355)scale(.0026)"/><use xlink:href="#b" transform="rotate(178.033 25.279 5.911)scale(.0027)"/><use xlink:href="#b" transform="rotate(21.637 -.385 135.578)scale(.00348)"/><use xlink:href="#b" transform="rotate(239.76 28.017 -8.976)scale(.00262)"/><use xlink:href="#b" transform="rotate(-68.84 32.171 -30.93)scale(.00265)"/><use xlink:href="#b" transform="rotate(-14.55 61.625 -187.734)scale(.00359)"/><use xlink:href="#b" transform="rotate(259.351 28.819 -15.295)scale(.00316)"/><use xlink:href="#b" transform="rotate(234.626 27.248 -7.675)scale(.00289)"/><use xlink:href="#b" transform="rotate(-16.996 54.794 -158.758)scale(.00267)"/><use xlink:href="#b" transform="rotate(119.229 22.228 19.125)scale(.0033)"/><use xlink:href="#b" transform="rotate(69.522 18.45 39.726)scale(.00277)"/><use xlink:href="#b" transform="rotate(-35.548 37.825 -70.887)scale(.00265)"/><use xlink:href="#b" transform="rotate(212.534 25.726 -2.45)scale(.00275)"/><use xlink:href="#b" transform="rotate(105.749 21.35 22.734)scale(.00289)"/><use xlink:href="#b" transform="rotate(100.085 21.129 24.53)scale(.00387)"/><use xlink:href="#b" transform="rotate(159.176 23.594 8.783)scale(.00377)"/><use xlink:href="#b" transform="rotate(249.798 26.803 -12.28)scale(.00311)"/><use xlink:href="#b" transform="rotate(-30.932 37.625 -81.425)scale(.00264)"/><use xlink:href="#b" transform="rotate(210.833 24.998 -2.363)scale(.00317)"/><use xlink:href="#b" transform="rotate(-56.689 30.562 -39.543)scale(.00275)"/><use xlink:href="#b" transform="rotate(123.369 21.941 16.593)scale(.00323)"/><use xlink:href="#b" transform="rotate(74.057 19.333 34.754)scale(.00401)"/><use xlink:href="#b" transform="rotate(35.718 13.115 75.839)scale(.00266)"/><use xlink:href="#b" transform="rotate(19.721 4.83 136.56)scale(.00332)"/><use xlink:href="#b" transform="rotate(-55.362 29.45 -40.061)scale(.0036)"/><use xlink:href="#b" transform="rotate(177.942 23.26 4.002)scale(.00314)"/><use xlink:href="#b" transform="rotate(-78.752 26.874 -24.12)scale(.00392)"/><use xlink:href="#b" transform="rotate(55.944 17.555 46.118)scale(.00316)"/><use xlink:href="#b" transform="rotate(223.335 24.148 -5.578)scale(.00343)"/><use xlink:href="#b" transform="rotate(46.408 16.52 55.613)scale(.00377)"/><use xlink:href="#b" transform="rotate(210.984 23.517 -3.027)scale(.00272)"/><use xlink:href="#b" transform="rotate(50.203 16.985 50.678)scale(.00305)"/><use xlink:href="#b" transform="rotate(-96.367 24.896 -16.637)scale(.00391)"/><use xlink:href="#b" transform="rotate(58.01 18.001 42.725)scale(.0035)"/><use xlink:href="#b" transform="rotate(5.778 -25.382 436.768)scale(.00355)"/><use xlink:href="#b" transform="rotate(-32.276 30.51 -72.619)scale(.00288)"/><use xlink:href="#b" transform="rotate(161.839 21.806 6.298)scale(.0036)"/><use xlink:href="#b" transform="rotate(8.032 -10.497 310.856)scale(.00273)"/><use xlink:href="#b" transform="rotate(-6.931 57.608 -351.937)scale(.00355)"/><use xlink:href="#b" transform="rotate(205.837 22.306 -2.303)scale(.00305)"/><use xlink:href="#b" transform="rotate(-.83 309.193 -2936.392)scale(.00297)"/><use xlink:href="#b" transform="rotate(163.43 21.305 5.567)scale(.0028)"/><use xlink:href="#b" transform="rotate(209.61 22.065 -3.069)scale(.00379)"/><use xlink:href="#b" transform="rotate(-66.482 24.332 -29.714)scale(.00265)"/><use xlink:href="#b" transform="rotate(214.302 21.887 -4.085)scale(.0034)"/><use xlink:href="#b" transform="rotate(74.188 18.839 29.737)scale(.00322)"/><use xlink:href="#b" transform="rotate(-91.933 22.742 -17.649)scale(.00381)"/><use xlink:href="#b" transform="rotate(61.687 18.078 36.56)scale(.00276)"/><use xlink:href="#b" transform="rotate(17.866 10.529 132.075)scale(.00318)"/><use xlink:href="#b" transform="rotate(233.51 21.543 -8.195)scale(.00304)"/><use xlink:href="#b" transform="rotate(33.423 15.66 69.279)scale(.00346)"/><use xlink:href="#b" transform="rotate(-14.082 32.71 -161.04)scale(.00275)"/><use xlink:href="#b" transform="rotate(11.506 5.903 200.69)scale(.0028)"/><use xlink:href="#b" transform="rotate(-16.95 29.92 -132.002)scale(.00264)"/><use xlink:href="#b" transform="rotate(213.336 20.634 -4.12)scale(.00287)"/><use xlink:href="#b" transform="rotate(252.032 21.078 -12.422)scale(.00396)"/><use xlink:href="#b" transform="rotate(-30.283 24.658 -70.61)scale(.00303)"/><use xlink:href="#b" transform="rotate(29.816 15.284 74.82)scale(.00301)"/><use xlink:href="#b" transform="rotate(75.793 18.335 26.502)scale(.00353)"/><use xlink:href="#b" transform="rotate(8.808 4.47 251.769)scale(.00264)"/><use xlink:href="#b" transform="rotate(213.641 19.888 -4.205)scale(.00316)"/><use xlink:href="#b" transform="rotate(182.859 19.461 1.048)scale(.00295)"/><use xlink:href="#b" transform="rotate(258.809 20.157 -13.926)scale(.00391)"/><use xlink:href="#b" transform="rotate(28.476 15.627 75.243)scale(.0038)"/><use xlink:href="#b" transform="rotate(155.35 18.893 5.508)scale(.00368)"/><use xlink:href="#b" transform="rotate(210.962 19.182 -3.71)scale(.00361)"/><use xlink:href="#b" transform="rotate(161.996 18.628 4.21)scale(.00265)"/><use xlink:href="#b" transform="rotate(211.156 18.914 -3.825)scale(.0028)"/><use xlink:href="#b" transform="rotate(31.038 15.633 66.777)scale(.00277)"/><use xlink:href="#b" transform="rotate(103.87 17.899 15.389)scale(.00316)"/><use xlink:href="#b" transform="rotate(229.835 18.722 -7.032)scale(.00397)"/><use xlink:href="#b" transform="rotate(134.89 17.915 8.556)scale(.00283)"/><use xlink:href="#b" transform="rotate(-30.161 20.488 -64.368)scale(.00353)"/><use xlink:href="#b" transform="rotate(79.468 17.19 22.258)scale(.00287)"/><use xlink:href="#b" transform="rotate(200.906 18.007 -2.105)scale(.0034)"/><use xlink:href="#b" transform="rotate(245.791 18.135 -10.132)scale(.00324)"/><use xlink:href="#b" transform="rotate(117.105 17.386 11.584)scale(.00402)"/><use xlink:href="#b" transform="rotate(156.229 17.344 4.573)scale(.00263)"/><use xlink:href="#b" transform="rotate(-15.17 21.467 -126.752)scale(.00265)"/><use xlink:href="#b" transform="rotate(137.823 17.138 7.494)scale(.00359)"/><use xlink:href="#b" transform="rotate(154.642 17.093 4.747)scale(.00377)"/><use xlink:href="#b" transform="rotate(-13.285 21.148 -141.942)scale(.0026)"/><use xlink:href="#b" transform="rotate(-6.797 23.675 -276.275)scale(.00346)"/><use xlink:href="#b" transform="rotate(-76.284 17.308 -19.96)scale(.00303)"/><use xlink:href="#b" transform="rotate(-38.656 17.785 -45.44)scale(.00313)"/><use xlink:href="#b" transform="rotate(217.323 16.674 -4.61)scale(.00292)"/><use xlink:href="#b" transform="rotate(221.516 16.57 -5.28)scale(.00262)"/><use xlink:href="#b" transform="rotate(-78.124 16.794 -18.855)scale(.00271)"/><use xlink:href="#b" transform="rotate(38.559 15.137 46.115)scale(.00264)"/><use xlink:href="#b" transform="rotate(.23 -154.974 7860.85)scale(.00296)"/><use xlink:href="#b" transform="rotate(177.914 16.017 1.078)scale(.00303)"/><use xlink:href="#b" transform="rotate(19.052 13.806 93.306)scale(.0026)"/><use xlink:href="#b" transform="rotate(25.555 14.4 68.7)scale(.0029)"/><use xlink:href="#b" transform="rotate(141.245 15.564 6.127)scale(.00267)"/><use xlink:href="#b" transform="rotate(228.604 15.735 -6.036)scale(.00354)"/><use xlink:href="#b" transform="rotate(116.839 15.26 9.999)scale(.00277)"/><use xlink:href="#b" transform="rotate(259.601 15.594 -11.75)scale(.00271)"/><use xlink:href="#b" transform="rotate(32.799 14.48 51.05)scale(.00356)"/><use xlink:href="#b" transform="rotate(247.164 15.296 -8.992)scale(.00326)"/><use xlink:href="#b" transform="rotate(-13.897 17.076 -118.73)scale(.00324)"/><use xlink:href="#b" transform="rotate(-53.924 15.438 -27.792)scale(.0026)"/><use xlink:href="#b" transform="rotate(110.844 14.667 10.643)scale(.00382)"/><use xlink:href="#b" transform="rotate(8.654 11.104 188.56)scale(.00303)"/><use xlink:href="#b" transform="rotate(132.246 14.376 6.969)scale(.00287)"/><use xlink:href="#b" transform="rotate(-38.265 15.012 -39.267)scale(.00398)"/><use xlink:href="#b" transform="rotate(106.818 14.014 11.009)scale(.00275)"/><use xlink:href="#b" transform="rotate(55.524 13.597 26.837)scale(.00293)"/><use xlink:href="#b" transform="rotate(237.646 14.188 -6.708)scale(.00332)"/><use xlink:href="#b" transform="rotate(160.886 13.915 3.088)scale(.00398)"/><use xlink:href="#b" transform="rotate(43.69 13.11 33.986)scale(.00344)"/><use xlink:href="#b" transform="rotate(-57.604 14.194 -23.29)scale(.00287)"/><use xlink:href="#b" transform="rotate(-95.884 13.79 -10.974)scale(.00343)"/><use xlink:href="#b" transform="rotate(241.874 13.578 -7.006)scale(.00283)"/><use xlink:href="#b" transform="rotate(-76.671 13.712 -15.503)scale(.00281)"/><use xlink:href="#b" transform="rotate(-28.891 14.542 -48.744)scale(.00293)"/><use xlink:href="#b" transform="rotate(27.266 11.639 52.916)scale(.00321)"/><use xlink:href="#b" transform="rotate(124.149 12.798 7.503)scale(.0037)"/><use xlink:href="#b" transform="rotate(-43.579 13.685 -29.918)scale(.0037)"/><use xlink:href="#b" transform="rotate(238.678 12.885 -6.052)scale(.00265)"/><use xlink:href="#b" transform="rotate(-99.8 12.907 -9.234)scale(.00368)"/><use xlink:href="#b" transform="rotate(64.939 11.691 19.79)scale(.00289)"/><use xlink:href="#b" transform="rotate(98.742 11.974 11.144)scale(.0036)"/><use xlink:href="#b" transform="rotate(-88.562 12.655 -10.97)scale(.00383)"/><use xlink:href="#b" transform="rotate(-54.655 13.01 -21.457)scale(.00321)"/><use xlink:href="#b" transform="rotate(-93.134 12.411 -9.809)scale(.00347)"/><use xlink:href="#b" transform="rotate(230.925 12.053 -4.356)scale(.00324)"/><use xlink:href="#b" transform="rotate(-38.28 13.328 -31.29)scale(.00322)"/><use xlink:href="#b" transform="rotate(180.729 11.583 1.077)scale(.00381)"/><use xlink:href="#b" transform="rotate(121.048 11.096 7.348)scale(.00373)"/><use xlink:href="#b" transform="rotate(70.195 10.273 16.592)scale(.0029)"/><use xlink:href="#b" transform="rotate(118.113 10.773 7.63)scale(.0035)"/><use xlink:href="#b" transform="rotate(45.788 9.211 26.37)scale(.00277)"/><use xlink:href="#b" transform="rotate(16.622 5.665 73.18)scale(.00304)"/><use xlink:href="#b" transform="rotate(107.583 10.197 8.874)scale(.00275)"/><use xlink:href="#b" transform="rotate(183.576 10.771 1.038)scale(.00378)"/><use xlink:href="#b" transform="rotate(169.559 10.502 2.276)scale(.0032)"/><use xlink:href="#b" transform="rotate(-80.17 11.522 -10.528)scale(.00321)"/><use xlink:href="#b" transform="rotate(-54.887 12.091 -17.543)scale(.00368)"/><use xlink:href="#b" transform="rotate(110.423 9.577 8.266)scale(.00358)"/><use xlink:href="#b" transform="rotate(227.639 10.521 -2.817)scale(.00266)"/><use xlink:href="#b" transform="rotate(164.496 9.89 2.895)scale(.00396)"/><use xlink:href="#b" transform="rotate(207.449 10.1 -.749)scale(.0028)"/><use xlink:href="#b" transform="rotate(190.695 9.85 .752)scale(.00316)"/><use xlink:href="#b" transform="rotate(253.249 10.506 -5.137)scale(.0034)"/><use xlink:href="#b" transform="rotate(-89.715 10.726 -7.301)scale(.00381)"/><use xlink:href="#b" transform="rotate(85.709 7.94 11.409)scale(.0027)"/><use xlink:href="#b" transform="rotate(165.398 9.112 2.94)scale(.0032)"/><use xlink:href="#b" transform="rotate(218.301 9.646 -1.152)scale(.00344)"/><use xlink:href="#b" transform="rotate(107.45 8.089 8.24)scale(.00395)"/><use xlink:href="#b" transform="rotate(38.27 4.62 26.419)scale(.003)"/><use xlink:href="#b" transform="rotate(250.512 9.877 -3.847)scale(.0036)"/><use xlink:href="#b" transform="rotate(141.997 8.194 4.948)scale(.00396)"/><use xlink:href="#b" transform="rotate(241.515 9.514 -2.744)scale(.00283)"/><use xlink:href="#b" transform="rotate(33.38 2.99 28.779)scale(.00377)"/><use xlink:href="#b" transform="rotate(112.774 7.124 7.47)scale(.00288)"/><use xlink:href="#b" transform="rotate(-30.836 14.804 -26.075)scale(.00283)"/><use xlink:href="#b" transform="rotate(175.968 8.1 2.676)scale(.004)"/><use xlink:href="#b" transform="rotate(235.512 8.997 -1.548)scale(.00332)"/><use xlink:href="#b" transform="rotate(57.241 4.4 16.046)scale(.00402)"/><use xlink:href="#b" transform="rotate(181.429 7.782 2.48)scale(.00351)"/><use xlink:href="#b" transform="rotate(-32.081 14.933 -22.3)scale(.00344)"/><use xlink:href="#b" transform="rotate(95.061 5.566 9.153)scale(.00365)"/><use xlink:href="#b" transform="rotate(150.66 6.845 4.605)scale(.00383)"/><use xlink:href="#b" transform="rotate(222.92 8.188 .177)scale(.00356)"/><use xlink:href="#b" transform="rotate(220.484 8.055 .512)scale(.00403)"/><use xlink:href="#b" transform="rotate(238.973 8.423 -.723)scale(.0034)"/><use xlink:href="#b" transform="rotate(249.587 8.678 -1.503)scale(.00288)"/><use xlink:href="#b" transform="rotate(-45.915 13.03 -12.117)scale(.00267)"/><use xlink:href="#b" transform="rotate(-68.874 10.62 -6.03)scale(.00318)"/><use xlink:href="#b" transform="rotate(97.883 4.187 8.615)scale(.0026)"/><use xlink:href="#b" transform="rotate(-96.301 9.05 -2.243)scale(.0029)"/><use xlink:href="#b" transform="rotate(13.954 -17.038 52.768)scale(.00287)"/><use xlink:href="#b" transform="rotate(94.288 3.725 8.921)scale(.00372)"/><use xlink:href="#b" transform="rotate(113.244 4.254 7.317)scale(.00292)"/><use xlink:href="#b" transform="rotate(213.736 7.098 1.83)scale(.00329)"/><use xlink:href="#b" transform="rotate(135.538 4.779 5.932)scale(.00315)"/><use xlink:href="#b" transform="rotate(94.134 3.07 8.865)scale(.00397)"/><use xlink:href="#b" transform="rotate(25.995 -8.306 27.134)scale(.00368)"/><use xlink:href="#b" transform="rotate(41.542 -3.236 17.896)scale(.00305)"/><use xlink:href="#b" transform="rotate(-27.745 19.53 -16.846)scale(.00394)"/><use xlink:href="#b" transform="rotate(242.32 7.69 .983)scale(.00328)"/><use xlink:href="#b" transform="rotate(-98.175 8.596 -.13)scale(.00364)"/><use xlink:href="#b" transform="rotate(200.418 6.014 3.36)scale(.00335)"/><use xlink:href="#b" transform="rotate(84.555 1.024 9.595)scale(.00306)"/><use xlink:href="#b" transform="rotate(48.372 -3.5 14.883)scale(.0033)"/><use xlink:href="#b" transform="rotate(119.475 2.763 7.183)scale(.00347)"/><use xlink:href="#b" transform="rotate(119.848 2.613 7.189)scale(.00327)"/><use xlink:href="#b" transform="rotate(28.198 -11.73 22.358)scale(.00301)"/><use xlink:href="#b" transform="rotate(-20.274 28.542 -19.742)scale(.00298)"/><use xlink:href="#b" transform="rotate(199.181 5.413 4.028)scale(.00264)"/><use xlink:href="#b" transform="rotate(-.876 576.487 -542.398)scale(.0034)"/><use xlink:href="#b" transform="rotate(201.192 5.382 4.199)scale(.00317)"/><use xlink:href="#b" transform="rotate(-24.222 25.614 -13.476)scale(.00368)"/><use xlink:href="#b" transform="rotate(-35.821 18.72 -6.803)scale(.00377)"/><use xlink:href="#b" transform="rotate(-84.725 9.498 1.066)scale(.00322)"/><use xlink:href="#b" transform="rotate(154.866 3.125 6.217)scale(.00356)"/><use xlink:href="#b" transform="rotate(131.093 1.827 7.113)scale(.00309)"/><use xlink:href="#b" transform="rotate(-90.737 8.995 2.155)scale(.00405)"/><use xlink:href="#b" transform="rotate(7.405 -76.514 60.074)scale(.00263)"/><use xlink:href="#b" transform="rotate(-13.852 47.286 -22.814)scale(.0026)"/><use xlink:href="#b" transform="rotate(-66.36 11.903 .79)scale(.00367)"/><use xlink:href="#b" transform="rotate(239.779 6.812 4.016)scale(.00297)"/><use xlink:href="#b" transform="rotate(-93.273 8.833 3.123)scale(.00395)"/><use xlink:href="#b" transform="rotate(122.617 .416 7.805)scale(.00283)"/><use xlink:href="#b" transform="rotate(178.337 3.376 6.246)scale(.00308)"/><use xlink:href="#b" transform="rotate(66.339 -5.485 10.833)scale(.00328)"/><use xlink:href="#b" transform="rotate(187.157 3.705 6.255)scale(.00349)"/><use xlink:href="#b" transform="rotate(76.695 -4.384 10.063)scale(.00308)"/><use xlink:href="#b" transform="rotate(219.561 5.367 5.605)scale(.00303)"/><use xlink:href="#b" transform="rotate(-93.281 8.972 4.138)scale(.00294)"/><use xlink:href="#b" transform="rotate(105.895 -1.731 8.76)scale(.00304)"/><use xlink:href="#b" transform="rotate(227.266 5.78 5.792)scale(.0033)"/><use xlink:href="#b" transform="rotate(3.316 -222.186 92.958)scale(.003)"/><use xlink:href="#b" transform="rotate(219.999 5.255 6.241)scale(.00342)"/><use xlink:href="#b" transform="rotate(62.198 -8.318 11.075)scale(.00337)"/><use xlink:href="#b" transform="rotate(-98.76 8.558 5.47)scale(.00388)"/><use xlink:href="#b" transform="rotate(-15.979 52.062 -8.14)scale(.00329)"/><use xlink:href="#b" transform="rotate(-29.47 29.41 -.642)scale(.00298)"/><use xlink:href="#b" transform="rotate(29.072 -25.212 15.743)scale(.00268)"/><use xlink:href="#b" transform="rotate(205.963 4.132 7.282)scale(.00336)"/><use xlink:href="#b" transform="rotate(153.41 .716 8.364)scale(.004)"/><use xlink:href="#b" transform="rotate(225.599 5.45 7.125)scale(.00274)"/><use xlink:href="#b" transform="rotate(243.586 6.98 7.024)scale(.00387)"/><use xlink:href="#b" transform="rotate(53.82 -12.85 11.637)scale(.0039)"/><use xlink:href="#b" transform="rotate(-63.2 14.849 5.697)scale(.00378)"/><use xlink:href="#b" transform="rotate(216.012 4.682 7.997)scale(.00378)"/><use xlink:href="#b" transform="rotate(59.01 -12.25 11.354)scale(.00348)"/><use xlink:href="#b" transform="rotate(100.969 -4.869 9.945)scale(.0028)"/><use xlink:href="#b" transform="rotate(73.359 -9.16 10.774)scale(.00387)"/><use xlink:href="#b" transform="rotate(-29.183 34.383 3.312)scale(.00264)"/><use xlink:href="#b" transform="rotate(256.787 8.571 7.961)scale(.00329)"/><use xlink:href="#b" transform="rotate(-66.886 14.833 7.319)scale(.004)"/><use xlink:href="#b" transform="rotate(26.053 -36.207 14.658)scale(.00355)"/><use xlink:href="#b" transform="rotate(-54.814 18.843 7.108)scale(.00332)"/><use xlink:href="#b" transform="rotate(183.668 1.879 9.478)scale(.00303)"/><use xlink:href="#b" transform="rotate(130.677 -2.64 10.156)scale(.00321)"/><use xlink:href="#b" transform="rotate(162.814 .088 9.884)scale(.0028)"/><use xlink:href="#b" transform="rotate(38.82 -25.113 12.831)scale(.00308)"/><use xlink:href="#b" transform="rotate(-50.171 21.682 7.781)scale(.00305)"/><use xlink:href="#b" transform="rotate(198.478 2.984 9.964)scale(.00362)"/><use xlink:href="#b" transform="rotate(192.829 2.49 10.173)scale(.00388)"/><use xlink:href="#b" transform="rotate(-75.18 14.115 9.191)scale(.00313)"/><use xlink:href="#b" transform="rotate(-98.262 9.914 9.866)scale(.00405)"/><use xlink:href="#b" transform="rotate(251.266 8.483 10.014)scale(.00305)"/><use xlink:href="#b" transform="rotate(19.636 -58.059 15.293)scale(.0028)"/><use xlink:href="#b" transform="rotate(83.947 -10.358 11.64)scale(.0028)"/><use xlink:href="#b" transform="rotate(20.853 -55.6 14.838)scale(.00306)"/><use xlink:href="#b" transform="rotate(-1.935 626.898 -31)scale(.00284)"/><use xlink:href="#b" transform="rotate(92.975 -9.048 11.762)scale(.00296)"/><use xlink:href="#b" transform="rotate(235.207 6.685 10.897)scale(.00299)"/><use xlink:href="#b" transform="rotate(219.247 4.919 11.156)scale(.00325)"/><use xlink:href="#b" transform="rotate(-86.163 12.769 10.91)scale(.00343)"/><use xlink:href="#b" transform="rotate(105.295 -7.553 12.016)scale(.00273)"/><use xlink:href="#b" transform="rotate(-63.513 19.08 10.98)scale(.00376)"/><use xlink:href="#b" transform="rotate(19.041 -66.587 14.673)scale(.00376)"/><use xlink:href="#b" transform="rotate(205.3 3.504 11.91)scale(.00336)"/><use xlink:href="#b" transform="rotate(-53.293 24.09 11.135)scale(.00286)"/><use xlink:href="#b" transform="rotate(71.887 -15.394 12.839)scale(.00266)"/><use xlink:href="#b" transform="rotate(35.138 -36.62 13.716)scale(.00285)"/><use xlink:href="#b" transform="rotate(102.727 -8.715 12.763)scale(.00311)"/><use xlink:href="#b" transform="rotate(96.905 -9.836 12.913)scale(.00343)"/><use xlink:href="#b" transform="rotate(-73.347 17.19 12.12)scale(.00288)"/><use xlink:href="#b" transform="rotate(149.101 -2.57 12.926)scale(.00358)"/><use xlink:href="#b" transform="rotate(-78.847 15.916 12.432)scale(.00278)"/><use xlink:href="#b" transform="rotate(51.51 -25.125 13.713)scale(.00374)"/><use xlink:href="#b" transform="rotate(-50.174 27.834 12.585)scale(.00362)"/><use xlink:href="#b" transform="rotate(-98.636 11.765 12.966)scale(.0027)"/><use xlink:href="#b" transform="rotate(224.406 6.04 13.35)scale(.00366)"/><use xlink:href="#b" transform="rotate(118.068 -7.034 13.776)scale(.00388)"/><use xlink:href="#b" transform="matrix(-.0036 0 0 -.0036 1.513 27.491)"/><use xlink:href="#b" transform="rotate(84.774 -13.977 14.148)scale(.00263)"/><use xlink:href="#b" transform="rotate(66.194 -19.928 14.383)scale(.0031)"/><use xlink:href="#b" transform="rotate(162.119 -1.442 14.078)scale(.00286)"/><use xlink:href="#b" transform="rotate(98.353 -11.041 14.433)scale(.00368)"/><use xlink:href="#b" transform="rotate(144.594 -3.664 14.326)scale(.0027)"/><use xlink:href="#b" transform="rotate(236.195 8.206 13.957)scale(.00272)"/><use xlink:href="#b" transform="rotate(125.761 -6.082 14.52)scale(.00299)"/><use xlink:href="#b" transform="rotate(2.25 -696.476 46.556)scale(.00388)"/><use xlink:href="#b" transform="rotate(224.188 6.82 13.892)scale(.00295)"/><use xlink:href="#b" transform="rotate(97.593 -10.708 15.052)scale(.00301)"/><use xlink:href="#b" transform="rotate(208.903 5.072 14.045)scale(.00395)"/><use xlink:href="#b" transform="rotate(196.175 3.538 14.029)scale(.00262)"/><use xlink:href="#b" transform="rotate(93.7 -11.149 15.461)scale(.0033)"/><use xlink:href="#b" transform="rotate(25.14 -59.785 20.593)scale(.0033)"/><use xlink:href="#b" transform="rotate(160.351 -.348 14.552)scale(.00375)"/><use xlink:href="#b" transform="rotate(-91.295 15.573 12.655)scale(.00365)"/><use xlink:href="#b" transform="rotate(97.788 -9.827 15.82)scale(.00263)"/><use xlink:href="#b" transform="rotate(2.508 -626.468 102.506)scale(.00307)"/><use xlink:href="#b" transform="rotate(19.194 -79.113 26.426)scale(.00274)"/><use xlink:href="#b" transform="rotate(4.432 -353.274 69.974)scale(.003)"/><use xlink:href="#b" transform="rotate(-84.615 17.81 11.857)scale(.00393)"/><use xlink:href="#b" transform="rotate(183.205 3.216 14.166)scale(.00302)"/><use xlink:href="#b" transform="rotate(52.138 -25.271 19.422)scale(.0027)"/><use xlink:href="#b" transform="rotate(38.745 -35.842 21.683)scale(.00388)"/><use xlink:href="#b" transform="rotate(193.595 4.823 13.885)scale(.00283)"/><use xlink:href="#b" transform="rotate(-7.261 220.165 -31.288)scale(.00312)"/><use xlink:href="#b" transform="rotate(-15.457 104.68 -7.797)scale(.0034)"/><use xlink:href="#b" transform="rotate(48.912 -26.747 21.145)scale(.0029)"/><use xlink:href="#b" transform="rotate(63.02 -18.881 19.54)scale(.0026)"/><use xlink:href="#b" transform="rotate(79.009 -13.005 18.292)scale(.00263)"/><use xlink:href="#b" transform="rotate(170.314 2.67 14.504)scale(.00272)"/><use xlink:href="#b" transform="rotate(247.297 13.122 11.837)scale(.00276)"/><use xlink:href="#b" transform="rotate(191.914 5.476 13.817)scale(.0026)"/><use xlink:href="#b" transform="rotate(165.936 2.442 14.673)scale(.00269)"/><use xlink:href="#b" transform="rotate(180.402 4.383 14.273)scale(.00372)"/><use xlink:href="#b" transform="rotate(224.566 10.058 12.592)scale(.00302)"/><use xlink:href="#b" transform="rotate(212.803 8.635 13.093)scale(.00382)"/><use xlink:href="#b" transform="rotate(151.397 1.18 15.329)scale(.00314)"/><use xlink:href="#b" transform="rotate(-34.328 49.232 .233)scale(.00386)"/><use xlink:href="#b" transform="rotate(100.167 -6.426 18.06)scale(.004)"/><use xlink:href="#b" transform="rotate(156.521 2.201 15.184)scale(.00269)"/><use xlink:href="#b" transform="rotate(51.839 -23.032 24.075)scale(.00341)"/><use xlink:href="#b" transform="rotate(-4.392 364.063 -113.822)scale(.00315)"/><use xlink:href="#b" transform="rotate(233.276 12.368 11.734)scale(.0033)"/><use xlink:href="#b" transform="rotate(-15.706 105.153 -22.99)scale(.00352)"/><use xlink:href="#b" transform="rotate(48.112 -24.914 26.073)scale(.00386)"/><use xlink:href="#b" transform="rotate(-1.232 1285.885 -491.89)scale(.00308)"/><use xlink:href="#b" transform="rotate(-23.082 73.43 -13.046)scale(.0029)"/><use xlink:href="#b" transform="rotate(103.546 -4.614 18.74)scale(.00401)"/><use xlink:href="#b" transform="rotate(-81.582 22.19 7.475)scale(.00297)"/><use xlink:href="#b" transform="rotate(90.467 -7.363 20.113)scale(.00267)"/><use xlink:href="#b" transform="rotate(-39.857 44.355 -2.312)scale(.00356)"/><use xlink:href="#b" transform="rotate(190.469 7.88 13.7)scale(.00343)"/><use xlink:href="#b" transform="rotate(-26.706 64.606 -12.204)scale(.00348)"/><use xlink:href="#b" transform="rotate(10.552 -142.137 83.916)scale(.00313)"/><use xlink:href="#b" transform="rotate(196.698 8.99 13.272)scale(.00303)"/><use xlink:href="#b" transform="rotate(244.766 15.824 10.022)scale(.00322)"/><use xlink:href="#b" transform="rotate(30.826 -42.882 38.928)scale(.0026)"/><use xlink:href="#b" transform="rotate(99.512 -4.305 20.08)scale(.00329)"/><use xlink:href="#b" transform="rotate(-37.022 48.536 -6.714)scale(.00312)"/><use xlink:href="#b" transform="rotate(181.774 7.788 14.144)scale(.0033)"/><use xlink:href="#b" transform="rotate(124.926 .466 18.008)scale(.00276)"/><use xlink:href="#b" transform="rotate(90.497 -5.914 21.532)scale(.00273)"/><use xlink:href="#b" transform="rotate(-61.21 31.167 1.57)scale(.00285)"/><use xlink:href="#b" transform="rotate(195.738 9.867 13.152)scale(.00262)"/><use xlink:href="#b" transform="rotate(163.283 6.056 15.35)scale(.00285)"/><use xlink:href="#b" transform="rotate(14.02 -104.046 77.736)scale(.00262)"/><use xlink:href="#b" transform="rotate(168.728 6.934 15.004)scale(.0029)"/><use xlink:href="#b" transform="rotate(-33.916 53.416 -11.803)scale(.0039)"/><use xlink:href="#b" transform="rotate(187.801 9.563 13.738)scale(.00377)"/><use xlink:href="#b" transform="matrix(0 -.00262 .00262 0 16.581 28.356)"/><use xlink:href="#b" transform="rotate(63.272 -13.625 27.861)scale(.00262)"/><use xlink:href="#b" transform="rotate(101.084 -2.404 21.23)scale(.00316)"/><use xlink:href="#b" transform="rotate(42.506 -26.277 36.37)scale(.00334)"/><use xlink:href="#b" transform="rotate(175.458 8.672 14.633)scale(.00373)"/><use xlink:href="#b" transform="rotate(26.369 -49.214 52.08)scale(.00364)"/><use xlink:href="#b" transform="rotate(226.667 15.37 10.334)scale(.00295)"/><use xlink:href="#b" transform="rotate(-92.689 22.686 5.542)scale(.00324)"/><use xlink:href="#b" transform="rotate(-23.304 76.541 -30.791)scale(.00263)"/><use xlink:href="#b" transform="rotate(-47.124 41.313 -7.175)scale(.0033)"/><use xlink:href="#b" transform="rotate(218.535 14.711 10.92)scale(.00305)"/><use xlink:href="#b" transform="rotate(18.288 -75.619 73.93)scale(.00284)"/><use xlink:href="#b" transform="rotate(119.184 2.046 19.933)scale(.00305)"/><use xlink:href="#b" transform="rotate(117.647 1.978 20.204)scale(.00354)"/><use xlink:href="#b" transform="rotate(222.072 15.656 10.383)scale(.00282)"/><use xlink:href="#b" transform="rotate(39.025 -28.095 42.593)scale(.00392)"/><use xlink:href="#b" transform="rotate(18.64 -73.055 76.418)scale(.00338)"/><use xlink:href="#b" transform="rotate(153.305 7.516 16.703)scale(.00325)"/><use xlink:href="#b" transform="rotate(240.831 18.975 8.113)scale(.00328)"/><use xlink:href="#b" transform="rotate(-26.45 69.614 -30.886)scale(.0029)"/><use xlink:href="#b" transform="rotate(32.749 -35.79 50.686)scale(.00286)"/><use xlink:href="#b" transform="rotate(182.851 11.656 14.043)scale(.00403)"/><use xlink:href="#b" transform="rotate(213.215 15.515 11.001)scale(.00346)"/><use xlink:href="#b" transform="rotate(243.841 20.082 7.299)scale(.00285)"/><use xlink:href="#b" transform="rotate(185.364 12.319 13.758)scale(.00365)"/><use xlink:href="#b" transform="rotate(-14.729 118.302 -73.6)scale(.00297)"/><use xlink:href="#b" transform="rotate(250.739 21.641 6.08)scale(.00288)"/><use xlink:href="#b" transform="rotate(-87.07 26.475 2.105)scale(.00342)"/><use xlink:href="#b" transform="rotate(98.58 .207 24.288)scale(.00262)"/><use xlink:href="#b" transform="rotate(-79.318 28.817 .07)scale(.00356)"/><use xlink:href="#b" transform="rotate(18.824 -70.746 86.27)scale(.00294)"/><use xlink:href="#b" transform="rotate(149.007 8.743 17.632)scale(.00393)"/><use xlink:href="#b" transform="rotate(96.568 .497 25.143)scale(.00404)"/><use xlink:href="#b" transform="rotate(100.736 1.308 24.452)scale(.00266)"/><use xlink:href="#b" transform="rotate(-12.644 136.581 -97.724)scale(.00392)"/><use xlink:href="#b" transform="rotate(184.636 13.647 13.792)scale(.0039)"/><use xlink:href="#b" transform="rotate(-15.624 113.305 -78.537)scale(.00345)"/><use xlink:href="#b" transform="rotate(18.557 -70.584 92.944)scale(.00371)"/><use xlink:href="#b" transform="rotate(66.056 -7.78 34.27)scale(.00282)"/><use xlink:href="#b" transform="rotate(171.951 12.54 15.128)scale(.00263)"/><use xlink:href="#b" transform="rotate(-12.337 140.4 -107.684)scale(.00402)"/><use xlink:href="#b" transform="rotate(-18.573 97.983 -67.629)scale(.00304)"/><use xlink:href="#b" transform="rotate(-75.905 31.569 -3.128)scale(.00267)"/><use xlink:href="#b" transform="rotate(127.728 7.298 20.924)scale(.00332)"/><use xlink:href="#b" transform="rotate(151.606 10.706 17.735)scale(.00345)"/><use xlink:href="#b" transform="rotate(-57.094 39.593 -11.289)scale(.00278)"/><use xlink:href="#b" transform="rotate(111.444 5.084 23.782)scale(.00365)"/><use xlink:href="#b" transform="rotate(4.326 -349.75 387.61)scale(.00312)"/><use xlink:href="#b" transform="rotate(140.681 9.758 19.336)scale(.00336)"/><use xlink:href="#b" transform="rotate(51.886 -13.37 43.723)scale(.00368)"/><use xlink:href="#b" transform="rotate(220.325 20.01 8.991)scale(.00387)"/><use xlink:href="#b" transform="rotate(-51.748 43.459 -16.008)scale(.00272)"/><use xlink:href="#b" transform="rotate(-98.588 27.003 1.56)scale(.00312)"/><use xlink:href="#b" transform="rotate(31.514 -33.206 66.832)scale(.00388)"/><use xlink:href="#b" transform="rotate(-58.81 39.821 -12.307)scale(.00361)"/><use xlink:href="#b" transform="rotate(155.54 12.633 17.553)scale(.00356)"/><use xlink:href="#b" transform="rotate(162.684 13.69 16.623)scale(.00391)"/><use xlink:href="#b" transform="rotate(191.786 17.337 12.712)scale(.0039)"/><use xlink:href="#b" transform="rotate(-68.453 36.232 -8.678)scale(.003)"/><use xlink:href="#b" transform="rotate(236.463 23.51 5.828)scale(.00324)"/><use xlink:href="#b" transform="rotate(92.186 3.024 29.47)scale(.00328)"/><use xlink:href="#b" transform="rotate(-72.963 34.962 -7.218)scale(.00382)"/><use xlink:href="#b" transform="rotate(-69.832 36.22 -8.784)scale(.00327)"/><use xlink:href="#b" transform="rotate(111.099 7.207 25.365)scale(.00318)"/><use xlink:href="#b" transform="rotate(157.146 14.054 17.593)scale(.00387)"/><use xlink:href="#b" transform="rotate(-95.456 29.423 -.669)scale(.00371)"/><use xlink:href="#b" transform="rotate(89.833 3.318 30.924)scale(.00355)"/><use xlink:href="#b" transform="rotate(59.875 -6.799 43.342)scale(.00271)"/><use xlink:href="#b" transform="rotate(48.713 -12.961 51.469)scale(.00369)"/><use xlink:href="#b" transform="rotate(-3.256 501.026 -583.617)scale(.00332)"/><use xlink:href="#b" transform="rotate(167.007 16.022 16.218)scale(.0035)"/><use xlink:href="#b" transform="rotate(-.907 1747.36 -2160.642)scale(.00396)"/><use xlink:href="#b" transform="rotate(227.137 23.84 6.645)scale(.00312)"/><use xlink:href="#b" transform="rotate(-51.665 46.41 -22.052)scale(.00267)"/><use xlink:href="#b" transform="rotate(118.344 9.914 24.788)scale(.00363)"/><use xlink:href="#b" transform="rotate(15.402 -83.73 145.74)scale(.00286)"/><use xlink:href="#b" transform="rotate(125.438 11.175 23.448)scale(.00285)"/><use xlink:href="#b" transform="rotate(109.952 8.714 26.83)scale(.00272)"/><use xlink:href="#b" transform="rotate(92.866 5.556 31.474)scale(.0039)"/><use xlink:href="#b" transform="rotate(251.079 28.482 1.166)scale(.00273)"/><use xlink:href="#b" transform="rotate(216.786 23.365 8.171)scale(.00345)"/><use xlink:href="#b" transform="rotate(204.907 21.96 10.186)scale(.00341)"/><use xlink:href="#b" transform="rotate(51.22 -9.56 53.046)scale(.00358)"/><use xlink:href="#b" transform="rotate(229.237 25.502 5.71)scale(.0037)"/><use xlink:href="#b" transform="rotate(202.647 22.083 10.482)scale(.00338)"/><use xlink:href="#b" transform="rotate(205.232 22.517 9.986)scale(.00312)"/><use xlink:href="#b" transform="rotate(156.182 16.625 18.256)scale(.00283)"/><use xlink:href="#b" transform="rotate(259.178 31.031 -1.727)scale(.00263)"/><use xlink:href="#b" transform="rotate(-46.362 51.898 -30.926)scale(.00311)"/><use xlink:href="#b" transform="rotate(-4.7 355.459 -460.125)scale(.00295)"/><use xlink:href="#b" transform="rotate(249.182 29.515 .844)scale(.00402)"/><use xlink:href="#b" transform="rotate(238.411 27.818 3.16)scale(.0026)"/><use xlink:href="#b" transform="rotate(-60.2 43.968 -19.9)scale(.00347)"/><use xlink:href="#b" transform="rotate(-34.185 65.023 -50.51)scale(.00375)"/><use xlink:href="#b" transform="rotate(-28.122 75.327 -65.844)scale(.00372)"/><use xlink:href="#b" transform="rotate(213.944 24.914 8.135)scale(.0039)"/><use xlink:href="#b" transform="rotate(113.821 11.921 27.551)scale(.00365)"/><use xlink:href="#b" transform="rotate(46.482 -11.006 62.032)scale(.00342)"/><use xlink:href="#b" transform="rotate(79.82 4.589 38.935)scale(.00287)"/><use xlink:href="#b" transform="rotate(175.45 20.693 15.105)scale(.00364)"/><use xlink:href="#b" transform="rotate(-11.539 157.783 -192.908)scale(.00272)"/><use xlink:href="#b" transform="rotate(248.873 30.864 -.181)scale(.00298)"/><use xlink:href="#b" transform="rotate(-38.675 60.738 -45.924)scale(.00326)"/><use xlink:href="#b" transform="rotate(193.385 23.315 11.777)scale(.00348)"/><use xlink:href="#b" transform="rotate(119.173 13.676 26.772)scale(.00272)"/><use xlink:href="#b" transform="rotate(180.993 22.03 14.056)scale(.00313)"/><use xlink:href="#b" transform="rotate(132.742 15.99 23.684)scale(.00297)"/><use xlink:href="#b" transform="rotate(111.316 12.797 29.096)scale(.00352)"/><use xlink:href="#b" transform="rotate(41.592 -13.716 71.734)scale(.00394)"/><use xlink:href="#b" transform="rotate(-8.153 215.533 -294.497)scale(.00307)"/><use xlink:href="#b" transform="rotate(128.226 15.905 24.991)scale(.00343)"/><use xlink:href="#b" transform="rotate(144.157 18.32 21.489)scale(.00397)"/><use xlink:href="#b" transform="rotate(87.734 8.461 37.537)scale(.00282)"/><use xlink:href="#b" transform="rotate(-52.36 50.932 -31.574)scale(.00294)"/><use xlink:href="#b" transform="rotate(53.34 -4.22 59.264)scale(.00365)"/><use xlink:href="#b" transform="rotate(229.619 29.56 3.75)scale(.00342)"/><use xlink:href="#b" transform="rotate(-46.45 55.314 -38.968)scale(.0038)"/><use xlink:href="#b" transform="rotate(176.084 22.98 15.021)scale(.00303)"/><use xlink:href="#b" transform="rotate(23.56 -42.186 125.17)scale(.00359)"/><use xlink:href="#b" transform="rotate(173.681 23 15.566)scale(.00365)"/><use xlink:href="#b" transform="rotate(107.176 13.702 31.52)scale(.00312)"/><use xlink:href="#b" transform="rotate(-68.167 44.28 -20.423)scale(.00401)"/><use xlink:href="#b" transform="rotate(49.759 -5.568 65.343)scale(.00304)"/><use xlink:href="#b" transform="rotate(-44.21 58.127 -44.414)scale(.003)"/><use xlink:href="#b" transform="rotate(169.235 23.099 16.528)scale(.00357)"/><use xlink:href="#b" transform="rotate(-87.607 38.84 -10.74)scale(.00398)"/><use xlink:href="#b" transform="rotate(38.594 -14.662 83.403)scale(.0031)"/><use xlink:href="#b" transform="rotate(60.27 1.18 56.155)scale(.00368)"/><use xlink:href="#b" transform="rotate(230.73 31.433 2.66)scale(.00334)"/><use xlink:href="#b" transform="rotate(132.276 18.967 25.136)scale(.00334)"/><use xlink:href="#b" transform="rotate(-16.056 122.315 -160.727)scale(.00397)"/><use xlink:href="#b" transform="rotate(-68.067 45.67 -22.556)scale(.00341)"/><use xlink:href="#b" transform="rotate(222.014 30.724 4.646)scale(.00322)"/><use xlink:href="#b" transform="rotate(121.586 17.811 28.27)scale(.0027)"/><use xlink:href="#b" transform="rotate(204.347 28.659 8.835)scale(.00355)"/><use xlink:href="#b" transform="rotate(11.833 -106.738 258.949)scale(.0034)"/><use xlink:href="#b" transform="rotate(29.048 -26.9 112.592)scale(.00386)"/><use xlink:href="#b" transform="rotate(-.83 1919.923 -3523.9)scale(.00373)"/><use xlink:href="#b" transform="rotate(-29.237 78.979 -84.654)scale(.00307)"/><use xlink:href="#b" transform="rotate(22.269 -43.747 145.934)scale(.00277)"/><use xlink:href="#b" transform="rotate(-79.476 42.988 -17.057)scale(.00306)"/><use xlink:href="#b" transform="rotate(55.511 .36 63.896)scale(.00291)"/><use xlink:href="#b" transform="rotate(-41.34 63.138 -55.316)scale(.0031)"/><use xlink:href="#b" transform="rotate(179.715 26.822 14.371)scale(.00396)"/><use xlink:href="#b" transform="rotate(115.512 18.263 30.966)scale(.00318)"/><use xlink:href="#b" transform="rotate(106.903 16.914 33.998)scale(.00353)"/><use xlink:href="#b" transform="rotate(-19.266 107.958 -143.155)scale(.00393)"/><use xlink:href="#b" transform="rotate(61.09 3.912 59.853)scale(.00261)"/><use xlink:href="#b" transform="rotate(51.218 -1.309 70.606)scale(.00295)"/><use xlink:href="#b" transform="rotate(15.028 -76.287 219.697)scale(.00383)"/><use xlink:href="#b" transform="rotate(-41.633 63.899 -57.513)scale(.00303)"/><use xlink:href="#b" transform="rotate(172.694 26.898 15.96)scale(.00272)"/><use xlink:href="#b" transform="rotate(80.157 11.49 46.906)scale(.0027)"/><use xlink:href="#b" transform="rotate(243.511 36.566 -2.757)scale(.00388)"/><use xlink:href="#b" transform="rotate(-98.026 40.117 -9.9)scale(.00283)"/><use xlink:href="#b" transform="rotate(39.55 -9.72 91.65)scale(.00403)"/><use xlink:href="#b" transform="rotate(-64.205 50.374 -30.455)scale(.00275)"/><use xlink:href="#b" transform="rotate(172.108 27.66 16.24)scale(.00395)"/><use xlink:href="#b" transform="rotate(166.515 27.046 17.573)scale(.003)"/></g><defs><filter id="a" width="57.185" height="28.309" x=".366" y=".414" color-interpolation-filters="sRGB" filterUnits="userSpaceOnUse"><feFlood flood-opacity="0" result="BackgroundImageFix"/><feBlend in="SourceGraphic" in2="BackgroundImageFix" result="shape"/><feTurbulence baseFrequency="0.38759690523147583 0.38759690523147583" numOctaves="3" result="noise" seed="9800" stitchTiles="stitch" type="fractalNoise"/><feColorMatrix in="noise" result="alphaNoise" type="luminanceToAlpha"/><feComponentTransfer in="alphaNoise" result="coloredNoise1"><feFuncA tableValues="0 0 0 0 0 0 0 0 0 0 0 0 0 0 1 1 1 1 1 1 1 1 1 1 1 1 1 1 1 1 1 1 1 1 1 1 0 0 0 0 0 0 0 0 0 0 0 0 0 0 0 0 0 0 0 0 0 0 0 0 0 0 0 0 0 0 0 0 0 0 0 0 0 0 0 0 0 0 0 0 0 0 0 0 0 0 0 0 0 0 0 0 0 0 0 0 0 0 0 0" type="discrete"/></feComponentTransfer><feComposite in="coloredNoise1" in2="shape" operator="in" result="noise1Clipped"/><feComponentTransfer in="alphaNoise" result="coloredNoise2"><feFuncA tableValues="0 0 0 0 0 0 0 0 0 0 0 0 0 0 0 0 0 0 0 0 0 0 0 0 0 0 0 0 0 0 0 0 0 0 0 0 0 0 0 0 0 0 0 0 0 0 0 0 0 0 0 0 0 0 0 0 0 0 0 0 0 0 0 0 1 1 1 1 1 1 1 1 1 1 1 1 1 1 1 1 1 1 1 1 1 1 0 0 0 0 0 0 0 0 0 0 0 0 0 0" type="discrete"/></feComponentTransfer><feComposite in="coloredNoise2" in2="shape" operator="in" result="noise2Clipped"/><feFlood flood-color="rgba(255, 255, 255, 0.75)" result="color1Flood"/><feComposite in="color1Flood" in2="noise1Clipped" operator="in" result="color1"/><feFlood flood-color="rgba(255, 255, 255, 0.25)" result="color2Flood"/><feComposite in="color2Flood" in2="noise2Clipped" operator="in" result="color2"/><feMerge result="effect1_noise_7_53"><feMergeNode in="shape"/><feMergeNode in="color1"/><feMergeNode in="color2"/></feMerge></filter><path id="b" fill="#538fdf" d="M103.731 283.547c6.621-2.184 9.076-2.199 12.39-.079 13.988 8.95 8.729 25.25-8.149 25.259-17.595.01-20.911-19.681-4.241-25.18m36.106-248.132c1.1-.236 2.675-.301 3.5-.144s3.179.568 5.23.914c7.235 1.22 11.612 10.512 8.167 17.34-3.81 7.552-12.019 14.056-15.875 12.577-4.987-1.914-3.234 3.777 3.207 10.413 4.24 4.37 6.271 4.754 6.271 1.192 0-1.05 1.285-3.385 2.856-5.19 1.63-1.876 3.404-5.597 4.131-8.667 1.601-6.76 3.464-8.621 10.045-10.033 9.951-2.134 18.212 3.11 16.383 10.398-.459 1.827.149 3.45 2.338 6.243 10.769 13.74 7.785 33.815-5.494 36.96-3.547.84-3.764 1.114-3.823 4.852-.034 2.178-.408 4.717-.83 5.642-.688 1.505.003 1.652 6.563 1.398 7.909-.307 10.168.395 13.447 4.177 3.101 3.577 5.645 2.627 6.656-2.485.894-4.519 6.487-10.271 9.987-10.271 2.245 0 3.338-2.575 1.853-4.364-8.349-10.061 7.785-32.704 21.156-29.688 5.967 1.346 10.697 6.951 10.762 12.752.017 1.54 1.138 5.05 2.491 7.8 6.504 13.222-5.554 28.994-16.081 21.032-2.853-2.158-2.94-2.037-2.94 4.078 0 6.589-3.905 10.951-10.788 12.052-2.981.477-4.116 1.277-5.274 3.723-.811 1.713-2.225 4.299-3.145 5.747-1.646 2.593-1.61 2.702 2.517 7.391 2.304 2.617 4.19 5.301 4.19 5.964s.737 2.683 1.637 4.488c3.174 6.361 2.099 20.025-1.574 20.025-.348 0-1.43 1.35-2.405 3s-2.422 3-3.216 3c-2.184 0-1.735 2.086 1.084 5.029 3.521 3.675 4.562 12.107 1.865 15.098-5.225 5.791-11.678 10.152-16.664 11.264-4.12.919-5.234 1.583-5.26 3.137-.135 8.13-4.562 13.128-13.122 14.818-6.837 1.35-7.61 3.233-2.105 5.126 12.781 4.394 15.315 15.49 4.865 21.303-5.921 3.293-10.016 3.252-14.927-.152-3.621-2.509-4.354-2.668-7.836-1.701-5.942 1.65-12.316 1.281-18.342-1.06-5.463-2.123-10.613-3.525-16.648-4.532-5.974-.997-9.538-6.118-10.097-14.51-.408-6.134-.921-7.806-3.167-10.32-1.474-1.65-3.439-4.687-4.367-6.75-1.638-3.637-1.847-3.75-6.894-3.75-6.37 0-11.084-2.809-13.947-8.311-3.17-6.093-7.274-5.084-7.37 1.811-.037 2.75-.424 6.586-.859 8.524-.753 3.358-.637 3.569 2.449 4.5 10.063 3.035 9.961 20.691-.149 25.679-24.298 11.986-54.047-12.461-32.413-26.636 1.681-1.102 2.306-2.804 2.815-7.672.36-3.441 1.44-7.364 2.4-8.716a375 375 0 0 1 2.719-3.783c.693-.943.207-2.124-1.687-4.11-3.495-3.662-4.81-7.36-4.124-11.589.33-2.036.105-3.723-.552-4.129-.61-.377-1.109-1.954-1.11-3.505 0-1.55-.735-3.428-1.633-4.173-2.703-2.245-12.366-15.765-12.366-17.304 0-.788-1.574-3.495-3.498-6.015-1.924-2.521-3.44-4.918-3.366-5.327.973-5.497-2.826-8.55-7-5.627-2.218 1.554-9.25 1.428-13.607-.244-10.102-3.877-8.653-28.978 1.702-29.484 6.291-.307 14.769 2.931 14.769 5.641 0 1.757 2.773 4.47 4.57 4.47.786 0 1.43-.69 1.43-1.533 0-13.384 20.848-28.89 40.5-30.121 13.093-.822 18.425.42 27.352 6.37 4.261 2.84 11.148-2.563 11.148-8.746 0-2.041.835-4.23 2.146-5.626 2.251-2.396 1.321-5.344-1.687-5.344-2.393 0-5.24-6.189-4.719-10.26.969-7.587 13.556-11.704 19.212-6.285 2.35 2.252 3.419 2.622 5.956 2.065 3.809-.837 3.883-1.777.342-4.356-8.227-5.993-1.392-22.986 10.25-25.48m87.5 168.014c11.757-3.775 25.385 3.862 25.385 14.224 0 10.842-20.801 21.787-28.795 15.153-2.262-1.877-3.524-.443-2.915 3.312 1.085 6.684-7.501 18.613-13.396 18.613-13.37 0-18.816-8.499-13.159-20.533 3.745-7.967 9.996-10.414 18.781-7.351 4.298 1.498 4.642.84 2.683-5.15-2.869-8.772.969-14.914 11.416-18.268M179.7 192.695c-.651-.651-1.649-.282-2.926 1.084-8.404 8.989-11.711 9.934-20.268 5.792-6.76-3.273-10.056 1.888-4.545 7.118 2.248 2.133 2.521 3.055 2.077 6.993-.498 4.416-.374 4.662 4.644 9.285 5.154 4.749 5.155 4.749 5.669-.1.636-5.995 5.171-12.898 9.726-14.801 3.017-1.261 3.26-1.707 3.26-6.02 0-2.954.613-5.335 1.676-6.51 1.104-1.221 1.339-2.189.687-2.841m-165.965-8.998c7.495-3.335 12.2-2.472 18.37 3.369 8.46 8.008 4.924 18.546-7.474 22.277-15.224 4.582-25.336-19.219-10.896-25.646m239.221-35.446c9.173-2.519 14.854-1.048 18.027 4.67 6.414 11.557-13.631 27.998-23.804 19.524-10.086-8.401-7.163-20.64 5.777-24.194m-77.134 14.458c-.98-1.586-3.34-1.12-4.405.87-1.134 2.12-.033 7.334 1.669 7.902 1.28.424 3.675-7.252 2.736-8.772m-25.67-51.228c.34-2.955-.618-3.304-4.639-1.691-3.405 1.365-2.478 4.441 1.338 4.441 2.514 0 3.035-.435 3.301-2.75m6.685-12.75c-.825 0-1.5.675-1.5 1.5s.675 1.5 1.5 1.5 1.5-.675 1.5-1.5-.675-1.5-1.5-1.5m-25.5-13.093c0-2.838-1.846-4.238-3.908-2.964-.928.573-.744 1.616.756 4.286 1.088 1.94 2.131 4.5 2.315 5.689s.787 2.256 1.337 2.372c1.413.296 1.892-4.299.585-5.606-.597-.597-1.085-2.296-1.085-3.777m-51.5-48.717c10.045-5.672 23.056 9.928 15.821 18.971-3.456 4.319-4.454 8.089-3.788 14.308.662 6.184.612 6.364-2.833 10.163C76.04 94.7 55.153 78.5 64.824 61.583c1.515-2.65 2.493-5.938 2.5-8.408.016-5.47 5.092-12.063 12.513-16.254m41.059 41.81c-.243 0-.719.45-1.059 1s-.142 1 .44 1 1.06-.45 1.06-1-.198-1-.441-1m84.589-39.241c14.146-2.448 22.113 11.425 15.112 26.318-7.204 15.322-30.258 11.978-30.506-4.426-.111-7.306 9.418-20.858 15.394-21.892M51.837 14.554c12.608-8.69 23.843 4.813 16.787 20.177-6.239 13.586-27.287 9.044-27.287-5.889 0-2.809 6.316-11.404 10.5-14.288M108.212 2.17c13.218-8.981 33.334 11.922 25.025 26.004-1.153 1.956-2.418 3.556-2.81 3.557s-1.614.84-2.714 1.865c-8.257 7.691-19.927 2.18-24.346-11.497-3.215-9.953-1.904-15.343 4.845-19.929" data-figma-scatter="f0.28_w0_aj180_sj0.25_r0_s0_sw1" data-figma-scatter-ref="stroke0_7_53_ref"/></defs></svg>