<svg width="58" height="58" viewBox="0 0 58 58" fill="none" xmlns="http://www.w3.org/2000/svg" xmlns:xlink="http://www.w3.org/1999/xlink">
<g filter="url(#filter0_n_6_49)">
<path d="M1 1H57V29C57 44.464 44.464 57 29 57C13.536 57 1 44.464 1 29V1Z" fill="#538FDF"/>
<use xlink:href="#stroke0_6_49" transform="translate(1.76466 0.966023) scale(0.00371918) rotate(128.86)"/>
<use xlink:href="#stroke0_6_49" transform="translate(0.489499 0.901933) scale(0.00392519) rotate(-41.6226)"/>
<use xlink:href="#stroke0_6_49" transform="translate(1.06325 0.572642) scale(0.00319382) rotate(-8.04056)"/>
<use xlink:href="#stroke0_6_49" transform="translate(2.37998 0.89239) scale(0.00289207) rotate(120.988)"/>
<use xlink:href="#stroke0_6_49" transform="translate(2.49122 1.31387) scale(0.00278742) rotate(164.576)"/>
<use xlink:href="#stroke0_6_49" transform="translate(2.72238 0.785393) scale(0.00266041) rotate(108.328)"/>
<use xlink:href="#stroke0_6_49" transform="translate(2.30397 0.236941) scale(0.00378885) rotate(29.5271)"/>
<use xlink:href="#stroke0_6_49" transform="translate(2.27772 0.646669) scale(0.00272273) rotate(-9.50385)"/>
<use xlink:href="#stroke0_6_49" transform="translate(2.84936 1.55838) scale(0.0027352) rotate(-131.321)"/>
<use xlink:href="#stroke0_6_49" transform="translate(2.50714 0.913555) scale(0.00312228) rotate(-40.864)"/>
<use xlink:href="#stroke0_6_49" transform="translate(4.12149 1.17238) scale(0.00360347) rotate(144.845)"/>
<use xlink:href="#stroke0_6_49" transform="translate(3.40597 1.77768) scale(0.00402444) rotate(-118.473)"/>
<use xlink:href="#stroke0_6_49" transform="translate(3.22401 1.19673) scale(0.003847) rotate(-62.983)"/>
<use xlink:href="#stroke0_6_49" transform="translate(4.46214 0.249335) scale(0.00375273) rotate(55.0045)"/>
<use xlink:href="#stroke0_6_49" transform="translate(3.78494 0.745955) scale(0.00404508) rotate(-30.8273)"/>
<use xlink:href="#stroke0_6_49" transform="translate(5.05011 0.463434) scale(0.00280229) rotate(62.9108)"/>
<use xlink:href="#stroke0_6_49" transform="translate(5.32717 0.238894) scale(0.00386939) rotate(58.5097)"/>
<use xlink:href="#stroke0_6_49" transform="translate(5.98605 1.47955) scale(0.00374347) rotate(169.9)"/>
<use xlink:href="#stroke0_6_49" transform="translate(5.12849 0.695355) scale(0.00287306) rotate(-17.5827)"/>
<use xlink:href="#stroke0_6_49" transform="translate(5.14205 1.02589) scale(0.00359679) rotate(-50.6)"/>
<use xlink:href="#stroke0_6_49" transform="translate(6.9017 1.25646) scale(0.00379677) rotate(150.565)"/>
<use xlink:href="#stroke0_6_49" transform="translate(5.97896 0.401916) scale(0.00369678) rotate(3.22883)"/>
<use xlink:href="#stroke0_6_49" transform="translate(6.22806 1.28251) scale(0.0026328) rotate(-80.0213)"/>
<use xlink:href="#stroke0_6_49" transform="translate(7.73832 0.88064) scale(0.00392122) rotate(122.899)"/>
<use xlink:href="#stroke0_6_49" transform="translate(6.9992 1.69715) scale(0.00356125) rotate(-120.621)"/>
<use xlink:href="#stroke0_6_49" transform="translate(7.85464 0.413603) scale(0.00335769) rotate(73.3454)"/>
<use xlink:href="#stroke0_6_49" transform="translate(7.02907 0.856612) scale(0.00358997) rotate(-37.4046)"/>
<use xlink:href="#stroke0_6_49" transform="translate(8.34105 0.290572) scale(0.00375649) rotate(64.82)"/>
<use xlink:href="#stroke0_6_49" transform="translate(8.71342 0.690689) scale(0.00260244) rotate(96.1285)"/>
<use xlink:href="#stroke0_6_49" transform="translate(7.94141 1.18234) scale(0.00277117) rotate(-67.2414)"/>
<use xlink:href="#stroke0_6_49" transform="translate(8.35304 0.334126) scale(0.00371563) rotate(11.9543)"/>
<use xlink:href="#stroke0_6_49" transform="translate(8.44148 0.533652) scale(0.00355886) rotate(-9.04769)"/>
<use xlink:href="#stroke0_6_49" transform="translate(8.68498 0.934605) scale(0.00274729) rotate(-41.9536)"/>
<use xlink:href="#stroke0_6_49" transform="translate(9.52999 1.54106) scale(0.00265585) rotate(-146.745)"/>
<use xlink:href="#stroke0_6_49" transform="translate(10.1274 1.35598) scale(0.00284643) rotate(168.826)"/>
<use xlink:href="#stroke0_6_49" transform="translate(9.95798 1.62775) scale(0.00306933) rotate(-144.986)"/>
<use xlink:href="#stroke0_6_49" transform="translate(9.52031 0.646623) scale(0.00344992) rotate(-18.7466)"/>
<use xlink:href="#stroke0_6_49" transform="translate(10.9868 0.908448) scale(0.00297691) rotate(122.81)"/>
<use xlink:href="#stroke0_6_49" transform="translate(10.4038 1.6375) scale(0.00326952) rotate(-119.935)"/>
<use xlink:href="#stroke0_6_49" transform="translate(10.7596 1.54137) scale(0.00266323) rotate(-129.61)"/>
<use xlink:href="#stroke0_6_49" transform="translate(10.5424 0.818524) scale(0.00260035) rotate(-28.7729)"/>
<use xlink:href="#stroke0_6_49" transform="translate(10.8529 1.45631) scale(0.00296792) rotate(-96.9328)"/>
<use xlink:href="#stroke0_6_49" transform="translate(10.7113 1.13201) scale(0.00400364) rotate(-57.8146)"/>
<use xlink:href="#stroke0_6_49" transform="translate(11.5793 1.57692) scale(0.00298605) rotate(-118.445)"/>
<use xlink:href="#stroke0_6_49" transform="translate(12.0208 0.188366) scale(0.00394732) rotate(38.971)"/>
<use xlink:href="#stroke0_6_49" transform="translate(12.6683 1.73235) scale(0.00387368) rotate(-161.867)"/>
<use xlink:href="#stroke0_6_49" transform="translate(12.8091 0.508602) scale(0.00259523) rotate(64.4726)"/>
<use xlink:href="#stroke0_6_49" transform="translate(12.5515 0.265272) scale(0.00384712) rotate(19.5273)"/>
<use xlink:href="#stroke0_6_49" transform="translate(12.9322 0.394066) scale(0.00306847) rotate(25.0465)"/>
<use xlink:href="#stroke0_6_49" transform="translate(13.5341 1.81391) scale(0.00402478) rotate(-149.294)"/>
<use xlink:href="#stroke0_6_49" transform="translate(14.2444 1.48176) scale(0.00363415) rotate(171.506)"/>
<use xlink:href="#stroke0_6_49" transform="translate(14.499 0.477709) scale(0.00367841) rotate(87.7804)"/>
<use xlink:href="#stroke0_6_49" transform="translate(14.6924 0.368501) scale(0.00378739) rotate(77.2909)"/>
<use xlink:href="#stroke0_6_49" transform="translate(14.4141 1.73539) scale(0.00360838) rotate(-130.601)"/>
<use xlink:href="#stroke0_6_49" transform="translate(14.9618 0.201623) scale(0.00395299) rotate(52.4825)"/>
<use xlink:href="#stroke0_6_49" transform="translate(14.5081 1.19339) scale(0.00286665) rotate(-67.7303)"/>
<use xlink:href="#stroke0_6_49" transform="translate(14.6411 0.558938) scale(0.00395603) rotate(-15.7933)"/>
<use xlink:href="#stroke0_6_49" transform="translate(16.1336 1.05339) scale(0.0027056) rotate(136.907)"/>
<use xlink:href="#stroke0_6_49" transform="translate(16.0888 0.558144) scale(0.00261353) rotate(76.1702)"/>
<use xlink:href="#stroke0_6_49" transform="translate(15.5652 1.63817) scale(0.0038306) rotate(-102.643)"/>
<use xlink:href="#stroke0_6_49" transform="translate(16.6166 0.254755) scale(0.00389307) rotate(62.945)"/>
<use xlink:href="#stroke0_6_49" transform="translate(16.032 0.597655) scale(0.00338074) rotate(-13.2659)"/>
<use xlink:href="#stroke0_6_49" transform="translate(16.8068 1.63293) scale(0.00308129) rotate(-135.06)"/>
<use xlink:href="#stroke0_6_49" transform="translate(17.182 1.66504) scale(0.00326377) rotate(-146.665)"/>
<use xlink:href="#stroke0_6_49" transform="translate(17.693 1.71742) scale(0.00384584) rotate(-163.579)"/>
<use xlink:href="#stroke0_6_49" transform="translate(17.8667 1.67667) scale(0.00347144) rotate(-157.306)"/>
<use xlink:href="#stroke0_6_49" transform="translate(18.3826 1.45529) scale(0.00324659) rotate(174.359)"/>
<use xlink:href="#stroke0_6_49" transform="translate(17.9962 0.319486) scale(0.00338619) rotate(28.961)"/>
<use xlink:href="#stroke0_6_49" transform="translate(17.8942 0.689357) scale(0.00281266) rotate(-16.1392)"/>
<use xlink:href="#stroke0_6_49" transform="translate(18.0864 0.483592) scale(0.00363773) rotate(-4.98256)"/>
<use xlink:href="#stroke0_6_49" transform="translate(18.5475 1.65842) scale(0.00364249) rotate(-110.037)"/>
<use xlink:href="#stroke0_6_49" transform="translate(19.9129 0.579872) scale(0.00402804) rotate(100.954)"/>
<use xlink:href="#stroke0_6_49" transform="translate(18.9927 1.31685) scale(0.00272562) rotate(-82.9874)"/>
<use xlink:href="#stroke0_6_49" transform="translate(19.0843 0.864514) scale(0.00292587) rotate(-35.5924)"/>
<use xlink:href="#stroke0_6_49" transform="translate(19.7297 0.486658) scale(0.00260133) rotate(24.9159)"/>
<use xlink:href="#stroke0_6_49" transform="translate(19.5283 1.02008) scale(0.00270553) rotate(-50.6623)"/>
<use xlink:href="#stroke0_6_49" transform="translate(20.9852 1.26893) scale(0.00348352) rotate(153.437)"/>
<use xlink:href="#stroke0_6_49" transform="translate(20.2892 0.530769) scale(0.00261594) rotate(12.0476)"/>
<use xlink:href="#stroke0_6_49" transform="translate(20.9629 0.49535) scale(0.00265345) rotate(63.8683)"/>
<use xlink:href="#stroke0_6_49" transform="translate(21.7126 0.837013) scale(0.00358905) rotate(118.657)"/>
<use xlink:href="#stroke0_6_49" transform="translate(21.1554 0.355927) scale(0.00316277) rotate(33.0967)"/>
<use xlink:href="#stroke0_6_49" transform="translate(21.1603 0.499193) scale(0.00288695) rotate(8.85334)"/>
<use xlink:href="#stroke0_6_49" transform="translate(22.2256 0.869569) scale(0.00266998) rotate(117.673)"/>
<use xlink:href="#stroke0_6_49" transform="translate(21.5491 1.57134) scale(0.00330905) rotate(-105.626)"/>
<use xlink:href="#stroke0_6_49" transform="translate(22.3107 1.54682) scale(0.00276766) rotate(-154.851)"/>
<use xlink:href="#stroke0_6_49" transform="translate(22.8254 0.720126) scale(0.00264847) rotate(100.509)"/>
<use xlink:href="#stroke0_6_49" transform="translate(22.1154 0.654844) scale(0.00274781) rotate(-10.9806)"/>
<use xlink:href="#stroke0_6_49" transform="translate(22.5625 1.55359) scale(0.00288664) rotate(-117.32)"/>
<use xlink:href="#stroke0_6_49" transform="translate(22.814 1.76576) scale(0.00387369) rotate(-122.448)"/>
<use xlink:href="#stroke0_6_49" transform="translate(22.5755 1.18953) scale(0.00376503) rotate(-62.7535)"/>
<use xlink:href="#stroke0_6_49" transform="translate(23.4449 0.375414) scale(0.00311462) rotate(28.4121)"/>
<use xlink:href="#stroke0_6_49" transform="translate(24.3071 0.785491) scale(0.00263849) rotate(108.136)"/>
<use xlink:href="#stroke0_6_49" transform="translate(23.5229 0.590463) scale(0.00316515) rotate(-9.64056)"/>
<use xlink:href="#stroke0_6_49" transform="translate(24.6324 0.579172) scale(0.00274719) rotate(83.303)"/>
<use xlink:href="#stroke0_6_49" transform="translate(24.034 1.49086) scale(0.00323122) rotate(-96.1684)"/>
<use xlink:href="#stroke0_6_49" transform="translate(24.8495 1.82055) scale(0.00401141) rotate(-144.911)"/>
<use xlink:href="#stroke0_6_49" transform="translate(25.3949 1.39356) scale(0.00266427) rotate(177.275)"/>
<use xlink:href="#stroke0_6_49" transform="translate(25.8299 1.3447) scale(0.0033156) rotate(161.747)"/>
<use xlink:href="#stroke0_6_49" transform="translate(26.036 0.48329) scale(0.00360138) rotate(87.2057)"/>
<use xlink:href="#stroke0_6_49" transform="translate(25.1236 0.891681) scale(0.00314494) rotate(-38.9612)"/>
<use xlink:href="#stroke0_6_49" transform="translate(26.353 0.259435) scale(0.00392366) rotate(64.8973)"/>
<use xlink:href="#stroke0_6_49" transform="translate(26.537 1.60633) scale(0.00316128) rotate(-159.852)"/>
<use xlink:href="#stroke0_6_49" transform="translate(26.1642 0.410149) scale(0.00343116) rotate(8.05339)"/>
<use xlink:href="#stroke0_6_49" transform="translate(27.2108 1.673) scale(0.00376533) rotate(-168.312)"/>
<use xlink:href="#stroke0_6_49" transform="translate(26.681 0.602308) scale(0.00271561) rotate(-3.23109)"/>
<use xlink:href="#stroke0_6_49" transform="translate(27.5586 1.56949) scale(0.00305241) rotate(-163.563)"/>
<use xlink:href="#stroke0_6_49" transform="translate(27.6849 0.204731) scale(0.00391245) rotate(50.4087)"/>
<use xlink:href="#stroke0_6_49" transform="translate(28.0398 1.69074) scale(0.00349237) rotate(-154.639)"/>
<use xlink:href="#stroke0_6_49" transform="translate(28.785 1.2767) scale(0.00354741) rotate(153.676)"/>
<use xlink:href="#stroke0_6_49" transform="translate(28.9263 0.84373) scale(0.00288069) rotate(116.121)"/>
<use xlink:href="#stroke0_6_49" transform="translate(27.8604 1.00862) scale(0.00360119) rotate(-49.2619)"/>
<use xlink:href="#stroke0_6_49" transform="translate(29.3486 1.24683) scale(0.00273418) rotate(157.422)"/>
<use xlink:href="#stroke0_6_49" transform="translate(29.7978 1.14609) scale(0.00354825) rotate(142.945)"/>
<use xlink:href="#stroke0_6_49" transform="translate(28.888 0.556884) scale(0.00305465) rotate(-3.77664)"/>
<use xlink:href="#stroke0_6_49" transform="translate(30.1435 1.19532) scale(0.00297295) rotate(150.022)"/>
<use xlink:href="#stroke0_6_49" transform="translate(29.2088 0.966621) scale(0.00279768) rotate(-45.2719)"/>
<use xlink:href="#stroke0_6_49" transform="translate(29.5334 0.402416) scale(0.00378985) rotate(1.4161)"/>
<use xlink:href="#stroke0_6_49" transform="translate(30.6621 0.61019) scale(0.00265177) rotate(85.8205)"/>
<use xlink:href="#stroke0_6_49" transform="translate(30.116 0.421796) scale(0.00340229) rotate(7.07142)"/>
<use xlink:href="#stroke0_6_49" transform="translate(30.6933 1.65883) scale(0.00321929) rotate(-132.533)"/>
<use xlink:href="#stroke0_6_49" transform="translate(31.3059 0.264827) scale(0.0038133) rotate(61.8865)"/>
<use xlink:href="#stroke0_6_49" transform="translate(31.3351 1.56529) scale(0.00275899) rotate(-143.988)"/>
<use xlink:href="#stroke0_6_49" transform="translate(32.0005 1.43164) scale(0.00318149) rotate(172.646)"/>
<use xlink:href="#stroke0_6_49" transform="translate(31.6084 0.389045) scale(0.00304234) rotate(28.7685)"/>
<use xlink:href="#stroke0_6_49" transform="translate(32.3729 1.60242) scale(0.00346018) rotate(-170.821)"/>
<use xlink:href="#stroke0_6_49" transform="translate(32.7863 1.10559) scale(0.00275165) rotate(142.151)"/>
<use xlink:href="#stroke0_6_49" transform="translate(32.9034 1.34498) scale(0.002801) rotate(168.164)"/>
<use xlink:href="#stroke0_6_49" transform="translate(33.1867 1.08247) scale(0.00264337) rotate(140.124)"/>
<use xlink:href="#stroke0_6_49" transform="translate(32.5586 0.491028) scale(0.00287242) rotate(10.832)"/>
<use xlink:href="#stroke0_6_49" transform="translate(33.2423 0.19385) scale(0.00396213) rotate(50.0499)"/>
<use xlink:href="#stroke0_6_49" transform="translate(34.0094 0.965864) scale(0.00303239) rotate(128.269)"/>
<use xlink:href="#stroke0_6_49" transform="translate(33.9506 1.5226) scale(0.00301337) rotate(-171.17)"/>
<use xlink:href="#stroke0_6_49" transform="translate(33.6915 1.70552) scale(0.00353156) rotate(-124.694)"/>
<use xlink:href="#stroke0_6_49" transform="translate(34.5332 1.33) scale(0.00264084) rotate(168.791)"/>
<use xlink:href="#stroke0_6_49" transform="translate(34.0238 0.422198) scale(0.00316055) rotate(14.0665)"/>
<use xlink:href="#stroke0_6_49" transform="translate(34.0421 0.674951) scale(0.00295211) rotate(-16.2504)"/>
<use xlink:href="#stroke0_6_49" transform="translate(35.077 0.237485) scale(0.00391431) rotate(60.2225)"/>
<use xlink:href="#stroke0_6_49" transform="translate(35.5122 1.66977) scale(0.00379388) rotate(-169.524)"/>
<use xlink:href="#stroke0_6_49" transform="translate(34.6435 0.91414) scale(0.00367838) rotate(-42.083)"/>
<use xlink:href="#stroke0_6_49" transform="translate(35.3323 0.339494) scale(0.00361242) rotate(14.0826)"/>
<use xlink:href="#stroke0_6_49" transform="translate(35.3827 0.866073) scale(0.00265495) rotate(-34.407)"/>
<use xlink:href="#stroke0_6_49" transform="translate(35.8653 0.482501) scale(0.00280339) rotate(15.1666)"/>
<use xlink:href="#stroke0_6_49" transform="translate(36.5819 1.51231) scale(0.00276805) rotate(-164.528)"/>
<use xlink:href="#stroke0_6_49" transform="translate(36.0809 1.43996) scale(0.00315516) rotate(-91.2475)"/>
<use xlink:href="#stroke0_6_49" transform="translate(36.7426 0.187039) scale(0.00397305) rotate(35.2572)"/>
<use xlink:href="#stroke0_6_49" transform="translate(36.5172 1.10685) scale(0.00282837) rotate(-59.1728)"/>
<use xlink:href="#stroke0_6_49" transform="translate(38.056 1.06149) scale(0.00353168) rotate(136.257)"/>
<use xlink:href="#stroke0_6_49" transform="translate(37.3265 1.53508) scale(0.00286798) rotate(-113.629)"/>
<use xlink:href="#stroke0_6_49" transform="translate(37.4329 0.415528) scale(0.00339098) rotate(8.2823)"/>
<use xlink:href="#stroke0_6_49" transform="translate(38.2087 0.348091) scale(0.00324162) rotate(53.6682)"/>
<use xlink:href="#stroke0_6_49" transform="translate(37.5986 1.36145) scale(0.00402477) rotate(-74.468)"/>
<use xlink:href="#stroke0_6_49" transform="translate(38.0717 0.871296) scale(0.00263037) rotate(-34.8415)"/>
<use xlink:href="#stroke0_6_49" transform="translate(39.3015 1.21088) scale(0.00264922) rotate(154.159)"/>
<use xlink:href="#stroke0_6_49" transform="translate(38.2995 1.04872) scale(0.00358876) rotate(-52.3778)"/>
<use xlink:href="#stroke0_6_49" transform="translate(38.5632 0.817801) scale(0.00376733) rotate(-35.004)"/>
<use xlink:href="#stroke0_6_49" transform="translate(40.0397 1.23571) scale(0.00259927) rotate(157.549)"/>
<use xlink:href="#stroke0_6_49" transform="translate(40.3869 1.38822) scale(0.00345507) rotate(164.496)"/>
<use xlink:href="#stroke0_6_49" transform="translate(40.5439 0.633959) scale(0.00303271) rotate(95.4974)"/>
<use xlink:href="#stroke0_6_49" transform="translate(40.9174 1.02457) scale(0.00313165) rotate(133.59)"/>
<use xlink:href="#stroke0_6_49" transform="translate(40.3854 0.410358) scale(0.00292254) rotate(30.0255)"/>
<use xlink:href="#stroke0_6_49" transform="translate(40.6518 0.464077) scale(0.00262234) rotate(34.636)"/>
<use xlink:href="#stroke0_6_49" transform="translate(41.3699 0.672123) scale(0.00271002) rotate(95.398)"/>
<use xlink:href="#stroke0_6_49" transform="translate(41.2072 1.53773) scale(0.00264484) rotate(-147.516)"/>
<use xlink:href="#stroke0_6_49" transform="translate(41.78 1.41629) scale(0.00295644) rotate(174.576)"/>
<use xlink:href="#stroke0_6_49" transform="translate(41.0956 0.587905) scale(0.0030335) rotate(-7.28861)"/>
<use xlink:href="#stroke0_6_49" transform="translate(42.0243 1.47774) scale(0.00260837) rotate(-165.726)"/>
<use xlink:href="#stroke0_6_49" transform="translate(42.1969 1.56127) scale(0.00290616) rotate(-158.807)"/>
<use xlink:href="#stroke0_6_49" transform="translate(41.6566 0.94358) scale(0.00266771) rotate(-42.697)"/>
<use xlink:href="#stroke0_6_49" transform="translate(42.4868 0.27247) scale(0.00354257) rotate(45.129)"/>
<use xlink:href="#stroke0_6_49" transform="translate(42.136 1.17225) scale(0.00277333) rotate(-66.1608)"/>
<use xlink:href="#stroke0_6_49" transform="translate(43.2143 0.546076) scale(0.00271293) rotate(77.0138)"/>
<use xlink:href="#stroke0_6_49" transform="translate(43.2648 1.72042) scale(0.00356274) rotate(-149.316)"/>
<use xlink:href="#stroke0_6_49" transform="translate(43.6634 0.387261) scale(0.0032631) rotate(65.5628)"/>
<use xlink:href="#stroke0_6_49" transform="translate(44.1919 1.36888) scale(0.00324008) rotate(164.991)"/>
<use xlink:href="#stroke0_6_49" transform="translate(44.39 0.944147) scale(0.0025954) rotate(125.402)"/>
<use xlink:href="#stroke0_6_49" transform="translate(43.3688 1.27871) scale(0.00382257) rotate(-69.3446)"/>
<use xlink:href="#stroke0_6_49" transform="translate(44.7001 1.52655) scale(0.00303104) rotate(-171.02)"/>
<use xlink:href="#stroke0_6_49" transform="translate(44.0001 0.983385) scale(0.00287043) rotate(-46.9837)"/>
<use xlink:href="#stroke0_6_49" transform="translate(45.6532 1.16479) scale(0.00397697) rotate(143.02)"/>
<use xlink:href="#stroke0_6_49" transform="translate(44.5863 1.2192) scale(0.00274913) rotate(-71.3907)"/>
<use xlink:href="#stroke0_6_49" transform="translate(45.1547 1.57867) scale(0.0029301) rotate(-122.258)"/>
<use xlink:href="#stroke0_6_49" transform="translate(45.7838 0.354361) scale(0.00331654) rotate(60.3336)"/>
<use xlink:href="#stroke0_6_49" transform="translate(45.151 0.556982) scale(0.00398256) rotate(-15.8766)"/>
<use xlink:href="#stroke0_6_49" transform="translate(46.0485 1.70496) scale(0.00344481) rotate(-132.515)"/>
<use xlink:href="#stroke0_6_49" transform="translate(46.953 0.951216) scale(0.00287024) rotate(126.667)"/>
<use xlink:href="#stroke0_6_49" transform="translate(47.1241 0.523004) scale(0.00342785) rotate(88.8611)"/>
<use xlink:href="#stroke0_6_49" transform="translate(47.0952 0.47522) scale(0.00282952) rotate(67.0903)"/>
<use xlink:href="#stroke0_6_49" transform="translate(47.5926 0.779188) scale(0.00281136) rotate(108.969)"/>
<use xlink:href="#stroke0_6_49" transform="translate(47.8206 1.26263) scale(0.00293445) rotate(157.182)"/>
<use xlink:href="#stroke0_6_49" transform="translate(47.5985 1.65536) scale(0.00321268) rotate(-146.198)"/>
<use xlink:href="#stroke0_6_49" transform="translate(47.0122 1.00264) scale(0.0037049) rotate(-48.7934)"/>
<use xlink:href="#stroke0_6_49" transform="translate(48.8004 1.16662) scale(0.00370217) rotate(144.037)"/>
<use xlink:href="#stroke0_6_49" transform="translate(48.5323 0.507826) scale(0.00264668) rotate(66.7719)"/>
<use xlink:href="#stroke0_6_49" transform="translate(49.0964 0.487665) scale(0.00367547) rotate(88.7703)"/>
<use xlink:href="#stroke0_6_49" transform="translate(48.4696 1.5011) scale(0.00289019) rotate(-105.996)"/>
<use xlink:href="#stroke0_6_49" transform="translate(48.357 1.29026) scale(0.00359364) rotate(-71.7034)"/>
<use xlink:href="#stroke0_6_49" transform="translate(50.0033 0.607882) scale(0.00382772) rotate(101.552)"/>
<use xlink:href="#stroke0_6_49" transform="translate(50.2467 1.05281) scale(0.00320977) rotate(135.99)"/>
<use xlink:href="#stroke0_6_49" transform="translate(50.4389 0.607093) scale(0.00346915) rotate(98.0156)"/>
<use xlink:href="#stroke0_6_49" transform="translate(50.3395 0.377985) scale(0.00324127) rotate(62.5814)"/>
<use xlink:href="#stroke0_6_49" transform="translate(50.957 1.25311) scale(0.00321919) rotate(153.865)"/>
<use xlink:href="#stroke0_6_49" transform="translate(50.2445 0.307652) scale(0.00381012) rotate(13.4048)"/>
<use xlink:href="#stroke0_6_49" transform="translate(50.1342 0.961351) scale(0.00372513) rotate(-45.7057)"/>
<use xlink:href="#stroke0_6_49" transform="translate(50.7481 1.44083) scale(0.00290706) rotate(-96.0574)"/>
<use xlink:href="#stroke0_6_49" transform="translate(50.6766 0.988174) scale(0.00349987) rotate(-47.6546)"/>
<use xlink:href="#stroke0_6_49" transform="translate(51.4493 1.53864) scale(0.00276962) rotate(-119.505)"/>
<use xlink:href="#stroke0_6_49" transform="translate(51.9617 1.61647) scale(0.00303832) rotate(-148.231)"/>
<use xlink:href="#stroke0_6_49" transform="translate(51.5178 1.08101) scale(0.00274828) rotate(-56.8305)"/>
<use xlink:href="#stroke0_6_49" transform="translate(52.0383 0.278153) scale(0.00377625) rotate(19.6572)"/>
<use xlink:href="#stroke0_6_49" transform="translate(52.2127 0.463207) scale(0.00319335) rotate(6.16942)"/>
<use xlink:href="#stroke0_6_49" transform="translate(53.4763 0.834681) scale(0.00321318) rotate(116.927)"/>
<use xlink:href="#stroke0_6_49" transform="translate(53.8416 1.14881) scale(0.00368118) rotate(142.733)"/>
<use xlink:href="#stroke0_6_49" transform="translate(52.6395 1.03613) scale(0.00358069) rotate(-51.4053)"/>
<use xlink:href="#stroke0_6_49" transform="translate(53.8436 0.503525) scale(0.0026592) rotate(66.2853)"/>
<use xlink:href="#stroke0_6_49" transform="translate(53.3669 0.356343) scale(0.00395593) rotate(3.64608)"/>
<use xlink:href="#stroke0_6_49" transform="translate(54.1805 0.42589) scale(0.00280353) rotate(47.1136)"/>
<use xlink:href="#stroke0_6_49" transform="translate(54.2308 0.361697) scale(0.00315529) rotate(30.8136)"/>
<use xlink:href="#stroke0_6_49" transform="translate(55.1552 0.573439) scale(0.00340188) rotate(93.8677)"/>
<use xlink:href="#stroke0_6_49" transform="translate(55.6127 0.732228) scale(0.00381316) rotate(111.454)"/>
<use xlink:href="#stroke0_6_49" transform="translate(54.6156 1.22638) scale(0.00270128) rotate(-72.6248)"/>
<use xlink:href="#stroke0_6_49" transform="translate(54.9809 0.452927) scale(0.00320227) rotate(7.51493)"/>
<use xlink:href="#stroke0_6_49" transform="translate(55.8375 0.333673) scale(0.00343515) rotate(60.9253)"/>
<use xlink:href="#stroke0_6_49" transform="translate(55.0698 1.01085) scale(0.00395058) rotate(-49.3603)"/>
<use xlink:href="#stroke0_6_49" transform="translate(55.9307 1.57712) scale(0.0029955) rotate(-118.01)"/>
<use xlink:href="#stroke0_6_49" transform="translate(56.9943 0.556885) scale(0.00360572) rotate(94.7394)"/>
<use xlink:href="#stroke0_6_49" transform="translate(56.0233 0.528065) scale(0.00395869) rotate(-13.1962)"/>
<use xlink:href="#stroke0_6_49" transform="translate(57.3614 0.591091) scale(0.00283168) rotate(86.8434)"/>
<use xlink:href="#stroke0_6_49" transform="translate(56.2607 0.960349) scale(0.00377297) rotate(-30.7842)"/>
<use xlink:href="#stroke0_6_49" transform="translate(57.0796 0.863922) scale(0.0028809) rotate(49.1211)"/>
<use xlink:href="#stroke0_6_49" transform="translate(56.5914 2.08419) scale(0.00283002) rotate(-94.0504)"/>
<use xlink:href="#stroke0_6_49" transform="translate(57.7832 1.6732) scale(0.0040043) rotate(113.28)"/>
<use xlink:href="#stroke0_6_49" transform="translate(57.5084 2.66635) scale(0.00332339) rotate(173.388)"/>
<use xlink:href="#stroke0_6_49" transform="translate(56.4077 1.91113) scale(0.00401971) rotate(-4.31594)"/>
<use xlink:href="#stroke0_6_49" transform="translate(57.7101 2.63842) scale(0.00351423) rotate(120.453)"/>
<use xlink:href="#stroke0_6_49" transform="translate(56.4897 3.53246) scale(0.00344274) rotate(-92.5195)"/>
<use xlink:href="#stroke0_6_49" transform="translate(56.9183 2.56379) scale(0.00365445) rotate(35.1713)"/>
<use xlink:href="#stroke0_6_49" transform="translate(57.6035 3.08933) scale(0.00383111) rotate(91.3492)"/>
<use xlink:href="#stroke0_6_49" transform="translate(57.6154 4.27453) scale(0.00355649) rotate(164.182)"/>
<use xlink:href="#stroke0_6_49" transform="translate(57.7111 4.59345) scale(0.00402831) rotate(162.334)"/>
<use xlink:href="#stroke0_6_49" transform="translate(57.4507 4.9878) scale(0.00340697) rotate(-178.6)"/>
<use xlink:href="#stroke0_6_49" transform="translate(57.2867 5.20964) scale(0.00288201) rotate(-167.497)"/>
<use xlink:href="#stroke0_6_49" transform="translate(56.6769 5.34621) scale(0.00266916) rotate(-102.568)"/>
<use xlink:href="#stroke0_6_49" transform="translate(56.8469 5.76155) scale(0.00318156) rotate(-125.071)"/>
<use xlink:href="#stroke0_6_49" transform="translate(57.0069 4.80908) scale(0.00260689) rotate(42.1366)"/>
<use xlink:href="#stroke0_6_49" transform="translate(57.1345 6.13763) scale(0.0029004) rotate(-151.617)"/>
<use xlink:href="#stroke0_6_49" transform="translate(56.4147 5.69702) scale(0.00286965) rotate(-40.9115)"/>
<use xlink:href="#stroke0_6_49" transform="translate(56.9804 5.2622) scale(0.00371757) rotate(39.9364)"/>
<use xlink:href="#stroke0_6_49" transform="translate(57.1859 5.70825) scale(0.00292152) rotate(59.4117)"/>
<use xlink:href="#stroke0_6_49" transform="translate(57.592 6.84468) scale(0.0032885) rotate(160.389)"/>
<use xlink:href="#stroke0_6_49" transform="translate(57.4273 6.27544) scale(0.00314619) rotate(82.6946)"/>
<use xlink:href="#stroke0_6_49" transform="translate(57.0063 6.21679) scale(0.00396625) rotate(41.848)"/>
<use xlink:href="#stroke0_6_49" transform="translate(56.3022 7.02963) scale(0.00368107) rotate(-25.6912)"/>
<use xlink:href="#stroke0_6_49" transform="translate(56.5116 7.18591) scale(0.00305261) rotate(-9.615)"/>
<use xlink:href="#stroke0_6_49" transform="translate(56.2957 8.25035) scale(0.0039422) rotate(-78.3518)"/>
<use xlink:href="#stroke0_6_49" transform="translate(57.3282 8.71197) scale(0.003277) rotate(-167.719)"/>
<use xlink:href="#stroke0_6_49" transform="translate(57.118 9.12521) scale(0.00363599) rotate(-147.67)"/>
<use xlink:href="#stroke0_6_49" transform="translate(57.6471 8.88885) scale(0.00334758) rotate(151.474)"/>
<use xlink:href="#stroke0_6_49" transform="translate(56.9419 8.26935) scale(0.00306126) rotate(36.1171)"/>
<use xlink:href="#stroke0_6_49" transform="translate(56.555 8.62655) scale(0.00329802) rotate(0.436309)"/>
<use xlink:href="#stroke0_6_49" transform="translate(57.3646 8.78239) scale(0.00347257) rotate(72.0753)"/>
<use xlink:href="#stroke0_6_49" transform="translate(57.3529 9.08007) scale(0.00327475) rotate(72.983)"/>
<use xlink:href="#stroke0_6_49" transform="translate(56.4653 9.57984) scale(0.00301299) rotate(-18.1694)"/>
<use xlink:href="#stroke0_6_49" transform="translate(56.415 10.3076) scale(0.00298182) rotate(-66.1654)"/>
<use xlink:href="#stroke0_6_49" transform="translate(57.5022 10.5428) scale(0.00263789) rotate(153.736)"/>
<use xlink:href="#stroke0_6_49" transform="translate(56.3008 10.533) scale(0.00340158) rotate(-45.8417)"/>
<use xlink:href="#stroke0_6_49" transform="translate(57.5889 11.096) scale(0.00316649) rotate(156.749)"/>
<use xlink:href="#stroke0_6_49" transform="translate(56.2853 11.3315) scale(0.00368453) rotate(-68.1199)"/>
<use xlink:href="#stroke0_6_49" transform="translate(56.3323 11.7558) scale(0.00376646) rotate(-79.125)"/>
<use xlink:href="#stroke0_6_49" transform="translate(56.8723 12.2778) scale(0.00321661) rotate(-127.472)"/>
<use xlink:href="#stroke0_6_49" transform="translate(57.6941 11.651) scale(0.00356139) rotate(112.661)"/>
<use xlink:href="#stroke0_6_49" transform="translate(57.4727 11.7146) scale(0.00309013) rotate(89.4197)"/>
<use xlink:href="#stroke0_6_49" transform="translate(56.902 13.2392) scale(0.0040472) rotate(-131.839)"/>
<use xlink:href="#stroke0_6_49" transform="translate(56.4781 12.5225) scale(0.00263083) rotate(-33.1618)"/>
<use xlink:href="#stroke0_6_49" transform="translate(56.4662 12.9166) scale(0.00260535) rotate(-53.999)"/>
<use xlink:href="#stroke0_6_49" transform="translate(56.5937 13.7413) scale(0.00366501) rotate(-106.002)"/>
<use xlink:href="#stroke0_6_49" transform="translate(57.2167 13.9313) scale(0.00297417) rotate(-159.329)"/>
<use xlink:href="#stroke0_6_49" transform="translate(56.9042 14.4297) scale(0.00394915) rotate(-131.825)"/>
<use xlink:href="#stroke0_6_49" transform="translate(57.3992 13.4562) scale(0.00283297) rotate(84.611)"/>
<use xlink:href="#stroke0_6_49" transform="translate(57.625 14.2099) scale(0.0030785) rotate(140.808)"/>
<use xlink:href="#stroke0_6_49" transform="translate(56.8585 13.6879) scale(0.00328476) rotate(29.3227)"/>
<use xlink:href="#stroke0_6_49" transform="translate(57.6775 14.8441) scale(0.00348785) rotate(150.688)"/>
<use xlink:href="#stroke0_6_49" transform="translate(56.9928 14.2229) scale(0.00308406) rotate(40.757)"/>
<use xlink:href="#stroke0_6_49" transform="translate(57.3778 15.5867) scale(0.00303044) rotate(-175.883)"/>
<use xlink:href="#stroke0_6_49" transform="translate(56.8914 15.9124) scale(0.00293635) rotate(-128.242)"/>
<use xlink:href="#stroke0_6_49" transform="translate(57.3133 15.0035) scale(0.00304372) rotate(71.4188)"/>
<use xlink:href="#stroke0_6_49" transform="translate(57.3194 16.3856) scale(0.00329488) rotate(-166.697)"/>
<use xlink:href="#stroke0_6_49" transform="translate(56.4155 15.832) scale(0.00299439) rotate(-30.1358)"/>
<use xlink:href="#stroke0_6_49" transform="translate(57.3967 16.8523) scale(0.00341769) rotate(-172.932)"/>
<use xlink:href="#stroke0_6_49" transform="translate(56.8608 15.8511) scale(0.00336818) rotate(29.8192)"/>
<use xlink:href="#stroke0_6_49" transform="translate(56.8883 17.5965) scale(0.00387775) rotate(-130.549)"/>
<use xlink:href="#stroke0_6_49" transform="translate(56.3235 17.0627) scale(0.00328796) rotate(-47.1844)"/>
<use xlink:href="#stroke0_6_49" transform="translate(56.4001 17.4409) scale(0.00297519) rotate(-60.1646)"/>
<use xlink:href="#stroke0_6_49" transform="translate(56.6275 17.1279) scale(0.00267562) rotate(-1.16193)"/>
<use xlink:href="#stroke0_6_49" transform="translate(57.4909 18.2513) scale(0.00336242) rotate(176.223)"/>
<use xlink:href="#stroke0_6_49" transform="translate(57.8156 17.9418) scale(0.00399388) rotate(124.271)"/>
<use xlink:href="#stroke0_6_49" transform="translate(57.233 18.8145) scale(0.00274165) rotate(-162.989)"/>
<use xlink:href="#stroke0_6_49" transform="translate(57.0814 19.3449) scale(0.00387025) rotate(-144.46)"/>
<use xlink:href="#stroke0_6_49" transform="translate(56.7919 18.072) scale(0.00390883) rotate(26.4116)"/>
<use xlink:href="#stroke0_6_49" transform="translate(56.4157 19.6571) scale(0.00378424) rotate(-89.9782)"/>
<use xlink:href="#stroke0_6_49" transform="translate(57.4075 20.0943) scale(0.003784) rotate(-170.144)"/>
<use xlink:href="#stroke0_6_49" transform="translate(56.9008 18.9977) scale(0.0034831) rotate(33.4515)"/>
<use xlink:href="#stroke0_6_49" transform="translate(57.327 19.4719) scale(0.00280358) rotate(75.9274)"/>
<use xlink:href="#stroke0_6_49" transform="translate(57.1033 19.4126) scale(0.0038656) rotate(48.8661)"/>
<use xlink:href="#stroke0_6_49" transform="translate(56.4576 20.4926) scale(0.00264363) rotate(-53.1396)"/>
<use xlink:href="#stroke0_6_49" transform="translate(56.8603 21.3377) scale(0.00328842) rotate(-126.68)"/>
<use xlink:href="#stroke0_6_49" transform="translate(56.3788 21.4967) scale(0.00400917) rotate(-89.751)"/>
<use xlink:href="#stroke0_6_49" transform="translate(56.5546 20.6632) scale(0.0035473) rotate(3.81177)"/>
<use xlink:href="#stroke0_6_49" transform="translate(56.3969 21.8225) scale(0.00331579) rotate(-76.4876)"/>
<use xlink:href="#stroke0_6_49" transform="translate(57.5336 22.0671) scale(0.00302839) rotate(162.519)"/>
<use xlink:href="#stroke0_6_49" transform="translate(57.6154 21.7421) scale(0.00321055) rotate(110.044)"/>
<use xlink:href="#stroke0_6_49" transform="translate(57.5646 22.3243) scale(0.00279733) rotate(142.679)"/>
<use xlink:href="#stroke0_6_49" transform="translate(56.7598 21.8484) scale(0.00308417) rotate(19.171)"/>
<use xlink:href="#stroke0_6_49" transform="translate(56.4123 22.892) scale(0.00305295) rotate(-69.3106)"/>
<use xlink:href="#stroke0_6_49" transform="translate(57.4944 23.4829) scale(0.00362456) rotate(179.893)"/>
<use xlink:href="#stroke0_6_49" transform="translate(57.5801 23.7602) scale(0.00388332) rotate(174.866)"/>
<use xlink:href="#stroke0_6_49" transform="translate(56.537 23.9241) scale(0.00312547) rotate(-92.5608)"/>
<use xlink:href="#stroke0_6_49" transform="translate(56.6673 24.5142) scale(0.00404608) rotate(-115.046)"/>
<use xlink:href="#stroke0_6_49" transform="translate(56.8516 24.6315) scale(0.00305103) rotate(-124.928)"/>
<use xlink:href="#stroke0_6_49" transform="translate(56.6502 23.7878) scale(0.00279363) rotate(3.92798)"/>
<use xlink:href="#stroke0_6_49" transform="translate(57.2647 23.9446) scale(0.00280439) rotate(68.7051)"/>
<use xlink:href="#stroke0_6_49" transform="translate(56.6355 24.1664) scale(0.00306453) rotate(6.10049)"/>
<use xlink:href="#stroke0_6_49" transform="translate(56.5068 24.5931) scale(0.00283844) rotate(-16.1959)"/>
<use xlink:href="#stroke0_6_49" transform="translate(57.3737 24.6453) scale(0.00296275) rotate(79.1977)"/>
<use xlink:href="#stroke0_6_49" transform="translate(56.9944 25.9685) scale(0.00298653) rotate(-138.075)"/>
<use xlink:href="#stroke0_6_49" transform="translate(57.1724 26.2387) scale(0.0032535) rotate(-153.514)"/>
<use xlink:href="#stroke0_6_49" transform="translate(56.5436 26.3862) scale(0.00343402) rotate(-98.3657)"/>
<use xlink:href="#stroke0_6_49" transform="translate(57.4439 25.7372) scale(0.00272957) rotate(93.6073)"/>
<use xlink:href="#stroke0_6_49" transform="translate(56.304 26.6694) scale(0.00376468) rotate(-74.6583)"/>
<use xlink:href="#stroke0_6_49" transform="translate(56.5799 25.9659) scale(0.00375995) rotate(8.52392)"/>
<use xlink:href="#stroke0_6_49" transform="translate(57.3037 27.5093) scale(0.00336347) rotate(-164.621)"/>
<use xlink:href="#stroke0_6_49" transform="translate(56.4294 27.2677) scale(0.00285867) rotate(-62.694)"/>
<use xlink:href="#stroke0_6_49" transform="translate(57.2011 26.8254) scale(0.00266054) rotate(62.947)"/>
<use xlink:href="#stroke0_6_49" transform="translate(56.8509 26.9782) scale(0.00284591) rotate(26.6588)"/>
<use xlink:href="#stroke0_6_49" transform="translate(57.5139 27.3892) scale(0.00311269) rotate(94.7465)"/>
<use xlink:href="#stroke0_6_49" transform="translate(57.5247 27.5496) scale(0.00342723) rotate(89.4721)"/>
<use xlink:href="#stroke0_6_49" transform="translate(56.496 28.5719) scale(0.002877) rotate(-80.2518)"/>
<use xlink:href="#stroke0_6_49" transform="translate(57.7222 28.652) scale(0.0035791) rotate(142.737)"/>
<use xlink:href="#stroke0_6_49" transform="translate(56.5374 29.0868) scale(0.00278142) rotate(-84.6789)"/>
<use xlink:href="#stroke0_6_49" transform="translate(57.0646 28.2319) scale(0.00373607) rotate(46.2252)"/>
<use xlink:href="#stroke0_6_49" transform="translate(56.2575 29.3535) scale(0.00361903) rotate(-54.2819)"/>
<use xlink:href="#stroke0_6_49" transform="translate(56.6629 29.964) scale(0.00269184) rotate(-101.731)"/>
<use xlink:href="#stroke0_6_49" transform="translate(56.9776 30.5169) scale(0.00366343) rotate(-137.669)"/>
<use xlink:href="#stroke0_6_49" transform="translate(57.7557 29.8541) scale(0.00388474) rotate(117.206)"/>
<use xlink:href="#stroke0_6_49" transform="translate(57.4565 30.8948) scale(0.0036093) rotate(-179.642)"/>
<use xlink:href="#stroke0_6_49" transform="translate(57.3373 30.1876) scale(0.00262942) rotate(86.1195)"/>
<use xlink:href="#stroke0_6_49" transform="translate(57.2345 30.2216) scale(0.00310711) rotate(68.4647)"/>
<use xlink:href="#stroke0_6_49" transform="translate(57.4165 31.347) scale(0.00285938) rotate(165.352)"/>
<use xlink:href="#stroke0_6_49" transform="translate(57.5732 30.9026) scale(0.00367828) rotate(102.641)"/>
<use xlink:href="#stroke0_6_49" transform="translate(56.7155 32.0347) scale(0.00269294) rotate(-120.332)"/>
<use xlink:href="#stroke0_6_49" transform="translate(56.3452 31.5192) scale(0.00271973) rotate(-28.3122)"/>
<use xlink:href="#stroke0_6_49" transform="translate(56.8455 32.5441) scale(0.00298736) rotate(-138.304)"/>
<use xlink:href="#stroke0_6_49" transform="translate(57.4927 31.759) scale(0.00388232) rotate(98.7211)"/>
<use xlink:href="#stroke0_6_49" transform="translate(56.1919 32.3462) scale(0.00294716) rotate(-38.8082)"/>
<use xlink:href="#stroke0_6_49" transform="translate(57.036 33.2299) scale(0.00301073) rotate(-164.939)"/>
<use xlink:href="#stroke0_6_49" transform="translate(55.9158 33.0006) scale(0.00394603) rotate(-53.0876)"/>
<use xlink:href="#stroke0_6_49" transform="translate(56.1729 33.339) scale(0.00262111) rotate(-65.3042)"/>
<use xlink:href="#stroke0_6_49" transform="translate(56.9814 34.0025) scale(0.00329869) rotate(-167.315)"/>
<use xlink:href="#stroke0_6_49" transform="translate(57.2874 33.5759) scale(0.00329184) rotate(124.641)"/>
<use xlink:href="#stroke0_6_49" transform="translate(56.0838 34.5197) scale(0.00374711) rotate(-99.5969)"/>
<use xlink:href="#stroke0_6_49" transform="translate(56.1192 33.5604) scale(0.00365411) rotate(9.33644)"/>
<use xlink:href="#stroke0_6_49" transform="translate(56.6803 34.9321) scale(0.00262802) rotate(-161.09)"/>
<use xlink:href="#stroke0_6_49" transform="translate(56.9924 34.3545) scale(0.00307161) rotate(104.076)"/>
<use xlink:href="#stroke0_6_49" transform="translate(56.9402 34.7624) scale(0.0027392) rotate(121.219)"/>
<use xlink:href="#stroke0_6_49" transform="translate(56.9011 34.8202) scale(0.00300218) rotate(106.908)"/>
<use xlink:href="#stroke0_6_49" transform="translate(55.9649 34.5903) scale(0.00392585) rotate(18.4058)"/>
<use xlink:href="#stroke0_6_49" transform="translate(55.6543 35.8509) scale(0.00302245) rotate(-73.2284)"/>
<use xlink:href="#stroke0_6_49" transform="translate(56.6734 36.0363) scale(0.00270545) rotate(156.153)"/>
<use xlink:href="#stroke0_6_49" transform="translate(56.8865 36.2099) scale(0.00387523) rotate(143.276)"/>
<use xlink:href="#stroke0_6_49" transform="translate(55.4734 36.4217) scale(0.00282605) rotate(-61.3458)"/>
<use xlink:href="#stroke0_6_49" transform="translate(56.5183 36.1613) scale(0.00311893) rotate(98.2658)"/>
<use xlink:href="#stroke0_6_49" transform="translate(56.4429 36.2938) scale(0.00340096) rotate(90.5821)"/>
<use xlink:href="#stroke0_6_49" transform="translate(56.3915 37.2252) scale(0.00290304) rotate(155.447)"/>
<use xlink:href="#stroke0_6_49" transform="translate(56.2043 37.5164) scale(0.00260296) rotate(169.987)"/>
<use xlink:href="#stroke0_6_49" transform="translate(56.0371 37.8168) scale(0.00263022) rotate(-173.612)"/>
<use xlink:href="#stroke0_6_49" transform="translate(55.1964 37.8758) scale(0.00272223) rotate(-81.8847)"/>
<use xlink:href="#stroke0_6_49" transform="translate(55.1927 37.3721) scale(0.00275696) rotate(-4.47051)"/>
<use xlink:href="#stroke0_6_49" transform="translate(55.0085 38.062) scale(0.00260621) rotate(-59.4324)"/>
<use xlink:href="#stroke0_6_49" transform="translate(55.0246 38.481) scale(0.00268806) rotate(-84.9932)"/>
<use xlink:href="#stroke0_6_49" transform="translate(54.677 38.6623) scale(0.00371768) rotate(-70.024)"/>
<use xlink:href="#stroke0_6_49" transform="translate(54.7308 38.3783) scale(0.00302216) rotate(-25.3308)"/>
<use xlink:href="#stroke0_6_49" transform="translate(54.4427 38.7049) scale(0.0038186) rotate(-36.5554)"/>
<use xlink:href="#stroke0_6_49" transform="translate(54.6903 39.6041) scale(0.00314497) rotate(-97.4141)"/>
<use xlink:href="#stroke0_6_49" transform="translate(55.4862 38.7223) scale(0.0038643) rotate(77.4109)"/>
<use xlink:href="#stroke0_6_49" transform="translate(55.0332 40.4549) scale(0.00399291) rotate(-147.477)"/>
<use xlink:href="#stroke0_6_49" transform="translate(54.3978 40.2475) scale(0.00268619) rotate(-90.5997)"/>
<use xlink:href="#stroke0_6_49" transform="translate(55.3011 40.4825) scale(0.00341399) rotate(165.197)"/>
<use xlink:href="#stroke0_6_49" transform="translate(55.2191 40.0789) scale(0.00315487) rotate(109.482)"/>
<use xlink:href="#stroke0_6_49" transform="translate(53.9689 40.1445) scale(0.00329775) rotate(-12.3434)"/>
<use xlink:href="#stroke0_6_49" transform="translate(55.0203 40.3962) scale(0.00351604) rotate(99.2078)"/>
<use xlink:href="#stroke0_6_49" transform="translate(54.9601 41.4586) scale(0.00385658) rotate(163.603)"/>
<use xlink:href="#stroke0_6_49" transform="translate(54.7813 41.0927) scale(0.00308165) rotate(114.803)"/>
<use xlink:href="#stroke0_6_49" transform="translate(54.5416 41.1121) scale(0.00289096) rotate(93.4208)"/>
<use xlink:href="#stroke0_6_49" transform="translate(53.9658 42.5393) scale(0.00401402) rotate(-139.41)"/>
<use xlink:href="#stroke0_6_49" transform="translate(53.7746 41.3416) scale(0.00296747) rotate(36.0078)"/>
<use xlink:href="#stroke0_6_49" transform="translate(53.8545 42.675) scale(0.00266915) rotate(-151.502)"/>
<use xlink:href="#stroke0_6_49" transform="translate(54.0629 41.7654) scale(0.00355874) rotate(78.6599)"/>
<use xlink:href="#stroke0_6_49" transform="translate(52.7856 42.6051) scale(0.0034298) rotate(-50.4676)"/>
<use xlink:href="#stroke0_6_49" transform="translate(53.9229 42.3655) scale(0.00348314) rotate(92.898)"/>
<use xlink:href="#stroke0_6_49" transform="translate(53.8801 43.0221) scale(0.00312726) rotate(130.672)"/>
<use xlink:href="#stroke0_6_49" transform="translate(52.4967 43.1688) scale(0.00303458) rotate(-42.7012)"/>
<use xlink:href="#stroke0_6_49" transform="translate(52.6109 42.8987) scale(0.00321663) rotate(5.85422)"/>
<use xlink:href="#stroke0_6_49" transform="translate(53.3805 43.8183) scale(0.00260135) rotate(152.368)"/>
<use xlink:href="#stroke0_6_49" transform="translate(52.7606 44.4944) scale(0.00328526) rotate(-138.486)"/>
<use xlink:href="#stroke0_6_49" transform="translate(53.0788 43.563) scale(0.00312448) rotate(85.48)"/>
<use xlink:href="#stroke0_6_49" transform="translate(51.8257 44.309) scale(0.00329441) rotate(-55.2229)"/>
<use xlink:href="#stroke0_6_49" transform="translate(52.115 44.9295) scale(0.00275855) rotate(-111.6)"/>
<use xlink:href="#stroke0_6_49" transform="translate(52.3253 45.1542) scale(0.0027258) rotate(-145.602)"/>
<use xlink:href="#stroke0_6_49" transform="translate(52.3549 44.2281) scale(0.00285257) rotate(63.125)"/>
<use xlink:href="#stroke0_6_49" transform="translate(51.486 44.8601) scale(0.00262377) rotate(-39.5012)"/>
<use xlink:href="#stroke0_6_49" transform="translate(51.3587 45.3454) scale(0.0028532) rotate(-71.53)"/>
<use xlink:href="#stroke0_6_49" transform="translate(52.3117 45.3636) scale(0.00261688) rotate(139.633)"/>
<use xlink:href="#stroke0_6_49" transform="translate(51.0828 45.6284) scale(0.00290389) rotate(-65.23)"/>
<use xlink:href="#stroke0_6_49" transform="translate(52.1278 45.1639) scale(0.00389957) rotate(92.6548)"/>
<use xlink:href="#stroke0_6_49" transform="translate(50.5519 45.8519) scale(0.00377124) rotate(-45.0323)"/>
<use xlink:href="#stroke0_6_49" transform="translate(51.1443 45.5555) scale(0.00262001) rotate(37.7707)"/>
<use xlink:href="#stroke0_6_49" transform="translate(51.3259 46.7181) scale(0.00261994) rotate(-168.657)"/>
<use xlink:href="#stroke0_6_49" transform="translate(50.8262 47.069) scale(0.00316387) rotate(-130.396)"/>
<use xlink:href="#stroke0_6_49" transform="translate(51.2897 47.061) scale(0.00334155) rotate(171.531)"/>
<use xlink:href="#stroke0_6_49" transform="translate(49.8311 46.9114) scale(0.00372643) rotate(-54.9688)"/>
<use xlink:href="#stroke0_6_49" transform="translate(51.0911 47.3593) scale(0.00363702) rotate(156.513)"/>
<use xlink:href="#stroke0_6_49" transform="translate(49.8275 46.7963) scale(0.00295452) rotate(-2.67663)"/>
<use xlink:href="#stroke0_6_49" transform="translate(50.0617 46.7465) scale(0.00323527) rotate(38.4476)"/>
<use xlink:href="#stroke0_6_49" transform="translate(50.4463 47.3666) scale(0.00263132) rotate(108.287)"/>
<use xlink:href="#stroke0_6_49" transform="translate(50.2661 47.2543) scale(0.0033073) rotate(84.9269)"/>
<use xlink:href="#stroke0_6_49" transform="translate(49.1512 47.5263) scale(0.00305028) rotate(-8.92049)"/>
<use xlink:href="#stroke0_6_49" transform="translate(50.0315 48.2907) scale(0.00284004) rotate(151.289)"/>
<use xlink:href="#stroke0_6_49" transform="translate(49.0027 48.7919) scale(0.00304871) rotate(-107.359)"/>
<use xlink:href="#stroke0_6_49" transform="translate(48.7874 49.0675) scale(0.00354494) rotate(-108.385)"/>
<use xlink:href="#stroke0_6_49" transform="translate(48.5762 48.1999) scale(0.00281772) rotate(-3.46629)"/>
<use xlink:href="#stroke0_6_49" transform="translate(49.3987 49.3398) scale(0.00392228) rotate(174.008)"/>
<use xlink:href="#stroke0_6_49" transform="translate(49.2484 49.2588) scale(0.00338147) rotate(154.19)"/>
<use xlink:href="#stroke0_6_49" transform="translate(47.8064 49.4161) scale(0.00324669) rotate(-70.6314)"/>
<use xlink:href="#stroke0_6_49" transform="translate(47.9717 48.7212) scale(0.0032761) rotate(17.4006)"/>
<use xlink:href="#stroke0_6_49" transform="translate(48.6338 49.2858) scale(0.00290947) rotate(110.599)"/>
<use xlink:href="#stroke0_6_49" transform="translate(48.3714 50.0173) scale(0.00286316) rotate(170.245)"/>
<use xlink:href="#stroke0_6_49" transform="translate(46.8999 49.6878) scale(0.00402977) rotate(-39.1183)"/>
<use xlink:href="#stroke0_6_49" transform="translate(46.9631 49.5527) scale(0.00345753) rotate(-8.17371)"/>
<use xlink:href="#stroke0_6_49" transform="translate(47.1383 49.6165) scale(0.00284658) rotate(22.9414)"/>
<use xlink:href="#stroke0_6_49" transform="translate(46.4048 50.1572) scale(0.00365401) rotate(-35.0318)"/>
<use xlink:href="#stroke0_6_49" transform="translate(47.5508 50.4323) scale(0.00297072) rotate(125.389)"/>
<use xlink:href="#stroke0_6_49" transform="translate(46.6675 50.056) scale(0.00287522) rotate(31.3107)"/>
<use xlink:href="#stroke0_6_49" transform="translate(46.7387 50.1028) scale(0.00342226) rotate(53.9911)"/>
<use xlink:href="#stroke0_6_49" transform="translate(46.2323 51.4458) scale(0.00262404) rotate(-119.891)"/>
<use xlink:href="#stroke0_6_49" transform="translate(46.4864 50.397) scale(0.00356268) rotate(62.6924)"/>
<use xlink:href="#stroke0_6_49" transform="translate(46.5492 51.5344) scale(0.00294431) rotate(161.339)"/>
<use xlink:href="#stroke0_6_49" transform="translate(45.0518 51.6586) scale(0.00393186) rotate(-67.943)"/>
<use xlink:href="#stroke0_6_49" transform="translate(45.3035 52.358) scale(0.00403647) rotate(-119.764)"/>
<use xlink:href="#stroke0_6_49" transform="translate(45.1475 52.223) scale(0.00265544) rotate(-115.075)"/>
<use xlink:href="#stroke0_6_49" transform="translate(45.9684 51.8768) scale(0.00392012) rotate(132.056)"/>
<use xlink:href="#stroke0_6_49" transform="translate(44.1569 51.7835) scale(0.00389824) rotate(-30.0558)"/>
<use xlink:href="#stroke0_6_49" transform="translate(45.3954 52.1826) scale(0.00344532) rotate(130.256)"/>
<use xlink:href="#stroke0_6_49" transform="translate(45.0961 52.771) scale(0.0037096) rotate(164.994)"/>
<use xlink:href="#stroke0_6_49" transform="translate(44.337 53.0597) scale(0.00282166) rotate(-146.999)"/>
<use xlink:href="#stroke0_6_49" transform="translate(43.5415 52.5233) scale(0.00263015) rotate(-40.6793)"/>
<use xlink:href="#stroke0_6_49" transform="translate(44.6889 52.7935) scale(0.00402188) rotate(135.552)"/>
<use xlink:href="#stroke0_6_49" transform="translate(44.2595 52.8589) scale(0.00303693) rotate(129.866)"/>
<use xlink:href="#stroke0_6_49" transform="translate(43.7366 52.5207) scale(0.00266999) rotate(72.9796)"/>
<use xlink:href="#stroke0_6_49" transform="translate(42.6891 53.491) scale(0.00331893) rotate(-82.9211)"/>
<use xlink:href="#stroke0_6_49" transform="translate(42.3304 53.3588) scale(0.00345394) rotate(-58.5148)"/>
<use xlink:href="#stroke0_6_49" transform="translate(43.2748 53.0013) scale(0.00278147) rotate(93.2724)"/>
<use xlink:href="#stroke0_6_49" transform="translate(42.1191 54.0425) scale(0.00364843) rotate(-97.6871)"/>
<use xlink:href="#stroke0_6_49" transform="translate(42.9695 53.864) scale(0.003118) rotate(155.725)"/>
<use xlink:href="#stroke0_6_49" transform="translate(41.514 53.9396) scale(0.00335604) rotate(-67.4155)"/>
<use xlink:href="#stroke0_6_49" transform="translate(42.1529 54.5651) scale(0.00367629) rotate(-155.66)"/>
<use xlink:href="#stroke0_6_49" transform="translate(41.3015 53.2712) scale(0.00386535) rotate(13.3689)"/>
<use xlink:href="#stroke0_6_49" transform="translate(41.9385 53.8094) scale(0.00272466) rotate(101.812)"/>
<use xlink:href="#stroke0_6_49" transform="translate(41.4065 53.5616) scale(0.0031209) rotate(55.4295)"/>
<use xlink:href="#stroke0_6_49" transform="translate(41.4721 54.952) scale(0.00387998) rotate(-173.92)"/>
<use xlink:href="#stroke0_6_49" transform="translate(41.361 53.9944) scale(0.0036146) rotate(96.3434)"/>
<use xlink:href="#stroke0_6_49" transform="translate(39.7707 54.5373) scale(0.00356081) rotate(-48.7443)"/>
<use xlink:href="#stroke0_6_49" transform="translate(39.4445 54.545) scale(0.00391442) rotate(-41.014)"/>
<use xlink:href="#stroke0_6_49" transform="translate(39.3311 54.2835) scale(0.00389859) rotate(-11.2987)"/>
<use xlink:href="#stroke0_6_49" transform="translate(40.1832 54.4552) scale(0.00300025) rotate(89.0035)"/>
<use xlink:href="#stroke0_6_49" transform="translate(39.4261 54.2994) scale(0.00324223) rotate(34.4096)"/>
<use xlink:href="#stroke0_6_49" transform="translate(38.9464 55.6438) scale(0.00328397) rotate(-109.355)"/>
<use xlink:href="#stroke0_6_49" transform="translate(39.5763 54.5932) scale(0.00381796) rotate(86.0534)"/>
<use xlink:href="#stroke0_6_49" transform="translate(39.2742 54.8001) scale(0.00327324) rotate(89.7424)"/>
<use xlink:href="#stroke0_6_49" transform="translate(38.0394 55.7561) scale(0.00318476) rotate(-88.8193)"/>
<use xlink:href="#stroke0_6_49" transform="translate(37.4953 55.3346) scale(0.00387103) rotate(-42.2185)"/>
<use xlink:href="#stroke0_6_49" transform="translate(38.3293 54.8214) scale(0.00371286) rotate(65.7755)"/>
<use xlink:href="#stroke0_6_49" transform="translate(37.3839 56.2359) scale(0.00354719) rotate(-108.365)"/>
<use xlink:href="#stroke0_6_49" transform="translate(37.5166 56.2374) scale(0.00271438) rotate(-137.83)"/>
<use xlink:href="#stroke0_6_49" transform="translate(37.4214 56.4996) scale(0.0036869) rotate(-148.488)"/>
<use xlink:href="#stroke0_6_49" transform="translate(37.6359 56.1581) scale(0.00332324) rotate(160.093)"/>
<use xlink:href="#stroke0_6_49" transform="translate(36.1097 55.6632) scale(0.00349139) rotate(-29.1092)"/>
<use xlink:href="#stroke0_6_49" transform="translate(37.2043 56.4146) scale(0.00396409) rotate(163.563)"/>
<use xlink:href="#stroke0_6_49" transform="translate(36.1498 55.4179) scale(0.00311907) rotate(32.1639)"/>
<use xlink:href="#stroke0_6_49" transform="translate(36.5628 55.9418) scale(0.00266998) rotate(113.818)"/>
<use xlink:href="#stroke0_6_49" transform="translate(35.142 56.5068) scale(0.00362804) rotate(-75.6783)"/>
<use xlink:href="#stroke0_6_49" transform="translate(35.9413 56.6793) scale(0.00285779) rotate(-178.112)"/>
<use xlink:href="#stroke0_6_49" transform="translate(34.8011 56.4669) scale(0.00285002) rotate(-67.6285)"/>
<use xlink:href="#stroke0_6_49" transform="translate(34.6849 56.6365) scale(0.00271969) rotate(-82.6773)"/>
<use xlink:href="#stroke0_6_49" transform="translate(34.3921 56.9982) scale(0.00390385) rotate(-99.2421)"/>
<use xlink:href="#stroke0_6_49" transform="translate(34.8277 55.8955) scale(0.0027269) rotate(59.4921)"/>
<use xlink:href="#stroke0_6_49" transform="translate(34.2312 55.7924) scale(0.00344666) rotate(25.6821)"/>
<use xlink:href="#stroke0_6_49" transform="translate(33.8479 55.8992) scale(0.00341039) rotate(14.3386)"/>
<use xlink:href="#stroke0_6_49" transform="translate(33.9079 57.3081) scale(0.00357789) rotate(-138.8)"/>
<use xlink:href="#stroke0_6_49" transform="translate(33.6102 55.8579) scale(0.00369845) rotate(39.7863)"/>
<use xlink:href="#stroke0_6_49" transform="translate(33.0413 56.045) scale(0.00338383) rotate(13.7509)"/>
<use xlink:href="#stroke0_6_49" transform="translate(32.8524 56.1146) scale(0.00312281) rotate(16.8443)"/>
<use xlink:href="#stroke0_6_49" transform="translate(32.3375 56.5622) scale(0.00283263) rotate(-31.7416)"/>
<use xlink:href="#stroke0_6_49" transform="translate(32.9623 56.2916) scale(0.00263014) rotate(71.6799)"/>
<use xlink:href="#stroke0_6_49" transform="translate(33.1105 56.733) scale(0.00311178) rotate(126.587)"/>
<use xlink:href="#stroke0_6_49" transform="translate(32.7254 57.1823) scale(0.0029498) rotate(168.722)"/>
<use xlink:href="#stroke0_6_49" transform="translate(32.2842 56.0754) scale(0.00401844) rotate(63.1477)"/>
<use xlink:href="#stroke0_6_49" transform="translate(31.8336 56.3443) scale(0.0026011) rotate(52.8901)"/>
<use xlink:href="#stroke0_6_49" transform="translate(32.1813 56.6853) scale(0.00347456) rotate(114.751)"/>
<use xlink:href="#stroke0_6_49" transform="translate(31.9824 57.046) scale(0.00374919) rotate(141.325)"/>
<use xlink:href="#stroke0_6_49" transform="translate(31.6714 57.1519) scale(0.00371609) rotate(147.966)"/>
<use xlink:href="#stroke0_6_49" transform="translate(30.4979 56.164) scale(0.00389903) rotate(30.622)"/>
<use xlink:href="#stroke0_6_49" transform="translate(29.655 57.2287) scale(0.00365311) rotate(-68.9177)"/>
<use xlink:href="#stroke0_6_49" transform="translate(30.0563 57.6824) scale(0.00342162) rotate(-135.714)"/>
<use xlink:href="#stroke0_6_49" transform="translate(29.4996 57.4607) scale(0.00286909) rotate(-101.893)"/>
<use xlink:href="#stroke0_6_49" transform="translate(29.0549 56.4841) scale(0.00364136) rotate(-5.76325)"/>
<use xlink:href="#stroke0_6_49" transform="translate(29.8121 57.3289) scale(0.00271597) rotate(167.735)"/>
<use xlink:href="#stroke0_6_49" transform="translate(29.4238 56.4547) scale(0.00297643) rotate(68.584)"/>
<use xlink:href="#stroke0_6_49" transform="translate(29.565 57.1175) scale(0.00325668) rotate(141.515)"/>
<use xlink:href="#stroke0_6_49" transform="translate(28.3194 56.3624) scale(0.00347524) rotate(14.0918)"/>
<use xlink:href="#stroke0_6_49" transform="translate(27.8615 57.1012) scale(0.00272063) rotate(-59.6448)"/>
<use xlink:href="#stroke0_6_49" transform="translate(27.7842 56.4859) scale(0.00313227) rotate(2.62409)"/>
<use xlink:href="#stroke0_6_49" transform="translate(27.3469 56.9443) scale(0.00296555) rotate(-45.1587)"/>
<use xlink:href="#stroke0_6_49" transform="translate(27.0187 57.1886) scale(0.00352148) rotate(-66.0871)"/>
<use xlink:href="#stroke0_6_49" transform="translate(27.3785 57.766) scale(0.00394011) rotate(-135.237)"/>
<use xlink:href="#stroke0_6_49" transform="translate(27.6116 57.3804) scale(0.00306928) rotate(175.562)"/>
<use xlink:href="#stroke0_6_49" transform="translate(26.2042 56.9104) scale(0.00343413) rotate(-47.5551)"/>
<use xlink:href="#stroke0_6_49" transform="translate(25.8499 56.6546) scale(0.00397319) rotate(-31.0507)"/>
<use xlink:href="#stroke0_6_49" transform="translate(25.9163 57.239) scale(0.00282439) rotate(-86.9483)"/>
<use xlink:href="#stroke0_6_49" transform="translate(26.7584 56.8783) scale(0.00293651) rotate(133.403)"/>
<use xlink:href="#stroke0_6_49" transform="translate(25.6691 57.5445) scale(0.0036511) rotate(-120.383)"/>
<use xlink:href="#stroke0_6_49" transform="translate(25.8183 56.1207) scale(0.00341786) rotate(56.4478)"/>
<use xlink:href="#stroke0_6_49" transform="translate(26.1353 56.8957) scale(0.00380891) rotate(140.942)"/>
<use xlink:href="#stroke0_6_49" transform="translate(24.7259 56.2362) scale(0.00302754) rotate(4.00815)"/>
<use xlink:href="#stroke0_6_49" transform="translate(24.9762 57.424) scale(0.00358884) rotate(-148)"/>
<use xlink:href="#stroke0_6_49" transform="translate(24.1129 56.0675) scale(0.00364948) rotate(2.68604)"/>
<use xlink:href="#stroke0_6_49" transform="translate(23.7054 56.7749) scale(0.00312407) rotate(-63.2874)"/>
<use xlink:href="#stroke0_6_49" transform="translate(24.8735 56.4295) scale(0.00401212) rotate(121.928)"/>
<use xlink:href="#stroke0_6_49" transform="translate(23.5913 57.1084) scale(0.00303851) rotate(-119.594)"/>
<use xlink:href="#stroke0_6_49" transform="translate(24.1638 56.6386) scale(0.00299725) rotate(146.909)"/>
<use xlink:href="#stroke0_6_49" transform="translate(22.8467 55.8657) scale(0.00357275) rotate(0.86788)"/>
<use xlink:href="#stroke0_6_49" transform="translate(23.7732 55.9958) scale(0.00397878) rotate(104.62)"/>
<use xlink:href="#stroke0_6_49" transform="translate(22.6678 56.9353) scale(0.003103) rotate(-128.623)"/>
<use xlink:href="#stroke0_6_49" transform="translate(22.1229 56.8893) scale(0.0036822) rotate(-106.414)"/>
<use xlink:href="#stroke0_6_49" transform="translate(22.5372 55.554) scale(0.00333663) rotate(64.5966)"/>
<use xlink:href="#stroke0_6_49" transform="translate(21.3566 55.942) scale(0.003344) rotate(-33.334)"/>
<use xlink:href="#stroke0_6_49" transform="translate(22.3027 56.6555) scale(0.00397486) rotate(178.91)"/>
<use xlink:href="#stroke0_6_49" transform="translate(22.1785 55.9301) scale(0.00341049) rotate(127.481)"/>
<use xlink:href="#stroke0_6_49" transform="translate(21.4251 55.2755) scale(0.00321516) rotate(58.0823)"/>
<use xlink:href="#stroke0_6_49" transform="translate(20.4659 55.781) scale(0.00270515) rotate(-41.8807)"/>
<use xlink:href="#stroke0_6_49" transform="translate(20.7906 55.0469) scale(0.00354941) rotate(41.3713)"/>
<use xlink:href="#stroke0_6_49" transform="translate(20.6837 56.3841) scale(0.00340543) rotate(-150.596)"/>
<use xlink:href="#stroke0_6_49" transform="translate(20.1939 56.4038) scale(0.0038598) rotate(-132.809)"/>
<use xlink:href="#stroke0_6_49" transform="translate(20.3056 56.2266) scale(0.00373353) rotate(-162.09)"/>
<use xlink:href="#stroke0_6_49" transform="translate(20.2477 55.8319) scale(0.00306934) rotate(170.038)"/>
<use xlink:href="#stroke0_6_49" transform="translate(19.539 55.9327) scale(0.00276623) rotate(-137.999)"/>
<use xlink:href="#stroke0_6_49" transform="translate(19.9553 55.1709) scale(0.00305984) rotate(120.713)"/>
<use xlink:href="#stroke0_6_49" transform="translate(18.7814 55.7001) scale(0.00290993) rotate(-103.829)"/>
<use xlink:href="#stroke0_6_49" transform="translate(19.4693 55.4293) scale(0.00309528) rotate(159.791)"/>
<use xlink:href="#stroke0_6_49" transform="translate(18.3796 54.2624) scale(0.00396022) rotate(21.4008)"/>
<use xlink:href="#stroke0_6_49" transform="translate(17.7553 54.854) scale(0.00318203) rotate(-42.2421)"/>
<use xlink:href="#stroke0_6_49" transform="translate(17.4447 54.8507) scale(0.0035273) rotate(-50.3253)"/>
<use xlink:href="#stroke0_6_49" transform="translate(18.3987 55.3603) scale(0.00392819) rotate(-175.908)"/>
<use xlink:href="#stroke0_6_49" transform="translate(17.3098 55.0068) scale(0.00261107) rotate(-95.0388)"/>
<use xlink:href="#stroke0_6_49" transform="translate(17.1448 55.034) scale(0.00295446) rotate(-104.474)"/>
<use xlink:href="#stroke0_6_49" transform="translate(17.2719 55.2116) scale(0.00383286) rotate(-140.132)"/>
<use xlink:href="#stroke0_6_49" transform="translate(17.5405 54.6454) scale(0.0030264) rotate(163.745)"/>
<use xlink:href="#stroke0_6_49" transform="translate(16.5993 53.702) scale(0.00271969) rotate(18.5213)"/>
<use xlink:href="#stroke0_6_49" transform="translate(16.1275 54.3617) scale(0.00269969) rotate(-73.5911)"/>
<use xlink:href="#stroke0_6_49" transform="translate(17.0084 53.4893) scale(0.00388282) rotate(90.2787)"/>
<use xlink:href="#stroke0_6_49" transform="translate(16.7181 53.679) scale(0.00283033) rotate(109.268)"/>
<use xlink:href="#stroke0_6_49" transform="translate(15.5842 54.5224) scale(0.00402516) rotate(-112.62)"/>
<use xlink:href="#stroke0_6_49" transform="translate(16.2714 53.7811) scale(0.00274992) rotate(144.154)"/>
<use xlink:href="#stroke0_6_49" transform="translate(15.212 52.7727) scale(0.00394659) rotate(20.9906)"/>
<use xlink:href="#stroke0_6_49" transform="translate(14.9981 52.8468) scale(0.00300284) rotate(15.9408)"/>
<use xlink:href="#stroke0_6_49" transform="translate(15.6356 53.2085) scale(0.00276842) rotate(122.572)"/>
<use xlink:href="#stroke0_6_49" transform="translate(15.3552 53.6594) scale(0.00330713) rotate(176.209)"/>
<use xlink:href="#stroke0_6_49" transform="translate(15.2733 52.9675) scale(0.00298273) rotate(122.943)"/>
<use xlink:href="#stroke0_6_49" transform="translate(14.1747 53.5792) scale(0.00343185) rotate(-115.047)"/>
<use xlink:href="#stroke0_6_49" transform="translate(13.8804 52.0684) scale(0.00385754) rotate(16.0655)"/>
<use xlink:href="#stroke0_6_49" transform="translate(14.0529 52.087) scale(0.00275296) rotate(46.0737)"/>
<use xlink:href="#stroke0_6_49" transform="translate(14.2183 51.8502) scale(0.00383278) rotate(73.8131)"/>
<use xlink:href="#stroke0_6_49" transform="translate(13.1502 52.7875) scale(0.00289544) rotate(-92.2937)"/>
<use xlink:href="#stroke0_6_49" transform="translate(13.9954 51.8285) scale(0.0036131) rotate(97.9731)"/>
<use xlink:href="#stroke0_6_49" transform="translate(13.907 52.1693) scale(0.00373619) rotate(138.042)"/>
<use xlink:href="#stroke0_6_49" transform="translate(13.4714 51.8353) scale(0.00261321) rotate(119.928)"/>
<use xlink:href="#stroke0_6_49" transform="translate(13.3714 51.2999) scale(0.00390474) rotate(93.0454)"/>
<use xlink:href="#stroke0_6_49" transform="translate(12.2108 51.1087) scale(0.00302199) rotate(10.8267)"/>
<use xlink:href="#stroke0_6_49" transform="translate(12.8621 51.7312) scale(0.00269248) rotate(154.34)"/>
<use xlink:href="#stroke0_6_49" transform="translate(11.7764 50.697) scale(0.00374552) rotate(11.9686)"/>
<use xlink:href="#stroke0_6_49" transform="translate(12.1843 51.9389) scale(0.00383596) rotate(-157.747)"/>
<use xlink:href="#stroke0_6_49" transform="translate(12.0352 51.5263) scale(0.00281217) rotate(-170.973)"/>
<use xlink:href="#stroke0_6_49" transform="translate(11.1196 50.1969) scale(0.00386066) rotate(10.6431)"/>
<use xlink:href="#stroke0_6_49" transform="translate(11.6724 51.1555) scale(0.00267254) rotate(-176.792)"/>
<use xlink:href="#stroke0_6_49" transform="translate(11.2278 51.1507) scale(0.00272337) rotate(-144.171)"/>
<use xlink:href="#stroke0_6_49" transform="translate(11.6145 50.6083) scale(0.00306318) rotate(145.791)"/>
<use xlink:href="#stroke0_6_49" transform="translate(10.8499 49.6089) scale(0.00333265) rotate(44.0883)"/>
<use xlink:href="#stroke0_6_49" transform="translate(10.1614 49.5943) scale(0.00342085) rotate(0.442351)"/>
<use xlink:href="#stroke0_6_49" transform="translate(10.9799 50.1784) scale(0.00278987) rotate(152.717)"/>
<use xlink:href="#stroke0_6_49" transform="translate(11.0199 49.8613) scale(0.00369951) rotate(135.645)"/>
<use xlink:href="#stroke0_6_49" transform="translate(9.63085 50.2099) scale(0.00353741) rotate(-102.803)"/>
<use xlink:href="#stroke0_6_49" transform="translate(10.2732 50.012) scale(0.00342796) rotate(-174.243)"/>
<use xlink:href="#stroke0_6_49" transform="translate(9.75871 48.749) scale(0.00260301) rotate(48.2471)"/>
<use xlink:href="#stroke0_6_49" transform="translate(10.1925 48.7834) scale(0.0036322) rotate(105.004)"/>
<use xlink:href="#stroke0_6_49" transform="translate(9.78169 49.3478) scale(0.00289747) rotate(174.308)"/>
<use xlink:href="#stroke0_6_49" transform="translate(8.85074 49.2284) scale(0.00269825) rotate(-100.47)"/>
<use xlink:href="#stroke0_6_49" transform="translate(8.3935 48.7939) scale(0.00321498) rotate(-62.8029)"/>
<use xlink:href="#stroke0_6_49" transform="translate(9.21279 49.0143) scale(0.00319543) rotate(-170.588)"/>
<use xlink:href="#stroke0_6_49" transform="translate(9.39592 48.4774) scale(0.00359757) rotate(147.706)"/>
<use xlink:href="#stroke0_6_49" transform="translate(9.29339 48.083) scale(0.00390787) rotate(132.969)"/>
<use xlink:href="#stroke0_6_49" transform="translate(8.86942 47.3553) scale(0.00368325) rotate(90.8474)"/>
<use xlink:href="#stroke0_6_49" transform="translate(7.6712 46.9734) scale(0.0038364) rotate(8.36842)"/>
<use xlink:href="#stroke0_6_49" transform="translate(8.55593 47.9053) scale(0.00396865) rotate(168.536)"/>
<use xlink:href="#stroke0_6_49" transform="translate(6.94522 47.5001) scale(0.00400642) rotate(-71.2673)"/>
<use xlink:href="#stroke0_6_49" transform="translate(6.77836 46.6607) scale(0.00384264) rotate(-26.8362)"/>
<use xlink:href="#stroke0_6_49" transform="translate(6.97518 47.4487) scale(0.00389875) rotate(-112.77)"/>
<use xlink:href="#stroke0_6_49" transform="translate(7.72929 46.211) scale(0.0031619) rotate(103.301)"/>
<use xlink:href="#stroke0_6_49" transform="translate(7.62033 46.8247) scale(0.00398779) rotate(170.758)"/>
<use xlink:href="#stroke0_6_49" transform="translate(7.47075 45.9535) scale(0.00324551) rotate(119.895)"/>
<use xlink:href="#stroke0_6_49" transform="translate(6.12041 45.7252) scale(0.00283174) rotate(-30.8595)"/>
<use xlink:href="#stroke0_6_49" transform="translate(7.09996 46.1059) scale(0.00334324) rotate(166.066)"/>
<use xlink:href="#stroke0_6_49" transform="translate(6.83619 45.0152) scale(0.00326287) rotate(83.6689)"/>
<use xlink:href="#stroke0_6_49" transform="translate(6.09641 45.9378) scale(0.00310491) rotate(-125.409)"/>
<use xlink:href="#stroke0_6_49" transform="translate(6.70816 45.1966) scale(0.00293154) rotate(137.913)"/>
<use xlink:href="#stroke0_6_49" transform="translate(5.73962 44.4218) scale(0.00281959) rotate(16.6073)"/>
<use xlink:href="#stroke0_6_49" transform="translate(5.78871 44.2357) scale(0.00265441) rotate(33.4198)"/>
<use xlink:href="#stroke0_6_49" transform="translate(6.12366 45.081) scale(0.00298173) rotate(-176.809)"/>
<use xlink:href="#stroke0_6_49" transform="translate(5.67379 45.1027) scale(0.00345456) rotate(-143.888)"/>
<use xlink:href="#stroke0_6_49" transform="translate(5.90348 44.5823) scale(0.00279412) rotate(173.679)"/>
<use xlink:href="#stroke0_6_49" transform="translate(4.92895 44.4128) scale(0.00285877) rotate(-91.2559)"/>
<use xlink:href="#stroke0_6_49" transform="translate(4.71451 43.9544) scale(0.00266116) rotate(-61.0589)"/>
<use xlink:href="#stroke0_6_49" transform="translate(5.15204 42.9598) scale(0.00331856) rotate(43.3334)"/>
<use xlink:href="#stroke0_6_49" transform="translate(4.98898 42.8131) scale(0.00302645) rotate(40.0888)"/>
<use xlink:href="#stroke0_6_49" transform="translate(5.50922 43.2321) scale(0.00303345) rotate(130.89)"/>
<use xlink:href="#stroke0_6_49" transform="translate(4.29152 43.3219) scale(0.00269482) rotate(-78.0236)"/>
<use xlink:href="#stroke0_6_49" transform="translate(4.13962 42.6497) scale(0.00278853) rotate(-26.201)"/>
<use xlink:href="#stroke0_6_49" transform="translate(3.96222 43.1764) scale(0.0038239) rotate(-90.6932)"/>
<use xlink:href="#stroke0_6_49" transform="translate(5.00397 42.3291) scale(0.00286342) rotate(121.98)"/>
<use xlink:href="#stroke0_6_49" transform="translate(4.88474 42.7056) scale(0.00372997) rotate(172.132)"/>
<use xlink:href="#stroke0_6_49" transform="translate(3.45075 41.8009) scale(0.0035899) rotate(-36.2883)"/>
<use xlink:href="#stroke0_6_49" transform="translate(3.89972 42.2969) scale(0.00280762) rotate(-122.433)"/>
<use xlink:href="#stroke0_6_49" transform="translate(4.01779 40.7604) scale(0.00370771) rotate(46.6264)"/>
<use xlink:href="#stroke0_6_49" transform="translate(3.2912 40.8373) scale(0.00337687) rotate(-9.2305)"/>
<use xlink:href="#stroke0_6_49" transform="translate(3.79826 40.3899) scale(0.00323548) rotate(48.2541)"/>
<use xlink:href="#stroke0_6_49" transform="translate(4.21386 41.0077) scale(0.00301711) rotate(147.474)"/>
<use xlink:href="#stroke0_6_49" transform="translate(3.3414 41.2946) scale(0.00341496) rotate(-124.338)"/>
<use xlink:href="#stroke0_6_49" transform="translate(3.56095 40.9202) scale(0.00259731) rotate(-153.863)"/>
<use xlink:href="#stroke0_6_49" transform="translate(3.3538 40.8962) scale(0.00341529) rotate(-140.768)"/>
<use xlink:href="#stroke0_6_49" transform="translate(3.13407 39.3626) scale(0.00298589) rotate(32.3879)"/>
<use xlink:href="#stroke0_6_49" transform="translate(3.63526 40.0349) scale(0.00270297) rotate(159.86)"/>
<use xlink:href="#stroke0_6_49" transform="translate(3.42063 40.0836) scale(0.00305264) rotate(-173.331)"/>
<use xlink:href="#stroke0_6_49" transform="translate(3.67955 38.9915) scale(0.00383054) rotate(106.452)"/>
<use xlink:href="#stroke0_6_49" transform="translate(2.25554 38.9545) scale(0.00304387) rotate(-37.0363)"/>
<use xlink:href="#stroke0_6_49" transform="translate(2.01018 38.871) scale(0.00373084) rotate(-51.0208)"/>
<use xlink:href="#stroke0_6_49" transform="translate(3.38774 38.317) scale(0.00366069) rotate(111.46)"/>
<use xlink:href="#stroke0_6_49" transform="translate(3.21062 38.258) scale(0.00302056) rotate(124.32)"/>
<use xlink:href="#stroke0_6_49" transform="translate(2.61947 37.3644) scale(0.00359738) rotate(49.8433)"/>
<use xlink:href="#stroke0_6_49" transform="translate(2.29398 37.2458) scale(0.00304203) rotate(28.8812)"/>
<use xlink:href="#stroke0_6_49" transform="translate(2.93171 37.2418) scale(0.00336959) rotate(97.9041)"/>
<use xlink:href="#stroke0_6_49" transform="translate(2.51905 38.0028) scale(0.00322607) rotate(-159.975)"/>
<use xlink:href="#stroke0_6_49" transform="translate(2.47163 36.6399) scale(0.00284743) rotate(68.0548)"/>
<use xlink:href="#stroke0_6_49" transform="translate(2.83041 36.646) scale(0.0036316) rotate(109.28)"/>
<use xlink:href="#stroke0_6_49" transform="translate(2.12554 35.9012) scale(0.00369744) rotate(46.3082)"/>
<use xlink:href="#stroke0_6_49" transform="translate(1.43557 36.755) scale(0.00318204) rotate(-80.7378)"/>
<use xlink:href="#stroke0_6_49" transform="translate(2.21502 35.5779) scale(0.00320475) rotate(67.3222)"/>
<use xlink:href="#stroke0_6_49" transform="translate(1.95867 35.416) scale(0.00265239) rotate(50.6987)"/>
<use xlink:href="#stroke0_6_49" transform="translate(1.49311 36.4356) scale(0.0038217) rotate(-114.786)"/>
<use xlink:href="#stroke0_6_49" transform="translate(1.97414 35.9999) scale(0.00278543) rotate(-161.437)"/>
<use xlink:href="#stroke0_6_49" transform="translate(2.30361 35.3197) scale(0.00293685) rotate(137.151)"/>
<use xlink:href="#stroke0_6_49" transform="translate(1.5424 35.8039) scale(0.00391948) rotate(-131.273)"/>
<use xlink:href="#stroke0_6_49" transform="translate(1.24749 35.2037) scale(0.00274977) rotate(-101.099)"/>
<use xlink:href="#stroke0_6_49" transform="translate(1.71685 33.8162) scale(0.00352374) rotate(55.1866)"/>
<use xlink:href="#stroke0_6_49" transform="translate(1.04479 34.8747) scale(0.00373238) rotate(-103.051)"/>
<use xlink:href="#stroke0_6_49" transform="translate(1.99877 34.2465) scale(0.00294545) rotate(155.426)"/>
<use xlink:href="#stroke0_6_49" transform="translate(1.88289 34.0694) scale(0.00268188) rotate(162.01)"/>
<use xlink:href="#stroke0_6_49" transform="translate(0.850242 33.4476) scale(0.00263555) rotate(-33.5686)"/>
<use xlink:href="#stroke0_6_49" transform="translate(1.88092 33.4245) scale(0.00262346) rotate(135.085)"/>
<use xlink:href="#stroke0_6_49" transform="translate(0.874942 33.5553) scale(0.00277506) rotate(-88.8443)"/>
<use xlink:href="#stroke0_6_49" transform="translate(1.6673 33.5225) scale(0.0033404) rotate(-173.153)"/>
<use xlink:href="#stroke0_6_49" transform="translate(1.51563 31.9185) scale(0.00394338) rotate(61.2667)"/>
<use xlink:href="#stroke0_6_49" transform="translate(1.78759 32.3112) scale(0.00287264) rotate(120.402)"/>
<use xlink:href="#stroke0_6_49" transform="translate(0.679639 32.7084) scale(0.00352713) rotate(-95.1572)"/>
<use xlink:href="#stroke0_6_49" transform="translate(0.352703 32.1415) scale(0.0040466) rotate(-65.9303)"/>
<use xlink:href="#stroke0_6_49" transform="translate(1.57464 32.1351) scale(0.00336224) rotate(-179.633)"/>
<use xlink:href="#stroke0_6_49" transform="translate(1.64083 31.5607) scale(0.00277015) rotate(149.783)"/>
<use xlink:href="#stroke0_6_49" transform="translate(1.16422 30.599) scale(0.00280028) rotate(49.5268)"/>
<use xlink:href="#stroke0_6_49" transform="translate(1.75685 30.8914) scale(0.0033644) rotate(127.801)"/>
<use xlink:href="#stroke0_6_49" transform="translate(1.83683 30.5891) scale(0.0038465) rotate(126.265)"/>
<use xlink:href="#stroke0_6_49" transform="translate(1.63398 30.7231) scale(0.00334642) rotate(160.755)"/>
<use xlink:href="#stroke0_6_49" transform="translate(0.202526 29.9524) scale(0.00404762) rotate(-38.0291)"/>
<use xlink:href="#stroke0_6_49" transform="translate(0.959614 29.0451) scale(0.00372341) rotate(37.5234)"/>
<use xlink:href="#stroke0_6_49" transform="translate(1.36249 29.0118) scale(0.00313212) rotate(75.0591)"/>
<use xlink:href="#stroke0_6_49" transform="translate(0.351595 29.2845) scale(0.00316075) rotate(-46.5229)"/>
<use xlink:href="#stroke0_6_49" transform="translate(1.48256 29.6944) scale(0.00397011) rotate(-174.794)"/>
<use xlink:href="#stroke0_6_49" transform="translate(0.393039 28.8398) scale(0.00296847) rotate(-55.1204)"/>
<use xlink:href="#stroke0_6_49" transform="translate(1.56899 28.2344) scale(0.00313327) rotate(103.336)"/>
<use xlink:href="#stroke0_6_49" transform="translate(1.22749 28.8318) scale(0.00274954) rotate(-162.3)"/>
<use xlink:href="#stroke0_6_49" transform="translate(0.700662 28.8012) scale(0.00387974) rotate(-116.578)"/>
<use xlink:href="#stroke0_6_49" transform="translate(1.44501 28.1302) scale(0.00265886) rotate(166.99)"/>
<use xlink:href="#stroke0_6_49" transform="translate(0.607352 28.0107) scale(0.00273957) rotate(-94.455)"/>
<use xlink:href="#stroke0_6_49" transform="translate(0.3456 27.3008) scale(0.00320272) rotate(-41.7297)"/>
<use xlink:href="#stroke0_6_49" transform="translate(0.474627 27.0582) scale(0.00259894) rotate(-37.7833)"/>
<use xlink:href="#stroke0_6_49" transform="translate(0.824137 27.5785) scale(0.0032417) rotate(-123.311)"/>
<use xlink:href="#stroke0_6_49" transform="translate(0.674798 25.9483) scale(0.00382649) rotate(17.0141)"/>
<use xlink:href="#stroke0_6_49" transform="translate(1.10433 25.5456) scale(0.00402085) rotate(48.6475)"/>
<use xlink:href="#stroke0_6_49" transform="translate(0.610274 25.4816) scale(0.00347343) rotate(8.36677)"/>
<use xlink:href="#stroke0_6_49" transform="translate(1.40547 26.2172) scale(0.00266852) rotate(173.817)"/>
<use xlink:href="#stroke0_6_49" transform="translate(0.268105 25.9638) scale(0.0039862) rotate(-75.4503)"/>
<use xlink:href="#stroke0_6_49" transform="translate(0.530987 24.6257) scale(0.00395355) rotate(6.20465)"/>
<use xlink:href="#stroke0_6_49" transform="translate(0.927905 24.3456) scale(0.00327227) rotate(35.2591)"/>
<use xlink:href="#stroke0_6_49" transform="translate(0.471283 24.9778) scale(0.00273232) rotate(-68.5028)"/>
<use xlink:href="#stroke0_6_49" transform="translate(1.24868 25.2231) scale(0.00349045) rotate(-158.849)"/>
<use xlink:href="#stroke0_6_49" transform="translate(1.51034 24.8404) scale(0.00370042) rotate(179.327)"/>
<use xlink:href="#stroke0_6_49" transform="translate(0.550547 23.3104) scale(0.0039353) rotate(7.69718)"/>
<use xlink:href="#stroke0_6_49" transform="translate(0.544562 24.1085) scale(0.00289695) rotate(-88.7858)"/>
<use xlink:href="#stroke0_6_49" transform="translate(1.48431 23.7398) scale(0.0025956) rotate(156.36)"/>
<use xlink:href="#stroke0_6_49" transform="translate(0.423462 22.9254) scale(0.00331002) rotate(-16.4116)"/>
<use xlink:href="#stroke0_6_49" transform="translate(0.570882 23.4285) scale(0.00275786) rotate(-89.4776)"/>
<use xlink:href="#stroke0_6_49" transform="translate(1.28599 23.3483) scale(0.00281447) rotate(-168.183)"/>
<use xlink:href="#stroke0_6_49" transform="translate(1.62516 22.5081) scale(0.00308574) rotate(121.279)"/>
<use xlink:href="#stroke0_6_49" transform="translate(0.30119 22.4759) scale(0.00343337) rotate(-57.1078)"/>
<use xlink:href="#stroke0_6_49" transform="translate(1.49769 22.5589) scale(0.00323322) rotate(172.991)"/>
<use xlink:href="#stroke0_6_49" transform="translate(1.68932 21.75) scale(0.00339543) rotate(121.96)"/>
<use xlink:href="#stroke0_6_49" transform="translate(1.70371 21.6618) scale(0.00343069) rotate(136.063)"/>
<use xlink:href="#stroke0_6_49" transform="translate(0.738213 20.8781) scale(0.00270969) rotate(13.4067)"/>
<use xlink:href="#stroke0_6_49" transform="translate(1.27237 20.5165) scale(0.00331054) rotate(64.9682)"/>
<use xlink:href="#stroke0_6_49" transform="translate(1.27334 20.1069) scale(0.003918) rotate(61.2203)"/>
<use xlink:href="#stroke0_6_49" transform="translate(0.727847 20.1432) scale(0.00264772) rotate(11.4412)"/>
<use xlink:href="#stroke0_6_49" transform="translate(0.942373 20.974) scale(0.00275832) rotate(-132.769)"/>
<use xlink:href="#stroke0_6_49" transform="translate(1.33038 20.6501) scale(0.00270954) rotate(-174.928)"/>
<use xlink:href="#stroke0_6_49" transform="translate(1.51664 19.47) scale(0.00347709) rotate(87.6219)"/>
<use xlink:href="#stroke0_6_49" transform="translate(0.847528 19.1625) scale(0.00283035) rotate(26.2302)"/>
<use xlink:href="#stroke0_6_49" transform="translate(1.67297 19.6321) scale(0.00334258) rotate(143.369)"/>
<use xlink:href="#stroke0_6_49" transform="translate(0.557454 18.8283) scale(0.00296693) rotate(-5.04522)"/>
<use xlink:href="#stroke0_6_49" transform="translate(0.471072 18.8825) scale(0.00267346) rotate(-32.6096)"/>
<use xlink:href="#stroke0_6_49" transform="translate(0.264931 18.9975) scale(0.00371028) rotate(-64.303)"/>
<use xlink:href="#stroke0_6_49" transform="translate(1.14472 18.0281) scale(0.00262792) rotate(56.9255)"/>
<use xlink:href="#stroke0_6_49" transform="translate(1.02986 17.726) scale(0.00296731) rotate(44.207)"/>
<use xlink:href="#stroke0_6_49" transform="translate(1.46325 17.5801) scale(0.00336403) rotate(83.4037)"/>
<use xlink:href="#stroke0_6_49" transform="translate(0.314605 17.475) scale(0.00373729) rotate(-21.6093)"/>
<use xlink:href="#stroke0_6_49" transform="translate(1.26946 17.1043) scale(0.00265757) rotate(70.9212)"/>
<use xlink:href="#stroke0_6_49" transform="translate(0.869408 17.9735) scale(0.00303129) rotate(-126.512)"/>
<use xlink:href="#stroke0_6_49" transform="translate(0.718109 17.725) scale(0.00322026) rotate(-113.423)"/>
<use xlink:href="#stroke0_6_49" transform="translate(1.72919 16.4678) scale(0.00400041) rotate(103.743)"/>
<use xlink:href="#stroke0_6_49" transform="translate(1.14783 17.2457) scale(0.00336411) rotate(-150.925)"/>
<use xlink:href="#stroke0_6_49" transform="translate(0.335341 16.2571) scale(0.00324292) rotate(-43.4017)"/>
<use xlink:href="#stroke0_6_49" transform="translate(0.447509 16.1161) scale(0.00268723) rotate(-51.1428)"/>
<use xlink:href="#stroke0_6_49" transform="translate(0.648334 15.4505) scale(0.00271823) rotate(2.45556)"/>
<use xlink:href="#stroke0_6_49" transform="translate(0.464087 15.2666) scale(0.00322729) rotate(-12.387)"/>
<use xlink:href="#stroke0_6_49" transform="translate(1.04059 16.1816) scale(0.00385659) rotate(-141.527)"/>
<use xlink:href="#stroke0_6_49" transform="translate(1.64225 14.591) scale(0.00395578) rotate(93.4875)"/>
<use xlink:href="#stroke0_6_49" transform="translate(0.913252 14.1256) scale(0.00336311) rotate(34.2046)"/>
<use xlink:href="#stroke0_6_49" transform="translate(1.71021 14.4687) scale(0.00347442) rotate(124.738)"/>
<use xlink:href="#stroke0_6_49" transform="translate(0.437189 14.7557) scale(0.00357065) rotate(-88.6092)"/>
<use xlink:href="#stroke0_6_49" transform="translate(1.636 13.8744) scale(0.00317703) rotate(117.99)"/>
<use xlink:href="#stroke0_6_49" transform="translate(1.20027 14.3644) scale(0.00294283) rotate(-157.905)"/>
<use xlink:href="#stroke0_6_49" transform="translate(1.54836 13.6262) scale(0.00267447) rotate(136.348)"/>
<use xlink:href="#stroke0_6_49" transform="translate(0.355631 13.3778) scale(0.00313257) rotate(-50.4031)"/>
<use xlink:href="#stroke0_6_49" transform="translate(0.504906 12.9327) scale(0.00260567) rotate(-26.001)"/>
<use xlink:href="#stroke0_6_49" transform="translate(1.69062 12.6421) scale(0.00358559) rotate(110.779)"/>
<use xlink:href="#stroke0_6_49" transform="translate(1.06907 12.1064) scale(0.00271945) rotate(48.4933)"/>
<use xlink:href="#stroke0_6_49" transform="translate(0.406352 12.9212) scale(0.00379562) rotate(-89.1338)"/>
<use xlink:href="#stroke0_6_49" transform="translate(0.670157 12.637) scale(0.00281109) rotate(-103.835)"/>
<use xlink:href="#stroke0_6_49" transform="translate(1.28426 12.4077) scale(0.00259441) rotate(-170.762)"/>
<use xlink:href="#stroke0_6_49" transform="translate(1.34239 12.3455) scale(0.00344633) rotate(-167.46)"/>
<use xlink:href="#stroke0_6_49" transform="translate(1.14644 10.656) scale(0.00389699) rotate(51.9253)"/>
<use xlink:href="#stroke0_6_49" transform="translate(0.703855 10.4182) scale(0.0038352) rotate(19.3678)"/>
<use xlink:href="#stroke0_6_49" transform="translate(1.51605 10.349) scale(0.00355652) rotate(86.2384)"/>
<use xlink:href="#stroke0_6_49" transform="translate(1.29098 11.156) scale(0.00296577) rotate(-167.068)"/>
<use xlink:href="#stroke0_6_49" transform="translate(0.376155 10.1521) scale(0.00323279) rotate(-28.2587)"/>
<use xlink:href="#stroke0_6_49" transform="translate(1.19144 9.58576) scale(0.00289415) rotate(60.1531)"/>
<use xlink:href="#stroke0_6_49" transform="translate(0.862097 9.09811) scale(0.00390825) rotate(31.5324)"/>
<use xlink:href="#stroke0_6_49" transform="translate(0.895864 9.05884) scale(0.00283746) rotate(31.1322)"/>
<use xlink:href="#stroke0_6_49" transform="translate(1.01439 10.0321) scale(0.00302329) rotate(-139.921)"/>
<use xlink:href="#stroke0_6_49" transform="translate(1.67153 8.82169) scale(0.00364487) rotate(104.943)"/>
<use xlink:href="#stroke0_6_49" transform="translate(0.38763 8.96679) scale(0.00299162) rotate(-54.5412)"/>
<use xlink:href="#stroke0_6_49" transform="translate(0.718977 9.24854) scale(0.00312582) rotate(-112.693)"/>
<use xlink:href="#stroke0_6_49" transform="translate(0.616204 8.82628) scale(0.00260691) rotate(-92.9227)"/>
<use xlink:href="#stroke0_6_49" transform="translate(1.61317 8.22792) scale(0.00297982) rotate(130.479)"/>
<use xlink:href="#stroke0_6_49" transform="translate(0.377164 7.7894) scale(0.0031984) rotate(-29.7186)"/>
<use xlink:href="#stroke0_6_49" transform="translate(0.402861 8.13516) scale(0.003456) rotate(-81.5016)"/>
<use xlink:href="#stroke0_6_49" transform="translate(1.60721 7.52185) scale(0.00295163) rotate(133.036)"/>
<use xlink:href="#stroke0_6_49" transform="translate(1.58936 7.46097) scale(0.00299887) rotate(148.672)"/>
<use xlink:href="#stroke0_6_49" transform="translate(1.52285 6.41206) scale(0.00388006) rotate(82.307)"/>
<use xlink:href="#stroke0_6_49" transform="translate(1.01363 7.53126) scale(0.00395751) rotate(-139.554)"/>
<use xlink:href="#stroke0_6_49" transform="translate(0.858029 7.05013) scale(0.00298569) rotate(-125.237)"/>
<use xlink:href="#stroke0_6_49" transform="translate(1.80051 6.11864) scale(0.003905) rotate(126.333)"/>
<use xlink:href="#stroke0_6_49" transform="translate(1.22225 5.31707) scale(0.0031296) rotate(61.5909)"/>
<use xlink:href="#stroke0_6_49" transform="translate(1.73063 5.87766) scale(0.00370269) rotate(147.908)"/>
<use xlink:href="#stroke0_6_49" transform="translate(0.920464 4.74165) scale(0.00321112) rotate(34.4922)"/>
<use xlink:href="#stroke0_6_49" transform="translate(1.11823 4.65448) scale(0.00259956) rotate(54.1724)"/>
<use xlink:href="#stroke0_6_49" transform="translate(0.884722 4.21762) scale(0.00355766) rotate(32.346)"/>
<use xlink:href="#stroke0_6_49" transform="translate(0.35326 4.29491) scale(0.00362528) rotate(-18.6886)"/>
<use xlink:href="#stroke0_6_49" transform="translate(1.08291 5.05431) scale(0.00316574) rotate(-145.906)"/>
<use xlink:href="#stroke0_6_49" transform="translate(1.53786 3.65514) scale(0.0035575) rotate(88.6814)"/>
<use xlink:href="#stroke0_6_49" transform="translate(1.61561 3.91442) scale(0.00299184) rotate(132.537)"/>
<use xlink:href="#stroke0_6_49" transform="translate(0.688029 4.17378) scale(0.00283771) rotate(-106.306)"/>
<use xlink:href="#stroke0_6_49" transform="translate(1.47255 3.04903) scale(0.00303157) rotate(90.6415)"/>
<use xlink:href="#stroke0_6_49" transform="translate(0.652531 3.64788) scale(0.00259652) rotate(-98.0356)"/>
<use xlink:href="#stroke0_6_49" transform="translate(1.03254 3.75696) scale(0.00367196) rotate(-141.064)"/>
<use xlink:href="#stroke0_6_49" transform="translate(1.03764 1.97045) scale(0.00365914) rotate(44.2694)"/>
<use xlink:href="#stroke0_6_49" transform="translate(1.57733 2.91123) scale(0.0036034) rotate(170.281)"/>
<use xlink:href="#stroke0_6_49" transform="translate(0.572819 1.74148) scale(0.00302132) rotate(-1.98952)"/>
<use xlink:href="#stroke0_6_49" transform="translate(0.713667 2.68947) scale(0.00395566) rotate(-118.003)"/>
<use xlink:href="#stroke0_6_49" transform="translate(0.568186 1.2855) scale(0.00280822) rotate(-6.94051)"/>
<use xlink:href="#stroke0_6_49" transform="translate(1.54281 1.77789) scale(0.00309493) rotate(162.951)"/>
<use xlink:href="#stroke0_6_49" transform="translate(1.56609 1.51729) scale(0.00313637) rotate(160.12)"/>
<use xlink:href="#stroke0_6_49" transform="translate(0.504995 0.554324) scale(0.00323648) rotate(-6.59722)"/>
</g>
<defs>
<filter id="filter0_n_6_49" x="0.270874" y="0.282104" width="57.4335" height="57.3512" filterUnits="userSpaceOnUse" color-interpolation-filters="sRGB">
<feFlood flood-opacity="0" result="BackgroundImageFix"/>
<feBlend mode="normal" in="SourceGraphic" in2="BackgroundImageFix" result="shape"/>
<feTurbulence type="fractalNoise" baseFrequency="0.38759690523147583 0.38759690523147583" stitchTiles="stitch" numOctaves="3" result="noise" seed="9800" />
<feColorMatrix in="noise" type="luminanceToAlpha" result="alphaNoise" />
<feComponentTransfer in="alphaNoise" result="coloredNoise1">
<feFuncA type="discrete" tableValues="0 0 0 0 0 0 0 0 0 0 0 0 0 0 1 1 1 1 1 1 1 1 1 1 1 1 1 1 1 1 1 1 1 1 1 1 0 0 0 0 0 0 0 0 0 0 0 0 0 0 0 0 0 0 0 0 0 0 0 0 0 0 0 0 0 0 0 0 0 0 0 0 0 0 0 0 0 0 0 0 0 0 0 0 0 0 0 0 0 0 0 0 0 0 0 0 0 0 0 0 "/>
</feComponentTransfer>
<feComposite operator="in" in2="shape" in="coloredNoise1" result="noise1Clipped" />
<feComponentTransfer in="alphaNoise" result="coloredNoise2">
<feFuncA type="discrete" tableValues="0 0 0 0 0 0 0 0 0 0 0 0 0 0 0 0 0 0 0 0 0 0 0 0 0 0 0 0 0 0 0 0 0 0 0 0 0 0 0 0 0 0 0 0 0 0 0 0 0 0 0 0 0 0 0 0 0 0 0 0 0 0 0 0 1 1 1 1 1 1 1 1 1 1 1 1 1 1 1 1 1 1 1 1 1 1 0 0 0 0 0 0 0 0 0 0 0 0 0 0 "/>
</feComponentTransfer>
<feComposite operator="in" in2="shape" in="coloredNoise2" result="noise2Clipped" />
<feFlood flood-color="rgba(255, 255, 255, 0.75)" result="color1Flood" />
<feComposite operator="in" in2="noise1Clipped" in="color1Flood" result="color1" />
<feFlood flood-color="rgba(255, 255, 255, 0.25)" result="color2Flood" />
<feComposite operator="in" in2="noise2Clipped" in="color2Flood" result="color2" />
<feMerge result="effect1_noise_6_49">
<feMergeNode in="shape" />
<feMergeNode in="color1" />
<feMergeNode in="color2" />
</feMerge>
</filter>
<g id="stroke0_6_49" data-figma-scatter-ref="stroke0_6_49_ref" data-figma-scatter="f0.28_w0_aj180_sj0.25_r0_s0_sw1">
<path d="M103.731 283.547C110.352 281.363 112.807 281.348 116.121 283.468C130.109 292.418 124.85 308.718 107.972 308.727C90.3768 308.737 87.0606 289.046 103.731 283.547ZM139.837 35.4146C140.937 35.1787 142.512 35.114 143.337 35.271C144.162 35.4281 146.516 35.8391 148.567 36.1851C155.802 37.4051 160.179 46.6969 156.734 53.5249C152.924 61.0769 144.715 67.5811 140.859 66.1021C135.872 64.1881 137.625 69.8792 144.066 76.5152C148.306 80.8841 150.337 81.2685 150.337 77.7066C150.337 76.6574 151.622 74.3218 153.193 72.5161C154.823 70.6412 156.597 66.9201 157.324 63.8501C158.925 57.0892 160.788 55.2289 167.369 53.8169C177.32 51.6829 185.581 56.9263 183.752 64.2153C183.293 66.0423 183.901 67.6656 186.09 70.4585C196.859 84.1975 193.875 104.273 180.596 107.418C177.049 108.258 176.832 108.532 176.773 112.27C176.739 114.448 176.365 116.987 175.943 117.912C175.255 119.417 175.946 119.564 182.506 119.31C190.415 119.003 192.674 119.705 195.953 123.487C199.054 127.064 201.598 126.114 202.609 121.002C203.503 116.483 209.096 110.731 212.596 110.731C214.841 110.731 215.934 108.156 214.449 106.367C206.1 96.3056 222.234 73.6632 235.605 76.6792C241.572 78.0252 246.302 83.6302 246.367 89.4312C246.384 90.9712 247.505 94.4811 248.858 97.231C255.362 110.453 243.304 126.225 232.777 118.263C229.924 116.105 229.837 116.226 229.837 122.341C229.837 128.93 225.932 133.292 219.049 134.393C216.068 134.87 214.933 135.67 213.775 138.116C212.964 139.829 211.55 142.415 210.63 143.863C208.984 146.456 209.02 146.565 213.147 151.254C215.451 153.871 217.337 156.555 217.337 157.218C217.337 157.882 218.074 159.901 218.974 161.706C222.148 168.067 221.073 181.731 217.4 181.731C217.052 181.731 215.97 183.081 214.995 184.731C214.02 186.381 212.573 187.731 211.779 187.731C209.595 187.731 210.044 189.817 212.863 192.76C216.384 196.435 217.425 204.867 214.728 207.858C209.503 213.649 203.05 218.01 198.064 219.122C193.944 220.041 192.83 220.705 192.804 222.259C192.669 230.389 188.242 235.387 179.682 237.077C172.845 238.427 172.072 240.31 177.577 242.203C190.358 246.597 192.892 257.693 182.442 263.506C176.521 266.799 172.426 266.758 167.515 263.354C163.894 260.845 163.161 260.686 159.679 261.653C153.737 263.303 147.363 262.934 141.337 260.593C135.874 258.47 130.724 257.068 124.689 256.061C118.715 255.064 115.151 249.943 114.592 241.551C114.184 235.417 113.671 233.745 111.425 231.231C109.951 229.581 107.986 226.544 107.058 224.481C105.42 220.844 105.211 220.731 100.164 220.731C93.7935 220.731 89.0798 217.922 86.2168 212.42C83.0468 206.327 78.9427 207.336 78.8477 214.231C78.8097 216.981 78.4233 220.817 77.9883 222.755C77.2354 226.113 77.3507 226.324 80.4366 227.255C90.5004 230.29 90.3981 247.946 80.2881 252.934C55.9904 264.92 26.2411 240.473 47.875 226.298C49.556 225.196 50.1805 223.494 50.6895 218.626C51.0495 215.185 52.1298 211.262 53.0908 209.91C54.0507 208.557 55.2736 206.856 55.8086 206.127C56.5016 205.184 56.0161 204.003 54.1221 202.017C50.6273 198.355 49.3112 194.657 49.9981 190.428C50.3281 188.392 50.1033 186.705 49.4463 186.299C48.8364 185.922 48.337 184.345 48.3369 182.794C48.3369 181.244 47.6012 179.366 46.7032 178.621C43.9996 176.376 34.3369 162.856 34.3369 161.317C34.3368 160.529 32.7627 157.822 30.8389 155.302C28.915 152.781 27.3998 150.384 27.4727 149.975C28.4457 144.478 24.6467 141.425 20.4727 144.348C18.2547 145.902 11.2222 145.776 6.86624 144.104C-3.23648 140.227 -1.78745 115.126 8.56839 114.62C14.8594 114.313 23.3369 117.551 23.3369 120.261C23.3372 122.018 26.1103 124.731 27.9073 124.731C28.6933 124.731 29.3369 124.041 29.3369 123.198C29.3372 109.814 50.1851 94.3087 69.8369 93.0767C82.9305 92.2547 88.2617 93.4969 97.1895 99.4468C101.45 102.287 108.337 96.8837 108.337 90.7007C108.337 88.6598 109.172 86.4706 110.483 85.0747C112.734 82.6789 111.804 79.7313 108.796 79.731C106.403 79.731 103.556 73.5422 104.077 69.4702C105.046 61.8843 117.633 57.7673 123.289 63.1861C125.639 65.4379 126.708 65.8083 129.245 65.2515C133.054 64.4145 133.128 63.4739 129.587 60.895C121.36 54.902 128.195 37.9086 139.837 35.4146ZM227.337 203.429C239.094 199.654 252.722 207.291 252.722 217.653C252.722 228.495 231.921 239.44 223.927 232.806C221.665 230.929 220.403 232.363 221.012 236.118C222.097 242.802 213.511 254.731 207.616 254.731C194.246 254.731 188.8 246.232 194.457 234.198C198.202 226.231 204.453 223.784 213.238 226.847C217.536 228.345 217.88 227.687 215.921 221.697C213.052 212.925 216.89 206.783 227.337 203.429ZM179.7 192.695C179.049 192.044 178.051 192.413 176.774 193.779C168.37 202.768 165.063 203.713 156.506 199.571C149.746 196.298 146.45 201.459 151.961 206.689C154.209 208.822 154.482 209.744 154.038 213.682C153.54 218.098 153.664 218.344 158.682 222.967C163.836 227.716 163.837 227.716 164.351 222.867C164.987 216.872 169.522 209.969 174.077 208.066C177.094 206.805 177.337 206.359 177.337 202.046C177.337 199.092 177.95 196.711 179.013 195.536C180.117 194.315 180.352 193.347 179.7 192.695ZM13.7354 183.697C21.2304 180.362 25.9355 181.225 32.1055 187.066C40.5644 195.074 37.0287 205.612 24.6309 209.343C9.40689 213.925 -0.704596 190.124 13.7354 183.697ZM252.956 148.251C262.129 145.732 267.81 147.203 270.983 152.921C277.397 164.478 257.352 180.919 247.179 172.445C237.093 164.044 240.016 151.805 252.956 148.251ZM175.822 162.709C174.842 161.123 172.482 161.589 171.417 163.579C170.283 165.699 171.384 170.913 173.086 171.481C174.366 171.905 176.761 164.229 175.822 162.709ZM150.152 111.481C150.492 108.526 149.534 108.177 145.513 109.79C142.108 111.155 143.035 114.231 146.851 114.231C149.365 114.231 149.886 113.796 150.152 111.481ZM156.837 98.731C156.012 98.731 155.337 99.406 155.337 100.231C155.337 101.056 156.012 101.731 156.837 101.731C157.662 101.731 158.337 101.056 158.337 100.231C158.337 99.4061 157.662 98.7312 156.837 98.731ZM131.337 85.6382C131.337 82.8002 129.491 81.4004 127.429 82.6743C126.501 83.2473 126.685 84.2905 128.185 86.9605C129.273 88.9003 130.316 91.46 130.5 92.6489C130.685 93.8379 131.287 94.905 131.837 95.021C133.25 95.317 133.729 90.7224 132.422 89.4155C131.825 88.8185 131.337 87.1191 131.337 85.6382ZM79.8369 36.9214C89.8819 31.2487 102.893 46.8492 95.6582 55.8921C92.2024 60.211 91.2042 63.981 91.8701 70.1997C92.5322 76.3837 92.4821 76.5638 89.0371 80.3628C76.0391 94.6997 55.1533 78.5005 64.8242 61.5825C66.3391 58.9327 67.3172 55.6452 67.3242 53.1753C67.3402 47.7053 72.4159 41.1124 79.8369 36.9214ZM120.896 78.731C120.653 78.731 120.177 79.1811 119.837 79.731C119.497 80.2809 119.695 80.7309 120.277 80.731C120.859 80.731 121.337 80.281 121.337 79.731C121.337 79.181 121.139 78.731 120.896 78.731ZM205.485 39.4898C219.631 37.0418 227.598 50.9151 220.597 65.8081C213.393 81.13 190.339 77.7861 190.091 61.3823C189.98 54.0764 199.509 40.5238 205.485 39.4898ZM51.8369 14.5542C64.4449 5.86451 75.68 19.3671 68.6241 34.731C62.385 48.3167 41.3372 43.775 41.3369 28.8423C41.3369 26.0333 47.6529 17.4382 51.8369 14.5542ZM108.212 2.17043C121.43 -6.81137 141.546 14.0924 133.237 28.1743C132.084 30.1297 130.819 31.7302 130.427 31.731C130.035 31.731 128.813 32.5703 127.713 33.5962C119.456 41.2872 107.786 35.7761 103.367 22.0991C100.152 12.1461 101.463 6.75643 108.212 2.17043Z" fill="#538FDF"/>
</g>
<path id="stroke0_6_49_ref" d="M1 1H57V29C57 44.464 44.464 57 29 57C13.536 57 1 44.464 1 29V1Z"/>
</defs>
</svg>
