<svg xmlns="http://www.w3.org/2000/svg" xmlns:xlink="http://www.w3.org/1999/xlink" width="58" height="58" fill="none" viewBox="0 0 58 58"><g filter="url(#a)"><circle cx="29" cy="29" r="28" fill="#538fdf"/><use xlink:href="#b" transform="rotate(218.86 33.767 4.823)scale(.00372)"/><use xlink:href="#b" transform="rotate(48.964 -2.733 76.95)scale(.00393)"/><use xlink:href="#b" transform="rotate(83.093 12.312 46.941)scale(.0032)"/><use xlink:href="#b" transform="rotate(212.588 32.98 6.85)scale(.0029)"/><use xlink:href="#b" transform="rotate(256.612 40.365 -7.134)scale(.00279)"/><use xlink:href="#b" transform="rotate(200.782 31.401 10.125)scale(.00266)"/><use xlink:href="#b" transform="rotate(122.476 20.539 31.016)scale(.00379)"/><use xlink:href="#b" transform="rotate(83.95 11.823 47.012)scale(.00272)"/><use xlink:href="#b" transform="rotate(-37.445 73.648 -67.774)scale(.00274)"/><use xlink:href="#b" transform="rotate(53.466 -1.767 71.896)scale(.00312)"/><use xlink:href="#b" transform="rotate(239.696 37.544 -.206)scale(.0036)"/><use xlink:href="#b" transform="rotate(-23.032 104.95 -122.071)scale(.00402)"/><use xlink:href="#b" transform="rotate(33.069 -24.19 111.146)scale(.00385)"/><use xlink:href="#b" transform="rotate(151.649 24.658 23.537)scale(.00375)"/><use xlink:href="#b" transform="rotate(66.425 4.265 59.536)scale(.00405)"/><use xlink:href="#b" transform="rotate(160.697 25.806 21.423)scale(.0028)"/><use xlink:href="#b" transform="rotate(156.815 25.284 22.6)scale(.00387)"/><use xlink:href="#b" transform="rotate(-91.2 44.64 -10.522)scale(.00374)"/><use xlink:href="#b" transform="rotate(81.836 9.37 49.466)scale(.00287)"/><use xlink:href="#b" transform="rotate(49.325 -7.732 78.287)scale(.0036)"/><use xlink:href="#b" transform="rotate(251.069 40.504 -2.64)scale(.0038)"/><use xlink:href="#b" transform="rotate(104.319 15.344 39.234)scale(.0037)"/><use xlink:href="#b" transform="rotate(21.564 -61.523 164.75)scale(.00263)"/><use xlink:href="#b" transform="rotate(225 35.558 6.186)scale(.00392)"/><use xlink:href="#b" transform="rotate(-17.933 138.13 -159.062)scale(.00356)"/><use xlink:href="#b" transform="rotate(176.577 27.836 18.81)scale(.00336)"/><use xlink:href="#b" transform="rotate(66.372 1.48 60.71)scale(.00359)"/><use xlink:href="#b" transform="rotate(169.172 26.643 20.906)scale(.00376)"/><use xlink:href="#b" transform="rotate(200.981 31.524 13.141)scale(.0026)"/><use xlink:href="#b" transform="rotate(38.036 -23.98 99.118)scale(.00277)"/><use xlink:href="#b" transform="rotate(117.742 17.337 35.345)scale(.00372)"/><use xlink:href="#b" transform="rotate(97.312 12.185 43.091)scale(.00356)"/><use xlink:href="#b" transform="rotate(64.9 -.776 62.362)scale(.00275)"/><use xlink:href="#b" transform="rotate(-39.467 79.508 -58.323)scale(.00266)"/><use xlink:href="#b" transform="rotate(-83.462 48.823 -12.011)scale(.00285)"/><use xlink:href="#b" transform="rotate(-36.809 84.014 -63.825)scale(.00307)"/><use xlink:href="#b" transform="rotate(89.944 9.259 46.812)scale(.00345)"/><use xlink:href="#b" transform="rotate(232.006 37.135 5.91)scale(.00298)"/><use xlink:href="#b" transform="rotate(-10.25 239.369 -286.754)scale(.00327)"/><use xlink:href="#b" transform="rotate(-19.46 139.323 -140.656)scale(.00266)"/><use xlink:href="#b" transform="rotate(81.792 5.602 51.294)scale(.0026)"/><use xlink:href="#b" transform="rotate(14.072 -128.497 241.522)scale(.00297)"/><use xlink:href="#b" transform="rotate(53.738 -10.358 73.742)scale(.004)"/><use xlink:href="#b" transform="rotate(-6.344 380.182 -472.172)scale(.00299)"/><use xlink:href="#b" transform="rotate(151.616 22.743 27.059)scale(.00395)"/><use xlink:href="#b" transform="rotate(-48.608 71.309 -39.696)scale(.00387)"/><use xlink:href="#b" transform="rotate(178.239 27.19 20.754)scale(.0026)"/><use xlink:href="#b" transform="rotate(133.802 19.02 32.065)scale(.00385)"/><use xlink:href="#b" transform="rotate(139.863 20.068 30.472)scale(.00307)"/><use xlink:href="#b" transform="rotate(-33.922 93.6 -67.342)scale(.00402)"/><use xlink:href="#b" transform="rotate(-72.523 55.073 -15.695)scale(.00363)"/><use xlink:href="#b" transform="rotate(204.325 31.693 15.26)scale(.00368)"/><use xlink:href="#b" transform="rotate(194.42 29.83 17.789)scale(.00379)"/><use xlink:href="#b" transform="rotate(-12.893 210.541 -214.644)scale(.0036)"/><use xlink:href="#b" transform="rotate(170.781 25.425 23.574)scale(.00395)"/><use xlink:href="#b" transform="rotate(51.101 -17.002 77.058)scale(.00287)"/><use xlink:href="#b" transform="rotate(103.572 10.406 42.478)scale(.00396)"/><use xlink:href="#b" transform="rotate(256.792 43.676 .703)scale(.0027)"/><use xlink:href="#b" transform="rotate(196.471 29.864 17.931)scale(.00261)"/><use xlink:href="#b" transform="rotate(18.161 -106.874 186.34)scale(.00383)"/><use xlink:href="#b" transform="rotate(184.351 27.539 21.09)scale(.0039)"/><use xlink:href="#b" transform="rotate(108.708 11.094 40.92)scale(.00338)"/><use xlink:href="#b" transform="rotate(-12.583 223.99 -214.58)scale(.00308)"/><use xlink:href="#b" transform="rotate(-23.694 130.675 -101.74)scale(.00326)"/><use xlink:href="#b" transform="rotate(-40.053 86.594 -48.586)scale(.00385)"/><use xlink:href="#b" transform="rotate(-33.212 100.344 -64.126)scale(.00347)"/><use xlink:href="#b" transform="rotate(-61.024 63.91 -21.1)scale(.00325)"/><use xlink:href="#b" transform="rotate(154.095 21.062 28.726)scale(.00339)"/><use xlink:href="#b" transform="rotate(109.477 10.224 41.03)scale(.00281)"/><use xlink:href="#b" transform="rotate(121.135 13.39 37.451)scale(.00364)"/><use xlink:href="#b" transform="rotate(16.646 -128.322 197.35)scale(.00364)"/><use xlink:href="#b" transform="rotate(228.233 36.065 11.924)scale(.00403)"/><use xlink:href="#b" transform="rotate(44.816 -29.695 84.843)scale(.00273)"/><use xlink:href="#b" transform="rotate(92.65 3.805 47.543)scale(.00293)"/><use xlink:href="#b" transform="rotate(153.587 20.206 29.37)scale(.0026)"/><use xlink:href="#b" transform="rotate(78.423 -2.77 54.4)scale(.0027)"/><use xlink:href="#b" transform="rotate(-76.998 54.63 -7.826)scale(.00348)"/><use xlink:href="#b" transform="rotate(142.086 17.399 32.306)scale(.00262)"/><use xlink:href="#b" transform="rotate(194.316 28.274 20.646)scale(.00265)"/><use xlink:href="#b" transform="rotate(249.589 41.579 6.687)scale(.00359)"/><use xlink:href="#b" transform="rotate(164.552 22.021 27.37)scale(.00316)"/><use xlink:href="#b" transform="rotate(140.778 16.697 32.882)scale(.00289)"/><use xlink:href="#b" transform="rotate(250.029 41.65 6.854)scale(.00267)"/><use xlink:href="#b" transform="rotate(27.193 -73.232 125.757)scale(.0033)"/><use xlink:href="#b" transform="rotate(-21.56 150.32 -104.383)scale(.00277)"/><use xlink:href="#b" transform="rotate(234.219 37.072 11.865)scale(.00265)"/><use xlink:href="#b" transform="rotate(123.148 11.727 37.646)scale(.00275)"/><use xlink:href="#b" transform="rotate(17.245 -134.264 184.653)scale(.00289)"/><use xlink:href="#b" transform="rotate(12.641 -193.078 242.48)scale(.00387)"/><use xlink:href="#b" transform="rotate(72.927 -8.247 57.318)scale(.00377)"/><use xlink:href="#b" transform="rotate(164.626 21.11 28.085)scale(.00311)"/><use xlink:href="#b" transform="rotate(244.796 39.82 9.704)scale(.00264)"/><use xlink:href="#b" transform="rotate(127.469 12.144 36.754)scale(.00317)"/><use xlink:href="#b" transform="rotate(220.871 33.305 16.196)scale(.00275)"/><use xlink:href="#b" transform="rotate(41.863 -40.4 86.963)scale(.00323)"/><use xlink:href="#b" transform="rotate(-6.318 471.466 -400.167)scale(.00401)"/><use xlink:href="#b" transform="rotate(-43.614 86.029 -33.386)scale(.00266)"/><use xlink:href="#b" transform="rotate(-58.678 68.11 -16.12)scale(.00332)"/><use xlink:href="#b" transform="rotate(227.317 34.657 15.349)scale(.0036)"/><use xlink:href="#b" transform="rotate(101.674 3.155 44.435)scale(.00314)"/><use xlink:href="#b" transform="rotate(206.081 29.352 20.39)scale(.00392)"/><use xlink:href="#b" transform="rotate(-18.119 181.762 -118.181)scale(.00316)"/><use xlink:href="#b" transform="rotate(150.299 16.587 31.894)scale(.00343)"/><use xlink:href="#b" transform="rotate(-25.508 135.287 -74.334)scale(.00377)"/><use xlink:href="#b" transform="rotate(140.077 13.771 34.178)scale(.00272)"/><use xlink:href="#b" transform="rotate(-19.806 169.396 -103.19)scale(.00305)"/><use xlink:href="#b" transform="rotate(194.706 26.228 23.289)scale(.00391)"/><use xlink:href="#b" transform="rotate(-9.766 323.48 -234.902)scale(.0035)"/><use xlink:href="#b" transform="rotate(-60.903 66.496 -11.444)scale(.00355)"/><use xlink:href="#b" transform="rotate(-97.957 45.047 7.067)scale(.00288)"/><use xlink:href="#b" transform="rotate(97.164 -.367 45.847)scale(.0036)"/><use xlink:href="#b" transform="rotate(-55.659 71.623 -15.121)scale(.00273)"/><use xlink:href="#b" transform="rotate(-69.646 59.693 -4.746)scale(.00355)"/><use xlink:href="#b" transform="rotate(144.146 13.677 33.633)scale(.00305)"/><use xlink:href="#b" transform="rotate(-61.585 65.997 -9.625)scale(.00297)"/><use xlink:href="#b" transform="rotate(103.572 1.238 43.666)scale(.0028)"/><use xlink:href="#b" transform="rotate(150.773 15.036 32.417)scale(.00379)"/><use xlink:href="#b" transform="rotate(235.68 35.649 15.55)scale(.00265)"/><use xlink:href="#b" transform="rotate(157.404 16.375 31.169)scale(.0034)"/><use xlink:href="#b" transform="rotate(18.317 -142.764 157.804)scale(.00322)"/><use xlink:href="#b" transform="rotate(213.286 29.375 20.837)scale(.00381)"/><use xlink:href="#b" transform="rotate(7.925 -363.421 328.718)scale(.00276)"/><use xlink:href="#b" transform="rotate(-34.976 105.836 -38.75)scale(.00318)"/><use xlink:href="#b" transform="rotate(181.633 21.465 26.907)scale(.00304)"/><use xlink:href="#b" transform="rotate(-17.448 195.367 -106.506)scale(.00346)"/><use xlink:href="#b" transform="rotate(-63.99 63.846 -5.482)scale(.00275)"/><use xlink:href="#b" transform="rotate(-37.54 99.924 -32.612)scale(.0028)"/><use xlink:href="#b" transform="rotate(-65.154 62.848 -4.386)scale(.00264)"/><use xlink:href="#b" transform="rotate(165.985 17.254 29.913)scale(.00287)"/><use xlink:href="#b" transform="rotate(205.739 26.687 23.004)scale(.00396)"/><use xlink:href="#b" transform="rotate(-75.493 55.328 1.811)scale(.00303)"/><use xlink:href="#b" transform="rotate(-14.458 234.149 -128.701)scale(.00301)"/><use xlink:href="#b" transform="rotate(32.532 -72.866 95.117)scale(.00353)"/><use xlink:href="#b" transform="rotate(-33.499 110.55 -37.553)scale(.00264)"/><use xlink:href="#b" transform="rotate(172.232 18.069 29.068)scale(.00316)"/><use xlink:href="#b" transform="rotate(142.395 10.497 34.375)scale(.00295)"/><use xlink:href="#b" transform="rotate(219.407 29.513 21.014)scale(.00391)"/><use xlink:href="#b" transform="rotate(-9.732 340.836 -196.15)scale(.0038)"/><use xlink:href="#b" transform="rotate(118.295 3.08 39.296)scale(.00368)"/><use xlink:href="#b" transform="rotate(175.033 18.126 28.832)scale(.00361)"/><use xlink:href="#b" transform="rotate(127.036 5.404 37.335)scale(.00265)"/><use xlink:href="#b" transform="rotate(177.039 18.337 28.507)scale(.0028)"/><use xlink:href="#b" transform="rotate(-2.218 1446.323 -931.383)scale(.00277)"/><use xlink:href="#b" transform="rotate(71.53 -19.496 53.713)scale(.00316)"/><use xlink:href="#b" transform="rotate(198.594 23.31 25.233)scale(.00397)"/><use xlink:href="#b" transform="rotate(104.698 -2.807 42.214)scale(.00283)"/><use xlink:href="#b" transform="rotate(-59.372 67.13 -3.388)scale(.00353)"/><use xlink:href="#b" transform="rotate(51.244 -39.597 65.7)scale(.00287)"/><use xlink:href="#b" transform="rotate(173.649 16.736 29.297)scale(.0034)"/><use xlink:href="#b" transform="rotate(219.556 28.152 21.962)scale(.00324)"/><use xlink:href="#b" transform="rotate(91.99 -8.788 45.34)scale(.00402)"/><use xlink:href="#b" transform="rotate(132.138 5.448 36.104)scale(.00263)"/><use xlink:href="#b" transform="rotate(-38.447 97.927 -21.5)scale(.00265)"/><use xlink:href="#b" transform="rotate(115.506 .088 39.321)scale(.00359)"/><use xlink:href="#b" transform="rotate(133.459 5.561 35.844)scale(.00377)"/><use xlink:href="#b" transform="rotate(-33.491 110.566 -28.124)scale(.0026)"/><use xlink:href="#b" transform="rotate(-26.068 138.25 -44.248)scale(.00346)"/><use xlink:href="#b" transform="rotate(-94.559 43.07 13.046)scale(.00303)"/><use xlink:href="#b" transform="rotate(-55.984 69.855 -2.745)scale(.00313)"/><use xlink:href="#b" transform="rotate(200.926 22.119 25.496)scale(.00292)"/><use xlink:href="#b" transform="rotate(205.972 23.294 24.749)scale(.00262)"/><use xlink:href="#b" transform="rotate(-92.851 43.49 13.015)scale(.00271)"/><use xlink:href="#b" transform="rotate(24.652 -112.29 102.92)scale(.00264)"/><use xlink:href="#b" transform="rotate(-12.82 267.13 -114.864)scale(.00296)"/><use xlink:href="#b" transform="rotate(165.782 12.9 30.627)scale(.00303)"/><use xlink:href="#b" transform="rotate(7.785 -398.29 262.613)scale(.0026)"/><use xlink:href="#b" transform="rotate(15.136 -196.042 147.545)scale(.0029)"/><use xlink:href="#b" transform="rotate(131.679 3.408 35.684)scale(.00267)"/><use xlink:href="#b" transform="rotate(219.985 26.261 23.066)scale(.00354)"/><use xlink:href="#b" transform="rotate(109.184 -4.234 39.66)scale(.00277)"/><use xlink:href="#b" transform="rotate(252.784 36.555 17.348)scale(.00271)"/><use xlink:href="#b" transform="rotate(26.94 -102.042 92.144)scale(.00356)"/><use xlink:href="#b" transform="rotate(242.347 32.596 19.609)scale(.00326)"/><use xlink:href="#b" transform="rotate(-17.723 196.492 -67.18)scale(.00324)"/><use xlink:href="#b" transform="rotate(-56.863 67.49 1.193)scale(.0026)"/><use xlink:href="#b" transform="rotate(108.884 -4.956 39.282)scale(.00382)"/><use xlink:href="#b" transform="rotate(7.735 -403.064 244.762)scale(.00303)"/><use xlink:href="#b" transform="rotate(132.224 2.37 35.143)scale(.00287)"/><use xlink:href="#b" transform="rotate(-37.247 98.497 -13.615)scale(.00398)"/><use xlink:href="#b" transform="rotate(108.859 -5.605 38.903)scale(.00275)"/><use xlink:href="#b" transform="rotate(58.427 -36.032 53.993)scale(.00293)"/><use xlink:href="#b" transform="rotate(241.498 31.237 20.434)scale(.00332)"/><use xlink:href="#b" transform="rotate(165.848 10.843 30.514)scale(.00398)"/><use xlink:href="#b" transform="rotate(49.78 -46.665 58.272)scale(.00344)"/><use xlink:href="#b" transform="rotate(-50.554 73.856 -.127)scale(.00287)"/><use xlink:href="#b" transform="rotate(-87.873 43.203 14.776)scale(.00343)"/><use xlink:href="#b" transform="rotate(250.841 33.855 19.174)scale(.00283)"/><use xlink:href="#b" transform="rotate(-66.844 56.455 8.568)scale(.00281)"/><use xlink:href="#b" transform="rotate(-18.186 189.924 -53.51)scale(.00293)"/><use xlink:href="#b" transform="rotate(38.91 -66.366 65.548)scale(.00321)"/><use xlink:href="#b" transform="rotate(136.85 2.23 33.8)scale(.0037)"/><use xlink:href="#b" transform="rotate(-29.743 119.153 -19.175)scale(.0037)"/><use xlink:href="#b" transform="rotate(253.487 34.078 19.152)scale(.00265)"/><use xlink:href="#b" transform="rotate(-84.022 44.178 14.822)scale(.00368)"/><use xlink:href="#b" transform="rotate(81.723 -19.742 42.936)scale(.00289)"/><use xlink:href="#b" transform="rotate(116.521 -4.644 36.2)scale(.0036)"/><use xlink:href="#b" transform="rotate(-69.645 52.91 11.264)scale(.00383)"/><use xlink:href="#b" transform="rotate(-34.655 102.381 -9.866)scale(.00321)"/><use xlink:href="#b" transform="rotate(-72.106 50.814 12.287)scale(.00347)"/><use xlink:href="#b" transform="rotate(252.985 32.904 19.838)scale(.00324)"/><use xlink:href="#b" transform="rotate(-15.226 221.523 -58.409)scale(.00322)"/><use xlink:href="#b" transform="rotate(204.863 18.12 25.992)scale(.00381)"/><use xlink:href="#b" transform="rotate(146.344 3.377 31.9)scale(.00373)"/><use xlink:href="#b" transform="rotate(96.514 -13.294 38.42)scale(.0029)"/><use xlink:href="#b" transform="rotate(145.42 2.884 31.857)scale(.0035)"/><use xlink:href="#b" transform="rotate(74.062 -25.585 42.925)scale(.00277)"/><use xlink:href="#b" transform="rotate(45.791 -54.638 54.104)scale(.00304)"/><use xlink:href="#b" transform="rotate(137.645 .39 32.454)scale(.00275)"/><use xlink:href="#b" transform="rotate(214.647 19.777 25.006)scale(.00378)"/><use xlink:href="#b" transform="rotate(201.707 16.278 26.218)scale(.0032)"/><use xlink:href="#b" transform="rotate(-47.031 74.52 4.292)scale(.00321)"/><use xlink:href="#b" transform="rotate(-20.684 162.184 -27.95)scale(.00368)"/><use xlink:href="#b" transform="rotate(145.747 2.104 31.275)scale(.00358)"/><use xlink:href="#b" transform="rotate(-96.071 35.288 18.992)scale(.00266)"/><use xlink:href="#b" transform="rotate(201.811 15.7 26.21)scale(.00396)"/><use xlink:href="#b" transform="rotate(245.81 28.026 21.627)scale(.0028)"/><use xlink:href="#b" transform="rotate(229.978 22.927 23.456)scale(.00316)"/><use xlink:href="#b" transform="rotate(-66.453 51.881 13.365)scale(.0034)"/><use xlink:href="#b" transform="rotate(-48.301 70.901 6.978)scale(.00381)"/><use xlink:href="#b" transform="rotate(128.133 -3.595 32.354)scale(.0027)"/><use xlink:href="#b" transform="rotate(208.737 16.647 25.442)scale(.0032)"/><use xlink:href="#b" transform="rotate(-97.331 33.513 19.785)scale(.00344)"/><use xlink:href="#b" transform="rotate(152.963 2.927 29.905)scale(.00395)"/><use xlink:href="#b" transform="rotate(84.858 -20.462 37.33)scale(.003)"/><use xlink:href="#b" transform="rotate(-61.875 54.37 13.115)scale(.0036)"/><use xlink:href="#b" transform="rotate(190.784 11.633 26.797)scale(.00396)"/><use xlink:href="#b" transform="rotate(-68.644 48.477 15.006)scale(.00283)"/><use xlink:href="#b" transform="rotate(84.245 -20.908 36.692)scale(.00377)"/><use xlink:href="#b" transform="rotate(164.671 5.043 28.474)scale(.00288)"/><use xlink:href="#b" transform="rotate(21.947 -130.022 69.488)scale(.00283)"/><use xlink:href="#b" transform="rotate(229.813 20.935 23.636)scale(.004)"/><use xlink:href="#b" transform="rotate(-69.505 46.86 15.835)scale(.00332)"/><use xlink:href="#b" transform="rotate(113.366 -9.202 32.298)scale(.00402)"/><use xlink:href="#b" transform="rotate(238.723 23.064 22.812)scale(.00351)"/><use xlink:href="#b" transform="rotate(26.294 -105.497 59.27)scale(.00344)"/><use xlink:href="#b" transform="rotate(154.54 1.922 28.662)scale(.00365)"/><use xlink:href="#b" transform="rotate(211.303 15.161 24.9)scale(.00383)"/><use xlink:href="#b" transform="rotate(-75.288 41.729 17.564)scale(.00356)"/><use xlink:href="#b" transform="rotate(-76.544 40.735 17.932)scale(.00403)"/><use xlink:href="#b" transform="rotate(-56.898 55.663 13.908)scale(.0034)"/><use xlink:href="#b" transform="rotate(-45.305 69.869 10.152)scale(.00288)"/><use xlink:href="#b" transform="rotate(20.057 -140.411 64.849)scale(.00267)"/><use xlink:href="#b" transform="rotate(-1.99 1503.293 -356.414)scale(.00318)"/><use xlink:href="#b" transform="rotate(165.668 3.688 27.21)scale(.0026)"/><use xlink:href="#b" transform="rotate(-27.656 112.094 -.03)scale(.0029)"/><use xlink:href="#b" transform="rotate(83.499 -22.155 33.454)scale(.00287)"/><use xlink:href="#b" transform="rotate(164.859 3.332 27.103)scale(.00372)"/><use xlink:href="#b" transform="rotate(184.851 7.678 25.877)scale(.00292)"/><use xlink:href="#b" transform="rotate(-73.689 40.672 17.996)scale(.00329)"/><use xlink:href="#b" transform="rotate(209.117 13.04 24.462)scale(.00315)"/><use xlink:href="#b" transform="rotate(168.823 3.874 26.567)scale(.00397)"/><use xlink:href="#b" transform="rotate(101.878 -14.326 30.53)scale(.00368)"/><use xlink:href="#b" transform="rotate(118.477 -8.974 29.13)scale(.00305)"/><use xlink:href="#b" transform="rotate(50.283 -47.528 37.46)scale(.00394)"/><use xlink:href="#b" transform="rotate(-38.524 77.717 10.054)scale(.00328)"/><use xlink:href="#b" transform="rotate(-17.938 164.144 -8.088)scale(.00364)"/><use xlink:href="#b" transform="rotate(-78.253 36.328 19.019)scale(.00335)"/><use xlink:href="#b" transform="rotate(166.887 2.712 25.936)scale(.00306)"/><use xlink:href="#b" transform="rotate(131.7 -5.612 27.545)scale(.0033)"/><use xlink:href="#b" transform="rotate(203.864 10.624 24.166)scale(.00347)"/><use xlink:href="#b" transform="rotate(205.295 10.822 24.019)scale(.00327)"/><use xlink:href="#b" transform="rotate(114.63 -10.551 28.078)scale(.00301)"/><use xlink:href="#b" transform="rotate(67.098 -31.786 32.02)scale(.00298)"/><use xlink:href="#b" transform="rotate(-72.565 38.273 18.493)scale(.00264)"/><use xlink:href="#b" transform="rotate(88.326 -20.023 29.454)scale(.0034)"/><use xlink:href="#b" transform="rotate(-68.574 40.382 18.186)scale(.00317)"/><use xlink:href="#b" transform="rotate(67.088 -31.504 31.154)scale(.00368)"/><use xlink:href="#b" transform="rotate(56.66 -39.743 32.36)scale(.00377)"/><use xlink:href="#b" transform="rotate(8.854 -304.34 78.065)scale(.00322)"/><use xlink:href="#b" transform="rotate(249.513 21.04 21.543)scale(.00356)"/><use xlink:href="#b" transform="rotate(226.787 14.678 22.493)scale(.00309)"/><use xlink:href="#b" transform="rotate(6.081 -439.283 96.304)scale(.00405)"/><use xlink:href="#b" transform="rotate(105.276 -13.804 26.92)scale(.00263)"/><use xlink:href="#b" transform="rotate(84.845 -21.592 28.044)scale(.0026)"/><use xlink:href="#b" transform="rotate(33.33 -73.829 36.019)scale(.00367)"/><use xlink:href="#b" transform="rotate(-19.482 139.68 2.827)scale(.00297)"/><use xlink:href="#b" transform="rotate(8.56 -304.935 69.713)scale(.00395)"/><use xlink:href="#b" transform="rotate(225.521 13.514 22.099)scale(.00283)"/><use xlink:href="#b" transform="rotate(-77.823 32.254 19.324)scale(.00308)"/><use xlink:href="#b" transform="rotate(171.186 1.942 23.643)scale(.00328)"/><use xlink:href="#b" transform="rotate(-66.923 38.088 18.516)scale(.00349)"/><use xlink:href="#b" transform="rotate(183.657 4.261 23.076)scale(.00308)"/><use xlink:href="#b" transform="rotate(-32.508 81.014 12.614)scale(.00303)"/><use xlink:href="#b" transform="rotate(15.597 -161.088 44.809)scale(.00294)"/><use xlink:href="#b" transform="rotate(215.722 10.556 21.955)scale(.00304)"/><use xlink:href="#b" transform="rotate(-21.9 118.573 8.197)scale(.0033)"/><use xlink:href="#b" transform="rotate(115.15 -10.935 24.46)scale(.003)"/><use xlink:href="#b" transform="rotate(-27.147 94.677 11.517)scale(.00342)"/><use xlink:href="#b" transform="rotate(176.132 2.329 22.604)scale(.00337)"/><use xlink:href="#b" transform="rotate(16.327 -149.218 39.885)scale(.00388)"/><use xlink:href="#b" transform="rotate(100.251 -15.271 24.341)scale(.00329)"/><use xlink:href="#b" transform="rotate(87.759 -19.73 24.677)scale(.00298)"/><use xlink:href="#b" transform="rotate(147.202 -3.61 22.743)scale(.00268)"/><use xlink:href="#b" transform="rotate(-34.942 70.971 14.74)scale(.00336)"/><use xlink:href="#b" transform="rotate(-86.32 25.432 19.61)scale(.004)"/><use xlink:href="#b" transform="rotate(-13.054 188.654 2.588)scale(.00274)"/><use xlink:href="#b" transform="rotate(5.99 -400.614 60.856)scale(.00387)"/><use xlink:href="#b" transform="rotate(177.47 2.043 21.61)scale(.0039)"/><use xlink:href="#b" transform="rotate(61.682 -32.482 24.63)scale(.00378)"/><use xlink:href="#b" transform="rotate(-17.893 133.96 9.585)scale(.00378)"/><use xlink:href="#b" transform="rotate(186.271 3.405 21.056)scale(.00348)"/><use xlink:href="#b" transform="rotate(229.239 11.598 20.174)scale(.0028)"/><use xlink:href="#b" transform="rotate(202.7 6.279 20.63)scale(.00387)"/><use xlink:href="#b" transform="rotate(101.205 -14.661 22.149)scale(.00264)"/><use xlink:href="#b" transform="rotate(28.129 -78.576 27.095)scale(.00329)"/><use xlink:href="#b" transform="rotate(65.63 -29.003 22.95)scale(.004)"/><use xlink:href="#b" transform="rotate(159.785 -1.603 20.73)scale(.00355)"/><use xlink:href="#b" transform="rotate(80.024 -21.73 22.032)scale(.00332)"/><use xlink:href="#b" transform="rotate(-40.471 55.334 16.4)scale(.00303)"/><use xlink:href="#b" transform="rotate(-92.457 20.562 18.816)scale(.00321)"/><use xlink:href="#b" transform="rotate(-59.351 35.985 17.636)scale(.0028)"/><use xlink:href="#b" transform="rotate(177.603 1.28 19.909)scale(.00308)"/><use xlink:href="#b" transform="rotate(89.603 -17.793 21.004)scale(.00305)"/><use xlink:href="#b" transform="rotate(-20.668 106.579 13.44)scale(.00362)"/><use xlink:href="#b" transform="rotate(-25.104 86.859 14.76)scale(.00388)"/><use xlink:href="#b" transform="rotate(68.019 -26.527 20.999)scale(.00313)"/><use xlink:href="#b" transform="rotate(46.097 -42.463 21.626)scale(.00405)"/><use xlink:href="#b" transform="rotate(36.773 -54.736 22.135)scale(.00305)"/><use xlink:href="#b" transform="rotate(166.089 -.906 19.128)scale(.0028)"/><use xlink:href="#b" transform="rotate(231.307 10.202 18.453)scale(.0028)"/><use xlink:href="#b" transform="rotate(169.163 -.427 18.906)scale(.00306)"/><use xlink:href="#b" transform="rotate(147.33 -4.085 18.954)scale(.00284)"/><use xlink:href="#b" transform="rotate(243.179 12.4 18.083)scale(.00296)"/><use xlink:href="#b" transform="rotate(26.374 -75.74 21.94)scale(.00299)"/><use xlink:href="#b" transform="rotate(11.426 -177.682 25.978)scale(.00325)"/><use xlink:href="#b" transform="rotate(67.101 -25.598 19.364)scale(.00343)"/><use xlink:href="#b" transform="rotate(259.557 15.839 17.51)scale(.00273)"/><use xlink:href="#b" transform="rotate(91.801 -15.813 18.693)scale(.00376)"/><use xlink:href="#b" transform="rotate(175.574 .44 17.964)scale(.00376)"/><use xlink:href="#b" transform="rotate(2.988 -660.654 40.674)scale(.00336)"/><use xlink:href="#b" transform="rotate(105.405 -12.092 18.084)scale(.00286)"/><use xlink:href="#b" transform="rotate(231.479 9.202 17.215)scale(.00266)"/><use xlink:href="#b" transform="rotate(195.621 3.282 17.338)scale(.00285)"/><use xlink:href="#b" transform="rotate(-95.825 16.163 16.85)scale(.00311)"/><use xlink:href="#b" transform="rotate(259.413 14.815 16.826)scale(.00343)"/><use xlink:href="#b" transform="matrix(0 .00288 -.00288 0 1.836 33.297)"/><use xlink:href="#b" transform="rotate(-46.323 39.36 15.989)scale(.00358)"/><use xlink:href="#b" transform="rotate(86.76 -16.495 17.311)scale(.00278)"/><use xlink:href="#b" transform="rotate(218.171 6.495 16.635)scale(.00374)"/><use xlink:href="#b" transform="rotate(117.676 -8.846 16.846)scale(.00362)"/><use xlink:href="#b" transform="rotate(70.234 -21.983 17.029)scale(.0027)"/><use xlink:href="#b" transform="rotate(34.305 -50.411 17.49)scale(.00366)"/><use xlink:href="#b" transform="rotate(-70.811 22.867 15.82)scale(.00388)"/><use xlink:href="#b" transform="rotate(-7.653 233.092 11.38)scale(.0036)"/><use xlink:href="#b" transform="rotate(258.11 13.301 15.599)scale(.00263)"/><use xlink:href="#b" transform="rotate(240.455 9.696 15.636)scale(.0031)"/><use xlink:href="#b" transform="rotate(-22.658 76.869 14.005)scale(.00286)"/><use xlink:href="#b" transform="rotate(-85.369 17.112 15.336)scale(.00368)"/><use xlink:href="#b" transform="rotate(51.659 -30.33 16.13)scale(.0027)"/><use xlink:href="#b" transform="rotate(143.675 -4.195 15.444)scale(.00272)"/><use xlink:href="#b" transform="rotate(33.679 -48.144 16.26)scale(.00299)"/><use xlink:href="#b" transform="rotate(-89.305 15.535 14.943)scale(.00388)"/><use xlink:href="#b" transform="rotate(133.157 -5.591 15.115)scale(.00295)"/><use xlink:href="#b" transform="rotate(7.019 -234.268 19.699)scale(.00301)"/><use xlink:href="#b" transform="rotate(118.862 -7.622 14.951)scale(.00395)"/><use xlink:href="#b" transform="rotate(106.639 -9.885 14.826)scale(.00262)"/><use xlink:href="#b" transform="rotate(4.619 -346.813 21.402)scale(.0033)"/><use xlink:href="#b" transform="rotate(-63.435 23.205 13.946)scale(.0033)"/><use xlink:href="#b" transform="rotate(72.315 -18.015 14.647)scale(.00375)"/><use xlink:href="#b" transform="rotate(181.237 .91 14.15)scale(.00365)"/><use xlink:href="#b" transform="rotate(10.803 -142.597 17.559)scale(.00263)"/><use xlink:href="#b" transform="rotate(-84.036 15.614 13.528)scale(.00307)"/><use xlink:href="#b" transform="rotate(-66.9 20.883 13.219)scale(.00274)"/><use xlink:href="#b" transform="rotate(-81.217 16.13 13.262)scale(.003)"/><use xlink:href="#b" transform="rotate(190.273 1.986 13.569)scale(.00393)"/><use xlink:href="#b" transform="rotate(98.63 -10.343 13.7)scale(.00302)"/><use xlink:href="#b" transform="rotate(-31.993 45.556 11.9)scale(.0027)"/><use xlink:href="#b" transform="rotate(-44.873 31.432 12.441)scale(.00388)"/><use xlink:href="#b" transform="rotate(110.5 -7.933 13.302)scale(.00283)"/><use xlink:href="#b" transform="matrix(0 -.00312 .00312 0 .75 25.797)"/><use xlink:href="#b" transform="rotate(-97.58 11.637 12.475)scale(.0034)"/><use xlink:href="#b" transform="rotate(-32.72 42.478 11.129)scale(.0029)"/><use xlink:href="#b" transform="rotate(-18.183 76.714 9.492)scale(.0026)"/><use xlink:href="#b" transform="rotate(-1.782 774.79 -19.83)scale(.00263)"/><use xlink:href="#b" transform="matrix(0 .00272 -.00272 0 1.815 23.912)"/><use xlink:href="#b" transform="rotate(167.355 -.407 12.31)scale(.00276)"/><use xlink:href="#b" transform="rotate(112.391 -6.947 12.512)scale(.0026)"/><use xlink:href="#b" transform="rotate(86.828 -11.358 12.648)scale(.00269)"/><use xlink:href="#b" transform="rotate(101.795 -8.263 12.431)scale(.00372)"/><use xlink:href="#b" transform="rotate(146.489 -2.412 12.006)scale(.00302)"/><use xlink:href="#b" transform="rotate(135.264 -3.507 11.995)scale(.00382)"/><use xlink:href="#b" transform="rotate(74.404 -13.541 12.429)scale(.00314)"/><use xlink:href="#b" transform="rotate(249.229 8.682 11.072)scale(.00386)"/><use xlink:href="#b" transform="rotate(24.34 -48.664 14.4)scale(.004)"/><use xlink:href="#b" transform="rotate(81.22 -11.375 12.048)scale(.00269)"/><use xlink:href="#b" transform="rotate(-22.983 53.173 7.376)scale(.00341)"/><use xlink:href="#b" transform="rotate(-78.697 13.994 9.965)scale(.00315)"/><use xlink:href="#b" transform="rotate(159.478 -.592 10.991)scale(.0033)"/><use xlink:href="#b" transform="rotate(-88.97 11.706 9.866)scale(.00352)"/><use xlink:href="#b" transform="rotate(-24.573 47.45 6.632)scale(.00386)"/><use xlink:href="#b" transform="rotate(-73.37 14.757 9.148)scale(.00308)"/><use xlink:href="#b" transform="rotate(-94.75 10.488 9.386)scale(.0029)"/><use xlink:href="#b" transform="rotate(32.421 -31.7 13.637)scale(.00401)"/><use xlink:href="#b" transform="rotate(207.841 3.878 9.802)scale(.00297)"/><use xlink:href="#b" transform="rotate(20.333 -51.668 16.348)scale(.00267)"/><use xlink:href="#b" transform="rotate(250.498 8.224 9.108)scale(.00356)"/><use xlink:href="#b" transform="rotate(121.374 -3.538 10.435)scale(.00343)"/><use xlink:href="#b" transform="rotate(-95.258 10.016 8.532)scale(.00348)"/><use xlink:href="#b" transform="rotate(-57.482 18.18 7.14)scale(.00313)"/><use xlink:href="#b" transform="rotate(129.148 -2.48 10.033)scale(.00303)"/><use xlink:href="#b" transform="rotate(177.706 1.644 9.324)scale(.00322)"/><use xlink:href="#b" transform="rotate(-35.777 28.915 4.598)scale(.0026)"/><use xlink:href="#b" transform="rotate(33.373 -26.738 13.989)scale(.00329)"/><use xlink:href="#b" transform="rotate(257.341 8.747 7.75)scale(.00312)"/><use xlink:href="#b" transform="rotate(116.641 -3.147 9.84)scale(.0033)"/><use xlink:href="#b" transform="rotate(60.267 -12.275 11.575)scale(.00276)"/><use xlink:href="#b" transform="rotate(26.267 -33.12 15.916)scale(.00273)"/><use xlink:href="#b" transform="rotate(234.998 6.345 7.641)scale(.00285)"/><use xlink:href="#b" transform="rotate(132.374 -1.387 9.229)scale(.00262)"/><use xlink:href="#b" transform="rotate(100.348 -4.384 9.886)scale(.00285)"/><use xlink:href="#b" transform="rotate(-48.487 19.67 4.04)scale(.00262)"/><use xlink:href="#b" transform="rotate(106.653 -3.436 9.61)scale(.0029)"/><use xlink:href="#b" transform="rotate(-95.46 9.3 6.396)scale(.0039)"/><use xlink:href="#b" transform="rotate(126.858 -1.2 9)scale(.00377)"/><use xlink:href="#b" transform="rotate(209.663 4.452 7.241)scale(.00262)"/><use xlink:href="#b" transform="rotate(3.238 -256.296 85.02)scale(.00262)"/><use xlink:href="#b" transform="rotate(41.501 -16.311 13.48)scale(.00316)"/><use xlink:href="#b" transform="rotate(-16.569 51.18 -7.908)scale(.00334)"/><use xlink:href="#b" transform="rotate(116.934 -1.437 8.898)scale(.00373)"/><use xlink:href="#b" transform="rotate(-31.58 26.92 -1.046)scale(.00364)"/><use xlink:href="#b" transform="rotate(169.232 2.258 7.438)scale(.00295)"/><use xlink:href="#b" transform="rotate(210.358 4.774 6.437)scale(.00324)"/><use xlink:href="#b" transform="rotate(-79.801 10.865 3.83)scale(.00263)"/><use xlink:href="#b" transform="rotate(256.841 8.208 4.837)scale(.0033)"/><use xlink:href="#b" transform="rotate(162.996 2.207 7.233)scale(.00305)"/><use xlink:href="#b" transform="rotate(-36.794 22.077 -1.762)scale(.00284)"/><use xlink:href="#b" transform="rotate(64.56 -6.48 11.182)scale(.00305)"/><use xlink:href="#b" transform="rotate(63.536 -6.343 11.273)scale(.00354)"/><use xlink:href="#b" transform="rotate(168.456 2.808 6.728)scale(.00282)"/><use xlink:href="#b" transform="rotate(-14.068 50.556 -18.165)scale(.00392)"/><use xlink:href="#b" transform="rotate(-33.885 22.418 -4.097)scale(.00338)"/><use xlink:href="#b" transform="rotate(101.295 -.944 8.797)scale(.00325)"/><use xlink:href="#b" transform="rotate(189.328 4.212 5.775)scale(.00328)"/><use xlink:href="#b" transform="rotate(-77.474 10.634 1.671)scale(.0029)"/><use xlink:href="#b" transform="rotate(-17.827 38.268 -16.386)scale(.00286)"/><use xlink:href="#b" transform="rotate(132.81 1.766 7.35)scale(.00403)"/><use xlink:href="#b" transform="rotate(163.755 3.358 6.189)scale(.00346)"/><use xlink:href="#b" transform="rotate(194.87 4.793 5.046)scale(.00285)"/><use xlink:href="#b" transform="rotate(136.897 2.314 6.991)scale(.00365)"/><use xlink:href="#b" transform="rotate(-62.682 12.345 -1.045)scale(.00297)"/><use xlink:href="#b" transform="rotate(203.239 5.363 4.448)scale(.00288)"/><use xlink:href="#b" transform="rotate(225.919 6.478 3.516)scale(.00342)"/><use xlink:href="#b" transform="rotate(52.036 -5.053 13.592)scale(.00262)"/><use xlink:href="#b" transform="rotate(234.619 6.99 2.907)scale(.00356)"/><use xlink:href="#b" transform="rotate(-26.736 23.518 -13.183)scale(.00294)"/><use xlink:href="#b" transform="rotate(103.981 1.501 8.291)scale(.00393)"/><use xlink:href="#b" transform="rotate(52.159 -3.576 13.859)scale(.00404)"/><use xlink:href="#b" transform="rotate(56.846 -2.793 13.14)scale(.00266)"/><use xlink:href="#b" transform="rotate(-56.025 12.71 -4.057)scale(.00392)"/><use xlink:href="#b" transform="rotate(141.861 3.905 6.157)scale(.0039)"/><use xlink:href="#b" transform="rotate(-57.83 12.322 -4.412)scale(.00345)"/><use xlink:href="#b" transform="rotate(-23.093 23.804 -19.892)scale(.00371)"/><use xlink:href="#b" transform="rotate(24.912 -11.427 27.263)scale(.00282)"/><use xlink:href="#b" transform="rotate(131.229 3.881 6.442)scale(.00263)"/><use xlink:href="#b" transform="rotate(-52.542 12.817 -6.41)scale(.00402)"/><use xlink:href="#b" transform="rotate(-58.231 12.03 -5.68)scale(.00304)"/><use xlink:href="#b" transform="rotate(244.88 8.024 .375)scale(.00267)"/><use xlink:href="#b" transform="rotate(88.978 2.59 9.449)scale(.00332)"/><use xlink:href="#b" transform="rotate(113.381 3.958 7.448)scale(.00345)"/><use xlink:href="#b" transform="rotate(-94.834 9.075 -1.646)scale(.00278)"/><use xlink:href="#b" transform="rotate(74.203 2.23 11.28)scale(.00365)"/><use xlink:href="#b" transform="rotate(-32.389 16.782 -16.895)scale(.00312)"/><use xlink:href="#b" transform="rotate(104.468 4.19 8.111)scale(.00336)"/><use xlink:href="#b" transform="rotate(16.22 -13.294 46.18)scale(.00368)"/><use xlink:href="#b" transform="rotate(185.246 6.852 3.05)scale(.00387)"/><use xlink:href="#b" transform="rotate(-86.314 9.688 -3.632)scale(.00272)"/><use xlink:href="#b" transform="rotate(227.301 8.036 .318)scale(.00312)"/><use xlink:href="#b" transform="rotate(-2.052 148.09 -360.047)scale(.00388)"/><use xlink:href="#b" transform="rotate(-91.792 9.527 -3.411)scale(.00361)"/><use xlink:href="#b" transform="rotate(123.117 5.947 6.611)scale(.00356)"/><use xlink:href="#b" transform="rotate(130.843 6.34 6.037)scale(.00391)"/><use xlink:href="#b" transform="rotate(160.555 7.137 4.018)scale(.0039)"/><use xlink:href="#b" transform="rotate(-99.147 9.46 -3.415)scale(.003)"/><use xlink:href="#b" transform="rotate(206.257 8.187 .953)scale(.00324)"/><use xlink:href="#b" transform="rotate(62.49 4.375 14.7)scale(.00328)"/><use xlink:href="#b" transform="rotate(257.895 9.544 -3.449)scale(.00382)"/><use xlink:href="#b" transform="rotate(-98.419 9.712 -4.096)scale(.00327)"/><use xlink:href="#b" transform="rotate(83.016 5.995 11.09)scale(.00318)"/><use xlink:href="#b" transform="rotate(129.615 7.465 6.033)scale(.00387)"/><use xlink:href="#b" transform="rotate(237.606 9.367 -2.053)scale(.00371)"/><use xlink:href="#b" transform="rotate(63.464 5.822 15.239)scale(.00355)"/><use xlink:href="#b" transform="rotate(33.997 3.063 28.97)scale(.00271)"/><use xlink:href="#b" transform="rotate(23.336 1.207 42.11)scale(.00369)"/><use xlink:href="#b" transform="rotate(-28.084 14.974 -31.549)scale(.00332)"/><use xlink:href="#b" transform="rotate(142.712 8.49 4.873)scale(.0035)"/><use xlink:href="#b" transform="rotate(-24.617 15.422 -37.462)scale(.00396)"/><use xlink:href="#b" transform="rotate(203.983 9.506 -.004)scale(.00312)"/><use xlink:href="#b" transform="rotate(-74.364 11.093 -9.974)scale(.00267)"/><use xlink:href="#b" transform="rotate(96.14 8.334 9.866)scale(.00363)"/><use xlink:href="#b" transform="rotate(-6.294 32.55 -164.382)scale(.00286)"/><use xlink:href="#b" transform="rotate(104.19 8.667 8.857)scale(.00285)"/><use xlink:href="#b" transform="rotate(89.141 8.495 11.102)scale(.00272)"/><use xlink:href="#b" transform="rotate(72.577 8.463 14.44)scale(.0039)"/><use xlink:href="#b" transform="rotate(231.311 10.483 -3.069)scale(.00273)"/><use xlink:href="#b" transform="rotate(197.503 10.266 .064)scale(.00345)"/><use xlink:href="#b" transform="rotate(186.161 10.283 .977)scale(.00341)"/><use xlink:href="#b" transform="rotate(33.025 7.261 34.806)scale(.00358)"/><use xlink:href="#b" transform="rotate(211.615 10.755 -1.393)scale(.0037)"/><use xlink:href="#b" transform="rotate(185.581 10.658 .88)scale(.00338)"/><use xlink:href="#b" transform="rotate(188.677 10.78 .539)scale(.00312)"/><use xlink:href="#b" transform="rotate(140.095 10.505 5.048)scale(.00283)"/><use xlink:href="#b" transform="rotate(243.52 11.397 -5.3)scale(.00263)"/><use xlink:href="#b" transform="rotate(-61.568 12.288 -16.576)scale(.00311)"/><use xlink:href="#b" transform="rotate(-19.43 15.404 -61.49)scale(.00295)"/><use xlink:href="#b" transform="rotate(235.001 11.653 -4.379)scale(.00402)"/><use xlink:href="#b" transform="rotate(224.748 11.645 -3.433)scale(.0026)"/><use xlink:href="#b" transform="rotate(-73.385 12.337 -13.703)scale(.00347)"/><use xlink:href="#b" transform="rotate(-46.802 12.951 -24.692)scale(.00375)"/><use xlink:href="#b" transform="rotate(-40.153 13.246 -29.865)scale(.00372)"/><use xlink:href="#b" transform="rotate(202.512 12.07 -1.199)scale(.0039)"/><use xlink:href="#b" transform="rotate(102.979 11.727 10.265)scale(.00365)"/><use xlink:href="#b" transform="rotate(36.193 10.804 36.947)scale(.00342)"/><use xlink:href="#b" transform="rotate(70.025 11.607 17.922)scale(.00287)"/><use xlink:href="#b" transform="rotate(166.165 12.423 2.418)scale(.00364)"/><use xlink:href="#b" transform="rotate(-20.326 15.07 -66.954)scale(.00272)"/><use xlink:href="#b" transform="rotate(240.529 12.898 -6.269)scale(.00298)"/><use xlink:href="#b" transform="rotate(-46.533 13.676 -27.831)scale(.00326)"/><use xlink:href="#b" transform="rotate(186.052 12.95 .225)scale(.00348)"/><use xlink:href="#b" transform="rotate(112.323 12.736 9.276)scale(.00272)"/><use xlink:href="#b" transform="rotate(174.599 13.12 1.429)scale(.00313)"/><use xlink:href="#b" transform="rotate(126.824 13.068 7.23)scale(.00297)"/><use xlink:href="#b" transform="rotate(105.901 13.182 10.59)scale(.00352)"/><use xlink:href="#b" transform="rotate(36.754 12.83 40.093)scale(.00394)"/><use xlink:href="#b" transform="rotate(-12.449 16.423 -120.507)scale(.00307)"/><use xlink:href="#b" transform="rotate(124.435 13.654 7.817)scale(.00343)"/><use xlink:href="#b" transform="rotate(140.94 13.895 5.593)scale(.00397)"/><use xlink:href="#b" transform="rotate(85.04 13.699 15.607)scale(.00282)"/><use xlink:href="#b" transform="rotate(-54.612 14.69 -25.877)scale(.00294)"/><use xlink:href="#b" transform="rotate(51.594 13.849 29.374)scale(.00365)"/><use xlink:href="#b" transform="rotate(228.416 14.54 -5.513)scale(.00342)"/><use xlink:href="#b" transform="rotate(-47.099 15.072 -31.508)scale(.0038)"/><use xlink:href="#b" transform="rotate(175.959 14.666 1.237)scale(.00303)"/><use xlink:href="#b" transform="rotate(23.944 13.787 68.458)scale(.00359)"/><use xlink:href="#b" transform="rotate(174.62 14.972 1.464)scale(.00365)"/><use xlink:href="#b" transform="rotate(108.635 14.887 11.266)scale(.00312)"/><use xlink:href="#b" transform="rotate(-66.16 15.578 -21.788)scale(.00401)"/><use xlink:href="#b" transform="rotate(52.306 14.77 31.145)scale(.00304)"/><use xlink:href="#b" transform="rotate(-41.199 16.218 -39.273)scale(.003)"/><use xlink:href="#b" transform="rotate(172.755 15.6 1.76)scale(.00357)"/><use xlink:href="#b" transform="rotate(-83.502 16.044 -16.238)scale(.00398)"/><use xlink:href="#b" transform="rotate(43.247 15.088 39.737)scale(.0031)"/><use xlink:href="#b" transform="rotate(65.45 15.605 25.009)scale(.00368)"/><use xlink:href="#b" transform="rotate(236.452 16.308 -7.592)scale(.00334)"/><use xlink:href="#b" transform="rotate(138.518 16.144 6.83)scale(.00334)"/><use xlink:href="#b" transform="rotate(-9.243 20.071 -195.889)scale(.00397)"/><use xlink:href="#b" transform="rotate(-60.678 17.155 -26.605)scale(.00341)"/><use xlink:href="#b" transform="rotate(229.919 16.841 -6.67)scale(.00322)"/><use xlink:href="#b" transform="rotate(129.952 16.533 8.5)scale(.0027)"/><use xlink:href="#b" transform="rotate(213.201 17.031 -3.957)scale(.00355)"/><use xlink:href="#b" transform="rotate(21.232 14.764 89.364)scale(.0034)"/><use xlink:href="#b" transform="rotate(39.017 16.034 48.084)scale(.00386)"/><use xlink:href="#b" transform="rotate(9.733 12.057 198.674)scale(.00373)"/><use xlink:href="#b" transform="rotate(-18.142 20.707 -105.487)scale(.00307)"/><use xlink:href="#b" transform="rotate(33.82 15.63 57.344)scale(.00277)"/><use xlink:href="#b" transform="rotate(-67.467 18.49 -24.743)scale(.00306)"/><use xlink:href="#b" transform="rotate(67.99 16.838 26.769)scale(.00291)"/><use xlink:href="#b" transform="rotate(-28.39 20.3 -67.85)scale(.0031)"/><use xlink:href="#b" transform="rotate(193.219 18.118 -.837)scale(.00396)"/><use xlink:href="#b" transform="rotate(129.575 17.813 9.497)scale(.00318)"/><use xlink:href="#b" transform="rotate(121.493 17.897 11.19)scale(.00353)"/><use xlink:href="#b" transform="rotate(-4.088 37.604 -500.395)scale(.00393)"/><use xlink:href="#b" transform="rotate(76.782 17.439 24.087)scale(.00261)"/><use xlink:href="#b" transform="rotate(67.348 17.365 28.588)scale(.00295)"/><use xlink:href="#b" transform="rotate(31.69 15.998 65.716)scale(.00383)"/><use xlink:href="#b" transform="rotate(-24.431 22.964 -83.816)scale(.00303)"/><use xlink:href="#b" transform="rotate(190.348 19.021 -.314)scale(.00272)"/><use xlink:href="#b" transform="rotate(98.237 18.184 17.554)scale(.0027)"/><use xlink:href="#b" transform="rotate(-97.891 20.04 -14.762)scale(.00388)"/><use xlink:href="#b" transform="rotate(-78.9 20.559 -21.476)scale(.00283)"/><use xlink:href="#b" transform="rotate(59.215 17.722 34.95)scale(.00403)"/><use xlink:href="#b" transform="rotate(-44.01 22.352 -45.808)scale(.00275)"/><use xlink:href="#b" transform="rotate(192.831 19.845 -.451)scale(.00395)"/><use xlink:href="#b" transform="rotate(187.784 19.864 .363)scale(.003)"/><use xlink:href="#b" transform="rotate(-65.582 21.847 -28.551)scale(.00277)"/><use xlink:href="#b" transform="rotate(-11.943 32.22 -185.216)scale(.0033)"/><use xlink:href="#b" transform="rotate(-65.206 22.207 -28.983)scale(.00298)"/><use xlink:href="#b" transform="rotate(56.807 17.727 38.46)scale(.00343)"/><use xlink:href="#b" transform="rotate(187.923 20.495 .603)scale(.00386)"/><use xlink:href="#b" transform="rotate(217.935 20.962 -4.951)scale(.00275)"/><use xlink:href="#b" transform="rotate(245.677 21.588 -10.896)scale(.00383)"/><use xlink:href="#b" transform="rotate(79.573 18.74 26.421)scale(.0029)"/><use xlink:href="#b" transform="rotate(-90.157 22.449 -18.121)scale(.00361)"/><use xlink:href="#b" transform="rotate(-50.084 24.54 -41.563)scale(.00374)"/><use xlink:href="#b" transform="rotate(-68.195 23.675 -28.293)scale(.00261)"/><use xlink:href="#b" transform="rotate(-95.074 22.819 -16.552)scale(.0039)"/><use xlink:href="#b" transform="rotate(182.71 21.306 1.867)scale(.00302)"/><use xlink:href="#b" transform="rotate(-33.775 27.824 -66.684)scale(.0027)"/><use xlink:href="#b" transform="rotate(183.857 21.58 1.819)scale(.00375)"/><use xlink:href="#b" transform="rotate(14.146 5.436 172.855)scale(.00384)"/><use xlink:href="#b" transform="rotate(.923 -245.75 2648.575)scale(.00281)"/><use xlink:href="#b" transform="rotate(182.541 21.915 2.259)scale(.00386)"/><use xlink:href="#b" transform="rotate(-4.892 75.55 -501.361)scale(.00267)"/><use xlink:href="#b" transform="rotate(27.732 12.5 90.325)scale(.00272)"/><use xlink:href="#b" transform="rotate(-42.304 28.236 -53.202)scale(.00306)"/><use xlink:href="#b" transform="rotate(215.996 23.01 -4.141)scale(.00333)"/><use xlink:href="#b" transform="rotate(172.352 22.172 4.47)scale(.00342)"/><use xlink:href="#b" transform="rotate(-35.37 30.527 -66.017)scale(.00279)"/><use xlink:href="#b" transform="rotate(-52.441 27.821 -41.619)scale(.0037)"/><use xlink:href="#b" transform="rotate(69.113 18.768 35.432)scale(.00354)"/><use xlink:href="#b" transform="rotate(-2.325 159.083 -1095.589)scale(.00343)"/><use xlink:href="#b" transform="rotate(220.167 23.86 -4.91)scale(.0026)"/><use xlink:href="#b" transform="rotate(-83.075 26.226 -21.922)scale(.00363)"/><use xlink:href="#b" transform="rotate(-13.77 48.002 -183.909)scale(.0029)"/><use xlink:href="#b" transform="rotate(71.454 18.786 35.103)scale(.0027)"/><use xlink:href="#b" transform="rotate(109.122 20.992 19.83)scale(.00321)"/><use xlink:href="#b" transform="rotate(1.338 -250.768 1962.943)scale(.0032)"/><use xlink:href="#b" transform="rotate(-40.367 32.278 -58.628)scale(.0036)"/><use xlink:href="#b" transform="rotate(-55.104 29.926 -40.245)scale(.0039)"/><use xlink:href="#b" transform="rotate(-97.225 26.686 -16.424)scale(.00368)"/><use xlink:href="#b" transform="rotate(180.297 23.799 4.035)scale(.00384)"/><use xlink:href="#b" transform="rotate(-19.535 44.766 -131.562)scale(.00397)"/><use xlink:href="#b" transform="rotate(100.661 20.971 23.78)scale(.004)"/><use xlink:href="#b" transform="rotate(145.092 22.935 11.814)scale(.00384)"/><use xlink:href="#b" transform="rotate(59.158 17.381 46.272)scale(.0039)"/><use xlink:href="#b" transform="rotate(-84.772 28.72 -21.613)scale(.00316)"/><use xlink:href="#b" transform="rotate(-17.316 51.191 -152.29)scale(.00399)"/><use xlink:href="#b" transform="rotate(-68.18 30.738 -30.812)scale(.00325)"/><use xlink:href="#b" transform="rotate(141.065 23.015 13.317)scale(.00283)"/><use xlink:href="#b" transform="rotate(-22.01 47.201 -119.599)scale(.00334)"/><use xlink:href="#b" transform="rotate(255.591 28.223 -13.868)scale(.00326)"/><use xlink:href="#b" transform="rotate(46.511 14.17 61.836)scale(.0031)"/><use xlink:href="#b" transform="rotate(-50.168 34.877 -47.195)scale(.00293)"/><use xlink:href="#b" transform="rotate(188.525 25.313 3.367)scale(.00282)"/><use xlink:href="#b" transform="rotate(205.335 26.108 -.28)scale(.00265)"/><use xlink:href="#b" transform="rotate(-4.895 139.909 -572.603)scale(.00298)"/><use xlink:href="#b" transform="rotate(28.024 5.341 104.694)scale(.00345)"/><use xlink:href="#b" transform="rotate(-14.411 65.618 -191.247)scale(.0028)"/><use xlink:href="#b" transform="rotate(80.652 19.232 35.007)scale(.00286)"/><use xlink:href="#b" transform="rotate(110.847 21.753 22.935)scale(.00266)"/><use xlink:href="#b" transform="rotate(215.237 27.193 -2.133)scale(.00332)"/><use xlink:href="#b" transform="rotate(211.989 27.119 -1.315)scale(.00303)"/><use xlink:href="#b" transform="rotate(-57.212 35.752 -40.267)scale(.00303)"/><use xlink:href="#b" transform="rotate(93.873 20.421 29.703)scale(.0027)"/><use xlink:href="#b" transform="rotate(145.693 23.992 13.965)scale(.00279)"/><use xlink:href="#b" transform="rotate(81.198 19.222 35.925)scale(.00382)"/><use xlink:href="#b" transform="rotate(-66.133 34.971 -32.859)scale(.00286)"/><use xlink:href="#b" transform="rotate(-15.984 68.303 -175.381)scale(.00373)"/><use xlink:href="#b" transform="rotate(135.593 23.645 17.071)scale(.00359)"/><use xlink:href="#b" transform="rotate(49.445 12.634 62.582)scale(.0028)"/><use xlink:href="#b" transform="rotate(218.502 28.45 -2.176)scale(.0037)"/><use xlink:href="#b" transform="rotate(162.641 25.346 10.855)scale(.00338)"/><use xlink:href="#b" transform="rotate(220.122 28.756 -2.473)scale(.00324)"/><use xlink:href="#b" transform="rotate(-40.66 44.292 -63.148)scale(.00302)"/><use xlink:href="#b" transform="rotate(47.524 11.332 66.411)scale(.00341)"/><use xlink:href="#b" transform="rotate(17.996 -16.72 172.568)scale(.0026)"/><use xlink:href="#b" transform="rotate(31.089 1.901 101.543)scale(.00342)"/><use xlink:href="#b" transform="rotate(204.241 28.19 1.839)scale(.00299)"/><use xlink:href="#b" transform="rotate(-28.29 55.034 -97.013)scale(.0027)"/><use xlink:href="#b" transform="rotate(-1.483 583.382 -2031.011)scale(.00305)"/><use xlink:href="#b" transform="rotate(-81.702 35.31 -22.678)scale(.00383)"/><use xlink:href="#b" transform="rotate(134.806 23.836 18.936)scale(.00304)"/><use xlink:href="#b" transform="rotate(120.819 22.784 23.133)scale(.00373)"/><use xlink:href="#b" transform="rotate(-76.704 36.732 -25.436)scale(.00366)"/><use xlink:href="#b" transform="rotate(-63.846 39.608 -34.617)scale(.00302)"/><use xlink:href="#b" transform="rotate(221.675 30.201 -1.767)scale(.0036)"/><use xlink:href="#b" transform="rotate(200.711 28.696 3.574)scale(.00304)"/><use xlink:href="#b" transform="rotate(-90.268 35.362 -18.116)scale(.00337)"/><use xlink:href="#b" transform="rotate(11.85 -51.795 268.068)scale(.00323)"/><use xlink:href="#b" transform="rotate(239.878 32.186 -6.758)scale(.00285)"/><use xlink:href="#b" transform="rotate(-78.898 37.691 -23.84)scale(.00363)"/><use xlink:href="#b" transform="rotate(218.129 30.49 -.253)scale(.0037)"/><use xlink:href="#b" transform="rotate(91.082 19.045 35.795)scale(.00318)"/><use xlink:href="#b" transform="rotate(239.141 32.601 -6.134)scale(.0032)"/><use xlink:href="#b" transform="rotate(222.516 31.095 -1.258)scale(.00265)"/><use xlink:href="#b" transform="rotate(57.032 11.252 59.659)scale(.00382)"/><use xlink:href="#b" transform="rotate(10.381 -73.084 310.56)scale(.00279)"/><use xlink:href="#b" transform="rotate(-51.03 47.145 -47.644)scale(.00294)"/><use xlink:href="#b" transform="rotate(40.546 2.722 83.945)scale(.00392)"/><use xlink:href="#b" transform="rotate(70.72 14.456 48.645)scale(.00275)"/><use xlink:href="#b" transform="rotate(227.006 32.097 -1.842)scale(.00352)"/><use xlink:href="#b" transform="rotate(68.771 13.87 50.42)scale(.00373)"/><use xlink:href="#b" transform="rotate(-32.75 61.516 -83.578)scale(.00295)"/><use xlink:href="#b" transform="rotate(-26.164 70.927 -108.552)scale(.00268)"/><use xlink:href="#b" transform="rotate(138.26 24.19 21.032)scale(.00264)"/><use xlink:href="#b" transform="rotate(-53.085 48.423 -44.885)scale(.00262)"/><use xlink:href="#b" transform="rotate(82.987 16.504 42.028)scale(.00278)"/><use xlink:href="#b" transform="rotate(-1.317 926.35 -2400.15)scale(.00334)"/><use xlink:href="#b" transform="rotate(233.107 33.455 -2.829)scale(.00394)"/><use xlink:href="#b" transform="rotate(-67.752 44.032 -30.377)scale(.00287)"/><use xlink:href="#b" transform="rotate(76.693 14.778 46.386)scale(.00353)"/><use xlink:href="#b" transform="rotate(105.924 20.22 32.397)scale(.00405)"/><use xlink:href="#b" transform="rotate(-7.772 189.964 -399.097)scale(.00336)"/><use xlink:href="#b" transform="rotate(-38.35 60.36 -68.828)scale(.00277)"/><use xlink:href="#b" transform="rotate(221.401 32.605 1.099)scale(.0028)"/><use xlink:href="#b" transform="rotate(-60.317 47.886 -36.297)scale(.00336)"/><use xlink:href="#b" transform="rotate(-61.846 47.526 -34.673)scale(.00385)"/><use xlink:href="#b" transform="rotate(-27.35 76.07 -103.066)scale(.00335)"/><use xlink:href="#b" transform="rotate(133.878 23.583 24.209)scale(.00405)"/><use xlink:href="#b" transform="rotate(209.443 31.662 5.041)scale(.00372)"/><use xlink:href="#b" transform="rotate(246.989 36.481 -6.107)scale(.00313)"/><use xlink:href="#b" transform="rotate(125.418 22.298 27.125)scale(.00316)"/><use xlink:href="#b" transform="rotate(-2.846 519.755 -1118.112)scale(.00397)"/><use xlink:href="#b" transform="rotate(117.298 21.02 30.03)scale(.00297)"/><use xlink:href="#b" transform="rotate(-83.77 42.554 -18.43)scale(.00313)"/><use xlink:href="#b" transform="rotate(11.053 -102.149 304.721)scale(.00275)"/><use xlink:href="#b" transform="rotate(57.292 5.456 64.829)scale(.00388)"/><use xlink:href="#b" transform="rotate(-18.631 107.294 -158.906)scale(.00266)"/><use xlink:href="#b" transform="rotate(80.341 13.226 46.896)scale(.00274)"/><use xlink:href="#b" transform="rotate(133.526 23.054 25.696)scale(.0032)"/><use xlink:href="#b" transform="rotate(137.922 23.546 24.516)scale(.0026)"/><use xlink:href="#b" transform="rotate(52.848 1.928 70.643)scale(.00324)"/><use xlink:href="#b" transform="rotate(193.721 30.348 10.584)scale(.00383)"/><use xlink:href="#b" transform="rotate(225.96 34.492 2.18)scale(.00402)"/><use xlink:href="#b" transform="rotate(186.255 29.476 12.7)scale(.00347)"/><use xlink:href="#b" transform="rotate(-7.824 231.725 -399.716)scale(.00267)"/><use xlink:href="#b" transform="rotate(103.419 17.786 36.81)scale(.00399)"/><use xlink:href="#b" transform="rotate(185.684 29.467 13.274)scale(.00395)"/><use xlink:href="#b" transform="rotate(215.259 33.25 5.766)scale(.00327)"/></g><defs><filter id="a" width="57.314" height="57.319" x=".405" y=".396" color-interpolation-filters="sRGB" filterUnits="userSpaceOnUse"><feFlood flood-opacity="0" result="BackgroundImageFix"/><feBlend in="SourceGraphic" in2="BackgroundImageFix" result="shape"/><feTurbulence baseFrequency="0.38759690523147583 0.38759690523147583" numOctaves="3" result="noise" seed="9800" stitchTiles="stitch" type="fractalNoise"/><feColorMatrix in="noise" result="alphaNoise" type="luminanceToAlpha"/><feComponentTransfer in="alphaNoise" result="coloredNoise1"><feFuncA tableValues="0 0 0 0 0 0 0 0 0 0 0 0 0 0 1 1 1 1 1 1 1 1 1 1 1 1 1 1 1 1 1 1 1 1 1 1 0 0 0 0 0 0 0 0 0 0 0 0 0 0 0 0 0 0 0 0 0 0 0 0 0 0 0 0 0 0 0 0 0 0 0 0 0 0 0 0 0 0 0 0 0 0 0 0 0 0 0 0 0 0 0 0 0 0 0 0 0 0 0 0" type="discrete"/></feComponentTransfer><feComposite in="coloredNoise1" in2="shape" operator="in" result="noise1Clipped"/><feComponentTransfer in="alphaNoise" result="coloredNoise2"><feFuncA tableValues="0 0 0 0 0 0 0 0 0 0 0 0 0 0 0 0 0 0 0 0 0 0 0 0 0 0 0 0 0 0 0 0 0 0 0 0 0 0 0 0 0 0 0 0 0 0 0 0 0 0 0 0 0 0 0 0 0 0 0 0 0 0 0 0 1 1 1 1 1 1 1 1 1 1 1 1 1 1 1 1 1 1 1 1 1 1 0 0 0 0 0 0 0 0 0 0 0 0 0 0" type="discrete"/></feComponentTransfer><feComposite in="coloredNoise2" in2="shape" operator="in" result="noise2Clipped"/><feFlood flood-color="rgba(255, 255, 255, 0.75)" result="color1Flood"/><feComposite in="color1Flood" in2="noise1Clipped" operator="in" result="color1"/><feFlood flood-color="rgba(255, 255, 255, 0.25)" result="color2Flood"/><feComposite in="color2Flood" in2="noise2Clipped" operator="in" result="color2"/><feMerge result="effect1_noise_7_52"><feMergeNode in="shape"/><feMergeNode in="color1"/><feMergeNode in="color2"/></feMerge></filter><path id="b" fill="#538fdf" d="M103.731 283.547c6.621-2.184 9.076-2.199 12.39-.079 13.988 8.95 8.729 25.25-8.149 25.259-17.595.01-20.911-19.681-4.241-25.18m36.106-248.132c1.1-.236 2.675-.301 3.5-.144s3.179.568 5.23.914c7.235 1.22 11.612 10.512 8.167 17.34-3.81 7.552-12.019 14.056-15.875 12.577-4.987-1.914-3.234 3.777 3.207 10.413 4.24 4.37 6.271 4.754 6.271 1.192 0-1.05 1.285-3.385 2.856-5.19 1.63-1.876 3.404-5.597 4.131-8.667 1.601-6.76 3.464-8.621 10.045-10.033 9.951-2.134 18.212 3.11 16.383 10.398-.459 1.827.149 3.45 2.338 6.243 10.769 13.74 7.785 33.815-5.494 36.96-3.547.84-3.764 1.114-3.823 4.852-.034 2.178-.408 4.717-.83 5.642-.688 1.505.003 1.652 6.563 1.398 7.909-.307 10.168.395 13.447 4.177 3.101 3.577 5.645 2.627 6.656-2.485.894-4.519 6.487-10.271 9.987-10.271 2.245 0 3.338-2.575 1.853-4.364-8.349-10.061 7.785-32.704 21.156-29.688 5.967 1.346 10.697 6.951 10.762 12.752.017 1.54 1.138 5.05 2.491 7.8 6.504 13.222-5.554 28.994-16.081 21.032-2.853-2.158-2.94-2.037-2.94 4.078 0 6.589-3.905 10.951-10.788 12.052-2.981.477-4.116 1.277-5.274 3.723-.811 1.713-2.225 4.299-3.145 5.747-1.646 2.593-1.61 2.702 2.517 7.391 2.304 2.617 4.19 5.301 4.19 5.964s.737 2.683 1.637 4.488c3.174 6.361 2.099 20.025-1.574 20.025-.348 0-1.43 1.35-2.405 3s-2.422 3-3.216 3c-2.184 0-1.735 2.086 1.084 5.029 3.521 3.675 4.562 12.107 1.865 15.098-5.225 5.791-11.678 10.152-16.664 11.264-4.12.919-5.234 1.583-5.26 3.137-.135 8.13-4.562 13.128-13.122 14.818-6.837 1.35-7.61 3.233-2.105 5.126 12.781 4.394 15.315 15.49 4.865 21.303-5.921 3.293-10.016 3.252-14.927-.152-3.621-2.509-4.354-2.668-7.836-1.701-5.942 1.65-12.316 1.281-18.342-1.06-5.463-2.123-10.613-3.525-16.648-4.532-5.974-.997-9.538-6.118-10.097-14.51-.408-6.134-.921-7.806-3.167-10.32-1.474-1.65-3.439-4.687-4.367-6.75-1.638-3.637-1.847-3.75-6.894-3.75-6.37 0-11.084-2.809-13.947-8.311-3.17-6.093-7.274-5.084-7.37 1.811-.037 2.75-.424 6.586-.859 8.524-.753 3.358-.637 3.569 2.449 4.5 10.063 3.035 9.961 20.691-.149 25.679-24.298 11.986-54.047-12.461-32.413-26.636 1.681-1.102 2.306-2.804 2.815-7.672.36-3.441 1.44-7.364 2.4-8.716a375 375 0 0 1 2.719-3.783c.693-.943.207-2.124-1.687-4.11-3.495-3.662-4.81-7.36-4.124-11.589.33-2.036.105-3.723-.552-4.129-.61-.377-1.109-1.954-1.11-3.505 0-1.55-.735-3.428-1.633-4.173-2.703-2.245-12.366-15.765-12.366-17.304 0-.788-1.574-3.495-3.498-6.015-1.924-2.521-3.44-4.918-3.366-5.327.973-5.497-2.826-8.55-7-5.627-2.218 1.554-9.25 1.428-13.607-.244-10.102-3.877-8.653-28.978 1.702-29.484 6.291-.307 14.769 2.931 14.769 5.641 0 1.757 2.773 4.47 4.57 4.47.786 0 1.43-.69 1.43-1.533 0-13.384 20.848-28.89 40.5-30.121 13.093-.822 18.425.42 27.352 6.37 4.261 2.84 11.148-2.563 11.148-8.746 0-2.041.835-4.23 2.146-5.626 2.251-2.396 1.321-5.344-1.687-5.344-2.393 0-5.24-6.189-4.719-10.26.969-7.587 13.556-11.704 19.212-6.285 2.35 2.252 3.419 2.622 5.956 2.065 3.809-.837 3.883-1.777.342-4.356-8.227-5.993-1.392-22.986 10.25-25.48m87.5 168.014c11.757-3.775 25.385 3.862 25.385 14.224 0 10.842-20.801 21.787-28.795 15.153-2.262-1.877-3.524-.443-2.915 3.312 1.085 6.684-7.501 18.613-13.396 18.613-13.37 0-18.816-8.499-13.159-20.533 3.745-7.967 9.996-10.414 18.781-7.351 4.298 1.498 4.642.84 2.683-5.15-2.869-8.772.969-14.914 11.416-18.268M179.7 192.695c-.651-.651-1.649-.282-2.926 1.084-8.404 8.989-11.711 9.934-20.268 5.792-6.76-3.273-10.056 1.888-4.545 7.118 2.248 2.133 2.521 3.055 2.077 6.993-.498 4.416-.374 4.662 4.644 9.285 5.154 4.749 5.155 4.749 5.669-.1.636-5.995 5.171-12.898 9.726-14.801 3.017-1.261 3.26-1.707 3.26-6.02 0-2.954.613-5.335 1.676-6.51 1.104-1.221 1.339-2.189.687-2.841m-165.965-8.998c7.495-3.335 12.2-2.472 18.37 3.369 8.46 8.008 4.924 18.546-7.474 22.277-15.224 4.582-25.336-19.219-10.896-25.646m239.221-35.446c9.173-2.519 14.854-1.048 18.027 4.67 6.414 11.557-13.631 27.998-23.804 19.524-10.086-8.401-7.163-20.64 5.777-24.194m-77.134 14.458c-.98-1.586-3.34-1.12-4.405.87-1.134 2.12-.033 7.334 1.669 7.902 1.28.424 3.675-7.252 2.736-8.772m-25.67-51.228c.34-2.955-.618-3.304-4.639-1.691-3.405 1.365-2.478 4.441 1.338 4.441 2.514 0 3.035-.435 3.301-2.75m6.685-12.75c-.825 0-1.5.675-1.5 1.5s.675 1.5 1.5 1.5 1.5-.675 1.5-1.5-.675-1.5-1.5-1.5m-25.5-13.093c0-2.838-1.846-4.238-3.908-2.964-.928.573-.744 1.616.756 4.286 1.088 1.94 2.131 4.5 2.315 5.689s.787 2.256 1.337 2.372c1.413.296 1.892-4.299.585-5.606-.597-.597-1.085-2.296-1.085-3.777m-51.5-48.717c10.045-5.672 23.056 9.928 15.821 18.971-3.456 4.319-4.454 8.089-3.788 14.308.662 6.184.612 6.364-2.833 10.163C76.04 94.7 55.153 78.5 64.824 61.583c1.515-2.65 2.493-5.938 2.5-8.408.016-5.47 5.092-12.063 12.513-16.254m41.059 41.81c-.243 0-.719.45-1.059 1s-.142 1 .44 1 1.06-.45 1.06-1-.198-1-.441-1m84.589-39.241c14.146-2.448 22.113 11.425 15.112 26.318-7.204 15.322-30.258 11.978-30.506-4.426-.111-7.306 9.418-20.858 15.394-21.892M51.837 14.554c12.608-8.69 23.843 4.813 16.787 20.177-6.239 13.586-27.287 9.044-27.287-5.889 0-2.809 6.316-11.404 10.5-14.288M108.212 2.17c13.218-8.981 33.334 11.922 25.025 26.004-1.153 1.956-2.418 3.556-2.81 3.557s-1.614.84-2.714 1.865c-8.257 7.691-19.927 2.18-24.346-11.497-3.215-9.953-1.904-15.343 4.845-19.929" data-figma-scatter="f0.28_w0_aj180_sj0.25_r0_s0_sw1" data-figma-scatter-ref="stroke0_7_52_ref"/></defs></svg>