<svg width="58" height="29" viewBox="0 0 58 29" fill="none" xmlns="http://www.w3.org/2000/svg" xmlns:xlink="http://www.w3.org/1999/xlink">
<g filter="url(#filter0_n_7_53)">
<path d="M57 28C57 24.4543 56.2758 20.9433 54.8686 17.6675C53.4615 14.3918 51.399 11.4153 48.799 8.90812C46.1989 6.40093 43.1123 4.41213 39.7151 3.05525C36.318 1.69838 32.677 1 29 1C25.323 1 21.682 1.69838 18.2849 3.05525C14.8877 4.41213 11.801 6.40094 9.20101 8.90812C6.60097 11.4153 4.5385 14.3918 3.13137 17.6675C1.72424 20.9433 1 24.4543 1 28L57 28Z" fill="#538FDF"/>
<use xlink:href="#stroke0_7_53" transform="translate(56.966 27.2353) scale(0.00371918) rotate(38.8604)"/>
<use xlink:href="#stroke0_7_53" transform="translate(56.9093 28.5115) scale(0.00392519) rotate(-132.264)"/>
<use xlink:href="#stroke0_7_53" transform="translate(56.5775 27.9459) scale(0.00319382) rotate(-99.2787)"/>
<use xlink:href="#stroke0_7_53" transform="translate(56.8625 26.6237) scale(0.00289207) rotate(29.2398)"/>
<use xlink:href="#stroke0_7_53" transform="translate(57.2754 26.4972) scale(0.00278742) rotate(72.351)"/>
<use xlink:href="#stroke0_7_53" transform="translate(56.7335 26.2886) scale(0.00266041) rotate(15.6462)"/>
<use xlink:href="#stroke0_7_53" transform="translate(56.206 26.7394) scale(0.00378885) rotate(-63.6953)"/>
<use xlink:href="#stroke0_7_53" transform="translate(56.6197 26.7458) scale(0.00272273) rotate(-103.272)"/>
<use xlink:href="#stroke0_7_53" transform="translate(57.4913 26.111) scale(0.0027352) rotate(134.453)"/>
<use xlink:href="#stroke0_7_53" transform="translate(56.878 26.5002) scale(0.00312228) rotate(-135.581)"/>
<use xlink:href="#stroke0_7_53" transform="translate(56.9947 24.8691) scale(0.00360347) rotate(49.565)"/>
<use xlink:href="#stroke0_7_53" transform="translate(57.664 25.5171) scale(0.00402444) rotate(145.608)"/>
<use xlink:href="#stroke0_7_53" transform="translate(57.1117 25.7549) scale(0.00384699) rotate(-159.562)"/>
<use xlink:href="#stroke0_7_53" transform="translate(56.0261 24.6422) scale(0.00375273) rotate(-42.2109)"/>
<use xlink:href="#stroke0_7_53" transform="translate(56.6115 25.2536) scale(0.00404508) rotate(-128.696)"/>
<use xlink:href="#stroke0_7_53" transform="translate(56.1558 24.0448) scale(0.00280229) rotate(-35.5305)"/>
<use xlink:href="#stroke0_7_53" transform="translate(55.8907 23.8116) scale(0.00386939) rotate(-40.4899)"/>
<use xlink:href="#stroke0_7_53" transform="translate(57.004 22.9628) scale(0.00374347) rotate(70.2639)"/>
<use xlink:href="#stroke0_7_53" transform="translate(56.3785 23.9418) scale(0.00287306) rotate(-117.772)"/>
<use xlink:href="#stroke0_7_53" transform="translate(56.7071 23.8687) scale(0.00359679) rotate(-151.33)"/>
<use xlink:href="#stroke0_7_53" transform="translate(56.5962 22.096) scale(0.00379677) rotate(49.2169)"/>
<use xlink:href="#stroke0_7_53" transform="translate(55.9447 23.1745) scale(0.00369678) rotate(-98.7448)"/>
<use xlink:href="#stroke0_7_53" transform="translate(56.757 22.7449) scale(0.0026328) rotate(177.477)"/>
<use xlink:href="#stroke0_7_53" transform="translate(56.0294 21.3605) scale(0.00392122) rotate(19.8501)"/>
<use xlink:href="#stroke0_7_53" transform="translate(56.9908 21.8886) scale(0.00356125) rotate(135.706)"/>
<use xlink:href="#stroke0_7_53" transform="translate(55.538 21.3677) scale(0.00335769) rotate(-30.9042)"/>
<use xlink:href="#stroke0_7_53" transform="translate(56.1768 22.0587) scale(0.00358997) rotate(-142.233)"/>
<use xlink:href="#stroke0_7_53" transform="translate(55.2912 20.9439) scale(0.00375649) rotate(-40.6202)"/>
<use xlink:href="#stroke0_7_53" transform="translate(55.5735 20.4826) scale(0.00260244) rotate(-9.84091)"/>
<use xlink:href="#stroke0_7_53" transform="translate(56.2615 21.0872) scale(0.00277117) rotate(-173.66)"/>
<use xlink:href="#stroke0_7_53" transform="translate(55.3356 20.9374) scale(0.00371563) rotate(-95.0033)"/>
<use xlink:href="#stroke0_7_53" transform="translate(55.5064 20.798) scale(0.00355886) rotate(-116.61)"/>
<use xlink:href="#stroke0_7_53" transform="translate(55.8192 20.4442) scale(0.00274729) rotate(-150.039)"/>
<use xlink:href="#stroke0_7_53" transform="translate(56.1307 19.4491) scale(0.00265585) rotate(104.72)"/>
<use xlink:href="#stroke0_7_53" transform="translate(55.7601 18.9402) scale(0.00284643) rotate(59.8355)"/>
<use xlink:href="#stroke0_7_53" transform="translate(56.069 19.0074) scale(0.00306933) rotate(105.532)"/>
<use xlink:href="#stroke0_7_53" transform="translate(55.2955 19.7488) scale(0.00344992) rotate(-128.768)"/>
<use xlink:href="#stroke0_7_53" transform="translate(55.0333 18.2844) scale(0.00297691) rotate(12.2568)"/>
<use xlink:href="#stroke0_7_53" transform="translate(55.9194 18.5687) scale(0.00326952) rotate(128.994)"/>
<use xlink:href="#stroke0_7_53" transform="translate(55.6999 18.267) scale(0.00266323) rotate(118.829)"/>
<use xlink:href="#stroke0_7_53" transform="translate(55.1108 18.7348) scale(0.00260035) rotate(-140.769)"/>
<use xlink:href="#stroke0_7_53" transform="translate(55.5867 18.2037) scale(0.00296792) rotate(150.609)"/>
<use xlink:href="#stroke0_7_53" transform="translate(55.3469 18.4546) scale(0.00400364) rotate(-170.848)"/>
<use xlink:href="#stroke0_7_53" transform="translate(55.4151 17.476) scale(0.00298605) rotate(127.945)"/>
<use xlink:href="#stroke0_7_53" transform="translate(53.9684 17.6355) scale(0.00394732) rotate(-75.2108)"/>
<use xlink:href="#stroke0_7_53" transform="translate(55.1035 16.4069) scale(0.00387368) rotate(83.3073)"/>
<use xlink:href="#stroke0_7_53" transform="translate(53.9328 16.7984) scale(0.00259523) rotate(-50.8857)"/>
<use xlink:href="#stroke0_7_53" transform="translate(53.8277 17.1409) scale(0.00384712) rotate(-96.3631)"/>
<use xlink:href="#stroke0_7_53" transform="translate(53.7803 16.7473) scale(0.00306847) rotate(-91.4121)"/>
<use xlink:href="#stroke0_7_53" transform="translate(54.7769 15.5697) scale(0.00402478) rotate(93.6655)"/>
<use xlink:href="#stroke0_7_53" transform="translate(54.1488 15.0871) scale(0.00363415) rotate(53.8366)"/>
<use xlink:href="#stroke0_7_53" transform="translate(53.1375 15.336) scale(0.00367841) rotate(-30.4878)"/>
<use xlink:href="#stroke0_7_53" transform="translate(52.9473 15.2264) scale(0.00378739) rotate(-41.5885)"/>
<use xlink:href="#stroke0_7_53" transform="translate(54.2745 14.8033) scale(0.00360838) rotate(109.915)"/>
<use xlink:href="#stroke0_7_53" transform="translate(52.6713 15.0905) scale(0.00395299) rotate(-67.6195)"/>
<use xlink:href="#stroke0_7_53" transform="translate(53.7595 14.9819) scale(0.00286665) rotate(171.611)"/>
<use xlink:href="#stroke0_7_53" transform="translate(53.1527 15.1919) scale(0.00395603) rotate(-137.008)"/>
<use xlink:href="#stroke0_7_53" transform="translate(52.7963 13.6622) scale(0.0027056) rotate(15.1494)"/>
<use xlink:href="#stroke0_7_53" transform="translate(52.398 13.9654) scale(0.00261353) rotate(-46.0206)"/>
<use xlink:href="#stroke0_7_53" transform="translate(53.5904 13.8265) scale(0.0038306) rotate(134.641)"/>
<use xlink:href="#stroke0_7_53" transform="translate(51.8586 13.6991) scale(0.00389307) rotate(-60.3984)"/>
<use xlink:href="#stroke0_7_53" transform="translate(52.4723 14) scale(0.00338074) rotate(-137.2)"/>
<use xlink:href="#stroke0_7_53" transform="translate(52.8949 12.7748) scale(0.00308129) rotate(100.482)"/>
<use xlink:href="#stroke0_7_53" transform="translate(52.7041 12.4435) scale(0.00326377) rotate(88.3626)"/>
<use xlink:href="#stroke0_7_53" transform="translate(52.4461 11.9916) scale(0.00384584) rotate(70.8737)"/>
<use xlink:href="#stroke0_7_53" transform="translate(52.3047 11.8705) scale(0.00347144) rotate(76.5546)"/>
<use xlink:href="#stroke0_7_53" transform="translate(51.8145 11.5844) scale(0.00324659) rotate(47.6767)"/>
<use xlink:href="#stroke0_7_53" transform="translate(51.1384 12.5778) scale(0.00338619) rotate(-98.2561)"/>
<use xlink:href="#stroke0_7_53" transform="translate(51.4989 12.4355) scale(0.00281266) rotate(-143.856)"/>
<use xlink:href="#stroke0_7_53" transform="translate(51.2244 12.4106) scale(0.00363773) rotate(-133.219)"/>
<use xlink:href="#stroke0_7_53" transform="translate(51.8593 11.3147) scale(0.00364249) rotate(121.141)"/>
<use xlink:href="#stroke0_7_53" transform="translate(50.1588 10.9364) scale(0.00402804) rotate(-28.4853)"/>
<use xlink:href="#stroke0_7_53" transform="translate(51.313 11.1746) scale(0.00272562) rotate(147.031)"/>
<use xlink:href="#stroke0_7_53" transform="translate(50.9111 11.3934) scale(0.00292587) rotate(-166.027)"/>
<use xlink:href="#stroke0_7_53" transform="translate(50.2078 11.15) scale(0.00260133) rotate(-105.962)"/>
<use xlink:href="#stroke0_7_53" transform="translate(50.7454 10.9508) scale(0.00270553) rotate(178.033)"/>
<use xlink:href="#stroke0_7_53" transform="translate(49.964 9.69487) scale(0.00348352) rotate(21.637)"/>
<use xlink:href="#stroke0_7_53" transform="translate(49.8813 10.7079) scale(0.00261594) rotate(-120.24)"/>
<use xlink:href="#stroke0_7_53" transform="translate(49.4026 10.2376) scale(0.00265345) rotate(-68.8406)"/>
<use xlink:href="#stroke0_7_53" transform="translate(49.1408 9.46098) scale(0.00358905) rotate(-14.5503)"/>
<use xlink:href="#stroke0_7_53" transform="translate(49.1755 10.2011) scale(0.00316277) rotate(-100.649)"/>
<use xlink:href="#stroke0_7_53" transform="translate(49.2798 10.1003) scale(0.00288695) rotate(-125.374)"/>
<use xlink:href="#stroke0_7_53" transform="translate(48.7993 9.08279) scale(0.00266998) rotate(-16.9961)"/>
<use xlink:href="#stroke0_7_53" transform="translate(49.7722 9.0657) scale(0.00330905) rotate(119.229)"/>
<use xlink:href="#stroke0_7_53" transform="translate(49.2101 8.54431) scale(0.00276766) rotate(69.5218)"/>
<use xlink:href="#stroke0_7_53" transform="translate(48.2625 8.77981) scale(0.00264847) rotate(-35.5483)"/>
<use xlink:href="#stroke0_7_53" transform="translate(48.7321 9.31944) scale(0.00274781) rotate(-147.466)"/>
<use xlink:href="#stroke0_7_53" transform="translate(49.0241 8.35623) scale(0.00288664) rotate(105.749)"/>
<use xlink:href="#stroke0_7_53" transform="translate(48.9806 8.02399) scale(0.00387369) rotate(100.085)"/>
<use xlink:href="#stroke0_7_53" transform="translate(48.7696 8.60375) scale(0.00376503) rotate(159.176)"/>
<use xlink:href="#stroke0_7_53" transform="translate(47.5833 8.63234) scale(0.00311462) rotate(-110.202)"/>
<use xlink:href="#stroke0_7_53" transform="translate(47.2056 7.75939) scale(0.00263849) rotate(-30.9322)"/>
<use xlink:href="#stroke0_7_53" transform="translate(47.6749 8.42024) scale(0.00316515) rotate(-149.167)"/>
<use xlink:href="#stroke0_7_53" transform="translate(46.8236 7.71394) scale(0.00274719) rotate(-56.6888)"/>
<use xlink:href="#stroke0_7_53" transform="translate(47.8667 7.39562) scale(0.00323122) rotate(123.369)"/>
<use xlink:href="#stroke0_7_53" transform="translate(47.4399 6.61884) scale(0.00401141) rotate(74.0567)"/>
<use xlink:href="#stroke0_7_53" transform="translate(46.7416 6.60922) scale(0.00266427) rotate(35.7182)"/>
<use xlink:href="#stroke0_7_53" transform="translate(46.3648 6.3798) scale(0.0033156) rotate(19.7214)"/>
<use xlink:href="#stroke0_7_53" transform="translate(45.6723 6.93998) scale(0.00360138) rotate(-55.3624)"/>
<use xlink:href="#stroke0_7_53" transform="translate(46.6486 7.16709) scale(0.00314494) rotate(177.942)"/>
<use xlink:href="#stroke0_7_53" transform="translate(45.289 6.94226) scale(0.00392366) rotate(-78.7524)"/>
<use xlink:href="#stroke0_7_53" transform="translate(45.9323 5.74784) scale(0.00316128) rotate(55.9442)"/>
<use xlink:href="#stroke0_7_53" transform="translate(45.5408 6.93731) scale(0.00343116) rotate(-136.665)"/>
<use xlink:href="#stroke0_7_53" transform="translate(45.4075 5.30229) scale(0.00376533) rotate(46.4077)"/>
<use xlink:href="#stroke0_7_53" transform="translate(45.2373 6.48412) scale(0.00271561) rotate(-149.016)"/>
<use xlink:href="#stroke0_7_53" transform="translate(45.0501 5.19077) scale(0.00305241) rotate(50.2034)"/>
<use xlink:href="#stroke0_7_53" transform="translate(44.1915 6.26131) scale(0.00391245) rotate(-96.3673)"/>
<use xlink:href="#stroke0_7_53" transform="translate(44.7012 4.82288) scale(0.00349237) rotate(58.0094)"/>
<use xlink:href="#stroke0_7_53" transform="translate(43.8439 4.77455) scale(0.00354741) rotate(5.77821)"/>
<use xlink:href="#stroke0_7_53" transform="translate(43.4921 5.07211) scale(0.00288069) rotate(-32.2755)"/>
<use xlink:href="#stroke0_7_53" transform="translate(44.4891 5.48559) scale(0.00360119) rotate(161.839)"/>
<use xlink:href="#stroke0_7_53" transform="translate(43.3333 4.51641) scale(0.00273418) rotate(8.0323)"/>
<use xlink:href="#stroke0_7_53" transform="translate(42.8907 4.37985) scale(0.00354825) rotate(-6.93101)"/>
<use xlink:href="#stroke0_7_53" transform="translate(43.3868 5.34556) scale(0.00305465) rotate(-154.163)"/>
<use xlink:href="#stroke0_7_53" transform="translate(42.6066 4.17427) scale(0.00297295) rotate(-0.830748)"/>
<use xlink:href="#stroke0_7_53" transform="translate(43.3135 4.82622) scale(0.00279768) rotate(163.43)"/>
<use xlink:href="#stroke0_7_53" transform="translate(42.7641 5.1648) scale(0.00378985) rotate(-150.39)"/>
<use xlink:href="#stroke0_7_53" transform="translate(41.8684 4.45388) scale(0.00265177) rotate(-66.4821)"/>
<use xlink:href="#stroke0_7_53" transform="translate(42.2696 4.87467) scale(0.00340229) rotate(-145.698)"/>
<use xlink:href="#stroke0_7_53" transform="translate(42.3169 3.50836) scale(0.00321929) rotate(74.1882)"/>
<use xlink:href="#stroke0_7_53" transform="translate(41.1474 4.48458) scale(0.0038133) rotate(-91.9328)"/>
<use xlink:href="#stroke0_7_53" transform="translate(41.6897 3.30387) scale(0.00275899) rotate(61.6872)"/>
<use xlink:href="#stroke0_7_53" transform="translate(41.027 3.1389) scale(0.00318149) rotate(17.8659)"/>
<use xlink:href="#stroke0_7_53" transform="translate(40.9422 4.25121) scale(0.00304234) rotate(-126.49)"/>
<use xlink:href="#stroke0_7_53" transform="translate(40.7491 2.83106) scale(0.00346018) rotate(33.4225)"/>
<use xlink:href="#stroke0_7_53" transform="translate(40.165 3.11909) scale(0.00275165) rotate(-14.0818)"/>
<use xlink:href="#stroke0_7_53" transform="translate(40.1504 2.85566) scale(0.002801) rotate(11.506)"/>
<use xlink:href="#stroke0_7_53" transform="translate(39.7838 2.98845) scale(0.00264337) rotate(-16.9502)"/>
<use xlink:href="#stroke0_7_53" transform="translate(40.1359 3.77799) scale(0.00287242) rotate(-146.664)"/>
<use xlink:href="#stroke0_7_53" transform="translate(39.3965 3.79577) scale(0.00396213) rotate(-107.968)"/>
<use xlink:href="#stroke0_7_53" transform="translate(38.9717 2.79938) scale(0.00303239) rotate(-30.2834)"/>
<use xlink:href="#stroke0_7_53" transform="translate(39.2248 2.30456) scale(0.00301337) rotate(29.816)"/>
<use xlink:href="#stroke0_7_53" transform="translate(39.5266 2.22398) scale(0.00353156) rotate(75.7929)"/>
<use xlink:href="#stroke0_7_53" transform="translate(38.6026 2.28445) scale(0.00264084) rotate(8.80757)"/>
<use xlink:href="#stroke0_7_53" transform="translate(38.7753 3.31194) scale(0.00316055) rotate(-146.359)"/>
<use xlink:href="#stroke0_7_53" transform="translate(38.8462 3.06547) scale(0.00295211) rotate(-177.141)"/>
<use xlink:href="#stroke0_7_53" transform="translate(37.7306 3.14567) scale(0.00391431) rotate(-101.191)"/>
<use xlink:href="#stroke0_7_53" transform="translate(37.7663 1.65255) scale(0.00379388) rotate(28.4765)"/>
<use xlink:href="#stroke0_7_53" transform="translate(38.3616 2.63413) scale(0.00367838) rotate(155.35)"/>
<use xlink:href="#stroke0_7_53" transform="translate(37.539 2.97605) scale(0.00361242) rotate(-149.038)"/>
<use xlink:href="#stroke0_7_53" transform="translate(37.6457 2.45459) scale(0.00265495) rotate(161.996)"/>
<use xlink:href="#stroke0_7_53" transform="translate(37.0783 2.68624) scale(0.00280339) rotate(-148.844)"/>
<use xlink:href="#stroke0_7_53" transform="translate(36.6688 1.50039) scale(0.00276806) rotate(31.0381)"/>
<use xlink:href="#stroke0_7_53" transform="translate(37.1294 1.70086) scale(0.00315516) rotate(103.87)"/>
<use xlink:href="#stroke0_7_53" transform="translate(36.1711 2.74025) scale(0.00397305) rotate(-130.165)"/>
<use xlink:href="#stroke0_7_53" transform="translate(36.6208 1.90269) scale(0.00282837) rotate(134.89)"/>
<use xlink:href="#stroke0_7_53" transform="translate(35.1149 1.57957) scale(0.00353168) rotate(-30.1615)"/>
<use xlink:href="#stroke0_7_53" transform="translate(35.931 1.28841) scale(0.00286798) rotate(79.4676)"/>
<use xlink:href="#stroke0_7_53" transform="translate(35.579 2.35372) scale(0.00339098) rotate(-159.094)"/>
<use xlink:href="#stroke0_7_53" transform="translate(34.8122 2.25348) scale(0.00324162) rotate(-114.209)"/>
<use xlink:href="#stroke0_7_53" transform="translate(35.6193 1.38443) scale(0.00402477) rotate(117.105)"/>
<use xlink:href="#stroke0_7_53" transform="translate(35.0593 1.76649) scale(0.00263037) rotate(156.229)"/>
<use xlink:href="#stroke0_7_53" transform="translate(33.9153 1.20093) scale(0.00264922) rotate(-15.1692)"/>
<use xlink:href="#stroke0_7_53" transform="translate(34.8705 1.54077) scale(0.00358876) rotate(137.823)"/>
<use xlink:href="#stroke0_7_53" transform="translate(34.5728 1.71579) scale(0.00376733) rotate(154.642)"/>
<use xlink:href="#stroke0_7_53" transform="translate(33.1845 1.06104) scale(0.00259927) rotate(-13.2854)"/>
<use xlink:href="#stroke0_7_53" transform="translate(32.862 0.86031) scale(0.00345507) rotate(-6.79657)"/>
<use xlink:href="#stroke0_7_53" transform="translate(32.5949 1.58787) scale(0.00303271) rotate(-76.2841)"/>
<use xlink:href="#stroke0_7_53" transform="translate(32.2801 1.15398) scale(0.00313165) rotate(-38.6564)"/>
<use xlink:href="#stroke0_7_53" transform="translate(32.729 1.83494) scale(0.00292254) rotate(-142.677)"/>
<use xlink:href="#stroke0_7_53" transform="translate(32.4754 1.7486) scale(0.00262234) rotate(-138.484)"/>
<use xlink:href="#stroke0_7_53" transform="translate(31.7893 1.46015) scale(0.00271002) rotate(-78.1237)"/>
<use xlink:href="#stroke0_7_53" transform="translate(32.0447 0.619318) scale(0.00264484) rotate(38.5589)"/>
<use xlink:href="#stroke0_7_53" transform="translate(31.4588 0.683177) scale(0.00295644) rotate(0.229305)"/>
<use xlink:href="#stroke0_7_53" transform="translate(32.0618 1.57248) scale(0.0030335) rotate(177.914)"/>
<use xlink:href="#stroke0_7_53" transform="translate(31.2137 0.604381) scale(0.00260837) rotate(19.0519)"/>
<use xlink:href="#stroke0_7_53" transform="translate(31.0444 0.508707) scale(0.00290616) rotate(25.5549)"/>
<use xlink:href="#stroke0_7_53" transform="translate(31.5369 1.16251) scale(0.00266771) rotate(141.245)"/>
<use xlink:href="#stroke0_7_53" transform="translate(30.6684 1.7767) scale(0.00354257) rotate(-131.396)"/>
<use xlink:href="#stroke0_7_53" transform="translate(31.0718 0.896242) scale(0.00277333) rotate(116.839)"/>
<use xlink:href="#stroke0_7_53" transform="translate(29.9653 1.46838) scale(0.00271293) rotate(-100.399)"/>
<use xlink:href="#stroke0_7_53" transform="translate(29.9619 0.294814) scale(0.00356274) rotate(32.7989)"/>
<use xlink:href="#stroke0_7_53" transform="translate(29.5197 1.61616) scale(0.0032631) rotate(-112.836)"/>
<use xlink:href="#stroke0_7_53" transform="translate(29.0156 0.625883) scale(0.00324008) rotate(-13.8968)"/>
<use xlink:href="#stroke0_7_53" transform="translate(28.8096 1.05161) scale(0.0025954) rotate(-53.9239)"/>
<use xlink:href="#stroke0_7_53" transform="translate(29.8324 0.723877) scale(0.00382257) rotate(110.844)"/>
<use xlink:href="#stroke0_7_53" transform="translate(28.4971 0.475841) scale(0.00303104) rotate(8.65361)"/>
<use xlink:href="#stroke0_7_53" transform="translate(29.2003 1.0113) scale(0.00287043) rotate(132.246)"/>
<use xlink:href="#stroke0_7_53" transform="translate(27.5435 0.86054) scale(0.00397697) rotate(-38.2654)"/>
<use xlink:href="#stroke0_7_53" transform="translate(28.6069 0.778786) scale(0.00274913) rotate(106.818)"/>
<use xlink:href="#stroke0_7_53" transform="translate(28.0232 0.436953) scale(0.0029301) rotate(55.5235)"/>
<use xlink:href="#stroke0_7_53" transform="translate(27.4474 1.68726) scale(0.00331654) rotate(-122.354)"/>
<use xlink:href="#stroke0_7_53" transform="translate(28.074 1.4497) scale(0.00398256) rotate(160.886)"/>
<use xlink:href="#stroke0_7_53" transform="translate(27.1062 0.3553) scale(0.00344481) rotate(43.6892)"/>
<use xlink:href="#stroke0_7_53" transform="translate(26.2545 1.17311) scale(0.00287024) rotate(-57.6038)"/>
<use xlink:href="#stroke0_7_53" transform="translate(26.1201 1.61784) scale(0.00342785) rotate(-95.884)"/>
<use xlink:href="#stroke0_7_53" transform="translate(26.1574 1.66574) scale(0.00282952) rotate(-118.126)"/>
<use xlink:href="#stroke0_7_53" transform="translate(25.6365 1.41283) scale(0.00281136) rotate(-76.6715)"/>
<use xlink:href="#stroke0_7_53" transform="translate(25.3606 0.959249) scale(0.00293445) rotate(-28.8912)"/>
<use xlink:href="#stroke0_7_53" transform="translate(25.5348 0.54745) scale(0.00321268) rotate(27.2658)"/>
<use xlink:href="#stroke0_7_53" transform="translate(26.1909 1.1235) scale(0.0037049) rotate(124.149)"/>
<use xlink:href="#stroke0_7_53" transform="translate(24.3955 1.18922) scale(0.00370217) rotate(-43.5786)"/>
<use xlink:href="#stroke0_7_53" transform="translate(24.7531 1.80904) scale(0.00264668) rotate(-121.322)"/>
<use xlink:href="#stroke0_7_53" transform="translate(24.2025 1.91337) scale(0.00367547) rotate(-99.8)"/>
<use xlink:href="#stroke0_7_53" transform="translate(24.6667 0.81685) scale(0.00289019) rotate(64.9385)"/>
<use xlink:href="#stroke0_7_53" transform="translate(24.8079 1.00302) scale(0.00359364) rotate(98.7422)"/>
<use xlink:href="#stroke0_7_53" transform="translate(23.3029 1.95648) scale(0.00382772) rotate(-88.5622)"/>
<use xlink:href="#stroke0_7_53" transform="translate(22.9859 1.56853) scale(0.00320977) rotate(-54.6552)"/>
<use xlink:href="#stroke0_7_53" transform="translate(22.884 2.04768) scale(0.00346915) rotate(-93.1342)"/>
<use xlink:href="#stroke0_7_53" transform="translate(23.0318 2.25535) scale(0.00324127) rotate(-129.075)"/>
<use xlink:href="#stroke0_7_53" transform="translate(22.2494 1.52962) scale(0.00321919) rotate(-38.2799)"/>
<use xlink:href="#stroke0_7_53" transform="translate(23.1507 2.30052) scale(0.00381012) rotate(-179.271)"/>
<use xlink:href="#stroke0_7_53" transform="translate(23.1139 1.63242) scale(0.00372513) rotate(121.048)"/>
<use xlink:href="#stroke0_7_53" transform="translate(22.4021 1.30491) scale(0.00290706) rotate(70.1946)"/>
<use xlink:href="#stroke0_7_53" transform="translate(22.578 1.72266) scale(0.00349987) rotate(118.113)"/>
<use xlink:href="#stroke0_7_53" transform="translate(21.6892 1.37964) scale(0.00276962) rotate(45.7876)"/>
<use xlink:href="#stroke0_7_53" transform="translate(21.1697 1.43728) scale(0.00303832) rotate(16.6216)"/>
<use xlink:href="#stroke0_7_53" transform="translate(21.7366 1.83499) scale(0.00274828) rotate(107.583)"/>
<use xlink:href="#stroke0_7_53" transform="translate(21.4566 2.74512) scale(0.00377625) rotate(-176.424)"/>
<use xlink:href="#stroke0_7_53" transform="translate(21.2418 2.61204) scale(0.00319335) rotate(169.559)"/>
<use xlink:href="#stroke0_7_53" transform="translate(19.928 2.62306) scale(0.00321318) rotate(-80.1693)"/>
<use xlink:href="#stroke0_7_53" transform="translate(19.4875 2.43824) scale(0.00368118) rotate(-54.8874)"/>
<use xlink:href="#stroke0_7_53" transform="translate(20.6653 2.17639) scale(0.00358069) rotate(110.423)"/>
<use xlink:href="#stroke0_7_53" transform="translate(19.6921 3.05939) scale(0.0026592) rotate(-132.361)"/>
<use xlink:href="#stroke0_7_53" transform="translate(20.1951 3.04151) scale(0.00395593) rotate(164.496)"/>
<use xlink:href="#stroke0_7_53" transform="translate(19.4092 3.24256) scale(0.00280353) rotate(-152.551)"/>
<use xlink:href="#stroke0_7_53" transform="translate(19.3881 3.31818) scale(0.00315529) rotate(-169.305)"/>
<use xlink:href="#stroke0_7_53" transform="translate(18.4529 3.4416) scale(0.00340188) rotate(-106.751)"/>
<use xlink:href="#stroke0_7_53" transform="translate(17.9742 3.46102) scale(0.00381316) rotate(-89.7154)"/>
<use xlink:href="#stroke0_7_53" transform="translate(18.7225 2.63775) scale(0.00270128) rotate(85.7089)"/>
<use xlink:href="#stroke0_7_53" transform="translate(18.6718 3.48796) scale(0.00320227) rotate(165.398)"/>
<use xlink:href="#stroke0_7_53" transform="translate(17.9298 3.9217) scale(0.00343515) rotate(-141.699)"/>
<use xlink:href="#stroke0_7_53" transform="translate(18.3752 2.99522) scale(0.00395058) rotate(107.45)"/>
<use xlink:href="#stroke0_7_53" transform="translate(17.3557 2.81514) scale(0.0029955) rotate(38.2691)"/>
<use xlink:href="#stroke0_7_53" transform="translate(16.7985 4.18128) scale(0.00360572) rotate(-109.488)"/>
<use xlink:href="#stroke0_7_53" transform="translate(17.698 3.80232) scale(0.00395869) rotate(141.997)"/>
<use xlink:href="#stroke0_7_53" transform="translate(16.4624 4.30943) scale(0.00283168) rotate(-118.485)"/>
<use xlink:href="#stroke0_7_53" transform="translate(16.3274 3.102) scale(0.00377297) rotate(33.3805)"/>
<use xlink:href="#stroke0_7_53" transform="translate(16.7698 3.79301) scale(0.0028809) rotate(112.774)"/>
<use xlink:href="#stroke0_7_53" transform="translate(15.4587 3.90211) scale(0.00283002) rotate(-30.8363)"/>
<use xlink:href="#stroke0_7_53" transform="translate(16.3685 4.77646) scale(0.0040043) rotate(175.968)"/>
<use xlink:href="#stroke0_7_53" transform="translate(15.3672 4.99089) scale(0.00332339) rotate(-124.488)"/>
<use xlink:href="#stroke0_7_53" transform="translate(15.5129 3.66377) scale(0.00401971) rotate(57.2414)"/>
<use xlink:href="#stroke0_7_53" transform="translate(15.5 5.1519) scale(0.00351423) rotate(-178.571)"/>
<use xlink:href="#stroke0_7_53" transform="translate(14.1248 4.52599) scale(0.00344274) rotate(-32.0811)"/>
<use xlink:href="#stroke0_7_53" transform="translate(15.1753 4.41625) scale(0.00365445) rotate(95.061)"/>
<use xlink:href="#stroke0_7_53" transform="translate(15.0678 5.26633) scale(0.00383111) rotate(150.66)"/>
<use xlink:href="#stroke0_7_53" transform="translate(14.0627 5.88291) scale(0.00355648) rotate(-137.08)"/>
<use xlink:href="#stroke0_7_53" transform="translate(13.849 6.13144) scale(0.00402831) rotate(-139.516)"/>
<use xlink:href="#stroke0_7_53" transform="translate(13.3841 6.12171) scale(0.00340697) rotate(-121.027)"/>
<use xlink:href="#stroke0_7_53" transform="translate(13.1139 6.10544) scale(0.00288201) rotate(-110.413)"/>
<use xlink:href="#stroke0_7_53" transform="translate(12.6681 5.67258) scale(0.00266916) rotate(-45.9152)"/>
<use xlink:href="#stroke0_7_53" transform="translate(12.4169 6.04852) scale(0.00318156) rotate(-68.8738)"/>
<use xlink:href="#stroke0_7_53" transform="translate(13.2955 5.64875) scale(0.00260689) rotate(97.8831)"/>
<use xlink:href="#stroke0_7_53" transform="translate(12.273 6.50573) scale(0.0029004) rotate(-96.3014)"/>
<use xlink:href="#stroke0_7_53" transform="translate(12.2221 5.66595) scale(0.00286965) rotate(13.9543)"/>
<use xlink:href="#stroke0_7_53" transform="translate(12.8997 5.87375) scale(0.00371757) rotate(94.2879)"/>
<use xlink:href="#stroke0_7_53" transform="translate(12.656 6.29643) scale(0.00292152) rotate(113.244)"/>
<use xlink:href="#stroke0_7_53" transform="translate(11.9845 7.29504) scale(0.0032885) rotate(-146.264)"/>
<use xlink:href="#stroke0_7_53" transform="translate(12.3439 6.81824) scale(0.00314619) rotate(135.538)"/>
<use xlink:href="#stroke0_7_53" transform="translate(12.1325 6.44202) scale(0.00396625) rotate(94.1337)"/>
<use xlink:href="#stroke0_7_53" transform="translate(11.052 6.38549) scale(0.00368107) rotate(25.9947)"/>
<use xlink:href="#stroke0_7_53" transform="translate(11.0542 6.64763) scale(0.00305261) rotate(41.542)"/>
<use xlink:href="#stroke0_7_53" transform="translate(10.0877 7.15528) scale(0.0039422) rotate(-27.7447)"/>
<use xlink:href="#stroke0_7_53" transform="translate(10.3933 8.24969) scale(0.003277) rotate(-117.68)"/>
<use xlink:href="#stroke0_7_53" transform="translate(9.94776 8.35957) scale(0.00363599) rotate(-98.1754)"/>
<use xlink:href="#stroke0_7_53" transform="translate(10.4782 8.60696) scale(0.00334758) rotate(-159.582)"/>
<use xlink:href="#stroke0_7_53" transform="translate(10.4788 7.66532) scale(0.00306126) rotate(84.5547)"/>
<use xlink:href="#stroke0_7_53" transform="translate(9.94963 7.61282) scale(0.00329802) rotate(48.3715)"/>
<use xlink:href="#stroke0_7_53" transform="translate(10.3758 8.31259) scale(0.00347257) rotate(119.475)"/>
<use xlink:href="#stroke0_7_53" transform="translate(10.1484 8.50024) scale(0.00327475) rotate(119.848)"/>
<use xlink:href="#stroke0_7_53" transform="translate(9.17226 8.19617) scale(0.00301299) rotate(28.1978)"/>
<use xlink:href="#stroke0_7_53" transform="translate(8.60898 8.66708) scale(0.00298182) rotate(-20.2738)"/>
<use xlink:href="#stroke0_7_53" transform="translate(9.20132 9.61044) scale(0.00263789) rotate(-160.819)"/>
<use xlink:href="#stroke0_7_53" transform="translate(8.36167 8.75213) scale(0.00340158) rotate(-0.876192)"/>
<use xlink:href="#stroke0_7_53" transform="translate(8.88171 10.0595) scale(0.00316649) rotate(-158.808)"/>
<use xlink:href="#stroke0_7_53" transform="translate(7.78394 9.32231) scale(0.00368453) rotate(-24.2222)"/>
<use xlink:href="#stroke0_7_53" transform="translate(7.52285 9.66949) scale(0.00376646) rotate(-35.8213)"/>
<use xlink:href="#stroke0_7_53" transform="translate(7.56254 10.4258) scale(0.0032166) rotate(-84.7255)"/>
<use xlink:href="#stroke0_7_53" transform="translate(8.59512 10.5178) scale(0.00356139) rotate(154.866)"/>
<use xlink:href="#stroke0_7_53" transform="translate(8.3893 10.4111) scale(0.00309013) rotate(131.093)"/>
<use xlink:href="#stroke0_7_53" transform="translate(6.95593 11.1775) scale(0.0040472) rotate(-90.7375)"/>
<use xlink:href="#stroke0_7_53" transform="translate(7.10433 10.3623) scale(0.00263083) rotate(7.40495)"/>
<use xlink:href="#stroke0_7_53" transform="translate(6.83728 10.6577) scale(0.00260535) rotate(-13.8522)"/>
<use xlink:href="#stroke0_7_53" transform="translate(6.40585 11.3773) scale(0.00366501) rotate(-66.3597)"/>
<use xlink:href="#stroke0_7_53" transform="translate(6.77068 11.9236) scale(0.00297417) rotate(-120.221)"/>
<use xlink:href="#stroke0_7_53" transform="translate(6.22026 12.1197) scale(0.00394915) rotate(-93.2735)"/>
<use xlink:href="#stroke0_7_53" transform="translate(7.21425 11.6621) scale(0.00283297) rotate(122.617)"/>
<use xlink:href="#stroke0_7_53" transform="translate(6.93272 12.3921) scale(0.0030785) rotate(178.337)"/>
<use xlink:href="#stroke0_7_53" transform="translate(6.6382 11.5093) scale(0.00328476) rotate(66.3389)"/>
<use xlink:href="#stroke0_7_53" transform="translate(6.60276 12.9224) scale(0.00348785) rotate(-172.843)"/>
<use xlink:href="#stroke0_7_53" transform="translate(6.41755 12.0131) scale(0.00308406) rotate(76.6954)"/>
<use xlink:href="#stroke0_7_53" transform="translate(5.93498 13.3438) scale(0.00303044) rotate(-140.439)"/>
<use xlink:href="#stroke0_7_53" transform="translate(5.35417 13.3312) scale(0.00293635) rotate(-93.281)"/>
<use xlink:href="#stroke0_7_53" transform="translate(6.21935 12.8238) scale(0.00304372) rotate(105.895)"/>
<use xlink:href="#stroke0_7_53" transform="translate(5.44892 13.9679) scale(0.00329488) rotate(-132.734)"/>
<use xlink:href="#stroke0_7_53" transform="translate(5.00499 13.0077) scale(0.00299439) rotate(3.31605)"/>
<use xlink:href="#stroke0_7_53" transform="translate(5.26862 14.4004) scale(0.00341769) rotate(-140.001)"/>
<use xlink:href="#stroke0_7_53" transform="translate(5.3579 13.267) scale(0.00336818) rotate(62.1983)"/>
<use xlink:href="#stroke0_7_53" transform="translate(4.45392 14.7618) scale(0.00387775) rotate(-98.7599)"/>
<use xlink:href="#stroke0_7_53" transform="translate(4.2525 14.0171) scale(0.00328796) rotate(-15.9788)"/>
<use xlink:href="#stroke0_7_53" transform="translate(4.12119 14.3859) scale(0.00297519) rotate(-29.4698)"/>
<use xlink:href="#stroke0_7_53" transform="translate(4.4729 14.2342) scale(0.00267562) rotate(29.0717)"/>
<use xlink:href="#stroke0_7_53" transform="translate(4.65974 15.6385) scale(0.00336242) rotate(-154.037)"/>
<use xlink:href="#stroke0_7_53" transform="translate(5.09977 15.5236) scale(0.00399388) rotate(153.41)"/>
<use xlink:href="#stroke0_7_53" transform="translate(4.17251 16.0032) scale(0.00274165) rotate(-134.401)"/>
<use xlink:href="#stroke0_7_53" transform="translate(3.79353 16.3998) scale(0.00387025) rotate(-116.414)"/>
<use xlink:href="#stroke0_7_53" transform="translate(4.12927 15.1391) scale(0.00390883) rotate(53.8204)"/>
<use xlink:href="#stroke0_7_53" transform="translate(3.06914 16.3821) scale(0.00378424) rotate(-63.2006)"/>
<use xlink:href="#stroke0_7_53" transform="translate(3.76741 17.2192) scale(0.003784) rotate(-143.988)"/>
<use xlink:href="#stroke0_7_53" transform="translate(3.79025 16.0099) scale(0.0034831) rotate(59.0102)"/>
<use xlink:href="#stroke0_7_53" transform="translate(3.96852 16.6175) scale(0.00280358) rotate(100.969)"/>
<use xlink:href="#stroke0_7_53" transform="translate(3.7856 16.4656) scale(0.0038656) rotate(73.3586)"/>
<use xlink:href="#stroke0_7_53" transform="translate(2.74964 17.186) scale(0.00264363) rotate(-29.1834)"/>
<use xlink:href="#stroke0_7_53" transform="translate(2.78 18.1255) scale(0.00328842) rotate(-103.213)"/>
<use xlink:href="#stroke0_7_53" transform="translate(2.27902 18.0885) scale(0.00400917) rotate(-66.886)"/>
<use xlink:href="#stroke0_7_53" transform="translate(2.75871 17.3915) scale(0.0035473) rotate(26.0529)"/>
<use xlink:href="#stroke0_7_53" transform="translate(2.1758 18.412) scale(0.00331579) rotate(-54.8136)"/>
<use xlink:href="#stroke0_7_53" transform="translate(3.14736 19.056) scale(0.00302839) rotate(-176.332)"/>
<use xlink:href="#stroke0_7_53" transform="translate(3.34181 18.7769) scale(0.00321055) rotate(130.677)"/>
<use xlink:href="#stroke0_7_53" transform="translate(3.09271 19.3) scale(0.00279733) rotate(162.814)"/>
<use xlink:href="#stroke0_7_53" transform="translate(2.49648 18.5766) scale(0.00308417) rotate(38.8193)"/>
<use xlink:href="#stroke0_7_53" transform="translate(1.81937 19.4486) scale(0.00305295) rotate(-50.1711)"/>
<use xlink:href="#stroke0_7_53" transform="translate(2.65574 20.3592) scale(0.00362456) rotate(-161.522)"/>
<use xlink:href="#stroke0_7_53" transform="translate(2.65771 20.6457) scale(0.00388332) rotate(-167.171)"/>
<use xlink:href="#stroke0_7_53" transform="translate(1.61914 20.4862) scale(0.00312547) rotate(-75.1805)"/>
<use xlink:href="#stroke0_7_53" transform="translate(1.57512 21.0944) scale(0.00404608) rotate(-98.2616)"/>
<use xlink:href="#stroke0_7_53" transform="translate(1.72466 21.2635) scale(0.00305103) rotate(-108.734)"/>
<use xlink:href="#stroke0_7_53" transform="translate(1.76286 20.3992) scale(0.00279363) rotate(19.6356)"/>
<use xlink:href="#stroke0_7_53" transform="translate(2.30939 20.7135) scale(0.00280439) rotate(83.9468)"/>
<use xlink:href="#stroke0_7_53" transform="translate(1.63988 20.7643) scale(0.00306453) rotate(20.8534)"/>
<use xlink:href="#stroke0_7_53" transform="translate(1.40401 21.1478) scale(0.00283844) rotate(-1.9348)"/>
<use xlink:href="#stroke0_7_53" transform="translate(2.22902 21.4081) scale(0.00296275) rotate(92.9753)"/>
<use xlink:href="#stroke0_7_53" transform="translate(1.55169 22.6045) scale(0.00298653) rotate(-124.793)"/>
<use xlink:href="#stroke0_7_53" transform="translate(1.66995 22.9084) scale(0.0032535) rotate(-140.753)"/>
<use xlink:href="#stroke0_7_53" transform="translate(1.02948 22.919) scale(0.00343402) rotate(-86.1629)"/>
<use xlink:href="#stroke0_7_53" transform="translate(2.04547 22.4707) scale(0.00272957) rotate(105.295)"/>
<use xlink:href="#stroke0_7_53" transform="translate(0.743373 23.16) scale(0.00376468) rotate(-63.5125)"/>
<use xlink:href="#stroke0_7_53" transform="translate(1.14373 22.5266) scale(0.00375995) rotate(19.041)"/>
<use xlink:href="#stroke0_7_53" transform="translate(1.582 24.1744) scale(0.00336347) rotate(-154.7)"/>
<use xlink:href="#stroke0_7_53" transform="translate(0.763844 23.7913) scale(0.00285867) rotate(-53.2927)"/>
<use xlink:href="#stroke0_7_53" transform="translate(1.59442 23.4789) scale(0.00266054) rotate(71.8866)"/>
<use xlink:href="#stroke0_7_53" transform="translate(1.22095 23.576) scale(0.00284591) rotate(35.1378)"/>
<use xlink:href="#stroke0_7_53" transform="translate(1.8144 24.0756) scale(0.00311269) rotate(102.727)"/>
<use xlink:href="#stroke0_7_53" transform="translate(1.80024 24.2305) scale(0.00342723) rotate(96.9049)"/>
<use xlink:href="#stroke0_7_53" transform="translate(0.651277 25.1163) scale(0.002877) rotate(-73.3469)"/>
<use xlink:href="#stroke0_7_53" transform="translate(1.86228 25.3367) scale(0.0035791) rotate(149.101)"/>
<use xlink:href="#stroke0_7_53" transform="translate(0.640329 25.6422) scale(0.00278142) rotate(-78.8475)"/>
<use xlink:href="#stroke0_7_53" transform="translate(1.24565 24.8441) scale(0.00373607) rotate(51.5105)"/>
<use xlink:href="#stroke0_7_53" transform="translate(0.341899 25.9008) scale(0.00361903) rotate(-50.1737)"/>
<use xlink:href="#stroke0_7_53" transform="translate(0.712157 26.5447) scale(0.00269184) rotate(-98.6362)"/>
<use xlink:href="#stroke0_7_53" transform="translate(1.01211 27.1147) scale(0.00366343) rotate(-135.594)"/>
<use xlink:href="#stroke0_7_53" transform="translate(1.813 26.4645) scale(0.00388474) rotate(118.068)"/>
<use xlink:href="#stroke0_7_53" transform="translate(1.51292 27.4915) scale(0.0036093) rotate(-179.983)"/>
<use xlink:href="#stroke0_7_53" transform="translate(1.38478 26.7785) scale(0.00262942) rotate(84.7744)"/>
<use xlink:href="#stroke0_7_53" transform="translate(1.27525 26.8099) scale(0.00310711) rotate(66.194)"/>
<use xlink:href="#stroke0_7_53" transform="translate(1.50873 27.9183) scale(0.00285938) rotate(162.119)"/>
<use xlink:href="#stroke0_7_53" transform="translate(1.63484 27.454) scale(0.00367828) rotate(98.3534)"/>
<use xlink:href="#stroke0_7_53" transform="translate(1.64931 28.1265) scale(0.00269294) rotate(144.594)"/>
<use xlink:href="#stroke0_7_53" transform="translate(1.17311 28.5412) scale(0.00271973) rotate(-123.805)"/>
<use xlink:href="#stroke0_7_53" transform="translate(2.14533 27.9395) scale(0.00298736) rotate(125.761)"/>
<use xlink:href="#stroke0_7_53" transform="translate(1.29083 27.3804) scale(0.00388232) rotate(2.25008)"/>
<use xlink:href="#stroke0_7_53" transform="translate(2.02614 28.6058) scale(0.00294716) rotate(-135.812)"/>
<use xlink:href="#stroke0_7_53" transform="translate(2.79748 27.6552) scale(0.00301073) rotate(97.5931)"/>
<use xlink:href="#stroke0_7_53" transform="translate(2.72359 28.7928) scale(0.00394603) rotate(-151.097)"/>
<use xlink:href="#stroke0_7_53" transform="translate(3.02801 28.488) scale(0.00262111) rotate(-163.825)"/>
<use xlink:href="#stroke0_7_53" transform="translate(3.56091 27.5848) scale(0.00329869) rotate(93.7005)"/>
<use xlink:href="#stroke0_7_53" transform="translate(3.08523 27.3496) scale(0.00329184) rotate(25.1403)"/>
<use xlink:href="#stroke0_7_53" transform="translate(4.21806 28.3732) scale(0.00374711) rotate(160.351)"/>
<use xlink:href="#stroke0_7_53" transform="translate(3.27263 28.51) scale(0.00365411) rotate(-91.2952)"/>
<use xlink:href="#stroke0_7_53" transform="translate(4.51512 27.7006) scale(0.00262802) rotate(97.7876)"/>
<use xlink:href="#stroke0_7_53" transform="translate(3.88501 27.508) scale(0.00307161) rotate(2.50766)"/>
<use xlink:href="#stroke0_7_53" transform="translate(4.2903 27.4781) scale(0.0027392) rotate(19.1935)"/>
<use xlink:href="#stroke0_7_53" transform="translate(4.35061 27.5064) scale(0.00300218) rotate(4.43162)"/>
<use xlink:href="#stroke0_7_53" transform="translate(4.33277 28.4751) scale(0.00392585) rotate(-84.6151)"/>
<use xlink:href="#stroke0_7_53" transform="translate(5.63572 28.4888) scale(0.00302245) rotate(-176.795)"/>
<use xlink:href="#stroke0_7_53" transform="translate(5.57305 27.453) scale(0.00270545) rotate(52.1377)"/>
<use xlink:href="#stroke0_7_53" transform="translate(5.68314 27.2033) scale(0.00387523) rotate(38.7447)"/>
<use xlink:href="#stroke0_7_53" transform="translate(6.24689 28.5144) scale(0.00282605) rotate(-166.405)"/>
<use xlink:href="#stroke0_7_53" transform="translate(5.72015 27.5761) scale(0.00311893) rotate(-7.26113)"/>
<use xlink:href="#stroke0_7_53" transform="translate(5.86451 27.6174) scale(0.00340096) rotate(-15.4574)"/>
<use xlink:href="#stroke0_7_53" transform="translate(6.76892 27.4077) scale(0.00290304) rotate(48.9124)"/>
<use xlink:href="#stroke0_7_53" transform="translate(7.09804 27.502) scale(0.00260296) rotate(63.0208)"/>
<use xlink:href="#stroke0_7_53" transform="translate(7.43124 27.5712) scale(0.00263022) rotate(79.0089)"/>
<use xlink:href="#stroke0_7_53" transform="translate(7.74087 28.3519) scale(0.00272223) rotate(170.314)"/>
<use xlink:href="#stroke0_7_53" transform="translate(7.26597 28.5104) scale(0.00275696) rotate(-112.703)"/>
<use xlink:href="#stroke0_7_53" transform="translate(7.98219 28.4669) scale(0.00260621) rotate(-168.086)"/>
<use xlink:href="#stroke0_7_53" transform="translate(8.37633 28.3136) scale(0.00268806) rotate(165.936)"/>
<use xlink:href="#stroke0_7_53" transform="translate(8.6667 28.5774) scale(0.00371768) rotate(-179.598)"/>
<use xlink:href="#stroke0_7_53" transform="translate(8.38728 28.621) scale(0.00302216) rotate(-135.434)"/>
<use xlink:href="#stroke0_7_53" transform="translate(8.79983 28.777) scale(0.0038186) rotate(-147.197)"/>
<use xlink:href="#stroke0_7_53" transform="translate(9.55593 28.2213) scale(0.00314497) rotate(151.397)"/>
<use xlink:href="#stroke0_7_53" transform="translate(8.44407 27.804) scale(0.0038643) rotate(-34.3284)"/>
<use xlink:href="#stroke0_7_53" transform="translate(10.2169 27.5739) scale(0.00399291) rotate(100.167)"/>
<use xlink:href="#stroke0_7_53" transform="translate(10.2694 28.2347) scale(0.00268619) rotate(156.521)"/>
<use xlink:href="#stroke0_7_53" transform="translate(10.1286 27.309) scale(0.00341399) rotate(51.8389)"/>
<use xlink:href="#stroke0_7_53" transform="translate(9.7862 27.5473) scale(0.00315487) rotate(-4.39227)"/>
<use xlink:href="#stroke0_7_53" transform="translate(10.3579 28.6642) scale(0.00329775) rotate(-126.724)"/>
<use xlink:href="#stroke0_7_53" transform="translate(10.1496 27.6071) scale(0.00351604) rotate(-15.7063)"/>
<use xlink:href="#stroke0_7_53" transform="translate(11.1309 27.2117) scale(0.00385658) rotate(48.1116)"/>
<use xlink:href="#stroke0_7_53" transform="translate(10.8731 27.5334) scale(0.00308165) rotate(-1.23198)"/>
<use xlink:href="#stroke0_7_53" transform="translate(10.9933 27.7437) scale(0.00289096) rotate(-23.0821)"/>
<use xlink:href="#stroke0_7_53" transform="translate(12.5238 27.614) scale(0.00401402) rotate(103.546)"/>
<use xlink:href="#stroke0_7_53" transform="translate(11.5472 28.3325) scale(0.00296747) rotate(-81.582)"/>
<use xlink:href="#stroke0_7_53" transform="translate(12.6893 27.6401) scale(0.00266915) rotate(90.4673)"/>
<use xlink:href="#stroke0_7_53" transform="translate(11.7878 27.8887) scale(0.00355875) rotate(-39.8567)"/>
<use xlink:href="#stroke0_7_53" transform="translate(13.1409 28.6054) scale(0.0034298) rotate(-169.531)"/>
<use xlink:href="#stroke0_7_53" transform="translate(12.3763 27.7327) scale(0.00348314) rotate(-26.7057)"/>
<use xlink:href="#stroke0_7_53" transform="translate(12.9634 27.4475) scale(0.00312726) rotate(10.5517)"/>
<use xlink:href="#stroke0_7_53" transform="translate(13.7893 28.5674) scale(0.00303458) rotate(-163.302)"/>
<use xlink:href="#stroke0_7_53" transform="translate(13.504 28.6077) scale(0.00321663) rotate(-115.234)"/>
<use xlink:href="#stroke0_7_53" transform="translate(13.8899 27.4737) scale(0.00260135) rotate(30.8261)"/>
<use xlink:href="#stroke0_7_53" transform="translate(14.7875 27.6428) scale(0.00328526) rotate(99.5116)"/>
<use xlink:href="#stroke0_7_53" transform="translate(13.8278 27.871) scale(0.00312448) rotate(-37.0225)"/>
<use xlink:href="#stroke0_7_53" transform="translate(15.1348 28.5222) scale(0.00329441) rotate(-178.226)"/>
<use xlink:href="#stroke0_7_53" transform="translate(15.4971 27.9359) scale(0.00275855) rotate(124.926)"/>
<use xlink:href="#stroke0_7_53" transform="translate(15.566 27.6327) scale(0.0027258) rotate(90.4972)"/>
<use xlink:href="#stroke0_7_53" transform="translate(14.7818 28.1282) scale(0.00285257) rotate(-61.2098)"/>
<use xlink:href="#stroke0_7_53" transform="translate(15.7973 28.4867) scale(0.00262377) rotate(-164.262)"/>
<use xlink:href="#stroke0_7_53" transform="translate(16.2707 28.3101) scale(0.0028532) rotate(163.283)"/>
<use xlink:href="#stroke0_7_53" transform="translate(15.7329 27.5218) scale(0.00261688) rotate(14.02)"/>
<use xlink:href="#stroke0_7_53" transform="translate(16.6665 28.3623) scale(0.00290389) rotate(168.728)"/>
<use xlink:href="#stroke0_7_53" transform="translate(15.6742 27.7966) scale(0.00389957) rotate(-33.916)"/>
<use xlink:href="#stroke0_7_53" transform="translate(17.1724 28.6464) scale(0.00377124) rotate(-172.199)"/>
<use xlink:href="#stroke0_7_53" transform="translate(16.5814 28.3559) scale(0.00262001) rotate(-89.8928)"/>
<use xlink:href="#stroke0_7_53" transform="translate(17.3871 27.4996) scale(0.00261994) rotate(63.2719)"/>
<use xlink:href="#stroke0_7_53" transform="translate(17.969 27.6713) scale(0.00316387) rotate(101.084)"/>
<use xlink:href="#stroke0_7_53" transform="translate(17.668 27.3124) scale(0.00334155) rotate(42.5063)"/>
<use xlink:href="#stroke0_7_53" transform="translate(18.4754 28.5333) scale(0.00372643) rotate(175.458)"/>
<use xlink:href="#stroke0_7_53" transform="translate(18.0106 27.2771) scale(0.00363702) rotate(26.3688)"/>
<use xlink:href="#stroke0_7_53" transform="translate(18.4003 28.6055) scale(0.00295452) rotate(-133.333)"/>
<use xlink:href="#stroke0_7_53" transform="translate(18.2137 28.4633) scale(0.00323527) rotate(-92.6885)"/>
<use xlink:href="#stroke0_7_53" transform="translate(18.4259 27.7686) scale(0.00263132) rotate(-23.3042)"/>
<use xlink:href="#stroke0_7_53" transform="translate(18.4614 27.9825) scale(0.0033073) rotate(-47.1244)"/>
<use xlink:href="#stroke0_7_53" transform="translate(19.4156 28.627) scale(0.00305028) rotate(-141.465)"/>
<use xlink:href="#stroke0_7_53" transform="translate(19.3792 27.4624) scale(0.00284004) rotate(18.2877)"/>
<use xlink:href="#stroke0_7_53" transform="translate(20.4463 27.8672) scale(0.00304871) rotate(119.184)"/>
<use xlink:href="#stroke0_7_53" transform="translate(20.793 27.8265) scale(0.00354494) rotate(117.647)"/>
<use xlink:href="#stroke0_7_53" transform="translate(20.3201 28.5799) scale(0.00281772) rotate(-137.928)"/>
<use xlink:href="#stroke0_7_53" transform="translate(20.5502 27.1935) scale(0.00392228) rotate(39.0246)"/>
<use xlink:href="#stroke0_7_53" transform="translate(20.5928 27.3583) scale(0.00338147) rotate(18.64)"/>
<use xlink:href="#stroke0_7_53" transform="translate(21.7346 28.2492) scale(0.00324668) rotate(153.305)"/>
<use xlink:href="#stroke0_7_53" transform="translate(21.139 28.6358) scale(0.0032761) rotate(-119.169)"/>
<use xlink:href="#stroke0_7_53" transform="translate(21.0444 27.7743) scale(0.00290947) rotate(-26.4501)"/>
<use xlink:href="#stroke0_7_53" transform="translate(21.7303 27.4175) scale(0.00286316) rotate(32.7489)"/>
<use xlink:href="#stroke0_7_53" transform="translate(22.5986 28.6486) scale(0.00402977) rotate(-177.149)"/>
<use xlink:href="#stroke0_7_53" transform="translate(22.4684 28.7043) scale(0.00345753) rotate(-146.785)"/>
<use xlink:href="#stroke0_7_53" transform="translate(22.3837 28.5415) scale(0.00284658) rotate(-116.159)"/>
<use xlink:href="#stroke0_7_53" transform="translate(23.2975 28.6081) scale(0.00365401) rotate(-174.636)"/>
<use xlink:href="#stroke0_7_53" transform="translate(22.5999 27.6593) scale(0.00297072) rotate(-14.7289)"/>
<use xlink:href="#stroke0_7_53" transform="translate(23.0404 28.5159) scale(0.00287522) rotate(-109.261)"/>
<use xlink:href="#stroke0_7_53" transform="translate(23.0189 28.4382) scale(0.00342226) rotate(-87.0694)"/>
<use xlink:href="#stroke0_7_53" transform="translate(24.2546 27.7073) scale(0.00262404) rotate(98.5798)"/>
<use xlink:href="#stroke0_7_53" transform="translate(23.4063 28.3746) scale(0.00356268) rotate(-79.3175)"/>
<use xlink:href="#stroke0_7_53" transform="translate(24.0519 27.4405) scale(0.00294431) rotate(18.8235)"/>
<use xlink:href="#stroke0_7_53" transform="translate(25.3179 28.2447) scale(0.00393186) rotate(149.007)"/>
<use xlink:href="#stroke0_7_53" transform="translate(25.5321 27.5255) scale(0.00403647) rotate(96.5676)"/>
<use xlink:href="#stroke0_7_53" transform="translate(25.5754 27.7212) scale(0.00265544) rotate(100.736)"/>
<use xlink:href="#stroke0_7_53" transform="translate(24.7028 27.5263) scale(0.00392012) rotate(-12.6438)"/>
<use xlink:href="#stroke0_7_53" transform="translate(26.1341 28.6427) scale(0.00389824) rotate(-175.364)"/>
<use xlink:href="#stroke0_7_53" transform="translate(25.3389 27.6141) scale(0.00344532) rotate(-15.6243)"/>
<use xlink:href="#stroke0_7_53" transform="translate(25.91 27.2965) scale(0.0037096) rotate(18.5575)"/>
<use xlink:href="#stroke0_7_53" transform="translate(26.6976 27.4722) scale(0.00282166) rotate(66.0562)"/>
<use xlink:href="#stroke0_7_53" transform="translate(27.0745 28.3519) scale(0.00263015) rotate(171.951)"/>
<use xlink:href="#stroke0_7_53" transform="translate(26.2492 27.5105) scale(0.00402188) rotate(-12.3366)"/>
<use xlink:href="#stroke0_7_53" transform="translate(26.6445 27.6873) scale(0.00303693) rotate(-18.5735)"/>
<use xlink:href="#stroke0_7_53" transform="translate(26.9149 28.2521) scale(0.00266999) rotate(-75.9048)"/>
<use xlink:href="#stroke0_7_53" transform="translate(28.3131 27.9562) scale(0.00331893) rotate(127.728)"/>
<use xlink:href="#stroke0_7_53" transform="translate(28.5567 28.2455) scale(0.00345394) rotate(151.606)"/>
<use xlink:href="#stroke0_7_53" transform="translate(27.561 28.0846) scale(0.00278147) rotate(-57.0941)"/>
<use xlink:href="#stroke0_7_53" transform="translate(29.078 27.7437) scale(0.00364843) rotate(111.444)"/>
<use xlink:href="#stroke0_7_53" transform="translate(28.2432 27.4881) scale(0.003118) rotate(4.32627)"/>
<use xlink:href="#stroke0_7_53" transform="translate(29.5585 28.1113) scale(0.00335604) rotate(140.681)"/>
<use xlink:href="#stroke0_7_53" transform="translate(29.2825 27.256) scale(0.00367629) rotate(51.8863)"/>
<use xlink:href="#stroke0_7_53" transform="translate(29.4473 28.7954) scale(0.00386535) rotate(-139.675)"/>
<use xlink:href="#stroke0_7_53" transform="translate(29.1236 28.0308) scale(0.00272466) rotate(-51.7479)"/>
<use xlink:href="#stroke0_7_53" transform="translate(29.4933 28.492) scale(0.0031209) rotate(-98.5885)"/>
<use xlink:href="#stroke0_7_53" transform="translate(30.0359 27.2134) scale(0.00387998) rotate(31.5138)"/>
<use xlink:href="#stroke0_7_53" transform="translate(29.7266 28.1319) scale(0.0036146) rotate(-58.8096)"/>
<use xlink:href="#stroke0_7_53" transform="translate(31.4009 28.2997) scale(0.00356081) rotate(155.54)"/>
<use xlink:href="#stroke0_7_53" transform="translate(31.7055 28.4183) scale(0.00391442) rotate(162.684)"/>
<use xlink:href="#stroke0_7_53" transform="translate(31.7113 28.6975) scale(0.00389859) rotate(-168.214)"/>
<use xlink:href="#stroke0_7_53" transform="translate(30.997 28.2097) scale(0.00300025) rotate(-68.4531)"/>
<use xlink:href="#stroke0_7_53" transform="translate(31.6423 28.6443) scale(0.00324223) rotate(-123.537)"/>
<use xlink:href="#stroke0_7_53" transform="translate(32.588 27.5727) scale(0.00328397) rotate(92.1865)"/>
<use xlink:href="#stroke0_7_53" transform="translate(31.6193 28.3242) scale(0.00381796) rotate(-72.963)"/>
<use xlink:href="#stroke0_7_53" transform="translate(31.9774 28.244) scale(0.00327324) rotate(-69.8318)"/>
<use xlink:href="#stroke0_7_53" transform="translate(33.4661 27.7725) scale(0.00318476) rotate(111.099)"/>
<use xlink:href="#stroke0_7_53" transform="translate(33.8379 28.346) scale(0.00387103) rotate(157.146)"/>
<use xlink:href="#stroke0_7_53" transform="translate(32.8868 28.5576) scale(0.00371286) rotate(-95.4556)"/>
<use xlink:href="#stroke0_7_53" transform="translate(34.2322 27.5156) scale(0.00354719) rotate(89.8333)"/>
<use xlink:href="#stroke0_7_53" transform="translate(34.1016 27.4702) scale(0.00271438) rotate(59.8753)"/>
<use xlink:href="#stroke0_7_53" transform="translate(34.2651 27.2474) scale(0.0036869) rotate(48.713)"/>
<use xlink:href="#stroke0_7_53" transform="translate(33.955 27.5135) scale(0.00332324) rotate(-3.25584)"/>
<use xlink:href="#stroke0_7_53" transform="translate(35.2797 28.4183) scale(0.00349139) rotate(167.007)"/>
<use xlink:href="#stroke0_7_53" transform="translate(34.4305 27.3967) scale(0.00396409) rotate(-0.907255)"/>
<use xlink:href="#stroke0_7_53" transform="translate(35.1855 28.6387) scale(0.00311907) rotate(-132.863)"/>
<use xlink:href="#stroke0_7_53" transform="translate(34.9215 28.0294) scale(0.00266998) rotate(-51.6654)"/>
<use xlink:href="#stroke0_7_53" transform="translate(36.4376 27.8313) scale(0.00362804) rotate(118.344)"/>
<use xlink:href="#stroke0_7_53" transform="translate(35.6996 27.4714) scale(0.00285779) rotate(15.4018)"/>
<use xlink:href="#stroke0_7_53" transform="translate(36.7583 27.939) scale(0.00285002) rotate(125.438)"/>
<use xlink:href="#stroke0_7_53" transform="translate(36.9082 27.7953) scale(0.00271969) rotate(109.952)"/>
<use xlink:href="#stroke0_7_53" transform="translate(37.2681 27.4994) scale(0.00390385) rotate(92.8663)"/>
<use xlink:href="#stroke0_7_53" transform="translate(36.6145 28.4876) scale(0.0027269) rotate(-108.921)"/>
<use xlink:href="#stroke0_7_53" transform="translate(37.1848 28.707) scale(0.00344666) rotate(-143.214)"/>
<use xlink:href="#stroke0_7_53" transform="translate(37.5883 28.673) scale(0.00341039) rotate(-155.093)"/>
<use xlink:href="#stroke0_7_53" transform="translate(37.7808 27.2744) scale(0.00357789) rotate(51.2206)"/>
<use xlink:href="#stroke0_7_53" transform="translate(37.8289 28.754) scale(0.00369845) rotate(-130.763)"/>
<use xlink:href="#stroke0_7_53" transform="translate(38.4265 28.6594) scale(0.00338383) rotate(-157.353)"/>
<use xlink:href="#stroke0_7_53" transform="translate(38.6295 28.6172) scale(0.00312281) rotate(-154.768)"/>
<use xlink:href="#stroke0_7_53" transform="translate(39.2068 28.2443) scale(0.00283263) rotate(156.182)"/>
<use xlink:href="#stroke0_7_53" transform="translate(38.5541 28.4279) scale(0.00263014) rotate(-100.822)"/>
<use xlink:href="#stroke0_7_53" transform="translate(38.4646 27.975) scale(0.00311178) rotate(-46.3617)"/>
<use xlink:href="#stroke0_7_53" transform="translate(38.8981 27.5791) scale(0.0029498) rotate(-4.7001)"/>
<use xlink:href="#stroke0_7_53" transform="translate(39.2157 28.7317) scale(0.00401844) rotate(-110.818)"/>
<use xlink:href="#stroke0_7_53" transform="translate(39.6968 28.5119) scale(0.0026011) rotate(-121.589)"/>
<use xlink:href="#stroke0_7_53" transform="translate(39.3853 28.1438) scale(0.00347456) rotate(-60.2003)"/>
<use xlink:href="#stroke0_7_53" transform="translate(39.6138 27.808) scale(0.00374919) rotate(-34.1851)"/>
<use xlink:href="#stroke0_7_53" transform="translate(39.9291 27.7325) scale(0.00371609) rotate(-28.1224)"/>
<use xlink:href="#stroke0_7_53" transform="translate(41.04 28.7956) scale(0.00389903) rotate(-146.056)"/>
<use xlink:href="#stroke0_7_53" transform="translate(41.9403 27.7729) scale(0.00365311) rotate(113.821)"/>
<use xlink:href="#stroke0_7_53" transform="translate(41.5556 27.2986) scale(0.00342162) rotate(46.4816)"/>
<use xlink:href="#stroke0_7_53" transform="translate(42.0999 27.5374) scale(0.00286909) rotate(79.8202)"/>
<use xlink:href="#stroke0_7_53" transform="translate(42.5198 28.521) scale(0.00364136) rotate(175.45)"/>
<use xlink:href="#stroke0_7_53" transform="translate(41.7774 27.6632) scale(0.00271597) rotate(-11.539)"/>
<use xlink:href="#stroke0_7_53" transform="translate(42.1578 28.5435) scale(0.00297643) rotate(-111.127)"/>
<use xlink:href="#stroke0_7_53" transform="translate(42.0177 27.8845) scale(0.00325668) rotate(-38.6752)"/>
<use xlink:href="#stroke0_7_53" transform="translate(43.2705 28.6314) scale(0.00347524) rotate(-166.615)"/>
<use xlink:href="#stroke0_7_53" transform="translate(43.7178 27.8814) scale(0.00272063) rotate(119.173)"/>
<use xlink:href="#stroke0_7_53" transform="translate(43.8116 28.4908) scale(0.00313227) rotate(-179.007)"/>
<use xlink:href="#stroke0_7_53" transform="translate(44.2362 28.0142) scale(0.00296555) rotate(132.742)"/>
<use xlink:href="#stroke0_7_53" transform="translate(44.554 27.7511) scale(0.00352148) rotate(111.316)"/>
<use xlink:href="#stroke0_7_53" transform="translate(44.1603 27.1891) scale(0.00394011) rotate(41.5915)"/>
<use xlink:href="#stroke0_7_53" transform="translate(43.9441 27.5903) scale(0.00306928) rotate(-8.15317)"/>
<use xlink:href="#stroke0_7_53" transform="translate(45.3783 27.9608) scale(0.00343413) rotate(128.226)"/>
<use xlink:href="#stroke0_7_53" transform="translate(45.7525 28.1805) scale(0.00397319) rotate(144.157)"/>
<use xlink:href="#stroke0_7_53" transform="translate(45.6345 27.5986) scale(0.00282439) rotate(87.7338)"/>
<use xlink:href="#stroke0_7_53" transform="translate(44.8306 28.0397) scale(0.00293651) rotate(-52.3604)"/>
<use xlink:href="#stroke0_7_53" transform="translate(45.84 27.2648) scale(0.0036511) rotate(53.3397)"/>
<use xlink:href="#stroke0_7_53" transform="translate(45.8536 28.6962) scale(0.00341786) rotate(-130.381)"/>
<use xlink:href="#stroke0_7_53" transform="translate(45.4462 27.9706) scale(0.00380891) rotate(-46.4496)"/>
<use xlink:href="#stroke0_7_53" transform="translate(46.9331 28.4381) scale(0.00302754) rotate(176.084)"/>
<use xlink:href="#stroke0_7_53" transform="translate(46.5159 27.2969) scale(0.00358884) rotate(23.5605)"/>
<use xlink:href="#stroke0_7_53" transform="translate(47.5738 28.5052) scale(0.00364948) rotate(173.681)"/>
<use xlink:href="#stroke0_7_53" transform="translate(47.8625 27.7362) scale(0.00312407) rotate(107.176)"/>
<use xlink:href="#stroke0_7_53" transform="translate(46.7702 28.2766) scale(0.00401212) rotate(-68.1668)"/>
<use xlink:href="#stroke0_7_53" transform="translate(47.9077 27.3813) scale(0.00303851) rotate(49.7589)"/>
<use xlink:href="#stroke0_7_53" transform="translate(47.4319 27.9528) scale(0.00299725) rotate(-44.2101)"/>
<use xlink:href="#stroke0_7_53" transform="translate(48.8781 28.451) scale(0.00357275) rotate(169.235)"/>
<use xlink:href="#stroke0_7_53" transform="translate(47.9488 28.5154) scale(0.00397878) rotate(-87.6069)"/>
<use xlink:href="#stroke0_7_53" transform="translate(48.8237 27.3622) scale(0.003103) rotate(38.5937)"/>
<use xlink:href="#stroke0_7_53" transform="translate(49.3586 27.2829) scale(0.0036822) rotate(60.2704)"/>
<use xlink:href="#stroke0_7_53" transform="translate(49.2698 28.6776) scale(0.00333663) rotate(-129.27)"/>
<use xlink:href="#stroke0_7_53" transform="translate(50.3238 28.0105) scale(0.003344) rotate(132.276)"/>
<use xlink:href="#stroke0_7_53" transform="translate(49.225 27.56) scale(0.00397486) rotate(-16.0561)"/>
<use xlink:href="#stroke0_7_53" transform="translate(49.5344 28.234) scale(0.00341049) rotate(-68.0666)"/>
<use xlink:href="#stroke0_7_53" transform="translate(50.4416 28.6616) scale(0.00321516) rotate(-137.986)"/>
<use xlink:href="#stroke0_7_53" transform="translate(51.2228 27.9051) scale(0.00270515) rotate(121.586)"/>
<use xlink:href="#stroke0_7_53" transform="translate(51.1269 28.6983) scale(0.00354941) rotate(-155.653)"/>
<use xlink:href="#stroke0_7_53" transform="translate(50.8318 27.3904) scale(0.00340543) rotate(11.833)"/>
<use xlink:href="#stroke0_7_53" transform="translate(51.2846 27.224) scale(0.0038598) rotate(29.0481)"/>
<use xlink:href="#stroke0_7_53" transform="translate(51.2275 27.4311) scale(0.00373353) rotate(-0.829674)"/>
<use xlink:href="#stroke0_7_53" transform="translate(51.4072 27.7906) scale(0.00306934) rotate(-29.2365)"/>
<use xlink:href="#stroke0_7_53" transform="translate(52.039 27.4622) scale(0.00276623) rotate(22.2687)"/>
<use xlink:href="#stroke0_7_53" transform="translate(51.9072 28.3232) scale(0.00305984) rotate(-79.4763)"/>
<use xlink:href="#stroke0_7_53" transform="translate(52.8211 27.4192) scale(0.00290993) rotate(55.5115)"/>
<use xlink:href="#stroke0_7_53" transform="translate(52.2721 27.9196) scale(0.00309528) rotate(-41.3406)"/>
<use xlink:href="#stroke0_7_53" transform="translate(53.715 28.6086) scale(0.00396022) rotate(179.715)"/>
<use xlink:href="#stroke0_7_53" transform="translate(54.075 27.8207) scale(0.00318203) rotate(115.512)"/>
<use xlink:href="#stroke0_7_53" transform="translate(54.3614 27.6989) scale(0.0035273) rotate(106.903)"/>
<use xlink:href="#stroke0_7_53" transform="translate(53.2802 27.604) scale(0.00392819) rotate(-19.2659)"/>
<use xlink:href="#stroke0_7_53" transform="translate(54.4152 27.494) scale(0.00261107) rotate(61.0901)"/>
<use xlink:href="#stroke0_7_53" transform="translate(54.5504 27.4009) scale(0.00295446) rotate(51.2177)"/>
<use xlink:href="#stroke0_7_53" transform="translate(54.355 27.2933) scale(0.00383286) rotate(15.0276)"/>
<use xlink:href="#stroke0_7_53" transform="translate(54.3486 27.9245) scale(0.0030264) rotate(-41.6327)"/>
<use xlink:href="#stroke0_7_53" transform="translate(55.6064 28.3693) scale(0.00271969) rotate(172.694)"/>
<use xlink:href="#stroke0_7_53" transform="translate(55.7402 27.5667) scale(0.00269969) rotate(80.1567)"/>
<use xlink:href="#stroke0_7_53" transform="translate(55.3426 28.7403) scale(0.00388282) rotate(-116.489)"/>
<use xlink:href="#stroke0_7_53" transform="translate(55.5203 28.4425) scale(0.00283033) rotate(-98.0257)"/>
<use xlink:href="#stroke0_7_53" transform="translate(56.1336 27.172) scale(0.00402516) rotate(39.5509)"/>
<use xlink:href="#stroke0_7_53" transform="translate(55.8735 28.1523) scale(0.00274992) rotate(-64.2046)"/>
<use xlink:href="#stroke0_7_53" transform="translate(57.2896 28.5297) scale(0.00394659) rotate(172.108)"/>
<use xlink:href="#stroke0_7_53" transform="translate(57.4442 28.3554) scale(0.00300284) rotate(166.515)"/>
</g>
<defs>
<filter id="filter0_n_7_53" x="0.365845" y="0.414062" width="57.1847" height="28.3094" filterUnits="userSpaceOnUse" color-interpolation-filters="sRGB">
<feFlood flood-opacity="0" result="BackgroundImageFix"/>
<feBlend mode="normal" in="SourceGraphic" in2="BackgroundImageFix" result="shape"/>
<feTurbulence type="fractalNoise" baseFrequency="0.38759690523147583 0.38759690523147583" stitchTiles="stitch" numOctaves="3" result="noise" seed="9800" />
<feColorMatrix in="noise" type="luminanceToAlpha" result="alphaNoise" />
<feComponentTransfer in="alphaNoise" result="coloredNoise1">
<feFuncA type="discrete" tableValues="0 0 0 0 0 0 0 0 0 0 0 0 0 0 1 1 1 1 1 1 1 1 1 1 1 1 1 1 1 1 1 1 1 1 1 1 0 0 0 0 0 0 0 0 0 0 0 0 0 0 0 0 0 0 0 0 0 0 0 0 0 0 0 0 0 0 0 0 0 0 0 0 0 0 0 0 0 0 0 0 0 0 0 0 0 0 0 0 0 0 0 0 0 0 0 0 0 0 0 0 "/>
</feComponentTransfer>
<feComposite operator="in" in2="shape" in="coloredNoise1" result="noise1Clipped" />
<feComponentTransfer in="alphaNoise" result="coloredNoise2">
<feFuncA type="discrete" tableValues="0 0 0 0 0 0 0 0 0 0 0 0 0 0 0 0 0 0 0 0 0 0 0 0 0 0 0 0 0 0 0 0 0 0 0 0 0 0 0 0 0 0 0 0 0 0 0 0 0 0 0 0 0 0 0 0 0 0 0 0 0 0 0 0 1 1 1 1 1 1 1 1 1 1 1 1 1 1 1 1 1 1 1 1 1 1 0 0 0 0 0 0 0 0 0 0 0 0 0 0 "/>
</feComponentTransfer>
<feComposite operator="in" in2="shape" in="coloredNoise2" result="noise2Clipped" />
<feFlood flood-color="rgba(255, 255, 255, 0.75)" result="color1Flood" />
<feComposite operator="in" in2="noise1Clipped" in="color1Flood" result="color1" />
<feFlood flood-color="rgba(255, 255, 255, 0.25)" result="color2Flood" />
<feComposite operator="in" in2="noise2Clipped" in="color2Flood" result="color2" />
<feMerge result="effect1_noise_7_53">
<feMergeNode in="shape" />
<feMergeNode in="color1" />
<feMergeNode in="color2" />
</feMerge>
</filter>
<g id="stroke0_7_53" data-figma-scatter-ref="stroke0_7_53_ref" data-figma-scatter="f0.28_w0_aj180_sj0.25_r0_s0_sw1">
<path d="M103.731 283.547C110.352 281.363 112.807 281.348 116.121 283.468C130.109 292.418 124.85 308.718 107.972 308.727C90.3768 308.737 87.0606 289.046 103.731 283.547ZM139.837 35.4146C140.937 35.1787 142.512 35.114 143.337 35.271C144.162 35.4281 146.516 35.8391 148.567 36.1851C155.802 37.4051 160.179 46.6969 156.734 53.5249C152.924 61.0769 144.715 67.5811 140.859 66.1021C135.872 64.1881 137.625 69.8792 144.066 76.5152C148.306 80.8841 150.337 81.2685 150.337 77.7066C150.337 76.6574 151.622 74.3218 153.193 72.5161C154.823 70.6412 156.597 66.9201 157.324 63.8501C158.925 57.0892 160.788 55.2289 167.369 53.8169C177.32 51.6829 185.581 56.9263 183.752 64.2153C183.293 66.0423 183.901 67.6656 186.09 70.4585C196.859 84.1975 193.875 104.273 180.596 107.418C177.049 108.258 176.832 108.532 176.773 112.27C176.739 114.448 176.365 116.987 175.943 117.912C175.255 119.417 175.946 119.564 182.506 119.31C190.415 119.003 192.674 119.705 195.953 123.487C199.054 127.064 201.598 126.114 202.609 121.002C203.503 116.483 209.096 110.731 212.596 110.731C214.841 110.731 215.934 108.156 214.449 106.367C206.1 96.3056 222.234 73.6632 235.605 76.6792C241.572 78.0252 246.302 83.6302 246.367 89.4312C246.384 90.9712 247.505 94.4811 248.858 97.231C255.362 110.453 243.304 126.225 232.777 118.263C229.924 116.105 229.837 116.226 229.837 122.341C229.837 128.93 225.932 133.292 219.049 134.393C216.068 134.87 214.933 135.67 213.775 138.116C212.964 139.829 211.55 142.415 210.63 143.863C208.984 146.456 209.02 146.565 213.147 151.254C215.451 153.871 217.337 156.555 217.337 157.218C217.337 157.882 218.074 159.901 218.974 161.706C222.148 168.067 221.073 181.731 217.4 181.731C217.052 181.731 215.97 183.081 214.995 184.731C214.02 186.381 212.573 187.731 211.779 187.731C209.595 187.731 210.044 189.817 212.863 192.76C216.384 196.435 217.425 204.867 214.728 207.858C209.503 213.649 203.05 218.01 198.064 219.122C193.944 220.041 192.83 220.705 192.804 222.259C192.669 230.389 188.242 235.387 179.682 237.077C172.845 238.427 172.072 240.31 177.577 242.203C190.358 246.597 192.892 257.693 182.442 263.506C176.521 266.799 172.426 266.758 167.515 263.354C163.894 260.845 163.161 260.686 159.679 261.653C153.737 263.303 147.363 262.934 141.337 260.593C135.874 258.47 130.724 257.068 124.689 256.061C118.715 255.064 115.151 249.943 114.592 241.551C114.184 235.417 113.671 233.745 111.425 231.231C109.951 229.581 107.986 226.544 107.058 224.481C105.42 220.844 105.211 220.731 100.164 220.731C93.7935 220.731 89.0798 217.922 86.2168 212.42C83.0468 206.327 78.9427 207.336 78.8477 214.231C78.8097 216.981 78.4233 220.817 77.9883 222.755C77.2354 226.113 77.3507 226.324 80.4366 227.255C90.5004 230.29 90.3981 247.946 80.2881 252.934C55.9904 264.92 26.2411 240.473 47.875 226.298C49.556 225.196 50.1805 223.494 50.6895 218.626C51.0495 215.185 52.1298 211.262 53.0908 209.91C54.0507 208.557 55.2736 206.856 55.8086 206.127C56.5016 205.184 56.0161 204.003 54.1221 202.017C50.6273 198.355 49.3112 194.657 49.9981 190.428C50.3281 188.392 50.1033 186.705 49.4463 186.299C48.8364 185.922 48.337 184.345 48.3369 182.794C48.3369 181.244 47.6012 179.366 46.7032 178.621C43.9996 176.376 34.3369 162.856 34.3369 161.317C34.3368 160.529 32.7627 157.822 30.8389 155.302C28.915 152.781 27.3998 150.384 27.4727 149.975C28.4457 144.478 24.6467 141.425 20.4727 144.348C18.2547 145.902 11.2222 145.776 6.86624 144.104C-3.23648 140.227 -1.78745 115.126 8.56839 114.62C14.8594 114.313 23.3369 117.551 23.3369 120.261C23.3372 122.018 26.1103 124.731 27.9073 124.731C28.6933 124.731 29.3369 124.041 29.3369 123.198C29.3372 109.814 50.1851 94.3087 69.8369 93.0767C82.9305 92.2547 88.2617 93.4969 97.1895 99.4468C101.45 102.287 108.337 96.8837 108.337 90.7007C108.337 88.6598 109.172 86.4706 110.483 85.0747C112.734 82.6789 111.804 79.7313 108.796 79.731C106.403 79.731 103.556 73.5422 104.077 69.4702C105.046 61.8843 117.633 57.7673 123.289 63.1861C125.639 65.4379 126.708 65.8083 129.245 65.2515C133.054 64.4145 133.128 63.4739 129.587 60.895C121.36 54.902 128.195 37.9086 139.837 35.4146ZM227.337 203.429C239.094 199.654 252.722 207.291 252.722 217.653C252.722 228.495 231.921 239.44 223.927 232.806C221.665 230.929 220.403 232.363 221.012 236.118C222.097 242.802 213.511 254.731 207.616 254.731C194.246 254.731 188.8 246.232 194.457 234.198C198.202 226.231 204.453 223.784 213.238 226.847C217.536 228.345 217.88 227.687 215.921 221.697C213.052 212.925 216.89 206.783 227.337 203.429ZM179.7 192.695C179.049 192.044 178.051 192.413 176.774 193.779C168.37 202.768 165.063 203.713 156.506 199.571C149.746 196.298 146.45 201.459 151.961 206.689C154.209 208.822 154.482 209.744 154.038 213.682C153.54 218.098 153.664 218.344 158.682 222.967C163.836 227.716 163.837 227.716 164.351 222.867C164.987 216.872 169.522 209.969 174.077 208.066C177.094 206.805 177.337 206.359 177.337 202.046C177.337 199.092 177.95 196.711 179.013 195.536C180.117 194.315 180.352 193.347 179.7 192.695ZM13.7354 183.697C21.2304 180.362 25.9355 181.225 32.1055 187.066C40.5644 195.074 37.0287 205.612 24.6309 209.343C9.40689 213.925 -0.704596 190.124 13.7354 183.697ZM252.956 148.251C262.129 145.732 267.81 147.203 270.983 152.921C277.397 164.478 257.352 180.919 247.179 172.445C237.093 164.044 240.016 151.805 252.956 148.251ZM175.822 162.709C174.842 161.123 172.482 161.589 171.417 163.579C170.283 165.699 171.384 170.913 173.086 171.481C174.366 171.905 176.761 164.229 175.822 162.709ZM150.152 111.481C150.492 108.526 149.534 108.177 145.513 109.79C142.108 111.155 143.035 114.231 146.851 114.231C149.365 114.231 149.886 113.796 150.152 111.481ZM156.837 98.731C156.012 98.731 155.337 99.406 155.337 100.231C155.337 101.056 156.012 101.731 156.837 101.731C157.662 101.731 158.337 101.056 158.337 100.231C158.337 99.4061 157.662 98.7312 156.837 98.731ZM131.337 85.6382C131.337 82.8002 129.491 81.4004 127.429 82.6743C126.501 83.2473 126.685 84.2905 128.185 86.9605C129.273 88.9003 130.316 91.46 130.5 92.6489C130.685 93.8379 131.287 94.905 131.837 95.021C133.25 95.317 133.729 90.7224 132.422 89.4155C131.825 88.8185 131.337 87.1191 131.337 85.6382ZM79.8369 36.9214C89.8819 31.2487 102.893 46.8492 95.6582 55.8921C92.2024 60.211 91.2042 63.981 91.8701 70.1997C92.5322 76.3837 92.4821 76.5638 89.0371 80.3628C76.0391 94.6997 55.1533 78.5005 64.8242 61.5825C66.3391 58.9327 67.3172 55.6452 67.3242 53.1753C67.3402 47.7053 72.4159 41.1124 79.8369 36.9214ZM120.896 78.731C120.653 78.731 120.177 79.1811 119.837 79.731C119.497 80.2809 119.695 80.7309 120.277 80.731C120.859 80.731 121.337 80.281 121.337 79.731C121.337 79.181 121.139 78.731 120.896 78.731ZM205.485 39.4898C219.631 37.0418 227.598 50.9151 220.597 65.8081C213.393 81.13 190.339 77.7861 190.091 61.3823C189.98 54.0764 199.509 40.5238 205.485 39.4898ZM51.8369 14.5542C64.4449 5.86451 75.68 19.3671 68.6241 34.731C62.385 48.3167 41.3372 43.775 41.3369 28.8423C41.3369 26.0333 47.6529 17.4382 51.8369 14.5542ZM108.212 2.17043C121.43 -6.81137 141.546 14.0924 133.237 28.1743C132.084 30.1297 130.819 31.7302 130.427 31.731C130.035 31.731 128.813 32.5703 127.713 33.5962C119.456 41.2872 107.786 35.7761 103.367 22.0991C100.152 12.1461 101.463 6.75643 108.212 2.17043Z" fill="#538FDF"/>
</g>
<path id="stroke0_7_53_ref" d="M57 28C57 24.4543 56.2758 20.9433 54.8686 17.6675C53.4615 14.3918 51.399 11.4153 48.799 8.90812C46.1989 6.40093 43.1123 4.41213 39.7151 3.05525C36.318 1.69838 32.677 1 29 1C25.323 1 21.682 1.69838 18.2849 3.05525C14.8877 4.41213 11.801 6.40094 9.20101 8.90812C6.60097 11.4153 4.5385 14.3918 3.13137 17.6675C1.72424 20.9433 1 24.4543 1 28L57 28Z"/>
</defs>
</svg>
