<svg xmlns="http://www.w3.org/2000/svg" xmlns:xlink="http://www.w3.org/1999/xlink" width="58" height="58" fill="none" viewBox="0 0 58 58"><g filter="url(#a)"><path fill="#538fdf" d="M1 1h56v28c0 15.464-12.536 28-28 28S1 44.464 1 29z"/><use xlink:href="#b" transform="rotate(128.86 .651 .905)scale(.00372)"/><use xlink:href="#b" transform="rotate(-41.623 1.431 -.193)scale(.00393)"/><use xlink:href="#b" transform="rotate(-8.04 4.605 -7.278)scale(.0032)"/><use xlink:href="#b" transform="rotate(120.988 .937 1.12)scale(.0029)"/><use xlink:href="#b" transform="rotate(164.576 1.157 .826)scale(.00279)"/><use xlink:href="#b" transform="rotate(108.328 1.078 1.376)scale(.00266)"/><use xlink:href="#b" transform="rotate(29.527 .702 4.49)scale(.00379)"/><use xlink:href="#b" transform="rotate(-9.504 5.028 -13.377)scale(.00272)"/><use xlink:href="#b" transform="rotate(228.679 1.777 .135)scale(.00274)"/><use xlink:href="#b" transform="rotate(-40.864 2.48 -2.908)scale(.00312)"/><use xlink:href="#b" transform="rotate(144.845 1.875 1.239)scale(.0036)"/><use xlink:href="#b" transform="rotate(241.527 2.232 -.125)scale(.00402)"/><use xlink:href="#b" transform="rotate(-62.983 2.589 -2.033)scale(.00385)"/><use xlink:href="#b" transform="rotate(55.005 1.992 4.41)scale(.00375)"/><use xlink:href="#b" transform="rotate(-30.827 3.245 -6.491)scale(.00405)"/><use xlink:href="#b" transform="rotate(62.91 2.146 4.36)scale(.0028)"/><use xlink:href="#b" transform="rotate(58.51 2.45 4.875)scale(.00387)"/><use xlink:href="#b" transform="rotate(169.9 2.928 1.004)scale(.00374)"/><use xlink:href="#b" transform="rotate(-17.583 4.812 -16.233)scale(.00287)"/><use xlink:href="#b" transform="rotate(-50.6 3.656 -4.926)scale(.0036)"/><use xlink:href="#b" transform="rotate(150.565 3.286 1.535)scale(.0038)"/><use xlink:href="#b" transform="rotate(3.229 -4.14 106.27)scale(.0037)"/><use xlink:href="#b" transform="rotate(-80.021 3.878 -3.069)scale(.00263)"/><use xlink:href="#b" transform="rotate(122.899 3.63 2.546)scale(.00392)"/><use xlink:href="#b" transform="rotate(239.379 3.983 -1.147)scale(.00356)"/><use xlink:href="#b" transform="rotate(73.345 3.65 5.48)scale(.00336)"/><use xlink:href="#b" transform="rotate(-37.405 4.78 -9.954)scale(.00359)"/><use xlink:href="#b" transform="rotate(64.82 3.942 6.714)scale(.00376)"/><use xlink:href="#b" transform="rotate(96.128 4.046 4.26)scale(.0026)"/><use xlink:href="#b" transform="rotate(-67.241 4.86 -5.38)scale(.00277)"/><use xlink:href="#b" transform="rotate(11.954 2.58 40.057)scale(.00372)"/><use xlink:href="#b" transform="rotate(-9.048 7.593 -53.079)scale(.00356)"/><use xlink:href="#b" transform="rotate(-41.954 5.561 -10.859)scale(.00275)"/><use xlink:href="#b" transform="rotate(213.255 4.995 -.652)scale(.00266)"/><use xlink:href="#b" transform="rotate(168.826 4.997 1.173)scale(.00285)"/><use xlink:href="#b" transform="rotate(215.014 5.236 -.757)scale(.00307)"/><use xlink:href="#b" transform="rotate(-18.747 6.719 -28.514)scale(.00345)"/><use xlink:href="#b" transform="rotate(122.81 5.246 3.449)scale(.00298)"/><use xlink:href="#b" transform="rotate(240.065 5.675 -2.189)scale(.00327)"/><use xlink:href="#b" transform="rotate(230.39 5.742 -1.76)scale(.00266)"/><use xlink:href="#b" transform="rotate(-28.773 6.867 -20.14)scale(.0026)"/><use xlink:href="#b" transform="rotate(-96.933 6.071 -4.078)scale(.00297)"/><use xlink:href="#b" transform="rotate(-57.815 6.38 -9.133)scale(.004)"/><use xlink:href="#b" transform="rotate(241.555 6.26 -2.66)scale(.00299)"/><use xlink:href="#b" transform="rotate(38.971 5.744 17.08)scale(.00395)"/><use xlink:href="#b" transform="rotate(198.133 6.472 -.145)scale(.00387)"/><use xlink:href="#b" transform="rotate(64.473 6.001 10.41)scale(.0026)"/><use xlink:href="#b" transform="rotate(19.527 5.505 36.603)scale(.00385)"/><use xlink:href="#b" transform="rotate(25.046 5.579 29.308)scale(.00307)"/><use xlink:href="#b" transform="rotate(210.706 7.016 -.951)scale(.00402)"/><use xlink:href="#b" transform="rotate(171.506 7.067 1.27)scale(.00363)"/><use xlink:href="#b" transform="rotate(87.78 7.001 7.775)scale(.00368)"/><use xlink:href="#b" transform="rotate(77.29 7.116 9.372)scale(.00379)"/><use xlink:href="#b" transform="rotate(229.399 7.606 -2.447)scale(.0036)"/><use xlink:href="#b" transform="rotate(52.483 7.276 15.276)scale(.00395)"/><use xlink:href="#b" transform="rotate(-67.73 8.143 -10.213)scale(.00287)"/><use xlink:href="#b" transform="rotate(-15.793 9.335 -52.5)scale(.00396)"/><use xlink:href="#b" transform="rotate(136.907 7.859 3.712)scale(.0027)"/><use xlink:href="#b" transform="rotate(76.17 7.688 10.544)scale(.00261)"/><use xlink:href="#b" transform="rotate(257.357 8.438 -5.411)scale(.00383)"/><use xlink:href="#b" transform="rotate(62.945 8.1 13.7)scale(.0039)"/><use xlink:href="#b" transform="rotate(-13.266 10.586 -68.634)scale(.00338)"/><use xlink:href="#b" transform="rotate(224.94 8.741 -2.66)scale(.00308)"/><use xlink:href="#b" transform="rotate(213.335 8.84 -1.74)scale(.00326)"/><use xlink:href="#b" transform="rotate(196.421 8.97 -.418)scale(.00385)"/><use xlink:href="#b" transform="rotate(202.694 9.102 -.954)scale(.00347)"/><use xlink:href="#b" transform="rotate(174.359 9.155 1.18)scale(.00325)"/><use xlink:href="#b" transform="rotate(28.961 8.38 35.002)scale(.00339)"/><use xlink:href="#b" transform="rotate(-16.14 11.378 -62.76)scale(.00281)"/><use xlink:href="#b" transform="rotate(-4.983 14.6 -207.607)scale(.00364)"/><use xlink:href="#b" transform="rotate(249.963 9.854 -5.66)scale(.00364)"/><use xlink:href="#b" transform="rotate(100.954 9.717 8.504)scale(.00403)"/><use xlink:href="#b" transform="rotate(-82.987 10.24 -10.078)scale(.00273)"/><use xlink:href="#b" transform="rotate(-35.592 10.889 -29.295)scale(.00293)"/><use xlink:href="#b" transform="rotate(24.916 8.763 44.896)scale(.0026)"/><use xlink:href="#b" transform="rotate(-50.662 10.842 -20.117)scale(.0027)"/><use xlink:href="#b" transform="rotate(153.437 10.343 3.111)scale(.00348)"/><use xlink:href="#b" transform="rotate(12.048 7.63 96.4)scale(.00262)"/><use xlink:href="#b" transform="rotate(63.868 10.084 17.064)scale(.00265)"/><use xlink:href="#b" transform="rotate(118.657 10.608 6.857)scale(.00359)"/><use xlink:href="#b" transform="rotate(33.097 9.979 35.777)scale(.00316)"/><use xlink:href="#b" transform="rotate(8.853 7.356 136.92)scale(.00289)"/><use xlink:href="#b" transform="rotate(117.673 10.85 7.155)scale(.00267)"/><use xlink:href="#b" transform="rotate(254.374 11.37 -7.389)scale(.0033)"/><use xlink:href="#b" transform="rotate(205.149 11.328 -1.715)scale(.00277)"/><use xlink:href="#b" transform="rotate(100.509 11.113 9.85)scale(.00265)"/><use xlink:href="#b" transform="rotate(-10.98 14.464 -114.715)scale(.00275)"/><use xlink:href="#b" transform="rotate(242.68 11.754 -6.093)scale(.00289)"/><use xlink:href="#b" transform="rotate(237.552 11.892 -5.382)scale(.00387)"/><use xlink:href="#b" transform="rotate(-62.754 12.263 -17.914)scale(.00377)"/><use xlink:href="#b" transform="rotate(28.412 10.981 46.494)scale(.00311)"/><use xlink:href="#b" transform="rotate(108.136 11.869 9.2)scale(.00264)"/><use xlink:href="#b" transform="rotate(-9.64 15.262 -139.176)scale(.00317)"/><use xlink:href="#b" transform="rotate(83.303 11.99 14.137)scale(.00275)"/><use xlink:href="#b" transform="rotate(-96.168 12.686 -10.043)scale(.00323)"/><use xlink:href="#b" transform="rotate(215.089 12.713 -3.018)scale(.00401)"/><use xlink:href="#b" transform="rotate(177.275 12.68 .999)scale(.00266)"/><use xlink:href="#b" transform="rotate(161.747 12.807 2.747)scale(.00332)"/><use xlink:href="#b" transform="rotate(87.206 12.764 13.91)scale(.0036)"/><use xlink:href="#b" transform="rotate(-38.961 13.822 -35.066)scale(.00314)"/><use xlink:href="#b" transform="rotate(64.897 12.972 20.854)scale(.00392)"/><use xlink:href="#b" transform="rotate(200.148 13.411 -1.554)scale(.00316)"/><use xlink:href="#b" transform="rotate(8.053 10.169 186.044)scale(.00343)"/><use xlink:href="#b" transform="rotate(191.688 13.691 -.556)scale(.00377)"/><use xlink:href="#b" transform="rotate(-3.231 24.018 -472.698)scale(.00272)"/><use xlink:href="#b" transform="rotate(196.437 13.893 -1.205)scale(.00305)"/><use xlink:href="#b" transform="rotate(50.409 13.625 29.513)scale(.00391)"/><use xlink:href="#b" transform="rotate(205.361 14.21 -2.31)scale(.0035)"/><use xlink:href="#b" transform="rotate(153.676 14.243 4.004)scale(.00355)"/><use xlink:href="#b" transform="rotate(116.121 14.2 9.438)scale(.00288)"/><use xlink:href="#b" transform="rotate(-49.262 15.03 -29.879)scale(.0036)"/><use xlink:href="#b" transform="rotate(157.422 14.55 3.553)scale(.00273)"/><use xlink:href="#b" transform="rotate(142.945 14.707 5.566)scale(.00355)"/><use xlink:href="#b" transform="rotate(-3.777 22.89 -437.826)scale(.00305)"/><use xlink:href="#b" transform="rotate(150.022 14.912 4.633)scale(.00297)"/><use xlink:href="#b" transform="rotate(-45.272 15.763 -34.54)scale(.0028)"/><use xlink:href="#b" transform="rotate(1.416 -1.514 1195.07)scale(.00379)"/><use xlink:href="#b" transform="rotate(85.82 15.003 16.797)scale(.00265)"/><use xlink:href="#b" transform="rotate(7.071 11.645 243.914)scale(.0034)"/><use xlink:href="#b" transform="rotate(227.467 15.711 -5.918)scale(.00322)"/><use xlink:href="#b" transform="rotate(61.886 15.432 26.242)scale(.00381)"/><use xlink:href="#b" transform="rotate(216.012 15.922 -4.31)scale(.00276)"/><use xlink:href="#b" transform="rotate(172.646 15.954 1.744)scale(.00318)"/><use xlink:href="#b" transform="rotate(28.769 15.046 61.818)scale(.00304)"/><use xlink:href="#b" transform="rotate(189.179 16.25 -.498)scale(.00346)"/><use xlink:href="#b" transform="rotate(142.151 16.204 6.173)scale(.00275)"/><use xlink:href="#b" transform="rotate(168.164 16.382 2.378)scale(.0028)"/><use xlink:href="#b" transform="rotate(140.124 16.397 6.56)scale(.00264)"/><use xlink:href="#b" transform="rotate(10.832 13.69 171.95)scale(.00287)"/><use xlink:href="#b" transform="rotate(50.05 16.414 35.7)scale(.00396)"/><use xlink:href="#b" transform="rotate(128.269 16.77 8.727)scale(.00303)"/><use xlink:href="#b" transform="rotate(188.83 17.034 -.55)scale(.00301)"/><use xlink:href="#b" transform="rotate(235.306 17.293 -7.974)scale(.00353)"/><use xlink:href="#b" transform="rotate(168.791 17.201 2.36)scale(.00264)"/><use xlink:href="#b" transform="rotate(14.066 15.3 138.1)scale(.00316)"/><use xlink:href="#b" transform="rotate(-16.25 19.385 -118.883)scale(.00295)"/><use xlink:href="#b" transform="rotate(60.222 17.334 30.36)scale(.00391)"/><use xlink:href="#b" transform="rotate(190.476 17.833 -.793)scale(.0038)"/><use xlink:href="#b" transform="rotate(-42.083 18.51 -44.57)scale(.00368)"/><use xlink:href="#b" transform="rotate(14.083 16.292 143.197)scale(.00361)"/><use xlink:href="#b" transform="rotate(-34.407 19.09 -56.706)scale(.00265)"/><use xlink:href="#b" transform="rotate(15.167 16.12 134.94)scale(.0028)"/><use xlink:href="#b" transform="rotate(195.472 18.394 -1.729)scale(.00277)"/><use xlink:href="#b" transform="rotate(-91.247 18.745 -16.932)scale(.00316)"/><use xlink:href="#b" transform="rotate(35.257 18.077 57.907)scale(.00397)"/><use xlink:href="#b" transform="rotate(-59.173 19.233 -31.605)scale(.00283)"/><use xlink:href="#b" transform="rotate(136.257 18.815 8.169)scale(.00353)"/><use xlink:href="#b" transform="rotate(246.371 19.165 -11.439)scale(.00287)"/><use xlink:href="#b" transform="rotate(8.282 15.847 258.712)scale(.0034)"/><use xlink:href="#b" transform="rotate(53.668 18.76 37.938)scale(.00324)"/><use xlink:href="#b" transform="rotate(-74.468 19.695 -24.056)scale(.00402)"/><use xlink:href="#b" transform="rotate(-34.842 20.424 -60.23)scale(.00263)"/><use xlink:href="#b" transform="rotate(154.159 19.512 5.113)scale(.00265)"/><use xlink:href="#b" transform="rotate(-52.378 20.216 -38.412)scale(.00359)"/><use xlink:href="#b" transform="rotate(-35.004 20.578 -60.737)scale(.00377)"/><use xlink:href="#b" transform="rotate(157.549 19.897 4.591)scale(.0026)"/><use xlink:href="#b" transform="rotate(164.496 20.099 3.443)scale(.00346)"/><use xlink:href="#b" transform="rotate(95.497 19.984 18.732)scale(.00303)"/><use xlink:href="#b" transform="rotate(133.59 20.24 9.283)scale(.00313)"/><use xlink:href="#b" transform="rotate(30.025 19.428 75.498)scale(.00292)"/><use xlink:href="#b" transform="rotate(34.636 19.582 65.419)scale(.00262)"/><use xlink:href="#b" transform="rotate(95.398 20.38 19.159)scale(.00271)"/><use xlink:href="#b" transform="rotate(212.484 20.828 -5.233)scale(.00264)"/><use xlink:href="#b" transform="rotate(174.576 20.856 1.698)scale(.00296)"/><use xlink:href="#b" transform="rotate(-7.289 25.163 -322.323)scale(.00303)"/><use xlink:href="#b" transform="rotate(194.274 21.105 -1.892)scale(.0026)"/><use xlink:href="#b" transform="rotate(201.193 21.244 -3.166)scale(.0029)"/><use xlink:href="#b" transform="rotate(-42.697 22.035 -52.817)scale(.00267)"/><use xlink:href="#b" transform="rotate(45.129 20.916 51.26)scale(.00354)"/><use xlink:href="#b" transform="rotate(-66.16 21.968 -31.756)scale(.00277)"/><use xlink:href="#b" transform="rotate(77.014 21.264 27.43)scale(.00271)"/><use xlink:href="#b" transform="rotate(210.684 21.868 -5.075)scale(.00356)"/><use xlink:href="#b" transform="rotate(65.563 21.531 34.094)scale(.00326)"/><use xlink:href="#b" transform="rotate(164.991 22.006 3.595)scale(.00324)"/><use xlink:href="#b" transform="rotate(125.402 21.951 11.927)scale(.0026)"/><use xlink:href="#b" transform="rotate(-69.345 22.609 -30.71)scale(.00382)"/><use xlink:href="#b" transform="rotate(188.98 22.41 -.992)scale(.00303)"/><use xlink:href="#b" transform="matrix(.00196 -.0021 .0021 .00196 44 .983)"/><use xlink:href="#b" transform="rotate(143.02 22.632 8.216)scale(.00398)"/><use xlink:href="#b" transform="rotate(-71.39 23.142 -30.42)scale(.00275)"/><use xlink:href="#b" transform="rotate(237.742 23.013 -11.66)scale(.00293)"/><use xlink:href="#b" transform="rotate(60.334 22.587 39.562)scale(.00332)"/><use xlink:href="#b" transform="rotate(-15.877 24.573 -161.62)scale(.00398)"/><use xlink:href="#b" transform="rotate(227.485 23.4 -9.275)scale(.00344)"/><use xlink:href="#b" transform="rotate(126.667 23.238 12.266)scale(.00287)"/><use xlink:href="#b" transform="rotate(88.861 23.295 24.297)scale(.00343)"/><use xlink:href="#b" transform="rotate(67.09 23.19 35.753)scale(.00283)"/><use xlink:href="#b" transform="rotate(108.969 23.518 17.373)scale(.00281)"/><use xlink:href="#b" transform="rotate(157.182 23.783 5.456)scale(.00293)"/><use xlink:href="#b" transform="rotate(213.802 24.05 -6.404)scale(.00321)"/><use xlink:href="#b" transform="rotate(-48.793 24.611 -51.326)scale(.0037)"/><use xlink:href="#b" transform="rotate(144.037 24.21 8.503)scale(.0037)"/><use xlink:href="#b" transform="rotate(66.772 23.88 37.075)scale(.00265)"/><use xlink:href="#b" transform="rotate(88.77 24.3 25.325)scale(.00368)"/><use xlink:href="#b" transform="rotate(254.004 24.8 -17.513)scale(.00289)"/><use xlink:href="#b" transform="rotate(-71.703 25.071 -32.816)scale(.0036)"/><use xlink:href="#b" transform="rotate(101.552 24.754 20.712)scale(.00383)"/><use xlink:href="#b" transform="rotate(135.99 24.91 10.68)scale(.00321)"/><use xlink:href="#b" transform="rotate(98.016 24.956 22.22)scale(.00347)"/><use xlink:href="#b" transform="rotate(62.581 24.859 41.601)scale(.00324)"/><use xlink:href="#b" transform="rotate(153.865 25.333 6.54)scale(.00322)"/><use xlink:href="#b" transform="rotate(13.405 23.813 213.932)scale(.00381)"/><use xlink:href="#b" transform="rotate(-45.706 26.208 -58.998)scale(.00373)"/><use xlink:href="#b" transform="rotate(-96.057 26.022 -22.103)scale(.0029)"/><use xlink:href="#b" transform="rotate(-47.655 26.457 -56.881)scale(.0035)"/><use xlink:href="#b" transform="rotate(240.495 26.173 -14.231)scale(.00277)"/><use xlink:href="#b" transform="rotate(211.769 26.21 -6.585)scale(.00304)"/><use xlink:href="#b" transform="rotate(-56.83 26.758 -47.07)scale(.00275)"/><use xlink:href="#b" transform="rotate(19.657 25.216 150.327)scale(.00378)"/><use xlink:href="#b" transform="rotate(6.17 21.809 484.666)scale(.0032)"/><use xlink:href="#b" transform="rotate(116.927 26.482 16.826)scale(.00321)"/><use xlink:href="#b" transform="rotate(142.733 26.727 9.652)scale(.00368)"/><use xlink:href="#b" transform="rotate(-51.405 27.396 -54.164)scale(.00358)"/><use xlink:href="#b" transform="rotate(66.285 26.536 41.483)scale(.00266)"/><use xlink:href="#b" transform="rotate(3.646 21.086 838.521)scale(.00396)"/><use xlink:href="#b" transform="rotate(47.114 26.602 62.348)scale(.0028)"/><use xlink:href="#b" transform="rotate(30.814 26.46 98.577)scale(.00316)"/><use xlink:href="#b" transform="rotate(93.868 27.31 26.063)scale(.0034)"/><use xlink:href="#b" transform="rotate(111.454 27.557 19.315)scale(.00381)"/><use xlink:href="#b" transform="rotate(-72.625 28.142 -36.545)scale(.0027)"/><use xlink:href="#b" transform="rotate(7.515 24.042 418.814)scale(.0032)"/><use xlink:href="#b" transform="rotate(60.925 27.635 47.634)scale(.00344)"/><use xlink:href="#b" transform="rotate(-49.36 28.635 -59.414)scale(.00395)"/><use xlink:href="#b" transform="rotate(241.99 28.44 -16.011)scale(.003)"/><use xlink:href="#b" transform="rotate(94.74 28.24 26.51)scale(.0036)"/><use xlink:href="#b" transform="rotate(-13.196 30.294 -241.904)scale(.00396)"/><use xlink:href="#b" transform="rotate(86.843 28.368 30.602)scale(.00283)"/><use xlink:href="#b" transform="rotate(-30.784 29.875 -101.701)scale(.00377)"/><use xlink:href="#b" transform="rotate(49.121 27.595 62.882)scale(.00288)"/><use xlink:href="#b" transform="rotate(-94.05 29.267 -25.32)scale(.00283)"/><use xlink:href="#b" transform="rotate(113.28 28.34 19.858)scale(.004)"/><use xlink:href="#b" transform="rotate(173.388 28.677 2.994)scale(.00332)"/><use xlink:href="#b" transform="rotate(-4.316 53.563 -747.524)scale(.00402)"/><use xlink:href="#b" transform="rotate(120.453 28.1 17.827)scale(.00351)"/><use xlink:href="#b" transform="rotate(-92.52 29.935 -25.263)scale(.00344)"/><use xlink:href="#b" transform="rotate(35.171 24.415 91.075)scale(.00365)"/><use xlink:href="#b" transform="rotate(91.35 27.293 29.676)scale(.00383)"/><use xlink:href="#b" transform="rotate(164.182 28.51 6.14)scale(.00356)"/><use xlink:href="#b" transform="rotate(162.334 28.499 6.78)scale(.00403)"/><use xlink:href="#b" transform="rotate(181.4 28.756 2.143)scale(.0034)"/><use xlink:href="#b" transform="rotate(192.503 28.929 -.533)scale(.00288)"/><use xlink:href="#b" transform="rotate(257.432 30.481 -20.043)scale(.00267)"/><use xlink:href="#b" transform="rotate(234.929 29.92 -11.893)scale(.00318)"/><use xlink:href="#b" transform="rotate(42.137 22.262 76.395)scale(.0026)"/><use xlink:href="#b" transform="rotate(208.383 29.343 -4.155)scale(.0029)"/><use xlink:href="#b" transform="rotate(-40.911 35.844 -72.773)scale(.00287)"/><use xlink:href="#b" transform="rotate(39.936 21.249 81.043)scale(.00372)"/><use xlink:href="#b" transform="rotate(59.412 23.59 52.971)scale(.00292)"/><use xlink:href="#b" transform="rotate(160.389 28.205 8.4)scale(.00329)"/><use xlink:href="#b" transform="rotate(82.695 25.148 35.767)scale(.00315)"/><use xlink:href="#b" transform="rotate(41.848 20.373 77.657)scale(.00397)"/><use xlink:href="#b" transform="rotate(-25.691 43.565 -119.938)scale(.00368)"/><use xlink:href="#b" transform="rotate(-9.615 70.976 -332.369)scale(.00305)"/><use xlink:href="#b" transform="rotate(-78.352 33.21 -30.417)scale(.00394)"/><use xlink:href="#b" transform="rotate(192.281 29.133 1.272)scale(.00328)"/><use xlink:href="#b" transform="rotate(212.33 29.882 -3.716)scale(.00364)"/><use xlink:href="#b" transform="rotate(151.474 27.694 11.772)scale(.00335)"/><use xlink:href="#b" transform="rotate(36.117 15.79 91.456)scale(.00306)"/><use xlink:href="#b" transform="rotate(.436 -1104.55 7431.039)scale(.0033)"/><use xlink:href="#b" transform="rotate(72.075 22.647 43.814)scale(.00347)"/><use xlink:href="#b" transform="rotate(72.983 22.539 43.306)scale(.00327)"/><use xlink:href="#b" transform="rotate(-18.17 58.188 -171.774)scale(.00301)"/><use xlink:href="#b" transform="rotate(-66.165 36.119 -38.145)scale(.00298)"/><use xlink:href="#b" transform="rotate(153.736 27.521 11.979)scale(.00264)"/><use xlink:href="#b" transform="rotate(-45.842 40.605 -61.307)scale(.0034)"/><use xlink:href="#b" transform="rotate(156.749 27.653 11.472)scale(.00317)"/><use xlink:href="#b" transform="rotate(-68.12 36.524 -35.963)scale(.00368)"/><use xlink:href="#b" transform="rotate(-79.125 35.28 -28.215)scale(.00377)"/><use xlink:href="#b" transform="rotate(232.528 31.465 -7.893)scale(.00322)"/><use xlink:href="#b" transform="rotate(112.661 24.966 25.042)scale(.00356)"/><use xlink:href="#b" transform="rotate(89.42 22.82 34.886)scale(.00309)"/><use xlink:href="#b" transform="rotate(228.161 31.41 -6.096)scale(.00405)"/><use xlink:href="#b" transform="rotate(-33.162 49.268 -88.58)scale(.00263)"/><use xlink:href="#b" transform="rotate(-53.999 40.909 -48.953)scale(.0026)"/><use xlink:href="#b" transform="rotate(253.998 33.474 -14.452)scale(.00367)"/><use xlink:href="#b" transform="rotate(200.671 29.879 1.748)scale(.00297)"/><use xlink:href="#b" transform="rotate(228.175 31.678 -5.505)scale(.00395)"/><use xlink:href="#b" transform="rotate(84.611 21.307 38.262)scale(.00283)"/><use xlink:href="#b" transform="rotate(140.808 26.283 17.362)scale(.00308)"/><use xlink:href="#b" transform="rotate(29.323 2.27 115.508)scale(.00328)"/><use xlink:href="#b" transform="rotate(150.688 26.898 14.964)scale(.00349)"/><use xlink:href="#b" transform="rotate(40.757 9.352 83.824)scale(.00308)"/><use xlink:href="#b" transform="rotate(184.117 28.969 6.762)scale(.00303)"/><use xlink:href="#b" transform="rotate(231.758 32.305 -5.843)scale(.00294)"/><use xlink:href="#b" transform="rotate(71.419 18.22 47.368)scale(.00304)"/><use xlink:href="#b" transform="rotate(193.303 29.615 4.85)scale(.0033)"/><use xlink:href="#b" transform="rotate(-30.136 57.611 -96.86)scale(.003)"/><use xlink:href="#b" transform="rotate(187.068 29.219 6.654)scale(.00342)"/><use xlink:href="#b" transform="rotate(29.82 -1.336 114.703)scale(.00337)"/><use xlink:href="#b" transform="rotate(229.451 32.496 -4.3)scale(.00388)"/><use xlink:href="#b" transform="rotate(-47.184 47.696 -55.952)scale(.00329)"/><use xlink:href="#b" transform="rotate(-60.165 43.254 -39.962)scale(.00298)"/><use xlink:href="#b" transform="rotate(-1.162 872.876 -2783.692)scale(.00268)"/><use xlink:href="#b" transform="rotate(176.223 28.445 10.073)scale(.00336)"/><use xlink:href="#b" transform="rotate(124.271 24.165 24.254)scale(.004)"/><use xlink:href="#b" transform="rotate(197.011 30.023 5.128)scale(.00274)"/><use xlink:href="#b" transform="rotate(215.54 31.64 .526)scale(.00387)"/><use xlink:href="#b" transform="rotate(26.412 -10.112 130.048)scale(.0039)"/><use xlink:href="#b" transform="matrix(0 -.00378 .00378 0 56.416 19.657)"/><use xlink:href="#b" transform="rotate(189.856 29.57 7.572)scale(.00378)"/><use xlink:href="#b" transform="rotate(33.452 -3.16 104.174)scale(.00348)"/><use xlink:href="#b" transform="rotate(75.927 16.186 46.472)scale(.0028)"/><use xlink:href="#b" transform="rotate(48.866 7.187 72.552)scale(.00387)"/><use xlink:href="#b" transform="rotate(-53.14 48.717 -46.2)scale(.00264)"/><use xlink:href="#b" transform="rotate(233.32 33.787 -3.605)scale(.00329)"/><use xlink:href="#b" transform="rotate(-89.751 38.985 -17.564)scale(.004)"/><use xlink:href="#b" transform="rotate(3.812 -282.202 860.106)scale(.00355)"/><use xlink:href="#b" transform="rotate(-76.488 42.042 -24.866)scale(.00332)"/><use xlink:href="#b" transform="rotate(162.519 27.07 15.456)scale(.00303)"/><use xlink:href="#b" transform="rotate(110.044 21.202 31.026)scale(.00321)"/><use xlink:href="#b" transform="rotate(142.679 25.013 20.882)scale(.0028)"/><use xlink:href="#b" transform="rotate(19.171 -36.307 178.975)scale(.00308)"/><use xlink:href="#b" transform="rotate(-69.31 44.764 -29.357)scale(.00305)"/><use xlink:href="#b" transform="matrix(-.00362 0 0 -.00362 57.494 23.483)"/><use xlink:href="#b" transform="rotate(174.866 28.257 13.17)scale(.00388)"/><use xlink:href="#b" transform="rotate(-92.56 39.708 -15.07)scale(.00313)"/><use xlink:href="#b" transform="rotate(244.954 36.135 -5.777)scale(.00405)"/><use xlink:href="#b" transform="rotate(235.072 34.847 -2.504)scale(.00305)"/><use xlink:href="#b" transform="rotate(3.928 -318.522 837.903)scale(.0028)"/><use xlink:href="#b" transform="rotate(68.705 11.116 53.863)scale(.0028)"/><use xlink:href="#b" transform="rotate(6.1 -198.439 543.501)scale(.00306)"/><use xlink:href="#b" transform="rotate(-16.196 114.676 -186.273)scale(.00284)"/><use xlink:href="#b" transform="rotate(79.198 13.79 47)scale(.00296)"/><use xlink:href="#b" transform="rotate(221.925 33.472 2.067)scale(.00299)"/><use xlink:href="#b" transform="rotate(206.486 31.674 6.392)scale(.00325)"/><use xlink:href="#b" transform="rotate(-98.366 39.667 -11.225)scale(.00343)"/><use xlink:href="#b" transform="rotate(93.607 16.64 39.837)scale(.00273)"/><use xlink:href="#b" transform="rotate(-74.658 45.638 -23.581)scale(.00376)"/><use xlink:href="#b" transform="rotate(8.524 -145.925 392.598)scale(.00376)"/><use xlink:href="#b" transform="rotate(195.379 30.509 9.886)scale(.00336)"/><use xlink:href="#b" transform="rotate(-62.694 50.597 -32.686)scale(.00286)"/><use xlink:href="#b" transform="rotate(62.947 6.69 60.133)scale(.00266)"/><use xlink:href="#b" transform="rotate(26.659 -28.507 133.462)scale(.00285)"/><use xlink:href="#b" transform="rotate(94.746 16.152 40.163)scale(.00311)"/><use xlink:href="#b" transform="rotate(89.472 14.86 42.803)scale(.00343)"/><use xlink:href="#b" transform="rotate(-80.252 45.198 -19.229)scale(.00288)"/><use xlink:href="#b" transform="rotate(142.737 24.031 24.057)scale(.00358)"/><use xlink:href="#b" transform="rotate(-84.679 44.23 -16.48)scale(.00278)"/><use xlink:href="#b" transform="rotate(46.225 -4.542 80.968)scale(.00374)"/><use xlink:href="#b" transform="rotate(-54.282 56.76 -40.195)scale(.00362)"/><use xlink:href="#b" transform="rotate(258.269 40.522 -8.07)scale(.0027)"/><use xlink:href="#b" transform="rotate(222.331 34.397 4.228)scale(.00366)"/><use xlink:href="#b" transform="rotate(117.206 19.767 32.552)scale(.00388)"/><use xlink:href="#b" transform="rotate(180.358 28.777 15.358)scale(.0036)"/><use xlink:href="#b" transform="rotate(86.12 12.516 45.773)scale(.00263)"/><use xlink:href="#b" transform="rotate(68.465 6.41 57.169)scale(.0031)"/><use xlink:href="#b" transform="rotate(165.352 26.694 19.363)scale(.00286)"/><use xlink:href="#b" transform="rotate(102.641 16.417 38.497)scale(.00368)"/><use xlink:href="#b" transform="rotate(239.668 37.544 -.246)scale(.0027)"/><use xlink:href="#b" transform="rotate(-28.312 90.655 -95.937)scale(.00272)"/><use xlink:href="#b" transform="rotate(221.696 34.62 5.448)scale(.00299)"/><use xlink:href="#b" transform="rotate(98.721 15.117 40.552)scale(.00388)"/><use xlink:href="#b" transform="rotate(-38.808 74.011 -63.591)scale(.00295)"/><use xlink:href="#b" transform="rotate(195.061 30.714 12.845)scale(.00301)"/><use xlink:href="#b" transform="rotate(-53.088 60.99 -39.467)scale(.00395)"/><use xlink:href="#b" transform="rotate(-65.304 54.1 -27.16)scale(.00262)"/><use xlink:href="#b" transform="rotate(192.685 30.38 13.834)scale(.0033)"/><use xlink:href="#b" transform="rotate(124.641 19.837 31.813)scale(.0033)"/><use xlink:href="#b" transform="rotate(-99.597 42.628 -6.439)scale(.00375)"/><use xlink:href="#b" transform="rotate(9.336 -177.438 360.41)scale(.00365)"/><use xlink:href="#b" transform="rotate(198.91 31.249 12.746)scale(.00263)"/><use xlink:href="#b" transform="rotate(104.076 15.094 39.41)scale(.00307)"/><use xlink:href="#b" transform="rotate(121.219 18.68 33.417)scale(.00274)"/><use xlink:href="#b" transform="rotate(106.908 15.546 38.498)scale(.003)"/><use xlink:href="#b" transform="rotate(18.406 -78.767 190.009)scale(.00393)"/><use xlink:href="#b" transform="rotate(-73.228 51.951 -19.524)scale(.00302)"/><use xlink:href="#b" transform="rotate(156.153 24.532 24.002)scale(.0027)"/><use xlink:href="#b" transform="rotate(143.276 22.434 27.546)scale(.00388)"/><use xlink:href="#b" transform="rotate(-61.346 58.44 -28.553)scale(.00283)"/><use xlink:href="#b" transform="rotate(98.266 12.615 42.531)scale(.00312)"/><use xlink:href="#b" transform="rotate(90.582 10.258 46.083)scale(.0034)"/><use xlink:href="#b" transform="rotate(155.447 24.146 24.748)scale(.0029)"/><use xlink:href="#b" transform="rotate(169.987 26.459 21.22)scale(.0026)"/><use xlink:href="#b" transform="rotate(186.388 29.074 17.345)scale(.00263)"/><use xlink:href="#b" transform="rotate(-81.885 49.428 -12.875)scale(.00272)"/><use xlink:href="#b" transform="rotate(-4.47 506.329 -688.326)scale(.00276)"/><use xlink:href="#b" transform="rotate(-59.432 60.847 -29.157)scale(.0026)"/><use xlink:href="#b" transform="rotate(-84.993 48.512 -10.787)scale(.00269)"/><use xlink:href="#b" transform="rotate(-70.024 54.934 -19.695)scale(.00372)"/><use xlink:href="#b" transform="rotate(-25.33 112.755 -102.584)scale(.00302)"/><use xlink:href="#b" transform="rotate(-36.555 85.814 -63.065)scale(.00382)"/><use xlink:href="#b" transform="rotate(-97.414 44.737 -4.215)scale(.00314)"/><use xlink:href="#b" transform="rotate(77.41 3.581 53.983)scale(.00386)"/><use xlink:href="#b" transform="rotate(212.523 33.417 12.201)scale(.004)"/><use xlink:href="#b" transform="rotate(-90.6 47.113 -6.792)scale(.00269)"/><use xlink:href="#b" transform="rotate(165.197 25.021 23.833)scale(.00341)"/><use xlink:href="#b" transform="rotate(109.482 13.442 39.558)scale(.00315)"/><use xlink:href="#b" transform="rotate(-12.343 212.607 -229.472)scale(.0033)"/><use xlink:href="#b" transform="rotate(99.208 10.323 43.608)scale(.00352)"/><use xlink:href="#b" transform="rotate(163.603 24.493 24.689)scale(.00386)"/><use xlink:href="#b" transform="rotate(114.803 14.251 38.062)scale(.00308)"/><use xlink:href="#b" transform="rotate(93.42 7.907 46.245)scale(.0029)"/><use xlink:href="#b" transform="rotate(220.59 34.849 11.291)scale(.00401)"/><use xlink:href="#b" transform="rotate(36.008 -36.716 103.402)scale(.00297)"/><use xlink:href="#b" transform="rotate(208.498 32.346 14.5)scale(.00267)"/><use xlink:href="#b" transform="rotate(78.66 1.545 53.873)scale(.00356)"/><use xlink:href="#b" transform="rotate(-50.468 71.594 -34.7)scale(.00343)"/><use xlink:href="#b" transform="rotate(92.898 6.824 46.814)scale(.00348)"/><use xlink:href="#b" transform="rotate(130.672 17.062 33.882)scale(.00313)"/><use xlink:href="#b" transform="rotate(-42.701 81.465 -45.564)scale(.00303)"/><use xlink:href="#b" transform="rotate(5.854 -393.183 535.909)scale(.00322)"/><use xlink:href="#b" transform="rotate(152.368 21.302 28.473)scale(.0026)"/><use xlink:href="#b" transform="rotate(221.514 34.812 12.249)scale(.00329)"/><use xlink:href="#b" transform="rotate(85.48 2.968 50.502)scale(.00312)"/><use xlink:href="#b" transform="rotate(-55.223 68.27 -27.388)scale(.0033)"/><use xlink:href="#b" transform="rotate(248.4 41.325 4.756)scale(.00276)"/><use xlink:href="#b" transform="rotate(214.398 33.151 14.479)scale(.00273)"/><use xlink:href="#b" transform="rotate(63.125 -9.821 64.727)scale(.00285)"/><use xlink:href="#b" transform="rotate(-39.501 88.214 -49.268)scale(.00262)"/><use xlink:href="#b" transform="rotate(-71.53 57.156 -12.978)scale(.00285)"/><use xlink:href="#b" transform="rotate(139.633 17.818 32.297)scale(.00262)"/><use xlink:href="#b" transform="rotate(-65.23 61.194 -17.1)scale(.0029)"/><use xlink:href="#b" transform="rotate(92.655 4.505 47.465)scale(.0039)"/><use xlink:href="#b" transform="rotate(-45.032 80.58 -38.047)scale(.00377)"/><use xlink:href="#b" transform="rotate(37.77 -41.012 97.53)scale(.00262)"/><use xlink:href="#b" transform="rotate(191.343 27.983 20.81)scale(.00262)"/><use xlink:href="#b" transform="rotate(229.604 36.289 11.79)scale(.00316)"/><use xlink:href="#b" transform="rotate(171.531 23.903 25.43)scale(.00334)"/><use xlink:href="#b" transform="rotate(-54.969 70.003 -24.438)scale(.00373)"/><use xlink:href="#b" transform="rotate(156.513 20.623 28.99)scale(.00364)"/><use xlink:href="#b" transform="rotate(-2.677 1026.45 -1043.012)scale(.00295)"/><use xlink:href="#b" transform="rotate(38.448 -41.998 95.156)scale(.00324)"/><use xlink:href="#b" transform="rotate(108.287 8.107 41.913)scale(.00263)"/><use xlink:href="#b" transform="rotate(84.927 -.685 51.09)scale(.0033)"/><use xlink:href="#b" transform="rotate(-8.92 329.217 -291.294)scale(.00305)"/><use xlink:href="#b" transform="rotate(151.289 18.836 30.548)scale(.00284)"/><use xlink:href="#b" transform="rotate(252.641 42.435 6.384)scale(.00305)"/><use xlink:href="#b" transform="rotate(251.615 42.093 6.936)scale(.00354)"/><use xlink:href="#b" transform="rotate(-3.466 820.762 -778.592)scale(.00282)"/><use xlink:href="#b" transform="rotate(174.008 23.408 25.963)scale(.00392)"/><use xlink:href="#b" transform="rotate(154.19 18.981 30.271)scale(.00338)"/><use xlink:href="#b" transform="rotate(-70.631 58.78 -9.032)scale(.00325)"/><use xlink:href="#b" transform="rotate(17.4 -135.206 181.103)scale(.00328)"/><use xlink:href="#b" transform="rotate(110.599 7.253 41.481)scale(.0029)"/><use xlink:href="#b" transform="rotate(170.245 22.052 27.073)scale(.00286)"/><use xlink:href="#b" transform="rotate(-39.118 93.377 -41.16)scale(.00403)"/><use xlink:href="#b" transform="rotate(-8.174 370.245 -303.865)scale(.00346)"/><use xlink:href="#b" transform="rotate(22.941 -98.687 140.958)scale(.00285)"/><use xlink:href="#b" transform="rotate(-35.032 102.665 -48.439)scale(.00365)"/><use xlink:href="#b" transform="rotate(125.389 10.757 37.49)scale(.00297)"/><use xlink:href="#b" transform="rotate(31.31 -65.973 108.29)scale(.00288)"/><use xlink:href="#b" transform="rotate(53.991 -25.806 70.925)scale(.00342)"/><use xlink:href="#b" transform="rotate(240.109 38 12.347)scale(.00262)"/><use xlink:href="#b" transform="rotate(62.692 -18.126 63.357)scale(.00356)"/><use xlink:href="#b" transform="rotate(161.339 19.041 29.591)scale(.00294)"/><use xlink:href="#b" transform="rotate(-67.943 60.86 -7.603)scale(.00393)"/><use xlink:href="#b" transform="rotate(240.236 37.838 13.039)scale(.00404)"/><use xlink:href="#b" transform="rotate(244.925 39.185 11.751)scale(.00266)"/><use xlink:href="#b" transform="rotate(132.056 11.45 36.158)scale(.00392)"/><use xlink:href="#b" transform="rotate(-30.056 118.52 -56.346)scale(.0039)"/><use xlink:href="#b" transform="rotate(130.256 10.602 36.614)scale(.00345)"/><use xlink:href="#b" transform="rotate(164.994 19.073 29.355)scale(.00371)"/><use xlink:href="#b" transform="rotate(213.001 30.027 19.963)scale(.00282)"/><use xlink:href="#b" transform="rotate(-40.68 92.615 -32.467)scale(.00263)"/><use xlink:href="#b" transform="rotate(135.552 11.56 35.526)scale(.00402)"/><use xlink:href="#b" transform="rotate(129.866 9.768 36.78)scale(.00304)"/><use xlink:href="#b" transform="rotate(72.98 -13.634 55.825)scale(.00267)"/><use xlink:href="#b" transform="rotate(-82.921 51.617 2.586)scale(.00332)"/><use xlink:href="#b" transform="rotate(-58.515 68.79 -11.102)scale(.00345)"/><use xlink:href="#b" transform="rotate(93.272 -3.391 46.936)scale(.00278)"/><use xlink:href="#b" transform="rotate(-97.687 44.679 8.613)scale(.00365)"/><use xlink:href="#b" transform="rotate(155.725 15.693 31.553)scale(.00312)"/><use xlink:href="#b" transform="rotate(-67.415 61.185 -4.145)scale(.00336)"/><use xlink:href="#b" transform="rotate(204.34 26.96 22.737)scale(.00368)"/><use xlink:href="#b" transform="rotate(13.369 -206.62 202.84)scale(.00387)"/><use xlink:href="#b" transform="rotate(101.812 -.89 43.942)scale(.00272)"/><use xlink:href="#b" transform="rotate(55.43 -30.275 66.19)scale(.00312)"/><use xlink:href="#b" transform="rotate(186.08 22.195 26.375)scale(.00388)"/><use xlink:href="#b" transform="rotate(96.343 -3.482 45.506)scale(.00361)"/><use xlink:href="#b" transform="rotate(-48.744 80.077 -16.625)scale(.00356)"/><use xlink:href="#b" transform="rotate(-41.014 92.639 -25.457)scale(.00391)"/><use xlink:href="#b" transform="rotate(-11.299 294.045 -171.66)scale(.0039)"/><use xlink:href="#b" transform="rotate(89.004 -7.614 47.672)scale(.003)"/><use xlink:href="#b" transform="rotate(34.41 -67.967 90.813)scale(.00324)"/><use xlink:href="#b" transform="rotate(250.645 39.189 14.023)scale(.00328)"/><use xlink:href="#b" transform="rotate(86.053 -9.457 48.497)scale(.00382)"/><use xlink:href="#b" transform="rotate(89.742 -7.886 47.126)scale(.00327)"/><use xlink:href="#b" transform="rotate(-88.82 47.478 8.462)scale(.00318)"/><use xlink:href="#b" transform="rotate(-42.218 90.415 -20.895)scale(.00387)"/><use xlink:href="#b" transform="rotate(65.775 -23.226 57.049)scale(.00371)"/><use xlink:href="#b" transform="rotate(251.635 38.984 14.628)scale(.00355)"/><use xlink:href="#b" transform="rotate(222.17 29.6 20.886)scale(.00271)"/><use xlink:href="#b" transform="rotate(211.512 26.681 22.97)scale(.00369)"/><use xlink:href="#b" transform="rotate(160.093 13.89 31.381)scale(.00332)"/><use xlink:href="#b" transform="rotate(-29.11 125.25 -41.708)scale(.0035)"/><use xlink:href="#b" transform="rotate(163.563 14.528 30.894)scale(.00396)"/><use xlink:href="#b" transform="rotate(32.164 -78.039 90.405)scale(.00312)"/><use xlink:href="#b" transform="rotate(113.818 .054 39.884)scale(.00267)"/><use xlink:href="#b" transform="rotate(-75.678 53.944 5.633)scale(.00363)"/><use xlink:href="#b" transform="rotate(181.888 18.438 28.044)scale(.00286)"/><use xlink:href="#b" transform="rotate(-67.629 59.552 2.255)scale(.00285)"/><use xlink:href="#b" transform="rotate(-82.677 49.533 8.605)scale(.00272)"/><use xlink:href="#b" transform="rotate(-99.242 41.433 13.875)scale(.0039)"/><use xlink:href="#b" transform="rotate(59.492 -31.492 58.42)scale(.00273)"/><use xlink:href="#b" transform="rotate(25.682 -105.264 102.982)scale(.00345)"/><use xlink:href="#b" transform="rotate(14.339 -205.277 162.496)scale(.00341)"/><use xlink:href="#b" transform="rotate(221.2 27.724 22.281)scale(.00358)"/><use xlink:href="#b" transform="rotate(39.786 -60.377 74.37)scale(.0037)"/><use xlink:href="#b" transform="rotate(13.75 -215.88 165.034)scale(.00338)"/><use xlink:href="#b" transform="rotate(16.844 -173.07 138.999)scale(.00312)"/><use xlink:href="#b" transform="rotate(-31.742 115.643 -28.59)scale(.00283)"/><use xlink:href="#b" transform="rotate(71.68 -22.487 50.964)scale(.00263)"/><use xlink:href="#b" transform="rotate(126.587 2.284 36.695)scale(.00311)"/><use xlink:href="#b" transform="rotate(168.722 13.54 30.207)scale(.00295)"/><use xlink:href="#b" transform="rotate(63.148 -29.48 54.303)scale(.00402)"/><use xlink:href="#b" transform="rotate(52.89 -40.724 60.173)scale(.0026)"/><use xlink:href="#b" transform="rotate(114.751 -2.052 38.643)scale(.00347)"/><use xlink:href="#b" transform="rotate(141.325 5.982 34.135)scale(.00375)"/><use xlink:href="#b" transform="rotate(147.966 7.633 33.122)scale(.00372)"/><use xlink:href="#b" transform="rotate(30.622 -87.324 83.78)scale(.0039)"/><use xlink:href="#b" transform="rotate(-68.918 56.526 7.007)scale(.00365)"/><use xlink:href="#b" transform="rotate(224.286 26.765 22.726)scale(.00342)"/><use xlink:href="#b" transform="rotate(258.107 38.06 16.763)scale(.00287)"/><use xlink:href="#b" transform="rotate(-5.763 575.595 -260.366)scale(.00364)"/><use xlink:href="#b" transform="rotate(167.735 11.826 30.266)scale(.00272)"/><use xlink:href="#b" transform="rotate(68.584 -26.68 49.8)scale(.00298)"/><use xlink:href="#b" transform="rotate(141.515 4.814 33.719)scale(.00326)"/><use xlink:href="#b" transform="rotate(14.092 -213.848 142.744)scale(.00348)"/><use xlink:href="#b" transform="rotate(-59.645 63.738 4.248)scale(.00272)"/><use xlink:href="#b" transform="rotate(2.624 -1219.236 634.792)scale(.00313)"/><use xlink:href="#b" transform="rotate(-45.159 82.143 -4.41)scale(.00297)"/><use xlink:href="#b" transform="rotate(-66.087 57.468 7.826)scale(.00352)"/><use xlink:href="#b" transform="rotate(224.763 25.583 23.246)scale(.00394)"/><use xlink:href="#b" transform="rotate(175.562 12.694 29.225)scale(.00307)"/><use xlink:href="#b" transform="rotate(-47.555 77.687 -1.283)scale(.00343)"/><use xlink:href="#b" transform="rotate(-31.05 114.895 -18.199)scale(.00397)"/><use xlink:href="#b" transform="rotate(-86.948 43.144 14.952)scale(.00282)"/><use xlink:href="#b" transform="rotate(133.403 1.132 34.2)scale(.00294)"/><use xlink:href="#b" transform="rotate(239.617 29.318 21.42)scale(.00365)"/><use xlink:href="#b" transform="rotate(56.448 -39.37 52.112)scale(.00342)"/><use xlink:href="#b" transform="rotate(140.942 2.978 33.083)scale(.0038)"/><use xlink:href="#b" transform="rotate(4.008 -791.195 381.426)scale(.00303)"/><use xlink:href="#b" transform="rotate(212 20.721 25.131)scale(.00359)"/><use xlink:href="#b" transform="rotate(2.686 -1183.697 542.29)scale(.00365)"/><use xlink:href="#b" transform="rotate(-63.287 57.917 9.154)scale(.00312)"/><use xlink:href="#b" transform="rotate(121.928 -3.226 35.119)scale(.00401)"/><use xlink:href="#b" transform="rotate(240.406 28.417 21.688)scale(.00304)"/><use xlink:href="#b" transform="rotate(146.909 3.669 31.909)scale(.003)"/><use xlink:href="#b" transform="rotate(.868 -3676.653 1536.2)scale(.00357)"/><use xlink:href="#b" transform="rotate(104.62 -9.745 37.182)scale(.00398)"/><use xlink:href="#b" transform="rotate(231.377 25.027 23.016)scale(.0031)"/><use xlink:href="#b" transform="rotate(253.586 32.335 20.172)scale(.00368)"/><use xlink:href="#b" transform="rotate(64.597 -32.673 45.603)scale(.00334)"/><use xlink:href="#b" transform="rotate(-33.334 104.106 -7.696)scale(.00334)"/><use xlink:href="#b" transform="rotate(178.91 10.882 28.434)scale(.00397)"/><use xlink:href="#b" transform="rotate(127.481 -2.707 33.436)scale(.00341)"/><use xlink:href="#b" transform="rotate(58.082 -39.063 46.931)scale(.00322)"/><use xlink:href="#b" transform="rotate(-41.88 83.117 1.15)scale(.0027)"/><use xlink:href="#b" transform="rotate(41.371 -62.499 55.055)scale(.00355)"/><use xlink:href="#b" transform="rotate(209.404 17.739 25.479)scale(.0034)"/><use xlink:href="#b" transform="rotate(227.191 22.415 23.792)scale(.00386)"/><use xlink:href="#b" transform="rotate(197.91 14.583 26.513)scale(.00373)"/><use xlink:href="#b" transform="rotate(170.038 7.69 28.798)scale(.00307)"/><use xlink:href="#b" transform="rotate(222.001 20.505 24.216)scale(.00277)"/><use xlink:href="#b" transform="rotate(120.713 -5.72 33.264)scale(.00306)"/><use xlink:href="#b" transform="rotate(256.171 31.217 20.49)scale(.00291)"/><use xlink:href="#b" transform="rotate(159.791 4.796 29.45)scale(.0031)"/><use xlink:href="#b" transform="rotate(21.4 -134.393 75.765)scale(.00396)"/><use xlink:href="#b" transform="rotate(-42.242 79.879 4.445)scale(.00318)"/><use xlink:href="#b" transform="rotate(-50.325 67.103 8.858)scale(.00353)"/><use xlink:href="#b" transform="rotate(184.092 10.188 27.352)scale(.00393)"/><use xlink:href="#b" transform="rotate(-95.039 33.84 19.578)scale(.00261)"/><use xlink:href="#b" transform="rotate(255.526 29.888 20.876)scale(.00295)"/><use xlink:href="#b" transform="rotate(219.868 18.648 24.474)scale(.00383)"/><use xlink:href="#b" transform="rotate(163.745 4.868 28.575)scale(.00303)"/><use xlink:href="#b" transform="rotate(18.521 -156.379 77.753)scale(.00272)"/><use xlink:href="#b" transform="rotate(-73.591 44.403 16.4)scale(.0027)"/><use xlink:href="#b" transform="rotate(90.279 -18.11 35.208)scale(.00388)"/><use xlink:href="#b" transform="rotate(109.268 -10.69 32.773)scale(.00283)"/><use xlink:href="#b" transform="rotate(247.38 25.966 22.066)scale(.00403)"/><use xlink:href="#b" transform="rotate(144.154 -.562 29.522)scale(.00275)"/><use xlink:href="#b" transform="rotate(20.99 -134.827 67.443)scale(.00395)"/><use xlink:href="#b" transform="rotate(15.94 -181.22 79.983)scale(.003)"/><use xlink:href="#b" transform="rotate(122.572 -6.756 30.887)scale(.00277)"/><use xlink:href="#b" transform="rotate(176.209 6.79 27.084)scale(.0033)"/><use xlink:href="#b" transform="rotate(122.943 -6.76 30.635)scale(.00298)"/><use xlink:href="#b" transform="rotate(244.953 24.139 22.279)scale(.00343)"/><use xlink:href="#b" transform="rotate(16.065 -177.538 75.212)scale(.00386)"/><use xlink:href="#b" transform="rotate(46.074 -54.219 42.567)scale(.00275)"/><use xlink:href="#b" transform="rotate(73.813 -27.412 35.391)scale(.00383)"/><use xlink:href="#b" transform="rotate(-92.294 31.933 20.077)scale(.0029)"/><use xlink:href="#b" transform="rotate(97.973 -15.54 32)scale(.00361)"/><use xlink:href="#b" transform="rotate(138.042 -3.048 28.75)scale(.00374)"/><use xlink:href="#b" transform="rotate(119.928 -8.25 29.812)scale(.00261)"/><use xlink:href="#b" transform="rotate(93.045 -17.636 31.99)scale(.0039)"/><use xlink:href="#b" transform="rotate(10.827 -263.56 89.983)scale(.00302)"/><use xlink:href="#b" transform="rotate(154.34 .54 27.33)scale(.0027)"/><use xlink:href="#b" transform="rotate(11.969 -235.924 81.519)scale(.00375)"/><use xlink:href="#b" transform="rotate(202.253 11.2 24.771)scale(.00384)"/><use xlink:href="#b" transform="rotate(189.027 8.051 25.288)scale(.00281)"/><use xlink:href="#b" transform="rotate(10.643 -263.891 84.787)scale(.00386)"/><use xlink:href="#b" transform="rotate(183.208 6.552 25.414)scale(.00267)"/><use xlink:href="#b" transform="rotate(215.829 13.882 23.76)scale(.00272)"/><use xlink:href="#b" transform="rotate(145.791 -1.98 27.091)scale(.00306)"/><use xlink:href="#b" transform="rotate(44.088 -55.832 38.202)scale(.00333)"/><use xlink:href="#b" transform="rotate(.442 -6418.619 1340.952)scale(.00342)"/><use xlink:href="#b" transform="rotate(152.717 -.599 26.422)scale(.00279)"/><use xlink:href="#b" transform="rotate(135.645 -4.653 27.177)scale(.0037)"/><use xlink:href="#b" transform="rotate(257.197 24.855 21.261)scale(.00354)"/><use xlink:href="#b" transform="rotate(185.757 6.394 24.748)scale(.00343)"/><use xlink:href="#b" transform="rotate(48.247 -49.55 35.27)scale(.0026)"/><use xlink:href="#b" transform="rotate(105.004 -13.619 28.302)scale(.00363)"/><use xlink:href="#b" transform="rotate(174.308 3.664 24.917)scale(.0029)"/><use xlink:href="#b" transform="rotate(259.53 24.908 20.932)scale(.0027)"/><use xlink:href="#b" transform="rotate(-62.803 44.163 17.522)scale(.00321)"/><use xlink:href="#b" transform="rotate(189.412 6.624 24.128)scale(.0032)"/><use xlink:href="#b" transform="rotate(147.706 -2.32 25.599)scale(.0036)"/><use xlink:href="#b" transform="rotate(132.969 -5.815 26.063)scale(.0039)"/><use xlink:href="#b" transform="rotate(90.847 -18.895 28.047)scale(.00368)"/><use xlink:href="#b" transform="rotate(8.368 -317.204 75.915)scale(.00384)"/><use xlink:href="#b" transform="rotate(168.536 1.874 24.382)scale(.00397)"/><use xlink:href="#b" transform="rotate(-71.267 36.605 18.906)scale(.004)"/><use xlink:href="#b" transform="rotate(-26.836 101.183 9.124)scale(.00384)"/><use xlink:href="#b" transform="rotate(247.23 19.259 21.406)scale(.0039)"/><use xlink:href="#b" transform="rotate(103.301 -14.415 26.163)scale(.00316)"/><use xlink:href="#b" transform="rotate(170.758 1.918 23.72)scale(.00399)"/><use xlink:href="#b" transform="rotate(119.895 -9.558 25.138)scale(.00325)"/><use xlink:href="#b" transform="rotate(-30.86 85.894 11.775)scale(.00283)"/><use xlink:href="#b" transform="rotate(166.066 .733 23.487)scale(.00334)"/><use xlink:href="#b" transform="rotate(83.669 -21.725 26.326)scale(.00326)"/><use xlink:href="#b" transform="rotate(234.591 14.901 21.396)scale(.0031)"/><use xlink:href="#b" transform="rotate(137.913 -5.34 23.889)scale(.00293)"/><use xlink:href="#b" transform="rotate(16.607 -149.313 41.874)scale(.00282)"/><use xlink:href="#b" transform="rotate(33.42 -70.782 31.76)scale(.00265)"/><use xlink:href="#b" transform="rotate(183.191 3.69 22.455)scale(.00298)"/><use xlink:href="#b" transform="rotate(216.112 10.189 21.627)scale(.00345)"/><use xlink:href="#b" transform="rotate(173.679 1.72 22.454)scale(.0028)"/><use xlink:href="#b" transform="rotate(-91.256 24.19 19.795)scale(.00286)"/><use xlink:href="#b" transform="rotate(-61.059 39.623 17.98)scale(.00266)"/><use xlink:href="#b" transform="rotate(43.333 -51.492 27.964)scale(.00332)"/><use xlink:href="#b" transform="rotate(40.089 -56.178 28.244)scale(.00303)"/><use xlink:href="#b" transform="rotate(130.89 -7.121 22.875)scale(.00303)"/><use xlink:href="#b" transform="rotate(-78.024 28.884 19.012)scale(.0027)"/><use xlink:href="#b" transform="rotate(-26.201 93.704 12.43)scale(.00279)"/><use xlink:href="#b" transform="rotate(-90.693 23.31 19.63)scale(.00382)"/><use xlink:href="#b" transform="rotate(121.98 -9.235 22.552)scale(.00286)"/><use xlink:href="#b" transform="rotate(172.132 .974 21.52)scale(.00373)"/><use xlink:href="#b" transform="rotate(-36.288 65.504 15.635)scale(.00359)"/><use xlink:href="#b" transform="rotate(237.567 13.568 20.077)scale(.0028)"/><use xlink:href="#b" transform="rotate(46.626 -45.283 25.042)scale(.0037)"/><use xlink:href="#b" transform="rotate(-9.23 254.583 .034)scale(.00338)"/><use xlink:href="#b" transform="rotate(48.254 -43.19 24.435)scale(.00324)"/><use xlink:href="#b" transform="rotate(147.474 -3.874 21.118)scale(.00302)"/><use xlink:href="#b" transform="rotate(235.662 12.571 19.765)scale(.00341)"/><use xlink:href="#b" transform="rotate(206.137 6.53 20.047)scale(.0026)"/><use xlink:href="#b" transform="rotate(219.232 8.965 19.85)scale(.00342)"/><use xlink:href="#b" transform="rotate(32.388 -66.203 25.077)scale(.00299)"/><use xlink:href="#b" transform="rotate(159.86 -1.737 20.34)scale(.0027)"/><use xlink:href="#b" transform="rotate(186.669 2.878 19.942)scale(.00305)"/><use xlink:href="#b" transform="rotate(106.452 -12.731 20.87)scale(.00383)"/><use xlink:href="#b" transform="rotate(-37.036 59.278 16.11)scale(.00304)"/><use xlink:href="#b" transform="rotate(-51.02 41.733 17.33)scale(.00373)"/><use xlink:href="#b" transform="rotate(111.46 -11.36 20.313)scale(.00366)"/><use xlink:href="#b" transform="rotate(124.32 -8.497 19.977)scale(.00302)"/><use xlink:href="#b" transform="rotate(49.843 -38.898 21.501)scale(.0036)"/><use xlink:href="#b" transform="rotate(28.881 -71.172 23.077)scale(.00304)"/><use xlink:href="#b" transform="rotate(97.904 -14.748 19.897)scale(.00337)"/><use xlink:href="#b" transform="rotate(200.025 4.614 18.779)scale(.00323)"/><use xlink:href="#b" transform="rotate(68.055 -25.897 20.15)scale(.00285)"/><use xlink:href="#b" transform="rotate(109.28 -11.587 19.327)scale(.00363)"/><use xlink:href="#b" transform="rotate(46.308 -40.912 20.436)scale(.0037)"/><use xlink:href="#b" transform="rotate(-80.738 22.335 17.533)scale(.00318)"/><use xlink:href="#b" transform="rotate(67.322 -25.605 19.452)scale(.0032)"/><use xlink:href="#b" transform="rotate(50.699 -36.399 19.775)scale(.00265)"/><use xlink:href="#b" transform="rotate(245.214 12.4 17.74)scale(.00382)"/><use xlink:href="#b" transform="rotate(198.563 3.929 17.839)scale(.00279)"/><use xlink:href="#b" transform="rotate(137.151 -5.778 18.112)scale(.00294)"/><use xlink:href="#b" transform="rotate(228.727 8.878 17.553)scale(.00392)"/><use xlink:href="#b" transform="rotate(258.901 15.108 17.089)scale(.00275)"/><use xlink:href="#b" transform="rotate(55.187 -31.493 18.55)scale(.00352)"/><use xlink:href="#b" transform="rotate(256.949 14.38 17.022)scale(.00373)"/><use xlink:href="#b" transform="rotate(155.426 -2.73 17.34)scale(.00295)"/><use xlink:href="#b" transform="rotate(162.01 -1.755 17.184)scale(.00268)"/><use xlink:href="#b" transform="rotate(-33.569 55.872 15.314)scale(.00264)"/><use xlink:href="#b" transform="rotate(135.085 -5.967 17.101)scale(.00262)"/><use xlink:href="#b" transform="rotate(-88.844 17.557 16.331)scale(.00278)"/><use xlink:href="#b" transform="rotate(186.847 1.836 16.711)scale(.00334)"/><use xlink:href="#b" transform="rotate(61.267 -26.192 17.239)scale(.00394)"/><use xlink:href="#b" transform="rotate(120.402 -8.358 16.667)scale(.00287)"/><use xlink:href="#b" transform="rotate(-95.157 15.284 16.044)scale(.00353)"/><use xlink:href="#b" transform="rotate(-65.93 24.956 15.799)scale(.00405)"/><use xlink:href="#b" transform="rotate(180.367 .839 16.065)scale(.00336)"/><use xlink:href="#b" transform="rotate(149.783 -3.44 16.002)scale(.00277)"/><use xlink:href="#b" transform="rotate(49.527 -32.585 16.561)scale(.0028)"/><use xlink:href="#b" transform="rotate(127.801 -6.688 15.876)scale(.00336)"/><use xlink:href="#b" transform="rotate(126.265 -6.83 15.76)scale(.00385)"/><use xlink:href="#b" transform="rotate(160.755 -1.787 15.5)scale(.00335)"/><use xlink:href="#b" transform="rotate(-38.03 43.56 14.682)scale(.00405)"/><use xlink:href="#b" transform="rotate(37.523 -42.274 15.935)scale(.00372)"/><use xlink:href="#b" transform="rotate(75.06 -18.203 15.393)scale(.00313)"/><use xlink:href="#b" transform="rotate(-46.523 34.238 14.233)scale(.00316)"/><use xlink:href="#b" transform="rotate(185.206 1.416 14.813)scale(.00397)"/><use xlink:href="#b" transform="rotate(-55.12 27.826 14.043)scale(.00297)"/><use xlink:href="#b" transform="rotate(103.336 -10.377 14.737)scale(.00313)"/><use xlink:href="#b" transform="rotate(197.7 2.858 14.32)scale(.00275)"/><use xlink:href="#b" transform="rotate(243.422 9.248 14.184)scale(.00388)"/><use xlink:href="#b" transform="rotate(166.99 -.881 14.147)scale(.00266)"/><use xlink:href="#b" transform="rotate(-94.455 13.26 13.724)scale(.00274)"/><use xlink:href="#b" transform="rotate(-41.73 35.986 13.197)scale(.0032)"/><use xlink:href="#b" transform="rotate(-37.783 39.771 12.836)scale(.0026)"/><use xlink:href="#b" transform="rotate(236.689 7.85 13.567)scale(.00324)"/><use xlink:href="#b" transform="rotate(17.014 -86.402 15.23)scale(.00383)"/><use xlink:href="#b" transform="rotate(48.647 -27.705 13.994)scale(.00402)"/><use xlink:href="#b" transform="rotate(8.367 -173.883 16.913)scale(.00347)"/><use xlink:href="#b" transform="rotate(173.817 -.005 13.147)scale(.00267)"/><use xlink:href="#b" transform="rotate(-75.45 16.915 12.809)scale(.00399)"/><use xlink:href="#b" transform="rotate(6.205 -226.914 17.211)scale(.00395)"/><use xlink:href="#b" transform="rotate(35.26 -37.841 13.633)scale(.00327)"/><use xlink:href="#b" transform="rotate(-68.503 18.577 12.143)scale(.00273)"/><use xlink:href="#b" transform="rotate(201.151 2.979 12.495)scale(.00349)"/><use xlink:href="#b" transform="rotate(179.327 .682 12.425)scale(.0037)"/><use xlink:href="#b" transform="rotate(7.697 -172.98 15.747)scale(.00394)"/><use xlink:href="#b" transform="rotate(-88.786 12.585 11.776)scale(.0029)"/><use xlink:href="#b" transform="rotate(156.36 -1.742 12.025)scale(.0026)"/><use xlink:href="#b" transform="rotate(-16.412 79.7 9.994)scale(.00331)"/><use xlink:href="#b" transform="rotate(-89.478 12.107 11.426)scale(.00276)"/><use xlink:href="#b" transform="rotate(191.817 1.851 11.608)scale(.00281)"/><use xlink:href="#b" transform="rotate(121.279 -5.519 11.711)scale(.00309)"/><use xlink:href="#b" transform="rotate(-57.108 20.802 10.961)scale(.00343)"/><use xlink:href="#b" transform="rotate(172.991 .058 11.325)scale(.00323)"/><use xlink:href="#b" transform="rotate(121.96 -5.188 11.344)scale(.0034)"/><use xlink:href="#b" transform="rotate(136.063 -3.517 11.175)scale(.00343)"/><use xlink:href="#b" transform="rotate(13.407 -88.45 13.58)scale(.00271)"/><use xlink:href="#b" transform="rotate(64.968 -15.476 11.257)scale(.00331)"/><use xlink:href="#b" transform="rotate(61.22 -16.356 11.13)scale(.00392)"/><use xlink:href="#b" transform="rotate(11.441 -100.175 13.704)scale(.00265)"/><use xlink:href="#b" transform="rotate(227.231 5.056 10.281)scale(.00276)"/><use xlink:href="#b" transform="rotate(185.072 1.122 10.296)scale(.00271)"/><use xlink:href="#b" transform="rotate(87.622 -9.39 10.525)scale(.00348)"/><use xlink:href="#b" transform="rotate(26.23 -40.7 11.4)scale(.00283)"/><use xlink:href="#b" transform="rotate(143.369 -2.413 10.093)scale(.00334)"/><use xlink:href="#b" transform="rotate(-5.045 213.963 3.088)scale(.00297)"/><use xlink:href="#b" transform="rotate(-32.61 32.512 8.636)scale(.00267)"/><use xlink:href="#b" transform="rotate(-64.303 15.245 9.288)scale(.00371)"/><use xlink:href="#b" transform="rotate(56.925 -16.055 10.07)scale(.00263)"/><use xlink:href="#b" transform="rotate(44.207 -21.308 10.13)scale(.00297)"/><use xlink:href="#b" transform="rotate(83.404 -9.133 9.611)scale(.00336)"/><use xlink:href="#b" transform="rotate(-21.61 45.94 7.913)scale(.00374)"/><use xlink:href="#b" transform="rotate(70.921 -11.372 9.443)scale(.00266)"/><use xlink:href="#b" transform="rotate(233.488 4.963 8.768)scale(.00303)"/><use xlink:href="#b" transform="rotate(246.577 6.178 8.627)scale(.00322)"/><use xlink:href="#b" transform="rotate(103.743 -5.598 8.913)scale(.004)"/><use xlink:href="#b" transform="rotate(209.075 2.81 8.474)scale(.00336)"/><use xlink:href="#b" transform="rotate(-43.402 20.593 7.707)scale(.00324)"/><use xlink:href="#b" transform="rotate(-51.143 17.064 7.59)scale(.00269)"/><use xlink:href="#b" transform="rotate(2.456 -360.128 22.85)scale(.00272)"/><use xlink:href="#b" transform="rotate(-12.387 70.572 5.495)scale(.00323)"/><use xlink:href="#b" transform="rotate(218.473 3.344 7.91)scale(.00386)"/><use xlink:href="#b" transform="rotate(93.487 -6.043 8.068)scale(.00396)"/><use xlink:href="#b" transform="rotate(34.205 -22.498 8.547)scale(.00336)"/><use xlink:href="#b" transform="rotate(124.738 -2.932 7.682)scale(.00347)"/><use xlink:href="#b" transform="rotate(-88.61 7.778 7.154)scale(.00357)"/><use xlink:href="#b" transform="rotate(117.99 -3.351 7.429)scale(.00318)"/><use xlink:href="#b" transform="rotate(202.095 2.002 7.065)scale(.00294)"/><use xlink:href="#b" transform="rotate(136.348 -1.954 7.123)scale(.00267)"/><use xlink:href="#b" transform="rotate(-50.403 14.391 6.311)scale(.00313)"/><use xlink:href="#b" transform="rotate(-26.001 28.26 5.373)scale(.0026)"/><use xlink:href="#b" transform="rotate(110.779 -3.517 6.904)scale(.00359)"/><use xlink:href="#b" transform="rotate(48.493 -12.905 7.24)scale(.00272)"/><use xlink:href="#b" transform="rotate(-89.134 6.762 6.254)scale(.0038)"/><use xlink:href="#b" transform="rotate(256.165 5.286 6.056)scale(.00281)"/><use xlink:href="#b" transform="rotate(189.238 1.143 6.152)scale(.0026)"/><use xlink:href="#b" transform="rotate(192.54 1.35 6.099)scale(.00345)"/><use xlink:href="#b" transform="rotate(51.925 -10.369 6.505)scale(.0039)"/><use xlink:href="#b" transform="rotate(19.368 -30.174 7.271)scale(.00384)"/><use xlink:href="#b" transform="rotate(86.238 -4.768 5.984)scale(.00356)"/><use xlink:href="#b" transform="rotate(192.932 1.278 5.505)scale(.00297)"/><use xlink:href="#b" transform="rotate(-28.259 20.353 4.329)scale(.00323)"/><use xlink:href="#b" transform="rotate(60.153 -7.68 5.822)scale(.0029)"/><use xlink:href="#b" transform="rotate(31.532 -15.681 6.076)scale(.0039)"/><use xlink:href="#b" transform="rotate(31.132 -15.812 6.137)scale(.00284)"/><use xlink:href="#b" transform="rotate(220.079 2.337 4.831)scale(.00302)"/><use xlink:href="#b" transform="rotate(104.943 -2.552 5.053)scale(.00364)"/><use xlink:href="#b" transform="rotate(-54.541 8.891 4.107)scale(.003)"/><use xlink:href="#b" transform="rotate(247.307 3.438 4.385)scale(.00313)"/><use xlink:href="#b" transform="rotate(-92.923 4.502 4.12)scale(.0026)"/><use xlink:href="#b" transform="rotate(130.479 -1.09 4.486)scale(.00298)"/><use xlink:href="#b" transform="rotate(-29.719 14.868 3.184)scale(.0032)"/><use xlink:href="#b" transform="rotate(-81.502 4.922 3.834)scale(.00346)"/><use xlink:href="#b" transform="rotate(133.036 -.83 4.11)scale(.00295)"/><use xlink:href="#b" transform="rotate(148.672 -.251 3.953)scale(.003)"/><use xlink:href="#b" transform="rotate(82.307 -2.907 4.077)scale(.00388)"/><use xlink:href="#b" transform="rotate(220.446 1.894 3.579)scale(.00396)"/><use xlink:href="#b" transform="rotate(234.763 2.255 3.303)scale(.00299)"/><use xlink:href="#b" transform="rotate(126.333 -.647 3.515)scale(.0039)"/><use xlink:href="#b" transform="rotate(61.59 -3.85 3.684)scale(.00313)"/><use xlink:href="#b" transform="rotate(147.908 .02 3.188)scale(.0037)"/><use xlink:href="#b" transform="rotate(34.492 -7.177 3.853)scale(.00321)"/><use xlink:href="#b" transform="rotate(54.172 -3.991 3.42)scale(.0026)"/><use xlink:href="#b" transform="rotate(32.346 -6.829 3.634)scale(.00356)"/><use xlink:href="#b" transform="rotate(-18.689 13.227 1.074)scale(.00363)"/><use xlink:href="#b" transform="rotate(214.094 1.316 2.361)scale(.00317)"/><use xlink:href="#b" transform="rotate(88.681 -1.101 2.614)scale(.00356)"/><use xlink:href="#b" transform="rotate(132.537 -.053 2.312)scale(.003)"/><use xlink:href="#b" transform="rotate(253.694 1.908 1.83)scale(.00284)"/><use xlink:href="#b" transform="rotate(90.641 -.771 2.253)scale(.00303)"/><use xlink:href="#b" transform="rotate(-98.036 1.91 1.54)scale(.0026)"/><use xlink:href="#b" transform="rotate(218.936 1.18 1.696)scale(.00367)"/><use xlink:href="#b" transform="rotate(44.27 -1.903 2.26)scale(.00366)"/><use xlink:href="#b" transform="rotate(170.281 .665 1.523)scale(.0036)"/><use xlink:href="#b" transform="rotate(-1.99 50.434 -15.624)scale(.00302)"/><use xlink:href="#b" transform="rotate(241.997 1.165 1.13)scale(.00396)"/><use xlink:href="#b" transform="rotate(-6.94 10.883 -4.042)scale(.0028)"/><use xlink:href="#b" transform="rotate(162.951 .638 1.005)scale(.0031)"/><use xlink:href="#b" transform="rotate(160.12 .65 .896)scale(.00314)"/><use xlink:href="#b" transform="rotate(-6.597 5.061 -4.104)scale(.00324)"/></g><defs><filter id="a" width="57.434" height="57.351" x=".271" y=".282" color-interpolation-filters="sRGB" filterUnits="userSpaceOnUse"><feFlood flood-opacity="0" result="BackgroundImageFix"/><feBlend in="SourceGraphic" in2="BackgroundImageFix" result="shape"/><feTurbulence baseFrequency="0.38759690523147583 0.38759690523147583" numOctaves="3" result="noise" seed="9800" stitchTiles="stitch" type="fractalNoise"/><feColorMatrix in="noise" result="alphaNoise" type="luminanceToAlpha"/><feComponentTransfer in="alphaNoise" result="coloredNoise1"><feFuncA tableValues="0 0 0 0 0 0 0 0 0 0 0 0 0 0 1 1 1 1 1 1 1 1 1 1 1 1 1 1 1 1 1 1 1 1 1 1 0 0 0 0 0 0 0 0 0 0 0 0 0 0 0 0 0 0 0 0 0 0 0 0 0 0 0 0 0 0 0 0 0 0 0 0 0 0 0 0 0 0 0 0 0 0 0 0 0 0 0 0 0 0 0 0 0 0 0 0 0 0 0 0" type="discrete"/></feComponentTransfer><feComposite in="coloredNoise1" in2="shape" operator="in" result="noise1Clipped"/><feComponentTransfer in="alphaNoise" result="coloredNoise2"><feFuncA tableValues="0 0 0 0 0 0 0 0 0 0 0 0 0 0 0 0 0 0 0 0 0 0 0 0 0 0 0 0 0 0 0 0 0 0 0 0 0 0 0 0 0 0 0 0 0 0 0 0 0 0 0 0 0 0 0 0 0 0 0 0 0 0 0 0 1 1 1 1 1 1 1 1 1 1 1 1 1 1 1 1 1 1 1 1 1 1 0 0 0 0 0 0 0 0 0 0 0 0 0 0" type="discrete"/></feComponentTransfer><feComposite in="coloredNoise2" in2="shape" operator="in" result="noise2Clipped"/><feFlood flood-color="rgba(255, 255, 255, 0.75)" result="color1Flood"/><feComposite in="color1Flood" in2="noise1Clipped" operator="in" result="color1"/><feFlood flood-color="rgba(255, 255, 255, 0.25)" result="color2Flood"/><feComposite in="color2Flood" in2="noise2Clipped" operator="in" result="color2"/><feMerge result="effect1_noise_6_49"><feMergeNode in="shape"/><feMergeNode in="color1"/><feMergeNode in="color2"/></feMerge></filter><path id="b" fill="#538fdf" d="M103.731 283.547c6.621-2.184 9.076-2.199 12.39-.079 13.988 8.95 8.729 25.25-8.149 25.259-17.595.01-20.911-19.681-4.241-25.18m36.106-248.132c1.1-.236 2.675-.301 3.5-.144s3.179.568 5.23.914c7.235 1.22 11.612 10.512 8.167 17.34-3.81 7.552-12.019 14.056-15.875 12.577-4.987-1.914-3.234 3.777 3.207 10.413 4.24 4.37 6.271 4.754 6.271 1.192 0-1.05 1.285-3.385 2.856-5.19 1.63-1.876 3.404-5.597 4.131-8.667 1.601-6.76 3.464-8.621 10.045-10.033 9.951-2.134 18.212 3.11 16.383 10.398-.459 1.827.149 3.45 2.338 6.243 10.769 13.74 7.785 33.815-5.494 36.96-3.547.84-3.764 1.114-3.823 4.852-.034 2.178-.408 4.717-.83 5.642-.688 1.505.003 1.652 6.563 1.398 7.909-.307 10.168.395 13.447 4.177 3.101 3.577 5.645 2.627 6.656-2.485.894-4.519 6.487-10.271 9.987-10.271 2.245 0 3.338-2.575 1.853-4.364-8.349-10.061 7.785-32.704 21.156-29.688 5.967 1.346 10.697 6.951 10.762 12.752.017 1.54 1.138 5.05 2.491 7.8 6.504 13.222-5.554 28.994-16.081 21.032-2.853-2.158-2.94-2.037-2.94 4.078 0 6.589-3.905 10.951-10.788 12.052-2.981.477-4.116 1.277-5.274 3.723-.811 1.713-2.225 4.299-3.145 5.747-1.646 2.593-1.61 2.702 2.517 7.391 2.304 2.617 4.19 5.301 4.19 5.964s.737 2.683 1.637 4.488c3.174 6.361 2.099 20.025-1.574 20.025-.348 0-1.43 1.35-2.405 3s-2.422 3-3.216 3c-2.184 0-1.735 2.086 1.084 5.029 3.521 3.675 4.562 12.107 1.865 15.098-5.225 5.791-11.678 10.152-16.664 11.264-4.12.919-5.234 1.583-5.26 3.137-.135 8.13-4.562 13.128-13.122 14.818-6.837 1.35-7.61 3.233-2.105 5.126 12.781 4.394 15.315 15.49 4.865 21.303-5.921 3.293-10.016 3.252-14.927-.152-3.621-2.509-4.354-2.668-7.836-1.701-5.942 1.65-12.316 1.281-18.342-1.06-5.463-2.123-10.613-3.525-16.648-4.532-5.974-.997-9.538-6.118-10.097-14.51-.408-6.134-.921-7.806-3.167-10.32-1.474-1.65-3.439-4.687-4.367-6.75-1.638-3.637-1.847-3.75-6.894-3.75-6.37 0-11.084-2.809-13.947-8.311-3.17-6.093-7.274-5.084-7.37 1.811-.037 2.75-.424 6.586-.859 8.524-.753 3.358-.637 3.569 2.449 4.5 10.063 3.035 9.961 20.691-.149 25.679-24.298 11.986-54.047-12.461-32.413-26.636 1.681-1.102 2.306-2.804 2.815-7.672.36-3.441 1.44-7.364 2.4-8.716a375 375 0 0 1 2.719-3.783c.693-.943.207-2.124-1.687-4.11-3.495-3.662-4.81-7.36-4.124-11.589.33-2.036.105-3.723-.552-4.129-.61-.377-1.109-1.954-1.11-3.505 0-1.55-.735-3.428-1.633-4.173-2.703-2.245-12.366-15.765-12.366-17.304 0-.788-1.574-3.495-3.498-6.015-1.924-2.521-3.44-4.918-3.366-5.327.973-5.497-2.826-8.55-7-5.627-2.218 1.554-9.25 1.428-13.607-.244-10.102-3.877-8.653-28.978 1.702-29.484 6.291-.307 14.769 2.931 14.769 5.641 0 1.757 2.773 4.47 4.57 4.47.786 0 1.43-.69 1.43-1.533 0-13.384 20.848-28.89 40.5-30.121 13.093-.822 18.425.42 27.352 6.37 4.261 2.84 11.148-2.563 11.148-8.746 0-2.041.835-4.23 2.146-5.626 2.251-2.396 1.321-5.344-1.687-5.344-2.393 0-5.24-6.189-4.719-10.26.969-7.587 13.556-11.704 19.212-6.285 2.35 2.252 3.419 2.622 5.956 2.065 3.809-.837 3.883-1.777.342-4.356-8.227-5.993-1.392-22.986 10.25-25.48m87.5 168.014c11.757-3.775 25.385 3.862 25.385 14.224 0 10.842-20.801 21.787-28.795 15.153-2.262-1.877-3.524-.443-2.915 3.312 1.085 6.684-7.501 18.613-13.396 18.613-13.37 0-18.816-8.499-13.159-20.533 3.745-7.967 9.996-10.414 18.781-7.351 4.298 1.498 4.642.84 2.683-5.15-2.869-8.772.969-14.914 11.416-18.268M179.7 192.695c-.651-.651-1.649-.282-2.926 1.084-8.404 8.989-11.711 9.934-20.268 5.792-6.76-3.273-10.056 1.888-4.545 7.118 2.248 2.133 2.521 3.055 2.077 6.993-.498 4.416-.374 4.662 4.644 9.285 5.154 4.749 5.155 4.749 5.669-.1.636-5.995 5.171-12.898 9.726-14.801 3.017-1.261 3.26-1.707 3.26-6.02 0-2.954.613-5.335 1.676-6.51 1.104-1.221 1.339-2.189.687-2.841m-165.965-8.998c7.495-3.335 12.2-2.472 18.37 3.369 8.46 8.008 4.924 18.546-7.474 22.277-15.224 4.582-25.336-19.219-10.896-25.646m239.221-35.446c9.173-2.519 14.854-1.048 18.027 4.67 6.414 11.557-13.631 27.998-23.804 19.524-10.086-8.401-7.163-20.64 5.777-24.194m-77.134 14.458c-.98-1.586-3.34-1.12-4.405.87-1.134 2.12-.033 7.334 1.669 7.902 1.28.424 3.675-7.252 2.736-8.772m-25.67-51.228c.34-2.955-.618-3.304-4.639-1.691-3.405 1.365-2.478 4.441 1.338 4.441 2.514 0 3.035-.435 3.301-2.75m6.685-12.75c-.825 0-1.5.675-1.5 1.5s.675 1.5 1.5 1.5 1.5-.675 1.5-1.5-.675-1.5-1.5-1.5m-25.5-13.093c0-2.838-1.846-4.238-3.908-2.964-.928.573-.744 1.616.756 4.286 1.088 1.94 2.131 4.5 2.315 5.689s.787 2.256 1.337 2.372c1.413.296 1.892-4.299.585-5.606-.597-.597-1.085-2.296-1.085-3.777m-51.5-48.717c10.045-5.672 23.056 9.928 15.821 18.971-3.456 4.319-4.454 8.089-3.788 14.308.662 6.184.612 6.364-2.833 10.163C76.04 94.7 55.153 78.5 64.824 61.583c1.515-2.65 2.493-5.938 2.5-8.408.016-5.47 5.092-12.063 12.513-16.254m41.059 41.81c-.243 0-.719.45-1.059 1s-.142 1 .44 1 1.06-.45 1.06-1-.198-1-.441-1m84.589-39.241c14.146-2.448 22.113 11.425 15.112 26.318-7.204 15.322-30.258 11.978-30.506-4.426-.111-7.306 9.418-20.858 15.394-21.892M51.837 14.554c12.608-8.69 23.843 4.813 16.787 20.177-6.239 13.586-27.287 9.044-27.287-5.889 0-2.809 6.316-11.404 10.5-14.288M108.212 2.17c13.218-8.981 33.334 11.922 25.025 26.004-1.153 1.956-2.418 3.556-2.81 3.557s-1.614.84-2.714 1.865c-8.257 7.691-19.927 2.18-24.346-11.497-3.215-9.953-1.904-15.343 4.845-19.929" data-figma-scatter="f0.28_w0_aj180_sj0.25_r0_s0_sw1" data-figma-scatter-ref="stroke0_6_49_ref"/></defs></svg>