<svg xmlns="http://www.w3.org/2000/svg" xmlns:xlink="http://www.w3.org/1999/xlink" width="116" height="29" fill="none" viewBox="0 0 116 29"><g filter="url(#a)"><path fill="#538fdf" d="M115 1v27H1V1z"/><use xlink:href="#b" transform="rotate(218.86 57.828 -19.406)scale(.00372)"/><use xlink:href="#b" transform="rotate(48.377 57.004 128.365)scale(.00393)"/><use xlink:href="#b" transform="rotate(81.96 57.101 66.97)scale(.0032)"/><use xlink:href="#b" transform="rotate(210.988 57.884 -14.765)scale(.0029)"/><use xlink:href="#b" transform="rotate(254.576 58.291 -42.42)scale(.00279)"/><use xlink:href="#b" transform="rotate(198.328 57.827 -7.932)scale(.00266)"/><use xlink:href="#b" transform="rotate(119.527 57.21 34.89)scale(.00379)"/><use xlink:href="#b" transform="rotate(80.496 56.331 69.274)scale(.00272)"/><use xlink:href="#b" transform="rotate(-41.321 61 -150.321)scale(.00274)"/><use xlink:href="#b" transform="rotate(49.136 54.8 127.124)scale(.00312)"/><use xlink:href="#b" transform="rotate(234.845 58.483 -27.728)scale(.0036)"/><use xlink:href="#b" transform="rotate(-28.473 63.823 -223.398)scale(.00402)"/><use xlink:href="#b" transform="rotate(27.017 50.691 240.55)scale(.00385)"/><use xlink:href="#b" transform="rotate(145.005 57.172 20.476)scale(.00375)"/><use xlink:href="#b" transform="rotate(59.173 54.294 103.39)scale(.00405)"/><use xlink:href="#b" transform="rotate(152.911 57.16 16.442)scale(.0028)"/><use xlink:href="#b" transform="rotate(148.51 57.13 18.982)scale(.00387)"/><use xlink:href="#b" transform="rotate(259.9 59.767 -44.969)scale(.00374)"/><use xlink:href="#b" transform="rotate(72.417 54.15 81.311)scale(.00287)"/><use xlink:href="#b" transform="rotate(39.4 50.306 163.126)scale(.0036)"/><use xlink:href="#b" transform="rotate(240.565 59.387 -30.051)scale(.0038)"/><use xlink:href="#b" transform="rotate(93.229 54.973 57.62)scale(.0037)"/><use xlink:href="#b" transform="rotate(9.979 21.689 660.132)scale(.00263)"/><use xlink:href="#b" transform="rotate(212.899 58.702 -13.126)scale(.00392)"/><use xlink:href="#b" transform="rotate(-30.621 69.935 -205.258)scale(.00356)"/><use xlink:href="#b" transform="rotate(163.345 57.218 12.387)scale(.00336)"/><use xlink:href="#b" transform="rotate(52.595 50.46 120.013)scale(.00359)"/><use xlink:href="#b" transform="rotate(154.82 56.923 17.092)scale(.00376)"/><use xlink:href="#b" transform="rotate(186.129 57.888 1.27)scale(.0026)"/><use xlink:href="#b" transform="rotate(22.759 37.68 289.22)scale(.00277)"/><use xlink:href="#b" transform="rotate(101.954 54.448 51.047)scale(.00372)"/><use xlink:href="#b" transform="rotate(80.952 52.787 71.874)scale(.00356)"/><use xlink:href="#b" transform="rotate(48.046 47.79 133.422)scale(.00275)"/><use xlink:href="#b" transform="rotate(-56.745 66.052 -101.2)scale(.00266)"/><use xlink:href="#b" transform="rotate(258.826 61.483 -42.043)scale(.00285)"/><use xlink:href="#b" transform="rotate(-54.986 66.753 -104.906)scale(.00307)"/><use xlink:href="#b" transform="rotate(71.253 51.034 85.243)scale(.00345)"/><use xlink:href="#b" transform="rotate(212.81 59.163 -11.449)scale(.00298)"/><use xlink:href="#b" transform="rotate(-29.935 76.639 -208.686)scale(.00327)"/><use xlink:href="#b" transform="rotate(-39.61 72.168 -153.538)scale(.00266)"/><use xlink:href="#b" transform="rotate(61.227 48.682 102.599)scale(.0026)"/><use xlink:href="#b" transform="rotate(-6.933 146.856 -940.068)scale(.00297)"/><use xlink:href="#b" transform="rotate(32.185 38.87 204.436)scale(.004)"/><use xlink:href="#b" transform="rotate(-28.445 80.054 -219.937)scale(.00299)"/><use xlink:href="#b" transform="rotate(128.971 55.037 33.648)scale(.00395)"/><use xlink:href="#b" transform="rotate(-71.867 65.874 -72.497)scale(.00387)"/><use xlink:href="#b" transform="rotate(154.473 56.295 19.485)scale(.0026)"/><use xlink:href="#b" transform="rotate(109.527 53.434 47.152)scale(.00385)"/><use xlink:href="#b" transform="rotate(115.046 53.687 43.258)scale(.00307)"/><use xlink:href="#b" transform="rotate(-59.294 68.983 -93.544)scale(.00402)"/><use xlink:href="#b" transform="rotate(-98.494 63.396 -42.22)scale(.00363)"/><use xlink:href="#b" transform="rotate(177.78 57.62 8.369)scale(.00368)"/><use xlink:href="#b" transform="rotate(167.291 56.997 13.785)scale(.00379)"/><use xlink:href="#b" transform="rotate(-40.6 76.615 -147.24)scale(.0036)"/><use xlink:href="#b" transform="rotate(142.482 55.358 27.145)scale(.00395)"/><use xlink:href="#b" transform="rotate(22.27 20.548 298.903)scale(.00287)"/><use xlink:href="#b" transform="rotate(74.207 48.042 83.631)scale(.00396)"/><use xlink:href="#b" transform="rotate(226.907 60.973 -16.868)scale(.0027)"/><use xlink:href="#b" transform="rotate(166.17 56.745 15.045)scale(.00261)"/><use xlink:href="#b" transform="rotate(-12.643 127.434 -508.385)scale(.00383)"/><use xlink:href="#b" transform="rotate(152.945 55.874 22.232)scale(.0039)"/><use xlink:href="#b" transform="rotate(76.734 47.575 80.903)scale(.00338)"/><use xlink:href="#b" transform="rotate(-45.06 77.441 -129.445)scale(.00308)"/><use xlink:href="#b" transform="rotate(-56.665 73.1 -97.436)scale(.00326)"/><use xlink:href="#b" transform="rotate(-73.579 68.971 -67.566)scale(.00385)"/><use xlink:href="#b" transform="rotate(-67.306 70.58 -76.929)scale(.00347)"/><use xlink:href="#b" transform="rotate(-95.641 65.6 -42.703)scale(.00325)"/><use xlink:href="#b" transform="rotate(118.961 52.536 43.095)scale(.00339)"/><use xlink:href="#b" transform="rotate(73.86 45.752 85.652)scale(.00281)"/><use xlink:href="#b" transform="rotate(85.017 47.892 72.056)scale(.00364)"/><use xlink:href="#b" transform="rotate(-20.037 109.666 -314.351)scale(.00364)"/><use xlink:href="#b" transform="rotate(190.954 58.665 4.423)scale(.00403)"/><use xlink:href="#b" transform="rotate(7.013 -97.643 945.333)scale(.00273)"/><use xlink:href="#b" transform="rotate(54.408 39.004 121.538)scale(.00293)"/><use xlink:href="#b" transform="rotate(114.916 51.462 46.72)scale(.0026)"/><use xlink:href="#b" transform="rotate(39.338 30.173 170.603)scale(.0027)"/><use xlink:href="#b" transform="rotate(243.437 63.85 -24.963)scale(.00348)"/><use xlink:href="#b" transform="rotate(102.048 49.527 56.857)scale(.00262)"/><use xlink:href="#b" transform="rotate(153.868 55.32 23.885)scale(.00265)"/><use xlink:href="#b" transform="rotate(208.657 60.354 -3.852)scale(.00359)"/><use xlink:href="#b" transform="rotate(123.097 52.09 41.91)scale(.00316)"/><use xlink:href="#b" transform="rotate(98.853 48.69 60.032)scale(.00289)"/><use xlink:href="#b" transform="rotate(207.673 60.302 -3.065)scale(.00267)"/><use xlink:href="#b" transform="rotate(-15.626 135.739 -406.2)scale(.0033)"/><use xlink:href="#b" transform="rotate(-64.85 74.787 -78.93)scale(.00277)"/><use xlink:href="#b" transform="rotate(190.509 58.69 6.112)scale(.00265)"/><use xlink:href="#b" transform="rotate(79.02 44.263 80.996)scale(.00275)"/><use xlink:href="#b" transform="rotate(-27.32 103.642 -224.174)scale(.00289)"/><use xlink:href="#b" transform="rotate(-32.448 96.32 -184.885)scale(.00387)"/><use xlink:href="#b" transform="rotate(27.246 10.83 248.151)scale(.00377)"/><use xlink:href="#b" transform="rotate(118.412 50.826 46.177)scale(.00311)"/><use xlink:href="#b" transform="rotate(198.136 59.547 2.96)scale(.00264)"/><use xlink:href="#b" transform="rotate(80.36 43.777 80.095)scale(.00317)"/><use xlink:href="#b" transform="rotate(173.303 56.99 15.693)scale(.00275)"/><use xlink:href="#b" transform="rotate(-6.168 280.28 -1050.578)scale(.00323)"/><use xlink:href="#b" transform="rotate(-54.911 81.002 -97.45)scale(.00401)"/><use xlink:href="#b" transform="rotate(-92.725 69.41 -41.943)scale(.00266)"/><use xlink:href="#b" transform="rotate(251.747 66.667 -28.543)scale(.00332)"/><use xlink:href="#b" transform="rotate(177.206 57.441 14.427)scale(.0036)"/><use xlink:href="#b" transform="rotate(51.039 31.24 133.121)scale(.00314)"/><use xlink:href="#b" transform="rotate(154.897 54.937 26.06)scale(.00392)"/><use xlink:href="#b" transform="rotate(-69.852 76.198 -68.642)scale(.00316)"/><use xlink:href="#b" transform="rotate(98.053 46.434 63.275)scale(.00343)"/><use xlink:href="#b" transform="rotate(-78.313 73.871 -56.593)scale(.00377)"/><use xlink:href="#b" transform="rotate(86.769 43.584 74.389)scale(.00272)"/><use xlink:href="#b" transform="rotate(-73.563 75.647 -62.754)scale(.00305)"/><use xlink:href="#b" transform="rotate(140.409 52.915 34.682)scale(.00391)"/><use xlink:href="#b" transform="rotate(-64.639 79.315 -76.321)scale(.0035)"/><use xlink:href="#b" transform="rotate(-26.323 116.385 -230.35)scale(.00355)"/><use xlink:href="#b" transform="rotate(-63.879 79.62 -77.416)scale(.00288)"/><use xlink:href="#b" transform="rotate(130.738 51.153 40.391)scale(.0036)"/><use xlink:href="#b" transform="rotate(-22.578 126.342 -270.797)scale(.00273)"/><use xlink:href="#b" transform="rotate(-37.055 98.158 -154.967)scale(.00355)"/><use xlink:href="#b" transform="rotate(176.223 56.587 16.103)scale(.00305)"/><use xlink:href="#b" transform="rotate(-29.978 108.352 -196.85)scale(.00297)"/><use xlink:href="#b" transform="rotate(134.728 51.05 37.742)scale(.0028)"/><use xlink:href="#b" transform="rotate(181.416 56.91 13.598)scale(.00379)"/><use xlink:href="#b" transform="rotate(-94.18 69.364 -38.02)scale(.00265)"/><use xlink:href="#b" transform="rotate(187.071 57.325 10.802)scale(.0034)"/><use xlink:href="#b" transform="rotate(47.467 25.06 141.39)scale(.00322)"/><use xlink:href="#b" transform="rotate(241.887 64.46 -19.114)scale(.00381)"/><use xlink:href="#b" transform="rotate(36.012 13.63 185.493)scale(.00276)"/><use xlink:href="#b" transform="rotate(-7.354 270.004 -849.886)scale(.00318)"/><use xlink:href="#b" transform="rotate(208.768 59.365 .022)scale(.00304)"/><use xlink:href="#b" transform="rotate(9.18 -115.337 702.757)scale(.00346)"/><use xlink:href="#b" transform="rotate(-37.85 95.786 -146.782)scale(.00275)"/><use xlink:href="#b" transform="rotate(-11.836 188.44 -517.216)scale(.0028)"/><use xlink:href="#b" transform="rotate(-39.876 93.387 -137.405)scale(.00264)"/><use xlink:href="#b" transform="rotate(190.832 56.572 9.02)scale(.00287)"/><use xlink:href="#b" transform="rotate(230.05 61.603 -11.217)scale(.00396)"/><use xlink:href="#b" transform="rotate(-51.73 83.407 -98.384)scale(.00303)"/><use xlink:href="#b" transform="rotate(8.83 -123.42 719.941)scale(.00301)"/><use xlink:href="#b" transform="rotate(55.306 28.608 117.956)scale(.00353)"/><use xlink:href="#b" transform="rotate(-11.209 195.221 -538.839)scale(.00264)"/><use xlink:href="#b" transform="rotate(194.066 56.25 7.567)scale(.00316)"/><use xlink:href="#b" transform="rotate(163.75 52.457 21.94)scale(.00295)"/><use xlink:href="#b" transform="rotate(240.223 62.302 -16.914)scale(.00391)"/><use xlink:href="#b" transform="rotate(10.476 -95.315 599.904)scale(.0038)"/><use xlink:href="#b" transform="rotate(137.917 48.776 34.885)scale(.00368)"/><use xlink:href="#b" transform="rotate(194.083 55.604 7.68)scale(.00361)"/><use xlink:href="#b" transform="rotate(145.593 49.453 30.727)scale(.00265)"/><use xlink:href="#b" transform="rotate(195.167 55.466 7.127)scale(.0028)"/><use xlink:href="#b" transform="rotate(15.472 -47.967 405.445)scale(.00277)"/><use xlink:href="#b" transform="rotate(88.752 39.376 68.416)scale(.00316)"/><use xlink:href="#b" transform="rotate(215.257 57.706 -2.476)scale(.00397)"/><use xlink:href="#b" transform="rotate(120.827 45.323 44.175)scale(.00283)"/><use xlink:href="#b" transform="rotate(-43.743 87.272 -116.748)scale(.00353)"/><use xlink:href="#b" transform="rotate(66.37 31.84 94.52)scale(.00287)"/><use xlink:href="#b" transform="rotate(188.282 53.818 10.47)scale(.0034)"/><use xlink:href="#b" transform="rotate(233.668 59.643 -12.18)scale(.00324)"/><use xlink:href="#b" transform="rotate(105.532 42.198 53.87)scale(.00402)"/><use xlink:href="#b" transform="rotate(145.159 48.051 30.526)scale(.00263)"/><use xlink:href="#b" transform="rotate(-25.841 112.415 -212.116)scale(.00265)"/><use xlink:href="#b" transform="rotate(127.622 45.476 39.723)scale(.00359)"/><use xlink:href="#b" transform="rotate(144.996 47.775 30.558)scale(.00377)"/><use xlink:href="#b" transform="rotate(-22.451 121.426 -245.501)scale(.0026)"/><use xlink:href="#b" transform="rotate(-15.504 152.723 -363.086)scale(.00346)"/><use xlink:href="#b" transform="rotate(-84.503 66.842 -42.212)scale(.00303)"/><use xlink:href="#b" transform="rotate(-46.41 83.67 -105.071)scale(.00313)"/><use xlink:href="#b" transform="rotate(210.026 55.141 .535)scale(.00292)"/><use xlink:href="#b" transform="rotate(214.636 55.623 -1.689)scale(.00262)"/><use xlink:href="#b" transform="rotate(-84.602 66.38 -41.679)scale(.00271)"/><use xlink:href="#b" transform="rotate(32.484 3.762 188.44)scale(.00264)"/><use xlink:href="#b" transform="rotate(-5.424 341.769 -1054.633)scale(.00296)"/><use xlink:href="#b" transform="rotate(172.711 50.047 17.451)scale(.00303)"/><use xlink:href="#b" transform="rotate(14.274 -59.413 416.974)scale(.0026)"/><use xlink:href="#b" transform="rotate(21.193 -22.93 283.124)scale(.0029)"/><use xlink:href="#b" transform="rotate(137.303 45.188 33.834)scale(.00267)"/><use xlink:href="#b" transform="rotate(225.129 56.225 -6.52)scale(.00354)"/><use xlink:href="#b" transform="rotate(113.839 41.368 46.766)scale(.00277)"/><use xlink:href="#b" transform="rotate(257.014 61.212 -25.47)scale(.00271)"/><use xlink:href="#b" transform="rotate(30.684 .152 195.402)scale(.00356)"/><use xlink:href="#b" transform="rotate(245.563 58.882 -17.68)scale(.00326)"/><use xlink:href="#b" transform="rotate(-15.01 154.278 -361.21)scale(.00324)"/><use xlink:href="#b" transform="rotate(-54.597 76.485 -81.504)scale(.0026)"/><use xlink:href="#b" transform="rotate(110.655 40.228 48.32)scale(.00382)"/><use xlink:href="#b" transform="rotate(8.98 -125.78 639.635)scale(.00303)"/><use xlink:href="#b" transform="rotate(133.016 43.411 35.523)scale(.00287)"/><use xlink:href="#b" transform="rotate(-36.98 90.292 -131.635)scale(.00398)"/><use xlink:href="#b" transform="rotate(108.609 39.227 49.243)scale(.00275)"/><use xlink:href="#b" transform="rotate(57.742 24.056 102.44)scale(.00293)"/><use xlink:href="#b" transform="rotate(240.334 56.933 -13.93)scale(.00332)"/><use xlink:href="#b" transform="rotate(164.123 46.941 21.044)scale(.00398)"/><use xlink:href="#b" transform="rotate(47.485 17.449 123.856)scale(.00344)"/><use xlink:href="#b" transform="rotate(-53.333 75.949 -81.6)scale(.00287)"/><use xlink:href="#b" transform="rotate(-91.139 61.896 -32.756)scale(.00343)"/><use xlink:href="#b" transform="rotate(247.09 57.409 -17.53)scale(.00283)"/><use xlink:href="#b" transform="rotate(-71.03 67.475 -52.73)scale(.00281)"/><use xlink:href="#b" transform="rotate(-22.818 116.316 -221.96)scale(.00293)"/><use xlink:href="#b" transform="rotate(33.802 2.703 170.664)scale(.00321)"/><use xlink:href="#b" transform="rotate(131.207 41.645 35.766)scale(.0037)"/><use xlink:href="#b" transform="rotate(-35.963 89.978 -131.2)scale(.0037)"/><use xlink:href="#b" transform="rotate(246.772 56.622 -16.882)scale(.00265)"/><use xlink:href="#b" transform="rotate(-91.23 60.905 -31.699)scale(.00368)"/><use xlink:href="#b" transform="rotate(74.004 29.02 76.468)scale(.00289)"/><use xlink:href="#b" transform="rotate(108.297 37.31 48.049)scale(.0036)"/><use xlink:href="#b" transform="rotate(-78.448 63.89 -42.768)scale(.00383)"/><use xlink:href="#b" transform="rotate(-44.01 80.954 -100.785)scale(.00321)"/><use xlink:href="#b" transform="rotate(-81.984 62.616 -39.058)scale(.00347)"/><use xlink:href="#b" transform="rotate(242.581 55.028 -13.848)scale(.00324)"/><use xlink:href="#b" transform="rotate(-26.135 105.792 -184.4)scale(.00322)"/><use xlink:href="#b" transform="rotate(193.405 48.064 8.896)scale(.00381)"/><use xlink:href="#b" transform="rotate(134.294 40.524 33.589)scale(.00373)"/><use xlink:href="#b" transform="rotate(83.943 30.807 65.06)scale(.0029)"/><use xlink:href="#b" transform="rotate(132.345 39.976 34.392)scale(.0035)"/><use xlink:href="#b" transform="rotate(60.495 22.229 92.23)scale(.00277)"/><use xlink:href="#b" transform="rotate(31.77 -2.595 173.65)scale(.00304)"/><use xlink:href="#b" transform="rotate(123.17 38.189 38.707)scale(.00275)"/><use xlink:href="#b" transform="rotate(199.657 47.969 6.482)scale(.00378)"/><use xlink:href="#b" transform="rotate(186.169 46.163 11.822)scale(.0032)"/><use xlink:href="#b" transform="rotate(-63.073 67.71 -58.858)scale(.00321)"/><use xlink:href="#b" transform="rotate(-37.267 85.878 -118.282)scale(.00368)"/><use xlink:href="#b" transform="rotate(128.595 38.45 35.728)scale(.00358)"/><use xlink:href="#b" transform="rotate(246.285 53.882 -14.86)scale(.00266)"/><use xlink:href="#b" transform="rotate(183.646 45.272 12.895)scale(.00396)"/><use xlink:href="#b" transform="rotate(227.114 50.639 -5.075)scale(.0028)"/><use xlink:href="#b" transform="rotate(210.814 48.33 2.088)scale(.00316)"/><use xlink:href="#b" transform="rotate(-86.132 59.13 -32.779)scale(.0034)"/><use xlink:href="#b" transform="rotate(-68.546 64.434 -49.983)scale(.00381)"/><use xlink:href="#b" transform="rotate(107.375 33.987 46.364)scale(.0027)"/><use xlink:href="#b" transform="rotate(187.515 44.947 11.383)scale(.0032)"/><use xlink:href="#b" transform="rotate(240.925 52.011 -11.3)scale(.00344)"/><use xlink:href="#b" transform="rotate(130.64 37.534 34.198)scale(.00395)"/><use xlink:href="#b" transform="rotate(61.99 20.71 86.179)scale(.003)"/><use xlink:href="#b" transform="rotate(-85.26 58.452 -32.494)scale(.0036)"/><use xlink:href="#b" transform="rotate(166.804 41.842 19.266)scale(.00396)"/><use xlink:href="#b" transform="rotate(-93.157 56.262 -26.318)scale(.00283)"/><use xlink:href="#b" transform="rotate(59.216 19.034 89.335)scale(.00377)"/><use xlink:href="#b" transform="rotate(139.121 37.836 30.09)scale(.00288)"/><use xlink:href="#b" transform="rotate(-4.05 432.601 -1186.913)scale(.00283)"/><use xlink:href="#b" transform="rotate(203.28 45.628 5.603)scale(.004)"/><use xlink:href="#b" transform="rotate(-96.612 54.864 -23.307)scale(.00332)"/><use xlink:href="#b" transform="rotate(85.684 27.767 59.58)scale(.00402)"/><use xlink:href="#b" transform="rotate(210.453 46.088 2.874)scale(.00351)"/><use xlink:href="#b" transform="rotate(-2.52 666.77 -1884.063)scale(.00344)"/><use xlink:href="#b" transform="rotate(125.171 34.978 35.856)scale(.00365)"/><use xlink:href="#b" transform="rotate(181.349 42.124 13.808)scale(.00383)"/><use xlink:href="#b" transform="rotate(254.182 52.18 -16.964)scale(.00356)"/><use xlink:href="#b" transform="rotate(252.334 51.697 -15.764)scale(.00403)"/><use xlink:href="#b" transform="rotate(-88.6 55.583 -27.795)scale(.0034)"/><use xlink:href="#b" transform="rotate(-77.497 58.518 -36.814)scale(.00288)"/><use xlink:href="#b" transform="rotate(-12.568 166.498 -356.922)scale(.00267)"/><use xlink:href="#b" transform="rotate(-35.071 84.683 -114.626)scale(.00318)"/><use xlink:href="#b" transform="rotate(132.137 34.88 32.241)scale(.0026)"/><use xlink:href="#b" transform="rotate(-61.617 64.021 -53.733)scale(.0029)"/><use xlink:href="#b" transform="rotate(49.089 10.635 102.727)scale(.00287)"/><use xlink:href="#b" transform="rotate(129.936 34.336 33.075)scale(.00372)"/><use xlink:href="#b" transform="rotate(149.412 36.792 25.208)scale(.00292)"/><use xlink:href="#b" transform="rotate(250.389 50.16 -13.97)scale(.00329)"/><use xlink:href="#b" transform="rotate(172.695 39.455 16.79)scale(.00315)"/><use xlink:href="#b" transform="rotate(131.848 34.135 32.05)scale(.00397)"/><use xlink:href="#b" transform="rotate(64.309 18.27 77.259)scale(.00368)"/><use xlink:href="#b" transform="rotate(80.385 23.625 60.992)scale(.00305)"/><use xlink:href="#b" transform="rotate(11.648 -94.425 399.668)scale(.00394)"/><use xlink:href="#b" transform="rotate(-77.719 56.723 -34.418)scale(.00328)"/><use xlink:href="#b" transform="rotate(-57.67 64.474 -56.666)scale(.00364)"/><use xlink:href="#b" transform="rotate(241.474 47.573 -8.9)scale(.00335)"/><use xlink:href="#b" transform="rotate(126.117 32.265 33.978)scale(.00306)"/><use xlink:href="#b" transform="rotate(90.436 25.514 52.667)scale(.0033)"/><use xlink:href="#b" transform="rotate(162.075 36.872 20.35)scale(.00347)"/><use xlink:href="#b" transform="rotate(162.983 36.84 20.005)scale(.00327)"/><use xlink:href="#b" transform="rotate(71.83 19.75 67.179)scale(.00301)"/><use xlink:href="#b" transform="rotate(23.835 -26.603 195.401)scale(.00298)"/><use xlink:href="#b" transform="rotate(243.736 47.088 -9.514)scale(.00264)"/><use xlink:href="#b" transform="rotate(44.158 4.581 107.907)scale(.0034)"/><use xlink:href="#b" transform="rotate(246.749 47.368 -10.706)scale(.00317)"/><use xlink:href="#b" transform="rotate(21.88 -32.745 209.376)scale(.00368)"/><use xlink:href="#b" transform="rotate(10.875 -105.948 408.905)scale(.00377)"/><use xlink:href="#b" transform="rotate(-37.472 78.449 -96.215)scale(.00322)"/><use xlink:href="#b" transform="rotate(202.661 40.55 6.798)scale(.00356)"/><use xlink:href="#b" transform="rotate(179.42 37.57 14.427)scale(.00309)"/><use xlink:href="#b" transform="rotate(-41.84 73.377 -82.53)scale(.00405)"/><use xlink:href="#b" transform="rotate(56.838 11.85 82.556)scale(.00263)"/><use xlink:href="#b" transform="rotate(36.001 -5.223 127.732)scale(.0026)"/><use xlink:href="#b" transform="rotate(-16.002 134.788 -246.805)scale(.00367)"/><use xlink:href="#b" transform="rotate(-69.33 56.936 -38.724)scale(.00297)"/><use xlink:href="#b" transform="rotate(-41.825 72.798 -81.006)scale(.00395)"/><use xlink:href="#b" transform="rotate(174.611 36.104 15.93)scale(.00283)"/><use xlink:href="#b" transform="rotate(230.808 43.192 -2.972)scale(.00308)"/><use xlink:href="#b" transform="rotate(119.323 28.504 35.382)scale(.00328)"/><use xlink:href="#b" transform="rotate(240.688 44.472 -6.78)scale(.00349)"/><use xlink:href="#b" transform="rotate(130.757 29.974 30.673)scale(.00308)"/><use xlink:href="#b" transform="rotate(-85.883 50.954 -24.18)scale(.00303)"/><use xlink:href="#b" transform="rotate(-38.242 75.77 -88.578)scale(.00294)"/><use xlink:href="#b" transform="rotate(161.419 33.682 20.045)scale(.00304)"/><use xlink:href="#b" transform="rotate(-76.697 53.205 -30.47)scale(.0033)"/><use xlink:href="#b" transform="rotate(59.864 11.776 75.51)scale(.003)"/><use xlink:href="#b" transform="rotate(-82.932 51.141 -25.493)scale(.00342)"/><use xlink:href="#b" transform="rotate(119.819 27.502 34.544)scale(.00337)"/><use xlink:href="#b" transform="rotate(-40.55 72.449 -79.995)scale(.00388)"/><use xlink:href="#b" transform="rotate(42.816 .122 102.855)scale(.00329)"/><use xlink:href="#b" transform="rotate(29.835 -16.645 144.249)scale(.00298)"/><use xlink:href="#b" transform="rotate(88.838 20.84 49.466)scale(.00268)"/><use xlink:href="#b" transform="rotate(-93.777 47.71 -17.934)scale(.00336)"/><use xlink:href="#b" transform="rotate(214.271 38.971 3.762)scale(.004)"/><use xlink:href="#b" transform="rotate(-72.989 53.174 -31.967)scale(.00274)"/><use xlink:href="#b" transform="rotate(-54.46 61.112 -51.695)scale(.00387)"/><use xlink:href="#b" transform="rotate(116.412 25.85 35.26)scale(.0039)"/><use xlink:href="#b" transform="matrix(.00378 0 0 .00378 67.343 27.416)"/><use xlink:href="#b" transform="rotate(-80.144 50.337 -25.562)scale(.00378)"/><use xlink:href="#b" transform="rotate(123.451 26.498 32.239)scale(.00348)"/><use xlink:href="#b" transform="rotate(165.927 32.016 18.331)scale(.0028)"/><use xlink:href="#b" transform="rotate(138.866 28.521 26.732)scale(.00387)"/><use xlink:href="#b" transform="rotate(36.86 -7.944 113.518)scale(.00264)"/><use xlink:href="#b" transform="rotate(-36.68 74.853 -85.11)scale(.00329)"/><use xlink:href="#b" transform="rotate(.249 -6268.21 15088.628)scale(.004)"/><use xlink:href="#b" transform="rotate(93.812 20.278 44.81)scale(.00355)"/><use xlink:href="#b" transform="rotate(13.512 -83.042 288.784)scale(.00332)"/><use xlink:href="#b" transform="rotate(252.519 42.93 -9.547)scale(.00303)"/><use xlink:href="#b" transform="rotate(200.044 35.157 8.541)scale(.00321)"/><use xlink:href="#b" transform="rotate(232.679 39.409 -1.728)scale(.0028)"/><use xlink:href="#b" transform="rotate(109.171 22.707 37.043)scale(.00308)"/><use xlink:href="#b" transform="rotate(20.69 -43.033 189.31)scale(.00305)"/><use xlink:href="#b" transform="matrix(0 -.00362 .00362 0 63.517 28.494)"/><use xlink:href="#b" transform="rotate(-95.134 44.684 -14.617)scale(.00388)"/><use xlink:href="#b" transform="rotate(-2.56 647.553 -1397.268)scale(.00313)"/><use xlink:href="#b" transform="rotate(-25.046 93.525 -126.828)scale(.00405)"/><use xlink:href="#b" transform="rotate(-34.928 75.449 -85.196)scale(.00305)"/><use xlink:href="#b" transform="rotate(93.928 18.698 43.335)scale(.0028)"/><use xlink:href="#b" transform="rotate(158.705 28.87 20.06)scale(.0028)"/><use xlink:href="#b" transform="rotate(96.1 18.997 42.056)scale(.00306)"/><use xlink:href="#b" transform="rotate(73.804 12.887 55.31)scale(.00284)"/><use xlink:href="#b" transform="rotate(169.198 29.836 17.135)scale(.00296)"/><use xlink:href="#b" transform="rotate(-48.075 61.899 -54.422)scale(.00299)"/><use xlink:href="#b" transform="rotate(-63.514 53.137 -34.995)scale(.00325)"/><use xlink:href="#b" transform="rotate(-8.366 218.615 -400.628)scale(.00343)"/><use xlink:href="#b" transform="rotate(183.607 31.08 13.257)scale(.00273)"/><use xlink:href="#b" transform="rotate(15.342 -71.195 237.617)scale(.00376)"/><use xlink:href="#b" transform="rotate(98.524 18.64 40.074)scale(.00376)"/><use xlink:href="#b" transform="rotate(-74.621 48.315 -24.88)scale(.00336)"/><use xlink:href="#b" transform="rotate(27.306 -26.595 136.669)scale(.00286)"/><use xlink:href="#b" transform="rotate(152.947 26.695 21.339)scale(.00266)"/><use xlink:href="#b" transform="rotate(116.659 21.42 32.44)scale(.00285)"/><use xlink:href="#b" transform="rotate(184.747 30.396 13.022)scale(.00311)"/><use xlink:href="#b" transform="rotate(179.472 29.66 14.4)scale(.00343)"/><use xlink:href="#b" transform="rotate(9.748 -132.006 356.336)scale(.00288)"/><use xlink:href="#b" transform="rotate(232.737 36.293 -.101)scale(.00358)"/><use xlink:href="#b" transform="rotate(5.321 -267.341 636.905)scale(.00278)"/><use xlink:href="#b" transform="rotate(136.225 23.747 25.837)scale(.00374)"/><use xlink:href="#b" transform="rotate(35.157 -14.202 104.6)scale(.00362)"/><use xlink:href="#b" transform="rotate(-12.776 152.116 -240.867)scale(.0027)"/><use xlink:href="#b" transform="rotate(-49.201 58.829 -47.681)scale(.00366)"/><use xlink:href="#b" transform="rotate(205.094 31.79 8.021)scale(.00388)"/><use xlink:href="#b" transform="rotate(-92.329 41.753 -12.69)scale(.0036)"/><use xlink:href="#b" transform="rotate(172.952 27.543 15.93)scale(.00263)"/><use xlink:href="#b" transform="rotate(154.852 25.247 20.461)scale(.0031)"/><use xlink:href="#b" transform="rotate(251.278 38.065 -5.708)scale(.00286)"/><use xlink:href="#b" transform="rotate(188.06 29.083 12.338)scale(.00368)"/><use xlink:href="#b" transform="rotate(-35.406 71.137 -72.14)scale(.0027)"/><use xlink:href="#b" transform="rotate(56.195 1.998 65.637)scale(.00272)"/><use xlink:href="#b" transform="rotate(-54.239 54.622 -39.132)scale(.00299)"/><use xlink:href="#b" transform="rotate(182.25 27.935 13.767)scale(.00388)"/><use xlink:href="#b" transform="rotate(44.188 -6.455 80.916)scale(.00295)"/><use xlink:href="#b" transform="rotate(-82.407 43.088 -16.553)scale(.00301)"/><use xlink:href="#b" transform="rotate(28.903 -25.848 118.132)scale(.00395)"/><use xlink:href="#b" transform="rotate(16.175 -70.022 202.261)scale(.00262)"/><use xlink:href="#b" transform="rotate(-86.3 41.676 -14.082)scale(.0033)"/><use xlink:href="#b" transform="rotate(205.14 29.951 8.359)scale(.0033)"/><use xlink:href="#b" transform="rotate(-19.65 105.958 -137.428)scale(.00375)"/><use xlink:href="#b" transform="rotate(88.705 12.604 41.018)scale(.00365)"/><use xlink:href="#b" transform="rotate(-82.212 42.259 -15.697)scale(.00263)"/><use xlink:href="#b" transform="rotate(182.508 26.67 13.669)scale(.00307)"/><use xlink:href="#b" transform="rotate(199.193 28.566 9.839)scale(.00274)"/><use xlink:href="#b" transform="rotate(184.432 26.676 13.236)scale(.003)"/><use xlink:href="#b" transform="rotate(95.385 13.607 37.548)scale(.00393)"/><use xlink:href="#b" transform="rotate(3.205 -466.14 924.474)scale(.00302)"/><use xlink:href="#b" transform="rotate(232.138 32.496 1.792)scale(.0027)"/><use xlink:href="#b" transform="rotate(218.745 30.52 5.447)scale(.00388)"/><use xlink:href="#b" transform="rotate(13.595 -90.116 224.955)scale(.00283)"/><use xlink:href="#b" transform="rotate(172.739 24.538 15.826)scale(.00312)"/><use xlink:href="#b" transform="rotate(164.543 23.442 17.634)scale(.0034)"/><use xlink:href="#b" transform="rotate(228.912 31.417 2.965)scale(.0029)"/><use xlink:href="#b" transform="rotate(243.021 33.486 -.925)scale(.0026)"/><use xlink:href="#b" transform="rotate(259.009 36.304 -6.054)scale(.00263)"/><use xlink:href="#b" transform="rotate(-9.686 187.595 -274.517)scale(.00272)"/><use xlink:href="#b" transform="rotate(67.297 4.017 50.803)scale(.00276)"/><use xlink:href="#b" transform="rotate(11.914 -107.627 246.736)scale(.0026)"/><use xlink:href="#b" transform="rotate(-14.064 136.334 -181.622)scale(.00269)"/><use xlink:href="#b" transform="rotate(.402 -3886.088 6848.23)scale(.00372)"/><use xlink:href="#b" transform="rotate(44.566 -9.3 72.515)scale(.00302)"/><use xlink:href="#b" transform="rotate(32.803 -22.343 94.807)scale(.00382)"/><use xlink:href="#b" transform="rotate(-28.603 78.006 -78.38)scale(.00314)"/><use xlink:href="#b" transform="rotate(145.672 19.723 21.535)scale(.00386)"/><use xlink:href="#b" transform="rotate(-79.833 40.18 -13.507)scale(.004)"/><use xlink:href="#b" transform="rotate(-23.479 89.97 -97.591)scale(.00269)"/><use xlink:href="#b" transform="rotate(231.839 30.207 3.053)scale(.00341)"/><use xlink:href="#b" transform="rotate(175.608 22.861 15.124)scale(.00315)"/><use xlink:href="#b" transform="rotate(53.276 -4.128 59.762)scale(.0033)"/><use xlink:href="#b" transform="rotate(164.294 21.267 17.4)scale(.00352)"/><use xlink:href="#b" transform="rotate(228.112 29.16 4.246)scale(.00386)"/><use xlink:href="#b" transform="rotate(178.768 22.71 14.48)scale(.00308)"/><use xlink:href="#b" transform="rotate(156.918 19.918 18.784)scale(.0029)"/><use xlink:href="#b" transform="rotate(-76.454 40.057 -13.785)scale(.00401)"/><use xlink:href="#b" transform="rotate(98.418 10.589 33.272)scale(.00297)"/><use xlink:href="#b" transform="rotate(-89.533 36.251 -7.955)scale(.00267)"/><use xlink:href="#b" transform="rotate(140.143 17.31 22.18)scale(.00356)"/><use xlink:href="#b" transform="rotate(10.47 -127.78 250.878)scale(.00343)"/><use xlink:href="#b" transform="rotate(153.294 18.757 19.382)scale(.00348)"/><use xlink:href="#b" transform="rotate(190.552 23.136 12.261)scale(.00313)"/><use xlink:href="#b" transform="rotate(16.698 -72.056 159.568)scale(.00303)"/><use xlink:href="#b" transform="rotate(64.766 -.048 47.672)scale(.00322)"/><use xlink:href="#b" transform="rotate(210.826 25.287 8.376)scale(.0026)"/><use xlink:href="#b" transform="rotate(-80.488 37.658 -10.522)scale(.00329)"/><use xlink:href="#b" transform="rotate(142.977 16.677 21.225)scale(.00312)"/><use xlink:href="#b" transform="rotate(1.774 -866.416 1352.472)scale(.0033)"/><use xlink:href="#b" transform="rotate(-55.074 47.464 -25.385)scale(.00276)"/><use xlink:href="#b" transform="rotate(-89.503 34.824 -6.512)scale(.00273)"/><use xlink:href="#b" transform="rotate(118.79 12.666 26.304)scale(.00285)"/><use xlink:href="#b" transform="rotate(15.738 -79.135 161.37)scale(.00262)"/><use xlink:href="#b" transform="rotate(-16.717 114.393 -123.395)scale(.00285)"/><use xlink:href="#b" transform="rotate(194.02 22.184 11.727)scale(.00262)"/><use xlink:href="#b" transform="rotate(-11.272 159.992 -188.501)scale(.0029)"/><use xlink:href="#b" transform="rotate(146.084 16.163 20.341)scale(.0039)"/><use xlink:href="#b" transform="rotate(7.8 -180.884 302.816)scale(.00377)"/><use xlink:href="#b" transform="rotate(90.107 6.213 33.794)scale(.00262)"/><use xlink:href="#b" transform="rotate(243.272 28.385 2.171)scale(.00262)"/><use xlink:href="#b" transform="rotate(-78.916 36.524 -9.302)scale(.00316)"/><use xlink:href="#b" transform="rotate(222.506 25.045 6.773)scale(.00334)"/><use xlink:href="#b" transform="rotate(-4.542 365.364 -466.94)scale(.00373)"/><use xlink:href="#b" transform="rotate(206.369 22.659 9.841)scale(.00364)"/><use xlink:href="#b" transform="rotate(46.667 -12.654 57.974)scale(.00295)"/><use xlink:href="#b" transform="rotate(87.312 4.763 33.884)scale(.00324)"/><use xlink:href="#b" transform="rotate(156.696 16.176 18.052)scale(.00263)"/><use xlink:href="#b" transform="rotate(132.876 12.96 22.325)scale(.0033)"/><use xlink:href="#b" transform="rotate(38.535 -20.561 66.873)scale(.00305)"/><use xlink:href="#b" transform="rotate(198.288 20.907 11.273)scale(.00284)"/><use xlink:href="#b" transform="rotate(-60.816 42.045 -16.735)scale(.00305)"/><use xlink:href="#b" transform="rotate(-62.353 41.185 -15.502)scale(.00354)"/><use xlink:href="#b" transform="rotate(42.072 -17.509 60.877)scale(.00282)"/><use xlink:href="#b" transform="rotate(219.025 23.129 8.016)scale(.00392)"/><use xlink:href="#b" transform="rotate(198.64 20.354 11.366)scale(.00338)"/><use xlink:href="#b" transform="rotate(-26.695 75.913 -59.597)scale(.00325)"/><use xlink:href="#b" transform="rotate(60.831 -5.576 43.884)scale(.00328)"/><use xlink:href="#b" transform="rotate(153.55 14.461 18.29)scale(.0029)"/><use xlink:href="#b" transform="rotate(212.749 21.634 9.168)scale(.00286)"/><use xlink:href="#b" transform="rotate(2.851 -532.554 696.836)scale(.00403)"/><use xlink:href="#b" transform="rotate(33.215 -28.693 70.866)scale(.00346)"/><use xlink:href="#b" transform="rotate(63.841 -4.931 41.192)scale(.00285)"/><use xlink:href="#b" transform="rotate(5.364 -275.722 369.153)scale(.00365)"/><use xlink:href="#b" transform="rotate(165.271 15.168 16.368)scale(.00297)"/><use xlink:href="#b" transform="rotate(70.739 -2.58 37.38)scale(.00288)"/><use xlink:href="#b" transform="rotate(92.93 3.697 29.734)scale(.00342)"/><use xlink:href="#b" transform="rotate(-81.42 32.613 -4.65)scale(.00262)"/><use xlink:href="#b" transform="rotate(100.682 5.146 27.571)scale(.00356)"/><use xlink:href="#b" transform="rotate(198.823 18.64 11.582)scale(.00294)"/><use xlink:href="#b" transform="rotate(-30.993 65.694 -42.535)scale(.00393)"/><use xlink:href="#b" transform="rotate(-83.432 31.504 -3.188)scale(.00404)"/><use xlink:href="#b" transform="rotate(-79.264 32.584 -4.59)scale(.00266)"/><use xlink:href="#b" transform="rotate(167.356 14.371 16.004)scale(.00392)"/><use xlink:href="#b" transform="rotate(4.636 -322.702 390.007)scale(.0039)"/><use xlink:href="#b" transform="rotate(164.376 13.683 16.337)scale(.00345)"/><use xlink:href="#b" transform="rotate(198.557 17.69 11.845)scale(.00371)"/><use xlink:href="#b" transform="rotate(246.056 24.224 4.544)scale(.00282)"/><use xlink:href="#b" transform="rotate(-8.05 211.242 -195.995)scale(.00263)"/><use xlink:href="#b" transform="rotate(167.663 13.636 15.885)scale(.00402)"/><use xlink:href="#b" transform="rotate(161.426 12.663 16.606)scale(.00304)"/><use xlink:href="#b" transform="rotate(104.095 4.021 25.45)scale(.00267)"/><use xlink:href="#b" transform="rotate(-52.272 42.72 -14.802)scale(.00332)"/><use xlink:href="#b" transform="rotate(-28.394 68.875 -41.547)scale(.00345)"/><use xlink:href="#b" transform="rotate(122.906 6.926 21.856)scale(.00278)"/><use xlink:href="#b" transform="rotate(-68.556 34.489 -6.061)scale(.00365)"/><use xlink:href="#b" transform="rotate(184.326 14.717 13.72)scale(.00312)"/><use xlink:href="#b" transform="rotate(-39.32 52.552 -23.9)scale(.00336)"/><use xlink:href="#b" transform="rotate(231.886 20.65 7.727)scale(.00368)"/><use xlink:href="#b" transform="rotate(40.325 -23.468 50.576)scale(.00387)"/><use xlink:href="#b" transform="rotate(128.252 6.955 20.648)scale(.00272)"/><use xlink:href="#b" transform="rotate(81.412 -2.434 29.508)scale(.00312)"/><use xlink:href="#b" transform="rotate(211.514 17.343 10.646)scale(.00388)"/><use xlink:href="#b" transform="rotate(121.19 5.583 21.507)scale(.00361)"/><use xlink:href="#b" transform="rotate(-24.46 76.498 -44.278)scale(.00356)"/><use xlink:href="#b" transform="rotate(-17.316 103.015 -67.952)scale(.00391)"/><use xlink:href="#b" transform="rotate(11.786 -119.819 134.219)scale(.0039)"/><use xlink:href="#b" transform="rotate(111.547 3.349 22.604)scale(.003)"/><use xlink:href="#b" transform="rotate(56.464 -12.997 36.92)scale(.00324)"/><use xlink:href="#b" transform="rotate(-87.814 26.772 1.74)scale(.00328)"/><use xlink:href="#b" transform="rotate(107.037 2.258 23.074)scale(.00382)"/><use xlink:href="#b" transform="rotate(110.168 2.624 22.471)scale(.00327)"/><use xlink:href="#b" transform="rotate(-68.901 32.14 -2.747)scale(.00318)"/><use xlink:href="#b" transform="rotate(-22.854 79.79 -42.48)scale(.00387)"/><use xlink:href="#b" transform="rotate(84.544 -3.238 26.764)scale(.00371)"/><use xlink:href="#b" transform="rotate(-90.167 25.385 3.09)scale(.00355)"/><use xlink:href="#b" transform="rotate(239.875 19.464 7.787)scale(.00271)"/><use xlink:href="#b" transform="rotate(228.713 17.675 9.32)scale(.00369)"/><use xlink:href="#b" transform="rotate(176.744 10.917 14.565)scale(.00332)"/><use xlink:href="#b" transform="rotate(-12.993 131.766 -79.82)scale(.0035)"/><use xlink:href="#b" transform="rotate(179.093 10.971 14.39)scale(.00396)"/><use xlink:href="#b" transform="rotate(47.137 -20.654 38.225)scale(.00312)"/><use xlink:href="#b" transform="rotate(128.335 4.069 19.233)scale(.00267)"/><use xlink:href="#b" transform="rotate(-61.656 33.682 -2.808)scale(.00363)"/><use xlink:href="#b" transform="rotate(195.402 12.379 12.851)scale(.00286)"/><use xlink:href="#b" transform="rotate(-54.562 37.126 -5.206)scale(.00285)"/><use xlink:href="#b" transform="rotate(-70.048 29.968 .054)scale(.00272)"/><use xlink:href="#b" transform="rotate(-87.134 24.647 4.088)scale(.0039)"/><use xlink:href="#b" transform="rotate(71.079 -9.265 27.745)scale(.00273)"/><use xlink:href="#b" transform="rotate(36.786 -31.332 42.84)scale(.00345)"/><use xlink:href="#b" transform="rotate(24.906 -52.365 56.707)scale(.00341)"/><use xlink:href="#b" transform="rotate(231.221 16.294 9.852)scale(.00358)"/><use xlink:href="#b" transform="rotate(49.237 -20.344 34.105)scale(.0037)"/><use xlink:href="#b" transform="rotate(22.646 -59.182 59.048)scale(.00338)"/><use xlink:href="#b" transform="rotate(25.232 -52.187 53.836)scale(.00312)"/><use xlink:href="#b" transform="rotate(-23.818 74.501 -27.358)scale(.00283)"/><use xlink:href="#b" transform="rotate(79.178 -7.648 24.697)scale(.00263)"/><use xlink:href="#b" transform="rotate(133.638 3.067 17.895)scale(.00311)"/><use xlink:href="#b" transform="rotate(175.3 8.268 14.574)scale(.00295)"/><use xlink:href="#b" transform="rotate(69.182 -11.078 26.238)scale(.00402)"/><use xlink:href="#b" transform="rotate(58.41 -16.135 28.863)scale(.0026)"/><use xlink:href="#b" transform="rotate(119.8 .533 18.917)scale(.00347)"/><use xlink:href="#b" transform="rotate(145.815 4.158 16.708)scale(.00375)"/><use xlink:href="#b" transform="rotate(151.878 4.795 16.221)scale(.00372)"/><use xlink:href="#b" transform="rotate(33.944 -36.79 39.094)scale(.0039)"/><use xlink:href="#b" transform="rotate(-66.18 28.988 2.865)scale(.00365)"/><use xlink:href="#b" transform="rotate(226.482 13.685 11.12)scale(.00342)"/><use xlink:href="#b" transform="rotate(259.82 19.153 8.167)scale(.00287)"/><use xlink:href="#b" transform="rotate(-4.55 352.895 -163.471)scale(.00364)"/><use xlink:href="#b" transform="rotate(168.461 5.98 14.917)scale(.00272)"/><use xlink:href="#b" transform="rotate(68.873 -12.802 24.26)scale(.00298)"/><use xlink:href="#b" transform="rotate(141.325 2.358 16.616)scale(.00326)"/><use xlink:href="#b" transform="rotate(13.385 -109.954 70.48)scale(.00348)"/><use xlink:href="#b" transform="rotate(-60.827 30.392 3.087)scale(.00272)"/><use xlink:href="#b" transform="rotate(.993 -1581.024 751.686)scale(.00313)"/><use xlink:href="#b" transform="rotate(-47.258 38.166 -.137)scale(.00297)"/><use xlink:href="#b" transform="rotate(-68.684 26.696 5.31)scale(.00352)"/><use xlink:href="#b" transform="rotate(221.591 11.69 12.043)scale(.00394)"/><use xlink:href="#b" transform="rotate(171.847 5.315 14.656)scale(.00307)"/><use xlink:href="#b" transform="rotate(-51.773 34.5 2.458)scale(.00343)"/><use xlink:href="#b" transform="rotate(-35.843 48.434 -2.86)scale(.00397)"/><use xlink:href="#b" transform="rotate(-92.266 19.132 8.93)scale(.00282)"/><use xlink:href="#b" transform="rotate(127.64 -.989 16.873)scale(.00294)"/><use xlink:href="#b" transform="rotate(233.34 12.597 11.665)scale(.00365)"/><use xlink:href="#b" transform="rotate(49.62 -24.16 25.275)scale(.00342)"/><use xlink:href="#b" transform="rotate(133.55 -.437 16.408)scale(.0038)"/><use xlink:href="#b" transform="rotate(-3.916 407.907 -127.585)scale(.00303)"/><use xlink:href="#b" transform="rotate(203.56 8.035 13.3)scale(.00359)"/><use xlink:href="#b" transform="rotate(-6.32 253.551 -68.005)scale(.00365)"/><use xlink:href="#b" transform="rotate(-72.824 23.528 8.21)scale(.00312)"/><use xlink:href="#b" transform="rotate(111.833 -4.465 17.187)scale(.00401)"/><use xlink:href="#b" transform="rotate(229.759 10.982 12.294)scale(.00304)"/><use xlink:href="#b" transform="rotate(135.79 -1.112 15.885)scale(.003)"/><use xlink:href="#b" transform="rotate(-10.765 150.055 -27.201)scale(.00357)"/><use xlink:href="#b" transform="rotate(92.393 -8.855 17.89)scale(.00398)"/><use xlink:href="#b" transform="rotate(218.594 8.902 12.958)scale(.0031)"/><use xlink:href="#b" transform="rotate(240.27 11.956 12.257)scale(.00368)"/><use xlink:href="#b" transform="rotate(50.73 -25.15 21.392)scale(.00334)"/><use xlink:href="#b" transform="rotate(-47.724 34.776 6.901)scale(.00334)"/><use xlink:href="#b" transform="rotate(163.944 1.682 14.74)scale(.00397)"/><use xlink:href="#b" transform="rotate(111.933 -5.843 16.269)scale(.00341)"/><use xlink:href="#b" transform="rotate(42.014 -32.517 21.687)scale(.00322)"/><use xlink:href="#b" transform="rotate(-58.414 27.816 9.238)scale(.0027)"/><use xlink:href="#b" transform="rotate(24.347 -60.542 26.335)scale(.00355)"/><use xlink:href="#b" transform="rotate(191.833 4.366 14.006)scale(.0034)"/><use xlink:href="#b" transform="rotate(209.048 6.385 13.7)scale(.00386)"/><use xlink:href="#b" transform="rotate(179.17 2.583 14.304)scale(.00373)"/><use xlink:href="#b" transform="rotate(150.763 -1.083 14.782)scale(.00307)"/><use xlink:href="#b" transform="rotate(202.269 5.089 13.82)scale(.00277)"/><use xlink:href="#b" transform="rotate(100.524 -9.158 15.789)scale(.00306)"/><use xlink:href="#b" transform="rotate(235.511 9.41 13.296)scale(.00291)"/><use xlink:href="#b" transform="rotate(138.659 -3.133 14.857)scale(.0031)"/><use xlink:href="#b" transform="rotate(-.285 5505.898 -565.983)scale(.00396)"/><use xlink:href="#b" transform="rotate(-64.488 23.598 12.089)scale(.00318)"/><use xlink:href="#b" transform="rotate(-73.097 20.209 12.64)scale(.00353)"/><use xlink:href="#b" transform="rotate(160.734 -.75 14.48)scale(.00393)"/><use xlink:href="#b" transform="rotate(241.09 9.503 13.608)scale(.00261)"/><use xlink:href="#b" transform="rotate(231.218 7.879 13.808)scale(.00295)"/><use xlink:href="#b" transform="rotate(195.028 3.016 14.205)scale(.00383)"/><use xlink:href="#b" transform="rotate(138.367 -4.212 14.466)scale(.00303)"/><use xlink:href="#b" transform="rotate(-7.306 216.891 6.037)scale(.00272)"/><use xlink:href="#b" transform="rotate(-99.843 12.392 13.855)scale(.0027)"/><use xlink:href="#b" transform="rotate(153.511 -2.455 14.333)scale(.00388)"/><use xlink:href="#b" transform="rotate(171.974 -.264 14.09)scale(.00283)"/><use xlink:href="#b" transform="rotate(-50.45 29.238 13.55)scale(.00403)"/><use xlink:href="#b" transform="rotate(205.795 3.75 13.731)scale(.00275)"/><use xlink:href="#b" transform="rotate(82.108 -14.34 14.033)scale(.00395)"/><use xlink:href="#b" transform="rotate(76.515 -15.907 13.937)scale(.003)"/><use xlink:href="#b" transform="rotate(182.696 .994 13.427)scale(.00277)"/><use xlink:href="#b" transform="rotate(235.858 7.537 13.214)scale(.0033)"/><use xlink:href="#b" transform="rotate(182.102 .937 13.21)scale(.00298)"/><use xlink:href="#b" transform="rotate(-56.388 24.234 12.63)scale(.00343)"/><use xlink:href="#b" transform="rotate(74.156 -15.68 13.336)scale(.00386)"/><use xlink:href="#b" transform="rotate(103.648 -9.05 13.056)scale(.00275)"/><use xlink:href="#b" transform="rotate(130.875 -4.804 12.877)scale(.00383)"/><use xlink:href="#b" transform="rotate(-35.756 38.272 11.628)scale(.0029)"/><use xlink:href="#b" transform="rotate(154.004 -2.01 12.558)scale(.00361)"/><use xlink:href="#b" transform="rotate(193.501 2.15 12.34)scale(.00374)"/><use xlink:href="#b" transform="rotate(174.893 .154 12.175)scale(.00261)"/><use xlink:href="#b" transform="rotate(147.502 -2.596 12.204)scale(.0039)"/><use xlink:href="#b" transform="rotate(64.745 -17.386 12.4)scale(.00302)"/><use xlink:href="#b" transform="rotate(207.815 3.503 11.723)scale(.0027)"/><use xlink:href="#b" transform="rotate(64.943 -16.816 12.145)scale(.00375)"/><use xlink:href="#b" transform="rotate(254.639 9.17 11.44)scale(.00384)"/><use xlink:href="#b" transform="rotate(240.896 7.147 11.235)scale(.00281)"/><use xlink:href="#b" transform="rotate(61.994 -17.171 11.766)scale(.00386)"/><use xlink:href="#b" transform="rotate(234.052 6.161 10.992)scale(.00267)"/><use xlink:href="#b" transform="rotate(-93.745 10.647 10.76)scale(.00272)"/><use xlink:href="#b" transform="rotate(195.768 2.162 10.931)scale(.00306)"/><use xlink:href="#b" transform="rotate(93.569 -9.004 11.127)scale(.00333)"/><use xlink:href="#b" transform="rotate(49.399 -21.489 11.33)scale(.00342)"/><use xlink:href="#b" transform="rotate(201.192 2.589 10.524)scale(.00279)"/><use xlink:href="#b" transform="rotate(183.617 1.066 10.52)scale(.0037)"/><use xlink:href="#b" transform="rotate(-55.392 19.47 9.884)scale(.00354)"/><use xlink:href="#b" transform="rotate(232.628 5.534 10.105)scale(.00343)"/><use xlink:href="#b" transform="rotate(94.65 -8.225 10.356)scale(.0026)"/><use xlink:href="#b" transform="rotate(150.922 -1.706 10.084)scale(.00363)"/><use xlink:href="#b" transform="rotate(219.72 4.089 9.728)scale(.0029)"/><use xlink:href="#b" transform="rotate(-55.491 18.36 9.114)scale(.0027)"/><use xlink:href="#b" transform="rotate(-18.282 57.556 7.895)scale(.00321)"/><use xlink:href="#b" transform="rotate(233.435 5.26 9.376)scale(.0032)"/><use xlink:href="#b" transform="rotate(191.203 1.614 9.395)scale(.0036)"/><use xlink:href="#b" transform="rotate(175.884 .453 9.31)scale(.0039)"/><use xlink:href="#b" transform="rotate(133.174 -2.96 9.247)scale(.00368)"/><use xlink:href="#b" transform="rotate(50.112 -17.24 9.519)scale(.00384)"/><use xlink:href="#b" transform="rotate(209.675 2.957 8.808)scale(.00397)"/><use xlink:href="#b" transform="rotate(-30.747 30.238 7.893)scale(.004)"/><use xlink:href="#b" transform="rotate(13.075 -68.74 10.639)scale(.00384)"/><use xlink:href="#b" transform="rotate(-73.46 11.236 8.1)scale(.0039)"/><use xlink:href="#b" transform="rotate(142.064 -1.943 8.321)scale(.00316)"/><use xlink:href="#b" transform="rotate(208.965 2.718 8.092)scale(.00399)"/><use xlink:href="#b" transform="rotate(157.54 -.76 8.011)scale(.00325)"/><use xlink:href="#b" transform="rotate(6.314 -132.938 13.379)scale(.00283)"/><use xlink:href="#b" transform="rotate(202.76 2.18 7.675)scale(.00334)"/><use xlink:href="#b" transform="rotate(119.85 -3.386 7.758)scale(.00326)"/><use xlink:href="#b" transform="rotate(-89.724 7.73 7.174)scale(.0031)"/><use xlink:href="#b" transform="rotate(173.13 .286 7.354)scale(.00293)"/><use xlink:href="#b" transform="rotate(51.376 -13.408 7.858)scale(.00282)"/><use xlink:href="#b" transform="rotate(67.763 -9.283 7.576)scale(.00265)"/><use xlink:href="#b" transform="rotate(217.095 2.903 6.919)scale(.00298)"/><use xlink:href="#b" transform="rotate(249.515 5.175 6.748)scale(.00345)"/><use xlink:href="#b" transform="rotate(206.596 2.186 6.689)scale(.0028)"/><use xlink:href="#b" transform="rotate(-58.78 11.734 6.117)scale(.00286)"/><use xlink:href="#b" transform="rotate(-29.013 24.365 5.306)scale(.00266)"/><use xlink:href="#b" transform="rotate(74.913 -7.058 6.833)scale(.00332)"/><use xlink:href="#b" transform="rotate(71.173 -7.49 6.743)scale(.00303)"/><use xlink:href="#b" transform="rotate(161.502 -.23 6.265)scale(.00303)"/><use xlink:href="#b" transform="rotate(-47.859 13.452 5.368)scale(.0027)"/><use xlink:href="#b" transform="rotate(3.536 -179.249 16.035)scale(.00279)"/><use xlink:href="#b" transform="rotate(-61.473 9.755 5.535)scale(.00382)"/><use xlink:href="#b" transform="rotate(150.677 -.69 5.817)scale(.00286)"/><use xlink:href="#b" transform="rotate(200.314 1.668 5.634)scale(.00373)"/><use xlink:href="#b" transform="rotate(-8.678 66.294 2.158)scale(.00359)"/><use xlink:href="#b" transform="rotate(-95.324 5.167 5.064)scale(.0028)"/><use xlink:href="#b" transform="rotate(73.226 -5.598 5.624)scale(.0037)"/><use xlink:href="#b" transform="rotate(16.814 -30.457 6.959)scale(.00338)"/><use xlink:href="#b" transform="rotate(73.78 -5.267 5.366)scale(.00324)"/><use xlink:href="#b" transform="rotate(172.511 .418 4.877)scale(.00302)"/><use xlink:href="#b" transform="rotate(-99.805 4.301 4.54)scale(.00341)"/><use xlink:href="#b" transform="rotate(230.198 2.638 4.437)scale(.0026)"/><use xlink:href="#b" transform="rotate(242.82 3.18 4.373)scale(.00342)"/><use xlink:href="#b" transform="rotate(55.473 -6.752 4.945)scale(.00299)"/><use xlink:href="#b" transform="rotate(182.499 .768 4.244)scale(.0027)"/><use xlink:href="#b" transform="rotate(208.856 1.659 4.093)scale(.00305)"/><use xlink:href="#b" transform="rotate(128.099 -.945 4.213)scale(.00383)"/><use xlink:href="#b" transform="rotate(-15.93 25.26 1.812)scale(.00304)"/><use xlink:href="#b" transform="rotate(-30.446 12.708 2.925)scale(.00373)"/><use xlink:href="#b" transform="rotate(131.453 -.657 3.796)scale(.00366)"/><use xlink:href="#b" transform="rotate(143.789 -.288 3.602)scale(.00302)"/><use xlink:href="#b" transform="rotate(68.793 -3.446 3.797)scale(.0036)"/><use xlink:href="#b" transform="rotate(47.308 -5.652 3.924)scale(.00304)"/><use xlink:href="#b" transform="rotate(115.827 -.925 3.328)scale(.00337)"/><use xlink:href="#b" transform="rotate(217.428 1.574 2.926)scale(.00323)"/><use xlink:href="#b" transform="rotate(84.981 -1.967 3.21)scale(.00285)"/><use xlink:href="#b" transform="rotate(125.698 -.408 2.943)scale(.00363)"/><use xlink:href="#b" transform="rotate(62.15 -2.747 3.091)scale(.0037)"/><use xlink:href="#b" transform="rotate(-65.437 3.856 2.067)scale(.00318)"/><use xlink:href="#b" transform="rotate(82.12 -1.455 2.712)scale(.0032)"/><use xlink:href="#b" transform="rotate(65.036 -2.181 2.735)scale(.00265)"/><use xlink:href="#b" transform="rotate(259.044 2.089 2.003)scale(.00382)"/><use xlink:href="#b" transform="rotate(211.875 1.136 1.906)scale(.00279)"/><use xlink:href="#b" transform="rotate(150.014 .313 1.978)scale(.00294)"/><use xlink:href="#b" transform="rotate(241.051 1.497 1.705)scale(.00392)"/><use xlink:href="#b" transform="rotate(-89.3 1.903 1.309)scale(.00275)"/><use xlink:href="#b" transform="rotate(66.494 -.819 1.962)scale(.00352)"/><use xlink:href="#b" transform="rotate(-92.31 1.587 1.207)scale(.00373)"/><use xlink:href="#b" transform="rotate(165.644 .6 1.293)scale(.00295)"/><use xlink:href="#b" transform="rotate(171.787 .631 1.15)scale(.00268)"/><use xlink:href="#b" transform="rotate(-24.208 3.552 -.472)scale(.00264)"/><use xlink:href="#b" transform="rotate(144.033 .51 1.026)scale(.00262)"/><use xlink:href="#b" transform="rotate(-80.318 1.166 .462)scale(.00278)"/><use xlink:href="#b" transform="rotate(-75.103 1.042 .403)scale(.00334)"/><use xlink:href="#b" transform="rotate(158.749 .87 .874)scale(.00394)"/><use xlink:href="#b" transform="rotate(217.354 1.058 .528)scale(.00287)"/><use xlink:href="#b" transform="rotate(1.295 -19.02 58.34)scale(.00353)"/><use xlink:href="#b" transform="rotate(29.931 .608 3.654)scale(.00405)"/><use xlink:href="#b" transform="rotate(-84.345 1.67 -.286)scale(.00336)"/><use xlink:href="#b" transform="rotate(244.596 1.663 .016)scale(.00277)"/><use xlink:href="#b" transform="rotate(143.909 1.497 1.11)scale(.0028)"/><use xlink:href="#b" transform="rotate(221.706 1.837 .27)scale(.00336)"/><use xlink:href="#b" transform="rotate(219.611 1.99 .295)scale(.00385)"/><use xlink:href="#b" transform="rotate(253.545 2.2 -.41)scale(.00335)"/><use xlink:href="#b" transform="rotate(54.194 1.84 4.05)scale(.00405)"/><use xlink:href="#b" transform="rotate(129.15 2.233 1.656)scale(.00372)"/><use xlink:href="#b" transform="rotate(166.16 2.393 .984)scale(.00313)"/><use xlink:href="#b" transform="rotate(44.095 1.914 5.968)scale(.00316)"/><use xlink:href="#b" transform="rotate(-84.724 2.95 -1.602)scale(.00397)"/><use xlink:href="#b" transform="rotate(34.88 1.939 8.359)scale(.00297)"/><use xlink:href="#b" transform="rotate(193.336 2.959 .45)scale(.00313)"/><use xlink:href="#b" transform="rotate(-72.3 3.408 -2.902)scale(.00275)"/><use xlink:href="#b" transform="rotate(-26.578 4.067 -10.588)scale(.00388)"/><use xlink:href="#b" transform="rotate(256.99 3.494 -1.599)scale(.00266)"/><use xlink:href="#b" transform="rotate(-4.455 10.786 -76.276)scale(.00274)"/><use xlink:href="#b" transform="rotate(48.27 2.948 7.613)scale(.0032)"/><use xlink:href="#b" transform="rotate(52.217 2.97 7.287)scale(.0026)"/><use xlink:href="#b" transform="rotate(-33.311 4.572 -10.267)scale(.00324)"/><use xlink:href="#b" transform="rotate(107.014 3.76 3.304)scale(.00383)"/><use xlink:href="#b" transform="rotate(138.648 4.003 2.141)scale(.00402)"/><use xlink:href="#b" transform="rotate(98.367 3.98 3.97)scale(.00347)"/><use xlink:href="#b" transform="rotate(-96.183 4.506 -2.776)scale(.00267)"/><use xlink:href="#b" transform="rotate(14.55 2.952 31.485)scale(.00399)"/><use xlink:href="#b" transform="rotate(96.205 4.433 4.456)scale(.00395)"/><use xlink:href="#b" transform="rotate(125.259 4.571 2.955)scale(.00327)"/><use xlink:href="#b" transform="rotate(21.497 3.254 23.915)scale(.00273)"/><use xlink:href="#b" transform="rotate(-68.85 5.283 -5.756)scale(.00349)"/><use xlink:href="#b" transform="rotate(-90.673 5.31 -3.755)scale(.0037)"/><use xlink:href="#b" transform="rotate(97.697 5.088 4.932)scale(.00394)"/><use xlink:href="#b" transform="rotate(1.214 -20.765 465.49)scale(.0029)"/><use xlink:href="#b" transform="rotate(246.36 5.6 -2.602)scale(.0026)"/><use xlink:href="#b" transform="rotate(73.588 5.238 7.594)scale(.00331)"/><use xlink:href="#b" transform="rotate(.522 -57.34 1156.193)scale(.00276)"/><use xlink:href="#b" transform="rotate(-78.183 6.101 -5.893)scale(.00281)"/><use xlink:href="#b" transform="rotate(211.279 5.957 -.792)scale(.00309)"/><use xlink:href="#b" transform="rotate(32.892 5.236 19.616)scale(.00343)"/><use xlink:href="#b" transform="rotate(-97.009 6.367 -4.297)scale(.00323)"/><use xlink:href="#b" transform="rotate(211.96 6.35 -.905)scale(.0034)"/><use xlink:href="#b" transform="rotate(226.063 6.515 -1.764)scale(.00343)"/><use xlink:href="#b" transform="rotate(103.407 6.254 5.537)scale(.00271)"/><use xlink:href="#b" transform="rotate(154.968 6.585 2.13)scale(.00331)"/><use xlink:href="#b" transform="rotate(151.22 6.767 2.415)scale(.00392)"/><use xlink:href="#b" transform="rotate(101.441 6.615 6.018)scale(.00265)"/><use xlink:href="#b" transform="rotate(-42.769 7.7 -16.12)scale(.00276)"/><use xlink:href="#b" transform="rotate(-84.928 7.386 -6.611)scale(.00271)"/><use xlink:href="#b" transform="rotate(177.622 7.233 .909)scale(.00348)"/><use xlink:href="#b" transform="rotate(116.23 7.14 5.029)scale(.00283)"/><use xlink:href="#b" transform="rotate(233.369 7.588 -2.766)scale(.00334)"/><use xlink:href="#b" transform="rotate(84.955 7.265 8.546)scale(.00297)"/><use xlink:href="#b" transform="rotate(57.39 7.113 14.015)scale(.00267)"/><use xlink:href="#b" transform="rotate(25.697 6.905 32.95)scale(.00371)"/><use xlink:href="#b" transform="rotate(146.926 7.8 2.939)scale(.00263)"/><use xlink:href="#b" transform="rotate(134.207 7.904 3.945)scale(.00297)"/><use xlink:href="#b" transform="rotate(173.404 8.152 1.204)scale(.00336)"/><use xlink:href="#b" transform="rotate(68.39 8.015 12.294)scale(.00374)"/><use xlink:href="#b" transform="rotate(160.921 8.325 2.052)scale(.00266)"/><use xlink:href="#b" transform="rotate(-36.512 9.315 -23.81)scale(.00303)"/><use xlink:href="#b" transform="rotate(-23.423 9.854 -38.819)scale(.00322)"/><use xlink:href="#b" transform="rotate(193.743 8.854 -.19)scale(.004)"/><use xlink:href="#b" transform="rotate(-60.925 9.337 -13.642)scale(.00336)"/><use xlink:href="#b" transform="rotate(46.598 8.466 20.73)scale(.00324)"/><use xlink:href="#b" transform="rotate(38.857 8.292 25.53)scale(.00269)"/><use xlink:href="#b" transform="rotate(92.456 8.948 9.194)scale(.00272)"/><use xlink:href="#b" transform="rotate(77.613 9.062 11.86)scale(.00323)"/><use xlink:href="#b" transform="rotate(-51.527 9.971 -17.906)scale(.00386)"/><use xlink:href="#b" transform="rotate(183.488 9.714 .526)scale(.00396)"/><use xlink:href="#b" transform="rotate(124.205 9.68 5.71)scale(.00336)"/><use xlink:href="#b" transform="rotate(214.738 10.017 -2.194)scale(.00347)"/><use xlink:href="#b" transform="rotate(1.39 -8.404 791.67)scale(.00357)"/><use xlink:href="#b" transform="rotate(207.99 10.25 -1.686)scale(.00318)"/><use xlink:href="#b" transform="rotate(-67.905 10.693 -13.958)scale(.00294)"/><use xlink:href="#b" transform="rotate(226.348 10.502 -3.58)scale(.00267)"/><use xlink:href="#b" transform="rotate(39.597 9.801 28.776)scale(.00313)"/><use xlink:href="#b" transform="rotate(63.999 10.114 17.085)scale(.0026)"/><use xlink:href="#b" transform="rotate(200.779 10.818 -1.11)scale(.00359)"/><use xlink:href="#b" transform="rotate(138.493 10.728 4.677)scale(.00272)"/><use xlink:href="#b" transform="rotate(.866 -16.353 1392.274)scale(.0038)"/><use xlink:href="#b" transform="rotate(-13.835 13.427 -87.573)scale(.00281)"/><use xlink:href="#b" transform="rotate(-80.762 11.535 -12.033)scale(.0026)"/><use xlink:href="#b" transform="rotate(-77.46 11.648 -12.809)scale(.00345)"/><use xlink:href="#b" transform="rotate(141.925 11.458 4.595)scale(.0039)"/><use xlink:href="#b" transform="rotate(109.368 11.526 8.694)scale(.00384)"/><use xlink:href="#b" transform="rotate(176.238 11.785 1.146)scale(.00356)"/><use xlink:href="#b" transform="rotate(-77.068 12.217 -13.676)scale(.00297)"/><use xlink:href="#b" transform="rotate(61.741 11.593 20.108)scale(.00323)"/><use xlink:href="#b" transform="rotate(150.153 12.032 3.845)scale(.0029)"/><use xlink:href="#b" transform="rotate(121.532 12.194 7.39)scale(.0039)"/><use xlink:href="#b" transform="rotate(121.132 12.202 7.475)scale(.00284)"/><use xlink:href="#b" transform="rotate(-49.92 13.058 -25.205)scale(.00302)"/><use xlink:href="#b" transform="rotate(194.943 12.683 -.813)scale(.00364)"/><use xlink:href="#b" transform="rotate(35.459 11.894 39.294)scale(.003)"/><use xlink:href="#b" transform="rotate(-22.693 14.151 -61.236)scale(.00313)"/><use xlink:href="#b" transform="rotate(-2.923 24.648 -492.453)scale(.0026)"/><use xlink:href="#b" transform="rotate(220.479 13.167 -3.939)scale(.00298)"/><use xlink:href="#b" transform="rotate(60.281 12.765 22.732)scale(.0032)"/><use xlink:href="#b" transform="rotate(8.498 10.205 174.046)scale(.00346)"/><use xlink:href="#b" transform="rotate(223.036 13.54 -4.41)scale(.00295)"/><use xlink:href="#b" transform="rotate(238.672 13.7 -6.654)scale(.003)"/><use xlink:href="#b" transform="rotate(172.307 13.727 1.688)scale(.00388)"/><use xlink:href="#b" transform="rotate(-49.554 14.316 -28.13)scale(.00396)"/><use xlink:href="#b" transform="rotate(-35.237 14.81 -41.952)scale(.00299)"/><use xlink:href="#b" transform="rotate(216.333 14.22 -3.669)scale(.0039)"/><use xlink:href="#b" transform="rotate(151.591 14.17 4.237)scale(.00313)"/><use xlink:href="#b" transform="rotate(237.908 14.524 -6.905)scale(.0037)"/><use xlink:href="#b" transform="rotate(124.492 14.371 8.15)scale(.00321)"/><use xlink:href="#b" transform="rotate(144.172 14.476 5.297)scale(.0026)"/><use xlink:href="#b" transform="rotate(122.346 14.632 8.63)scale(.00356)"/><use xlink:href="#b" transform="rotate(71.311 14.59 20.858)scale(.00363)"/><use xlink:href="#b" transform="rotate(-55.906 15.477 -26.702)scale(.00317)"/><use xlink:href="#b" transform="rotate(178.681 15.148 .943)scale(.00356)"/><use xlink:href="#b" transform="rotate(222.537 15.341 -5.041)scale(.003)"/><use xlink:href="#b" transform="rotate(-16.306 17.298 -103.637)scale(.00284)"/><use xlink:href="#b" transform="rotate(180.642 15.464 .65)scale(.00303)"/><use xlink:href="#b" transform="rotate(-8.036 19.805 -215.509)scale(.0026)"/><use xlink:href="#b" transform="rotate(-51.064 16.186 -31.108)scale(.00367)"/><use xlink:href="#b" transform="rotate(134.269 15.78 7.266)scale(.00366)"/><use xlink:href="#b" transform="rotate(-99.72 16.193 -12.306)scale(.0036)"/><use xlink:href="#b" transform="rotate(88.01 15.817 16.97)scale(.00302)"/><use xlink:href="#b" transform="rotate(-28.003 17.07 -62.363)scale(.00396)"/><use xlink:href="#b" transform="rotate(83.06 16.02 18.735)scale(.0028)"/><use xlink:href="#b" transform="rotate(252.951 16.665 -11.128)scale(.0031)"/><use xlink:href="#b" transform="rotate(250.12 16.775 -10.603)scale(.00314)"/><use xlink:href="#b" transform="rotate(83.403 16.441 19.023)scale(.00324)"/><use xlink:href="#b" transform="rotate(107.07 16.6 12.856)scale(.00282)"/><use xlink:href="#b" transform="rotate(35.466 16.12 52.4)scale(.00308)"/><use xlink:href="#b" transform="rotate(146.626 17.053 5.767)scale(.00376)"/><use xlink:href="#b" transform="rotate(-61.24 17.658 -27.67)scale(.00274)"/><use xlink:href="#b" transform="rotate(250.731 17.503 -11.205)scale(.00345)"/><use xlink:href="#b" transform="rotate(42.01 17.01 45.012)scale(.00397)"/><use xlink:href="#b" transform="rotate(68.171 17.267 26.11)scale(.00341)"/><use xlink:href="#b" transform="rotate(.857 -8.624 2309.078)scale(.00392)"/><use xlink:href="#b" transform="rotate(97.394 17.639 16.068)scale(.0031)"/><use xlink:href="#b" transform="rotate(236.672 18.13 -8.727)scale(.00315)"/><use xlink:href="#b" transform="rotate(69.893 17.747 26.046)scale(.00317)"/><use xlink:href="#b" transform="rotate(12.654 15.586 161.458)scale(.00273)"/><use xlink:href="#b" transform="rotate(182.346 18.388 .42)scale(.0037)"/><use xlink:href="#b" transform="rotate(150.828 18.372 5.417)scale(.0028)"/><use xlink:href="#b" transform="rotate(59.366 18.078 32.596)scale(.0029)"/><use xlink:href="#b" transform="rotate(-69.82 19.054 -25.38)scale(.00349)"/><use xlink:href="#b" transform="rotate(-38.085 19.646 -52.68)scale(.0026)"/><use xlink:href="#b" transform="rotate(162.167 18.943 3.685)scale(.00372)"/><use xlink:href="#b" transform="rotate(163.37 19.014 3.455)scale(.00298)"/><use xlink:href="#b" transform="rotate(72.786 18.888 26.189)scale(.00344)"/><use xlink:href="#b" transform="rotate(224.777 19.4 -7.068)scale(.00282)"/><use xlink:href="#b" transform="rotate(-58.927 19.869 -32.854)scale(.00327)"/><use xlink:href="#b" transform="rotate(187.683 19.626 -.478)scale(.00393)"/><use xlink:href="#b" transform="rotate(27.673 18.528 79.003)scale(.00284)"/><use xlink:href="#b" transform="rotate(211.792 19.871 -4.781)scale(.00308)"/><use xlink:href="#b" transform="rotate(3.908 12.79 571.827)scale(.00332)"/><use xlink:href="#b" transform="rotate(-38.776 20.757 -54.97)scale(.0033)"/><use xlink:href="#b" transform="rotate(97.965 19.886 17.903)scale(.00274)"/><use xlink:href="#b" transform="rotate(259.553 20.495 -15.76)scale(.00332)"/><use xlink:href="#b" transform="rotate(128.702 20.278 10.333)scale(.00313)"/><use xlink:href="#b" transform="rotate(180.329 20.488 .654)scale(.00274)"/><use xlink:href="#b" transform="rotate(60.321 20.12 35.505)scale(.00285)"/><use xlink:href="#b" transform="rotate(50.946 20.164 43.373)scale(.00302)"/><use xlink:href="#b" transform="rotate(248.995 21.056 -13.2)scale(.00398)"/><use xlink:href="#b" transform="rotate(185.07 21 -.182)scale(.00297)"/><use xlink:href="#b" transform="rotate(95.495 20.987 19.557)scale(.00381)"/><use xlink:href="#b" transform="rotate(194.605 21.36 -1.855)scale(.004)"/><use xlink:href="#b" transform="rotate(228.389 21.548 -8.652)scale(.0035)"/><use xlink:href="#b" transform="rotate(226.275 21.676 -8.247)scale(.0035)"/><use xlink:href="#b" transform="rotate(225.754 21.837 -8.137)scale(.00403)"/><use xlink:href="#b" transform="rotate(-73.177 22.17 -28.001)scale(.00378)"/><use xlink:href="#b" transform="rotate(-21.861 23.458 -111.002)scale(.00267)"/><use xlink:href="#b" transform="rotate(57.97 21.562 39.83)scale(.0029)"/><use xlink:href="#b" transform="rotate(-37.41 22.884 -63.43)scale(.00362)"/><use xlink:href="#b" transform="rotate(-10.025 25.602 -249.218)scale(.00272)"/><use xlink:href="#b" transform="rotate(123.314 22.361 12.639)scale(.00367)"/><use xlink:href="#b" transform="rotate(215.904 22.623 -6.48)scale(.00262)"/><use xlink:href="#b" transform="rotate(4.291 16.338 594.131)scale(.0034)"/><use xlink:href="#b" transform="rotate(200.504 22.844 -3.31)scale(.00308)"/><use xlink:href="#b" transform="rotate(72.04 22.639 31.68)scale(.00353)"/><use xlink:href="#b" transform="rotate(-57.457 23.517 -40.516)scale(.00326)"/><use xlink:href="#b" transform="rotate(243.667 23.32 -13.429)scale(.0027)"/><use xlink:href="#b" transform="rotate(-50.978 23.762 -47.052)scale(.00392)"/><use xlink:href="#b" transform="rotate(-17.895 25.24 -145.517)scale(.0027)"/><use xlink:href="#b" transform="rotate(65.825 23.118 36.44)scale(.00306)"/><use xlink:href="#b" transform="rotate(208.675 23.688 -5.23)scale(.00273)"/><use xlink:href="#b" transform="rotate(.967 -10.81 2767.883)scale(.0027)"/><use xlink:href="#b" transform="rotate(239.496 24.04 -12.558)scale(.00399)"/><use xlink:href="#b" transform="rotate(-57.562 24.43 -42.04)scale(.00402)"/><use xlink:href="#b" transform="rotate(-5.946 28.206 -455.621)scale(.0038)"/><use xlink:href="#b" transform="rotate(224.074 24.433 -8.884)scale(.00354)"/><use xlink:href="#b" transform="rotate(19.308 23.314 141.758)scale(.00386)"/><use xlink:href="#b" transform="rotate(72.24 24.229 33.85)scale(.0031)"/><use xlink:href="#b" transform="rotate(-52.836 25.259 -48.215)scale(.00265)"/><use xlink:href="#b" transform="rotate(67.815 24.321 37.01)scale(.00263)"/><use xlink:href="#b" transform="rotate(91.637 24.603 24.523)scale(.0028)"/><use xlink:href="#b" transform="rotate(40.57 24.586 67.212)scale(.00405)"/><use xlink:href="#b" transform="rotate(33.704 24.351 82.414)scale(.00324)"/><use xlink:href="#b" transform="rotate(5.598 20.68 508.98)scale(.00354)"/><use xlink:href="#b" transform="rotate(139.368 25.4 10.033)scale(.00374)"/><use xlink:href="#b" transform="rotate(202.467 25.654 -4.211)scale(.0036)"/><use xlink:href="#b" transform="rotate(37.276 25.035 75.673)scale(.00343)"/><use xlink:href="#b" transform="rotate(254.493 26.02 -18.631)scale(.00267)"/><use xlink:href="#b" transform="rotate(251.012 26.131 -17.431)scale(.00339)"/><use xlink:href="#b" transform="rotate(-41.06 26.799 -67.801)scale(.00278)"/><use xlink:href="#b" transform="rotate(253.484 26.363 -18.493)scale(.00301)"/><use xlink:href="#b" transform="rotate(-3.283 35.497 -901.764)scale(.00306)"/><use xlink:href="#b" transform="rotate(108.749 26.262 19.37)scale(.00343)"/><use xlink:href="#b" transform="rotate(-26.99 27.7 -108.155)scale(.00276)"/><use xlink:href="#b" transform="rotate(242.551 26.78 -15.228)scale(.0027)"/><use xlink:href="#b" transform="rotate(240.809 26.908 -14.668)scale(.00344)"/><use xlink:href="#b" transform="rotate(30.225 25.903 98.682)scale(.00309)"/><use xlink:href="#b" transform="rotate(94.609 26.876 25.277)scale(.0039)"/><use xlink:href="#b" transform="rotate(21.865 25.812 139.044)scale(.00315)"/><use xlink:href="#b" transform="rotate(-12.764 29.79 -239.367)scale(.00277)"/><use xlink:href="#b" transform="rotate(157.496 27.318 6.104)scale(.00316)"/><use xlink:href="#b" transform="rotate(102.367 27.347 22.53)scale(.00359)"/><use xlink:href="#b" transform="rotate(184.813 27.673 -.365)scale(.0036)"/><use xlink:href="#b" transform="rotate(-34.05 28.69 -88.653)scale(.0026)"/><use xlink:href="#b" transform="rotate(71.187 27.635 39.077)scale(.00383)"/><use xlink:href="#b" transform="rotate(217.455 28.063 -8.656)scale(.00263)"/><use xlink:href="#b" transform="rotate(66.549 27.747 42.922)scale(.0033)"/><use xlink:href="#b" transform="rotate(-58.69 28.716 -48.796)scale(.00265)"/><use xlink:href="#b" transform="rotate(26.694 27.574 118.26)scale(.00393)"/><use xlink:href="#b" transform="rotate(66.976 28.224 43.152)scale(.00378)"/><use xlink:href="#b" transform="rotate(-9.855 30.888 -325.764)scale(.00404)"/><use xlink:href="#b" transform="rotate(36.37 28.099 87.036)scale(.00346)"/><use xlink:href="#b" transform="rotate(-88.143 29.176 -28.741)scale(.00268)"/><use xlink:href="#b" transform="rotate(95.663 28.782 26.635)scale(.00314)"/><use xlink:href="#b" transform="rotate(117.731 28.928 18.065)scale(.00276)"/><use xlink:href="#b" transform="rotate(114.151 29.02 19.382)scale(.00276)"/><use xlink:href="#b" transform="rotate(194.18 29.344 -2.89)scale(.00271)"/><use xlink:href="#b" transform="rotate(127.563 29.257 15.007)scale(.00263)"/><use xlink:href="#b" transform="rotate(25.142 28.233 131.386)scale(.00277)"/><use xlink:href="#b" transform="rotate(96.339 29.369 26.89)scale(.00279)"/><use xlink:href="#b" transform="rotate(109.629 29.606 21.432)scale(.00333)"/><use xlink:href="#b" transform="rotate(130.693 29.777 14.267)scale(.0032)"/><use xlink:href="#b" transform="rotate(-76.59 30.327 -36.605)scale(.00399)"/><use xlink:href="#b" transform="rotate(43.33 29.673 75.566)scale(.0037)"/><use xlink:href="#b" transform="rotate(-93.903 30.553 -27.09)scale(.00375)"/><use xlink:href="#b" transform="rotate(81.528 30.292 35.58)scale(.00396)"/><use xlink:href="#b" transform="rotate(-38.955 31.36 -84.62)scale(.00287)"/><use xlink:href="#b" transform="rotate(124.1 30.507 16.783)scale(.00265)"/><use xlink:href="#b" transform="rotate(4.73 25.055 735.942)scale(.00339)"/><use xlink:href="#b" transform="rotate(-25.836 31.96 -132.156)scale(.00354)"/><use xlink:href="#b" transform="rotate(211.573 31.183 -7.866)scale(.00375)"/><use xlink:href="#b" transform="rotate(-62.65 31.618 -49.767)scale(.00362)"/><use xlink:href="#b" transform="rotate(-30.898 32.298 -111.172)scale(.00306)"/><use xlink:href="#b" transform="rotate(-8.69 34.518 -407.5)scale(.0035)"/><use xlink:href="#b" transform="rotate(58.151 31.224 56.804)scale(.00352)"/><use xlink:href="#b" transform="rotate(131.261 31.72 14.97)scale(.00397)"/><use xlink:href="#b" transform="rotate(204.533 31.912 -6.137)scale(.0027)"/><use xlink:href="#b" transform="rotate(205.496 32.027 -6.425)scale(.00283)"/><use xlink:href="#b" transform="rotate(80.116 31.714 38.4)scale(.0027)"/><use xlink:href="#b" transform="rotate(48.925 31.597 70.589)scale(.003)"/><use xlink:href="#b" transform="rotate(59.033 31.797 57.068)scale(.00286)"/><use xlink:href="#b" transform="rotate(176.752 32.438 1.667)scale(.00338)"/><use xlink:href="#b" transform="rotate(-19.792 34.113 -183.49)scale(.0029)"/><use xlink:href="#b" transform="rotate(188.668 32.708 -1.675)scale(.00345)"/><use xlink:href="#b" transform="rotate(-58.125 33.223 -57.388)scale(.00383)"/><use xlink:href="#b" transform="rotate(26.772 31.635 137.438)scale(.0026)"/><use xlink:href="#b" transform="rotate(192.583 33.08 -2.842)scale(.00328)"/><use xlink:href="#b" transform="rotate(-76.49 33.492 -40.79)scale(.00316)"/><use xlink:href="#b" transform="rotate(-39 34.048 -92.105)scale(.00288)"/><use xlink:href="#b" transform="rotate(160.531 33.4 6.432)scale(.00363)"/><use xlink:href="#b" transform="rotate(52.386 32.9 68.054)scale(.0027)"/><use xlink:href="#b" transform="rotate(126.251 33.538 17.585)scale(.0034)"/><use xlink:href="#b" transform="rotate(117.133 33.65 21.134)scale(.00345)"/><use xlink:href="#b" transform="rotate(131.359 33.844 15.897)scale(.00365)"/><use xlink:href="#b" transform="rotate(176.792 34.083 1.73)scale(.00374)"/><use xlink:href="#b" transform="rotate(-84.945 34.46 -36.164)scale(.00285)"/><use xlink:href="#b" transform="rotate(40.09 33.595 93.545)scale(.00318)"/><use xlink:href="#b" transform="rotate(123.253 34.37 19.135)scale(.0039)"/><use xlink:href="#b" transform="rotate(94.663 34.291 32.197)scale(.00295)"/><use xlink:href="#b" transform="rotate(214.59 34.802 -9.845)scale(.00395)"/><use xlink:href="#b" transform="rotate(120.134 34.688 20.552)scale(.00325)"/><use xlink:href="#b" transform="rotate(242.211 35.087 -20.12)scale(.0028)"/><use xlink:href="#b" transform="rotate(254.924 35.266 -25.724)scale(.00372)"/><use xlink:href="#b" transform="rotate(73.241 34.956 47.527)scale(.0037)"/><use xlink:href="#b" transform="rotate(15.236 33.186 261.84)scale(.0028)"/><use xlink:href="#b" transform="rotate(-83.791 35.73 -38.212)scale(.00372)"/><use xlink:href="#b" transform="rotate(195.763 35.644 -4.098)scale(.00346)"/><use xlink:href="#b" transform="rotate(112.545 35.647 24.334)scale(.00388)"/><use xlink:href="#b" transform="rotate(48.792 35.5 78.852)scale(.00393)"/><use xlink:href="#b" transform="rotate(56.262 35.64 67.296)scale(.0036)"/><use xlink:href="#b" transform="rotate(112.032 35.92 24.805)scale(.00272)"/><use xlink:href="#b" transform="rotate(-6.606 40.918 -620.231)scale(.00298)"/><use xlink:href="#b" transform="rotate(181.943 36.402 .16)scale(.00348)"/><use xlink:href="#b" transform="rotate(27.563 35.309 147.858)scale(.00279)"/><use xlink:href="#b" transform="rotate(115.768 36.389 23.433)scale(.00272)"/><use xlink:href="#b" transform="rotate(16.989 34.788 243.77)scale(.00281)"/><use xlink:href="#b" transform="rotate(259.507 37.039 -29.494)scale(.00342)"/><use xlink:href="#b" transform="rotate(53.02 36.624 73.943)scale(.00393)"/><use xlink:href="#b" transform="rotate(104.936 36.994 28.939)scale(.00378)"/><use xlink:href="#b" transform="rotate(186.836 37.287 -1.429)scale(.00349)"/><use xlink:href="#b" transform="rotate(17.252 35.59 244.335)scale(.003)"/><use xlink:href="#b" transform="rotate(-65.196 37.893 -57.219)scale(.00311)"/><use xlink:href="#b" transform="rotate(137.576 37.481 15.16)scale(.0029)"/><use xlink:href="#b" transform="rotate(156.877 37.745 8.422)scale(.0039)"/><use xlink:href="#b" transform="rotate(106.273 37.775 28.844)scale(.00383)"/><use xlink:href="#b" transform="rotate(139.543 37.904 14.585)scale(.00301)"/><use xlink:href="#b" transform="rotate(3.628 31.908 1189.92)scale(.0039)"/><use xlink:href="#b" transform="rotate(92.787 38.011 36.79)scale(.00301)"/><use xlink:href="#b" transform="rotate(129.235 38.302 18.769)scale(.0034)"/><use xlink:href="#b" transform="rotate(49.262 38.092 83.813)scale(.00366)"/><use xlink:href="#b" transform="rotate(161.957 38.648 6.832)scale(.00342)"/><use xlink:href="#b" transform="rotate(220.655 38.898 -13.452)scale(.00332)"/><use xlink:href="#b" transform="rotate(147.209 38.868 12.082)scale(.00337)"/><use xlink:href="#b" transform="rotate(228.973 39.156 -16.861)scale(.003)"/><use xlink:href="#b" transform="rotate(-6.51 44.048 -680.497)scale(.00286)"/><use xlink:href="#b" transform="rotate(232.547 39.39 -18.448)scale(.00298)"/><use xlink:href="#b" transform="rotate(38.955 38.587 110.902)scale(.00292)"/><use xlink:href="#b" transform="rotate(129.748 39.4 19.076)scale(.00335)"/><use xlink:href="#b" transform="rotate(117.401 39.393 24.547)scale(.0026)"/><use xlink:href="#b" transform="rotate(224.889 39.805 -15.53)scale(.00273)"/><use xlink:href="#b" transform="rotate(12.006 37.244 375.46)scale(.00298)"/><use xlink:href="#b" transform="rotate(-51.027 40.456 -81.989)scale(.00345)"/><use xlink:href="#b" transform="rotate(172.629 40.104 3.336)scale(.00368)"/><use xlink:href="#b" transform="rotate(139.726 40.128 15.336)scale(.00324)"/><use xlink:href="#b" transform="rotate(131.989 40.233 18.521)scale(.00325)"/><use xlink:href="#b" transform="rotate(204.957 40.483 -8.157)scale(.00268)"/><use xlink:href="#b" transform="rotate(-44.007 41.253 -98.678)scale(.0026)"/><use xlink:href="#b" transform="rotate(17.823 39.538 257.11)scale(.00404)"/><use xlink:href="#b" transform="rotate(98.746 40.667 35.408)scale(.00362)"/><use xlink:href="#b" transform="rotate(51.539 40.418 84.686)scale(.00314)"/><use xlink:href="#b" transform="rotate(185.621 41.152 -1.188)scale(.00396)"/><use xlink:href="#b" transform="rotate(-42.921 41.912 -103.095)scale(.00283)"/><use xlink:href="#b" transform="rotate(134.528 41.18 17.863)scale(.00279)"/><use xlink:href="#b" transform="rotate(112.048 41.214 28.363)scale(.0028)"/><use xlink:href="#b" transform="rotate(-89.164 41.803 -40.992)scale(.00303)"/><use xlink:href="#b" transform="rotate(118.013 41.583 25.539)scale(.00374)"/><use xlink:href="#b" transform="rotate(6.522 36.569 727.31)scale(.00265)"/><use xlink:href="#b" transform="rotate(152.398 41.79 10.9)scale(.0027)"/><use xlink:href="#b" transform="rotate(221.637 42.097 -15.076)scale(.00304)"/><use xlink:href="#b" transform="rotate(-58.622 42.556 -73.445)scale(.0036)"/><use xlink:href="#b" transform="rotate(-10.596 44.608 -450.01)scale(.00371)"/><use xlink:href="#b" transform="rotate(25.655 41.307 185.059)scale(.00323)"/><use xlink:href="#b" transform="rotate(237.396 42.702 -22.21)scale(.00402)"/><use xlink:href="#b" transform="rotate(224.86 42.802 -16.66)scale(.00352)"/><use xlink:href="#b" transform="rotate(111.422 42.562 29.619)scale(.00263)"/><use xlink:href="#b" transform="rotate(167.348 42.868 5.442)scale(.003)"/><use xlink:href="#b" transform="rotate(-25.575 44.1 -186.872)scale(.00337)"/><use xlink:href="#b" transform="rotate(254.164 43.37 -31.455)scale(.00396)"/><use xlink:href="#b" transform="rotate(-93.824 43.555 -39.273)scale(.00388)"/><use xlink:href="#b" transform="rotate(250.04 43.657 -29.32)scale(.0039)"/><use xlink:href="#b" transform="rotate(81.95 43.355 50.456)scale(.00344)"/><use xlink:href="#b" transform="rotate(157.567 43.705 9.346)scale(.00339)"/><use xlink:href="#b" transform="rotate(98.124 43.712 38.432)scale(.00363)"/><use xlink:href="#b" transform="rotate(-82.709 44.291 -48.766)scale(.00308)"/><use xlink:href="#b" transform="rotate(41.774 43.403 115.235)scale(.00301)"/><use xlink:href="#b" transform="rotate(-48.207 44.734 -97.007)scale(.00399)"/><use xlink:href="#b" transform="rotate(-83.527 44.671 -48.404)scale(.00373)"/><use xlink:href="#b" transform="rotate(-99.163 44.752 -36.766)scale(.00353)"/><use xlink:href="#b" transform="rotate(84.604 44.433 49.356)scale(.00348)"/><use xlink:href="#b" transform="rotate(139.673 44.793 17.083)scale(.00398)"/><use xlink:href="#b" transform="rotate(229.266 45.04 -19.712)scale(.00271)"/><use xlink:href="#b" transform="rotate(111.83 44.965 30.964)scale(.0038)"/><use xlink:href="#b" transform="rotate(-24.09 46.448 -209.1)scale(.00296)"/><use xlink:href="#b" transform="rotate(-99.47 45.525 -37.256)scale(.00324)"/><use xlink:href="#b" transform="rotate(248.395 45.604 -29.834)scale(.00317)"/><use xlink:href="#b" transform="rotate(-71.436 45.914 -62.06)scale(.00279)"/><use xlink:href="#b" transform="rotate(-41.46 46.363 -118.804)scale(.0029)"/><use xlink:href="#b" transform="rotate(243.81 45.933 -27.466)scale(.0033)"/><use xlink:href="#b" transform="rotate(35.05 44.971 144.745)scale(.00282)"/><use xlink:href="#b" transform="rotate(176.061 46.018 2.333)scale(.00345)"/><use xlink:href="#b" transform="rotate(-33.815 46.923 -149.538)scale(.00347)"/><use xlink:href="#b" transform="rotate(164.082 46.292 7.197)scale(.0038)"/><use xlink:href="#b" transform="rotate(-72.122 46.764 -62.424)scale(.003)"/><use xlink:href="#b" transform="rotate(167.27 46.45 5.851)scale(.00268)"/><use xlink:href="#b" transform="rotate(12.236 44.861 431.448)scale(.00393)"/><use xlink:href="#b" transform="rotate(-45.686 47.374 -109.258)scale(.00326)"/><use xlink:href="#b" transform="rotate(-98.117 47.112 -39.63)scale(.00265)"/><use xlink:href="#b" transform="rotate(-58.38 47.472 -82.66)scale(.00291)"/><use xlink:href="#b" transform="rotate(130.045 46.97 22.48)scale(.00298)"/><use xlink:href="#b" transform="rotate(-27.482 48.202 -190.537)scale(.00347)"/><use xlink:href="#b" transform="rotate(190.492 47.402 -3.544)scale(.00341)"/><use xlink:href="#b" transform="rotate(170.281 47.471 4.749)scale(.00322)"/><use xlink:href="#b" transform="rotate(225.142 47.71 -18.881)scale(.00302)"/><use xlink:href="#b" transform="rotate(23.993 46.72 223.245)scale(.0036)"/><use xlink:href="#b" transform="rotate(157.954 47.795 9.972)scale(.00298)"/><use xlink:href="#b" transform="rotate(181.286 48.028 .254)scale(.00372)"/><use xlink:href="#b" transform="rotate(80.75 47.909 56.837)scale(.00367)"/><use xlink:href="#b" transform="rotate(-93.893 48.503 -43.895)scale(.00353)"/><use xlink:href="#b" transform="rotate(226.904 48.474 -20.118)scale(.0026)"/><use xlink:href="#b" transform="rotate(-58.284 48.953 -85.462)scale(.00315)"/><use xlink:href="#b" transform="rotate(230.811 48.718 -22.173)scale(.00284)"/><use xlink:href="#b" transform="rotate(-87.52 48.993 -49.594)scale(.00386)"/><use xlink:href="#b" transform="rotate(51.429 48.52 101.307)scale(.0039)"/><use xlink:href="#b" transform="rotate(112.313 48.873 33.332)scale(.00337)"/><use xlink:href="#b" transform="rotate(58.8 48.616 87.2)scale(.00283)"/><use xlink:href="#b" transform="rotate(206.44 49.371 -10.65)scale(.00401)"/><use xlink:href="#b" transform="rotate(196.397 49.418 -6.34)scale(.00284)"/><use xlink:href="#b" transform="rotate(27.345 48.348 202.545)scale(.00288)"/><use xlink:href="#b" transform="rotate(-70.491 49.98 -68.832)scale(.00345)"/><use xlink:href="#b" transform="rotate(32.615 48.83 169.352)scale(.00302)"/><use xlink:href="#b" transform="rotate(109.121 49.698 35.933)scale(.00323)"/><use xlink:href="#b" transform="rotate(64.763 49.587 78.898)scale(.00315)"/><use xlink:href="#b" transform="rotate(62.288 49.854 82.958)scale(.00393)"/><use xlink:href="#b" transform="rotate(-65.56 50.664 -76.66)scale(.00304)"/><use xlink:href="#b" transform="rotate(59.932 49.84 87.379)scale(.00273)"/><use xlink:href="#b" transform="rotate(146.265 50.348 15.888)scale(.00264)"/><use xlink:href="#b" transform="rotate(259.959 50.798 -41.308)scale(.00317)"/><use xlink:href="#b" transform="rotate(122.758 50.646 28.21)scale(.0038)"/><use xlink:href="#b" transform="rotate(63.89 50.411 81.603)scale(.00303)"/><use xlink:href="#b" transform="rotate(51.26 50.49 106.068)scale(.0034)"/><use xlink:href="#b" transform="rotate(49.59 50.44 110.427)scale(.00277)"/><use xlink:href="#b" transform="rotate(-3.06 58.947 -1898.728)scale(.00382)"/><use xlink:href="#b" transform="rotate(112.105 51.093 34.993)scale(.0026)"/><use xlink:href="#b" transform="rotate(38.762 50.743 145.755)scale(.00325)"/><use xlink:href="#b" transform="rotate(190.242 51.57 -3.86)scale(.0029)"/><use xlink:href="#b" transform="rotate(40.187 51.132 140.809)scale(.00367)"/><use xlink:href="#b" transform="rotate(-58.51 52.248 -90.906)scale(.00372)"/><use xlink:href="#b" transform="rotate(-99.841 52.184 -42.575)scale(.00351)"/><use xlink:href="#b" transform="rotate(5.32 47.769 1112.105)scale(.00384)"/><use xlink:href="#b" transform="rotate(51.276 51.665 108.702)scale(.00299)"/><use xlink:href="#b" transform="rotate(219.197 52.415 -17.793)scale(.00265)"/><use xlink:href="#b" transform="rotate(14.494 50.306 409.94)scale(.00296)"/><use xlink:href="#b" transform="rotate(193.844 52.61 -5.576)scale(.00328)"/><use xlink:href="#b" transform="rotate(5.391 47.753 1110.497)scale(.00345)"/><use xlink:href="#b" transform="rotate(187.413 52.878 -2.615)scale(.0036)"/><use xlink:href="#b" transform="rotate(121.349 52.819 30.254)scale(.00316)"/><use xlink:href="#b" transform="rotate(228.165 53.201 -22.782)scale(.00324)"/><use xlink:href="#b" transform="rotate(48.134 52.495 118.926)scale(.00263)"/><use xlink:href="#b" transform="rotate(133.397 53.236 23.536)scale(.0035)"/><use xlink:href="#b" transform="rotate(158.643 53.408 10.75)scale(.00333)"/><use xlink:href="#b" transform="rotate(-35.586 54.325 -164.766)scale(.00341)"/><use xlink:href="#b" transform="rotate(15.594 51.823 389.75)scale(.00315)"/><use xlink:href="#b" transform="rotate(227.78 53.903 -22.953)scale(.00265)"/><use xlink:href="#b" transform="rotate(10.205 51.194 599.7)scale(.00331)"/><use xlink:href="#b" transform="rotate(90.603 53.82 53.802)scale(.00334)"/><use xlink:href="#b" transform="rotate(197.908 54.265 -7.663)scale(.00387)"/><use xlink:href="#b" transform="rotate(213.68 54.431 -15.517)scale(.0037)"/><use xlink:href="#b" transform="rotate(255.036 54.674 -40.67)scale(.00378)"/><use xlink:href="#b" transform="rotate(160.278 54.508 10.126)scale(.00265)"/><use xlink:href="#b" transform="rotate(-61.031 55.114 -91.245)scale(.00375)"/><use xlink:href="#b" transform="rotate(191.119 54.842 -4.585)scale(.00277)"/><use xlink:href="#b" transform="rotate(176.068 54.96 2.628)scale(.00333)"/><use xlink:href="#b" transform="rotate(150.083 55.077 15.384)scale(.00376)"/><use xlink:href="#b" transform="rotate(246.916 55.395 -35.46)scale(.00322)"/><use xlink:href="#b" transform="rotate(8.807 52.357 713.73)scale(.00347)"/><use xlink:href="#b" transform="rotate(137.874 55.426 21.967)scale(.00355)"/><use xlink:href="#b" transform="rotate(207.311 55.732 -12.59)scale(.00398)"/><use xlink:href="#b" transform="rotate(78.421 55.48 68.569)scale(.00331)"/><use xlink:href="#b" transform="rotate(53.888 55.376 109.857)scale(.0031)"/><use xlink:href="#b" transform="rotate(129.607 55.822 26.864)scale(.00261)"/><use xlink:href="#b" transform="rotate(-23.252 57.321 -269.847)scale(.00328)"/><use xlink:href="#b" transform="rotate(-10.248 58.83 -621.412)scale(.0035)"/><use xlink:href="#b" transform="rotate(5.47 51.213 1171.784)scale(.00328)"/><use xlink:href="#b" transform="rotate(225.436 56.583 -22.759)scale(.00285)"/><use xlink:href="#b" transform="rotate(35.525 55.624 176.133)scale(.00262)"/><use xlink:href="#b" transform="rotate(70.94 56.401 79.723)scale(.00346)"/><use xlink:href="#b" transform="rotate(165.54 56.858 7.94)scale(.00374)"/><use xlink:href="#b" transform="rotate(223.01 57.107 -21.486)scale(.00368)"/><use xlink:href="#b" transform="rotate(170.919 57.056 5.213)scale(.00272)"/><use xlink:href="#b" transform="rotate(114.662 56.989 37.137)scale(.00266)"/><use xlink:href="#b" transform="rotate(-88.321 57.593 -57.727)scale(.00405)"/><use xlink:href="#b" transform="rotate(221.717 57.555 -21.024)scale(.00283)"/><use xlink:href="#b" transform="rotate(-64.105 57.986 -90.504)scale(.00337)"/><use xlink:href="#b" transform="rotate(66.64 57.238 87.882)scale(.00274)"/></g><defs><filter id="a" width="115.351" height="28.453" x=".322" y=".271" color-interpolation-filters="sRGB" filterUnits="userSpaceOnUse"><feFlood flood-opacity="0" result="BackgroundImageFix"/><feBlend in="SourceGraphic" in2="BackgroundImageFix" result="shape"/><feTurbulence baseFrequency="0.38759690523147583 0.38759690523147583" numOctaves="3" result="noise" seed="9800" stitchTiles="stitch" type="fractalNoise"/><feColorMatrix in="noise" result="alphaNoise" type="luminanceToAlpha"/><feComponentTransfer in="alphaNoise" result="coloredNoise1"><feFuncA tableValues="0 0 0 0 0 0 0 0 0 0 0 0 0 0 1 1 1 1 1 1 1 1 1 1 1 1 1 1 1 1 1 1 1 1 1 1 0 0 0 0 0 0 0 0 0 0 0 0 0 0 0 0 0 0 0 0 0 0 0 0 0 0 0 0 0 0 0 0 0 0 0 0 0 0 0 0 0 0 0 0 0 0 0 0 0 0 0 0 0 0 0 0 0 0 0 0 0 0 0 0" type="discrete"/></feComponentTransfer><feComposite in="coloredNoise1" in2="shape" operator="in" result="noise1Clipped"/><feComponentTransfer in="alphaNoise" result="coloredNoise2"><feFuncA tableValues="0 0 0 0 0 0 0 0 0 0 0 0 0 0 0 0 0 0 0 0 0 0 0 0 0 0 0 0 0 0 0 0 0 0 0 0 0 0 0 0 0 0 0 0 0 0 0 0 0 0 0 0 0 0 0 0 0 0 0 0 0 0 0 0 1 1 1 1 1 1 1 1 1 1 1 1 1 1 1 1 1 1 1 1 1 1 0 0 0 0 0 0 0 0 0 0 0 0 0 0" type="discrete"/></feComponentTransfer><feComposite in="coloredNoise2" in2="shape" operator="in" result="noise2Clipped"/><feFlood flood-color="rgba(255, 255, 255, 0.75)" result="color1Flood"/><feComposite in="color1Flood" in2="noise1Clipped" operator="in" result="color1"/><feFlood flood-color="rgba(255, 255, 255, 0.25)" result="color2Flood"/><feComposite in="color2Flood" in2="noise2Clipped" operator="in" result="color2"/><feMerge result="effect1_noise_7_178"><feMergeNode in="shape"/><feMergeNode in="color1"/><feMergeNode in="color2"/></feMerge></filter><path id="b" fill="#538fdf" d="M103.731 283.547c6.621-2.184 9.076-2.199 12.39-.079 13.988 8.95 8.729 25.25-8.149 25.259-17.595.01-20.911-19.681-4.241-25.18m36.106-248.132c1.1-.236 2.675-.301 3.5-.144s3.179.568 5.23.914c7.235 1.22 11.612 10.512 8.167 17.34-3.81 7.552-12.019 14.056-15.875 12.577-4.987-1.914-3.234 3.777 3.207 10.413 4.24 4.37 6.271 4.754 6.271 1.192 0-1.05 1.285-3.385 2.856-5.19 1.63-1.876 3.404-5.597 4.131-8.667 1.601-6.76 3.464-8.621 10.045-10.033 9.951-2.134 18.212 3.11 16.383 10.398-.459 1.827.149 3.45 2.338 6.243 10.769 13.74 7.785 33.815-5.494 36.96-3.547.84-3.764 1.114-3.823 4.852-.034 2.178-.408 4.717-.83 5.642-.688 1.505.003 1.652 6.563 1.398 7.909-.307 10.168.395 13.447 4.177 3.101 3.577 5.645 2.627 6.656-2.485.894-4.519 6.487-10.271 9.987-10.271 2.245 0 3.338-2.575 1.853-4.364-8.349-10.061 7.785-32.704 21.156-29.688 5.967 1.346 10.697 6.951 10.762 12.752.017 1.54 1.138 5.05 2.491 7.8 6.504 13.222-5.554 28.994-16.081 21.032-2.853-2.158-2.94-2.037-2.94 4.078 0 6.589-3.905 10.951-10.788 12.052-2.981.477-4.116 1.277-5.274 3.723-.811 1.713-2.225 4.299-3.145 5.747-1.646 2.593-1.61 2.702 2.517 7.391 2.304 2.617 4.19 5.301 4.19 5.964s.737 2.683 1.637 4.488c3.174 6.361 2.099 20.025-1.574 20.025-.348 0-1.43 1.35-2.405 3s-2.422 3-3.216 3c-2.184 0-1.735 2.086 1.084 5.029 3.521 3.675 4.562 12.107 1.865 15.098-5.225 5.791-11.678 10.152-16.664 11.264-4.12.919-5.234 1.583-5.26 3.137-.135 8.13-4.562 13.128-13.122 14.818-6.837 1.35-7.61 3.233-2.105 5.126 12.781 4.394 15.315 15.49 4.865 21.303-5.921 3.293-10.016 3.252-14.927-.152-3.621-2.509-4.354-2.668-7.836-1.701-5.942 1.65-12.316 1.281-18.342-1.06-5.463-2.123-10.613-3.525-16.648-4.532-5.974-.997-9.538-6.118-10.097-14.51-.408-6.134-.921-7.806-3.167-10.32-1.474-1.65-3.439-4.687-4.367-6.75-1.638-3.637-1.847-3.75-6.894-3.75-6.37 0-11.084-2.809-13.947-8.311-3.17-6.093-7.274-5.084-7.37 1.811-.037 2.75-.424 6.586-.859 8.524-.753 3.358-.637 3.569 2.449 4.5 10.063 3.035 9.961 20.691-.149 25.679-24.298 11.986-54.047-12.461-32.413-26.636 1.681-1.102 2.306-2.804 2.815-7.672.36-3.441 1.44-7.364 2.4-8.716a375 375 0 0 1 2.719-3.783c.693-.943.207-2.124-1.687-4.11-3.495-3.662-4.81-7.36-4.124-11.589.33-2.036.105-3.723-.552-4.129-.61-.377-1.109-1.954-1.11-3.505 0-1.55-.735-3.428-1.633-4.173-2.703-2.245-12.366-15.765-12.366-17.304 0-.788-1.574-3.495-3.498-6.015-1.924-2.521-3.44-4.918-3.366-5.327.973-5.497-2.826-8.55-7-5.627-2.218 1.554-9.25 1.428-13.607-.244-10.102-3.877-8.653-28.978 1.702-29.484 6.291-.307 14.769 2.931 14.769 5.641 0 1.757 2.773 4.47 4.57 4.47.786 0 1.43-.69 1.43-1.533 0-13.384 20.848-28.89 40.5-30.121 13.093-.822 18.425.42 27.352 6.37 4.261 2.84 11.148-2.563 11.148-8.746 0-2.041.835-4.23 2.146-5.626 2.251-2.396 1.321-5.344-1.687-5.344-2.393 0-5.24-6.189-4.719-10.26.969-7.587 13.556-11.704 19.212-6.285 2.35 2.252 3.419 2.622 5.956 2.065 3.809-.837 3.883-1.777.342-4.356-8.227-5.993-1.392-22.986 10.25-25.48m87.5 168.014c11.757-3.775 25.385 3.862 25.385 14.224 0 10.842-20.801 21.787-28.795 15.153-2.262-1.877-3.524-.443-2.915 3.312 1.085 6.684-7.501 18.613-13.396 18.613-13.37 0-18.816-8.499-13.159-20.533 3.745-7.967 9.996-10.414 18.781-7.351 4.298 1.498 4.642.84 2.683-5.15-2.869-8.772.969-14.914 11.416-18.268M179.7 192.695c-.651-.651-1.649-.282-2.926 1.084-8.404 8.989-11.711 9.934-20.268 5.792-6.76-3.273-10.056 1.888-4.545 7.118 2.248 2.133 2.521 3.055 2.077 6.993-.498 4.416-.374 4.662 4.644 9.285 5.154 4.749 5.155 4.749 5.669-.1.636-5.995 5.171-12.898 9.726-14.801 3.017-1.261 3.26-1.707 3.26-6.02 0-2.954.613-5.335 1.676-6.51 1.104-1.221 1.339-2.189.687-2.841m-165.965-8.998c7.495-3.335 12.2-2.472 18.37 3.369 8.46 8.008 4.924 18.546-7.474 22.277-15.224 4.582-25.336-19.219-10.896-25.646m239.221-35.446c9.173-2.519 14.854-1.048 18.027 4.67 6.414 11.557-13.631 27.998-23.804 19.524-10.086-8.401-7.163-20.64 5.777-24.194m-77.134 14.458c-.98-1.586-3.34-1.12-4.405.87-1.134 2.12-.033 7.334 1.669 7.902 1.28.424 3.675-7.252 2.736-8.772m-25.67-51.228c.34-2.955-.618-3.304-4.639-1.691-3.405 1.365-2.478 4.441 1.338 4.441 2.514 0 3.035-.435 3.301-2.75m6.685-12.75c-.825 0-1.5.675-1.5 1.5s.675 1.5 1.5 1.5 1.5-.675 1.5-1.5-.675-1.5-1.5-1.5m-25.5-13.093c0-2.838-1.846-4.238-3.908-2.964-.928.573-.744 1.616.756 4.286 1.088 1.94 2.131 4.5 2.315 5.689s.787 2.256 1.337 2.372c1.413.296 1.892-4.299.585-5.606-.597-.597-1.085-2.296-1.085-3.777m-51.5-48.717c10.045-5.672 23.056 9.928 15.821 18.971-3.456 4.319-4.454 8.089-3.788 14.308.662 6.184.612 6.364-2.833 10.163C76.04 94.7 55.153 78.5 64.824 61.583c1.515-2.65 2.493-5.938 2.5-8.408.016-5.47 5.092-12.063 12.513-16.254m41.059 41.81c-.243 0-.719.45-1.059 1s-.142 1 .44 1 1.06-.45 1.06-1-.198-1-.441-1m84.589-39.241c14.146-2.448 22.113 11.425 15.112 26.318-7.204 15.322-30.258 11.978-30.506-4.426-.111-7.306 9.418-20.858 15.394-21.892M51.837 14.554c12.608-8.69 23.843 4.813 16.787 20.177-6.239 13.586-27.287 9.044-27.287-5.889 0-2.809 6.316-11.404 10.5-14.288M108.212 2.17c13.218-8.981 33.334 11.922 25.025 26.004-1.153 1.956-2.418 3.556-2.81 3.557s-1.614.84-2.714 1.865c-8.257 7.691-19.927 2.18-24.346-11.497-3.215-9.953-1.904-15.343 4.845-19.929" data-figma-scatter="f0.28_w0_aj180_sj0.25_r0_s0_sw1" data-figma-scatter-ref="stroke0_7_178_ref"/></defs></svg>