<svg width="58" height="58" viewBox="0 0 58 58" fill="none" xmlns="http://www.w3.org/2000/svg" xmlns:xlink="http://www.w3.org/1999/xlink">
<g filter="url(#filter0_n_8_211)">
<path d="M57 1C57 8.35402 55.5515 15.636 52.7373 22.4303C49.923 29.2245 45.7981 35.3979 40.598 40.598C35.3979 45.7981 29.2245 49.923 22.4303 52.7373C15.636 55.5515 8.35402 57 1 57L1 1H57Z" fill="#538FDF"/>
<use xlink:href="#stroke0_8_211" transform="translate(57.034 1.76466) scale(0.00371918) rotate(-141.14)"/>
<use xlink:href="#stroke0_8_211" transform="translate(57.1015 0.49007) scale(0.00392519) rotate(48.6755)"/>
<use xlink:href="#stroke0_8_211" transform="translate(57.4295 1.06759) scale(0.00319382) rotate(82.5351)"/>
<use xlink:href="#stroke0_8_211" transform="translate(57.0937 2.38145) scale(0.00289207) rotate(-148.199)"/>
<use xlink:href="#stroke0_8_211" transform="translate(56.6684 2.48548) scale(0.00278742) rotate(-104.39)"/>
<use xlink:href="#stroke0_8_211" transform="translate(57.1903 2.72687) scale(0.00266041) rotate(-160.425)"/>
<use xlink:href="#stroke0_8_211" transform="translate(57.7479 2.32384) scale(0.00378885) rotate(121.025)"/>
<use xlink:href="#stroke0_8_211" transform="translate(57.3403 2.28852) scale(0.00272273) rotate(82.2484)"/>
<use xlink:href="#stroke0_8_211" transform="translate(56.4115 2.82992) scale(0.0027352) rotate(-39.3564)"/>
<use xlink:href="#stroke0_8_211" transform="translate(57.0697 2.51042) scale(0.00312228) rotate(51.3295)"/>
<use xlink:href="#stroke0_8_211" transform="translate(56.7454 4.11276) scale(0.00360347) rotate(-122.699)"/>
<use xlink:href="#stroke0_8_211" transform="translate(56.1723 3.36794) scale(0.00402444) rotate(-25.7194)"/>
<use xlink:href="#stroke0_8_211" transform="translate(56.7646 3.21323) scale(0.00384699) rotate(30.0771)"/>
<use xlink:href="#stroke0_8_211" transform="translate(57.6427 4.50395) scale(0.00375273) rotate(148.361)"/>
<use xlink:href="#stroke0_8_211" transform="translate(57.1899 3.80039) scale(0.00404508) rotate(62.8332)"/>
<use xlink:href="#stroke0_8_211" transform="translate(57.3893 5.08342) scale(0.00280229) rotate(156.838)"/>
<use xlink:href="#stroke0_8_211" transform="translate(57.5925 5.37851) scale(0.00386939) rotate(152.697)"/>
<use xlink:href="#stroke0_8_211" transform="translate(56.3033 5.9423) scale(0.00374347) rotate(-95.6152)"/>
<use xlink:href="#stroke0_8_211" transform="translate(57.1538 5.15017) scale(0.00287306) rotate(77.1599)"/>
<use xlink:href="#stroke0_8_211" transform="translate(56.826 5.13646) scale(0.00359679) rotate(44.3948)"/>
<use xlink:href="#stroke0_8_211" transform="translate(56.4388 6.8677) scale(0.00379677) rotate(-114.152)"/>
<use xlink:href="#stroke0_8_211" transform="translate(57.376 6.03073) scale(0.00369678) rotate(98.8042)"/>
<use xlink:href="#stroke0_8_211" transform="translate(56.477 6.19206) scale(0.0026328) rotate(15.8009)"/>
<use xlink:href="#stroke0_8_211" transform="translate(56.7194 7.7354) scale(0.00392122) rotate(-141.023)"/>
<use xlink:href="#stroke0_8_211" transform="translate(55.9866 6.91049) scale(0.00356125) rotate(-24.2519)"/>
<use xlink:href="#stroke0_8_211" transform="translate(57.1647 7.90554) scale(0.00335769) rotate(169.985)"/>
<use xlink:href="#stroke0_8_211" transform="translate(56.8228 7.03528) scale(0.00358997) rotate(59.5056)"/>
<use xlink:href="#stroke0_8_211" transform="translate(57.2242 8.40908) scale(0.00375649) rotate(162.017)"/>
<use xlink:href="#stroke0_8_211" transform="translate(56.778 8.72942) scale(0.00260244) rotate(-166.427)"/>
<use xlink:href="#stroke0_8_211" transform="translate(56.3922 7.89975) scale(0.00277117) rotate(30.4136)"/>
<use xlink:href="#stroke0_8_211" transform="translate(57.1787 8.42377) scale(0.00371563) rotate(109.862)"/>
<use xlink:href="#stroke0_8_211" transform="translate(56.9707 8.48651) scale(0.00355886) rotate(89.1439)"/>
<use xlink:href="#stroke0_8_211" transform="translate(56.541 8.67094) scale(0.00274729) rotate(56.4839)"/>
<use xlink:href="#stroke0_8_211" transform="translate(55.8167 9.41576) scale(0.00265585) rotate(-48.0972)"/>
<use xlink:href="#stroke0_8_211" transform="translate(55.908 10.0326) scale(0.00284643) rotate(-92.311)"/>
<use xlink:href="#stroke0_8_211" transform="translate(55.6652 9.82068) scale(0.00306933) rotate(-45.893)"/>
<use xlink:href="#stroke0_8_211" transform="translate(56.7051 9.54547) scale(0.00344992) rotate(80.6011)"/>
<use xlink:href="#stroke0_8_211" transform="translate(56.2053 10.9499) scale(0.00297691) rotate(-137.591)"/>
<use xlink:href="#stroke0_8_211" transform="translate(55.5846 10.2509) scale(0.00326952) rotate(-20.0931)"/>
<use xlink:href="#stroke0_8_211" transform="translate(55.6187 10.6157) scale(0.00266323) rotate(-29.5367)"/>
<use xlink:href="#stroke0_8_211" transform="translate(56.3697 10.5291) scale(0.00260035) rotate(71.5055)"/>
<use xlink:href="#stroke0_8_211" transform="translate(55.6882 10.7193) scale(0.00296792) rotate(3.56365)"/>
<use xlink:href="#stroke0_8_211" transform="translate(56.0362 10.6392) scale(0.00400364) rotate(42.9536)"/>
<use xlink:href="#stroke0_8_211" transform="translate(55.4378 11.4062) scale(0.00298605) rotate(-17.404)"/>
<use xlink:href="#stroke0_8_211" transform="translate(56.7149 12.109) scale(0.00394732) rotate(140.282)"/>
<use xlink:href="#stroke0_8_211" transform="translate(55.0723 12.4368) scale(0.00387368) rotate(-60.2507)"/>
<use xlink:href="#stroke0_8_211" transform="translate(56.2407 12.823) scale(0.00259523) rotate(166.341)"/>
<use xlink:href="#stroke0_8_211" transform="translate(56.5319 12.6242) scale(0.00384712) rotate(121.648)"/>
<use xlink:href="#stroke0_8_211" transform="translate(56.3257 12.9723) scale(0.00306847) rotate(127.437)"/>
<use xlink:href="#stroke0_8_211" transform="translate(54.8092 13.2514) scale(0.00402478) rotate(-46.6267)"/>
<use xlink:href="#stroke0_8_211" transform="translate(54.9745 14.0139) scale(0.00363415) rotate(-85.5289)"/>
<use xlink:href="#stroke0_8_211" transform="translate(55.8919 14.489) scale(0.00367841) rotate(-168.969)"/>
<use xlink:href="#stroke0_8_211" transform="translate(55.9501 14.7048) scale(0.00378739) rotate(-179.167)"/>
<use xlink:href="#stroke0_8_211" transform="translate(54.6871 14.1105) scale(0.00360838) rotate(-26.7705)"/>
<use xlink:href="#stroke0_8_211" transform="translate(56.043 15.0126) scale(0.00395299) rotate(156.607)"/>
<use xlink:href="#stroke0_8_211" transform="translate(55.1941 14.3301) scale(0.00286665) rotate(36.6606)"/>
<use xlink:href="#stroke0_8_211" transform="translate(55.7775 14.6193) scale(0.00395603) rotate(88.8637)"/>
<use xlink:href="#stroke0_8_211" transform="translate(54.9186 15.9371) scale(0.0027056) rotate(-118.176)"/>
<use xlink:href="#stroke0_8_211" transform="translate(55.4068 16.0224) scale(0.00261353) rotate(-178.706)"/>
<use xlink:href="#stroke0_8_211" transform="translate(54.503 15.2329) scale(0.0038306) rotate(2.7329)"/>
<use xlink:href="#stroke0_8_211" transform="translate(55.5548 16.6166) scale(0.00389307) rotate(168.622)"/>
<use xlink:href="#stroke0_8_211" transform="translate(55.3842 15.9636) scale(0.00338074) rotate(92.6947)"/>
<use xlink:href="#stroke0_8_211" transform="translate(54.1762 16.4211) scale(0.00308129) rotate(-28.8475)"/>
<use xlink:href="#stroke0_8_211" transform="translate(54.0405 16.7694) scale(0.00326377) rotate(-40.2054)"/>
<use xlink:href="#stroke0_8_211" transform="translate(53.8443 17.2406) scale(0.00384584) rotate(-56.8415)"/>
<use xlink:href="#stroke0_8_211" transform="translate(53.8325 17.415) scale(0.00347144) rotate(-50.2836)"/>
<use xlink:href="#stroke0_8_211" transform="translate(53.8911 17.9703) scale(0.00324659) rotate(-78.3568)"/>
<use xlink:href="#stroke0_8_211" transform="translate(55.0896 17.9418) scale(0.00338619) rotate(136.504)"/>
<use xlink:href="#stroke0_8_211" transform="translate(54.7687 17.7347) scale(0.00281266) rotate(91.6457)"/>
<use xlink:href="#stroke0_8_211" transform="translate(54.907 17.9833) scale(0.00363773) rotate(103.054)"/>
<use xlink:href="#stroke0_8_211" transform="translate(53.6492 18.0553) scale(0.00364249) rotate(-1.71645)"/>
<use xlink:href="#stroke0_8_211" transform="translate(54.239 19.6911) scale(0.00402804) rotate(-150.427)"/>
<use xlink:href="#stroke0_8_211" transform="translate(53.8362 18.5829) scale(0.00272562) rotate(25.8954)"/>
<use xlink:href="#stroke0_8_211" transform="translate(54.2362 18.817) scale(0.00292587) rotate(73.5108)"/>
<use xlink:href="#stroke0_8_211" transform="translate(54.3815 19.5524) scale(0.00260133) rotate(134.235)"/>
<use xlink:href="#stroke0_8_211" transform="translate(53.9463 19.1864) scale(0.00270553) rotate(58.8642)"/>
<use xlink:href="#stroke0_8_211" transform="translate(53.2221 20.4742) scale(0.00348352) rotate(-96.7955)"/>
<use xlink:href="#stroke0_8_211" transform="translate(54.1521 20.0708) scale(0.00261594) rotate(122.053)"/>
<use xlink:href="#stroke0_8_211" transform="translate(53.9532 20.7173) scale(0.00265345) rotate(174.08)"/>
<use xlink:href="#stroke0_8_211" transform="translate(53.37 21.3022) scale(0.00358905) rotate(-130.888)"/>
<use xlink:href="#stroke0_8_211" transform="translate(54.0143 20.951) scale(0.00316277) rotate(143.815)"/>
<use xlink:href="#stroke0_8_211" transform="translate(53.8786 20.9072) scale(0.00288695) rotate(119.807)"/>
<use xlink:href="#stroke0_8_211" transform="translate(53.1493 21.7691) scale(0.00266998) rotate(-131.156)"/>
<use xlink:href="#stroke0_8_211" transform="translate(52.7411 20.883) scale(0.00330905) rotate(5.77794)"/>
<use xlink:href="#stroke0_8_211" transform="translate(52.4857 21.5986) scale(0.00276766) rotate(-43.2099)"/>
<use xlink:href="#stroke0_8_211" transform="translate(53.062 22.3821) scale(0.00264847) rotate(-147.639)"/>
<use xlink:href="#stroke0_8_211" transform="translate(53.3876 21.749) scale(0.00274781) rotate(101.082)"/>
<use xlink:href="#stroke0_8_211" transform="translate(52.3879 21.824) scale(0.00288664) rotate(-5.03758)"/>
<use xlink:href="#stroke0_8_211" transform="translate(52.0979 21.9732) scale(0.00387369) rotate(-9.9021)"/>
<use xlink:href="#stroke0_8_211" transform="translate(52.7248 21.9742) scale(0.00376503) rotate(50.0901)"/>
<use xlink:href="#stroke0_8_211" transform="translate(53.1365 23.0942) scale(0.00311462) rotate(141.524)"/>
<use xlink:href="#stroke0_8_211" transform="translate(52.4183 23.7261) scale(0.00263849) rotate(-138.528)"/>
<use xlink:href="#stroke0_8_211" transform="translate(52.9088 23.0854) scale(0.00316515) rotate(103.922)"/>
<use xlink:href="#stroke0_8_211" transform="translate(52.4732 24.1076) scale(0.00274719) rotate(-162.904)"/>
<use xlink:href="#stroke0_8_211" transform="translate(51.8825 23.191) scale(0.00323122) rotate(17.8577)"/>
<use xlink:href="#stroke0_8_211" transform="translate(51.2499 23.7975) scale(0.00401141) rotate(-30.6027)"/>
<use xlink:href="#stroke0_8_211" transform="translate(51.4132 24.4677) scale(0.00266427) rotate(-68.1565)"/>
<use xlink:href="#stroke0_8_211" transform="translate(51.2747 24.8812) scale(0.0033156) rotate(-83.4509)"/>
<use xlink:href="#stroke0_8_211" transform="translate(51.9664 25.4305) scale(0.00360138) rotate(-157.723)"/>
<use xlink:href="#stroke0_8_211" transform="translate(51.985 24.4324) scale(0.00314494) rotate(76.3736)"/>
<use xlink:href="#stroke0_8_211" transform="translate(52.0269 25.8164) scale(0.00392366) rotate(-179.492)"/>
<use xlink:href="#stroke0_8_211" transform="translate(50.7324 25.3967) scale(0.00316128) rotate(-43.9656)"/>
<use xlink:href="#stroke0_8_211" transform="translate(51.9713 25.5865) scale(0.00343116) rotate(124.197)"/>
<use xlink:href="#stroke0_8_211" transform="translate(50.3756 25.9655) scale(0.00376533) rotate(-51.8881)"/>
<use xlink:href="#stroke0_8_211" transform="translate(51.5705 25.9696) scale(0.00271561) rotate(113.446)"/>
<use xlink:href="#stroke0_8_211" transform="translate(50.3119 26.3169) scale(0.00305241) rotate(-46.6605)"/>
<use xlink:href="#stroke0_8_211" transform="translate(51.469 27.0499) scale(0.00391245) rotate(167.582)"/>
<use xlink:href="#stroke0_8_211" transform="translate(49.9851 26.683) scale(0.00349237) rotate(-37.1766)"/>
<use xlink:href="#stroke0_8_211" transform="translate(50.0059 27.5323) scale(0.00354741) rotate(-88.5866)"/>
<use xlink:href="#stroke0_8_211" transform="translate(50.3204 27.858) scale(0.00288069) rotate(-125.891)"/>
<use xlink:href="#stroke0_8_211" transform="translate(50.6774 26.8406) scale(0.00360119) rotate(68.9784)"/>
<use xlink:href="#stroke0_8_211" transform="translate(49.7615 28.0367) scale(0.00273418) rotate(-84.0902)"/>
<use xlink:href="#stroke0_8_211" transform="translate(49.633 28.4774) scale(0.00354825) rotate(-98.3224)"/>
<use xlink:href="#stroke0_8_211" transform="translate(50.5873 27.9653) scale(0.00305465) rotate(115.213)"/>
<use xlink:href="#stroke0_8_211" transform="translate(49.4182 28.752) scale(0.00297295) rotate(-90.7534)"/>
<use xlink:href="#stroke0_8_211" transform="translate(50.0757 28.0489) scale(0.00279768) rotate(74.1779)"/>
<use xlink:href="#stroke0_8_211" transform="translate(50.4076 28.6122) scale(0.00378985) rotate(121.123)"/>
<use xlink:href="#stroke0_8_211" transform="translate(49.665 29.4899) scale(0.00265177) rotate(-154.222)"/>
<use xlink:href="#stroke0_8_211" transform="translate(50.1007 29.1135) scale(0.00340229) rotate(127.265)"/>
<use xlink:href="#stroke0_8_211" transform="translate(48.7425 28.9876) scale(0.00321929) rotate(-12.0811)"/>
<use xlink:href="#stroke0_8_211" transform="translate(49.6302 30.2242) scale(0.0038133) rotate(-177.387)"/>
<use xlink:href="#stroke0_8_211" transform="translate(48.498 29.5823) scale(0.00275899) rotate(-23.0058)"/>
<use xlink:href="#stroke0_8_211" transform="translate(48.2689 30.2188) scale(0.00318149) rotate(-66.1393)"/>
<use xlink:href="#stroke0_8_211" transform="translate(49.3625 30.426) scale(0.00304234) rotate(150.225)"/>
<use xlink:href="#stroke0_8_211" transform="translate(47.9279 30.4416) scale(0.00346018) rotate(-49.1104)"/>
<use xlink:href="#stroke0_8_211" transform="translate(48.1311 31.0525) scale(0.00275165) rotate(-95.8965)"/>
<use xlink:href="#stroke0_8_211" transform="translate(47.8649 31.0229) scale(0.002801) rotate(-69.6671)"/>
<use xlink:href="#stroke0_8_211" transform="translate(47.9344 31.401) scale(0.00264337) rotate(-97.4944)"/>
<use xlink:href="#stroke0_8_211" transform="translate(48.7699 31.1893) scale(0.00287242) rotate(133.429)"/>
<use xlink:href="#stroke0_8_211" transform="translate(48.6489 31.9279) scale(0.00396213) rotate(172.913)"/>
<use xlink:href="#stroke0_8_211" transform="translate(47.5811 32.1515) scale(0.00303239) rotate(-108.595)"/>
<use xlink:href="#stroke0_8_211" transform="translate(47.1466 31.7951) scale(0.00301337) rotate(-47.7985)"/>
<use xlink:href="#stroke0_8_211" transform="translate(47.1383 31.4757) scale(0.00353156) rotate(-1.06725)"/>
<use xlink:href="#stroke0_8_211" transform="translate(46.9837 32.382) scale(0.00264084) rotate(-67.3414)"/>
<use xlink:href="#stroke0_8_211" transform="translate(48.0208 32.4672) scale(0.00316055) rotate(138.16)"/>
<use xlink:href="#stroke0_8_211" transform="translate(47.8017 32.3428) scale(0.00295211) rotate(108.082)"/>
<use xlink:href="#stroke0_8_211" transform="translate(47.5758 33.446) scale(0.00391431) rotate(-175.178)"/>
<use xlink:href="#stroke0_8_211" transform="translate(46.1494 32.9864) scale(0.00379388) rotate(-44.6236)"/>
<use xlink:href="#stroke0_8_211" transform="translate(47.2684 32.7084) scale(0.00367838) rotate(83.1088)"/>
<use xlink:href="#stroke0_8_211" transform="translate(47.34 33.6057) scale(0.00361242) rotate(139.559)"/>
<use xlink:href="#stroke0_8_211" transform="translate(46.883 33.3426) scale(0.00265495) rotate(91.3134)"/>
<use xlink:href="#stroke0_8_211" transform="translate(46.912 33.9604) scale(0.00280339) rotate(141.1)"/>
<use xlink:href="#stroke0_8_211" transform="translate(45.6577 33.9338) scale(0.00276805) rotate(-38.378)"/>
<use xlink:href="#stroke0_8_211" transform="translate(46.0139 33.5714) scale(0.00315516) rotate(35.134)"/>
<use xlink:href="#stroke0_8_211" transform="translate(46.6276 34.8504) scale(0.00397305) rotate(161.917)"/>
<use xlink:href="#stroke0_8_211" transform="translate(46.0262 34.1212) scale(0.00282837) rotate(67.7518)"/>
<use xlink:href="#stroke0_8_211" transform="translate(45.1353 35.3762) scale(0.00353168) rotate(-96.57)"/>
<use xlink:href="#stroke0_8_211" transform="translate(45.2005 34.5073) scale(0.00286798) rotate(13.7927)"/>
<use xlink:href="#stroke0_8_211" transform="translate(46.0244 35.2747) scale(0.00339098) rotate(135.948)"/>
<use xlink:href="#stroke0_8_211" transform="translate(45.6009 35.9316) scale(0.00324162) rotate(-178.407)"/>
<use xlink:href="#stroke0_8_211" transform="translate(45.18 34.828) scale(0.00402477) rotate(53.7402)"/>
<use xlink:href="#stroke0_8_211" transform="translate(45.2736 35.5045) scale(0.00263037) rotate(93.6262)"/>
<use xlink:href="#stroke0_8_211" transform="translate(44.2414 36.2542) scale(0.00264922) rotate(-77.1677)"/>
<use xlink:href="#stroke0_8_211" transform="translate(44.9963 35.5747) scale(0.00358876) rotate(76.539)"/>
<use xlink:href="#stroke0_8_211" transform="translate(45.0122 35.9276) scale(0.00376733) rotate(94.1997)"/>
<use xlink:href="#stroke0_8_211" transform="translate(43.7537 36.8051) scale(0.00259927) rotate(-72.9994)"/>
<use xlink:href="#stroke0_8_211" transform="translate(43.4141 36.9732) scale(0.00345507) rotate(-65.8152)"/>
<use xlink:href="#stroke0_8_211" transform="translate(43.891 37.5752) scale(0.00303271) rotate(-134.561)"/>
<use xlink:href="#stroke0_8_211" transform="translate(43.3494 37.6086) scale(0.00313165) rotate(-96.228)"/>
<use xlink:href="#stroke0_8_211" transform="translate(44.1604 37.6003) scale(0.00292254) rotate(160.444)"/>
<use xlink:href="#stroke0_8_211" transform="translate(43.9453 37.7698) scale(0.00262234) rotate(165.271)"/>
<use xlink:href="#stroke0_8_211" transform="translate(43.3175 38.1788) scale(0.00271002) rotate(-133.759)"/>
<use xlink:href="#stroke0_8_211" transform="translate(42.7698 37.4877) scale(0.00264484) rotate(-16.4647)"/>
<use xlink:href="#stroke0_8_211" transform="translate(42.4847 37.9969) scale(0.00295644) rotate(-54.1542)"/>
<use xlink:href="#stroke0_8_211" transform="translate(43.5587 38.0311) scale(0.0030335) rotate(124.215)"/>
<use xlink:href="#stroke0_8_211" transform="translate(42.2771 38.1347) scale(0.00260837) rotate(-34.0024)"/>
<use xlink:href="#stroke0_8_211" transform="translate(42.1004 38.2056) scale(0.00290616) rotate(-26.8676)"/>
<use xlink:href="#stroke0_8_211" transform="translate(42.922 38.2178) scale(0.00266771) rotate(89.4594)"/>
<use xlink:href="#stroke0_8_211" transform="translate(42.8598 39.2854) scale(0.00354257) rotate(177.528)"/>
<use xlink:href="#stroke0_8_211" transform="translate(42.4337 38.4203) scale(0.00277333) rotate(66.484)"/>
<use xlink:href="#stroke0_8_211" transform="translate(42.1615 39.6379) scale(0.00271293) rotate(-150.127)"/>
<use xlink:href="#stroke0_8_211" transform="translate(41.2676 38.8731) scale(0.00356274) rotate(-16.2126)"/>
<use xlink:href="#stroke0_8_211" transform="translate(41.9653 40.0758) scale(0.0032631) rotate(-161.068)"/>
<use xlink:href="#stroke0_8_211" transform="translate(40.8877 39.7827) scale(0.00324008) rotate(-61.3861)"/>
<use xlink:href="#stroke0_8_211" transform="translate(41.0565 40.2175) scale(0.0025954) rotate(-100.747)"/>
<use xlink:href="#stroke0_8_211" transform="translate(41.5255 39.2503) scale(0.00382257) rotate(64.7575)"/>
<use xlink:href="#stroke0_8_211" transform="translate(40.4211 40.0306) scale(0.00303104) rotate(-36.6505)"/>
<use xlink:href="#stroke0_8_211" transform="translate(41.3003 39.9114) scale(0.00287043) rotate(87.6157)"/>
<use xlink:href="#stroke0_8_211" transform="translate(40.0078 40.9575) scale(0.00397697) rotate(-82.1138)"/>
<use xlink:href="#stroke0_8_211" transform="translate(40.7239 40.1635) scale(0.00274913) rotate(63.7381)"/>
<use xlink:href="#stroke0_8_211" transform="translate(40.0692 40.3084) scale(0.0029301) rotate(13.0919)"/>
<use xlink:href="#stroke0_8_211" transform="translate(40.4791 41.6224) scale(0.00331654) rotate(-164.073)"/>
<use xlink:href="#stroke0_8_211" transform="translate(40.7897 41.0384) scale(0.00398256) rotate(120.002)"/>
<use xlink:href="#stroke0_8_211" transform="translate(39.3485 40.8364) scale(0.00344481) rotate(3.65316)"/>
<use xlink:href="#stroke0_8_211" transform="translate(39.2158 42.0044) scale(0.00287024) rotate(-96.9185)"/>
<use xlink:href="#stroke0_8_211" transform="translate(39.3837 42.432) scale(0.00342785) rotate(-134.479)"/>
<use xlink:href="#stroke0_8_211" transform="translate(39.4348 42.4473) scale(0.00282953) rotate(-156.006)"/>
<use xlink:href="#stroke0_8_211" transform="translate(38.8617 42.5639) scale(0.00281136) rotate(-113.907)"/>
<use xlink:href="#stroke0_8_211" transform="translate(38.3646 42.3623) scale(0.00293445) rotate(-65.47)"/>
<use xlink:href="#stroke0_8_211" transform="translate(38.2633 41.9205) scale(0.00321268) rotate(-8.61047)"/>
<use xlink:href="#stroke0_8_211" transform="translate(39.1384 42.0091) scale(0.0037049) rotate(89.0638)"/>
<use xlink:href="#stroke0_8_211" transform="translate(37.7001 43.0835) scale(0.00370217) rotate(-77.8171)"/>
<use xlink:href="#stroke0_8_211" transform="translate(38.3368 43.3956) scale(0.00264668) rotate(-154.834)"/>
<use xlink:href="#stroke0_8_211" transform="translate(37.9248 43.7845) scale(0.00367547) rotate(-132.589)"/>
<use xlink:href="#stroke0_8_211" transform="translate(37.7278 42.6089) scale(0.00289019) rotate(32.9001)"/>
<use xlink:href="#stroke0_8_211" transform="translate(37.9539 42.6947) scale(0.00359364) rotate(67.4457)"/>
<use xlink:href="#stroke0_8_211" transform="translate(37.1507 44.2858) scale(0.00382772) rotate(-119.009)"/>
<use xlink:href="#stroke0_8_211" transform="translate(36.6742 44.1031) scale(0.00320977) rotate(-84.2968)"/>
<use xlink:href="#stroke0_8_211" transform="translate(36.8123 44.566) scale(0.00346915) rotate(-122.011)"/>
<use xlink:href="#stroke0_8_211" transform="translate(37.0325 44.678) scale(0.00324127) rotate(-157.184)"/>
<use xlink:href="#stroke0_8_211" transform="translate(35.9969 44.3971) scale(0.00321919) rotate(-65.6482)"/>
<use xlink:href="#stroke0_8_211" transform="translate(37.1463 44.6761) scale(0.00381012) rotate(154.166)"/>
<use xlink:href="#stroke0_8_211" transform="translate(36.8201 44.1026) scale(0.00372513) rotate(95.3492)"/>
<use xlink:href="#stroke0_8_211" transform="translate(36.0436 44.1154) scale(0.00290706) rotate(45.256)"/>
<use xlink:href="#stroke0_8_211" transform="translate(36.3839 44.4261) scale(0.00349987) rotate(93.9087)"/>
<use xlink:href="#stroke0_8_211" transform="translate(35.4384 44.474) scale(0.00276962) rotate(22.3031)"/>
<use xlink:href="#stroke0_8_211" transform="translate(34.989 44.7275) scale(0.00303832) rotate(-6.19643)"/>
<use xlink:href="#stroke0_8_211" transform="translate(35.6697 44.8778) scale(0.00274828) rotate(85.4294)"/>
<use xlink:href="#stroke0_8_211" transform="translate(35.7474 45.8338) scale(0.00377625) rotate(162.171)"/>
<use xlink:href="#stroke0_8_211" transform="translate(35.4951 45.7956) scale(0.00319335) rotate(148.955)"/>
<use xlink:href="#stroke0_8_211" transform="translate(34.2615 46.2617) scale(0.00321318) rotate(-100.037)"/>
<use xlink:href="#stroke0_8_211" transform="translate(33.7788 46.2267) scale(0.00368118) rotate(-73.9625)"/>
<use xlink:href="#stroke0_8_211" transform="translate(34.8119 45.601) scale(0.00358069) rotate(92.1825)"/>
<use xlink:href="#stroke0_8_211" transform="translate(34.1565 46.7444) scale(0.0026592) rotate(-149.884)"/>
<use xlink:href="#stroke0_8_211" transform="translate(34.6268 46.585) scale(0.00395593) rotate(147.735)"/>
<use xlink:href="#stroke0_8_211" transform="translate(33.9245 47.0067) scale(0.00280353) rotate(-168.534)"/>
<use xlink:href="#stroke0_8_211" transform="translate(33.9189 47.0897) scale(0.00315529) rotate(175.399)"/>
<use xlink:href="#stroke0_8_211" transform="translate(33.0395 47.4514) scale(0.00340188) rotate(-121.292)"/>
<use xlink:href="#stroke0_8_211" transform="translate(32.5705 47.5823) scale(0.00381316) rotate(-103.424)"/>
<use xlink:href="#stroke0_8_211" transform="translate(33.1077 46.6075) scale(0.00270128) rotate(72.7512)"/>
<use xlink:href="#stroke0_8_211" transform="translate(33.2454 47.4537) scale(0.00320227) rotate(153.121)"/>
<use xlink:href="#stroke0_8_211" transform="translate(32.6024 48.0363) scale(0.00343515) rotate(-153.21)"/>
<use xlink:href="#stroke0_8_211" transform="translate(32.8598 47.0478) scale(0.00395058) rotate(96.7927)"/>
<use xlink:href="#stroke0_8_211" transform="translate(31.8319 47.0558) scale(0.0029955) rotate(28.4143)"/>
<use xlink:href="#stroke0_8_211" transform="translate(31.5066 48.4924) scale(0.00360572) rotate(-118.579)"/>
<use xlink:href="#stroke0_8_211" transform="translate(32.3333 47.9867) scale(0.00395869) rotate(133.78)"/>
<use xlink:href="#stroke0_8_211" transform="translate(31.174 48.662) scale(0.00283168) rotate(-125.916)"/>
<use xlink:href="#stroke0_8_211" transform="translate(30.893 47.4781) scale(0.00377297) rotate(26.7144)"/>
<use xlink:href="#stroke0_8_211" transform="translate(31.4152 48.1188) scale(0.0028809) rotate(106.879)"/>
<use xlink:href="#stroke0_8_211" transform="translate(30.1229 48.3544) scale(0.00283002) rotate(-36.0697)"/>
<use xlink:href="#stroke0_8_211" transform="translate(31.1005 49.1494) scale(0.0040043) rotate(171.527)"/>
<use xlink:href="#stroke0_8_211" transform="translate(30.1076 49.4371) scale(0.00332339) rotate(-128.079)"/>
<use xlink:href="#stroke0_8_211" transform="translate(30.1809 48.1044) scale(0.00401971) rotate(54.5033)"/>
<use xlink:href="#stroke0_8_211" transform="translate(30.2298 49.597) scale(0.00351423) rotate(179.566)"/>
<use xlink:href="#stroke0_8_211" transform="translate(28.8366 49.0049) scale(0.00344274) rotate(-33.1353)"/>
<use xlink:href="#stroke0_8_211" transform="translate(29.8904 48.8828) scale(0.00365445) rotate(94.8323)"/>
<use xlink:href="#stroke0_8_211" transform="translate(29.7812 49.7428) scale(0.00383111) rotate(151.302)"/>
<use xlink:href="#stroke0_8_211" transform="translate(28.7572 50.3457) scale(0.00355648) rotate(-135.577)"/>
<use xlink:href="#stroke0_8_211" transform="translate(28.5232 50.5864) scale(0.00402831) rotate(-137.129)"/>
<use xlink:href="#stroke0_8_211" transform="translate(28.0481 50.5517) scale(0.00340697) rotate(-117.773)"/>
<use xlink:href="#stroke0_8_211" transform="translate(27.772 50.5148) scale(0.00288201) rotate(-106.425)"/>
<use xlink:href="#stroke0_8_211" transform="translate(27.3576 50.0448) scale(0.00266916) rotate(-41.2795)"/>
<use xlink:href="#stroke0_8_211" transform="translate(27.0741 50.3905) scale(0.00318156) rotate(-63.5547)"/>
<use xlink:href="#stroke0_8_211" transform="translate(27.9884 50.0784) scale(0.00260689) rotate(103.879)"/>
<use xlink:href="#stroke0_8_211" transform="translate(26.8769 50.8177) scale(0.0029004) rotate(-89.6596)"/>
<use xlink:href="#stroke0_8_211" transform="translate(26.9294 49.9741) scale(0.00286965) rotate(21.2711)"/>
<use xlink:href="#stroke0_8_211" transform="translate(27.5793 50.274) scale(0.00371757) rotate(102.376)"/>
<use xlink:href="#stroke0_8_211" transform="translate(27.2791 50.6647) scale(0.00292152) rotate(122.11)"/>
<use xlink:href="#stroke0_8_211" transform="translate(26.4525 51.5463) scale(0.0032885) rotate(-136.67)"/>
<use xlink:href="#stroke0_8_211" transform="translate(26.8835 51.143) scale(0.00314619) rotate(145.886)"/>
<use xlink:href="#stroke0_8_211" transform="translate(26.7475 50.7438) scale(0.00396625) rotate(105.317)"/>
<use xlink:href="#stroke0_8_211" transform="translate(25.7093 50.4759) scale(0.00368107) rotate(38.0758)"/>
<use xlink:href="#stroke0_8_211" transform="translate(25.6643 50.733) scale(0.00305261) rotate(54.4146)"/>
<use xlink:href="#stroke0_8_211" transform="translate(24.6147 51.0012) scale(0.0039422) rotate(-14.0494)"/>
<use xlink:href="#stroke0_8_211" transform="translate(24.6434 52.1293) scale(0.003277) rotate(-103.135)"/>
<use xlink:href="#stroke0_8_211" transform="translate(24.1777 52.1133) scale(0.00363599) rotate(-82.8163)"/>
<use xlink:href="#stroke0_8_211" transform="translate(24.613 52.4915) scale(0.00334758) rotate(-143.4)"/>
<use xlink:href="#stroke0_8_211" transform="translate(24.8795 51.5931) scale(0.00306126) rotate(101.493)"/>
<use xlink:href="#stroke0_8_211" transform="translate(24.3961 51.3909) scale(0.00329802) rotate(66.0599)"/>
<use xlink:href="#stroke0_8_211" transform="translate(24.5876 52.1954) scale(0.00347257) rotate(137.963)"/>
<use xlink:href="#stroke0_8_211" transform="translate(24.3105 52.3089) scale(0.00327475) rotate(139.134)"/>
<use xlink:href="#stroke0_8_211" transform="translate(23.497 51.699) scale(0.00301299) rotate(48.2265)"/>
<use xlink:href="#stroke0_8_211" transform="translate(22.8116 51.9422) scale(0.00298182) rotate(0.464208)"/>
<use xlink:href="#stroke0_8_211" transform="translate(23.0247 53.0332) scale(0.00263789) rotate(-139.415)"/>
<use xlink:href="#stroke0_8_211" transform="translate(22.5639 51.9232) scale(0.00340158) rotate(21.2425)"/>
<use xlink:href="#stroke0_8_211" transform="translate(22.5439 53.3283) scale(0.00316649) rotate(-135.91)"/>
<use xlink:href="#stroke0_8_211" transform="translate(21.8266 52.2131) scale(0.00368453) rotate(-0.512347)"/>
<use xlink:href="#stroke0_8_211" transform="translate(21.4542 52.4144) scale(0.00376646) rotate(-11.227)"/>
<use xlink:href="#stroke0_8_211" transform="translate(21.1731 53.1074) scale(0.0032166) rotate(-59.3017)"/>
<use xlink:href="#stroke0_8_211" transform="translate(22.0576 53.6389) scale(0.00356139) rotate(-178.904)"/>
<use xlink:href="#stroke0_8_211" transform="translate(21.9156 53.4584) scale(0.00309013) rotate(158.114)"/>
<use xlink:href="#stroke0_8_211" transform="translate(20.2866 53.4761) scale(0.0040472) rotate(-62.8672)"/>
<use xlink:href="#stroke0_8_211" transform="translate(20.8057 52.8225) scale(0.00263083) rotate(36.0709)"/>
<use xlink:href="#stroke0_8_211" transform="translate(20.4346 52.95) scale(0.00260535) rotate(15.4378)"/>
<use xlink:href="#stroke0_8_211" transform="translate(19.7078 53.3553) scale(0.00366501) rotate(-36.3197)"/>
<use xlink:href="#stroke0_8_211" transform="translate(19.7439 54.0029) scale(0.00297417) rotate(-89.3884)"/>
<use xlink:href="#stroke0_8_211" transform="translate(19.1674 53.876) scale(0.00394915) rotate(-61.6144)"/>
<use xlink:href="#stroke0_8_211" transform="translate(20.2498 54.0141) scale(0.00283297) rotate(155.086)"/>
<use xlink:href="#stroke0_8_211" transform="translate(19.6121 54.4789) scale(0.0030785) rotate(-148.486)"/>
<use xlink:href="#stroke0_8_211" transform="translate(19.8529 53.5849) scale(0.00328476) rotate(100.277)"/>
<use xlink:href="#stroke0_8_211" transform="translate(19.0238 54.7359) scale(0.00348785) rotate(-138.094)"/>
<use xlink:href="#stroke0_8_211" transform="translate(19.3923 53.8897) scale(0.00308406) rotate(112.231)"/>
<use xlink:href="#stroke0_8_211" transform="translate(18.2191 54.6862) scale(0.00303044) rotate(-104.17)"/>
<use xlink:href="#stroke0_8_211" transform="translate(17.7567 54.3237) scale(0.00293635) rotate(-56.2963)"/>
<use xlink:href="#stroke0_8_211" transform="translate(18.751 54.4452) scale(0.00304372) rotate(143.598)"/>
<use xlink:href="#stroke0_8_211" transform="translate(17.4348 54.8714) scale(0.00329488) rotate(-94.2707)"/>
<use xlink:href="#stroke0_8_211" transform="translate(17.6921 53.8421) scale(0.00299439) rotate(42.5353)"/>
<use xlink:href="#stroke0_8_211" transform="translate(17.0079 55.0803) scale(0.00341769) rotate(-100.011)"/>
<use xlink:href="#stroke0_8_211" transform="translate(17.8089 54.2762) scale(0.00336818) rotate(103.005)"/>
<use xlink:href="#stroke0_8_211" transform="translate(16.1453 54.8029) scale(0.00387775) rotate(-57.081)"/>
<use xlink:href="#stroke0_8_211" transform="translate(16.4993 54.1081) scale(0.00328796) rotate(26.5633)"/>
<use xlink:href="#stroke0_8_211" transform="translate(16.1598 54.2857) scale(0.00297519) rotate(13.8274)"/>
<use xlink:href="#stroke0_8_211" transform="translate(16.5251 54.4187) scale(0.00267562) rotate(73.0504)"/>
<use xlink:href="#stroke0_8_211" transform="translate(15.6763 55.5533) scale(0.00336242) rotate(-109.329)"/>
<use xlink:href="#stroke0_8_211" transform="translate(16.0575 55.784) scale(0.00399388) rotate(-160.994)"/>
<use xlink:href="#stroke0_8_211" transform="translate(15.0605 55.4492) scale(0.00274165) rotate(-87.9913)"/>
<use xlink:href="#stroke0_8_211" transform="translate(14.5075 55.4362) scale(0.00387025) rotate(-69.2052)"/>
<use xlink:href="#stroke0_8_211" transform="translate(15.6667 54.8352) scale(0.00390883) rotate(101.97)"/>
<use xlink:href="#stroke0_8_211" transform="translate(14.0399 54.862) scale(0.00378424) rotate(-14.1198)"/>
<use xlink:href="#stroke0_8_211" transform="translate(13.8552 55.9271) scale(0.003784) rotate(-93.9905)"/>
<use xlink:href="#stroke0_8_211" transform="translate(14.7999 55.1754) scale(0.0034831) rotate(109.888)"/>
<use xlink:href="#stroke0_8_211" transform="translate(14.4379 55.7026) scale(0.00280358) rotate(152.609)"/>
<use xlink:href="#stroke0_8_211" transform="translate(14.4443 55.4744) scale(0.0038656) rotate(125.808)"/>
<use xlink:href="#stroke0_8_211" transform="translate(13.2485 55.0881) scale(0.00264363) rotate(24.0562)"/>
<use xlink:href="#stroke0_8_211" transform="translate(12.5135 55.6649) scale(0.00328842) rotate(-49.2529)"/>
<use xlink:href="#stroke0_8_211" transform="translate(12.2558 55.2255) scale(0.00400917) rotate(-12.0394)"/>
<use xlink:href="#stroke0_8_211" transform="translate(13.1103 55.2217) scale(0.0035473) rotate(81.8181)"/>
<use xlink:href="#stroke0_8_211" transform="translate(11.9459 55.3056) scale(0.00331579) rotate(1.7863)"/>
<use xlink:href="#stroke0_8_211" transform="translate(11.9348 56.4669) scale(0.00302839) rotate(-118.96)"/>
<use xlink:href="#stroke0_8_211" transform="translate(12.267 56.4834) scale(0.00321055) rotate(-171.191)"/>
<use xlink:href="#stroke0_8_211" transform="translate(11.6837 56.5466) scale(0.00279733) rotate(-138.323)"/>
<use xlink:href="#stroke0_8_211" transform="translate(11.9986 55.6675) scale(0.00308417) rotate(98.3992)"/>
<use xlink:href="#stroke0_8_211" transform="translate(10.9105 55.5193) scale(0.00305295) rotate(10.1569)"/>
<use xlink:href="#stroke0_8_211" transform="translate(10.5247 56.6885) scale(0.00362456) rotate(-100.38)"/>
<use xlink:href="#stroke0_8_211" transform="translate(10.2635 56.8193) scale(0.00388332) rotate(-105.113)"/>
<use xlink:href="#stroke0_8_211" transform="translate(9.92305 55.8173) scale(0.00312547) rotate(-12.2669)"/>
<use xlink:href="#stroke0_8_211" transform="translate(9.36422 56.0406) scale(0.00404608) rotate(-34.4723)"/>
<use xlink:href="#stroke0_8_211" transform="translate(9.27884 56.238) scale(0.00305103) rotate(-44.0773)"/>
<use xlink:href="#stroke0_8_211" transform="translate(10.0813 55.9061) scale(0.00279363) rotate(85.0061)"/>
<use xlink:href="#stroke0_8_211" transform="translate(10.021 56.5392) scale(0.00280439) rotate(150.002)"/>
<use xlink:href="#stroke0_8_211" transform="translate(9.70819 55.9522) scale(0.00306453) rotate(87.6258)"/>
<use xlink:href="#stroke0_8_211" transform="translate(9.26929 55.8882) scale(0.00283844) rotate(65.5596)"/>
<use xlink:href="#stroke0_8_211" transform="translate(9.34063 56.7553) scale(0.00296275) rotate(161.179)"/>
<use xlink:href="#stroke0_8_211" transform="translate(7.97709 56.5614) scale(0.00298653) rotate(-55.8612)"/>
<use xlink:href="#stroke0_8_211" transform="translate(7.73233 56.7712) scale(0.0032535) rotate(-71.0571)"/>
<use xlink:href="#stroke0_8_211" transform="translate(7.5053 56.1639) scale(0.00343402) rotate(-15.648)"/>
<use xlink:href="#stroke0_8_211" transform="translate(8.26138 56.9759) scale(0.00272957) rotate(176.565)"/>
<use xlink:href="#stroke0_8_211" transform="translate(7.1993 55.9565) scale(0.00376468) rotate(8.55305)"/>
<use xlink:href="#stroke0_8_211" transform="translate(7.93289 56.1496) scale(0.00375995) rotate(92.0287)"/>
<use xlink:href="#stroke0_8_211" transform="translate(6.47946 57.0399) scale(0.00336347) rotate(-80.8389)"/>
<use xlink:href="#stroke0_8_211" transform="translate(6.62721 56.1432) scale(0.00285867) rotate(21.3312)"/>
<use xlink:href="#stroke0_8_211" transform="translate(7.14679 56.8662) scale(0.00266054) rotate(147.187)"/>
<use xlink:href="#stroke0_8_211" transform="translate(6.96039 56.5349) scale(0.00284591) rotate(111.114)"/>
<use xlink:href="#stroke0_8_211" transform="translate(6.61339 57.2357) scale(0.00311269) rotate(179.434)"/>
<use xlink:href="#stroke0_8_211" transform="translate(6.45251 57.2631) scale(0.00342723) rotate(174.415)"/>
<use xlink:href="#stroke0_8_211" transform="translate(5.34545 56.3265) scale(0.002877) rotate(4.93645)"/>
<use xlink:href="#stroke0_8_211" transform="translate(5.3653 57.5542) scale(0.0035791) rotate(-131.823)"/>
<use xlink:href="#stroke0_8_211" transform="translate(4.8395 56.4055) scale(0.00278142) rotate(1.0092)"/>
<use xlink:href="#stroke0_8_211" transform="translate(5.73156 56.8699) scale(0.00373607) rotate(132.167)"/>
<use xlink:href="#stroke0_8_211" transform="translate(4.55352 56.1453) scale(0.00361903) rotate(31.3865)"/>
<use xlink:href="#stroke0_8_211" transform="translate(3.97474 56.5981) scale(0.00269184) rotate(-16.301)"/>
<use xlink:href="#stroke0_8_211" transform="translate(3.44907 56.9595) scale(0.00366343) rotate(-52.4782)"/>
<use xlink:href="#stroke0_8_211" transform="translate(4.17818 57.6787) scale(0.00388474) rotate(-157.889)"/>
<use xlink:href="#stroke0_8_211" transform="translate(3.11674 57.4764) scale(0.0036093) rotate(-95.0193)"/>
<use xlink:href="#stroke0_8_211" transform="translate(3.81121 57.2902) scale(0.00262942) rotate(170.504)"/>
<use xlink:href="#stroke0_8_211" transform="translate(3.76887 57.1893) scale(0.00310711) rotate(152.629)"/>
<use xlink:href="#stroke0_8_211" transform="translate(2.67035 57.4863) scale(0.00285938) rotate(-110.713)"/>
<use xlink:href="#stroke0_8_211" transform="translate(3.13161 57.5938) scale(0.00367828) rotate(-173.676)"/>
<use xlink:href="#stroke0_8_211" transform="translate(1.9111 56.8687) scale(0.00269294) rotate(-36.8934)"/>
<use xlink:href="#stroke0_8_211" transform="translate(2.37838 56.4419) scale(0.00271973) rotate(54.9189)"/>
<use xlink:href="#stroke0_8_211" transform="translate(1.41953 57.0622) scale(0.00298736) rotate(-55.2929)"/>
<use xlink:href="#stroke0_8_211" transform="translate(2.28128 57.6073) scale(0.00388232) rotate(-178.536)"/>
<use xlink:href="#stroke0_8_211" transform="translate(1.53205 56.3916) scale(0.00294716) rotate(43.6683)"/>
<use xlink:href="#stroke0_8_211" transform="translate(0.767954 57.3467) scale(0.00301073) rotate(-82.6944)"/>
<use xlink:href="#stroke0_8_211" transform="translate(0.839838 56.2072) scale(0.00394603) rotate(28.8863)"/>
<use xlink:href="#stroke0_8_211" transform="translate(1.48797 56.5356) scale(0.00262111) rotate(106.175)"/>
<use xlink:href="#stroke0_8_211" transform="translate(0.58481 56.0027) scale(0.00329869) rotate(3.70048)"/>
<use xlink:href="#stroke0_8_211" transform="translate(0.349645 56.4784) scale(0.00329184) rotate(-64.8597)"/>
<use xlink:href="#stroke0_8_211" transform="translate(1.37323 55.3456) scale(0.00374711) rotate(70.3508)"/>
<use xlink:href="#stroke0_8_211" transform="translate(1.50999 56.291) scale(0.00365411) rotate(178.705)"/>
<use xlink:href="#stroke0_8_211" transform="translate(0.700563 55.0485) scale(0.00262802) rotate(7.78757)"/>
<use xlink:href="#stroke0_8_211" transform="translate(0.508018 55.6786) scale(0.00307161) rotate(-87.4923)"/>
<use xlink:href="#stroke0_8_211" transform="translate(0.478097 55.2734) scale(0.0027392) rotate(-70.8065)"/>
<use xlink:href="#stroke0_8_211" transform="translate(0.506384 55.213) scale(0.00300218) rotate(-85.5684)"/>
<use xlink:href="#stroke0_8_211" transform="translate(1.47512 55.2309) scale(0.00392585) rotate(-174.615)"/>
<use xlink:href="#stroke0_8_211" transform="translate(1.48883 53.9279) scale(0.00302245) rotate(93.2054)"/>
<use xlink:href="#stroke0_8_211" transform="translate(0.452954 53.9906) scale(0.00270545) rotate(-37.8623)"/>
<use xlink:href="#stroke0_8_211" transform="translate(0.203328 53.8805) scale(0.00387523) rotate(-51.2553)"/>
<use xlink:href="#stroke0_8_211" transform="translate(1.51443 53.3168) scale(0.00282605) rotate(103.595)"/>
<use xlink:href="#stroke0_8_211" transform="translate(0.576069 53.8435) scale(0.00311893) rotate(-97.2611)"/>
<use xlink:href="#stroke0_8_211" transform="translate(0.61738 53.6991) scale(0.00340096) rotate(-105.457)"/>
<use xlink:href="#stroke0_8_211" transform="translate(0.407669 52.7947) scale(0.00290304) rotate(-41.0876)"/>
<use xlink:href="#stroke0_8_211" transform="translate(0.50198 52.4656) scale(0.00260296) rotate(-26.9792)"/>
<use xlink:href="#stroke0_8_211" transform="translate(0.571155 52.1324) scale(0.00263022) rotate(-10.9911)"/>
<use xlink:href="#stroke0_8_211" transform="translate(1.35189 51.8228) scale(0.00272223) rotate(80.3145)"/>
<use xlink:href="#stroke0_8_211" transform="translate(1.51043 52.2977) scale(0.00275696) rotate(157.297)"/>
<use xlink:href="#stroke0_8_211" transform="translate(1.46687 51.5815) scale(0.00260621) rotate(101.914)"/>
<use xlink:href="#stroke0_8_211" transform="translate(1.31359 51.1873) scale(0.00268806) rotate(75.9355)"/>
<use xlink:href="#stroke0_8_211" transform="translate(1.57741 50.8969) scale(0.00371768) rotate(90.4018)"/>
<use xlink:href="#stroke0_8_211" transform="translate(1.62102 51.1764) scale(0.00302216) rotate(134.566)"/>
<use xlink:href="#stroke0_8_211" transform="translate(1.77704 50.7638) scale(0.0038186) rotate(122.803)"/>
<use xlink:href="#stroke0_8_211" transform="translate(1.22129 50.0077) scale(0.00314497) rotate(61.3971)"/>
<use xlink:href="#stroke0_8_211" transform="translate(0.804011 51.1196) scale(0.0038643) rotate(-124.328)"/>
<use xlink:href="#stroke0_8_211" transform="translate(0.573851 49.3468) scale(0.00399291) rotate(10.167)"/>
<use xlink:href="#stroke0_8_211" transform="translate(1.23465 49.2943) scale(0.00268619) rotate(66.5212)"/>
<use xlink:href="#stroke0_8_211" transform="translate(0.309013 49.4351) scale(0.00341399) rotate(-38.1611)"/>
<use xlink:href="#stroke0_8_211" transform="translate(0.547321 49.7775) scale(0.00315487) rotate(-94.3923)"/>
<use xlink:href="#stroke0_8_211" transform="translate(1.66417 49.2057) scale(0.00329775) rotate(143.276)"/>
<use xlink:href="#stroke0_8_211" transform="translate(0.607071 49.414) scale(0.00351604) rotate(-105.706)"/>
<use xlink:href="#stroke0_8_211" transform="translate(0.211739 48.4327) scale(0.00385658) rotate(-41.8884)"/>
<use xlink:href="#stroke0_8_211" transform="translate(0.533434 48.6906) scale(0.00308165) rotate(-91.232)"/>
<use xlink:href="#stroke0_8_211" transform="translate(0.743737 48.5703) scale(0.00289096) rotate(-113.082)"/>
<use xlink:href="#stroke0_8_211" transform="translate(0.613977 47.0399) scale(0.00401402) rotate(13.5462)"/>
<use xlink:href="#stroke0_8_211" transform="translate(1.3325 48.0164) scale(0.00296747) rotate(-171.582)"/>
<use xlink:href="#stroke0_8_211" transform="translate(0.640069 46.8744) scale(0.00266915) rotate(0.467277)"/>
<use xlink:href="#stroke0_8_211" transform="translate(0.888728 47.7759) scale(0.00355874) rotate(-129.857)"/>
<use xlink:href="#stroke0_8_211" transform="translate(1.60545 46.4228) scale(0.0034298) rotate(100.469)"/>
<use xlink:href="#stroke0_8_211" transform="translate(0.732748 47.1873) scale(0.00348314) rotate(-116.706)"/>
<use xlink:href="#stroke0_8_211" transform="translate(0.447481 46.6003) scale(0.00312726) rotate(-79.4483)"/>
<use xlink:href="#stroke0_8_211" transform="translate(1.56736 45.7744) scale(0.00303458) rotate(106.698)"/>
<use xlink:href="#stroke0_8_211" transform="translate(1.60772 46.0597) scale(0.00321663) rotate(154.766)"/>
<use xlink:href="#stroke0_8_211" transform="translate(0.473735 45.6737) scale(0.00260135) rotate(-59.1739)"/>
<use xlink:href="#stroke0_8_211" transform="translate(0.642785 44.7762) scale(0.00328526) rotate(9.51158)"/>
<use xlink:href="#stroke0_8_211" transform="translate(0.871001 45.7359) scale(0.00312448) rotate(-127.023)"/>
<use xlink:href="#stroke0_8_211" transform="translate(1.52218 44.4289) scale(0.00329441) rotate(91.7745)"/>
<use xlink:href="#stroke0_8_211" transform="translate(0.935946 44.0665) scale(0.00275855) rotate(34.9262)"/>
<use xlink:href="#stroke0_8_211" transform="translate(0.632652 43.9976) scale(0.0027258) rotate(0.497165)"/>
<use xlink:href="#stroke0_8_211" transform="translate(1.12821 44.7819) scale(0.00285257) rotate(-151.21)"/>
<use xlink:href="#stroke0_8_211" transform="translate(1.4867 43.7664) scale(0.00262377) rotate(105.738)"/>
<use xlink:href="#stroke0_8_211" transform="translate(1.31011 43.2929) scale(0.0028532) rotate(73.2828)"/>
<use xlink:href="#stroke0_8_211" transform="translate(0.521793 43.8308) scale(0.00261688) rotate(-75.98)"/>
<use xlink:href="#stroke0_8_211" transform="translate(1.36235 42.8972) scale(0.00290389) rotate(78.7277)"/>
<use xlink:href="#stroke0_8_211" transform="translate(0.796629 43.8895) scale(0.00389957) rotate(-123.916)"/>
<use xlink:href="#stroke0_8_211" transform="translate(1.64643 42.3912) scale(0.00377124) rotate(97.8008)"/>
<use xlink:href="#stroke0_8_211" transform="translate(1.35586 42.9823) scale(0.00262001) rotate(-179.893)"/>
<use xlink:href="#stroke0_8_211" transform="translate(0.499607 42.1765) scale(0.00261994) rotate(-26.7281)"/>
<use xlink:href="#stroke0_8_211" transform="translate(0.671284 41.5947) scale(0.00316387) rotate(11.0839)"/>
<use xlink:href="#stroke0_8_211" transform="translate(0.312429 41.8956) scale(0.00334155) rotate(-47.4937)"/>
<use xlink:href="#stroke0_8_211" transform="translate(1.53325 41.0883) scale(0.00372643) rotate(85.458)"/>
<use xlink:href="#stroke0_8_211" transform="translate(0.277121 41.553) scale(0.00363701) rotate(-63.6312)"/>
<use xlink:href="#stroke0_8_211" transform="translate(1.60548 41.1634) scale(0.00295452) rotate(136.667)"/>
<use xlink:href="#stroke0_8_211" transform="translate(1.4633 41.3499) scale(0.00323527) rotate(177.312)"/>
<use xlink:href="#stroke0_8_211" transform="translate(0.768649 41.1378) scale(0.00263132) rotate(-113.304)"/>
<use xlink:href="#stroke0_8_211" transform="translate(0.982528 41.1022) scale(0.0033073) rotate(-137.124)"/>
<use xlink:href="#stroke0_8_211" transform="translate(1.62697 40.1481) scale(0.00305028) rotate(128.535)"/>
<use xlink:href="#stroke0_8_211" transform="translate(0.462446 40.1845) scale(0.00284004) rotate(-71.7123)"/>
<use xlink:href="#stroke0_8_211" transform="translate(0.867188 39.1174) scale(0.00304871) rotate(29.184)"/>
<use xlink:href="#stroke0_8_211" transform="translate(0.826498 38.7707) scale(0.00354494) rotate(27.6468)"/>
<use xlink:href="#stroke0_8_211" transform="translate(1.57985 39.2436) scale(0.00281772) rotate(132.072)"/>
<use xlink:href="#stroke0_8_211" transform="translate(0.193483 39.0135) scale(0.00392228) rotate(-50.9754)"/>
<use xlink:href="#stroke0_8_211" transform="translate(0.358297 38.9709) scale(0.00338147) rotate(-71.36)"/>
<use xlink:href="#stroke0_8_211" transform="translate(1.24923 37.829) scale(0.00324669) rotate(63.305)"/>
<use xlink:href="#stroke0_8_211" transform="translate(1.63584 38.4246) scale(0.0032761) rotate(150.831)"/>
<use xlink:href="#stroke0_8_211" transform="translate(0.774289 38.5193) scale(0.00290947) rotate(-116.45)"/>
<use xlink:href="#stroke0_8_211" transform="translate(0.417468 37.8333) scale(0.00286316) rotate(-57.2511)"/>
<use xlink:href="#stroke0_8_211" transform="translate(1.64856 36.9651) scale(0.00402977) rotate(92.851)"/>
<use xlink:href="#stroke0_8_211" transform="translate(1.70431 37.0952) scale(0.00345753) rotate(123.215)"/>
<use xlink:href="#stroke0_8_211" transform="translate(1.54149 37.1799) scale(0.00284658) rotate(153.841)"/>
<use xlink:href="#stroke0_8_211" transform="translate(1.60807 36.2661) scale(0.00365401) rotate(95.364)"/>
<use xlink:href="#stroke0_8_211" transform="translate(0.659303 36.9638) scale(0.00297072) rotate(-104.729)"/>
<use xlink:href="#stroke0_8_211" transform="translate(1.51585 36.5232) scale(0.00287522) rotate(160.739)"/>
<use xlink:href="#stroke0_8_211" transform="translate(1.43819 36.5447) scale(0.00342226) rotate(-177.069)"/>
<use xlink:href="#stroke0_8_211" transform="translate(0.707264 35.3091) scale(0.00262404) rotate(8.5798)"/>
<use xlink:href="#stroke0_8_211" transform="translate(1.37458 36.1574) scale(0.00356268) rotate(-169.318)"/>
<use xlink:href="#stroke0_8_211" transform="translate(0.440509 35.5118) scale(0.00294431) rotate(-71.1765)"/>
<use xlink:href="#stroke0_8_211" transform="translate(1.24471 34.2457) scale(0.00393186) rotate(59.0073)"/>
<use xlink:href="#stroke0_8_211" transform="translate(0.52546 34.0315) scale(0.00403647) rotate(6.56757)"/>
<use xlink:href="#stroke0_8_211" transform="translate(0.72125 33.9883) scale(0.00265544) rotate(10.7362)"/>
<use xlink:href="#stroke0_8_211" transform="translate(0.526345 34.8608) scale(0.00392012) rotate(-102.644)"/>
<use xlink:href="#stroke0_8_211" transform="translate(1.64266 33.4295) scale(0.00389824) rotate(94.6358)"/>
<use xlink:href="#stroke0_8_211" transform="translate(0.614123 34.2247) scale(0.00344532) rotate(-105.624)"/>
<use xlink:href="#stroke0_8_211" transform="translate(0.296454 33.6536) scale(0.0037096) rotate(-71.4425)"/>
<use xlink:href="#stroke0_8_211" transform="translate(0.472222 32.8661) scale(0.00282166) rotate(-23.9438)"/>
<use xlink:href="#stroke0_8_211" transform="translate(1.35187 32.4892) scale(0.00263015) rotate(81.9508)"/>
<use xlink:href="#stroke0_8_211" transform="translate(0.510465 33.3144) scale(0.00402188) rotate(-102.337)"/>
<use xlink:href="#stroke0_8_211" transform="translate(0.687291 32.9191) scale(0.00303693) rotate(-108.574)"/>
<use xlink:href="#stroke0_8_211" transform="translate(1.2521 32.6487) scale(0.00266999) rotate(-165.905)"/>
<use xlink:href="#stroke0_8_211" transform="translate(0.956198 31.2506) scale(0.00331893) rotate(37.7277)"/>
<use xlink:href="#stroke0_8_211" transform="translate(1.24546 31.007) scale(0.00345394) rotate(61.6056)"/>
<use xlink:href="#stroke0_8_211" transform="translate(1.0846 32.0026) scale(0.00278147) rotate(-147.094)"/>
<use xlink:href="#stroke0_8_211" transform="translate(0.743677 30.4857) scale(0.00364843) rotate(21.4439)"/>
<use xlink:href="#stroke0_8_211" transform="translate(0.488053 31.3204) scale(0.003118) rotate(-85.6737)"/>
<use xlink:href="#stroke0_8_211" transform="translate(1.11133 30.0051) scale(0.00335604) rotate(50.6805)"/>
<use xlink:href="#stroke0_8_211" transform="translate(0.256037 30.2811) scale(0.00367629) rotate(-38.1137)"/>
<use xlink:href="#stroke0_8_211" transform="translate(1.79536 30.1164) scale(0.00386535) rotate(130.325)"/>
<use xlink:href="#stroke0_8_211" transform="translate(1.03084 30.4401) scale(0.00272466) rotate(-141.748)"/>
<use xlink:href="#stroke0_8_211" transform="translate(1.49197 30.0703) scale(0.0031209) rotate(171.412)"/>
<use xlink:href="#stroke0_8_211" transform="translate(0.213361 29.5278) scale(0.00387998) rotate(-58.4862)"/>
<use xlink:href="#stroke0_8_211" transform="translate(1.13191 29.8371) scale(0.0036146) rotate(-148.81)"/>
<use xlink:href="#stroke0_8_211" transform="translate(1.29965 28.1628) scale(0.0035608) rotate(65.5404)"/>
<use xlink:href="#stroke0_8_211" transform="translate(1.41828 27.8581) scale(0.00391442) rotate(72.6841)"/>
<use xlink:href="#stroke0_8_211" transform="translate(1.6975 27.8523) scale(0.00389859) rotate(101.786)"/>
<use xlink:href="#stroke0_8_211" transform="translate(1.20974 28.5667) scale(0.00300025) rotate(-158.453)"/>
<use xlink:href="#stroke0_8_211" transform="translate(1.64435 27.9214) scale(0.00324223) rotate(146.463)"/>
<use xlink:href="#stroke0_8_211" transform="translate(0.572679 26.9757) scale(0.00328397) rotate(2.18653)"/>
<use xlink:href="#stroke0_8_211" transform="translate(1.32419 27.9444) scale(0.00381796) rotate(-162.963)"/>
<use xlink:href="#stroke0_8_211" transform="translate(1.24401 27.5863) scale(0.00327324) rotate(-159.832)"/>
<use xlink:href="#stroke0_8_211" transform="translate(0.772548 26.0976) scale(0.00318476) rotate(21.0989)"/>
<use xlink:href="#stroke0_8_211" transform="translate(1.346 25.7258) scale(0.00387103) rotate(67.1462)"/>
<use xlink:href="#stroke0_8_211" transform="translate(1.55757 26.6768) scale(0.00371286) rotate(174.544)"/>
<use xlink:href="#stroke0_8_211" transform="translate(0.515596 25.3315) scale(0.00354719) rotate(-0.16674)"/>
<use xlink:href="#stroke0_8_211" transform="translate(0.470154 25.462) scale(0.00271438) rotate(-30.1247)"/>
<use xlink:href="#stroke0_8_211" transform="translate(0.247393 25.2985) scale(0.0036869) rotate(-41.287)"/>
<use xlink:href="#stroke0_8_211" transform="translate(0.513532 25.6086) scale(0.00332324) rotate(-93.2558)"/>
<use xlink:href="#stroke0_8_211" transform="translate(1.4183 24.2839) scale(0.00349139) rotate(77.0069)"/>
<use xlink:href="#stroke0_8_211" transform="translate(0.39671 25.1332) scale(0.00396409) rotate(-90.9072)"/>
<use xlink:href="#stroke0_8_211" transform="translate(1.6387 24.3782) scale(0.00311907) rotate(137.137)"/>
<use xlink:href="#stroke0_8_211" transform="translate(1.02943 24.6421) scale(0.00266998) rotate(-141.665)"/>
<use xlink:href="#stroke0_8_211" transform="translate(0.831275 23.1261) scale(0.00362804) rotate(28.3444)"/>
<use xlink:href="#stroke0_8_211" transform="translate(0.471398 23.8641) scale(0.00285779) rotate(-74.5982)"/>
<use xlink:href="#stroke0_8_211" transform="translate(0.93903 22.8053) scale(0.00285002) rotate(35.4379)"/>
<use xlink:href="#stroke0_8_211" transform="translate(0.795291 22.6555) scale(0.00271969) rotate(19.9516)"/>
<use xlink:href="#stroke0_8_211" transform="translate(0.499439 22.2956) scale(0.00390385) rotate(2.86626)"/>
<use xlink:href="#stroke0_8_211" transform="translate(1.4876 22.9491) scale(0.0027269) rotate(161.079)"/>
<use xlink:href="#stroke0_8_211" transform="translate(1.70703 22.3789) scale(0.00344666) rotate(126.786)"/>
<use xlink:href="#stroke0_8_211" transform="translate(1.67297 21.9754) scale(0.00341039) rotate(114.907)"/>
<use xlink:href="#stroke0_8_211" transform="translate(0.274444 21.7828) scale(0.00357789) rotate(-38.7794)"/>
<use xlink:href="#stroke0_8_211" transform="translate(1.75405 21.7348) scale(0.00369845) rotate(139.237)"/>
<use xlink:href="#stroke0_8_211" transform="translate(1.65941 21.1372) scale(0.00338383) rotate(112.647)"/>
<use xlink:href="#stroke0_8_211" transform="translate(1.61725 20.9341) scale(0.00312281) rotate(115.232)"/>
<use xlink:href="#stroke0_8_211" transform="translate(1.24432 20.3569) scale(0.00283263) rotate(66.1824)"/>
<use xlink:href="#stroke0_8_211" transform="translate(1.42785 21.0095) scale(0.00263014) rotate(169.178)"/>
<use xlink:href="#stroke0_8_211" transform="translate(0.975042 21.0991) scale(0.00311178) rotate(-136.362)"/>
<use xlink:href="#stroke0_8_211" transform="translate(0.579091 20.6656) scale(0.0029498) rotate(-94.7001)"/>
<use xlink:href="#stroke0_8_211" transform="translate(1.7317 20.348) scale(0.00401844) rotate(159.182)"/>
<use xlink:href="#stroke0_8_211" transform="translate(1.51191 19.8668) scale(0.0026011) rotate(148.411)"/>
<use xlink:href="#stroke0_8_211" transform="translate(1.14385 20.1783) scale(0.00347456) rotate(-150.2)"/>
<use xlink:href="#stroke0_8_211" transform="translate(0.80798 19.9499) scale(0.00374919) rotate(-124.185)"/>
<use xlink:href="#stroke0_8_211" transform="translate(0.732508 19.6345) scale(0.00371609) rotate(-118.122)"/>
<use xlink:href="#stroke0_8_211" transform="translate(1.79564 18.5236) scale(0.00389903) rotate(123.944)"/>
<use xlink:href="#stroke0_8_211" transform="translate(0.772874 17.6233) scale(0.00365311) rotate(23.8205)"/>
<use xlink:href="#stroke0_8_211" transform="translate(0.298588 18.0081) scale(0.00342162) rotate(-43.5184)"/>
<use xlink:href="#stroke0_8_211" transform="translate(0.537359 17.4637) scale(0.00286909) rotate(-10.1798)"/>
<use xlink:href="#stroke0_8_211" transform="translate(1.52101 17.0438) scale(0.00364136) rotate(85.4501)"/>
<use xlink:href="#stroke0_8_211" transform="translate(0.663177 17.7863) scale(0.00271597) rotate(-101.539)"/>
<use xlink:href="#stroke0_8_211" transform="translate(1.5435 17.4058) scale(0.00297643) rotate(158.873)"/>
<use xlink:href="#stroke0_8_211" transform="translate(0.884536 17.5459) scale(0.00325668) rotate(-128.675)"/>
<use xlink:href="#stroke0_8_211" transform="translate(1.63138 16.2932) scale(0.00347524) rotate(103.385)"/>
<use xlink:href="#stroke0_8_211" transform="translate(0.881378 15.8458) scale(0.00272063) rotate(29.1731)"/>
<use xlink:href="#stroke0_8_211" transform="translate(1.49083 15.7521) scale(0.00313227) rotate(90.9929)"/>
<use xlink:href="#stroke0_8_211" transform="translate(1.01425 15.3274) scale(0.00296555) rotate(42.7423)"/>
<use xlink:href="#stroke0_8_211" transform="translate(0.75108 15.0097) scale(0.00352148) rotate(21.3163)"/>
<use xlink:href="#stroke0_8_211" transform="translate(0.189122 15.4033) scale(0.00394011) rotate(-48.4085)"/>
<use xlink:href="#stroke0_8_211" transform="translate(0.590253 15.6196) scale(0.00306928) rotate(-98.1532)"/>
<use xlink:href="#stroke0_8_211" transform="translate(0.960819 14.1853) scale(0.00343413) rotate(38.2265)"/>
<use xlink:href="#stroke0_8_211" transform="translate(1.1805 13.8112) scale(0.00397319) rotate(54.1574)"/>
<use xlink:href="#stroke0_8_211" transform="translate(0.59863 13.9292) scale(0.00282439) rotate(-2.26616)"/>
<use xlink:href="#stroke0_8_211" transform="translate(1.03969 14.7331) scale(0.00293651) rotate(-142.36)"/>
<use xlink:href="#stroke0_8_211" transform="translate(0.264841 13.7236) scale(0.0036511) rotate(-36.6603)"/>
<use xlink:href="#stroke0_8_211" transform="translate(1.69619 13.7101) scale(0.00341786) rotate(139.619)"/>
<use xlink:href="#stroke0_8_211" transform="translate(0.970652 14.1175) scale(0.00380891) rotate(-136.45)"/>
<use xlink:href="#stroke0_8_211" transform="translate(1.43811 12.6306) scale(0.00302754) rotate(86.0837)"/>
<use xlink:href="#stroke0_8_211" transform="translate(0.296941 13.0478) scale(0.00358884) rotate(-66.4395)"/>
<use xlink:href="#stroke0_8_211" transform="translate(1.50525 11.9899) scale(0.00364948) rotate(83.6807)"/>
<use xlink:href="#stroke0_8_211" transform="translate(0.736156 11.7011) scale(0.00312407) rotate(17.1763)"/>
<use xlink:href="#stroke0_8_211" transform="translate(1.2766 12.7935) scale(0.00401212) rotate(-158.167)"/>
<use xlink:href="#stroke0_8_211" transform="translate(0.381306 11.6559) scale(0.00303851) rotate(-40.2411)"/>
<use xlink:href="#stroke0_8_211" transform="translate(0.952836 12.1318) scale(0.00299725) rotate(-134.21)"/>
<use xlink:href="#stroke0_8_211" transform="translate(1.45097 10.6856) scale(0.00357275) rotate(79.2349)"/>
<use xlink:href="#stroke0_8_211" transform="translate(1.51544 11.6148) scale(0.00397878) rotate(-177.607)"/>
<use xlink:href="#stroke0_8_211" transform="translate(0.362167 10.74) scale(0.003103) rotate(-51.4063)"/>
<use xlink:href="#stroke0_8_211" transform="translate(0.282907 10.205) scale(0.0036822) rotate(-29.7296)"/>
<use xlink:href="#stroke0_8_211" transform="translate(1.67761 10.2938) scale(0.00333663) rotate(140.73)"/>
<use xlink:href="#stroke0_8_211" transform="translate(1.01047 9.23983) scale(0.003344) rotate(42.2761)"/>
<use xlink:href="#stroke0_8_211" transform="translate(0.559999 10.3386) scale(0.00397486) rotate(-106.056)"/>
<use xlink:href="#stroke0_8_211" transform="translate(1.23396 10.0293) scale(0.00341049) rotate(-158.067)"/>
<use xlink:href="#stroke0_8_211" transform="translate(1.66165 9.12208) scale(0.00321516) rotate(132.014)"/>
<use xlink:href="#stroke0_8_211" transform="translate(0.905064 8.34084) scale(0.00270515) rotate(31.5861)"/>
<use xlink:href="#stroke0_8_211" transform="translate(1.69835 8.43677) scale(0.00354941) rotate(114.347)"/>
<use xlink:href="#stroke0_8_211" transform="translate(0.39045 8.73186) scale(0.00340543) rotate(-78.167)"/>
<use xlink:href="#stroke0_8_211" transform="translate(0.224048 8.27908) scale(0.0038598) rotate(-60.9518)"/>
<use xlink:href="#stroke0_8_211" transform="translate(0.4311 8.33617) scale(0.00373353) rotate(-90.8297)"/>
<use xlink:href="#stroke0_8_211" transform="translate(0.790612 8.1564) scale(0.00306934) rotate(-119.237)"/>
<use xlink:href="#stroke0_8_211" transform="translate(0.462163 7.52466) scale(0.00276623) rotate(-67.7312)"/>
<use xlink:href="#stroke0_8_211" transform="translate(1.32321 7.65645) scale(0.00305984) rotate(-169.476)"/>
<use xlink:href="#stroke0_8_211" transform="translate(0.419192 6.74252) scale(0.00290993) rotate(-34.4885)"/>
<use xlink:href="#stroke0_8_211" transform="translate(0.919559 7.29153) scale(0.00309528) rotate(-131.341)"/>
<use xlink:href="#stroke0_8_211" transform="translate(1.60863 5.84865) scale(0.00396022) rotate(89.7149)"/>
<use xlink:href="#stroke0_8_211" transform="translate(0.820672 5.48869) scale(0.00318203) rotate(25.5116)"/>
<use xlink:href="#stroke0_8_211" transform="translate(0.698942 5.20226) scale(0.0035273) rotate(16.9026)"/>
<use xlink:href="#stroke0_8_211" transform="translate(0.604008 6.28349) scale(0.00392819) rotate(-109.266)"/>
<use xlink:href="#stroke0_8_211" transform="translate(0.494045 5.14845) scale(0.00261107) rotate(-28.9099)"/>
<use xlink:href="#stroke0_8_211" transform="translate(0.400865 5.01323) scale(0.00295446) rotate(-38.7823)"/>
<use xlink:href="#stroke0_8_211" transform="translate(0.293315 5.20864) scale(0.00383286) rotate(-74.9724)"/>
<use xlink:href="#stroke0_8_211" transform="translate(0.924499 5.21502) scale(0.0030264) rotate(-131.633)"/>
<use xlink:href="#stroke0_8_211" transform="translate(1.36934 3.95722) scale(0.00271969) rotate(82.694)"/>
<use xlink:href="#stroke0_8_211" transform="translate(0.56671 3.82346) scale(0.00269969) rotate(-9.84333)"/>
<use xlink:href="#stroke0_8_211" transform="translate(1.74035 4.22109) scale(0.00388282) rotate(153.511)"/>
<use xlink:href="#stroke0_8_211" transform="translate(1.44247 4.04336) scale(0.00283033) rotate(171.974)"/>
<use xlink:href="#stroke0_8_211" transform="translate(0.172049 3.43005) scale(0.00402516) rotate(-50.4491)"/>
<use xlink:href="#stroke0_8_211" transform="translate(1.15228 3.69012) scale(0.00274992) rotate(-154.205)"/>
<use xlink:href="#stroke0_8_211" transform="translate(1.52969 2.2741) scale(0.00394659) rotate(82.1084)"/>
<use xlink:href="#stroke0_8_211" transform="translate(1.35544 2.11944) scale(0.00300284) rotate(76.5152)"/>
<use xlink:href="#stroke0_8_211" transform="translate(1.3563 2.84962) scale(0.00276842) rotate(-177.304)"/>
<use xlink:href="#stroke0_8_211" transform="translate(0.830127 2.83256) scale(0.00330713) rotate(-124.142)"/>
<use xlink:href="#stroke0_8_211" transform="translate(1.38883 2.40878) scale(0.00298273) rotate(-177.898)"/>
<use xlink:href="#stroke0_8_211" transform="translate(0.300243 1.78507) scale(0.00343185) rotate(-56.3884)"/>
<use xlink:href="#stroke0_8_211" transform="translate(1.42949 0.743808) scale(0.00385754) rotate(74.1555)"/>
<use xlink:href="#stroke0_8_211" transform="translate(1.50138 0.895703) scale(0.00275296) rotate(103.648)"/>
<use xlink:href="#stroke0_8_211" transform="translate(1.09873 1.78876) scale(0.00383278) rotate(-139.125)"/>
<use xlink:href="#stroke0_8_211" transform="translate(1.48027 0.419011) scale(0.00289544) rotate(54.2439)"/>
<use xlink:href="#stroke0_8_211" transform="translate(1.31015 1.68649) scale(0.0036131) rotate(-115.996)"/>
<use xlink:href="#stroke0_8_211" transform="translate(1.19648 1.35984) scale(0.00373619) rotate(-76.4988)"/>
<use xlink:href="#stroke0_8_211" transform="translate(1.74786 1.39019) scale(0.00261321) rotate(-95.1072)"/>
<use xlink:href="#stroke0_8_211" transform="translate(2.14397 1.77209) scale(0.00390474) rotate(-122.498)"/>
<use xlink:href="#stroke0_8_211" transform="translate(3.20182 1.24641) scale(0.00302199) rotate(154.745)"/>
<use xlink:href="#stroke0_8_211" transform="translate(2.30996 1.1302) scale(0.00269248) rotate(-62.1854)"/>
<use xlink:href="#stroke0_8_211" transform="translate(3.80063 1.30784) scale(0.00374552) rotate(154.943)"/>
<use xlink:href="#stroke0_8_211" transform="translate(2.72254 0.567332) scale(0.00383596) rotate(-15.3612)"/>
<use xlink:href="#stroke0_8_211" transform="translate(3.09066 0.806888) scale(0.00281217) rotate(-29.1037)"/>
<use xlink:href="#stroke0_8_211" transform="translate(4.63433 1.27941) scale(0.00386066) rotate(151.994)"/>
<use xlink:href="#stroke0_8_211" transform="translate(3.60287 0.879574) scale(0.00267254) rotate(-35.9479)"/>
<use xlink:href="#stroke0_8_211" transform="translate(3.94783 0.604721) scale(0.00272337) rotate(-3.74521)"/>
<use xlink:href="#stroke0_8_211" transform="translate(3.99737 1.27276) scale(0.00306318) rotate(-74.2325)"/>
<use xlink:href="#stroke0_8_211" transform="translate(5.23018 1.54168) scale(0.00333265) rotate(-176.431)"/>
<use xlink:href="#stroke0_8_211" transform="translate(5.76403 1.09791) scale(0.00342085) rotate(139.399)"/>
<use xlink:href="#stroke0_8_211" transform="translate(4.76475 1.19838) scale(0.00278987) rotate(-68.8081)"/>
<use xlink:href="#stroke0_8_211" transform="translate(4.94917 1.46652) scale(0.00369951) rotate(-86.3833)"/>
<use xlink:href="#stroke0_8_211" transform="translate(5.74052 0.27711) scale(0.00353741) rotate(34.6079)"/>
<use xlink:href="#stroke0_8_211" transform="translate(5.40015 0.862693) scale(0.00342796) rotate(-37.3724)"/>
<use xlink:href="#stroke0_8_211" transform="translate(6.64255 1.42921) scale(0.00260301) rotate(-175.35)"/>
<use xlink:href="#stroke0_8_211" transform="translate(6.31067 1.70456) scale(0.0036322) rotate(-119.078)"/>
<use xlink:href="#stroke0_8_211" transform="translate(6.21322 1.01753) scale(0.00289747) rotate(-50.2798)"/>
<use xlink:href="#stroke0_8_211" transform="translate(6.95586 0.44871) scale(0.00269825) rotate(34.5089)"/>
<use xlink:href="#stroke0_8_211" transform="translate(7.58184 0.428809) scale(0.00321498) rotate(71.7175)"/>
<use xlink:href="#stroke0_8_211" transform="translate(6.84902 0.862926) scale(0.00319543) rotate(-36.5646)"/>
<use xlink:href="#stroke0_8_211" transform="translate(7.1112 1.37245) scale(0.00359757) rotate(-78.7968)"/>
<use xlink:href="#stroke0_8_211" transform="translate(7.47364 1.57384) scale(0.00390787) rotate(-94.1162)"/>
<use xlink:href="#stroke0_8_211" transform="translate(8.30304 1.75766) scale(0.00368325) rotate(-136.826)"/>
<use xlink:href="#stroke0_8_211" transform="translate(9.39347 1.11953) scale(0.0038364) rotate(140.112)"/>
<use xlink:href="#stroke0_8_211" transform="translate(8.11079 1.16605) scale(0.00396865) rotate(-60.3254)"/>
<use xlink:href="#stroke0_8_211" transform="translate(9.46714 0.215152) scale(0.00400642) rotate(59.2527)"/>
<use xlink:href="#stroke0_8_211" transform="translate(10.2097 0.624718) scale(0.00384264) rotate(103.075)"/>
<use xlink:href="#stroke0_8_211" transform="translate(9.47123 0.272004) scale(0.00389875) rotate(16.5403)"/>
<use xlink:href="#stroke0_8_211" transform="translate(9.95733 1.6395) scale(0.0031619) rotate(-127.936)"/>
<use xlink:href="#stroke0_8_211" transform="translate(9.54874 1.17678) scale(0.00398779) rotate(-61.0348)"/>
<use xlink:href="#stroke0_8_211" transform="translate(10.3316 1.59964) scale(0.00324551) rotate(-112.46)"/>
<use xlink:href="#stroke0_8_211" transform="translate(11.3343 0.664979) scale(0.00283174) rotate(96.3141)"/>
<use xlink:href="#stroke0_8_211" transform="translate(10.4409 1.21996) scale(0.00334324) rotate(-67.2398)"/>
<use xlink:href="#stroke0_8_211" transform="translate(11.4791 1.6579) scale(0.00326287) rotate(-150.15)"/>
<use xlink:href="#stroke0_8_211" transform="translate(11.1669 0.518682) scale(0.00310491) rotate(0.276357)"/>
<use xlink:href="#stroke0_8_211" transform="translate(11.4158 1.45028) scale(0.00293154) rotate(-96.8703)"/>
<use xlink:href="#stroke0_8_211" transform="translate(12.608 1.10048) scale(0.00281959) rotate(141.376)"/>
<use xlink:href="#stroke0_8_211" transform="translate(12.7346 1.24254) scale(0.00265441) rotate(157.763)"/>
<use xlink:href="#stroke0_8_211" transform="translate(11.848 1.04611) scale(0.00298173) rotate(-52.9051)"/>
<use xlink:href="#stroke0_8_211" transform="translate(12.0781 0.665014) scale(0.00345456) rotate(-20.4847)"/>
<use xlink:href="#stroke0_8_211" transform="translate(12.3874 1.14698) scale(0.00279412) rotate(-63.4044)"/>
<use xlink:href="#stroke0_8_211" transform="translate(13.0548 0.420928) scale(0.00285877) rotate(31.2203)"/>
<use xlink:href="#stroke0_8_211" transform="translate(13.5527 0.484004) scale(0.00266116) rotate(60.9869)"/>
<use xlink:href="#stroke0_8_211" transform="translate(14.1665 1.37704) scale(0.00331857) rotate(164.913)"/>
<use xlink:href="#stroke0_8_211" transform="translate(14.3795 1.30924) scale(0.00302645) rotate(161.173)"/>
<use xlink:href="#stroke0_8_211" transform="translate(13.7568 1.54012) scale(0.00303345) rotate(-108.498)"/>
<use xlink:href="#stroke0_8_211" transform="translate(14.2953 0.445446) scale(0.00269482) rotate(42.1415)"/>
<use xlink:href="#stroke0_8_211" transform="translate(14.9502 0.647718) scale(0.00278853) rotate(93.536)"/>
<use xlink:href="#stroke0_8_211" transform="translate(14.5737 0.232826) scale(0.0038239) rotate(28.527)"/>
<use xlink:href="#stroke0_8_211" transform="translate(14.8095 1.55628) scale(0.00286342) rotate(-119.323)"/>
<use xlink:href="#stroke0_8_211" transform="translate(14.5391 1.27623) scale(0.00372997) rotate(-69.6863)"/>
<use xlink:href="#stroke0_8_211" transform="translate(16.0083 0.433353) scale(0.0035899) rotate(81.3217)"/>
<use xlink:href="#stroke0_8_211" transform="translate(15.3573 0.603933) scale(0.00280762) rotate(-5.3238)"/>
<use xlink:href="#stroke0_8_211" transform="translate(16.6747 1.40234) scale(0.00370771) rotate(163.226)"/>
<use xlink:href="#stroke0_8_211" transform="translate(16.9283 0.7108) scale(0.00337687) rotate(106.814)"/>
<use xlink:href="#stroke0_8_211" transform="translate(17.1107 1.35655) scale(0.00323547) rotate(163.78)"/>
<use xlink:href="#stroke0_8_211" transform="translate(16.3784 1.46786) scale(0.00301711) rotate(-97.4891)"/>
<use xlink:href="#stroke0_8_211" transform="translate(16.484 0.559713) scale(0.00341496) rotate(-9.80528)"/>
<use xlink:href="#stroke0_8_211" transform="translate(16.7327 0.918283) scale(0.00259731) rotate(-39.8017)"/>
<use xlink:href="#stroke0_8_211" transform="translate(16.8368 0.743366) scale(0.00341529) rotate(-27.1803)"/>
<use xlink:href="#stroke0_8_211" transform="translate(18.3311 1.14937) scale(0.00298589) rotate(145.473)"/>
<use xlink:href="#stroke0_8_211" transform="translate(17.519 1.34937) scale(0.00270297) rotate(-87.5012)"/>
<use xlink:href="#stroke0_8_211" transform="translate(17.558 1.13649) scale(0.00305264) rotate(-61.1438)"/>
<use xlink:href="#stroke0_8_211" transform="translate(18.479 1.78702) scale(0.00383054) rotate(-141.901)"/>
<use xlink:href="#stroke0_8_211" transform="translate(19.0337 0.472649) scale(0.00304387) rotate(74.0709)"/>
<use xlink:href="#stroke0_8_211" transform="translate(19.1929 0.270384) scale(0.00373084) rotate(59.5535)"/>
<use xlink:href="#stroke0_8_211" transform="translate(19.2348 1.75338) scale(0.00366069) rotate(-138.547)"/>
<use xlink:href="#stroke0_8_211" transform="translate(19.3567 1.60717) scale(0.00302056) rotate(-126.211)"/>
<use xlink:href="#stroke0_8_211" transform="translate(20.3997 1.34057) scale(0.00359738) rotate(158.792)"/>
<use xlink:href="#stroke0_8_211" transform="translate(20.6181 1.0644) scale(0.00304203) rotate(137.309)"/>
<use xlink:href="#stroke0_8_211" transform="translate(20.4259 1.668) scale(0.00336959) rotate(-154.173)"/>
<use xlink:href="#stroke0_8_211" transform="translate(19.8287 1.04604) scale(0.00322607) rotate(-52.5719)"/>
<use xlink:href="#stroke0_8_211" transform="translate(21.1471 1.40395) scale(0.00284743) rotate(174.981)"/>
<use xlink:href="#stroke0_8_211" transform="translate(21.0438 1.74369) scale(0.0036316) rotate(-144.302)"/>
<use xlink:href="#stroke0_8_211" transform="translate(21.9604 1.26954) scale(0.00369744) rotate(152.15)"/>
<use xlink:href="#stroke0_8_211" transform="translate(21.3212 0.373216) scale(0.00318204) rotate(24.5633)"/>
<use xlink:href="#stroke0_8_211" transform="translate(22.2543 1.43023) scale(0.00320475) rotate(172.12)"/>
<use xlink:href="#stroke0_8_211" transform="translate(22.4777 1.21881) scale(0.00265239) rotate(155.036)"/>
<use xlink:href="#stroke0_8_211" transform="translate(21.6015 0.519684) scale(0.0038217) rotate(-10.956)"/>
<use xlink:href="#stroke0_8_211" transform="translate(21.9108 1.0949) scale(0.00278543) rotate(-58.1248)"/>
<use xlink:href="#stroke0_8_211" transform="translate(22.5013 1.57281) scale(0.00293685) rotate(-119.986)"/>
<use xlink:href="#stroke0_8_211" transform="translate(22.1958 0.728801) scale(0.00391948) rotate(-28.9493)"/>
<use xlink:href="#stroke0_8_211" transform="translate(22.8406 0.57099) scale(0.00274977) rotate(0.700693)"/>
<use xlink:href="#stroke0_8_211" transform="translate(24.1055 1.30751) scale(0.00352374) rotate(156.494)"/>
<use xlink:href="#stroke0_8_211" transform="translate(23.1945 0.444802) scale(0.00373238) rotate(-2.31019)"/>
<use xlink:href="#stroke0_8_211" transform="translate(23.6388 1.50113) scale(0.00294545) rotate(-104.357)"/>
<use xlink:href="#stroke0_8_211" transform="translate(23.8367 1.42043) scale(0.00268188) rotate(-98.2132)"/>
<use xlink:href="#stroke0_8_211" transform="translate(24.6209 0.505994) scale(0.00263555) rotate(65.7919)"/>
<use xlink:href="#stroke0_8_211" transform="translate(24.4793 1.52685) scale(0.00262346) rotate(-125.967)"/>
<use xlink:href="#stroke0_8_211" transform="translate(24.5028 0.51421) scale(0.00277506) rotate(9.68172)"/>
<use xlink:href="#stroke0_8_211" transform="translate(24.421 1.30682) scale(0.0033404) rotate(-75.1028)"/>
<use xlink:href="#stroke0_8_211" transform="translate(26.0347 1.37278) scale(0.00394338) rotate(158.749)"/>
<use xlink:href="#stroke0_8_211" transform="translate(25.6153 1.58972) scale(0.00287264) rotate(-142.646)"/>
<use xlink:href="#stroke0_8_211" transform="translate(25.3498 0.444827) scale(0.00352713) rotate(1.29519)"/>
<use xlink:href="#stroke0_8_211" transform="translate(25.9405 0.183843) scale(0.0040466) rotate(29.9311)"/>
<use xlink:href="#stroke0_8_211" transform="translate(25.8269 1.40427) scale(0.00336224) rotate(-84.3449)"/>
<use xlink:href="#stroke0_8_211" transform="translate(26.3977 1.52404) scale(0.00277015) rotate(-115.404)"/>
<use xlink:href="#stroke0_8_211" transform="translate(27.3971 1.12478) scale(0.00280028) rotate(143.909)"/>
<use xlink:href="#stroke0_8_211" transform="translate(27.0658 1.69239) scale(0.0033644) rotate(-138.294)"/>
<use xlink:href="#stroke0_8_211" transform="translate(27.369 1.79123) scale(0.0038465) rotate(-140.389)"/>
<use xlink:href="#stroke0_8_211" transform="translate(27.252 1.58315) scale(0.00334642) rotate(-106.455)"/>
<use xlink:href="#stroke0_8_211" transform="translate(28.0846 0.187656) scale(0.00404762) rotate(54.1937)"/>
<use xlink:href="#stroke0_8_211" transform="translate(28.962 0.969854) scale(0.00372341) rotate(129.15)"/>
<use xlink:href="#stroke0_8_211" transform="translate(28.9872 1.36746) scale(0.00313212) rotate(166.16)"/>
<use xlink:href="#stroke0_8_211" transform="translate(28.728 0.350228) scale(0.00316075) rotate(44.0946)"/>
<use xlink:href="#stroke0_8_211" transform="translate(28.3093 1.48174) scale(0.00397011) rotate(-84.7238)"/>
<use xlink:href="#stroke0_8_211" transform="translate(29.1642 0.393039) scale(0.00296847) rotate(34.8796)"/>
<use xlink:href="#stroke0_8_211" transform="translate(29.7696 1.56899) scale(0.00313327) rotate(-166.664)"/>
<use xlink:href="#stroke0_8_211" transform="translate(29.1723 1.22749) scale(0.00274954) rotate(-72.3001)"/>
<use xlink:href="#stroke0_8_211" transform="translate(29.2028 0.700662) scale(0.00387974) rotate(-26.5776)"/>
<use xlink:href="#stroke0_8_211" transform="translate(29.8738 1.44501) scale(0.00265886) rotate(-103.01)"/>
<use xlink:href="#stroke0_8_211" transform="translate(29.9934 0.607352) scale(0.00273957) rotate(-4.45498)"/>
<use xlink:href="#stroke0_8_211" transform="translate(30.7032 0.3456) scale(0.00320272) rotate(48.2703)"/>
<use xlink:href="#stroke0_8_211" transform="translate(30.9459 0.474627) scale(0.00259894) rotate(52.2167)"/>
<use xlink:href="#stroke0_8_211" transform="translate(30.4255 0.824137) scale(0.0032417) rotate(-33.3113)"/>
<use xlink:href="#stroke0_8_211" transform="translate(32.0557 0.674798) scale(0.00382649) rotate(107.014)"/>
<use xlink:href="#stroke0_8_211" transform="translate(32.4584 1.10433) scale(0.00402085) rotate(138.647)"/>
<use xlink:href="#stroke0_8_211" transform="translate(32.5224 0.610274) scale(0.00347343) rotate(98.3668)"/>
<use xlink:href="#stroke0_8_211" transform="translate(31.7868 1.40547) scale(0.00266852) rotate(-96.1833)"/>
<use xlink:href="#stroke0_8_211" transform="translate(32.0403 0.268105) scale(0.0039862) rotate(14.5497)"/>
<use xlink:href="#stroke0_8_211" transform="translate(33.3783 0.530987) scale(0.00395355) rotate(96.2047)"/>
<use xlink:href="#stroke0_8_211" transform="translate(33.6584 0.927905) scale(0.00327227) rotate(125.259)"/>
<use xlink:href="#stroke0_8_211" transform="translate(33.0262 0.471283) scale(0.00273232) rotate(21.4972)"/>
<use xlink:href="#stroke0_8_211" transform="translate(32.7809 1.24868) scale(0.00349045) rotate(-68.8495)"/>
<use xlink:href="#stroke0_8_211" transform="translate(33.1636 1.51034) scale(0.00370042) rotate(-90.6726)"/>
<use xlink:href="#stroke0_8_211" transform="translate(34.6936 0.550547) scale(0.0039353) rotate(97.6972)"/>
<use xlink:href="#stroke0_8_211" transform="translate(33.8955 0.544562) scale(0.00289695) rotate(1.21425)"/>
<use xlink:href="#stroke0_8_211" transform="translate(34.2642 1.48431) scale(0.0025956) rotate(-113.64)"/>
<use xlink:href="#stroke0_8_211" transform="translate(35.0786 0.423462) scale(0.00331002) rotate(73.5884)"/>
<use xlink:href="#stroke0_8_211" transform="translate(34.5756 0.570882) scale(0.00275786) rotate(0.522422)"/>
<use xlink:href="#stroke0_8_211" transform="translate(34.6557 1.28599) scale(0.00281447) rotate(-78.1829)"/>
<use xlink:href="#stroke0_8_211" transform="translate(35.4959 1.62516) scale(0.00308574) rotate(-148.721)"/>
<use xlink:href="#stroke0_8_211" transform="translate(35.5281 0.30119) scale(0.00343337) rotate(32.8922)"/>
<use xlink:href="#stroke0_8_211" transform="translate(35.4451 1.49769) scale(0.00323322) rotate(-97.009)"/>
<use xlink:href="#stroke0_8_211" transform="translate(36.2541 1.68932) scale(0.00339543) rotate(-148.04)"/>
<use xlink:href="#stroke0_8_211" transform="translate(36.3422 1.70371) scale(0.00343069) rotate(-133.937)"/>
<use xlink:href="#stroke0_8_211" transform="translate(37.126 0.738213) scale(0.00270969) rotate(103.407)"/>
<use xlink:href="#stroke0_8_211" transform="translate(37.4875 1.27237) scale(0.00331054) rotate(154.968)"/>
<use xlink:href="#stroke0_8_211" transform="translate(37.8971 1.27334) scale(0.003918) rotate(151.22)"/>
<use xlink:href="#stroke0_8_211" transform="translate(37.8608 0.727848) scale(0.00264772) rotate(101.441)"/>
<use xlink:href="#stroke0_8_211" transform="translate(37.03 0.942373) scale(0.00275832) rotate(-42.7689)"/>
<use xlink:href="#stroke0_8_211" transform="translate(37.3539 1.33038) scale(0.00270954) rotate(-84.9276)"/>
<use xlink:href="#stroke0_8_211" transform="translate(38.5341 1.51664) scale(0.00347709) rotate(177.622)"/>
<use xlink:href="#stroke0_8_211" transform="translate(38.8415 0.847528) scale(0.00283035) rotate(116.23)"/>
<use xlink:href="#stroke0_8_211" transform="translate(38.372 1.67297) scale(0.00334258) rotate(-126.631)"/>
<use xlink:href="#stroke0_8_211" transform="translate(39.1757 0.557454) scale(0.00296693) rotate(84.9548)"/>
<use xlink:href="#stroke0_8_211" transform="translate(39.1215 0.471072) scale(0.00267346) rotate(57.3904)"/>
<use xlink:href="#stroke0_8_211" transform="translate(39.0066 0.264931) scale(0.00371028) rotate(25.697)"/>
<use xlink:href="#stroke0_8_211" transform="translate(39.976 1.14472) scale(0.00262792) rotate(146.926)"/>
<use xlink:href="#stroke0_8_211" transform="translate(40.278 1.02986) scale(0.00296731) rotate(134.207)"/>
<use xlink:href="#stroke0_8_211" transform="translate(40.4239 1.46325) scale(0.00336403) rotate(173.404)"/>
<use xlink:href="#stroke0_8_211" transform="translate(40.5291 0.314605) scale(0.00373729) rotate(68.3907)"/>
<use xlink:href="#stroke0_8_211" transform="translate(40.8997 1.26946) scale(0.00265758) rotate(160.921)"/>
<use xlink:href="#stroke0_8_211" transform="translate(40.0305 0.869408) scale(0.00303129) rotate(-36.5121)"/>
<use xlink:href="#stroke0_8_211" transform="translate(40.279 0.718109) scale(0.00322026) rotate(-23.423)"/>
<use xlink:href="#stroke0_8_211" transform="translate(41.5362 1.72919) scale(0.00400041) rotate(-166.257)"/>
<use xlink:href="#stroke0_8_211" transform="translate(40.7583 1.14783) scale(0.00336411) rotate(-60.9246)"/>
<use xlink:href="#stroke0_8_211" transform="translate(41.7469 0.335341) scale(0.00324292) rotate(46.5983)"/>
<use xlink:href="#stroke0_8_211" transform="translate(41.8879 0.447509) scale(0.00268723) rotate(38.8572)"/>
<use xlink:href="#stroke0_8_211" transform="translate(42.5536 0.648334) scale(0.00271823) rotate(92.4556)"/>
<use xlink:href="#stroke0_8_211" transform="translate(42.7374 0.464087) scale(0.00322729) rotate(77.613)"/>
<use xlink:href="#stroke0_8_211" transform="translate(41.8224 1.04059) scale(0.00385659) rotate(-51.5268)"/>
<use xlink:href="#stroke0_8_211" transform="translate(43.4131 1.64225) scale(0.00395578) rotate(-176.512)"/>
<use xlink:href="#stroke0_8_211" transform="translate(43.8784 0.913252) scale(0.00336311) rotate(124.205)"/>
<use xlink:href="#stroke0_8_211" transform="translate(43.5353 1.71021) scale(0.00347442) rotate(-145.262)"/>
<use xlink:href="#stroke0_8_211" transform="translate(43.2483 0.437189) scale(0.00357065) rotate(1.39078)"/>
<use xlink:href="#stroke0_8_211" transform="translate(44.1297 1.636) scale(0.00317703) rotate(-152.01)"/>
<use xlink:href="#stroke0_8_211" transform="translate(43.6396 1.20027) scale(0.00294283) rotate(-67.9048)"/>
<use xlink:href="#stroke0_8_211" transform="translate(44.3779 1.54836) scale(0.00267447) rotate(-133.652)"/>
<use xlink:href="#stroke0_8_211" transform="translate(44.6263 0.355631) scale(0.00313257) rotate(39.5969)"/>
<use xlink:href="#stroke0_8_211" transform="translate(45.0713 0.504906) scale(0.00260567) rotate(63.9991)"/>
<use xlink:href="#stroke0_8_211" transform="translate(45.3619 1.69062) scale(0.00358559) rotate(-159.221)"/>
<use xlink:href="#stroke0_8_211" transform="translate(45.8976 1.06907) scale(0.00271945) rotate(138.493)"/>
<use xlink:href="#stroke0_8_211" transform="translate(45.0828 0.406351) scale(0.00379562) rotate(0.866246)"/>
<use xlink:href="#stroke0_8_211" transform="translate(45.3671 0.670157) scale(0.00281109) rotate(-13.8354)"/>
<use xlink:href="#stroke0_8_211" transform="translate(45.5964 1.28426) scale(0.00259441) rotate(-80.762)"/>
<use xlink:href="#stroke0_8_211" transform="translate(45.6586 1.34239) scale(0.00344633) rotate(-77.4602)"/>
<use xlink:href="#stroke0_8_211" transform="translate(47.3481 1.14644) scale(0.00389699) rotate(141.925)"/>
<use xlink:href="#stroke0_8_211" transform="translate(47.5859 0.703855) scale(0.0038352) rotate(109.368)"/>
<use xlink:href="#stroke0_8_211" transform="translate(47.655 1.51606) scale(0.00355652) rotate(176.238)"/>
<use xlink:href="#stroke0_8_211" transform="translate(46.848 1.29098) scale(0.00296577) rotate(-77.0681)"/>
<use xlink:href="#stroke0_8_211" transform="translate(47.852 0.376155) scale(0.00323279) rotate(61.7413)"/>
<use xlink:href="#stroke0_8_211" transform="translate(48.4183 1.19144) scale(0.00289415) rotate(150.153)"/>
<use xlink:href="#stroke0_8_211" transform="translate(48.9059 0.862097) scale(0.00390825) rotate(121.532)"/>
<use xlink:href="#stroke0_8_211" transform="translate(48.9452 0.895864) scale(0.00283746) rotate(121.132)"/>
<use xlink:href="#stroke0_8_211" transform="translate(47.9719 1.01439) scale(0.00302329) rotate(-49.9207)"/>
<use xlink:href="#stroke0_8_211" transform="translate(49.1824 1.67153) scale(0.00364487) rotate(-165.057)"/>
<use xlink:href="#stroke0_8_211" transform="translate(49.0372 0.38763) scale(0.00299162) rotate(35.4588)"/>
<use xlink:href="#stroke0_8_211" transform="translate(48.7555 0.718977) scale(0.00312582) rotate(-22.6925)"/>
<use xlink:href="#stroke0_8_211" transform="translate(49.1778 0.616204) scale(0.00260691) rotate(-2.92273)"/>
<use xlink:href="#stroke0_8_211" transform="translate(49.7761 1.61317) scale(0.00297982) rotate(-139.521)"/>
<use xlink:href="#stroke0_8_211" transform="translate(50.2146 0.377164) scale(0.0031984) rotate(60.2814)"/>
<use xlink:href="#stroke0_8_211" transform="translate(49.8689 0.402861) scale(0.003456) rotate(8.4984)"/>
<use xlink:href="#stroke0_8_211" transform="translate(50.4822 1.60721) scale(0.00295163) rotate(-136.964)"/>
<use xlink:href="#stroke0_8_211" transform="translate(50.5431 1.58936) scale(0.00299887) rotate(-121.328)"/>
<use xlink:href="#stroke0_8_211" transform="translate(51.592 1.52285) scale(0.00388006) rotate(172.307)"/>
<use xlink:href="#stroke0_8_211" transform="translate(50.4728 1.01363) scale(0.00395751) rotate(-49.554)"/>
<use xlink:href="#stroke0_8_211" transform="translate(50.9539 0.858029) scale(0.00298569) rotate(-35.2366)"/>
<use xlink:href="#stroke0_8_211" transform="translate(51.8854 1.80051) scale(0.003905) rotate(-143.667)"/>
<use xlink:href="#stroke0_8_211" transform="translate(52.687 1.22225) scale(0.0031296) rotate(151.591)"/>
<use xlink:href="#stroke0_8_211" transform="translate(52.1264 1.73063) scale(0.00370269) rotate(-122.092)"/>
<use xlink:href="#stroke0_8_211" transform="translate(53.2624 0.920464) scale(0.00321112) rotate(124.492)"/>
<use xlink:href="#stroke0_8_211" transform="translate(53.3496 1.11823) scale(0.00259956) rotate(144.172)"/>
<use xlink:href="#stroke0_8_211" transform="translate(53.7864 0.884722) scale(0.00355766) rotate(122.346)"/>
<use xlink:href="#stroke0_8_211" transform="translate(53.7091 0.35326) scale(0.00362528) rotate(71.3114)"/>
<use xlink:href="#stroke0_8_211" transform="translate(52.9497 1.08291) scale(0.00316574) rotate(-55.9061)"/>
<use xlink:href="#stroke0_8_211" transform="translate(54.3489 1.53786) scale(0.0035575) rotate(178.681)"/>
<use xlink:href="#stroke0_8_211" transform="translate(54.0896 1.61561) scale(0.00299184) rotate(-137.463)"/>
<use xlink:href="#stroke0_8_211" transform="translate(53.8303 0.688029) scale(0.00283771) rotate(-16.3063)"/>
<use xlink:href="#stroke0_8_211" transform="translate(54.955 1.47255) scale(0.00303157) rotate(-179.358)"/>
<use xlink:href="#stroke0_8_211" transform="translate(54.3562 0.652531) scale(0.00259652) rotate(-8.03563)"/>
<use xlink:href="#stroke0_8_211" transform="translate(54.2471 1.03254) scale(0.00367196) rotate(-51.0635)"/>
<use xlink:href="#stroke0_8_211" transform="translate(56.0336 1.03764) scale(0.00365914) rotate(134.269)"/>
<use xlink:href="#stroke0_8_211" transform="translate(55.0928 1.57733) scale(0.0036034) rotate(-99.7195)"/>
<use xlink:href="#stroke0_8_211" transform="translate(56.2626 0.572819) scale(0.00302132) rotate(88.0105)"/>
<use xlink:href="#stroke0_8_211" transform="translate(55.3146 0.713667) scale(0.00395566) rotate(-28.0026)"/>
<use xlink:href="#stroke0_8_211" transform="translate(56.7185 0.568186) scale(0.00280822) rotate(83.0595)"/>
<use xlink:href="#stroke0_8_211" transform="translate(56.2262 1.54281) scale(0.00309493) rotate(-107.049)"/>
<use xlink:href="#stroke0_8_211" transform="translate(56.4868 1.56609) scale(0.00313637) rotate(-109.88)"/>
<use xlink:href="#stroke0_8_211" transform="translate(57.4457 0.504995) scale(0.00323648) rotate(83.4028)"/>
</g>
<defs>
<filter id="filter0_n_8_211" x="0.276611" y="0.270874" width="57.3229" height="57.3364" filterUnits="userSpaceOnUse" color-interpolation-filters="sRGB">
<feFlood flood-opacity="0" result="BackgroundImageFix"/>
<feBlend mode="normal" in="SourceGraphic" in2="BackgroundImageFix" result="shape"/>
<feTurbulence type="fractalNoise" baseFrequency="0.38759690523147583 0.38759690523147583" stitchTiles="stitch" numOctaves="3" result="noise" seed="9800" />
<feColorMatrix in="noise" type="luminanceToAlpha" result="alphaNoise" />
<feComponentTransfer in="alphaNoise" result="coloredNoise1">
<feFuncA type="discrete" tableValues="0 0 0 0 0 0 0 0 0 0 0 0 0 0 1 1 1 1 1 1 1 1 1 1 1 1 1 1 1 1 1 1 1 1 1 1 0 0 0 0 0 0 0 0 0 0 0 0 0 0 0 0 0 0 0 0 0 0 0 0 0 0 0 0 0 0 0 0 0 0 0 0 0 0 0 0 0 0 0 0 0 0 0 0 0 0 0 0 0 0 0 0 0 0 0 0 0 0 0 0 "/>
</feComponentTransfer>
<feComposite operator="in" in2="shape" in="coloredNoise1" result="noise1Clipped" />
<feComponentTransfer in="alphaNoise" result="coloredNoise2">
<feFuncA type="discrete" tableValues="0 0 0 0 0 0 0 0 0 0 0 0 0 0 0 0 0 0 0 0 0 0 0 0 0 0 0 0 0 0 0 0 0 0 0 0 0 0 0 0 0 0 0 0 0 0 0 0 0 0 0 0 0 0 0 0 0 0 0 0 0 0 0 0 1 1 1 1 1 1 1 1 1 1 1 1 1 1 1 1 1 1 1 1 1 1 0 0 0 0 0 0 0 0 0 0 0 0 0 0 "/>
</feComponentTransfer>
<feComposite operator="in" in2="shape" in="coloredNoise2" result="noise2Clipped" />
<feFlood flood-color="rgba(255, 255, 255, 0.75)" result="color1Flood" />
<feComposite operator="in" in2="noise1Clipped" in="color1Flood" result="color1" />
<feFlood flood-color="rgba(255, 255, 255, 0.25)" result="color2Flood" />
<feComposite operator="in" in2="noise2Clipped" in="color2Flood" result="color2" />
<feMerge result="effect1_noise_8_211">
<feMergeNode in="shape" />
<feMergeNode in="color1" />
<feMergeNode in="color2" />
</feMerge>
</filter>
<g id="stroke0_8_211" data-figma-scatter-ref="stroke0_8_211_ref" data-figma-scatter="f0.28_w0_aj180_sj0.25_r0_s0_sw1">
<path d="M103.731 283.547C110.352 281.363 112.807 281.348 116.121 283.468C130.109 292.418 124.85 308.718 107.972 308.727C90.3768 308.737 87.0606 289.046 103.731 283.547ZM139.837 35.4146C140.937 35.1787 142.512 35.114 143.337 35.271C144.162 35.4281 146.516 35.8391 148.567 36.1851C155.802 37.4051 160.179 46.6969 156.734 53.5249C152.924 61.0769 144.715 67.5811 140.859 66.1021C135.872 64.1881 137.625 69.8792 144.066 76.5152C148.306 80.8841 150.337 81.2685 150.337 77.7066C150.337 76.6574 151.622 74.3218 153.193 72.5161C154.823 70.6412 156.597 66.9201 157.324 63.8501C158.925 57.0892 160.788 55.2289 167.369 53.8169C177.32 51.6829 185.581 56.9263 183.752 64.2153C183.293 66.0423 183.901 67.6656 186.09 70.4585C196.859 84.1975 193.875 104.273 180.596 107.418C177.049 108.258 176.832 108.532 176.773 112.27C176.739 114.448 176.365 116.987 175.943 117.912C175.255 119.417 175.946 119.564 182.506 119.31C190.415 119.003 192.674 119.705 195.953 123.487C199.054 127.064 201.598 126.114 202.609 121.002C203.503 116.483 209.096 110.731 212.596 110.731C214.841 110.731 215.934 108.156 214.449 106.367C206.1 96.3056 222.234 73.6632 235.605 76.6792C241.572 78.0252 246.302 83.6302 246.367 89.4312C246.384 90.9712 247.505 94.4811 248.858 97.231C255.362 110.453 243.304 126.225 232.777 118.263C229.924 116.105 229.837 116.226 229.837 122.341C229.837 128.93 225.932 133.292 219.049 134.393C216.068 134.87 214.933 135.67 213.775 138.116C212.964 139.829 211.55 142.415 210.63 143.863C208.984 146.456 209.02 146.565 213.147 151.254C215.451 153.871 217.337 156.555 217.337 157.218C217.337 157.882 218.074 159.901 218.974 161.706C222.148 168.067 221.073 181.731 217.4 181.731C217.052 181.731 215.97 183.081 214.995 184.731C214.02 186.381 212.573 187.731 211.779 187.731C209.595 187.731 210.044 189.817 212.863 192.76C216.384 196.435 217.425 204.867 214.728 207.858C209.503 213.649 203.05 218.01 198.064 219.122C193.944 220.041 192.83 220.705 192.804 222.259C192.669 230.389 188.242 235.387 179.682 237.077C172.845 238.427 172.072 240.31 177.577 242.203C190.358 246.597 192.892 257.693 182.442 263.506C176.521 266.799 172.426 266.758 167.515 263.354C163.894 260.845 163.161 260.686 159.679 261.653C153.737 263.303 147.363 262.934 141.337 260.593C135.874 258.47 130.724 257.068 124.689 256.061C118.715 255.064 115.151 249.943 114.592 241.551C114.184 235.417 113.671 233.745 111.425 231.231C109.951 229.581 107.986 226.544 107.058 224.481C105.42 220.844 105.211 220.731 100.164 220.731C93.7935 220.731 89.0798 217.922 86.2168 212.42C83.0468 206.327 78.9427 207.336 78.8477 214.231C78.8097 216.981 78.4233 220.817 77.9883 222.755C77.2354 226.113 77.3507 226.324 80.4366 227.255C90.5004 230.29 90.3981 247.946 80.2881 252.934C55.9904 264.92 26.2411 240.473 47.875 226.298C49.556 225.196 50.1805 223.494 50.6895 218.626C51.0495 215.185 52.1298 211.262 53.0908 209.91C54.0507 208.557 55.2736 206.856 55.8086 206.127C56.5016 205.184 56.0161 204.003 54.1221 202.017C50.6273 198.355 49.3112 194.657 49.9981 190.428C50.3281 188.392 50.1033 186.705 49.4463 186.299C48.8364 185.922 48.337 184.345 48.3369 182.794C48.3369 181.244 47.6012 179.366 46.7032 178.621C43.9996 176.376 34.3369 162.856 34.3369 161.317C34.3368 160.529 32.7627 157.822 30.8389 155.302C28.915 152.781 27.3998 150.384 27.4727 149.975C28.4457 144.478 24.6467 141.425 20.4727 144.348C18.2547 145.902 11.2222 145.776 6.86624 144.104C-3.23648 140.227 -1.78745 115.126 8.56839 114.62C14.8594 114.313 23.3369 117.551 23.3369 120.261C23.3372 122.018 26.1103 124.731 27.9073 124.731C28.6933 124.731 29.3369 124.041 29.3369 123.198C29.3372 109.814 50.1851 94.3087 69.8369 93.0767C82.9305 92.2547 88.2617 93.4969 97.1895 99.4468C101.45 102.287 108.337 96.8837 108.337 90.7007C108.337 88.6598 109.172 86.4706 110.483 85.0747C112.734 82.6789 111.804 79.7313 108.796 79.731C106.403 79.731 103.556 73.5422 104.077 69.4702C105.046 61.8843 117.633 57.7673 123.289 63.1861C125.639 65.4379 126.708 65.8083 129.245 65.2515C133.054 64.4145 133.128 63.4739 129.587 60.895C121.36 54.902 128.195 37.9086 139.837 35.4146ZM227.337 203.429C239.094 199.654 252.722 207.291 252.722 217.653C252.722 228.495 231.921 239.44 223.927 232.806C221.665 230.929 220.403 232.363 221.012 236.118C222.097 242.802 213.511 254.731 207.616 254.731C194.246 254.731 188.8 246.232 194.457 234.198C198.202 226.231 204.453 223.784 213.238 226.847C217.536 228.345 217.88 227.687 215.921 221.697C213.052 212.925 216.89 206.783 227.337 203.429ZM179.7 192.695C179.049 192.044 178.051 192.413 176.774 193.779C168.37 202.768 165.063 203.713 156.506 199.571C149.746 196.298 146.45 201.459 151.961 206.689C154.209 208.822 154.482 209.744 154.038 213.682C153.54 218.098 153.664 218.344 158.682 222.967C163.836 227.716 163.837 227.716 164.351 222.867C164.987 216.872 169.522 209.969 174.077 208.066C177.094 206.805 177.337 206.359 177.337 202.046C177.337 199.092 177.95 196.711 179.013 195.536C180.117 194.315 180.352 193.347 179.7 192.695ZM13.7354 183.697C21.2304 180.362 25.9355 181.225 32.1055 187.066C40.5644 195.074 37.0287 205.612 24.6309 209.343C9.40689 213.925 -0.704596 190.124 13.7354 183.697ZM252.956 148.251C262.129 145.732 267.81 147.203 270.983 152.921C277.397 164.478 257.352 180.919 247.179 172.445C237.093 164.044 240.016 151.805 252.956 148.251ZM175.822 162.709C174.842 161.123 172.482 161.589 171.417 163.579C170.283 165.699 171.384 170.913 173.086 171.481C174.366 171.905 176.761 164.229 175.822 162.709ZM150.152 111.481C150.492 108.526 149.534 108.177 145.513 109.79C142.108 111.155 143.035 114.231 146.851 114.231C149.365 114.231 149.886 113.796 150.152 111.481ZM156.837 98.731C156.012 98.731 155.337 99.406 155.337 100.231C155.337 101.056 156.012 101.731 156.837 101.731C157.662 101.731 158.337 101.056 158.337 100.231C158.337 99.4061 157.662 98.7312 156.837 98.731ZM131.337 85.6382C131.337 82.8002 129.491 81.4004 127.429 82.6743C126.501 83.2473 126.685 84.2905 128.185 86.9605C129.273 88.9003 130.316 91.46 130.5 92.6489C130.685 93.8379 131.287 94.905 131.837 95.021C133.25 95.317 133.729 90.7224 132.422 89.4155C131.825 88.8185 131.337 87.1191 131.337 85.6382ZM79.8369 36.9214C89.8819 31.2487 102.893 46.8492 95.6582 55.8921C92.2024 60.211 91.2042 63.981 91.8701 70.1997C92.5322 76.3837 92.4821 76.5638 89.0371 80.3628C76.0391 94.6997 55.1533 78.5005 64.8242 61.5825C66.3391 58.9327 67.3172 55.6452 67.3242 53.1753C67.3402 47.7053 72.4159 41.1124 79.8369 36.9214ZM120.896 78.731C120.653 78.731 120.177 79.1811 119.837 79.731C119.497 80.2809 119.695 80.7309 120.277 80.731C120.859 80.731 121.337 80.281 121.337 79.731C121.337 79.181 121.139 78.731 120.896 78.731ZM205.485 39.4898C219.631 37.0418 227.598 50.9151 220.597 65.8081C213.393 81.13 190.339 77.7861 190.091 61.3823C189.98 54.0764 199.509 40.5238 205.485 39.4898ZM51.8369 14.5542C64.4449 5.86451 75.68 19.3671 68.6241 34.731C62.385 48.3167 41.3372 43.775 41.3369 28.8423C41.3369 26.0333 47.6529 17.4382 51.8369 14.5542ZM108.212 2.17043C121.43 -6.81137 141.546 14.0924 133.237 28.1743C132.084 30.1297 130.819 31.7302 130.427 31.731C130.035 31.731 128.813 32.5703 127.713 33.5962C119.456 41.2872 107.786 35.7761 103.367 22.0991C100.152 12.1461 101.463 6.75643 108.212 2.17043Z" fill="#538FDF"/>
</g>
<path id="stroke0_8_211_ref" d="M57 1C57 8.35402 55.5515 15.636 52.7373 22.4303C49.923 29.2245 45.7981 35.3979 40.598 40.598C35.3979 45.7981 29.2245 49.923 22.4303 52.7373C15.636 55.5515 8.35402 57 1 57L1 1H57Z"/>
</defs>
</svg>
