<svg width="58" height="58" viewBox="0 0 58 58" fill="none" xmlns="http://www.w3.org/2000/svg" xmlns:xlink="http://www.w3.org/1999/xlink">
<g filter="url(#filter0_n_7_52)">
<circle cx="29" cy="29" r="28" fill="#538FDF"/>
<use xlink:href="#stroke0_7_52" transform="translate(57.034 29.7647) scale(0.00371918) rotate(-141.14)"/>
<use xlink:href="#stroke0_7_52" transform="translate(57.1048 28.4919) scale(0.00392519) rotate(48.9642)"/>
<use xlink:href="#stroke0_7_52" transform="translate(57.4316 29.0738) scale(0.00319382) rotate(83.0926)"/>
<use xlink:href="#stroke0_7_52" transform="translate(57.0801 30.3847) scale(0.00289207) rotate(-147.412)"/>
<use xlink:href="#stroke0_7_52" transform="translate(56.6513 30.4813) scale(0.00278742) rotate(-103.388)"/>
<use xlink:href="#stroke0_7_52" transform="translate(57.1668 30.7319) scale(0.00266041) rotate(-159.218)"/>
<use xlink:href="#stroke0_7_52" transform="translate(57.7327 30.3431) scale(0.00378885) rotate(122.476)"/>
<use xlink:href="#stroke0_7_52" transform="translate(57.3274 30.3001) scale(0.00272273) rotate(83.9496)"/>
<use xlink:href="#stroke0_7_52" transform="translate(56.3829 30.8121) scale(0.0027352) rotate(-37.4452)"/>
<use xlink:href="#stroke0_7_52" transform="translate(57.0534 30.5155) scale(0.00312228) rotate(53.4659)"/>
<use xlink:href="#stroke0_7_52" transform="translate(56.6659 32.1033) scale(0.00360347) rotate(-120.304)"/>
<use xlink:href="#stroke0_7_52" transform="translate(56.1255 31.3305) scale(0.00402444) rotate(-23.0319)"/>
<use xlink:href="#stroke0_7_52" transform="translate(56.7279 31.2028) scale(0.00384699) rotate(33.0688)"/>
<use xlink:href="#stroke0_7_52" transform="translate(57.5351 32.5421) scale(0.00375273) rotate(151.649)"/>
<use xlink:href="#stroke0_7_52" transform="translate(57.1266 31.8158) scale(0.00404508) rotate(66.4253)"/>
<use xlink:href="#stroke0_7_52" transform="translate(57.2434 33.1109) scale(0.00280229) rotate(160.697)"/>
<use xlink:href="#stroke0_7_52" transform="translate(57.4242 33.4216) scale(0.00386939) rotate(156.815)"/>
<use xlink:href="#stroke0_7_52" transform="translate(56.0945 33.888) scale(0.00374347) rotate(-91.2001)"/>
<use xlink:href="#stroke0_7_52" transform="translate(57.0048 33.166) scale(0.00287306) rotate(81.8358)"/>
<use xlink:href="#stroke0_7_52" transform="translate(56.6818 33.1263) scale(0.00359679) rotate(49.3253)"/>
<use xlink:href="#stroke0_7_52" transform="translate(56.1431 34.8157) scale(0.00379677) rotate(-108.931)"/>
<use xlink:href="#stroke0_7_52" transform="translate(57.1538 34.0704) scale(0.00369678) rotate(104.319)"/>
<use xlink:href="#stroke0_7_52" transform="translate(56.2453 34.1429) scale(0.0026328) rotate(21.5637)"/>
<use xlink:href="#stroke0_7_52" transform="translate(56.3272 35.7032) scale(0.00392122) rotate(-135)"/>
<use xlink:href="#stroke0_7_52" transform="translate(55.686 34.803) scale(0.00356125) rotate(-17.9328)"/>
<use xlink:href="#stroke0_7_52" transform="translate(56.7445 35.9239) scale(0.00335769) rotate(176.577)"/>
<use xlink:href="#stroke0_7_52" transform="translate(56.5074 35.0211) scale(0.00358997) rotate(66.3722)"/>
<use xlink:href="#stroke0_7_52" transform="translate(56.7388 36.4353) scale(0.00375649) rotate(169.172)"/>
<use xlink:href="#stroke0_7_52" transform="translate(56.2534 36.6987) scale(0.00260244) rotate(-159.019)"/>
<use xlink:href="#stroke0_7_52" transform="translate(55.9794 35.8264) scale(0.00277117) rotate(38.0363)"/>
<use xlink:href="#stroke0_7_52" transform="translate(56.6897 36.4534) scale(0.00371563) rotate(117.742)"/>
<use xlink:href="#stroke0_7_52" transform="translate(56.4765 36.4898) scale(0.00355886) rotate(97.3118)"/>
<use xlink:href="#stroke0_7_52" transform="translate(56.0268 36.6118) scale(0.00274729) rotate(64.9008)"/>
<use xlink:href="#stroke0_7_52" transform="translate(55.2014 37.24) scale(0.00265585) rotate(-39.4673)"/>
<use xlink:href="#stroke0_7_52" transform="translate(55.1972 37.8621) scale(0.00284643) rotate(-83.4621)"/>
<use xlink:href="#stroke0_7_52" transform="translate(54.99 37.6129) scale(0.00306933) rotate(-36.809)"/>
<use xlink:href="#stroke0_7_52" transform="translate(56.0618 37.5077) scale(0.00344992) rotate(89.9436)"/>
<use xlink:href="#stroke0_7_52" transform="translate(55.3375 38.8116) scale(0.00297691) rotate(-127.994)"/>
<use xlink:href="#stroke0_7_52" transform="translate(54.8434 38.0161) scale(0.00326952) rotate(-10.2495)"/>
<use xlink:href="#stroke0_7_52" transform="translate(54.8154 38.379) scale(0.00266323) rotate(-19.4591)"/>
<use xlink:href="#stroke0_7_52" transform="translate(55.571 38.4266) scale(0.00260035) rotate(81.7922)"/>
<use xlink:href="#stroke0_7_52" transform="translate(54.8681 38.4911) scale(0.00296792) rotate(14.0721)"/>
<use xlink:href="#stroke0_7_52" transform="translate(55.2281 38.4765) scale(0.00400364) rotate(53.738)"/>
<use xlink:href="#stroke0_7_52" transform="translate(54.4982 39.1154) scale(0.00298605) rotate(-6.34358)"/>
<use xlink:href="#stroke0_7_52" transform="translate(55.615 40.0533) scale(0.00394732) rotate(151.616)"/>
<use xlink:href="#stroke0_7_52" transform="translate(53.9392 40.0474) scale(0.00387368) rotate(-48.6082)"/>
<use xlink:href="#stroke0_7_52" transform="translate(55.0033 40.6631) scale(0.00259523) rotate(178.239)"/>
<use xlink:href="#stroke0_7_52" transform="translate(55.3285 40.532) scale(0.00384712) rotate(133.802)"/>
<use xlink:href="#stroke0_7_52" transform="translate(55.0526 40.8315) scale(0.00306847) rotate(139.863)"/>
<use xlink:href="#stroke0_7_52" transform="translate(53.5122 40.7733) scale(0.00402478) rotate(-33.9219)"/>
<use xlink:href="#stroke0_7_52" transform="translate(53.5034 41.5495) scale(0.00363415) rotate(-72.523)"/>
<use xlink:href="#stroke0_7_52" transform="translate(54.286 42.22) scale(0.00367841) rotate(-155.675)"/>
<use xlink:href="#stroke0_7_52" transform="translate(54.2888 42.445) scale(0.00378739) rotate(-165.58)"/>
<use xlink:href="#stroke0_7_52" transform="translate(53.2023 41.5671) scale(0.00360838) rotate(-12.8931)"/>
<use xlink:href="#stroke0_7_52" transform="translate(54.299 42.7708) scale(0.00395299) rotate(170.781)"/>
<use xlink:href="#stroke0_7_52" transform="translate(53.6452 41.9015) scale(0.00286665) rotate(51.1011)"/>
<use xlink:href="#stroke0_7_52" transform="translate(54.1393 42.3303) scale(0.00395603) rotate(103.572)"/>
<use xlink:href="#stroke0_7_52" transform="translate(52.9713 43.3851) scale(0.0027056) rotate(-103.208)"/>
<use xlink:href="#stroke0_7_52" transform="translate(53.4189 43.5943) scale(0.00261353) rotate(-163.529)"/>
<use xlink:href="#stroke0_7_52" transform="translate(52.756 42.5939) scale(0.0038306) rotate(18.161)"/>
<use xlink:href="#stroke0_7_52" transform="translate(53.3979 44.2096) scale(0.00389307) rotate(-175.649)"/>
<use xlink:href="#stroke0_7_52" transform="translate(53.4113 43.5378) scale(0.00338074) rotate(108.708)"/>
<use xlink:href="#stroke0_7_52" transform="translate(52.1251 43.6418) scale(0.00308129) rotate(-12.5826)"/>
<use xlink:href="#stroke0_7_52" transform="translate(51.8981 43.9353) scale(0.00326377) rotate(-23.6935)"/>
<use xlink:href="#stroke0_7_52" transform="translate(51.5761 44.3271) scale(0.00384584) rotate(-40.0534)"/>
<use xlink:href="#stroke0_7_52" transform="translate(51.5149 44.4867) scale(0.00347144) rotate(-33.2116)"/>
<use xlink:href="#stroke0_7_52" transform="translate(51.4066 45.0316) scale(0.00324659) rotate(-61.0236)"/>
<use xlink:href="#stroke0_7_52" transform="translate(52.5575 45.364) scale(0.00338619) rotate(154.095)"/>
<use xlink:href="#stroke0_7_52" transform="translate(52.3147 45.0717) scale(0.00281266) rotate(109.477)"/>
<use xlink:href="#stroke0_7_52" transform="translate(52.3704 45.3536) scale(0.00363773) rotate(121.135)"/>
<use xlink:href="#stroke0_7_52" transform="translate(51.1552 45.0296) scale(0.00364249) rotate(16.6461)"/>
<use xlink:href="#stroke0_7_52" transform="translate(51.1947 46.767) scale(0.00402804) rotate(-131.767)"/>
<use xlink:href="#stroke0_7_52" transform="translate(51.1697 45.5881) scale(0.00272562) rotate(44.8162)"/>
<use xlink:href="#stroke0_7_52" transform="translate(51.4732 45.9408) scale(0.00292587) rotate(92.6501)"/>
<use xlink:href="#stroke0_7_52" transform="translate(51.3684 46.6848) scale(0.00260133) rotate(153.587)"/>
<use xlink:href="#stroke0_7_52" transform="translate(51.0804 46.1962) scale(0.00270553) rotate(78.4228)"/>
<use xlink:href="#stroke0_7_52" transform="translate(49.9652 47.1642) scale(0.00348352) rotate(-76.9982)"/>
<use xlink:href="#stroke0_7_52" transform="translate(50.9759 47.1016) scale(0.00261594) rotate(142.086)"/>
<use xlink:href="#stroke0_7_52" transform="translate(50.5656 47.6416) scale(0.00265345) rotate(-165.684)"/>
<use xlink:href="#stroke0_7_52" transform="translate(49.813 47.9869) scale(0.00358905) rotate(-110.411)"/>
<use xlink:href="#stroke0_7_52" transform="translate(50.5373 47.8854) scale(0.00316277) rotate(164.552)"/>
<use xlink:href="#stroke0_7_52" transform="translate(50.4252 47.7984) scale(0.00288695) rotate(140.778)"/>
<use xlink:href="#stroke0_7_52" transform="translate(49.4337 48.341) scale(0.00266998) rotate(-109.971)"/>
<use xlink:href="#stroke0_7_52" transform="translate(49.3755 47.3663) scale(0.00330905) rotate(27.1932)"/>
<use xlink:href="#stroke0_7_52" transform="translate(48.8772 47.9368) scale(0.00276766) rotate(-21.5606)"/>
<use xlink:href="#stroke0_7_52" transform="translate(49.1216 48.8769) scale(0.00264847) rotate(-125.781)"/>
<use xlink:href="#stroke0_7_52" transform="translate(49.6594 48.4123) scale(0.00274781) rotate(123.148)"/>
<use xlink:href="#stroke0_7_52" transform="translate(48.7066 48.1051) scale(0.00288664) rotate(17.2452)"/>
<use xlink:href="#stroke0_7_52" transform="translate(48.3844 48.131) scale(0.00387369) rotate(12.641)"/>
<use xlink:href="#stroke0_7_52" transform="translate(48.9659 48.3738) scale(0.00376503) rotate(72.9274)"/>
<use xlink:href="#stroke0_7_52" transform="translate(48.9086 49.5678) scale(0.00311462) rotate(164.626)"/>
<use xlink:href="#stroke0_7_52" transform="translate(47.9979 49.8661) scale(0.00263849) rotate(-115.204)"/>
<use xlink:href="#stroke0_7_52" transform="translate(48.7019 49.4743) scale(0.00316515) rotate(127.469)"/>
<use xlink:href="#stroke0_7_52" transform="translate(47.8915 50.237) scale(0.00274719) rotate(-139.129)"/>
<use xlink:href="#stroke0_7_52" transform="translate(47.7228 49.1598) scale(0.00323122) rotate(41.8634)"/>
<use xlink:href="#stroke0_7_52" transform="translate(46.9006 49.4529) scale(0.00401141) rotate(-6.31801)"/>
<use xlink:href="#stroke0_7_52" transform="translate(46.7736 50.1281) scale(0.00266427) rotate(-43.6144)"/>
<use xlink:href="#stroke0_7_52" transform="translate(46.4751 50.4437) scale(0.0033156) rotate(-58.6781)"/>
<use xlink:href="#stroke0_7_52" transform="translate(46.869 51.2315) scale(0.00360138) rotate(-132.683)"/>
<use xlink:href="#stroke0_7_52" transform="translate(47.3093 50.3373) scale(0.00314494) rotate(101.674)"/>
<use xlink:href="#stroke0_7_52" transform="translate(46.7517 51.6069) scale(0.00392366) rotate(-153.919)"/>
<use xlink:href="#stroke0_7_52" transform="translate(45.7664 50.6663) scale(0.00316128) rotate(-18.119)"/>
<use xlink:href="#stroke0_7_52" transform="translate(46.7972 51.3797) scale(0.00343116) rotate(150.299)"/>
<use xlink:href="#stroke0_7_52" transform="translate(45.1985 51.0141) scale(0.00376533) rotate(-25.5082)"/>
<use xlink:href="#stroke0_7_52" transform="translate(46.2664 51.5507) scale(0.00271561) rotate(140.077)"/>
<use xlink:href="#stroke0_7_52" transform="translate(44.9866 51.2945) scale(0.00305241) rotate(-19.8065)"/>
<use xlink:href="#stroke0_7_52" transform="translate(45.6842 52.4723) scale(0.00391245) rotate(-165.294)"/>
<use xlink:href="#stroke0_7_52" transform="translate(44.5325 51.4659) scale(0.00349237) rotate(-9.76592)"/>
<use xlink:href="#stroke0_7_52" transform="translate(44.1589 52.2255) scale(0.00354741) rotate(-60.9026)"/>
<use xlink:href="#stroke0_7_52" transform="translate(44.2836 52.658) scale(0.00288069) rotate(-97.9571)"/>
<use xlink:href="#stroke0_7_52" transform="translate(45.0773 51.9286) scale(0.00360119) rotate(97.1638)"/>
<use xlink:href="#stroke0_7_52" transform="translate(43.7045 52.5474) scale(0.00273418) rotate(-55.6587)"/>
<use xlink:href="#stroke0_7_52" transform="translate(43.3803 52.8703) scale(0.00354825) rotate(-69.6464)"/>
<use xlink:href="#stroke0_7_52" transform="translate(44.4623 52.8813) scale(0.00305465) rotate(144.146)"/>
<use xlink:href="#stroke0_7_52" transform="translate(43.0576 53.0015) scale(0.00297295) rotate(-61.585)"/>
<use xlink:href="#stroke0_7_52" transform="translate(43.9751 52.7097) scale(0.00279768) rotate(103.572)"/>
<use xlink:href="#stroke0_7_52" transform="translate(43.9865 53.366) scale(0.00378985) rotate(150.773)"/>
<use xlink:href="#stroke0_7_52" transform="translate(42.9045 53.7604) scale(0.00265177) rotate(-124.32)"/>
<use xlink:href="#stroke0_7_52" transform="translate(43.4683 53.6535) scale(0.00340229) rotate(157.404)"/>
<use xlink:href="#stroke0_7_52" transform="translate(42.3592 52.861) scale(0.00321929) rotate(18.3165)"/>
<use xlink:href="#stroke0_7_52" transform="translate(42.4949 54.377) scale(0.0038133) rotate(-146.714)"/>
<use xlink:href="#stroke0_7_52" transform="translate(41.8506 53.2453) scale(0.00275899) rotate(7.92479)"/>
<use xlink:href="#stroke0_7_52" transform="translate(41.3274 53.6704) scale(0.00318149) rotate(-34.9762)"/>
<use xlink:href="#stroke0_7_52" transform="translate(42.1538 54.4149) scale(0.00304234) rotate(-178.367)"/>
<use xlink:href="#stroke0_7_52" transform="translate(40.9226 53.6774) scale(0.00346018) rotate(-17.4476)"/>
<use xlink:href="#stroke0_7_52" transform="translate(40.7738 54.3014) scale(0.00275165) rotate(-63.9891)"/>
<use xlink:href="#stroke0_7_52" transform="translate(40.5635 54.1331) scale(0.002801) rotate(-37.5408)"/>
<use xlink:href="#stroke0_7_52" transform="translate(40.4208 54.4879) scale(0.00264337) rotate(-65.1545)"/>
<use xlink:href="#stroke0_7_52" transform="translate(41.2387 54.7573) scale(0.00287242) rotate(165.985)"/>
<use xlink:href="#stroke0_7_52" transform="translate(40.7353 55.3153) scale(0.00396213) rotate(-154.261)"/>
<use xlink:href="#stroke0_7_52" transform="translate(39.715 54.9211) scale(0.00303239) rotate(-75.4932)"/>
<use xlink:href="#stroke0_7_52" transform="translate(39.5468 54.3828) scale(0.00301337) rotate(-14.4576)"/>
<use xlink:href="#stroke0_7_52" transform="translate(39.7183 54.1104) scale(0.00353156) rotate(32.5323)"/>
<use xlink:href="#stroke0_7_52" transform="translate(39.0887 54.7769) scale(0.00264084) rotate(-33.4988)"/>
<use xlink:href="#stroke0_7_52" transform="translate(39.9009 55.4267) scale(0.00316055) rotate(172.232)"/>
<use xlink:href="#stroke0_7_52" transform="translate(39.7885 55.203) scale(0.00295211) rotate(142.395)"/>
<use xlink:href="#stroke0_7_52" transform="translate(38.9758 55.9865) scale(0.00391431) rotate(-140.593)"/>
<use xlink:href="#stroke0_7_52" transform="translate(38.0641 54.7946) scale(0.00379388) rotate(-9.73246)"/>
<use xlink:href="#stroke0_7_52" transform="translate(39.142 55.2097) scale(0.00367838) rotate(118.295)"/>
<use xlink:href="#stroke0_7_52" transform="translate(38.6809 55.9863) scale(0.00361242) rotate(175.033)"/>
<use xlink:href="#stroke0_7_52" transform="translate(38.4615 55.5087) scale(0.00265495) rotate(127.036)"/>
<use xlink:href="#stroke0_7_52" transform="translate(38.1225 56.0283) scale(0.00280339) rotate(177.039)"/>
<use xlink:href="#stroke0_7_52" transform="translate(37.1237 55.2688) scale(0.00276805) rotate(-2.21765)"/>
<use xlink:href="#stroke0_7_52" transform="translate(37.6269 55.1874) scale(0.00315516) rotate(71.5298)"/>
<use xlink:href="#stroke0_7_52" transform="translate(37.3587 56.5817) scale(0.00397305) rotate(-161.406)"/>
<use xlink:href="#stroke0_7_52" transform="translate(37.3133 55.6395) scale(0.00282837) rotate(104.698)"/>
<use xlink:href="#stroke0_7_52" transform="translate(35.8462 56.1034) scale(0.00353168) rotate(-59.3723)"/>
<use xlink:href="#stroke0_7_52" transform="translate(36.4256 55.4506) scale(0.00286798) rotate(51.2444)"/>
<use xlink:href="#stroke0_7_52" transform="translate(36.6103 56.5628) scale(0.00339098) rotate(173.649)"/>
<use xlink:href="#stroke0_7_52" transform="translate(35.8705 56.8231) scale(0.00324162) rotate(-140.444)"/>
<use xlink:href="#stroke0_7_52" transform="translate(36.2205 55.6964) scale(0.00402477) rotate(91.9891)"/>
<use xlink:href="#stroke0_7_52" transform="translate(35.8752 56.2875) scale(0.00263037) rotate(132.138)"/>
<use xlink:href="#stroke0_7_52" transform="translate(34.6009 56.2292) scale(0.00264922) rotate(-38.4473)"/>
<use xlink:href="#stroke0_7_52" transform="translate(35.6153 56.1739) scale(0.00358876) rotate(115.506)"/>
<use xlink:href="#stroke0_7_52" transform="translate(35.4047 56.4616) scale(0.00376733) rotate(133.459)"/>
<use xlink:href="#stroke0_7_52" transform="translate(33.8762 56.3418) scale(0.00259927) rotate(-33.491)"/>
<use xlink:href="#stroke0_7_52" transform="translate(33.5087 56.2521) scale(0.00345507) rotate(-26.0684)"/>
<use xlink:href="#stroke0_7_52" transform="translate(33.4885 57.0174) scale(0.00303271) rotate(-94.559)"/>
<use xlink:href="#stroke0_7_52" transform="translate(33.0515 56.6917) scale(0.00313165) rotate(-55.9839)"/>
<use xlink:href="#stroke0_7_52" transform="translate(33.6728 57.2098) scale(0.00292254) rotate(-159.074)"/>
<use xlink:href="#stroke0_7_52" transform="translate(33.3966 57.1993) scale(0.00262234) rotate(-154.028)"/>
<use xlink:href="#stroke0_7_52" transform="translate(32.6532 57.0981) scale(0.00271002) rotate(-92.8512)"/>
<use xlink:href="#stroke0_7_52" transform="translate(32.6941 56.2161) scale(0.00264484) rotate(24.6516)"/>
<use xlink:href="#stroke0_7_52" transform="translate(32.146 56.4099) scale(0.00295644) rotate(-12.82)"/>
<use xlink:href="#stroke0_7_52" transform="translate(32.9284 57.1466) scale(0.0030335) rotate(165.782)"/>
<use xlink:href="#stroke0_7_52" transform="translate(31.902 56.3722) scale(0.00260837) rotate(7.78511)"/>
<use xlink:href="#stroke0_7_52" transform="translate(31.7243 56.306) scale(0.00290616) rotate(15.1357)"/>
<use xlink:href="#stroke0_7_52" transform="translate(32.3266 56.8666) scale(0.00266771) rotate(131.679)"/>
<use xlink:href="#stroke0_7_52" transform="translate(31.5608 57.6149) scale(0.00354257) rotate(-140.015)"/>
<use xlink:href="#stroke0_7_52" transform="translate(31.8317 56.6908) scale(0.00277333) rotate(109.184)"/>
<use xlink:href="#stroke0_7_52" transform="translate(30.8042 57.3995) scale(0.00271293) rotate(-107.216)"/>
<use xlink:href="#stroke0_7_52" transform="translate(30.6729 56.2295) scale(0.00356274) rotate(26.9397)"/>
<use xlink:href="#stroke0_7_52" transform="translate(30.3555 57.5825) scale(0.0032631) rotate(-117.653)"/>
<use xlink:href="#stroke0_7_52" transform="translate(29.7755 56.626) scale(0.00324008) rotate(-17.7227)"/>
<use xlink:href="#stroke0_7_52" transform="translate(29.5979 57.0546) scale(0.0025954) rotate(-56.8634)"/>
<use xlink:href="#stroke0_7_52" transform="translate(30.6082 56.6851) scale(0.00382257) rotate(108.884)"/>
<use xlink:href="#stroke0_7_52" transform="translate(29.2746 56.4741) scale(0.00303104) rotate(7.73475)"/>
<use xlink:href="#stroke0_7_52" transform="translate(29.9858 57.0057) scale(0.00287043) rotate(132.224)"/>
<use xlink:href="#stroke0_7_52" transform="translate(28.3308 56.8386) scale(0.00397697) rotate(-37.2472)"/>
<use xlink:href="#stroke0_7_52" transform="translate(29.3981 56.7828) scale(0.00274913) rotate(108.859)"/>
<use xlink:href="#stroke0_7_52" transform="translate(28.8348 56.4214) scale(0.0029301) rotate(58.427)"/>
<use xlink:href="#stroke0_7_52" transform="translate(28.1852 57.6351) scale(0.00331654) rotate(-118.502)"/>
<use xlink:href="#stroke0_7_52" transform="translate(28.8175 57.4507) scale(0.00398256) rotate(165.848)"/>
<use xlink:href="#stroke0_7_52" transform="translate(27.9625 56.2758) scale(0.00344481) rotate(49.7797)"/>
<use xlink:href="#stroke0_7_52" transform="translate(27.0295 56.9868) scale(0.00287024) rotate(-50.5537)"/>
<use xlink:href="#stroke0_7_52" transform="translate(26.8335 57.4005) scale(0.00342785) rotate(-87.8732)"/>
<use xlink:href="#stroke0_7_52" transform="translate(26.8547 57.4464) scale(0.00282953) rotate(-109.159)"/>
<use xlink:href="#stroke0_7_52" transform="translate(26.3766 57.1055) scale(0.00281136) rotate(-66.8435)"/>
<use xlink:href="#stroke0_7_52" transform="translate(26.187 56.6018) scale(0.00293445) rotate(-18.1856)"/>
<use xlink:href="#stroke0_7_52" transform="translate(26.446 56.2271) scale(0.00321268) rotate(38.9099)"/>
<use xlink:href="#stroke0_7_52" transform="translate(26.9722 56.9354) scale(0.0037049) rotate(136.85)"/>
<use xlink:href="#stroke0_7_52" transform="translate(25.2109 56.5876) scale(0.00370217) rotate(-29.7435)"/>
<use xlink:href="#stroke0_7_52" transform="translate(25.4016 57.268) scale(0.00264668) rotate(-106.513)"/>
<use xlink:href="#stroke0_7_52" transform="translate(24.8352 57.2157) scale(0.00367547) rotate(-84.0218)"/>
<use xlink:href="#stroke0_7_52" transform="translate(25.5884 56.2913) scale(0.00289019) rotate(81.7233)"/>
<use xlink:href="#stroke0_7_52" transform="translate(25.6742 56.5206) scale(0.00359364) rotate(116.521)"/>
<use xlink:href="#stroke0_7_52" transform="translate(23.9451 56.9518) scale(0.00382772) rotate(-69.645)"/>
<use xlink:href="#stroke0_7_52" transform="translate(23.7735 56.4672) scale(0.00320977) rotate(-34.6551)"/>
<use xlink:href="#stroke0_7_52" transform="translate(23.5086 56.8686) scale(0.00346915) rotate(-72.1065)"/>
<use xlink:href="#stroke0_7_52" transform="translate(23.5622 57.107) scale(0.00324127) rotate(-107.015)"/>
<use xlink:href="#stroke0_7_52" transform="translate(23.1166 56.1289) scale(0.00321919) rotate(-15.2264)"/>
<use xlink:href="#stroke0_7_52" transform="translate(23.6311 57.1932) scale(0.00381012) rotate(-155.137)"/>
<use xlink:href="#stroke0_7_52" transform="translate(23.8669 56.5805) scale(0.00372513) rotate(146.344)"/>
<use xlink:href="#stroke0_7_52" transform="translate(23.3695 55.9867) scale(0.00290706) rotate(96.514)"/>
<use xlink:href="#stroke0_7_52" transform="translate(23.3394 56.4491) scale(0.00349987) rotate(145.42)"/>
<use xlink:href="#stroke0_7_52" transform="translate(22.7158 55.7398) scale(0.00276962) rotate(74.0619)"/>
<use xlink:href="#stroke0_7_52" transform="translate(22.2415 55.5435) scale(0.00303832) rotate(45.7912)"/>
<use xlink:href="#stroke0_7_52" transform="translate(22.5426 56.1743) scale(0.00274828) rotate(137.645)"/>
<use xlink:href="#stroke0_7_52" transform="translate(21.8307 56.8212) scale(0.00377625) rotate(-145.353)"/>
<use xlink:href="#stroke0_7_52" transform="translate(21.7042 56.5981) scale(0.00319335) rotate(-158.293)"/>
<use xlink:href="#stroke0_7_52" transform="translate(20.5866 55.8949) scale(0.00321318) rotate(-47.0313)"/>
<use xlink:href="#stroke0_7_52" transform="translate(20.3263 55.4846) scale(0.00368118) rotate(-20.6842)"/>
<use xlink:href="#stroke0_7_52" transform="translate(21.4454 55.9416) scale(0.00358069) rotate(145.747)"/>
<use xlink:href="#stroke0_7_52" transform="translate(20.1343 56.0912) scale(0.0026592) rotate(-96.071)"/>
<use xlink:href="#stroke0_7_52" transform="translate(20.537 56.3773) scale(0.00395593) rotate(-158.189)"/>
<use xlink:href="#stroke0_7_52" transform="translate(19.781 56.0542) scale(0.00280353) rotate(-114.19)"/>
<use xlink:href="#stroke0_7_52" transform="translate(19.7079 56.0972) scale(0.00315529) rotate(-130.022)"/>
<use xlink:href="#stroke0_7_52" transform="translate(18.9029 55.5868) scale(0.00340188) rotate(-66.4533)"/>
<use xlink:href="#stroke0_7_52" transform="translate(18.5264 55.2743) scale(0.00381316) rotate(-48.301)"/>
<use xlink:href="#stroke0_7_52" transform="translate(19.6332 55.1595) scale(0.00270128) rotate(128.133)"/>
<use xlink:href="#stroke0_7_52" transform="translate(19.0124 55.7536) scale(0.00320227) rotate(-151.263)"/>
<use xlink:href="#stroke0_7_52" transform="translate(18.1662 55.5493) scale(0.00343515) rotate(-97.3312)"/>
<use xlink:href="#stroke0_7_52" transform="translate(19.1279 55.2112) scale(0.00395058) rotate(152.963)"/>
<use xlink:href="#stroke0_7_52" transform="translate(18.5517 54.3633) scale(0.0029955) rotate(84.8576)"/>
<use xlink:href="#stroke0_7_52" transform="translate(17.1739 54.8824) scale(0.00360572) rotate(-61.8748)"/>
<use xlink:href="#stroke0_7_52" transform="translate(18.0468 55.2971) scale(0.00395869) rotate(-169.216)"/>
<use xlink:href="#stroke0_7_52" transform="translate(16.8484 54.6895) scale(0.00283168) rotate(-68.6444)"/>
<use xlink:href="#stroke0_7_52" transform="translate(17.6954 53.815) scale(0.00377297) rotate(84.2454)"/>
<use xlink:href="#stroke0_7_52" transform="translate(17.4341 54.6013) scale(0.0028809) rotate(164.671)"/>
<use xlink:href="#stroke0_7_52" transform="translate(16.5483 53.6323) scale(0.00283002) rotate(21.9474)"/>
<use xlink:href="#stroke0_7_52" transform="translate(16.388 54.8813) scale(0.0040043) rotate(-130.187)"/>
<use xlink:href="#stroke0_7_52" transform="translate(15.6202 54.1841) scale(0.00332339) rotate(-69.5047)"/>
<use xlink:href="#stroke0_7_52" transform="translate(16.7973 53.5551) scale(0.00401971) rotate(113.366)"/>
<use xlink:href="#stroke0_7_52" transform="translate(15.5421 54.3671) scale(0.00351423) rotate(-121.277)"/>
<use xlink:href="#stroke0_7_52" transform="translate(15.3397 52.866) scale(0.00344274) rotate(26.2944)"/>
<use xlink:href="#stroke0_7_52" transform="translate(15.9795 53.7139) scale(0.00365445) rotate(154.54)"/>
<use xlink:href="#stroke0_7_52" transform="translate(15.1782 54.0534) scale(0.00383111) rotate(-148.697)"/>
<use xlink:href="#stroke0_7_52" transform="translate(14.1428 53.4642) scale(0.00355649) rotate(-75.2879)"/>
<use xlink:href="#stroke0_7_52" transform="translate(13.8164 53.3759) scale(0.00402831) rotate(-76.5444)"/>
<use xlink:href="#stroke0_7_52" transform="translate(13.6129 52.9409) scale(0.00340697) rotate(-56.898)"/>
<use xlink:href="#stroke0_7_52" transform="translate(13.5111 52.6787) scale(0.00288201) rotate(-45.3049)"/>
<use xlink:href="#stroke0_7_52" transform="translate(13.7246 52.0877) scale(0.00266916) rotate(20.057)"/>
<use xlink:href="#stroke0_7_52" transform="translate(13.2874 52.0026) scale(0.00318156) rotate(-1.9906)"/>
<use xlink:href="#stroke0_7_52" transform="translate(13.9964 52.6593) scale(0.00260689) rotate(165.668)"/>
<use xlink:href="#stroke0_7_52" transform="translate(12.8206 52.0271) scale(0.0029004) rotate(-27.6564)"/>
<use xlink:href="#stroke0_7_52" transform="translate(13.5919 51.6785) scale(0.00286965) rotate(83.4987)"/>
<use xlink:href="#stroke0_7_52" transform="translate(13.6278 52.3957) scale(0.00371757) rotate(164.859)"/>
<use xlink:href="#stroke0_7_52" transform="translate(13.1407 52.3111) scale(0.00292152) rotate(-175.149)"/>
<use xlink:href="#stroke0_7_52" transform="translate(11.9775 51.9771) scale(0.0032885) rotate(-73.6887)"/>
<use xlink:href="#stroke0_7_52" transform="translate(12.5303 52.178) scale(0.00314619) rotate(-150.883)"/>
<use xlink:href="#stroke0_7_52" transform="translate(12.8235 51.8794) scale(0.00396625) rotate(168.823)"/>
<use xlink:href="#stroke0_7_52" transform="translate(12.6023 50.8334) scale(0.00368107) rotate(101.878)"/>
<use xlink:href="#stroke0_7_52" transform="translate(12.3527 50.9088) scale(0.00305261) rotate(118.477)"/>
<use xlink:href="#stroke0_7_52" transform="translate(11.6566 50.0823) scale(0.0039422) rotate(50.2831)"/>
<use xlink:href="#stroke0_7_52" transform="translate(10.6533 50.5932) scale(0.003277) rotate(-38.5238)"/>
<use xlink:href="#stroke0_7_52" transform="translate(10.4703 50.1621) scale(0.00363599) rotate(-17.9383)"/>
<use xlink:href="#stroke0_7_52" transform="translate(10.3113 50.7134) scale(0.00334758) rotate(-78.2526)"/>
<use xlink:href="#stroke0_7_52" transform="translate(11.2373 50.5795) scale(0.00306126) rotate(166.887)"/>
<use xlink:href="#stroke0_7_52" transform="translate(11.2202 50.0583) scale(0.00329802) rotate(131.7)"/>
<use xlink:href="#stroke0_7_52" transform="translate(10.5637 50.5651) scale(0.00347257) rotate(-156.136)"/>
<use xlink:href="#stroke0_7_52" transform="translate(10.3444 50.359) scale(0.00327475) rotate(-154.705)"/>
<use xlink:href="#stroke0_7_52" transform="translate(10.5745 49.3704) scale(0.00301299) rotate(114.63)"/>
<use xlink:href="#stroke0_7_52" transform="translate(10.0798 48.8405) scale(0.00298182) rotate(67.0984)"/>
<use xlink:href="#stroke0_7_52" transform="translate(9.16229 49.4666) scale(0.00263789) rotate(-72.5646)"/>
<use xlink:href="#stroke0_7_52" transform="translate(10.0039 48.6082) scale(0.00340158) rotate(88.3258)"/>
<use xlink:href="#stroke0_7_52" transform="translate(8.70135 49.1338) scale(0.00316649) rotate(-68.5741)"/>
<use xlink:href="#stroke0_7_52" transform="translate(9.45762 48.0433) scale(0.00368453) rotate(67.0876)"/>
<use xlink:href="#stroke0_7_52" transform="translate(9.13389 47.7763) scale(0.00376646) rotate(56.6599)"/>
<use xlink:href="#stroke0_7_52" transform="translate(8.38906 47.7745) scale(0.0032166) rotate(8.85423)"/>
<use xlink:href="#stroke0_7_52" transform="translate(8.22238 48.7914) scale(0.00356139) rotate(-110.487)"/>
<use xlink:href="#stroke0_7_52" transform="translate(8.33549 48.5923) scale(0.00309013) rotate(-133.213)"/>
<use xlink:href="#stroke0_7_52" transform="translate(7.73028 47.0785) scale(0.0040472) rotate(6.08119)"/>
<use xlink:href="#stroke0_7_52" transform="translate(8.52828 47.33) scale(0.00263083) rotate(105.276)"/>
<use xlink:href="#stroke0_7_52" transform="translate(8.279 47.0294) scale(0.00260535) rotate(84.8453)"/>
<use xlink:href="#stroke0_7_52" transform="translate(7.6474 46.4907) scale(0.00366501) rotate(33.3302)"/>
<use xlink:href="#stroke0_7_52" transform="translate(7.05452 46.747) scale(0.00297417) rotate(-19.4822)"/>
<use xlink:href="#stroke0_7_52" transform="translate(6.97922 46.1595) scale(0.00394915) rotate(8.55907)"/>
<use xlink:href="#stroke0_7_52" transform="translate(7.21431 47.224) scale(0.00283297) rotate(-134.479)"/>
<use xlink:href="#stroke0_7_52" transform="translate(6.56194 46.7764) scale(0.0030785) rotate(-77.8229)"/>
<use xlink:href="#stroke0_7_52" transform="translate(7.48377 46.7095) scale(0.00328476) rotate(171.186)"/>
<use xlink:href="#stroke0_7_52" transform="translate(6.12437 46.2989) scale(0.00348785) rotate(-66.9231)"/>
<use xlink:href="#stroke0_7_52" transform="translate(7.04229 46.3759) scale(0.00308406) rotate(-176.343)"/>
<use xlink:href="#stroke0_7_52" transform="translate(5.91467 45.5147) scale(0.00303044) rotate(-32.5079)"/>
<use xlink:href="#stroke0_7_52" transform="translate(6.11596 44.9605) scale(0.00293634) rotate(15.5966)"/>
<use xlink:href="#stroke0_7_52" transform="translate(6.30737 45.9434) scale(0.00304372) rotate(-144.278)"/>
<use xlink:href="#stroke0_7_52" transform="translate(5.49941 44.8186) scale(0.00329488) rotate(-21.9004)"/>
<use xlink:href="#stroke0_7_52" transform="translate(6.55945 44.7543) scale(0.00299439) rotate(115.15)"/>
<use xlink:href="#stroke0_7_52" transform="translate(5.1748 44.4679) scale(0.00341769) rotate(-27.1472)"/>
<use xlink:href="#stroke0_7_52" transform="translate(6.17753 44.9985) scale(0.00336818) rotate(176.132)"/>
<use xlink:href="#stroke0_7_52" transform="translate(5.19484 43.5574) scale(0.00387775) rotate(16.3274)"/>
<use xlink:href="#stroke0_7_52" transform="translate(5.96406 43.7007) scale(0.00328796) rotate(100.251)"/>
<use xlink:href="#stroke0_7_52" transform="translate(5.70039 43.4264) scale(0.00297519) rotate(87.7586)"/>
<use xlink:href="#stroke0_7_52" transform="translate(5.67342 43.8159) scale(0.00267562) rotate(147.202)"/>
<use xlink:href="#stroke0_7_52" transform="translate(4.35118 43.3061) scale(0.00336242) rotate(-34.9421)"/>
<use xlink:href="#stroke0_7_52" transform="translate(4.22972 43.732) scale(0.00399388) rotate(-86.3204)"/>
<use xlink:href="#stroke0_7_52" transform="translate(4.29115 42.6796) scale(0.00274165) rotate(-13.0545)"/>
<use xlink:href="#stroke0_7_52" transform="translate(4.16342 42.1397) scale(0.00387025) rotate(5.9902)"/>
<use xlink:href="#stroke0_7_52" transform="translate(5.0382 43.1093) scale(0.00390883) rotate(177.47)"/>
<use xlink:href="#stroke0_7_52" transform="translate(4.60935 41.542) scale(0.00378424) rotate(61.6819)"/>
<use xlink:href="#stroke0_7_52" transform="translate(3.53437 41.6206) scale(0.003784) rotate(-17.8927)"/>
<use xlink:href="#stroke0_7_52" transform="translate(4.4888 42.3588) scale(0.0034831) rotate(-173.729)"/>
<use xlink:href="#stroke0_7_52" transform="translate(3.88906 42.1305) scale(0.00280358) rotate(-130.761)"/>
<use xlink:href="#stroke0_7_52" transform="translate(4.10961 42.0846) scale(0.0038656) rotate(-157.3)"/>
<use xlink:href="#stroke0_7_52" transform="translate(4.21621 40.8341) scale(0.00264363) rotate(101.205)"/>
<use xlink:href="#stroke0_7_52" transform="translate(3.49365 40.2451) scale(0.00328842) rotate(28.1287)"/>
<use xlink:href="#stroke0_7_52" transform="translate(3.87057 39.8993) scale(0.00400917) rotate(65.6292)"/>
<use xlink:href="#stroke0_7_52" transform="translate(4.05569 40.7363) scale(0.0035473) rotate(159.785)"/>
<use xlink:href="#stroke0_7_52" transform="translate(3.73384 39.6165) scale(0.00331579) rotate(80.0239)"/>
<use xlink:href="#stroke0_7_52" transform="translate(2.59538 39.8391) scale(0.00302839) rotate(-40.4713)"/>
<use xlink:href="#stroke0_7_52" transform="translate(2.64415 40.166) scale(0.00321055) rotate(-92.4565)"/>
<use xlink:href="#stroke0_7_52" transform="translate(2.46832 39.604) scale(0.00279733) rotate(-59.3513)"/>
<use xlink:href="#stroke0_7_52" transform="translate(3.39003 39.7466) scale(0.00308417) rotate(177.603)"/>
<use xlink:href="#stroke0_7_52" transform="translate(3.33397 38.6517) scale(0.00305295) rotate(89.6034)"/>
<use xlink:href="#stroke0_7_52" transform="translate(2.11594 38.483) scale(0.00362456) rotate(-20.6684)"/>
<use xlink:href="#stroke0_7_52" transform="translate(1.94285 38.2451) scale(0.00388332) rotate(-25.104)"/>
<use xlink:href="#stroke0_7_52" transform="translate(2.87409 37.7375) scale(0.00312547) rotate(68.0186)"/>
<use xlink:href="#stroke0_7_52" transform="translate(2.56451 37.2247) scale(0.00404608) rotate(46.0968)"/>
<use xlink:href="#stroke0_7_52" transform="translate(2.35949 37.1723) scale(0.00305103) rotate(36.773)"/>
<use xlink:href="#stroke0_7_52" transform="translate(2.81379 37.9133) scale(0.00279363) rotate(166.089)"/>
<use xlink:href="#stroke0_7_52" transform="translate(2.17706 37.9509) scale(0.00280439) rotate(-128.693)"/>
<use xlink:href="#stroke0_7_52" transform="translate(2.70898 37.5551) scale(0.00306453) rotate(169.163)"/>
<use xlink:href="#stroke0_7_52" transform="translate(2.70754 37.1141) scale(0.00283844) rotate(147.33)"/>
<use xlink:href="#stroke0_7_52" transform="translate(1.85781 37.3079) scale(0.00296275) rotate(-116.821)"/>
<use xlink:href="#stroke0_7_52" transform="translate(1.86291 35.9298) scale(0.00298653) rotate(26.3742)"/>
<use xlink:href="#stroke0_7_52" transform="translate(1.62488 35.7138) scale(0.0032535) rotate(11.4259)"/>
<use xlink:href="#stroke0_7_52" transform="translate(2.20065 35.4099) scale(0.00343402) rotate(67.1011)"/>
<use xlink:href="#stroke0_7_52" transform="translate(1.48928 36.2612) scale(0.00272957) rotate(-100.443)"/>
<use xlink:href="#stroke0_7_52" transform="translate(2.37435 35.0857) scale(0.00376468) rotate(91.8011)"/>
<use xlink:href="#stroke0_7_52" transform="translate(2.26677 35.8398) scale(0.00375995) rotate(175.574)"/>
<use xlink:href="#stroke0_7_52" transform="translate(1.22201 34.4931) scale(0.00336347) rotate(2.988)"/>
<use xlink:href="#stroke0_7_52" transform="translate(2.13091 34.5452) scale(0.00285867) rotate(105.405)"/>
<use xlink:href="#stroke0_7_52" transform="translate(1.46368 35.1359) scale(0.00266054) rotate(-128.521)"/>
<use xlink:href="#stroke0_7_52" transform="translate(1.77339 34.919) scale(0.00284591) rotate(-164.379)"/>
<use xlink:href="#stroke0_7_52" transform="translate(1.04113 34.6392) scale(0.00311269) rotate(-95.825)"/>
<use xlink:href="#stroke0_7_52" transform="translate(0.997199 34.4796) scale(0.00342723) rotate(-100.587)"/>
<use xlink:href="#stroke0_7_52" transform="translate(1.83588 33.2967) scale(0.002877) rotate(90.1824)"/>
<use xlink:href="#stroke0_7_52" transform="translate(0.614618 33.4143) scale(0.0035791) rotate(-46.3231)"/>
<use xlink:href="#stroke0_7_52" transform="translate(1.7207 32.8013) scale(0.00278142) rotate(86.7593)"/>
<use xlink:href="#stroke0_7_52" transform="translate(1.32103 33.7262) scale(0.00373607) rotate(-141.829)"/>
<use xlink:href="#stroke0_7_52" transform="translate(1.96335 32.5045) scale(0.00361903) rotate(117.676)"/>
<use xlink:href="#stroke0_7_52" transform="translate(1.47667 31.9573) scale(0.00269184) rotate(70.2341)"/>
<use xlink:href="#stroke0_7_52" transform="translate(1.08786 31.4535) scale(0.00366343) rotate(34.3047)"/>
<use xlink:href="#stroke0_7_52" transform="translate(0.409741 32.217) scale(0.00388474) rotate(-70.811)"/>
<use xlink:href="#stroke0_7_52" transform="translate(0.560913 31.1445) scale(0.0036093) rotate(-7.65338)"/>
<use xlink:href="#stroke0_7_52" transform="translate(0.777552 31.8288) scale(0.00262942) rotate(-101.89)"/>
<use xlink:href="#stroke0_7_52" transform="translate(0.874686 31.7817) scale(0.00310711) rotate(-119.545)"/>
<use xlink:href="#stroke0_7_52" transform="translate(0.53767 30.6929) scale(0.00285938) rotate(-22.658)"/>
<use xlink:href="#stroke0_7_52" transform="translate(0.44446 31.1542) scale(0.00367828) rotate(-85.3689)"/>
<use xlink:href="#stroke0_7_52" transform="translate(1.13594 29.9122) scale(0.00269294) rotate(51.6585)"/>
<use xlink:href="#stroke0_7_52" transform="translate(1.57444 30.3713) scale(0.00271973) rotate(143.675)"/>
<use xlink:href="#stroke0_7_52" transform="translate(0.936148 29.4265) scale(0.00298736) rotate(33.6786)"/>
<use xlink:href="#stroke0_7_52" transform="translate(0.40485 30.2955) scale(0.00388232) rotate(-89.3053)"/>
<use xlink:href="#stroke0_7_52" transform="translate(1.61087 29.5325) scale(0.00294716) rotate(133.157)"/>
<use xlink:href="#stroke0_7_52" transform="translate(0.651501 28.775) scale(0.00301073) rotate(7.01904)"/>
<use xlink:href="#stroke0_7_52" transform="translate(1.79273 28.8437) scale(0.00394603) rotate(118.862)"/>
<use xlink:href="#stroke0_7_52" transform="translate(1.49075 28.5425) scale(0.00262111) rotate(106.639)"/>
<use xlink:href="#stroke0_7_52" transform="translate(0.597142 27.9984) scale(0.00329869) rotate(4.61904)"/>
<use xlink:href="#stroke0_7_52" transform="translate(0.353938 28.4642) scale(0.00329184) rotate(-63.4354)"/>
<use xlink:href="#stroke0_7_52" transform="translate(1.41288 27.3612) scale(0.00374711) rotate(72.3152)"/>
<use xlink:href="#stroke0_7_52" transform="translate(1.51284 28.3164) scale(0.00365411) rotate(-178.763)"/>
<use xlink:href="#stroke0_7_52" transform="translate(0.76399 27.0377) scale(0.00262802) rotate(10.8027)"/>
<use xlink:href="#stroke0_7_52" transform="translate(0.536613 27.652) scale(0.00307161) rotate(-84.0356)"/>
<use xlink:href="#stroke0_7_52" transform="translate(0.530678 27.241) scale(0.0027392) rotate(-66.8996)"/>
<use xlink:href="#stroke0_7_52" transform="translate(0.561268 27.1786) scale(0.00300218) rotate(-81.2169)"/>
<use xlink:href="#stroke0_7_52" transform="translate(1.52062 27.2742) scale(0.00392585) rotate(-169.727)"/>
<use xlink:href="#stroke0_7_52" transform="translate(1.64965 25.9828) scale(0.00302245) rotate(98.6308)"/>
<use xlink:href="#stroke0_7_52" transform="translate(0.614484 25.9438) scale(0.00270545) rotate(-31.9933)"/>
<use xlink:href="#stroke0_7_52" transform="translate(0.379071 25.8009) scale(0.00387523) rotate(-44.8728)"/>
<use xlink:href="#stroke0_7_52" transform="translate(1.74785 25.391) scale(0.00282605) rotate(110.5)"/>
<use xlink:href="#stroke0_7_52" transform="translate(0.750441 25.7972) scale(0.00311893) rotate(-89.8925)"/>
<use xlink:href="#stroke0_7_52" transform="translate(0.806282 25.6557) scale(0.00340096) rotate(-97.5809)"/>
<use xlink:href="#stroke0_7_52" transform="translate(0.724796 24.7269) scale(0.00290304) rotate(-32.7203)"/>
<use xlink:href="#stroke0_7_52" transform="translate(0.868735 24.4121) scale(0.00260296) rotate(-18.1825)"/>
<use xlink:href="#stroke0_7_52" transform="translate(0.991694 24.0901) scale(0.00263022) rotate(-1.78246)"/>
<use xlink:href="#stroke0_7_52" transform="translate(1.81544 23.9122) scale(0.00272223) rotate(89.9426)"/>
<use xlink:href="#stroke0_7_52" transform="translate(1.89065 24.4103) scale(0.00275696) rotate(167.355)"/>
<use xlink:href="#stroke0_7_52" transform="translate(1.97485 23.7014) scale(0.00260621) rotate(112.391)"/>
<use xlink:href="#stroke0_7_52" transform="translate(1.89929 23.2893) scale(0.00268806) rotate(86.8282)"/>
<use xlink:href="#stroke0_7_52" transform="translate(2.21748 23.0606) scale(0.00371768) rotate(101.795)"/>
<use xlink:href="#stroke0_7_52" transform="translate(2.20478 23.3487) scale(0.00302216) rotate(146.489)"/>
<use xlink:href="#stroke0_7_52" transform="translate(2.4435 22.9844) scale(0.0038186) rotate(135.264)"/>
<use xlink:href="#stroke0_7_52" transform="translate(2.07046 22.1296) scale(0.00314497) rotate(74.4043)"/>
<use xlink:href="#stroke0_7_52" transform="translate(1.40808 23.1159) scale(0.0038643) rotate(-110.771)"/>
<use xlink:href="#stroke0_7_52" transform="translate(1.60976 21.3369) scale(0.00399291) rotate(24.3401)"/>
<use xlink:href="#stroke0_7_52" transform="translate(2.26833 21.4513) scale(0.00268619) rotate(81.2191)"/>
<use xlink:href="#stroke0_7_52" transform="translate(1.34084 21.3471) scale(0.00341399) rotate(-22.9829)"/>
<use xlink:href="#stroke0_7_52" transform="translate(1.47939 21.7349) scale(0.00315487) rotate(-78.6973)"/>
<use xlink:href="#stroke0_7_52" transform="translate(2.7075 21.4923) scale(0.00329775) rotate(159.478)"/>
<use xlink:href="#stroke0_7_52" transform="translate(1.63093 21.3929) scale(0.00351604) rotate(-88.9693)"/>
<use xlink:href="#stroke0_7_52" transform="translate(1.53936 20.3329) scale(0.00385658) rotate(-24.573)"/>
<use xlink:href="#stroke0_7_52" transform="translate(1.76855 20.6692) scale(0.00308165) rotate(-73.3699)"/>
<use xlink:href="#stroke0_7_52" transform="translate(2.00304 20.6159) scale(0.00289096) rotate(-94.75)"/>
<use xlink:href="#stroke0_7_52" transform="translate(2.37016 19.1214) scale(0.00401402) rotate(32.4212)"/>
<use xlink:href="#stroke0_7_52" transform="translate(2.72959 20.2799) scale(0.00296747) rotate(-152.159)"/>
<use xlink:href="#stroke0_7_52" transform="translate(2.46096 18.9716) scale(0.00266915) rotate(20.3327)"/>
<use xlink:href="#stroke0_7_52" transform="translate(2.38395 19.9013) scale(0.00355874) rotate(-109.502)"/>
<use xlink:href="#stroke0_7_52" transform="translate(3.52912 18.8887) scale(0.0034298) rotate(121.374)"/>
<use xlink:href="#stroke0_7_52" transform="translate(2.43732 19.2872) scale(0.00348314) rotate(-95.2578)"/>
<use xlink:href="#stroke0_7_52" transform="translate(2.38657 18.6313) scale(0.00312726) rotate(-57.4815)"/>
<use xlink:href="#stroke0_7_52" transform="translate(3.73516 18.2901) scale(0.00303458) rotate(129.148)"/>
<use xlink:href="#stroke0_7_52" transform="translate(3.66023 18.5738) scale(0.00321663) rotate(177.706)"/>
<use xlink:href="#stroke0_7_52" transform="translate(2.76825 17.7722) scale(0.00260135) rotate(-35.7767)"/>
<use xlink:href="#stroke0_7_52" transform="translate(3.28616 17.015) scale(0.00328526) rotate(33.3727)"/>
<use xlink:href="#stroke0_7_52" transform="translate(3.10308 17.9821) scale(0.00312448) rotate(-102.659)"/>
<use xlink:href="#stroke0_7_52" transform="translate(4.23794 17.0663) scale(0.00329441) rotate(116.641)"/>
<use xlink:href="#stroke0_7_52" transform="translate(3.86365 16.4932) scale(0.00275855) rotate(60.2671)"/>
<use xlink:href="#stroke0_7_52" transform="translate(3.62368 16.3005) scale(0.0027258) rotate(26.2671)"/>
<use xlink:href="#stroke0_7_52" transform="translate(3.72548 17.2213) scale(0.00285257) rotate(-125.002)"/>
<use xlink:href="#stroke0_7_52" transform="translate(4.49631 16.4727) scale(0.00262377) rotate(132.374)"/>
<use xlink:href="#stroke0_7_52" transform="translate(4.55376 15.9744) scale(0.0028532) rotate(100.348)"/>
<use xlink:href="#stroke0_7_52" transform="translate(3.60771 16.091) scale(0.00261688) rotate(-48.4868)"/>
<use xlink:href="#stroke0_7_52" transform="translate(4.78689 15.6554) scale(0.00290389) rotate(106.653)"/>
<use xlink:href="#stroke0_7_52" transform="translate(3.8178 16.263) scale(0.00389957) rotate(-95.4593)"/>
<use xlink:href="#stroke0_7_52" transform="translate(5.28099 15.3593) scale(0.00377124) rotate(126.858)"/>
<use xlink:href="#stroke0_7_52" transform="translate(4.73633 15.7362) scale(0.00262001) rotate(-150.337)"/>
<use xlink:href="#stroke0_7_52" transform="translate(4.39263 14.6108) scale(0.00261994) rotate(3.23768)"/>
<use xlink:href="#stroke0_7_52" transform="translate(4.83783 14.193) scale(0.00316387) rotate(41.5014)"/>
<use xlink:href="#stroke0_7_52" transform="translate(4.38009 14.2663) scale(0.00334155) rotate(-16.5689)"/>
<use xlink:href="#stroke0_7_52" transform="translate(5.84521 14.209) scale(0.00372643) rotate(116.934)"/>
<use xlink:href="#stroke0_7_52" transform="translate(4.53473 13.9429) scale(0.00363702) rotate(-31.5807)"/>
<use xlink:href="#stroke0_7_52" transform="translate(5.86505 14.3224) scale(0.00295452) rotate(169.232)"/>
<use xlink:href="#stroke0_7_52" transform="translate(5.64016 14.4047) scale(0.00323527) rotate(-149.642)"/>
<use xlink:href="#stroke0_7_52" transform="translate(5.17203 13.8449) scale(0.00263132) rotate(-79.801)"/>
<use xlink:href="#stroke0_7_52" transform="translate(5.36617 13.9308) scale(0.0033073) rotate(-103.159)"/>
<use xlink:href="#stroke0_7_52" transform="translate(6.43184 13.5047) scale(0.00305028) rotate(162.996)"/>
<use xlink:href="#stroke0_7_52" transform="translate(5.45281 12.8716) scale(0.00284004) rotate(-36.7936)"/>
<use xlink:href="#stroke0_7_52" transform="translate(6.4009 12.2307) scale(0.00304871) rotate(64.5608)"/>
<use xlink:href="#stroke0_7_52" transform="translate(6.57542 11.9275) scale(0.00354494) rotate(63.5362)"/>
<use xlink:href="#stroke0_7_52" transform="translate(6.90633 12.757) scale(0.00281772) rotate(168.456)"/>
<use xlink:href="#stroke0_7_52" transform="translate(5.93177 11.744) scale(0.00392228) rotate(-14.068)"/>
<use xlink:href="#stroke0_7_52" transform="translate(6.09203 11.803) scale(0.00338147) rotate(-33.885)"/>
<use xlink:href="#stroke0_7_52" transform="translate(7.49778 11.4447) scale(0.00324668) rotate(101.295)"/>
<use xlink:href="#stroke0_7_52" transform="translate(7.4317 12.1559) scale(0.0032761) rotate(-170.672)"/>
<use xlink:href="#stroke0_7_52" transform="translate(6.69682 11.6899) scale(0.00290947) rotate(-77.4739)"/>
<use xlink:href="#stroke0_7_52" transform="translate(6.85384 10.9289) scale(0.00286316) rotate(-17.8271)"/>
<use xlink:href="#stroke0_7_52" transform="translate(8.35705 11.0485) scale(0.00402978) rotate(132.81)"/>
<use xlink:href="#stroke0_7_52" transform="translate(8.3135 11.191) scale(0.00345753) rotate(163.755)"/>
<use xlink:href="#stroke0_7_52" transform="translate(8.13104 11.1525) scale(0.00284658) rotate(-165.13)"/>
<use xlink:href="#stroke0_7_52" transform="translate(8.78133 10.5141) scale(0.00365401) rotate(136.897)"/>
<use xlink:href="#stroke0_7_52" transform="translate(7.60801 10.4027) scale(0.00297072) rotate(-62.6824)"/>
<use xlink:href="#stroke0_7_52" transform="translate(8.53536 10.6513) scale(0.00287522) rotate(-156.761)"/>
<use xlink:href="#stroke0_7_52" transform="translate(8.45837 10.6149) scale(0.00342226) rotate(-134.081)"/>
<use xlink:href="#stroke0_7_52" transform="translate(8.77126 9.21409) scale(0.00262404) rotate(52.0364)"/>
<use xlink:href="#stroke0_7_52" transform="translate(8.66693 10.2882) scale(0.00356268) rotate(-125.381)"/>
<use xlink:href="#stroke0_7_52" transform="translate(8.44501 9.17092) scale(0.00294431) rotate(-26.7361)"/>
<use xlink:href="#stroke0_7_52" transform="translate(9.91 8.83759) scale(0.00393186) rotate(103.981)"/>
<use xlink:href="#stroke0_7_52" transform="translate(9.56255 8.18047) scale(0.00403647) rotate(52.1585)"/>
<use xlink:href="#stroke0_7_52" transform="translate(9.73605 8.29218) scale(0.00265544) rotate(56.8458)"/>
<use xlink:href="#stroke0_7_52" transform="translate(8.97194 8.75031) scale(0.00392012) rotate(-56.0245)"/>
<use xlink:href="#stroke0_7_52" transform="translate(10.7785 8.58807) scale(0.00389824) rotate(141.861)"/>
<use xlink:href="#stroke0_7_52" transform="translate(9.49615 8.36718) scale(0.00344532) rotate(-57.8296)"/>
<use xlink:href="#stroke0_7_52" transform="translate(9.7098 7.74251) scale(0.0037096) rotate(-23.0932)"/>
<use xlink:href="#stroke0_7_52" transform="translate(10.4207 7.3498) scale(0.00282166) rotate(24.9119)"/>
<use xlink:href="#stroke0_7_52" transform="translate(11.2838 7.76882) scale(0.00263015) rotate(131.229)"/>
<use xlink:href="#stroke0_7_52" transform="translate(10.1097 7.66289) scale(0.00402188) rotate(-52.5421)"/>
<use xlink:href="#stroke0_7_52" transform="translate(10.5256 7.5378) scale(0.00303693) rotate(-58.2312)"/>
<use xlink:href="#stroke0_7_52" transform="translate(11.0909 7.79906) scale(0.00266999) rotate(-115.12)"/>
<use xlink:href="#stroke0_7_52" transform="translate(11.9913 6.69068) scale(0.00331893) rotate(88.9775)"/>
<use xlink:href="#stroke0_7_52" transform="translate(12.3651 6.77093) scale(0.00345394) rotate(113.381)"/>
<use xlink:href="#stroke0_7_52" transform="translate(11.4806 7.25802) scale(0.00278147) rotate(-94.8344)"/>
<use xlink:href="#stroke0_7_52" transform="translate(12.4778 6.06424) scale(0.00364843) rotate(74.2032)"/>
<use xlink:href="#stroke0_7_52" transform="translate(11.6609 6.36112) scale(0.003118) rotate(-32.3886)"/>
<use xlink:href="#stroke0_7_52" transform="translate(13.0912 6.08078) scale(0.00335604) rotate(104.468)"/>
<use xlink:href="#stroke0_7_52" transform="translate(12.3705 5.55171) scale(0.00367629) rotate(16.2208)"/>
<use xlink:href="#stroke0_7_52" transform="translate(13.3962 6.71226) scale(0.00386535) rotate(-174.754)"/>
<use xlink:href="#stroke0_7_52" transform="translate(12.6895 6.26956) scale(0.00272466) rotate(-86.314)"/>
<use xlink:href="#stroke0_7_52" transform="translate(13.2512 6.43964) scale(0.0031209) rotate(-132.699)"/>
<use xlink:href="#stroke0_7_52" transform="translate(12.9894 5.07262) scale(0.00387998) rotate(-2.05238)"/>
<use xlink:href="#stroke0_7_52" transform="translate(13.2351 6.0048) scale(0.0036146) rotate(-91.7924)"/>
<use xlink:href="#stroke0_7_52" transform="translate(14.7327 5.24221) scale(0.00356081) rotate(123.117)"/>
<use xlink:href="#stroke0_7_52" transform="translate(15.0544 5.18835) scale(0.00391442) rotate(130.843)"/>
<use xlink:href="#stroke0_7_52" transform="translate(15.2036 5.4312) scale(0.00389859) rotate(160.555)"/>
<use xlink:href="#stroke0_7_52" transform="translate(14.3358 5.38203) scale(0.00300025) rotate(-99.1465)"/>
<use xlink:href="#stroke0_7_52" transform="translate(15.1075 5.42879) scale(0.00324223) rotate(-153.743)"/>
<use xlink:href="#stroke0_7_52" transform="translate(15.3918 4.02994) scale(0.00328397) rotate(62.4896)"/>
<use xlink:href="#stroke0_7_52" transform="translate(14.9172 5.15922) scale(0.00381796) rotate(-102.105)"/>
<use xlink:href="#stroke0_7_52" transform="translate(15.1868 4.91161) scale(0.00327324) rotate(-98.419)"/>
<use xlink:href="#stroke0_7_52" transform="translate(16.2732 3.79015) scale(0.00318476) rotate(83.0162)"/>
<use xlink:href="#stroke0_7_52" transform="translate(16.8719 4.12995) scale(0.00387103) rotate(129.615)"/>
<use xlink:href="#stroke0_7_52" transform="translate(16.1194 4.75634) scale(0.00371286) rotate(-122.394)"/>
<use xlink:href="#stroke0_7_52" transform="translate(16.8542 3.22179) scale(0.00354719) rotate(63.4639)"/>
<use xlink:href="#stroke0_7_52" transform="translate(16.7225 3.23921) scale(0.00271438) rotate(33.9969)"/>
<use xlink:href="#stroke0_7_52" transform="translate(16.779 2.96636) scale(0.0036869) rotate(23.3357)"/>
<use xlink:href="#stroke0_7_52" transform="translate(16.6155 3.33483) scale(0.00332324) rotate(-28.0843)"/>
<use xlink:href="#stroke0_7_52" transform="translate(18.1968 3.60744) scale(0.00349139) rotate(142.712)"/>
<use xlink:href="#stroke0_7_52" transform="translate(17.0065 3.01936) scale(0.00396409) rotate(-24.6167)"/>
<use xlink:href="#stroke0_7_52" transform="translate(18.1921 3.85589) scale(0.00311907) rotate(-156.017)"/>
<use xlink:href="#stroke0_7_52" transform="translate(17.7083 3.39636) scale(0.00266998) rotate(-74.3642)"/>
<use xlink:href="#stroke0_7_52" transform="translate(19.0343 2.63484) scale(0.00362804) rotate(96.1392)"/>
<use xlink:href="#stroke0_7_52" transform="translate(18.2188 2.57776) scale(0.00285779) rotate(-6.29447)"/>
<use xlink:href="#stroke0_7_52" transform="translate(19.3779 2.62572) scale(0.00285002) rotate(104.19)"/>
<use xlink:href="#stroke0_7_52" transform="translate(19.4688 2.44129) scale(0.00271969) rotate(89.1415)"/>
<use xlink:href="#stroke0_7_52" transform="translate(19.7072 2.04155) scale(0.00390385) rotate(72.5774)"/>
<use xlink:href="#stroke0_7_52" transform="translate(19.432 3.19531) scale(0.0027269) rotate(-128.689)"/>
<use xlink:href="#stroke0_7_52" transform="translate(20.0374 3.21244) scale(0.00344666) rotate(-162.497)"/>
<use xlink:href="#stroke0_7_52" transform="translate(20.402 3.05207) scale(0.00341039) rotate(-173.839)"/>
<use xlink:href="#stroke0_7_52" transform="translate(20.1424 1.66595) scale(0.00357789) rotate(33.025)"/>
<use xlink:href="#stroke0_7_52" transform="translate(20.6434 3.05908) scale(0.00369845) rotate(-148.385)"/>
<use xlink:href="#stroke0_7_52" transform="translate(21.1793 2.79317) scale(0.00338383) rotate(-174.419)"/>
<use xlink:href="#stroke0_7_52" transform="translate(21.3561 2.69759) scale(0.00312281) rotate(-171.323)"/>
<use xlink:href="#stroke0_7_52" transform="translate(21.8026 2.18129) scale(0.00283263) rotate(140.095)"/>
<use xlink:href="#stroke0_7_52" transform="translate(21.2228 2.53773) scale(0.00263014) rotate(-116.48)"/>
<use xlink:href="#stroke0_7_52" transform="translate(21.0136 2.12175) scale(0.00311178) rotate(-61.5681)"/>
<use xlink:href="#stroke0_7_52" transform="translate(21.3312 1.62234) scale(0.0029498) rotate(-19.4291)"/>
<use xlink:href="#stroke0_7_52" transform="translate(21.9241 2.65572) scale(0.00401844) rotate(-124.999)"/>
<use xlink:href="#stroke0_7_52" transform="translate(22.3317 2.32572) scale(0.0026011) rotate(-135.252)"/>
<use xlink:href="#stroke0_7_52" transform="translate(21.9396 2.03724) scale(0.00347456) rotate(-73.3846)"/>
<use xlink:href="#stroke0_7_52" transform="translate(22.086 1.65179) scale(0.00374919) rotate(-46.8021)"/>
<use xlink:href="#stroke0_7_52" transform="translate(22.3791 1.50282) scale(0.00371609) rotate(-40.1527)"/>
<use xlink:href="#stroke0_7_52" transform="translate(23.68 2.3152) scale(0.00389903) rotate(-157.488)"/>
<use xlink:href="#stroke0_7_52" transform="translate(24.363 1.14268) scale(0.00365311) rotate(102.979)"/>
<use xlink:href="#stroke0_7_52" transform="translate(23.9027 0.749914) scale(0.00342162) rotate(36.1934)"/>
<use xlink:href="#stroke0_7_52" transform="translate(24.4856 0.891044) scale(0.00286909) rotate(70.0246)"/>
<use xlink:href="#stroke0_7_52" transform="translate(25.0635 1.79543) scale(0.00364136) rotate(166.165)"/>
<use xlink:href="#stroke0_7_52" transform="translate(24.1956 1.06527) scale(0.00271597) rotate(-20.326)"/>
<use xlink:href="#stroke0_7_52" transform="translate(24.7013 1.8765) scale(0.00297643) rotate(-119.471)"/>
<use xlink:href="#stroke0_7_52" transform="translate(24.4668 1.24024) scale(0.00325668) rotate(-46.533)"/>
<use xlink:href="#stroke0_7_52" transform="translate(25.8045 1.81382) scale(0.00347524) rotate(-173.948)"/>
<use xlink:href="#stroke0_7_52" transform="translate(26.1542 1.01827) scale(0.00272063) rotate(112.323)"/>
<use xlink:href="#stroke0_7_52" transform="translate(26.3171 1.61677) scale(0.00313227) rotate(174.599)"/>
<use xlink:href="#stroke0_7_52" transform="translate(26.6873 1.10179) scale(0.00296555) rotate(126.824)"/>
<use xlink:href="#stroke0_7_52" transform="translate(26.9786 0.814128) scale(0.00352148) rotate(105.901)"/>
<use xlink:href="#stroke0_7_52" transform="translate(26.5412 0.292616) scale(0.00394011) rotate(36.7535)"/>
<use xlink:href="#stroke0_7_52" transform="translate(26.363 0.706983) scale(0.00306928) rotate(-12.4486)"/>
<use xlink:href="#stroke0_7_52" transform="translate(27.8221 0.976315) scale(0.00343413) rotate(124.435)"/>
<use xlink:href="#stroke0_7_52" transform="translate(28.2096 1.18022) scale(0.00397319) rotate(140.94)"/>
<use xlink:href="#stroke0_7_52" transform="translate(28.0632 0.610715) scale(0.00282439) rotate(85.0405)"/>
<use xlink:href="#stroke0_7_52" transform="translate(27.2796 1.08531) scale(0.00293651) rotate(-54.6118)"/>
<use xlink:href="#stroke0_7_52" transform="translate(28.264 0.273673) scale(0.0036511) rotate(51.5937)"/>
<use xlink:href="#stroke0_7_52" transform="translate(28.3145 1.70444) scale(0.00341786) rotate(-131.584)"/>
<use xlink:href="#stroke0_7_52" transform="translate(27.8927 0.981357) scale(0.00380891) rotate(-47.0986)"/>
<use xlink:href="#stroke0_7_52" transform="translate(29.3819 1.43721) scale(0.00302754) rotate(175.959)"/>
<use xlink:href="#stroke0_7_52" transform="translate(28.9698 0.29608) scale(0.00358884) rotate(23.9441)"/>
<use xlink:href="#stroke0_7_52" transform="translate(30.0155 1.51812) scale(0.00364948) rotate(174.62)"/>
<use xlink:href="#stroke0_7_52" transform="translate(30.3193 0.760409) scale(0.00312407) rotate(108.635)"/>
<use xlink:href="#stroke0_7_52" transform="translate(29.2109 1.26664) scale(0.00401212) rotate(-66.1603)"/>
<use xlink:href="#stroke0_7_52" transform="translate(30.384 0.414051) scale(0.00303851) rotate(52.3062)"/>
<use xlink:href="#stroke0_7_52" transform="translate(29.8832 0.959814) scale(0.00299725) rotate(-41.1987)"/>
<use xlink:href="#stroke0_7_52" transform="translate(31.2978 1.53932) scale(0.00357275) rotate(172.755)"/>
<use xlink:href="#stroke0_7_52" transform="translate(30.3621 1.54129) scale(0.00397878) rotate(-83.5016)"/>
<use xlink:href="#stroke0_7_52" transform="translate(31.3232 0.455055) scale(0.003103) rotate(43.2473)"/>
<use xlink:href="#stroke0_7_52" transform="translate(31.8686 0.423397) scale(0.0036822) rotate(65.4491)"/>
<use xlink:href="#stroke0_7_52" transform="translate(31.6469 1.8039) scale(0.00333663) rotate(-123.548)"/>
<use xlink:href="#stroke0_7_52" transform="translate(32.762 1.25259) scale(0.003344) rotate(138.518)"/>
<use xlink:href="#stroke0_7_52" transform="translate(31.7243 0.680441) scale(0.00397486) rotate(-9.24291)"/>
<use xlink:href="#stroke0_7_52" transform="translate(31.9499 1.38088) scale(0.00341049) rotate(-60.6777)"/>
<use xlink:href="#stroke0_7_52" transform="translate(32.7883 1.92192) scale(0.00321516) rotate(-130.081)"/>
<use xlink:href="#stroke0_7_52" transform="translate(33.6656 1.28525) scale(0.00270515) rotate(129.952)"/>
<use xlink:href="#stroke0_7_52" transform="translate(33.4486 2.05801) scale(0.00354941) rotate(-146.799)"/>
<use xlink:href="#stroke0_7_52" transform="translate(33.3652 0.719319) scale(0.00340543) rotate(21.2323)"/>
<use xlink:href="#stroke0_7_52" transform="translate(33.8471 0.630144) scale(0.0038598) rotate(39.0166)"/>
<use xlink:href="#stroke0_7_52" transform="translate(33.7614 0.821429) scale(0.00373353) rotate(9.7332)"/>
<use xlink:href="#stroke0_7_52" transform="translate(33.8745 1.20383) scale(0.00306934) rotate(-18.1416)"/>
<use xlink:href="#stroke0_7_52" transform="translate(34.5612 1.0032) scale(0.00276623) rotate(33.8197)"/>
<use xlink:href="#stroke0_7_52" transform="translate(34.2585 1.81666) scale(0.00305984) rotate(-67.4671)"/>
<use xlink:href="#stroke0_7_52" transform="translate(35.3452 1.12577) scale(0.00290993) rotate(67.99)"/>
<use xlink:href="#stroke0_7_52" transform="translate(34.7028 1.49172) scale(0.00309528) rotate(-28.3904)"/>
<use xlink:href="#stroke0_7_52" transform="translate(35.9472 2.4916) scale(0.00396022) rotate(-166.781)"/>
<use xlink:href="#stroke0_7_52" transform="translate(36.4806 1.81706) scale(0.00318203) rotate(129.575)"/>
<use xlink:href="#stroke0_7_52" transform="translate(36.7887 1.77621) scale(0.0035273) rotate(121.493)"/>
<use xlink:href="#stroke0_7_52" transform="translate(35.7722 1.4076) scale(0.00392819) rotate(-4.08847)"/>
<use xlink:href="#stroke0_7_52" transform="translate(36.9004 1.60256) scale(0.00261107) rotate(76.782)"/>
<use xlink:href="#stroke0_7_52" transform="translate(37.0597 1.55222) scale(0.00295446) rotate(67.348)"/>
<use xlink:href="#stroke0_7_52" transform="translate(36.9085 1.39442) scale(0.00383286) rotate(31.6909)"/>
<use xlink:href="#stroke0_7_52" transform="translate(36.7228 1.99293) scale(0.0030264) rotate(-24.4314)"/>
<use xlink:href="#stroke0_7_52" transform="translate(37.7891 2.79307) scale(0.00271969) rotate(-169.652)"/>
<use xlink:href="#stroke0_7_52" transform="translate(38.1624 2.07309) scale(0.00269969) rotate(98.2371)"/>
<use xlink:href="#stroke0_7_52" transform="translate(37.4144 3.06183) scale(0.00388282) rotate(-97.891)"/>
<use xlink:href="#stroke0_7_52" transform="translate(37.6747 2.83266) scale(0.00283033) rotate(-78.9)"/>
<use xlink:href="#stroke0_7_52" transform="translate(38.6771 1.83671) scale(0.00402516) rotate(59.2147)"/>
<use xlink:href="#stroke0_7_52" transform="translate(38.1021 2.66804) scale(0.00274992) rotate(-44.0092)"/>
<use xlink:href="#stroke0_7_52" transform="translate(39.2942 3.51595) scale(0.00394659) rotate(-167.169)"/>
<use xlink:href="#stroke0_7_52" transform="translate(39.4954 3.41225) scale(0.00300284) rotate(-172.216)"/>
<use xlink:href="#stroke0_7_52" transform="translate(38.813 3.14469) scale(0.00276842) rotate(-65.5821)"/>
<use xlink:href="#stroke0_7_52" transform="translate(39.0265 2.65848) scale(0.00330713) rotate(-11.9432)"/>
<use xlink:href="#stroke0_7_52" transform="translate(39.2055 3.33166) scale(0.00298273) rotate(-65.206)"/>
<use xlink:href="#stroke0_7_52" transform="translate(40.2065 2.57057) scale(0.00343185) rotate(56.8068)"/>
<use xlink:href="#stroke0_7_52" transform="translate(40.712 4.02448) scale(0.00385754) rotate(-172.077)"/>
<use xlink:href="#stroke0_7_52" transform="translate(40.5385 4.03047) scale(0.00275296) rotate(-142.065)"/>
<use xlink:href="#stroke0_7_52" transform="translate(40.4083 4.28825) scale(0.00383278) rotate(-114.323)"/>
<use xlink:href="#stroke0_7_52" transform="translate(41.3328 3.20924) scale(0.00289544) rotate(79.5732)"/>
<use xlink:href="#stroke0_7_52" transform="translate(40.6317 4.27807) scale(0.0036131) rotate(-90.1568)"/>
<use xlink:href="#stroke0_7_52" transform="translate(40.6712 3.92822) scale(0.00373619) rotate(-50.0838)"/>
<use xlink:href="#stroke0_7_52" transform="translate(41.1496 4.19731) scale(0.00261321) rotate(-68.1949)"/>
<use xlink:href="#stroke0_7_52" transform="translate(41.3243 4.71323) scale(0.00390474) rotate(-95.0744)"/>
<use xlink:href="#stroke0_7_52" transform="translate(42.5001 4.73854) scale(0.00302199) rotate(-177.29)"/>
<use xlink:href="#stroke0_7_52" transform="translate(41.7673 4.21415) scale(0.00269248) rotate(-33.7746)"/>
<use xlink:href="#stroke0_7_52" transform="translate(42.9882 5.08482) scale(0.00374552) rotate(-176.143)"/>
<use xlink:href="#stroke0_7_52" transform="translate(42.4093 3.913) scale(0.00383596) rotate(14.1459)"/>
<use xlink:href="#stroke0_7_52" transform="translate(42.6151 4.30039) scale(0.00281217) rotate(0.922608)"/>
<use xlink:href="#stroke0_7_52" transform="translate(43.7089 5.48747) scale(0.00386066) rotate(-177.459)"/>
<use xlink:href="#stroke0_7_52" transform="translate(43.0264 4.61619) scale(0.00267254) rotate(-4.89157)"/>
<use xlink:href="#stroke0_7_52" transform="translate(43.4673 4.55835) scale(0.00272337) rotate(27.732)"/>
<use xlink:href="#stroke0_7_52" transform="translate(43.161 5.14984) scale(0.00306318) rotate(-42.3038)"/>
<use xlink:href="#stroke0_7_52" transform="translate(44.0587 6.03161) scale(0.00333265) rotate(-144.004)"/>
<use xlink:href="#stroke0_7_52" transform="translate(44.7424 5.94921) scale(0.00342085) rotate(172.352)"/>
<use xlink:href="#stroke0_7_52" transform="translate(43.8497 5.48602) scale(0.00278987) rotate(-35.3709)"/>
<use xlink:href="#stroke0_7_52" transform="translate(43.8546 5.80554) scale(0.00369951) rotate(-52.4413)"/>
<use xlink:href="#stroke0_7_52" transform="translate(45.181 5.26514) scale(0.00353741) rotate(69.1134)"/>
<use xlink:href="#stroke0_7_52" transform="translate(44.5729 5.55135) scale(0.00342796) rotate(-2.32481)"/>
<use xlink:href="#stroke0_7_52" transform="translate(45.2598 6.72951) scale(0.00260301) rotate(-139.833)"/>
<use xlink:href="#stroke0_7_52" transform="translate(44.8255 6.75642) scale(0.0036322) rotate(-83.0746)"/>
<use xlink:href="#stroke0_7_52" transform="translate(45.1528 6.13982) scale(0.00289747) rotate(-13.7695)"/>
<use xlink:href="#stroke0_7_52" transform="translate(46.0913 6.1272) scale(0.00269825) rotate(71.4538)"/>
<use xlink:href="#stroke0_7_52" transform="translate(46.6051 6.49323) scale(0.00321498) rotate(109.122)"/>
<use xlink:href="#stroke0_7_52" transform="translate(45.763 6.39012) scale(0.00319543) rotate(1.33788)"/>
<use xlink:href="#stroke0_7_52" transform="translate(45.6571 6.94743) scale(0.00359757) rotate(-40.367)"/>
<use xlink:href="#stroke0_7_52" transform="translate(45.814 7.32346) scale(0.00390787) rotate(-55.1039)"/>
<use xlink:href="#stroke0_7_52" transform="translate(46.3358 7.98438) scale(0.00368325) rotate(-97.2247)"/>
<use xlink:href="#stroke0_7_52" transform="translate(47.5759 8.19429) scale(0.0038364) rotate(-179.703)"/>
<use xlink:href="#stroke0_7_52" transform="translate(46.5691 7.39583) scale(0.00396865) rotate(-19.5351)"/>
<use xlink:href="#stroke0_7_52" transform="translate(48.2208 7.57087) scale(0.00400642) rotate(100.661)"/>
<use xlink:href="#stroke0_7_52" transform="translate(48.5038 8.37852) scale(0.00384264) rotate(145.092)"/>
<use xlink:href="#stroke0_7_52" transform="translate(48.1982 7.62587) scale(0.00389875) rotate(59.1577)"/>
<use xlink:href="#stroke0_7_52" transform="translate(47.6255 8.9573) scale(0.0031619) rotate(-84.7715)"/>
<use xlink:href="#stroke0_7_52" transform="translate(47.6472 8.33446) scale(0.00398779) rotate(-17.3158)"/>
<use xlink:href="#stroke0_7_52" transform="translate(47.9176 9.17598) scale(0.00324551) rotate(-68.1801)"/>
<use xlink:href="#stroke0_7_52" transform="translate(49.2866 9.21226) scale(0.00283174) rotate(141.065)"/>
<use xlink:href="#stroke0_7_52" transform="translate(48.2632 8.97294) scale(0.00334324) rotate(-22.0106)"/>
<use xlink:href="#stroke0_7_52" transform="translate(48.6777 10.0159) scale(0.00326287) rotate(-104.409)"/>
<use xlink:href="#stroke0_7_52" transform="translate(49.2805 8.99847) scale(0.00310491) rotate(46.5111)"/>
<use xlink:href="#stroke0_7_52" transform="translate(48.779 9.81829) scale(0.00293154) rotate(-50.1677)"/>
<use xlink:href="#stroke0_7_52" transform="translate(49.8469 10.4492) scale(0.00281959) rotate(-171.475)"/>
<use xlink:href="#stroke0_7_52" transform="translate(49.8244 10.6403) scale(0.00265441) rotate(-154.665)"/>
<use xlink:href="#stroke0_7_52" transform="translate(49.3738 9.8505) scale(0.00298173) rotate(-4.89533)"/>
<use xlink:href="#stroke0_7_52" transform="translate(49.8162 9.76582) scale(0.00345456) rotate(28.0241)"/>
<use xlink:href="#stroke0_7_52" transform="translate(49.6621 10.3134) scale(0.00279412) rotate(-14.4112)"/>
<use xlink:href="#stroke0_7_52" transform="translate(50.6508 10.344) scale(0.00285877) rotate(80.652)"/>
<use xlink:href="#stroke0_7_52" transform="translate(50.9276 10.7677) scale(0.00266116) rotate(110.847)"/>
<use xlink:href="#stroke0_7_52" transform="translate(50.6344 11.8139) scale(0.00331856) rotate(-144.763)"/>
<use xlink:href="#stroke0_7_52" transform="translate(50.8165 11.9361) scale(0.00302645) rotate(-148.011)"/>
<use xlink:href="#stroke0_7_52" transform="translate(50.2425 11.5947) scale(0.00303345) rotate(-57.2115)"/>
<use xlink:href="#stroke0_7_52" transform="translate(51.4354 11.3342) scale(0.00269482) rotate(93.8726)"/>
<use xlink:href="#stroke0_7_52" transform="translate(51.6806 11.9783) scale(0.00278853) rotate(145.693)"/>
<use xlink:href="#stroke0_7_52" transform="translate(51.7819 11.4317) scale(0.0038239) rotate(81.1976)"/>
<use xlink:href="#stroke0_7_52" transform="translate(50.87 12.4174) scale(0.00286342) rotate(-66.1328)"/>
<use xlink:href="#stroke0_7_52" transform="translate(50.9349 12.0279) scale(0.00372997) rotate(-15.9839)"/>
<use xlink:href="#stroke0_7_52" transform="translate(52.4823 12.7212) scale(0.0035899) rotate(135.593)"/>
<use xlink:href="#stroke0_7_52" transform="translate(51.9679 12.2936) scale(0.00280762) rotate(49.4449)"/>
<use xlink:href="#stroke0_7_52" transform="translate(52.0681 13.8314) scale(0.00370771) rotate(-141.498)"/>
<use xlink:href="#stroke0_7_52" transform="translate(52.7765 13.6525) scale(0.00337687) rotate(162.641)"/>
<use xlink:href="#stroke0_7_52" transform="translate(52.3377 14.1669) scale(0.00323547) rotate(-139.878)"/>
<use xlink:href="#stroke0_7_52" transform="translate(51.839 13.6143) scale(0.00301711) rotate(-40.6607)"/>
<use xlink:href="#stroke0_7_52" transform="translate(52.6621 13.2069) scale(0.00341496) rotate(47.5241)"/>
<use xlink:href="#stroke0_7_52" transform="translate(52.4978 13.6086) scale(0.00259731) rotate(17.9963)"/>
<use xlink:href="#stroke0_7_52" transform="translate(52.7062 13.603) scale(0.00341529) rotate(31.0887)"/>
<use xlink:href="#stroke0_7_52" transform="translate(53.1409 15.0899) scale(0.00298589) rotate(-155.759)"/>
<use xlink:href="#stroke0_7_52" transform="translate(52.5494 14.4953) scale(0.00270297) rotate(-28.2892)"/>
<use xlink:href="#stroke0_7_52" transform="translate(52.7551 14.4169) scale(0.00305264) rotate(-1.4829)"/>
<use xlink:href="#stroke0_7_52" transform="translate(52.6537 15.5348) scale(0.00383054) rotate(-81.7024)"/>
<use xlink:href="#stroke0_7_52" transform="translate(54.0686 15.3694) scale(0.00304387) rotate(134.806)"/>
<use xlink:href="#stroke0_7_52" transform="translate(54.3233 15.4172) scale(0.00373084) rotate(120.819)"/>
<use xlink:href="#stroke0_7_52" transform="translate(53.0382 16.1608) scale(0.00366069) rotate(-76.704)"/>
<use xlink:href="#stroke0_7_52" transform="translate(53.222 16.1943) scale(0.00302056) rotate(-63.8462)"/>
<use xlink:href="#stroke0_7_52" transform="translate(53.9342 16.995) scale(0.00359738) rotate(-138.325)"/>
<use xlink:href="#stroke0_7_52" transform="translate(54.2733 17.0662) scale(0.00304203) rotate(-159.289)"/>
<use xlink:href="#stroke0_7_52" transform="translate(53.6426 17.1607) scale(0.00336959) rotate(-90.2684)"/>
<use xlink:href="#stroke0_7_52" transform="translate(53.9427 16.3485) scale(0.00322607) rotate(11.8497)"/>
<use xlink:href="#stroke0_7_52" transform="translate(54.1835 17.6908) scale(0.00284743) rotate(-120.122)"/>
<use xlink:href="#stroke0_7_52" transform="translate(53.8276 17.736) scale(0.0036316) rotate(-78.8978)"/>
<use xlink:href="#stroke0_7_52" transform="translate(54.6313 18.3732) scale(0.00369744) rotate(-141.871)"/>
<use xlink:href="#stroke0_7_52" transform="translate(55.1928 17.4299) scale(0.00318204) rotate(91.0824)"/>
<use xlink:href="#stroke0_7_52" transform="translate(54.5888 18.7059) scale(0.00320475) rotate(-120.859)"/>
<use xlink:href="#stroke0_7_52" transform="translate(54.8653 18.8291) scale(0.00265239) rotate(-137.484)"/>
<use xlink:href="#stroke0_7_52" transform="translate(55.1812 17.7539) scale(0.0038217) rotate(57.0317)"/>
<use xlink:href="#stroke0_7_52" transform="translate(54.7671 18.2539) scale(0.00278543) rotate(10.3815)"/>
<use xlink:href="#stroke0_7_52" transform="translate(54.5379 18.9742) scale(0.00293685) rotate(-51.0304)"/>
<use xlink:href="#stroke0_7_52" transform="translate(55.2224 18.3866) scale(0.00391948) rotate(40.5459)"/>
<use xlink:href="#stroke0_7_52" transform="translate(55.5996 18.9384) scale(0.00274977) rotate(70.7204)"/>
<use xlink:href="#stroke0_7_52" transform="translate(55.3324 20.3782) scale(0.00352374) rotate(-132.994)"/>
<use xlink:href="#stroke0_7_52" transform="translate(55.8471 19.2352) scale(0.00373238) rotate(68.7714)"/>
<use xlink:href="#stroke0_7_52" transform="translate(54.9923 19.9931) scale(0.00294545) rotate(-32.7499)"/>
<use xlink:href="#stroke0_7_52" transform="translate(55.1322 20.152) scale(0.00268188) rotate(-26.1638)"/>
<use xlink:href="#stroke0_7_52" transform="translate(56.2428 20.6207) scale(0.00263555) rotate(138.26)"/>
<use xlink:href="#stroke0_7_52" transform="translate(55.2257 20.7896) scale(0.00262346) rotate(-53.0853)"/>
<use xlink:href="#stroke0_7_52" transform="translate(56.2027 20.5166) scale(0.00277506) rotate(82.987)"/>
<use xlink:href="#stroke0_7_52" transform="translate(55.4232 20.662) scale(0.0033404) rotate(-1.31732)"/>
<use xlink:href="#stroke0_7_52" transform="translate(55.8012 22.2287) scale(0.00394338) rotate(-126.893)"/>
<use xlink:href="#stroke0_7_52" transform="translate(55.4763 21.8787) scale(0.00287264) rotate(-67.7521)"/>
<use xlink:href="#stroke0_7_52" transform="translate(56.5168 21.3285) scale(0.00352713) rotate(76.6934)"/>
<use xlink:href="#stroke0_7_52" transform="translate(56.9205 21.8421) scale(0.0040466) rotate(105.924)"/>
<use xlink:href="#stroke0_7_52" transform="translate(55.7119 22.0219) scale(0.00336224) rotate(-7.77151)"/>
<use xlink:href="#stroke0_7_52" transform="translate(55.7278 22.6003) scale(0.00277015) rotate(-38.3494)"/>
<use xlink:href="#stroke0_7_52" transform="translate(56.3356 23.4853) scale(0.00280028) rotate(-138.599)"/>
<use xlink:href="#stroke0_7_52" transform="translate(55.7076 23.2796) scale(0.0033644) rotate(-60.3174)"/>
<use xlink:href="#stroke0_7_52" transform="translate(55.6711 23.59) scale(0.0038465) rotate(-61.8455)"/>
<use xlink:href="#stroke0_7_52" transform="translate(55.8527 23.4271) scale(0.00334642) rotate(-27.3492)"/>
<use xlink:href="#stroke0_7_52" transform="translate(57.3786 23.9893) scale(0.00404762) rotate(133.878)"/>
<use xlink:href="#stroke0_7_52" transform="translate(56.7567 24.9948) scale(0.00372341) rotate(-150.557)"/>
<use xlink:href="#stroke0_7_52" transform="translate(56.3625 25.0847) scale(0.00313212) rotate(-113.011)"/>
<use xlink:href="#stroke0_7_52" transform="translate(57.3251 24.6732) scale(0.00316075) rotate(125.418)"/>
<use xlink:href="#stroke0_7_52" transform="translate(56.1476 24.4237) scale(0.00397011) rotate(-2.84552)"/>
<use xlink:href="#stroke0_7_52" transform="translate(57.3463 25.1216) scale(0.00296847) rotate(117.298)"/>
<use xlink:href="#stroke0_7_52" transform="translate(56.2564 25.8725) scale(0.00313327) rotate(-83.7698)"/>
<use xlink:href="#stroke0_7_52" transform="translate(56.5244 25.2356) scale(0.00274954) rotate(11.0528)"/>
<use xlink:href="#stroke0_7_52" transform="translate(57.0572 25.2077) scale(0.00387974) rotate(57.2924)"/>
<use xlink:href="#stroke0_7_52" transform="translate(56.39 25.9505) scale(0.00265886) rotate(-18.6314)"/>
<use xlink:href="#stroke0_7_52" transform="translate(57.2378 25.9894) scale(0.00273957) rotate(80.3413)"/>
<use xlink:href="#stroke0_7_52" transform="translate(57.5617 26.6775) scale(0.00320272) rotate(133.526)"/>
<use xlink:href="#stroke0_7_52" transform="translate(57.4519 26.9341) scale(0.00259894) rotate(137.922)"/>
<use xlink:href="#stroke0_7_52" transform="translate(57.0687 26.4427) scale(0.0032417) rotate(52.8482)"/>
<use xlink:href="#stroke0_7_52" transform="translate(57.319 28.0636) scale(0.00382649) rotate(-166.279)"/>
<use xlink:href="#stroke0_7_52" transform="translate(56.903 28.4901) scale(0.00402085) rotate(-134.04)"/>
<use xlink:href="#stroke0_7_52" transform="translate(57.3922 28.5341) scale(0.00347343) rotate(-173.745)"/>
<use xlink:href="#stroke0_7_52" transform="translate(56.5724 27.8245) scale(0.00266852) rotate(-7.82422)"/>
<use xlink:href="#stroke0_7_52" transform="translate(57.7189 28.0518) scale(0.0039862) rotate(103.419)"/>
<use xlink:href="#stroke0_7_52" transform="translate(57.4739 29.4007) scale(0.00395355) rotate(-174.316)"/>
<use xlink:href="#stroke0_7_52" transform="translate(57.0721 29.6696) scale(0.00327227) rotate(-144.741)"/>
</g>
<defs>
<filter id="filter0_n_7_52" x="0.404907" y="0.396362" width="57.314" height="57.3193" filterUnits="userSpaceOnUse" color-interpolation-filters="sRGB">
<feFlood flood-opacity="0" result="BackgroundImageFix"/>
<feBlend mode="normal" in="SourceGraphic" in2="BackgroundImageFix" result="shape"/>
<feTurbulence type="fractalNoise" baseFrequency="0.38759690523147583 0.38759690523147583" stitchTiles="stitch" numOctaves="3" result="noise" seed="9800" />
<feColorMatrix in="noise" type="luminanceToAlpha" result="alphaNoise" />
<feComponentTransfer in="alphaNoise" result="coloredNoise1">
<feFuncA type="discrete" tableValues="0 0 0 0 0 0 0 0 0 0 0 0 0 0 1 1 1 1 1 1 1 1 1 1 1 1 1 1 1 1 1 1 1 1 1 1 0 0 0 0 0 0 0 0 0 0 0 0 0 0 0 0 0 0 0 0 0 0 0 0 0 0 0 0 0 0 0 0 0 0 0 0 0 0 0 0 0 0 0 0 0 0 0 0 0 0 0 0 0 0 0 0 0 0 0 0 0 0 0 0 "/>
</feComponentTransfer>
<feComposite operator="in" in2="shape" in="coloredNoise1" result="noise1Clipped" />
<feComponentTransfer in="alphaNoise" result="coloredNoise2">
<feFuncA type="discrete" tableValues="0 0 0 0 0 0 0 0 0 0 0 0 0 0 0 0 0 0 0 0 0 0 0 0 0 0 0 0 0 0 0 0 0 0 0 0 0 0 0 0 0 0 0 0 0 0 0 0 0 0 0 0 0 0 0 0 0 0 0 0 0 0 0 0 1 1 1 1 1 1 1 1 1 1 1 1 1 1 1 1 1 1 1 1 1 1 0 0 0 0 0 0 0 0 0 0 0 0 0 0 "/>
</feComponentTransfer>
<feComposite operator="in" in2="shape" in="coloredNoise2" result="noise2Clipped" />
<feFlood flood-color="rgba(255, 255, 255, 0.75)" result="color1Flood" />
<feComposite operator="in" in2="noise1Clipped" in="color1Flood" result="color1" />
<feFlood flood-color="rgba(255, 255, 255, 0.25)" result="color2Flood" />
<feComposite operator="in" in2="noise2Clipped" in="color2Flood" result="color2" />
<feMerge result="effect1_noise_7_52">
<feMergeNode in="shape" />
<feMergeNode in="color1" />
<feMergeNode in="color2" />
</feMerge>
</filter>
<g id="stroke0_7_52" data-figma-scatter-ref="stroke0_7_52_ref" data-figma-scatter="f0.28_w0_aj180_sj0.25_r0_s0_sw1">
<path d="M103.731 283.547C110.352 281.363 112.807 281.348 116.121 283.468C130.109 292.418 124.85 308.718 107.972 308.727C90.3768 308.737 87.0606 289.046 103.731 283.547ZM139.837 35.4146C140.937 35.1787 142.512 35.114 143.337 35.271C144.162 35.4281 146.516 35.8391 148.567 36.1851C155.802 37.4051 160.179 46.6969 156.734 53.5249C152.924 61.0769 144.715 67.5811 140.859 66.1021C135.872 64.1881 137.625 69.8792 144.066 76.5152C148.306 80.8841 150.337 81.2685 150.337 77.7066C150.337 76.6574 151.622 74.3218 153.193 72.5161C154.823 70.6412 156.597 66.9201 157.324 63.8501C158.925 57.0892 160.788 55.2289 167.369 53.8169C177.32 51.6829 185.581 56.9263 183.752 64.2153C183.293 66.0423 183.901 67.6656 186.09 70.4585C196.859 84.1975 193.875 104.273 180.596 107.418C177.049 108.258 176.832 108.532 176.773 112.27C176.739 114.448 176.365 116.987 175.943 117.912C175.255 119.417 175.946 119.564 182.506 119.31C190.415 119.003 192.674 119.705 195.953 123.487C199.054 127.064 201.598 126.114 202.609 121.002C203.503 116.483 209.096 110.731 212.596 110.731C214.841 110.731 215.934 108.156 214.449 106.367C206.1 96.3056 222.234 73.6632 235.605 76.6792C241.572 78.0252 246.302 83.6302 246.367 89.4312C246.384 90.9712 247.505 94.4811 248.858 97.231C255.362 110.453 243.304 126.225 232.777 118.263C229.924 116.105 229.837 116.226 229.837 122.341C229.837 128.93 225.932 133.292 219.049 134.393C216.068 134.87 214.933 135.67 213.775 138.116C212.964 139.829 211.55 142.415 210.63 143.863C208.984 146.456 209.02 146.565 213.147 151.254C215.451 153.871 217.337 156.555 217.337 157.218C217.337 157.882 218.074 159.901 218.974 161.706C222.148 168.067 221.073 181.731 217.4 181.731C217.052 181.731 215.97 183.081 214.995 184.731C214.02 186.381 212.573 187.731 211.779 187.731C209.595 187.731 210.044 189.817 212.863 192.76C216.384 196.435 217.425 204.867 214.728 207.858C209.503 213.649 203.05 218.01 198.064 219.122C193.944 220.041 192.83 220.705 192.804 222.259C192.669 230.389 188.242 235.387 179.682 237.077C172.845 238.427 172.072 240.31 177.577 242.203C190.358 246.597 192.892 257.693 182.442 263.506C176.521 266.799 172.426 266.758 167.515 263.354C163.894 260.845 163.161 260.686 159.679 261.653C153.737 263.303 147.363 262.934 141.337 260.593C135.874 258.47 130.724 257.068 124.689 256.061C118.715 255.064 115.151 249.943 114.592 241.551C114.184 235.417 113.671 233.745 111.425 231.231C109.951 229.581 107.986 226.544 107.058 224.481C105.42 220.844 105.211 220.731 100.164 220.731C93.7935 220.731 89.0798 217.922 86.2168 212.42C83.0468 206.327 78.9427 207.336 78.8477 214.231C78.8097 216.981 78.4233 220.817 77.9883 222.755C77.2354 226.113 77.3507 226.324 80.4366 227.255C90.5004 230.29 90.3981 247.946 80.2881 252.934C55.9904 264.92 26.2411 240.473 47.875 226.298C49.556 225.196 50.1805 223.494 50.6895 218.626C51.0495 215.185 52.1298 211.262 53.0908 209.91C54.0507 208.557 55.2736 206.856 55.8086 206.127C56.5016 205.184 56.0161 204.003 54.1221 202.017C50.6273 198.355 49.3112 194.657 49.9981 190.428C50.3281 188.392 50.1033 186.705 49.4463 186.299C48.8364 185.922 48.337 184.345 48.3369 182.794C48.3369 181.244 47.6012 179.366 46.7032 178.621C43.9996 176.376 34.3369 162.856 34.3369 161.317C34.3368 160.529 32.7627 157.822 30.8389 155.302C28.915 152.781 27.3998 150.384 27.4727 149.975C28.4457 144.478 24.6467 141.425 20.4727 144.348C18.2547 145.902 11.2222 145.776 6.86624 144.104C-3.23648 140.227 -1.78745 115.126 8.56839 114.62C14.8594 114.313 23.3369 117.551 23.3369 120.261C23.3372 122.018 26.1103 124.731 27.9073 124.731C28.6933 124.731 29.3369 124.041 29.3369 123.198C29.3372 109.814 50.1851 94.3087 69.8369 93.0767C82.9305 92.2547 88.2617 93.4969 97.1895 99.4468C101.45 102.287 108.337 96.8837 108.337 90.7007C108.337 88.6598 109.172 86.4706 110.483 85.0747C112.734 82.6789 111.804 79.7313 108.796 79.731C106.403 79.731 103.556 73.5422 104.077 69.4702C105.046 61.8843 117.633 57.7673 123.289 63.1861C125.639 65.4379 126.708 65.8083 129.245 65.2515C133.054 64.4145 133.128 63.4739 129.587 60.895C121.36 54.902 128.195 37.9086 139.837 35.4146ZM227.337 203.429C239.094 199.654 252.722 207.291 252.722 217.653C252.722 228.495 231.921 239.44 223.927 232.806C221.665 230.929 220.403 232.363 221.012 236.118C222.097 242.802 213.511 254.731 207.616 254.731C194.246 254.731 188.8 246.232 194.457 234.198C198.202 226.231 204.453 223.784 213.238 226.847C217.536 228.345 217.88 227.687 215.921 221.697C213.052 212.925 216.89 206.783 227.337 203.429ZM179.7 192.695C179.049 192.044 178.051 192.413 176.774 193.779C168.37 202.768 165.063 203.713 156.506 199.571C149.746 196.298 146.45 201.459 151.961 206.689C154.209 208.822 154.482 209.744 154.038 213.682C153.54 218.098 153.664 218.344 158.682 222.967C163.836 227.716 163.837 227.716 164.351 222.867C164.987 216.872 169.522 209.969 174.077 208.066C177.094 206.805 177.337 206.359 177.337 202.046C177.337 199.092 177.95 196.711 179.013 195.536C180.117 194.315 180.352 193.347 179.7 192.695ZM13.7354 183.697C21.2304 180.362 25.9355 181.225 32.1055 187.066C40.5644 195.074 37.0287 205.612 24.6309 209.343C9.40689 213.925 -0.704596 190.124 13.7354 183.697ZM252.956 148.251C262.129 145.732 267.81 147.203 270.983 152.921C277.397 164.478 257.352 180.919 247.179 172.445C237.093 164.044 240.016 151.805 252.956 148.251ZM175.822 162.709C174.842 161.123 172.482 161.589 171.417 163.579C170.283 165.699 171.384 170.913 173.086 171.481C174.366 171.905 176.761 164.229 175.822 162.709ZM150.152 111.481C150.492 108.526 149.534 108.177 145.513 109.79C142.108 111.155 143.035 114.231 146.851 114.231C149.365 114.231 149.886 113.796 150.152 111.481ZM156.837 98.731C156.012 98.731 155.337 99.406 155.337 100.231C155.337 101.056 156.012 101.731 156.837 101.731C157.662 101.731 158.337 101.056 158.337 100.231C158.337 99.4061 157.662 98.7312 156.837 98.731ZM131.337 85.6382C131.337 82.8002 129.491 81.4004 127.429 82.6743C126.501 83.2473 126.685 84.2905 128.185 86.9605C129.273 88.9003 130.316 91.46 130.5 92.6489C130.685 93.8379 131.287 94.905 131.837 95.021C133.25 95.317 133.729 90.7224 132.422 89.4155C131.825 88.8185 131.337 87.1191 131.337 85.6382ZM79.8369 36.9214C89.8819 31.2487 102.893 46.8492 95.6582 55.8921C92.2024 60.211 91.2042 63.981 91.8701 70.1997C92.5322 76.3837 92.4821 76.5638 89.0371 80.3628C76.0391 94.6997 55.1533 78.5005 64.8242 61.5825C66.3391 58.9327 67.3172 55.6452 67.3242 53.1753C67.3402 47.7053 72.4159 41.1124 79.8369 36.9214ZM120.896 78.731C120.653 78.731 120.177 79.1811 119.837 79.731C119.497 80.2809 119.695 80.7309 120.277 80.731C120.859 80.731 121.337 80.281 121.337 79.731C121.337 79.181 121.139 78.731 120.896 78.731ZM205.485 39.4898C219.631 37.0418 227.598 50.9151 220.597 65.8081C213.393 81.13 190.339 77.7861 190.091 61.3823C189.98 54.0764 199.509 40.5238 205.485 39.4898ZM51.8369 14.5542C64.4449 5.86451 75.68 19.3671 68.6241 34.731C62.385 48.3167 41.3372 43.775 41.3369 28.8423C41.3369 26.0333 47.6529 17.4382 51.8369 14.5542ZM108.212 2.17043C121.43 -6.81137 141.546 14.0924 133.237 28.1743C132.084 30.1297 130.819 31.7302 130.427 31.731C130.035 31.731 128.813 32.5703 127.713 33.5962C119.456 41.2872 107.786 35.7761 103.367 22.0991C100.152 12.1461 101.463 6.75643 108.212 2.17043Z" fill="#538FDF"/>
</g>
<path id="stroke0_7_52_ref" d="M57 29C57 44.464 44.464 57 29 57C13.536 57 1 44.464 1 29C1 13.536 13.536 1 29 1C44.464 1 57 13.536 57 29Z"/>
</defs>
</svg>
