<svg width="58" height="58" viewBox="0 0 58 58" fill="none" xmlns="http://www.w3.org/2000/svg" xmlns:xlink="http://www.w3.org/1999/xlink">
<g filter="url(#filter0_n_8_215)">
<path d="M1 57H57L1 1V57Z" fill="#538FDF"/>
<use xlink:href="#stroke0_8_215" transform="translate(56.2353 57.034) scale(0.00371918) rotate(-51.1396)"/>
<use xlink:href="#stroke0_8_215" transform="translate(57.5105 57.0981) scale(0.00392519) rotate(138.377)"/>
<use xlink:href="#stroke0_8_215" transform="translate(56.9368 57.4274) scale(0.00319382) rotate(171.959)"/>
<use xlink:href="#stroke0_8_215" transform="translate(55.62 57.1076) scale(0.00289207) rotate(-59.0117)"/>
<use xlink:href="#stroke0_8_215" transform="translate(55.5088 56.6861) scale(0.00278742) rotate(-15.4241)"/>
<use xlink:href="#stroke0_8_215" transform="translate(55.2776 57.2146) scale(0.00266041) rotate(-71.6721)"/>
<use xlink:href="#stroke0_8_215" transform="translate(55.696 57.7631) scale(0.00378885) rotate(-150.473)"/>
<use xlink:href="#stroke0_8_215" transform="translate(55.7223 57.3533) scale(0.00272273) rotate(170.496)"/>
<use xlink:href="#stroke0_8_215" transform="translate(55.1506 56.4416) scale(0.0027352) rotate(48.6785)"/>
<use xlink:href="#stroke0_8_215" transform="translate(55.4929 57.0864) scale(0.00312228) rotate(139.136)"/>
<use xlink:href="#stroke0_8_215" transform="translate(53.8785 56.8276) scale(0.00360347) rotate(-35.1545)"/>
<use xlink:href="#stroke0_8_215" transform="translate(54.594 56.2223) scale(0.00402444) rotate(61.5275)"/>
<use xlink:href="#stroke0_8_215" transform="translate(54.776 56.8033) scale(0.00384699) rotate(117.017)"/>
<use xlink:href="#stroke0_8_215" transform="translate(53.5379 57.7507) scale(0.00375273) rotate(-124.995)"/>
<use xlink:href="#stroke0_8_215" transform="translate(54.2151 57.254) scale(0.00404508) rotate(149.173)"/>
<use xlink:href="#stroke0_8_215" transform="translate(52.9499 57.5366) scale(0.00280229) rotate(-117.089)"/>
<use xlink:href="#stroke0_8_215" transform="translate(52.6728 57.7611) scale(0.00386939) rotate(-121.49)"/>
<use xlink:href="#stroke0_8_215" transform="translate(52.0139 56.5205) scale(0.00374347) rotate(-10.0998)"/>
<use xlink:href="#stroke0_8_215" transform="translate(52.8715 57.3046) scale(0.00287306) rotate(162.417)"/>
<use xlink:href="#stroke0_8_215" transform="translate(52.858 56.9741) scale(0.00359679) rotate(129.4)"/>
<use xlink:href="#stroke0_8_215" transform="translate(51.0983 56.7435) scale(0.00379677) rotate(-29.4352)"/>
<use xlink:href="#stroke0_8_215" transform="translate(52.021 57.5981) scale(0.00369678) rotate(-176.771)"/>
<use xlink:href="#stroke0_8_215" transform="translate(51.7719 56.7175) scale(0.0026328) rotate(99.9787)"/>
<use xlink:href="#stroke0_8_215" transform="translate(50.2617 57.1194) scale(0.00392122) rotate(-57.101)"/>
<use xlink:href="#stroke0_8_215" transform="translate(51.0008 56.3029) scale(0.00356125) rotate(59.3786)"/>
<use xlink:href="#stroke0_8_215" transform="translate(50.1454 57.5864) scale(0.00335769) rotate(-106.655)"/>
<use xlink:href="#stroke0_8_215" transform="translate(50.9709 57.1434) scale(0.00358997) rotate(142.595)"/>
<use xlink:href="#stroke0_8_215" transform="translate(49.6589 57.7094) scale(0.00375649) rotate(-115.18)"/>
<use xlink:href="#stroke0_8_215" transform="translate(49.2866 57.3093) scale(0.00260244) rotate(-83.8715)"/>
<use xlink:href="#stroke0_8_215" transform="translate(50.0586 56.8177) scale(0.00277117) rotate(112.759)"/>
<use xlink:href="#stroke0_8_215" transform="translate(49.647 57.6659) scale(0.00371563) rotate(-168.046)"/>
<use xlink:href="#stroke0_8_215" transform="translate(49.5585 57.4663) scale(0.00355886) rotate(170.952)"/>
<use xlink:href="#stroke0_8_215" transform="translate(49.315 57.0654) scale(0.00274729) rotate(138.046)"/>
<use xlink:href="#stroke0_8_215" transform="translate(48.47 56.4589) scale(0.00265585) rotate(33.2546)"/>
<use xlink:href="#stroke0_8_215" transform="translate(47.8726 56.644) scale(0.00284643) rotate(-11.1738)"/>
<use xlink:href="#stroke0_8_215" transform="translate(48.042 56.3723) scale(0.00306933) rotate(35.0136)"/>
<use xlink:href="#stroke0_8_215" transform="translate(48.4797 57.3534) scale(0.00344992) rotate(161.253)"/>
<use xlink:href="#stroke0_8_215" transform="translate(47.0132 57.0916) scale(0.00297691) rotate(-57.1895)"/>
<use xlink:href="#stroke0_8_215" transform="translate(47.5962 56.3625) scale(0.00326952) rotate(60.0651)"/>
<use xlink:href="#stroke0_8_215" transform="translate(47.2404 56.4586) scale(0.00266323) rotate(50.3901)"/>
<use xlink:href="#stroke0_8_215" transform="translate(47.4576 57.1815) scale(0.00260035) rotate(151.227)"/>
<use xlink:href="#stroke0_8_215" transform="translate(47.1471 56.5437) scale(0.00296792) rotate(83.0673)"/>
<use xlink:href="#stroke0_8_215" transform="translate(47.2887 56.868) scale(0.00400364) rotate(122.185)"/>
<use xlink:href="#stroke0_8_215" transform="translate(46.4207 56.4231) scale(0.00298605) rotate(61.5552)"/>
<use xlink:href="#stroke0_8_215" transform="translate(45.9792 57.8116) scale(0.00394732) rotate(-141.029)"/>
<use xlink:href="#stroke0_8_215" transform="translate(45.3317 56.2676) scale(0.00387368) rotate(18.1332)"/>
<use xlink:href="#stroke0_8_215" transform="translate(45.1909 57.4914) scale(0.00259523) rotate(-115.527)"/>
<use xlink:href="#stroke0_8_215" transform="translate(45.4485 57.7347) scale(0.00384712) rotate(-160.473)"/>
<use xlink:href="#stroke0_8_215" transform="translate(45.0678 57.6059) scale(0.00306847) rotate(-154.954)"/>
<use xlink:href="#stroke0_8_215" transform="translate(44.4659 56.1861) scale(0.00402478) rotate(30.7064)"/>
<use xlink:href="#stroke0_8_215" transform="translate(43.7556 56.5182) scale(0.00363415) rotate(-8.49442)"/>
<use xlink:href="#stroke0_8_215" transform="translate(43.501 57.5223) scale(0.00367841) rotate(-92.2196)"/>
<use xlink:href="#stroke0_8_215" transform="translate(43.3076 57.6315) scale(0.00378739) rotate(-102.709)"/>
<use xlink:href="#stroke0_8_215" transform="translate(43.5859 56.2646) scale(0.00360838) rotate(49.3994)"/>
<use xlink:href="#stroke0_8_215" transform="translate(43.0382 57.7984) scale(0.00395299) rotate(-127.518)"/>
<use xlink:href="#stroke0_8_215" transform="translate(43.4919 56.8066) scale(0.00286665) rotate(112.27)"/>
<use xlink:href="#stroke0_8_215" transform="translate(43.3589 57.4411) scale(0.00395603) rotate(164.207)"/>
<use xlink:href="#stroke0_8_215" transform="translate(41.8664 56.9466) scale(0.0027056) rotate(-43.0929)"/>
<use xlink:href="#stroke0_8_215" transform="translate(41.9112 57.4419) scale(0.00261353) rotate(-103.83)"/>
<use xlink:href="#stroke0_8_215" transform="translate(42.4348 56.3618) scale(0.0038306) rotate(77.3571)"/>
<use xlink:href="#stroke0_8_215" transform="translate(41.3834 57.7452) scale(0.00389307) rotate(-117.055)"/>
<use xlink:href="#stroke0_8_215" transform="translate(41.968 57.4023) scale(0.00338074) rotate(166.734)"/>
<use xlink:href="#stroke0_8_215" transform="translate(41.1932 56.3671) scale(0.00308129) rotate(44.9399)"/>
<use xlink:href="#stroke0_8_215" transform="translate(40.818 56.335) scale(0.00326377) rotate(33.3346)"/>
<use xlink:href="#stroke0_8_215" transform="translate(40.307 56.2826) scale(0.00384584) rotate(16.4213)"/>
<use xlink:href="#stroke0_8_215" transform="translate(40.1333 56.3233) scale(0.00347144) rotate(22.6938)"/>
<use xlink:href="#stroke0_8_215" transform="translate(39.6174 56.5447) scale(0.00324659) rotate(-5.6414)"/>
<use xlink:href="#stroke0_8_215" transform="translate(40.0038 57.6805) scale(0.00338619) rotate(-151.039)"/>
<use xlink:href="#stroke0_8_215" transform="translate(40.1058 57.3106) scale(0.00281266) rotate(163.861)"/>
<use xlink:href="#stroke0_8_215" transform="translate(39.9136 57.5164) scale(0.00363773) rotate(175.017)"/>
<use xlink:href="#stroke0_8_215" transform="translate(39.4525 56.3416) scale(0.00364249) rotate(69.9632)"/>
<use xlink:href="#stroke0_8_215" transform="translate(38.0871 57.4201) scale(0.00402804) rotate(-79.0464)"/>
<use xlink:href="#stroke0_8_215" transform="translate(39.0073 56.6832) scale(0.00272562) rotate(97.0126)"/>
<use xlink:href="#stroke0_8_215" transform="translate(38.9157 57.1355) scale(0.00292587) rotate(144.408)"/>
<use xlink:href="#stroke0_8_215" transform="translate(38.2703 57.5133) scale(0.00260133) rotate(-155.084)"/>
<use xlink:href="#stroke0_8_215" transform="translate(38.4717 56.9799) scale(0.00270553) rotate(129.338)"/>
<use xlink:href="#stroke0_8_215" transform="translate(37.0148 56.7311) scale(0.00348352) rotate(-26.5633)"/>
<use xlink:href="#stroke0_8_215" transform="translate(37.7108 57.4692) scale(0.00261594) rotate(-167.952)"/>
<use xlink:href="#stroke0_8_215" transform="translate(37.0371 57.5047) scale(0.00265345) rotate(-116.132)"/>
<use xlink:href="#stroke0_8_215" transform="translate(36.2874 57.163) scale(0.00358905) rotate(-61.3432)"/>
<use xlink:href="#stroke0_8_215" transform="translate(36.8446 57.6441) scale(0.00316277) rotate(-146.903)"/>
<use xlink:href="#stroke0_8_215" transform="translate(36.8397 57.5008) scale(0.00288695) rotate(-171.147)"/>
<use xlink:href="#stroke0_8_215" transform="translate(35.7744 57.1304) scale(0.00266998) rotate(-62.3267)"/>
<use xlink:href="#stroke0_8_215" transform="translate(36.4509 56.4287) scale(0.00330905) rotate(74.3741)"/>
<use xlink:href="#stroke0_8_215" transform="translate(35.6893 56.4532) scale(0.00276766) rotate(25.1493)"/>
<use xlink:href="#stroke0_8_215" transform="translate(35.1746 57.2799) scale(0.00264847) rotate(-79.4909)"/>
<use xlink:href="#stroke0_8_215" transform="translate(35.8846 57.3452) scale(0.00274781) rotate(169.019)"/>
<use xlink:href="#stroke0_8_215" transform="translate(35.4375 56.4464) scale(0.00288664) rotate(62.6803)"/>
<use xlink:href="#stroke0_8_215" transform="translate(35.186 56.2342) scale(0.00387369) rotate(57.5522)"/>
<use xlink:href="#stroke0_8_215" transform="translate(35.4245 56.8105) scale(0.00376503) rotate(117.247)"/>
<use xlink:href="#stroke0_8_215" transform="translate(34.5551 57.6246) scale(0.00311462) rotate(-151.588)"/>
<use xlink:href="#stroke0_8_215" transform="translate(33.6929 57.2145) scale(0.00263849) rotate(-71.8637)"/>
<use xlink:href="#stroke0_8_215" transform="translate(34.4771 57.4095) scale(0.00316515) rotate(170.359)"/>
<use xlink:href="#stroke0_8_215" transform="translate(33.3676 57.4208) scale(0.00274719) rotate(-96.6969)"/>
<use xlink:href="#stroke0_8_215" transform="translate(33.966 56.5091) scale(0.00323122) rotate(83.8316)"/>
<use xlink:href="#stroke0_8_215" transform="translate(33.1505 56.1795) scale(0.00401141) rotate(35.0887)"/>
<use xlink:href="#stroke0_8_215" transform="translate(32.6051 56.6064) scale(0.00266427) rotate(-2.72537)"/>
<use xlink:href="#stroke0_8_215" transform="translate(32.1701 56.6553) scale(0.0033156) rotate(-18.2529)"/>
<use xlink:href="#stroke0_8_215" transform="translate(31.964 57.5167) scale(0.00360138) rotate(-92.7943)"/>
<use xlink:href="#stroke0_8_215" transform="translate(32.8764 57.1083) scale(0.00314494) rotate(141.039)"/>
<use xlink:href="#stroke0_8_215" transform="translate(31.647 57.7406) scale(0.00392366) rotate(-115.103)"/>
<use xlink:href="#stroke0_8_215" transform="translate(31.463 56.3937) scale(0.00316128) rotate(20.1477)"/>
<use xlink:href="#stroke0_8_215" transform="translate(31.8358 57.5899) scale(0.00343116) rotate(-171.947)"/>
<use xlink:href="#stroke0_8_215" transform="translate(30.7892 56.327) scale(0.00376533) rotate(11.6875)"/>
<use xlink:href="#stroke0_8_215" transform="translate(31.319 57.3977) scale(0.00271561) rotate(176.769)"/>
<use xlink:href="#stroke0_8_215" transform="translate(30.4414 56.4305) scale(0.00305241) rotate(16.4375)"/>
<use xlink:href="#stroke0_8_215" transform="translate(30.3151 57.7953) scale(0.00391245) rotate(-129.591)"/>
<use xlink:href="#stroke0_8_215" transform="translate(29.9602 56.3093) scale(0.00349237) rotate(25.361)"/>
<use xlink:href="#stroke0_8_215" transform="translate(29.215 56.7233) scale(0.00354741) rotate(-26.3235)"/>
<use xlink:href="#stroke0_8_215" transform="translate(29.0737 57.1563) scale(0.00288069) rotate(-63.8786)"/>
<use xlink:href="#stroke0_8_215" transform="translate(30.1396 56.9914) scale(0.00360119) rotate(130.738)"/>
<use xlink:href="#stroke0_8_215" transform="translate(28.6514 56.7532) scale(0.00273418) rotate(-22.5776)"/>
<use xlink:href="#stroke0_8_215" transform="translate(28.2022 56.8539) scale(0.00354825) rotate(-37.0548)"/>
<use xlink:href="#stroke0_8_215" transform="translate(29.112 57.4431) scale(0.00305465) rotate(176.223)"/>
<use xlink:href="#stroke0_8_215" transform="translate(27.8565 56.8047) scale(0.00297295) rotate(-29.9783)"/>
<use xlink:href="#stroke0_8_215" transform="translate(28.7912 57.0334) scale(0.00279768) rotate(134.728)"/>
<use xlink:href="#stroke0_8_215" transform="translate(28.4666 57.5976) scale(0.00378985) rotate(-178.584)"/>
<use xlink:href="#stroke0_8_215" transform="translate(27.3379 57.3898) scale(0.00265177) rotate(-94.1795)"/>
<use xlink:href="#stroke0_8_215" transform="translate(27.884 57.5782) scale(0.00340229) rotate(-172.929)"/>
<use xlink:href="#stroke0_8_215" transform="translate(27.3067 56.3412) scale(0.00321929) rotate(47.4667)"/>
<use xlink:href="#stroke0_8_215" transform="translate(26.6941 57.7352) scale(0.0038133) rotate(-118.113)"/>
<use xlink:href="#stroke0_8_215" transform="translate(26.6649 56.4347) scale(0.00275899) rotate(36.0115)"/>
<use xlink:href="#stroke0_8_215" transform="translate(25.9995 56.5684) scale(0.00318149) rotate(-7.35362)"/>
<use xlink:href="#stroke0_8_215" transform="translate(26.3916 57.611) scale(0.00304234) rotate(-151.232)"/>
<use xlink:href="#stroke0_8_215" transform="translate(25.6271 56.3976) scale(0.00346018) rotate(9.17905)"/>
<use xlink:href="#stroke0_8_215" transform="translate(25.2137 56.8944) scale(0.00275165) rotate(-37.8492)"/>
<use xlink:href="#stroke0_8_215" transform="translate(25.0966 56.655) scale(0.002801) rotate(-11.8364)"/>
<use xlink:href="#stroke0_8_215" transform="translate(24.8133 56.9175) scale(0.00264337) rotate(-39.876)"/>
<use xlink:href="#stroke0_8_215" transform="translate(25.4414 57.509) scale(0.00287242) rotate(-169.168)"/>
<use xlink:href="#stroke0_8_215" transform="translate(24.7577 57.8061) scale(0.00396213) rotate(-129.95)"/>
<use xlink:href="#stroke0_8_215" transform="translate(23.9906 57.0341) scale(0.00303239) rotate(-51.7309)"/>
<use xlink:href="#stroke0_8_215" transform="translate(24.0494 56.4774) scale(0.00301337) rotate(8.82987)"/>
<use xlink:href="#stroke0_8_215" transform="translate(24.3085 56.2945) scale(0.00353156) rotate(55.3059)"/>
<use xlink:href="#stroke0_8_215" transform="translate(23.4668 56.67) scale(0.00264084) rotate(-11.2089)"/>
<use xlink:href="#stroke0_8_215" transform="translate(23.9762 57.5778) scale(0.00316055) rotate(-165.934)"/>
<use xlink:href="#stroke0_8_215" transform="translate(23.9579 57.3251) scale(0.00295211) rotate(163.75)"/>
<use xlink:href="#stroke0_8_215" transform="translate(22.923 57.7625) scale(0.00391431) rotate(-119.777)"/>
<use xlink:href="#stroke0_8_215" transform="translate(22.4878 56.3302) scale(0.00379388) rotate(10.476)"/>
<use xlink:href="#stroke0_8_215" transform="translate(23.3565 57.0859) scale(0.00367838) rotate(137.917)"/>
<use xlink:href="#stroke0_8_215" transform="translate(22.6677 57.6605) scale(0.00361242) rotate(-165.917)"/>
<use xlink:href="#stroke0_8_215" transform="translate(22.6173 57.1339) scale(0.00265495) rotate(145.593)"/>
<use xlink:href="#stroke0_8_215" transform="translate(22.1347 57.5175) scale(0.00280339) rotate(-164.833)"/>
<use xlink:href="#stroke0_8_215" transform="translate(21.4181 56.4877) scale(0.00276805) rotate(15.4715)"/>
<use xlink:href="#stroke0_8_215" transform="translate(21.9191 56.56) scale(0.00315516) rotate(88.7525)"/>
<use xlink:href="#stroke0_8_215" transform="translate(21.2574 57.813) scale(0.00397305) rotate(-144.743)"/>
<use xlink:href="#stroke0_8_215" transform="translate(21.4828 56.8932) scale(0.00282837) rotate(120.827)"/>
<use xlink:href="#stroke0_8_215" transform="translate(19.944 56.9385) scale(0.00353168) rotate(-43.7427)"/>
<use xlink:href="#stroke0_8_215" transform="translate(20.6735 56.4649) scale(0.00286798) rotate(66.3705)"/>
<use xlink:href="#stroke0_8_215" transform="translate(20.5671 57.5845) scale(0.00339098) rotate(-171.718)"/>
<use xlink:href="#stroke0_8_215" transform="translate(19.7913 57.6519) scale(0.00324162) rotate(-126.332)"/>
<use xlink:href="#stroke0_8_215" transform="translate(20.4014 56.6385) scale(0.00402477) rotate(105.532)"/>
<use xlink:href="#stroke0_8_215" transform="translate(19.9283 57.1287) scale(0.00263037) rotate(145.158)"/>
<use xlink:href="#stroke0_8_215" transform="translate(18.6985 56.7891) scale(0.00264922) rotate(-25.8413)"/>
<use xlink:href="#stroke0_8_215" transform="translate(19.7005 56.9513) scale(0.00358876) rotate(127.622)"/>
<use xlink:href="#stroke0_8_215" transform="translate(19.4368 57.1822) scale(0.00376733) rotate(144.996)"/>
<use xlink:href="#stroke0_8_215" transform="translate(17.9603 56.7643) scale(0.00259927) rotate(-22.4513)"/>
<use xlink:href="#stroke0_8_215" transform="translate(17.6131 56.6118) scale(0.00345507) rotate(-15.5041)"/>
<use xlink:href="#stroke0_8_215" transform="translate(17.4561 57.366) scale(0.00303271) rotate(-84.5026)"/>
<use xlink:href="#stroke0_8_215" transform="translate(17.0826 56.9754) scale(0.00313165) rotate(-46.4103)"/>
<use xlink:href="#stroke0_8_215" transform="translate(17.6146 57.5896) scale(0.00292254) rotate(-149.974)"/>
<use xlink:href="#stroke0_8_215" transform="translate(17.3482 57.5359) scale(0.00262234) rotate(-145.364)"/>
<use xlink:href="#stroke0_8_215" transform="translate(16.6301 57.3279) scale(0.00271002) rotate(-84.602)"/>
<use xlink:href="#stroke0_8_215" transform="translate(16.7928 56.4623) scale(0.00264484) rotate(32.4839)"/>
<use xlink:href="#stroke0_8_215" transform="translate(16.22 56.5837) scale(0.00295644) rotate(-5.42401)"/>
<use xlink:href="#stroke0_8_215" transform="translate(16.9044 57.4121) scale(0.0030335) rotate(172.711)"/>
<use xlink:href="#stroke0_8_215" transform="translate(15.9757 56.5223) scale(0.00260837) rotate(14.2742)"/>
<use xlink:href="#stroke0_8_215" transform="translate(15.8031 56.4387) scale(0.00290616) rotate(21.1933)"/>
<use xlink:href="#stroke0_8_215" transform="translate(16.3434 57.0564) scale(0.00266771) rotate(137.303)"/>
<use xlink:href="#stroke0_8_215" transform="translate(15.5132 57.7275) scale(0.00354257) rotate(-134.871)"/>
<use xlink:href="#stroke0_8_215" transform="translate(15.864 56.8277) scale(0.00277333) rotate(113.839)"/>
<use xlink:href="#stroke0_8_215" transform="translate(14.7857 57.4539) scale(0.00271293) rotate(-102.986)"/>
<use xlink:href="#stroke0_8_215" transform="translate(14.7352 56.2796) scale(0.00356274) rotate(30.6839)"/>
<use xlink:href="#stroke0_8_215" transform="translate(14.3366 57.6127) scale(0.0032631) rotate(-114.437)"/>
<use xlink:href="#stroke0_8_215" transform="translate(13.8081 56.6311) scale(0.00324008) rotate(-15.0094)"/>
<use xlink:href="#stroke0_8_215" transform="translate(13.61 57.0559) scale(0.0025954) rotate(-54.5975)"/>
<use xlink:href="#stroke0_8_215" transform="translate(14.6312 56.7213) scale(0.00382257) rotate(110.655)"/>
<use xlink:href="#stroke0_8_215" transform="translate(13.2999 56.4735) scale(0.00303104) rotate(8.98011)"/>
<use xlink:href="#stroke0_8_215" transform="translate(13.9999 57.0166) scale(0.00287043) rotate(133.016)"/>
<use xlink:href="#stroke0_8_215" transform="translate(12.3468 56.8352) scale(0.00397697) rotate(-36.9802)"/>
<use xlink:href="#stroke0_8_215" transform="translate(13.4137 56.7808) scale(0.00274913) rotate(108.609)"/>
<use xlink:href="#stroke0_8_215" transform="translate(12.8453 56.4213) scale(0.0029301) rotate(57.7417)"/>
<use xlink:href="#stroke0_8_215" transform="translate(12.2162 57.6456) scale(0.00331654) rotate(-119.666)"/>
<use xlink:href="#stroke0_8_215" transform="translate(12.849 57.443) scale(0.00398256) rotate(164.123)"/>
<use xlink:href="#stroke0_8_215" transform="translate(11.9515 56.295) scale(0.00344481) rotate(47.4852)"/>
<use xlink:href="#stroke0_8_215" transform="translate(11.047 57.0488) scale(0.00287024) rotate(-53.3326)"/>
<use xlink:href="#stroke0_8_215" transform="translate(10.8759 57.477) scale(0.00342785) rotate(-91.1389)"/>
<use xlink:href="#stroke0_8_215" transform="translate(10.9048 57.5248) scale(0.00282953) rotate(-112.91)"/>
<use xlink:href="#stroke0_8_215" transform="translate(10.4074 57.2208) scale(0.00281136) rotate(-71.0308)"/>
<use xlink:href="#stroke0_8_215" transform="translate(10.1794 56.7374) scale(0.00293445) rotate(-22.8178)"/>
<use xlink:href="#stroke0_8_215" transform="translate(10.4015 56.3446) scale(0.00321268) rotate(33.802)"/>
<use xlink:href="#stroke0_8_215" transform="translate(10.9878 56.9974) scale(0.0037049) rotate(131.207)"/>
<use xlink:href="#stroke0_8_215" transform="translate(9.19956 56.8334) scale(0.00370217) rotate(-35.9632)"/>
<use xlink:href="#stroke0_8_215" transform="translate(9.46771 57.4922) scale(0.00264668) rotate(-113.228)"/>
<use xlink:href="#stroke0_8_215" transform="translate(8.90363 57.5123) scale(0.00367547) rotate(-91.2297)"/>
<use xlink:href="#stroke0_8_215" transform="translate(9.53036 56.4989) scale(0.00289019) rotate(74.0039)"/>
<use xlink:href="#stroke0_8_215" transform="translate(9.64303 56.7097) scale(0.00359364) rotate(108.297)"/>
<use xlink:href="#stroke0_8_215" transform="translate(7.99673 57.3921) scale(0.00382772) rotate(-78.4478)"/>
<use xlink:href="#stroke0_8_215" transform="translate(7.75328 56.9472) scale(0.00320977) rotate(-44.0097)"/>
<use xlink:href="#stroke0_8_215" transform="translate(7.56108 57.3929) scale(0.00346915) rotate(-81.9844)"/>
<use xlink:href="#stroke0_8_215" transform="translate(7.66048 57.622) scale(0.00324127) rotate(-117.419)"/>
<use xlink:href="#stroke0_8_215" transform="translate(7.04298 56.7469) scale(0.00321919) rotate(-26.1351)"/>
<use xlink:href="#stroke0_8_215" transform="translate(7.75547 57.6923) scale(0.00381012) rotate(-166.595)"/>
<use xlink:href="#stroke0_8_215" transform="translate(7.86583 57.0387) scale(0.00372513) rotate(134.294)"/>
<use xlink:href="#stroke0_8_215" transform="translate(7.25189 56.5592) scale(0.00290706) rotate(83.9426)"/>
<use xlink:href="#stroke0_8_215" transform="translate(7.32341 57.0118) scale(0.00349987) rotate(132.345)"/>
<use xlink:href="#stroke0_8_215" transform="translate(6.55071 56.4614) scale(0.00276962) rotate(60.4953)"/>
<use xlink:href="#stroke0_8_215" transform="translate(6.03828 56.3835) scale(0.00303832) rotate(31.7694)"/>
<use xlink:href="#stroke0_8_215" transform="translate(6.48218 56.919) scale(0.00274828) rotate(123.17)"/>
<use xlink:href="#stroke0_8_215" transform="translate(5.9617 57.7218) scale(0.00377625) rotate(-160.343)"/>
<use xlink:href="#stroke0_8_215" transform="translate(5.78729 57.5368) scale(0.00319335) rotate(-173.831)"/>
<use xlink:href="#stroke0_8_215" transform="translate(4.52368 57.1653) scale(0.00321318) rotate(-63.0728)"/>
<use xlink:href="#stroke0_8_215" transform="translate(4.15838 56.8512) scale(0.00368118) rotate(-37.2672)"/>
<use xlink:href="#stroke0_8_215" transform="translate(5.36048 56.9639) scale(0.00358069) rotate(128.595)"/>
<use xlink:href="#stroke0_8_215" transform="translate(4.15639 57.4965) scale(0.0026592) rotate(-113.715)"/>
<use xlink:href="#stroke0_8_215" transform="translate(4.63305 57.6437) scale(0.00395593) rotate(-176.354)"/>
<use xlink:href="#stroke0_8_215" transform="translate(3.81952 57.5741) scale(0.00280353) rotate(-132.886)"/>
<use xlink:href="#stroke0_8_215" transform="translate(3.76917 57.6383) scale(0.00315529) rotate(-149.186)"/>
<use xlink:href="#stroke0_8_215" transform="translate(2.84475 57.4266) scale(0.00340188) rotate(-86.1323)"/>
<use xlink:href="#stroke0_8_215" transform="translate(2.38728 57.2678) scale(0.00381316) rotate(-68.5464)"/>
<use xlink:href="#stroke0_8_215" transform="translate(3.38442 56.7736) scale(0.00270128) rotate(107.375)"/>
<use xlink:href="#stroke0_8_215" transform="translate(3.01915 57.5471) scale(0.00320227) rotate(-172.485)"/>
<use xlink:href="#stroke0_8_215" transform="translate(2.16249 57.6663) scale(0.00343515) rotate(-119.075)"/>
<use xlink:href="#stroke0_8_215" transform="translate(2.9302 56.9891) scale(0.00395058) rotate(130.64)"/>
<use xlink:href="#stroke0_8_215" transform="translate(2.06927 56.4229) scale(0.0029955) rotate(61.9905)"/>
<use xlink:href="#stroke0_8_215" transform="translate(1.00569 57.4431) scale(0.00360572) rotate(-85.2606)"/>
<use xlink:href="#stroke0_8_215" transform="translate(1.97674 57.4719) scale(0.00395869) rotate(166.804)"/>
<use xlink:href="#stroke0_8_215" transform="translate(0.638632 57.4089) scale(0.00283168) rotate(-93.1566)"/>
<use xlink:href="#stroke0_8_215" transform="translate(1.73927 57.0396) scale(0.00377297) rotate(149.216)"/>
<use xlink:href="#stroke0_8_215" transform="translate(0.920392 57.1361) scale(0.0028809) rotate(-130.879)"/>
<use xlink:href="#stroke0_8_215" transform="translate(1.40855 55.9158) scale(0.00283002) rotate(85.9496)"/>
<use xlink:href="#stroke0_8_215" transform="translate(0.216795 56.3268) scale(0.0040043) rotate(-66.72)"/>
<use xlink:href="#stroke0_8_215" transform="translate(0.491587 55.3337) scale(0.00332339) rotate(-6.61187)"/>
<use xlink:href="#stroke0_8_215" transform="translate(1.59228 56.0889) scale(0.00401971) rotate(175.684)"/>
<use xlink:href="#stroke0_8_215" transform="translate(0.289934 55.3616) scale(0.00351423) rotate(-59.5467)"/>
<use xlink:href="#stroke0_8_215" transform="translate(1.51032 54.4675) scale(0.00344274) rotate(87.4805)"/>
<use xlink:href="#stroke0_8_215" transform="translate(1.08166 55.4362) scale(0.00365445) rotate(-144.829)"/>
<use xlink:href="#stroke0_8_215" transform="translate(0.396502 54.9107) scale(0.00383111) rotate(-88.6508)"/>
<use xlink:href="#stroke0_8_215" transform="translate(0.384605 53.7255) scale(0.00355649) rotate(-15.818)"/>
<use xlink:href="#stroke0_8_215" transform="translate(0.288854 53.4066) scale(0.00402831) rotate(-17.6659)"/>
<use xlink:href="#stroke0_8_215" transform="translate(0.549262 53.0122) scale(0.00340697) rotate(1.40042)"/>
<use xlink:href="#stroke0_8_215" transform="translate(0.713339 52.7904) scale(0.00288201) rotate(12.503)"/>
<use xlink:href="#stroke0_8_215" transform="translate(1.3231 52.6538) scale(0.00266916) rotate(77.4322)"/>
<use xlink:href="#stroke0_8_215" transform="translate(1.15312 52.2385) scale(0.00318156) rotate(54.9289)"/>
<use xlink:href="#stroke0_8_215" transform="translate(0.993146 53.1909) scale(0.00260689) rotate(-137.863)"/>
<use xlink:href="#stroke0_8_215" transform="translate(0.865502 51.8624) scale(0.0029004) rotate(28.3827)"/>
<use xlink:href="#stroke0_8_215" transform="translate(1.58528 52.303) scale(0.00286965) rotate(139.089)"/>
<use xlink:href="#stroke0_8_215" transform="translate(1.0196 52.7378) scale(0.00371757) rotate(-140.064)"/>
<use xlink:href="#stroke0_8_215" transform="translate(0.814131 52.2918) scale(0.00292152) rotate(-120.588)"/>
<use xlink:href="#stroke0_8_215" transform="translate(0.407986 51.1553) scale(0.0032885) rotate(-19.6108)"/>
<use xlink:href="#stroke0_8_215" transform="translate(0.572738 51.7246) scale(0.00314619) rotate(-97.3054)"/>
<use xlink:href="#stroke0_8_215" transform="translate(0.993684 51.7832) scale(0.00396625) rotate(-138.152)"/>
<use xlink:href="#stroke0_8_215" transform="translate(1.69784 50.9704) scale(0.00368107) rotate(154.309)"/>
<use xlink:href="#stroke0_8_215" transform="translate(1.48836 50.8141) scale(0.00305261) rotate(170.385)"/>
<use xlink:href="#stroke0_8_215" transform="translate(1.70434 49.7496) scale(0.0039422) rotate(101.648)"/>
<use xlink:href="#stroke0_8_215" transform="translate(0.671768 49.288) scale(0.003277) rotate(12.2812)"/>
<use xlink:href="#stroke0_8_215" transform="translate(0.881983 48.8748) scale(0.00363599) rotate(32.3303)"/>
<use xlink:href="#stroke0_8_215" transform="translate(0.352896 49.1111) scale(0.00334758) rotate(-28.5258)"/>
<use xlink:href="#stroke0_8_215" transform="translate(1.05806 49.7306) scale(0.00306126) rotate(-143.883)"/>
<use xlink:href="#stroke0_8_215" transform="translate(1.44501 49.3735) scale(0.00329802) rotate(-179.564)"/>
<use xlink:href="#stroke0_8_215" transform="translate(0.635449 49.2176) scale(0.00347257) rotate(-107.925)"/>
<use xlink:href="#stroke0_8_215" transform="translate(0.647076 48.9199) scale(0.00327475) rotate(-107.017)"/>
<use xlink:href="#stroke0_8_215" transform="translate(1.53469 48.4202) scale(0.00301299) rotate(161.831)"/>
<use xlink:href="#stroke0_8_215" transform="translate(1.58504 47.6924) scale(0.00298182) rotate(113.835)"/>
<use xlink:href="#stroke0_8_215" transform="translate(0.497831 47.4572) scale(0.00263789) rotate(-26.264)"/>
<use xlink:href="#stroke0_8_215" transform="translate(1.69924 47.4669) scale(0.00340158) rotate(134.158)"/>
<use xlink:href="#stroke0_8_215" transform="translate(0.411053 46.904) scale(0.00316649) rotate(-23.2506)"/>
<use xlink:href="#stroke0_8_215" transform="translate(1.71468 46.6685) scale(0.00368453) rotate(111.88)"/>
<use xlink:href="#stroke0_8_215" transform="translate(1.66768 46.2442) scale(0.00376646) rotate(100.875)"/>
<use xlink:href="#stroke0_8_215" transform="translate(1.12771 45.7223) scale(0.0032166) rotate(52.528)"/>
<use xlink:href="#stroke0_8_215" transform="translate(0.305929 46.349) scale(0.00356139) rotate(-67.3389)"/>
<use xlink:href="#stroke0_8_215" transform="translate(0.527281 46.2854) scale(0.00309013) rotate(-90.5803)"/>
<use xlink:href="#stroke0_8_215" transform="translate(1.09799 44.7608) scale(0.0040472) rotate(48.1606)"/>
<use xlink:href="#stroke0_8_215" transform="translate(1.52191 45.4775) scale(0.00263083) rotate(146.838)"/>
<use xlink:href="#stroke0_8_215" transform="translate(1.5338 45.0834) scale(0.00260535) rotate(126.001)"/>
<use xlink:href="#stroke0_8_215" transform="translate(1.40631 44.2587) scale(0.00366501) rotate(73.9982)"/>
<use xlink:href="#stroke0_8_215" transform="translate(0.783302 44.0687) scale(0.00297417) rotate(20.6707)"/>
<use xlink:href="#stroke0_8_215" transform="translate(1.09581 43.5703) scale(0.00394915) rotate(48.1747)"/>
<use xlink:href="#stroke0_8_215" transform="translate(0.60084 44.5438) scale(0.00283297) rotate(-95.389)"/>
<use xlink:href="#stroke0_8_215" transform="translate(0.374951 43.7901) scale(0.0030785) rotate(-39.1921)"/>
<use xlink:href="#stroke0_8_215" transform="translate(1.1415 44.3121) scale(0.00328476) rotate(-150.677)"/>
<use xlink:href="#stroke0_8_215" transform="translate(0.322463 43.1559) scale(0.00348785) rotate(-29.3122)"/>
<use xlink:href="#stroke0_8_215" transform="translate(1.00717 43.7771) scale(0.00308406) rotate(-139.243)"/>
<use xlink:href="#stroke0_8_215" transform="translate(0.622171 42.4132) scale(0.00303044) rotate(4.11721)"/>
<use xlink:href="#stroke0_8_215" transform="translate(1.10861 42.0876) scale(0.00293634) rotate(51.7582)"/>
<use xlink:href="#stroke0_8_215" transform="translate(0.686663 42.9965) scale(0.00304372) rotate(-108.581)"/>
<use xlink:href="#stroke0_8_215" transform="translate(0.680598 41.6144) scale(0.00329488) rotate(13.3035)"/>
<use xlink:href="#stroke0_8_215" transform="translate(1.58454 42.168) scale(0.00299439) rotate(149.864)"/>
<use xlink:href="#stroke0_8_215" transform="translate(0.603264 41.1477) scale(0.00341769) rotate(7.06815)"/>
<use xlink:href="#stroke0_8_215" transform="translate(1.13921 42.1489) scale(0.00336818) rotate(-150.181)"/>
<use xlink:href="#stroke0_8_215" transform="translate(1.1117 40.4035) scale(0.00387775) rotate(49.4507)"/>
<use xlink:href="#stroke0_8_215" transform="translate(1.67647 40.9373) scale(0.00328796) rotate(132.816)"/>
<use xlink:href="#stroke0_8_215" transform="translate(1.59986 40.5591) scale(0.00297519) rotate(119.835)"/>
<use xlink:href="#stroke0_8_215" transform="translate(1.37248 40.8721) scale(0.00267562) rotate(178.838)"/>
<use xlink:href="#stroke0_8_215" transform="translate(0.509136 39.7487) scale(0.00336242) rotate(-3.77721)"/>
<use xlink:href="#stroke0_8_215" transform="translate(0.184412 40.0582) scale(0.00399388) rotate(-55.7289)"/>
<use xlink:href="#stroke0_8_215" transform="translate(0.766972 39.1855) scale(0.00274165) rotate(17.0114)"/>
<use xlink:href="#stroke0_8_215" transform="translate(0.918611 38.6551) scale(0.00387025) rotate(35.5397)"/>
<use xlink:href="#stroke0_8_215" transform="translate(1.20811 39.928) scale(0.00390883) rotate(-153.588)"/>
<use xlink:href="#stroke0_8_215" transform="translate(1.58434 38.3429) scale(0.00378424) rotate(90.0218)"/>
<use xlink:href="#stroke0_8_215" transform="translate(0.592539 37.9057) scale(0.003784) rotate(9.85603)"/>
<use xlink:href="#stroke0_8_215" transform="translate(1.09918 39.0023) scale(0.0034831) rotate(-146.549)"/>
<use xlink:href="#stroke0_8_215" transform="translate(0.673005 38.5281) scale(0.00280358) rotate(-104.073)"/>
<use xlink:href="#stroke0_8_215" transform="translate(0.896691 38.5874) scale(0.0038656) rotate(-131.134)"/>
<use xlink:href="#stroke0_8_215" transform="translate(1.54235 37.5074) scale(0.00264363) rotate(126.86)"/>
<use xlink:href="#stroke0_8_215" transform="translate(1.13973 36.6623) scale(0.00328842) rotate(53.3199)"/>
<use xlink:href="#stroke0_8_215" transform="translate(1.62123 36.5033) scale(0.00400917) rotate(90.2489)"/>
<use xlink:href="#stroke0_8_215" transform="translate(1.44536 37.3368) scale(0.0035473) rotate(-176.188)"/>
<use xlink:href="#stroke0_8_215" transform="translate(1.60312 36.1775) scale(0.00331579) rotate(103.512)"/>
<use xlink:href="#stroke0_8_215" transform="translate(0.466412 35.9329) scale(0.00302839) rotate(-17.4813)"/>
<use xlink:href="#stroke0_8_215" transform="translate(0.384649 36.2579) scale(0.00321055) rotate(-69.9555)"/>
<use xlink:href="#stroke0_8_215" transform="translate(0.435413 35.6757) scale(0.00279733) rotate(-37.3215)"/>
<use xlink:href="#stroke0_8_215" transform="translate(1.24017 36.1516) scale(0.00308417) rotate(-160.829)"/>
<use xlink:href="#stroke0_8_215" transform="translate(1.58768 35.1079) scale(0.00305295) rotate(110.689)"/>
<use xlink:href="#stroke0_8_215" transform="translate(0.505605 34.5171) scale(0.00362456) rotate(-0.107482)"/>
<use xlink:href="#stroke0_8_215" transform="translate(0.419917 34.2398) scale(0.00388332) rotate(-5.13357)"/>
<use xlink:href="#stroke0_8_215" transform="translate(1.46297 34.0759) scale(0.00312547) rotate(87.4392)"/>
<use xlink:href="#stroke0_8_215" transform="translate(1.3327 33.4858) scale(0.00404608) rotate(64.9542)"/>
<use xlink:href="#stroke0_8_215" transform="translate(1.14837 33.3685) scale(0.00305103) rotate(55.0724)"/>
<use xlink:href="#stroke0_8_215" transform="translate(1.34981 34.2122) scale(0.00279363) rotate(-176.072)"/>
<use xlink:href="#stroke0_8_215" transform="translate(0.735286 34.0554) scale(0.00280439) rotate(-111.295)"/>
<use xlink:href="#stroke0_8_215" transform="translate(1.36448 33.8336) scale(0.00306453) rotate(-173.9)"/>
<use xlink:href="#stroke0_8_215" transform="translate(1.49322 33.4069) scale(0.00283844) rotate(163.804)"/>
<use xlink:href="#stroke0_8_215" transform="translate(0.626343 33.3547) scale(0.00296275) rotate(-100.802)"/>
<use xlink:href="#stroke0_8_215" transform="translate(1.00558 32.0315) scale(0.00298653) rotate(41.9251)"/>
<use xlink:href="#stroke0_8_215" transform="translate(0.827618 31.7613) scale(0.0032535) rotate(26.4859)"/>
<use xlink:href="#stroke0_8_215" transform="translate(1.45644 31.6138) scale(0.00343402) rotate(81.6343)"/>
<use xlink:href="#stroke0_8_215" transform="translate(0.556113 32.2628) scale(0.00272957) rotate(-86.3927)"/>
<use xlink:href="#stroke0_8_215" transform="translate(1.69599 31.3306) scale(0.00376468) rotate(105.342)"/>
<use xlink:href="#stroke0_8_215" transform="translate(1.42009 32.0341) scale(0.00375995) rotate(-171.476)"/>
<use xlink:href="#stroke0_8_215" transform="translate(0.696272 30.4907) scale(0.00336347) rotate(15.3786)"/>
<use xlink:href="#stroke0_8_215" transform="translate(1.5706 30.7323) scale(0.00285867) rotate(117.306)"/>
<use xlink:href="#stroke0_8_215" transform="translate(0.798948 31.1746) scale(0.00266054) rotate(-117.053)"/>
<use xlink:href="#stroke0_8_215" transform="translate(1.14908 31.0218) scale(0.00284591) rotate(-153.341)"/>
<use xlink:href="#stroke0_8_215" transform="translate(0.486104 30.6108) scale(0.00311269) rotate(-85.2535)"/>
<use xlink:href="#stroke0_8_215" transform="translate(0.475281 30.4504) scale(0.00342723) rotate(-90.5279)"/>
<use xlink:href="#stroke0_8_215" transform="translate(1.504 29.4281) scale(0.002877) rotate(99.7482)"/>
<use xlink:href="#stroke0_8_215" transform="translate(0.277773 29.348) scale(0.0035791) rotate(-37.2634)"/>
<use xlink:href="#stroke0_8_215" transform="translate(1.46261 28.9132) scale(0.00278142) rotate(95.3211)"/>
<use xlink:href="#stroke0_8_215" transform="translate(0.935386 29.7681) scale(0.00373607) rotate(-133.775)"/>
<use xlink:href="#stroke0_8_215" transform="translate(1.74038 28.6406) scale(0.00361903) rotate(125.157)"/>
<use xlink:href="#stroke0_8_215" transform="translate(1.32421 28.0319) scale(0.00269184) rotate(77.2239)"/>
<use xlink:href="#stroke0_8_215" transform="translate(0.992029 27.485) scale(0.00366343) rotate(40.7988)"/>
<use xlink:href="#stroke0_8_215" transform="translate(0.232689 28.1758) scale(0.00388474) rotate(-64.9058)"/>
<use xlink:href="#stroke0_8_215" transform="translate(0.486499 27.1289) scale(0.0036093) rotate(-2.32876)"/>
<use xlink:href="#stroke0_8_215" transform="translate(0.641097 27.8329) scale(0.00262942) rotate(-97.0483)"/>
<use xlink:href="#stroke0_8_215" transform="translate(0.745555 27.7959) scale(0.00310711) rotate(-115.148)"/>
<use xlink:href="#stroke0_8_215" transform="translate(0.489722 26.6888) scale(0.00285938) rotate(-18.7222)"/>
<use xlink:href="#stroke0_8_215" transform="translate(0.367616 27.1488) scale(0.00367828) rotate(-81.9396)"/>
<use xlink:href="#stroke0_8_215" transform="translate(1.12646 25.9503) scale(0.00269294) rotate(54.5942)"/>
<use xlink:href="#stroke0_8_215" transform="translate(1.54118 26.4265) scale(0.00271973) rotate(146.195)"/>
<use xlink:href="#stroke0_8_215" transform="translate(0.93954 25.4543) scale(0.00298736) rotate(35.7611)"/>
<use xlink:href="#stroke0_8_215" transform="translate(0.380427 26.3088) scale(0.00388232) rotate(-87.7499)"/>
<use xlink:href="#stroke0_8_215" transform="translate(1.60582 25.5735) scale(0.00294716) rotate(134.188)"/>
<use xlink:href="#stroke0_8_215" transform="translate(0.655208 24.8021) scale(0.00301073) rotate(7.59308)"/>
<use xlink:href="#stroke0_8_215" transform="translate(1.79285 24.876) scale(0.00394603) rotate(118.903)"/>
<use xlink:href="#stroke0_8_215" transform="translate(1.48797 24.5716) scale(0.00262111) rotate(106.175)"/>
<use xlink:href="#stroke0_8_215" transform="translate(0.58481 24.0387) scale(0.00329869) rotate(3.70048)"/>
<use xlink:href="#stroke0_8_215" transform="translate(0.349645 24.5144) scale(0.00329184) rotate(-64.8597)"/>
<use xlink:href="#stroke0_8_215" transform="translate(1.37323 23.3815) scale(0.00374711) rotate(70.3508)"/>
<use xlink:href="#stroke0_8_215" transform="translate(1.50999 24.327) scale(0.00365411) rotate(178.705)"/>
<use xlink:href="#stroke0_8_215" transform="translate(0.700563 23.0845) scale(0.00262802) rotate(7.78756)"/>
<use xlink:href="#stroke0_8_215" transform="translate(0.508018 23.7146) scale(0.00307161) rotate(-87.4923)"/>
<use xlink:href="#stroke0_8_215" transform="translate(0.478097 23.3093) scale(0.0027392) rotate(-70.8065)"/>
<use xlink:href="#stroke0_8_215" transform="translate(0.506383 23.249) scale(0.00300218) rotate(-85.5684)"/>
<use xlink:href="#stroke0_8_215" transform="translate(1.47512 23.2668) scale(0.00392585) rotate(-174.615)"/>
<use xlink:href="#stroke0_8_215" transform="translate(1.48883 21.9639) scale(0.00302245) rotate(93.2054)"/>
<use xlink:href="#stroke0_8_215" transform="translate(0.452954 22.0266) scale(0.00270545) rotate(-37.8623)"/>
<use xlink:href="#stroke0_8_215" transform="translate(0.203328 21.9165) scale(0.00387523) rotate(-51.2553)"/>
<use xlink:href="#stroke0_8_215" transform="translate(1.51443 21.3527) scale(0.00282605) rotate(103.595)"/>
<use xlink:href="#stroke0_8_215" transform="translate(0.576069 21.8795) scale(0.00311893) rotate(-97.2611)"/>
<use xlink:href="#stroke0_8_215" transform="translate(0.61738 21.7351) scale(0.00340096) rotate(-105.457)"/>
<use xlink:href="#stroke0_8_215" transform="translate(0.407669 20.8307) scale(0.00290304) rotate(-41.0876)"/>
<use xlink:href="#stroke0_8_215" transform="translate(0.50198 20.5016) scale(0.00260296) rotate(-26.9792)"/>
<use xlink:href="#stroke0_8_215" transform="translate(0.571155 20.1684) scale(0.00263022) rotate(-10.9911)"/>
<use xlink:href="#stroke0_8_215" transform="translate(1.35189 19.8587) scale(0.00272223) rotate(80.3145)"/>
<use xlink:href="#stroke0_8_215" transform="translate(1.51043 20.3336) scale(0.00275696) rotate(157.297)"/>
<use xlink:href="#stroke0_8_215" transform="translate(1.46687 19.6174) scale(0.00260621) rotate(101.914)"/>
<use xlink:href="#stroke0_8_215" transform="translate(1.31359 19.2233) scale(0.00268806) rotate(75.9355)"/>
<use xlink:href="#stroke0_8_215" transform="translate(1.57741 18.9329) scale(0.00371768) rotate(90.4018)"/>
<use xlink:href="#stroke0_8_215" transform="translate(1.62102 19.2123) scale(0.00302216) rotate(134.566)"/>
<use xlink:href="#stroke0_8_215" transform="translate(1.77704 18.7998) scale(0.0038186) rotate(122.803)"/>
<use xlink:href="#stroke0_8_215" transform="translate(1.22129 18.0437) scale(0.00314497) rotate(61.3971)"/>
<use xlink:href="#stroke0_8_215" transform="translate(0.80401 19.1555) scale(0.0038643) rotate(-124.328)"/>
<use xlink:href="#stroke0_8_215" transform="translate(0.57385 17.3827) scale(0.00399291) rotate(10.167)"/>
<use xlink:href="#stroke0_8_215" transform="translate(1.23465 17.3302) scale(0.00268619) rotate(66.5212)"/>
<use xlink:href="#stroke0_8_215" transform="translate(0.309013 17.4711) scale(0.00341399) rotate(-38.1611)"/>
<use xlink:href="#stroke0_8_215" transform="translate(0.54732 17.8134) scale(0.00315487) rotate(-94.3923)"/>
<use xlink:href="#stroke0_8_215" transform="translate(1.66417 17.2417) scale(0.00329775) rotate(143.276)"/>
<use xlink:href="#stroke0_8_215" transform="translate(0.607071 17.45) scale(0.00351604) rotate(-105.706)"/>
<use xlink:href="#stroke0_8_215" transform="translate(0.211739 16.4687) scale(0.00385658) rotate(-41.8884)"/>
<use xlink:href="#stroke0_8_215" transform="translate(0.533433 16.7265) scale(0.00308165) rotate(-91.232)"/>
<use xlink:href="#stroke0_8_215" transform="translate(0.743736 16.6063) scale(0.00289096) rotate(-113.082)"/>
<use xlink:href="#stroke0_8_215" transform="translate(0.613976 15.0758) scale(0.00401402) rotate(13.5462)"/>
<use xlink:href="#stroke0_8_215" transform="translate(1.3325 16.0524) scale(0.00296747) rotate(-171.582)"/>
<use xlink:href="#stroke0_8_215" transform="translate(0.640069 14.9103) scale(0.00266915) rotate(0.46727)"/>
<use xlink:href="#stroke0_8_215" transform="translate(0.888728 15.8118) scale(0.00355875) rotate(-129.857)"/>
<use xlink:href="#stroke0_8_215" transform="translate(1.60545 14.4587) scale(0.0034298) rotate(100.469)"/>
<use xlink:href="#stroke0_8_215" transform="translate(0.732748 15.2233) scale(0.00348314) rotate(-116.706)"/>
<use xlink:href="#stroke0_8_215" transform="translate(0.447481 14.6362) scale(0.00312726) rotate(-79.4483)"/>
<use xlink:href="#stroke0_8_215" transform="translate(1.56735 13.8103) scale(0.00303458) rotate(106.698)"/>
<use xlink:href="#stroke0_8_215" transform="translate(1.60772 14.0956) scale(0.00321663) rotate(154.766)"/>
<use xlink:href="#stroke0_8_215" transform="translate(0.473735 13.7097) scale(0.00260135) rotate(-59.1739)"/>
<use xlink:href="#stroke0_8_215" transform="translate(0.642785 12.8121) scale(0.00328526) rotate(9.51158)"/>
<use xlink:href="#stroke0_8_215" transform="translate(0.871 13.7718) scale(0.00312448) rotate(-127.023)"/>
<use xlink:href="#stroke0_8_215" transform="translate(1.52218 12.4648) scale(0.00329441) rotate(91.7745)"/>
<use xlink:href="#stroke0_8_215" transform="translate(0.935946 12.1025) scale(0.00275855) rotate(34.9262)"/>
<use xlink:href="#stroke0_8_215" transform="translate(0.632651 12.0336) scale(0.0027258) rotate(0.497158)"/>
<use xlink:href="#stroke0_8_215" transform="translate(1.12821 12.8178) scale(0.00285257) rotate(-151.21)"/>
<use xlink:href="#stroke0_8_215" transform="translate(1.4867 11.8024) scale(0.00262377) rotate(105.738)"/>
<use xlink:href="#stroke0_8_215" transform="translate(1.31011 11.3289) scale(0.0028532) rotate(73.2828)"/>
<use xlink:href="#stroke0_8_215" transform="translate(0.521792 11.8667) scale(0.00261688) rotate(-75.98)"/>
<use xlink:href="#stroke0_8_215" transform="translate(1.36235 10.9331) scale(0.00290389) rotate(78.7277)"/>
<use xlink:href="#stroke0_8_215" transform="translate(0.796629 11.9254) scale(0.00389957) rotate(-123.916)"/>
<use xlink:href="#stroke0_8_215" transform="translate(1.64643 10.4272) scale(0.00377124) rotate(97.8008)"/>
<use xlink:href="#stroke0_8_215" transform="translate(1.35586 11.0182) scale(0.00262001) rotate(-179.893)"/>
<use xlink:href="#stroke0_8_215" transform="translate(0.499606 10.2125) scale(0.00261994) rotate(-26.7281)"/>
<use xlink:href="#stroke0_8_215" transform="translate(0.671283 9.63065) scale(0.00316387) rotate(11.0839)"/>
<use xlink:href="#stroke0_8_215" transform="translate(0.312428 9.93157) scale(0.00334155) rotate(-47.4937)"/>
<use xlink:href="#stroke0_8_215" transform="translate(1.53325 9.12424) scale(0.00372643) rotate(85.458)"/>
<use xlink:href="#stroke0_8_215" transform="translate(0.27712 9.58896) scale(0.00363702) rotate(-63.6312)"/>
<use xlink:href="#stroke0_8_215" transform="translate(1.60548 9.19934) scale(0.00295452) rotate(136.667)"/>
<use xlink:href="#stroke0_8_215" transform="translate(1.4633 9.38587) scale(0.00323527) rotate(177.312)"/>
<use xlink:href="#stroke0_8_215" transform="translate(0.768648 9.17371) scale(0.00263132) rotate(-113.304)"/>
<use xlink:href="#stroke0_8_215" transform="translate(0.982527 9.13819) scale(0.0033073) rotate(-137.124)"/>
<use xlink:href="#stroke0_8_215" transform="translate(1.62697 8.18404) scale(0.00305028) rotate(128.535)"/>
<use xlink:href="#stroke0_8_215" transform="translate(0.462445 8.22045) scale(0.00284004) rotate(-71.7123)"/>
<use xlink:href="#stroke0_8_215" transform="translate(0.867187 7.15333) scale(0.00304871) rotate(29.184)"/>
<use xlink:href="#stroke0_8_215" transform="translate(0.826497 6.80663) scale(0.00354494) rotate(27.6468)"/>
<use xlink:href="#stroke0_8_215" transform="translate(1.57985 7.27952) scale(0.00281772) rotate(132.072)"/>
<use xlink:href="#stroke0_8_215" transform="translate(0.193482 7.04941) scale(0.00392228) rotate(-50.9754)"/>
<use xlink:href="#stroke0_8_215" transform="translate(0.358296 7.00682) scale(0.00338147) rotate(-71.36)"/>
<use xlink:href="#stroke0_8_215" transform="translate(1.24922 5.86498) scale(0.00324668) rotate(63.3049)"/>
<use xlink:href="#stroke0_8_215" transform="translate(1.63584 6.46059) scale(0.0032761) rotate(150.831)"/>
<use xlink:href="#stroke0_8_215" transform="translate(0.774288 6.5552) scale(0.00290947) rotate(-116.45)"/>
<use xlink:href="#stroke0_8_215" transform="translate(0.417467 5.86928) scale(0.00286316) rotate(-57.2511)"/>
<use xlink:href="#stroke0_8_215" transform="translate(1.64856 5.00102) scale(0.00402977) rotate(92.851)"/>
<use xlink:href="#stroke0_8_215" transform="translate(1.70431 5.13119) scale(0.00345753) rotate(123.215)"/>
<use xlink:href="#stroke0_8_215" transform="translate(1.54149 5.21588) scale(0.00284658) rotate(153.841)"/>
<use xlink:href="#stroke0_8_215" transform="translate(1.60807 4.30209) scale(0.00365401) rotate(95.364)"/>
<use xlink:href="#stroke0_8_215" transform="translate(0.659302 4.99972) scale(0.00297072) rotate(-104.729)"/>
<use xlink:href="#stroke0_8_215" transform="translate(1.51585 4.55916) scale(0.00287522) rotate(160.739)"/>
<use xlink:href="#stroke0_8_215" transform="translate(1.43819 4.58066) scale(0.00342226) rotate(-177.069)"/>
<use xlink:href="#stroke0_8_215" transform="translate(0.707263 3.34502) scale(0.00262404) rotate(8.5798)"/>
<use xlink:href="#stroke0_8_215" transform="translate(1.37458 4.19335) scale(0.00356268) rotate(-169.318)"/>
<use xlink:href="#stroke0_8_215" transform="translate(0.440508 3.54773) scale(0.00294431) rotate(-71.1765)"/>
<use xlink:href="#stroke0_8_215" transform="translate(1.24471 2.2817) scale(0.00393186) rotate(59.0073)"/>
<use xlink:href="#stroke0_8_215" transform="translate(0.525459 2.06748) scale(0.00403647) rotate(6.56757)"/>
<use xlink:href="#stroke0_8_215" transform="translate(0.721249 2.02421) scale(0.00265544) rotate(10.7362)"/>
<use xlink:href="#stroke0_8_215" transform="translate(0.526344 2.89676) scale(0.00392012) rotate(-102.644)"/>
<use xlink:href="#stroke0_8_215" transform="translate(1.64266 1.46548) scale(0.00389824) rotate(94.6358)"/>
<use xlink:href="#stroke0_8_215" transform="translate(0.614122 2.26069) scale(0.00344532) rotate(-105.624)"/>
<use xlink:href="#stroke0_8_215" transform="translate(0.296453 1.68957) scale(0.0037096) rotate(-71.4425)"/>
<use xlink:href="#stroke0_8_215" transform="translate(0.472221 0.902018) scale(0.00282166) rotate(-23.9438)"/>
<use xlink:href="#stroke0_8_215" transform="translate(1.08697 1.58459) scale(0.00263015) rotate(-143.049)"/>
<use xlink:href="#stroke0_8_215" transform="translate(1.09841 0.4061) scale(0.00402188) rotate(32.6634)"/>
<use xlink:href="#stroke0_8_215" transform="translate(1.25289 0.810653) scale(0.00303693) rotate(26.4265)"/>
<use xlink:href="#stroke0_8_215" transform="translate(1.04471 1.40124) scale(0.00266999) rotate(-30.9048)"/>
<use xlink:href="#stroke0_8_215" transform="translate(2.24258 2.18063) scale(0.00331893) rotate(172.728)"/>
<use xlink:href="#stroke0_8_215" transform="translate(2.21028 2.55741) scale(0.00345394) rotate(-163.394)"/>
<use xlink:href="#stroke0_8_215" transform="translate(1.62003 1.73967) scale(0.00278147) rotate(-12.0941)"/>
<use xlink:href="#stroke0_8_215" transform="translate(2.93373 2.57124) scale(0.00364843) rotate(156.444)"/>
<use xlink:href="#stroke0_8_215" transform="translate(2.52423 1.80023) scale(0.003118) rotate(49.3263)"/>
<use xlink:href="#stroke0_8_215" transform="translate(3.01354 3.17098) scale(0.00335604) rotate(-174.319)"/>
<use xlink:href="#stroke0_8_215" transform="translate(3.42316 2.37104) scale(0.00367629) rotate(96.8863)"/>
<use xlink:href="#stroke0_8_215" transform="translate(2.45121 3.57601) scale(0.00386535) rotate(-94.6747)"/>
<use xlink:href="#stroke0_8_215" transform="translate(2.7629 2.80651) scale(0.00272466) rotate(-6.74785)"/>
<use xlink:href="#stroke0_8_215" transform="translate(2.69829 3.39404) scale(0.0031209) rotate(-53.5885)"/>
<use xlink:href="#stroke0_8_215" transform="translate(3.98606 2.87358) scale(0.00387998) rotate(76.5138)"/>
<use xlink:href="#stroke0_8_215" transform="translate(3.11782 3.30437) scale(0.0036146) rotate(-13.8095)"/>
<use xlink:href="#stroke0_8_215" transform="translate(4.18314 4.60691) scale(0.00356081) rotate(-159.46)"/>
<use xlink:href="#stroke0_8_215" transform="translate(4.31467 4.9062) scale(0.00391442) rotate(-152.316)"/>
<use xlink:href="#stroke0_8_215" transform="translate(4.12133 5.10774) scale(0.00389859) rotate(-123.214)"/>
<use xlink:href="#stroke0_8_215" transform="translate(3.9611 4.25772) scale(0.00300025) rotate(-23.4531)"/>
<use xlink:href="#stroke0_8_215" transform="translate(4.11008 5.02132) scale(0.00324223) rotate(-78.5365)"/>
<use xlink:href="#stroke0_8_215" transform="translate(5.53656 4.93224) scale(0.00328397) rotate(137.187)"/>
<use xlink:href="#stroke0_8_215" transform="translate(4.3202 4.77867) scale(0.00381796) rotate(-27.963)"/>
<use xlink:href="#stroke0_8_215" transform="translate(4.63012 4.97519) scale(0.00327324) rotate(-24.8318)"/>
<use xlink:href="#stroke0_8_215" transform="translate(6.01617 5.6945) scale(0.00318476) rotate(156.099)"/>
<use xlink:href="#stroke0_8_215" transform="translate(5.87359 6.36291) scale(0.00387103) rotate(-157.854)"/>
<use xlink:href="#stroke0_8_215" transform="translate(5.05149 5.84) scale(0.00371286) rotate(-50.4556)"/>
<use xlink:href="#stroke0_8_215" transform="translate(6.73956 6.05451) scale(0.00354719) rotate(134.833)"/>
<use xlink:href="#stroke0_8_215" transform="translate(6.6794 5.93008) scale(0.00271438) rotate(104.875)"/>
<use xlink:href="#stroke0_8_215" transform="translate(6.95252 5.88818) scale(0.0036869) rotate(93.713)"/>
<use xlink:href="#stroke0_8_215" transform="translate(6.54507 5.8571) scale(0.00332324) rotate(41.7442)"/>
<use xlink:href="#stroke0_8_215" transform="translate(6.84199 7.43355) scale(0.00349139) rotate(-147.993)"/>
<use xlink:href="#stroke0_8_215" transform="translate(6.96384 6.11065) scale(0.00396409) rotate(44.0927)"/>
<use xlink:href="#stroke0_8_215" transform="translate(6.6195 7.52276) scale(0.00311907) rotate(-87.8635)"/>
<use xlink:href="#stroke0_8_215" transform="translate(6.86367 6.90529) scale(0.00266998) rotate(-6.66544)"/>
<use xlink:href="#stroke0_8_215" transform="translate(8.07581 7.83719) scale(0.00362804) rotate(163.344)"/>
<use xlink:href="#stroke0_8_215" transform="translate(7.80843 7.06087) scale(0.00285779) rotate(60.4018)"/>
<use xlink:href="#stroke0_8_215" transform="translate(8.22641 8.14018) scale(0.00285002) rotate(170.438)"/>
<use xlink:href="#stroke0_8_215" transform="translate(8.434 8.1445) scale(0.00271969) rotate(154.952)"/>
<use xlink:href="#stroke0_8_215" transform="translate(8.89771 8.1898) scale(0.00390385) rotate(137.866)"/>
<use xlink:href="#stroke0_8_215" transform="translate(7.73683 8.42641) scale(0.0027269) rotate(-63.9211)"/>
<use xlink:href="#stroke0_8_215" transform="translate(7.98489 8.98478) scale(0.00344666) rotate(-98.2137)"/>
<use xlink:href="#stroke0_8_215" transform="translate(8.29431 9.24604) scale(0.00341039) rotate(-110.093)"/>
<use xlink:href="#stroke0_8_215" transform="translate(9.41937 8.39328) scale(0.00357789) rotate(96.2206)"/>
<use xlink:href="#stroke0_8_215" transform="translate(8.40711 9.47349) scale(0.00369845) rotate(-85.7628)"/>
<use xlink:href="#stroke0_8_215" transform="translate(8.89659 9.82913) scale(0.00338383) rotate(-112.353)"/>
<use xlink:href="#stroke0_8_215" transform="translate(9.06997 9.94289) scale(0.00312281) rotate(-109.768)"/>
<use xlink:href="#stroke0_8_215" transform="translate(9.74185 10.0874) scale(0.00283263) rotate(-158.818)"/>
<use xlink:href="#stroke0_8_215" transform="translate(9.15057 9.75565) scale(0.00263014) rotate(-55.8216)"/>
<use xlink:href="#stroke0_8_215" transform="translate(9.40745 9.37215) scale(0.00311178) rotate(-1.36174)"/>
<use xlink:href="#stroke0_8_215" transform="translate(9.99395 9.39869) scale(0.0029498) rotate(40.2999)"/>
<use xlink:href="#stroke0_8_215" transform="translate(9.40351 10.4383) scale(0.00401844) rotate(-65.8176)"/>
<use xlink:href="#stroke0_8_215" transform="translate(9.89915 10.6231) scale(0.0026011) rotate(-76.5893)"/>
<use xlink:href="#stroke0_8_215" transform="translate(9.93916 10.1426) scale(0.00347456) rotate(-15.2003)"/>
<use xlink:href="#stroke0_8_215" transform="translate(10.3382 10.0666) scale(0.00374919) rotate(10.8149)"/>
<use xlink:href="#stroke0_8_215" transform="translate(10.6145 10.2363) scale(0.00371609) rotate(16.8776)"/>
<use xlink:href="#stroke0_8_215" transform="translate(10.6483 11.7735) scale(0.00389903) rotate(-101.056)"/>
<use xlink:href="#stroke0_8_215" transform="translate(12.0081 11.6869) scale(0.00365311) rotate(158.821)"/>
<use xlink:href="#stroke0_8_215" transform="translate(12.0715 11.0795) scale(0.00342162) rotate(91.4816)"/>
<use xlink:href="#stroke0_8_215" transform="translate(12.2875 11.6332) scale(0.00286909) rotate(124.82)"/>
<use xlink:href="#stroke0_8_215" transform="translate(11.8889 12.6257) scale(0.00364136) rotate(-139.55)"/>
<use xlink:href="#stroke0_8_215" transform="translate(11.9705 11.4941) scale(0.00271597) rotate(33.461)"/>
<use xlink:href="#stroke0_8_215" transform="translate(11.617 12.3856) scale(0.00297643) rotate(-66.1275)"/>
<use xlink:href="#stroke0_8_215" transform="translate(11.9839 11.8206) scale(0.00325668) rotate(6.32485)"/>
<use xlink:href="#stroke0_8_215" transform="translate(12.3416 13.2345) scale(0.00347524) rotate(-121.615)"/>
<use xlink:href="#stroke0_8_215" transform="translate(13.1883 13.0205) scale(0.00272063) rotate(164.173)"/>
<use xlink:href="#stroke0_8_215" transform="translate(12.8236 13.5178) scale(0.00313227) rotate(-134.007)"/>
<use xlink:href="#stroke0_8_215" transform="translate(13.4609 13.4811) scale(0.00296555) rotate(177.742)"/>
<use xlink:href="#stroke0_8_215" transform="translate(13.8717 13.5196) scale(0.00352148) rotate(156.316)"/>
<use xlink:href="#stroke0_8_215" transform="translate(13.9907 12.8439) scale(0.00394011) rotate(86.5915)"/>
<use xlink:href="#stroke0_8_215" transform="translate(13.5541 12.9747) scale(0.00306928) rotate(36.8468)"/>
<use xlink:href="#stroke0_8_215" transform="translate(14.3063 14.2509) scale(0.00343413) rotate(173.226)"/>
<use xlink:href="#stroke0_8_215" transform="translate(14.4155 14.6708) scale(0.00397319) rotate(-170.843)"/>
<use xlink:href="#stroke0_8_215" transform="translate(14.7435 14.1759) scale(0.00282439) rotate(132.734)"/>
<use xlink:href="#stroke0_8_215" transform="translate(13.8632 13.9193) scale(0.00293651) rotate(-7.36039)"/>
<use xlink:href="#stroke0_8_215" transform="translate(15.1249 14.0852) scale(0.0036511) rotate(98.3397)"/>
<use xlink:href="#stroke0_8_215" transform="translate(14.1223 15.1069) scale(0.00341786) rotate(-85.3807)"/>
<use xlink:href="#stroke0_8_215" transform="translate(14.3473 14.3058) scale(0.00380891) rotate(-1.44963)"/>
<use xlink:href="#stroke0_8_215" transform="translate(15.0681 15.6877) scale(0.00302754) rotate(-138.916)"/>
<use xlink:href="#stroke0_8_215" transform="translate(15.5801 14.5858) scale(0.00358884) rotate(68.5605)"/>
<use xlink:href="#stroke0_8_215" transform="translate(15.4737 16.1882) scale(0.00364948) rotate(-141.319)"/>
<use xlink:href="#stroke0_8_215" transform="translate(16.2217 15.8486) scale(0.00312407) rotate(152.176)"/>
<use xlink:href="#stroke0_8_215" transform="translate(15.0672 15.4583) scale(0.00401212) rotate(-23.1668)"/>
<use xlink:href="#stroke0_8_215" transform="translate(16.5046 15.6296) scale(0.00303851) rotate(94.7589)"/>
<use xlink:href="#stroke0_8_215" transform="translate(15.764 15.6973) scale(0.00299725) rotate(0.789956)"/>
<use xlink:href="#stroke0_8_215" transform="translate(16.4344 17.0721) scale(0.00357275) rotate(-145.765)"/>
<use xlink:href="#stroke0_8_215" transform="translate(15.7317 16.4607) scale(0.00397878) rotate(-42.6069)"/>
<use xlink:href="#stroke0_8_215" transform="translate(17.1658 16.2638) scale(0.003103) rotate(83.5937)"/>
<use xlink:href="#stroke0_8_215" transform="translate(17.6001 16.586) scale(0.0036822) rotate(105.27)"/>
<use xlink:href="#stroke0_8_215" transform="translate(16.5511 17.5094) scale(0.00333663) rotate(-84.2699)"/>
<use xlink:href="#stroke0_8_215" transform="translate(17.7682 17.783) scale(0.003344) rotate(177.276)"/>
<use xlink:href="#stroke0_8_215" transform="translate(17.3097 16.6874) scale(0.00397486) rotate(28.9439)"/>
<use xlink:href="#stroke0_8_215" transform="translate(17.0519 17.3828) scale(0.00341049) rotate(-23.0666)"/>
<use xlink:href="#stroke0_8_215" transform="translate(17.391 18.3267) scale(0.00321516) rotate(-92.9859)"/>
<use xlink:href="#stroke0_8_215" transform="translate(18.4784 18.3441) scale(0.00270515) rotate(166.586)"/>
<use xlink:href="#stroke0_8_215" transform="translate(17.8496 18.8372) scale(0.00354941) rotate(-110.653)"/>
<use xlink:href="#stroke0_8_215" transform="translate(18.5658 17.7037) scale(0.00340543) rotate(56.833)"/>
<use xlink:href="#stroke0_8_215" transform="translate(19.0036 17.9062) scale(0.0038598) rotate(74.0481)"/>
<use xlink:href="#stroke0_8_215" transform="translate(18.8168 18.0123) scale(0.00373353) rotate(44.1703)"/>
<use xlink:href="#stroke0_8_215" transform="translate(18.6897 18.3936) scale(0.00306934) rotate(15.7635)"/>
<use xlink:href="#stroke0_8_215" transform="translate(19.3687 18.6081) scale(0.00276623) rotate(67.2687)"/>
<use xlink:href="#stroke0_8_215" transform="translate(18.6666 19.1237) scale(0.00305984) rotate(-34.4763)"/>
<use xlink:href="#stroke0_8_215" transform="translate(19.9521 19.1307) scale(0.00290993) rotate(100.511)"/>
<use xlink:href="#stroke0_8_215" transform="translate(19.2101 19.0963) scale(0.00309528) rotate(3.65941)"/>
<use xlink:href="#stroke0_8_215" transform="translate(19.7431 20.6038) scale(0.00396022) rotate(-135.285)"/>
<use xlink:href="#stroke0_8_215" transform="translate(20.5548 20.3012) scale(0.00318203) rotate(160.512)"/>
<use xlink:href="#stroke0_8_215" transform="translate(20.8434 20.4177) scale(0.0035273) rotate(151.903)"/>
<use xlink:href="#stroke0_8_215" transform="translate(20.146 19.586) scale(0.00392819) rotate(25.7341)"/>
<use xlink:href="#stroke0_8_215" transform="translate(21.0264 20.3108) scale(0.00261107) rotate(106.09)"/>
<use xlink:href="#stroke0_8_215" transform="translate(21.1879 20.3406) scale(0.00295446) rotate(96.2177)"/>
<use xlink:href="#stroke0_8_215" transform="translate(21.1257 20.1263) scale(0.00383286) rotate(60.0276)"/>
<use xlink:href="#stroke0_8_215" transform="translate(20.6749 20.5681) scale(0.0030264) rotate(3.36734)"/>
<use xlink:href="#stroke0_8_215" transform="translate(21.2498 21.7721) scale(0.00271969) rotate(-142.306)"/>
<use xlink:href="#stroke0_8_215" transform="translate(21.9119 21.2991) scale(0.00269969) rotate(125.157)"/>
<use xlink:href="#stroke0_8_215" transform="translate(20.8008 21.8478) scale(0.00388282) rotate(-71.4892)"/>
<use xlink:href="#stroke0_8_215" transform="translate(21.1371 21.7629) scale(0.00283033) rotate(-53.0257)"/>
<use xlink:href="#stroke0_8_215" transform="translate(22.4691 21.2982) scale(0.00402516) rotate(84.5509)"/>
<use xlink:href="#stroke0_8_215" transform="translate(21.5921 21.8075) scale(0.00274992) rotate(-19.2046)"/>
<use xlink:href="#stroke0_8_215" transform="translate(22.3265 23.0756) scale(0.00394659) rotate(-142.892)"/>
<use xlink:href="#stroke0_8_215" transform="translate(22.5591 23.0618) scale(0.00300284) rotate(-148.485)"/>
<use xlink:href="#stroke0_8_215" transform="translate(22.0422 22.5461) scale(0.00276842) rotate(-42.3042)"/>
<use xlink:href="#stroke0_8_215" transform="translate(22.4263 22.1861) scale(0.00330713) rotate(10.858)"/>
<use xlink:href="#stroke0_8_215" transform="translate(22.3309 22.8808) scale(0.00298273) rotate(-42.8979)"/>
<use xlink:href="#stroke0_8_215" transform="translate(23.5417 22.5521) scale(0.00343185) rotate(78.6116)"/>
<use xlink:href="#stroke0_8_215" transform="translate(23.4795 24.0868) scale(0.00385754) rotate(-150.845)"/>
<use xlink:href="#stroke0_8_215" transform="translate(23.3212 24.0303) scale(0.00275296) rotate(-121.352)"/>
<use xlink:href="#stroke0_8_215" transform="translate(23.1141 24.2295) scale(0.00383278) rotate(-94.1255)"/>
<use xlink:href="#stroke0_8_215" transform="translate(24.3524 23.5308) scale(0.00289544) rotate(99.2439)"/>
<use xlink:href="#stroke0_8_215" transform="translate(23.3359 24.3067) scale(0.0036131) rotate(-70.9956)"/>
<use xlink:href="#stroke0_8_215" transform="translate(23.4865 23.9954) scale(0.00373619) rotate(-31.4988)"/>
<use xlink:href="#stroke0_8_215" transform="translate(23.8549 24.4067) scale(0.00261321) rotate(-50.1072)"/>
<use xlink:href="#stroke0_8_215" transform="translate(23.865 24.9569) scale(0.00390474) rotate(-77.4976)"/>
<use xlink:href="#stroke0_8_215" transform="translate(24.9847 25.3332) scale(0.00302199) rotate(-160.255)"/>
<use xlink:href="#stroke0_8_215" transform="translate(24.4362 24.6203) scale(0.00269248) rotate(-17.1854)"/>
<use xlink:href="#stroke0_8_215" transform="translate(25.3647 25.8) scale(0.00374552) rotate(-160.057)"/>
<use xlink:href="#stroke0_8_215" transform="translate(25.126 24.5141) scale(0.00383596) rotate(29.6388)"/>
<use xlink:href="#stroke0_8_215" transform="translate(25.2169 24.9438) scale(0.00281217) rotate(15.8963)"/>
<use xlink:href="#stroke0_8_215" transform="translate(25.9743 26.3694) scale(0.00386066) rotate(-163.006)"/>
<use xlink:href="#stroke0_8_215" transform="translate(25.5277 25.3573) scale(0.00267254) rotate(9.05208)"/>
<use xlink:href="#stroke0_8_215" transform="translate(25.9659 25.4069) scale(0.00272337) rotate(41.2548)"/>
<use xlink:href="#stroke0_8_215" transform="translate(25.5286 25.9143) scale(0.00306318) rotate(-29.2325)"/>
<use xlink:href="#stroke0_8_215" transform="translate(26.2102 26.9762) scale(0.00333265) rotate(-131.431)"/>
<use xlink:href="#stroke0_8_215" transform="translate(26.9014 27.0399) scale(0.00342085) rotate(-175.601)"/>
<use xlink:href="#stroke0_8_215" transform="translate(26.1238 26.4043) scale(0.00278987) rotate(-23.8081)"/>
<use xlink:href="#stroke0_8_215" transform="translate(26.0646 26.7244) scale(0.00369951) rotate(-41.3833)"/>
<use xlink:href="#stroke0_8_215" transform="translate(27.4652 26.4429) scale(0.00353741) rotate(79.6079)"/>
<use xlink:href="#stroke0_8_215" transform="translate(26.8105 26.6163) scale(0.00342796) rotate(7.62763)"/>
<use xlink:href="#stroke0_8_215" transform="translate(27.2884 27.8954) scale(0.00260301) rotate(-130.35)"/>
<use xlink:href="#stroke0_8_215" transform="translate(26.859 27.8554) scale(0.0036322) rotate(-74.0775)"/>
<use xlink:href="#stroke0_8_215" transform="translate(27.2759 27.3007) scale(0.00289747) rotate(-5.27976)"/>
<use xlink:href="#stroke0_8_215" transform="translate(28.2032 27.4236) scale(0.00269825) rotate(79.5089)"/>
<use xlink:href="#stroke0_8_215" transform="translate(28.6599 27.8522) scale(0.00321498) rotate(116.717)"/>
<use xlink:href="#stroke0_8_215" transform="translate(27.8348 27.6409) scale(0.00319543) rotate(8.43542)"/>
<use xlink:href="#stroke0_8_215" transform="translate(27.6599 28.1866) scale(0.00359757) rotate(-33.7968)"/>
<use xlink:href="#stroke0_8_215" transform="translate(27.7738 28.5853) scale(0.00390787) rotate(-49.1162)"/>
<use xlink:href="#stroke0_8_215" transform="translate(28.2303 29.3018) scale(0.00368325) rotate(-91.8259)"/>
<use xlink:href="#stroke0_8_215" transform="translate(29.4525 29.6216) scale(0.0038364) rotate(-174.888)"/>
<use xlink:href="#stroke0_8_215" transform="translate(28.5127 28.7475) scale(0.00396865) rotate(-15.3254)"/>
<use xlink:href="#stroke0_8_215" transform="translate(30.1441 29.0342) scale(0.00400642) rotate(104.253)"/>
<use xlink:href="#stroke0_8_215" transform="translate(30.3796 29.8489) scale(0.00384264) rotate(148.075)"/>
<use xlink:href="#stroke0_8_215" transform="translate(30.1068 29.0773) scale(0.00389875) rotate(61.5403)"/>
<use xlink:href="#stroke0_8_215" transform="translate(29.4836 30.388) scale(0.0031619) rotate(-82.9362)"/>
<use xlink:href="#stroke0_8_215" transform="translate(29.5219 29.7719) scale(0.00398779) rotate(-16.0348)"/>
<use xlink:href="#stroke0_8_215" transform="translate(29.7764 30.6245) scale(0.00324551) rotate(-67.4596)"/>
<use xlink:href="#stroke0_8_215" transform="translate(31.1464 30.6726) scale(0.00283174) rotate(141.314)"/>
<use xlink:href="#stroke0_8_215" transform="translate(30.1221 30.4332) scale(0.00334324) rotate(-22.2398)"/>
<use xlink:href="#stroke0_8_215" transform="translate(30.5466 31.477) scale(0.00326287) rotate(-105.15)"/>
<use xlink:href="#stroke0_8_215" transform="translate(31.1315 30.4508) scale(0.00310491) rotate(45.2764)"/>
<use xlink:href="#stroke0_8_215" transform="translate(30.6487 31.2854) scale(0.00293154) rotate(-51.8703)"/>
<use xlink:href="#stroke0_8_215" transform="translate(31.739 31.8811) scale(0.00281959) rotate(-173.624)"/>
<use xlink:href="#stroke0_8_215" transform="translate(31.7281 32.0711) scale(0.00265441) rotate(-157.237)"/>
<use xlink:href="#stroke0_8_215" transform="translate(31.2401 31.3053) scale(0.00298173) rotate(-7.90508)"/>
<use xlink:href="#stroke0_8_215" transform="translate(31.6723 31.1985) scale(0.00345456) rotate(24.5153)"/>
<use xlink:href="#stroke0_8_215" transform="translate(31.5502 31.758) scale(0.00279412) rotate(-18.4044)"/>
<use xlink:href="#stroke0_8_215" transform="translate(32.5355 31.7165) scale(0.00285877) rotate(76.2203)"/>
<use xlink:href="#stroke0_8_215" transform="translate(32.843 32.1132) scale(0.00266116) rotate(105.987)"/>
<use xlink:href="#stroke0_8_215" transform="translate(32.6455 33.1787) scale(0.00331856) rotate(-150.087)"/>
<use xlink:href="#stroke0_8_215" transform="translate(32.8441 33.2814) scale(0.00302645) rotate(-153.827)"/>
<use xlink:href="#stroke0_8_215" transform="translate(32.2405 33.0043) scale(0.00303345) rotate(-63.498)"/>
<use xlink:href="#stroke0_8_215" transform="translate(33.3953 32.611) scale(0.00269482) rotate(87.1415)"/>
<use xlink:href="#stroke0_8_215" transform="translate(33.7153 33.2171) scale(0.00278853) rotate(138.536)"/>
<use xlink:href="#stroke0_8_215" transform="translate(33.7425 32.6576) scale(0.0038239) rotate(73.527)"/>
<use xlink:href="#stroke0_8_215" transform="translate(32.9734 33.7601) scale(0.00286342) rotate(-74.3231)"/>
<use xlink:href="#stroke0_8_215" transform="translate(32.9802 33.3709) scale(0.00372997) rotate(-24.6863)"/>
<use xlink:href="#stroke0_8_215" transform="translate(34.6152 33.8138) scale(0.0035899) rotate(126.322)"/>
<use xlink:href="#stroke0_8_215" transform="translate(34.0342 33.4741) scale(0.00280762) rotate(39.6762)"/>
<use xlink:href="#stroke0_8_215" transform="translate(34.4012 34.9702) scale(0.00370771) rotate(-151.774)"/>
<use xlink:href="#stroke0_8_215" transform="translate(35.0695 34.6605) scale(0.00337687) rotate(151.814)"/>
<use xlink:href="#stroke0_8_215" transform="translate(34.7419 35.2461) scale(0.00323548) rotate(-151.22)"/>
<use xlink:href="#stroke0_8_215" transform="translate(34.1454 34.807) scale(0.00301711) rotate(-52.4891)"/>
<use xlink:href="#stroke0_8_215" transform="translate(34.8622 34.2395) scale(0.00341496) rotate(35.1947)"/>
<use xlink:href="#stroke0_8_215" transform="translate(34.7845 34.6689) scale(0.00259731) rotate(5.19828)"/>
<use xlink:href="#stroke0_8_215" transform="translate(34.9817 34.6188) scale(0.00341529) rotate(17.8197)"/>
<use xlink:href="#stroke0_8_215" transform="translate(35.7513 35.9626) scale(0.00298589) rotate(-169.527)"/>
<use xlink:href="#stroke0_8_215" transform="translate(35.0356 35.5297) scale(0.00270297) rotate(-42.5012)"/>
<use xlink:href="#stroke0_8_215" transform="translate(35.2137 35.4068) scale(0.00305264) rotate(-16.1438)"/>
<use xlink:href="#stroke0_8_215" transform="translate(35.405 36.518) scale(0.00383054) rotate(-96.9005)"/>
<use xlink:href="#stroke0_8_215" transform="translate(36.7266 35.9808) scale(0.00304387) rotate(119.071)"/>
<use xlink:href="#stroke0_8_215" transform="translate(36.9822 35.9504) scale(0.00373084) rotate(104.554)"/>
<use xlink:href="#stroke0_8_215" transform="translate(35.9632 37.0287) scale(0.00366069) rotate(-93.5467)"/>
<use xlink:href="#stroke0_8_215" transform="translate(36.1528 37.0115) scale(0.00302056) rotate(-81.211)"/>
<use xlink:href="#stroke0_8_215" transform="translate(37.0788 37.5604) scale(0.00359738) rotate(-156.207)"/>
<use xlink:href="#stroke0_8_215" transform="translate(37.4285 37.5196) scale(0.00304203) rotate(-177.691)"/>
<use xlink:href="#stroke0_8_215" transform="translate(36.8658 37.8105) scale(0.00336959) rotate(-109.173)"/>
<use xlink:href="#stroke0_8_215" transform="translate(36.8833 36.9485) scale(0.00322607) rotate(-7.57194)"/>
<use xlink:href="#stroke0_8_215" transform="translate(37.5625 38.1337) scale(0.00284743) rotate(-140.019)"/>
<use xlink:href="#stroke0_8_215" transform="translate(37.2492 38.3009) scale(0.0036316) rotate(-99.3022)"/>
<use xlink:href="#stroke0_8_215" transform="translate(38.2326 38.6138) scale(0.00369744) rotate(-162.85)"/>
<use xlink:href="#stroke0_8_215" transform="translate(38.4145 37.5281) scale(0.00318204) rotate(69.5633)"/>
<use xlink:href="#stroke0_8_215" transform="translate(38.3268 38.9352) scale(0.00320475) rotate(-142.88)"/>
<use xlink:href="#stroke0_8_215" transform="translate(38.6343 38.9437) scale(0.00265239) rotate(-159.964)"/>
<use xlink:href="#stroke0_8_215" transform="translate(38.5091 37.8298) scale(0.0038217) rotate(34.044)"/>
<use xlink:href="#stroke0_8_215" transform="translate(38.321 38.4553) scale(0.00278543) rotate(-13.1248)"/>
<use xlink:href="#stroke0_8_215" transform="translate(38.4007 39.2108) scale(0.00293685) rotate(-74.9863)"/>
<use xlink:href="#stroke0_8_215" transform="translate(38.7815 38.3979) scale(0.00391948) rotate(16.0507)"/>
<use xlink:href="#stroke0_8_215" transform="translate(39.349 38.7423) scale(0.00274977) rotate(45.7007)"/>
<use xlink:href="#stroke0_8_215" transform="translate(39.7226 40.1575) scale(0.00352374) rotate(-158.506)"/>
<use xlink:href="#stroke0_8_215" transform="translate(39.6884 38.9033) scale(0.00373238) rotate(42.6898)"/>
<use xlink:href="#stroke0_8_215" transform="translate(39.2557 39.9644) scale(0.00294545) rotate(-59.3565)"/>
<use xlink:href="#stroke0_8_215" transform="translate(39.4527 40.0473) scale(0.00268188) rotate(-53.2132)"/>
<use xlink:href="#stroke0_8_215" transform="translate(40.6538 39.9552) scale(0.00263555) rotate(110.792)"/>
<use xlink:href="#stroke0_8_215" transform="translate(39.8318 40.5769) scale(0.00262346) rotate(-80.9671)"/>
<use xlink:href="#stroke0_8_215" transform="translate(40.5645 39.8775) scale(0.00277506) rotate(54.6817)"/>
<use xlink:href="#stroke0_8_215" transform="translate(39.9462 40.3801) scale(0.0033404) rotate(-30.1028)"/>
<use xlink:href="#stroke0_8_215" transform="translate(41.0406 41.5678) scale(0.00394338) rotate(-156.251)"/>
<use xlink:href="#stroke0_8_215" transform="translate(40.5907 41.4246) scale(0.00287264) rotate(-97.6463)"/>
<use xlink:href="#stroke0_8_215" transform="translate(41.2125 40.4273) scale(0.00352713) rotate(46.2952)"/>
<use xlink:href="#stroke0_8_215" transform="translate(41.8147 40.6604) scale(0.0040466) rotate(74.9311)"/>
<use xlink:href="#stroke0_8_215" transform="translate(40.8714 41.4431) scale(0.00336224) rotate(-39.3449)"/>
<use xlink:href="#stroke0_8_215" transform="translate(41.1903 41.9314) scale(0.00277015) rotate(-70.4041)"/>
<use xlink:href="#stroke0_8_215" transform="translate(42.1793 42.3558) scale(0.00280028) rotate(-171.091)"/>
<use xlink:href="#stroke0_8_215" transform="translate(41.5437 42.5229) scale(0.0033644) rotate(-93.2942)"/>
<use xlink:href="#stroke0_8_215" transform="translate(41.6882 42.8072) scale(0.0038465) rotate(-95.3888)"/>
<use xlink:href="#stroke0_8_215" transform="translate(41.7526 42.5773) scale(0.00334642) rotate(-61.4547)"/>
<use xlink:href="#stroke0_8_215" transform="translate(43.3281 42.1793) scale(0.00404762) rotate(99.1937)"/>
<use xlink:href="#stroke0_8_215" transform="translate(43.3954 43.3528) scale(0.00372341) rotate(174.15)"/>
<use xlink:href="#stroke0_8_215" transform="translate(43.1321 43.6518) scale(0.00313212) rotate(-148.84)"/>
<use xlink:href="#stroke0_8_215" transform="translate(43.6681 42.7492) scale(0.00316075) rotate(89.0946)"/>
<use xlink:href="#stroke0_8_215" transform="translate(42.5719 43.2532) scale(0.00397011) rotate(-39.7238)"/>
<use xlink:href="#stroke0_8_215" transform="translate(43.9463 43.0879) scale(0.00296847) rotate(79.8796)"/>
<use xlink:href="#stroke0_8_215" transform="translate(43.5428 44.3475) scale(0.00313327) rotate(-121.664)"/>
<use xlink:href="#stroke0_8_215" transform="translate(43.3619 43.6837) scale(0.00274954) rotate(-27.3001)"/>
<use xlink:href="#stroke0_8_215" transform="translate(43.7561 43.3327) scale(0.00387974) rotate(18.4224)"/>
<use xlink:href="#stroke0_8_215" transform="translate(43.7042 44.3335) scale(0.00265886) rotate(-58.0101)"/>
<use xlink:href="#stroke0_8_215" transform="translate(44.381 43.8258) scale(0.00273957) rotate(40.545)"/>
<use xlink:href="#stroke0_8_215" transform="translate(45.0681 44.1426) scale(0.00320272) rotate(93.2703)"/>
<use xlink:href="#stroke0_8_215" transform="translate(45.1484 44.4054) scale(0.00259894) rotate(97.2167)"/>
<use xlink:href="#stroke0_8_215" transform="translate(44.5334 44.2846) scale(0.0032417) rotate(11.6887)"/>
<use xlink:href="#stroke0_8_215" transform="translate(45.7916 45.3317) scale(0.00382649) rotate(152.014)"/>
<use xlink:href="#stroke0_8_215" transform="translate(45.7727 45.9202) scale(0.00402085) rotate(-176.352)"/>
<use xlink:href="#stroke0_8_215" transform="translate(46.1673 45.6161) scale(0.00347343) rotate(143.367)"/>
<use xlink:href="#stroke0_8_215" transform="translate(45.0849 45.6583) scale(0.00266852) rotate(-51.1833)"/>
<use xlink:href="#stroke0_8_215" transform="translate(46.0683 45.0333) scale(0.0039862) rotate(59.5497)"/>
<use xlink:href="#stroke0_8_215" transform="translate(46.8286 46.1653) scale(0.00395355) rotate(141.205)"/>
<use xlink:href="#stroke0_8_215" transform="translate(46.746 46.644) scale(0.00327227) rotate(170.259)"/>
<use xlink:href="#stroke0_8_215" transform="translate(46.6218 45.8741) scale(0.00273232) rotate(66.4972)"/>
<use xlink:href="#stroke0_8_215" transform="translate(45.8987 46.2503) scale(0.00349045) rotate(-23.8495)"/>
<use xlink:href="#stroke0_8_215" transform="translate(45.9843 46.706) scale(0.00370042) rotate(-45.6726)"/>
<use xlink:href="#stroke0_8_215" transform="translate(47.7448 47.1092) scale(0.0039353) rotate(142.697)"/>
<use xlink:href="#stroke0_8_215" transform="translate(47.1847 46.5406) scale(0.00289695) rotate(46.2142)"/>
<use xlink:href="#stroke0_8_215" transform="translate(46.7809 47.4658) scale(0.0025956) rotate(-68.6399)"/>
<use xlink:href="#stroke0_8_215" transform="translate(48.1069 47.2915) scale(0.00331002) rotate(118.588)"/>
<use xlink:href="#stroke0_8_215" transform="translate(47.6469 47.0401) scale(0.00275786) rotate(45.5224)"/>
<use xlink:href="#stroke0_8_215" transform="translate(47.1979 47.6024) scale(0.00281447) rotate(-33.1829)"/>
<use xlink:href="#stroke0_8_215" transform="translate(47.5522 48.4363) scale(0.00308574) rotate(-103.721)"/>
<use xlink:href="#stroke0_8_215" transform="translate(48.5112 47.5229) scale(0.00343337) rotate(77.8922)"/>
<use xlink:href="#stroke0_8_215" transform="translate(47.6065 48.3103) scale(0.00323322) rotate(-52.009)"/>
<use xlink:href="#stroke0_8_215" transform="translate(48.043 49.0178) scale(0.00339543) rotate(-103.04)"/>
<use xlink:href="#stroke0_8_215" transform="translate(48.0951 49.0903) scale(0.00343069) rotate(-88.937)"/>
<use xlink:href="#stroke0_8_215" transform="translate(49.332 48.9618) scale(0.00270969) rotate(148.407)"/>
<use xlink:href="#stroke0_8_215" transform="translate(49.21 49.5952) scale(0.00331054) rotate(-160.032)"/>
<use xlink:href="#stroke0_8_215" transform="translate(49.4989 49.8855) scale(0.003918) rotate(-163.78)"/>
<use xlink:href="#stroke0_8_215" transform="translate(49.859 49.4741) scale(0.00264772) rotate(146.441)"/>
<use xlink:href="#stroke0_8_215" transform="translate(49.1198 49.0383) scale(0.00275832) rotate(2.23108)"/>
<use xlink:href="#stroke0_8_215" transform="translate(49.0745 49.5417) scale(0.00270954) rotate(-39.9276)"/>
<use xlink:href="#stroke0_8_215" transform="translate(49.7773 50.5079) scale(0.00347709) rotate(-137.378)"/>
<use xlink:href="#stroke0_8_215" transform="translate(50.4678 50.2522) scale(0.00283035) rotate(161.23)"/>
<use xlink:href="#stroke0_8_215" transform="translate(49.5521 50.5038) scale(0.00334258) rotate(-81.6307)"/>
<use xlink:href="#stroke0_8_215" transform="translate(50.9092 50.2834) scale(0.00296693) rotate(129.955)"/>
<use xlink:href="#stroke0_8_215" transform="translate(50.932 50.184) scale(0.00267346) rotate(102.39)"/>
<use xlink:href="#stroke0_8_215" transform="translate(50.9965 49.9569) scale(0.00371028) rotate(70.697)"/>
<use xlink:href="#stroke0_8_215" transform="translate(51.0598 51.2645) scale(0.00262792) rotate(-168.074)"/>
<use xlink:href="#stroke0_8_215" transform="translate(51.3547 51.3969) scale(0.00296731) rotate(179.207)"/>
<use xlink:href="#stroke0_8_215" transform="translate(51.1513 51.8065) scale(0.00336403) rotate(-141.596)"/>
<use xlink:href="#stroke0_8_215" transform="translate(52.0379 51.0686) scale(0.00373729) rotate(113.391)"/>
<use xlink:href="#stroke0_8_215" transform="translate(51.6248 52.0059) scale(0.00265757) rotate(-154.079)"/>
<use xlink:href="#stroke0_8_215" transform="translate(51.2931 51.1084) scale(0.00303129) rotate(8.48795)"/>
<use xlink:href="#stroke0_8_215" transform="translate(51.5758 51.1771) scale(0.00322026) rotate(21.577)"/>
<use xlink:href="#stroke0_8_215" transform="translate(51.7498 52.7811) scale(0.00400041) rotate(-121.257)"/>
<use xlink:href="#stroke0_8_215" transform="translate(51.6108 51.8199) scale(0.00336411) rotate(-15.9246)"/>
<use xlink:href="#stroke0_8_215" transform="translate(52.8844 51.9444) scale(0.00324292) rotate(91.5983)"/>
<use xlink:href="#stroke0_8_215" transform="translate(52.9048 52.1234) scale(0.00268723) rotate(83.8573)"/>
<use xlink:href="#stroke0_8_215" transform="translate(53.2335 52.7361) scale(0.00271823) rotate(137.456)"/>
<use xlink:href="#stroke0_8_215" transform="translate(53.4938 52.7359) scale(0.00322729) rotate(122.613)"/>
<use xlink:href="#stroke0_8_215" transform="translate(52.4391 52.4965) scale(0.00385659) rotate(-6.52676)"/>
<use xlink:href="#stroke0_8_215" transform="translate(53.1384 54.0467) scale(0.00395578) rotate(-131.512)"/>
<use xlink:href="#stroke0_8_215" transform="translate(53.983 53.8603) scale(0.00336311) rotate(169.205)"/>
<use xlink:href="#stroke0_8_215" transform="translate(53.1768 54.1812) scale(0.00347442) rotate(-100.262)"/>
<use xlink:href="#stroke0_8_215" transform="translate(53.874 53.0781) scale(0.00357065) rotate(46.3908)"/>
<use xlink:href="#stroke0_8_215" transform="translate(53.6496 54.549) scale(0.00317703) rotate(-107.01)"/>
<use xlink:href="#stroke0_8_215" transform="translate(53.6112 53.8944) scale(0.00294283) rotate(-22.9048)"/>
<use xlink:href="#stroke0_8_215" transform="translate(53.887 54.6625) scale(0.00267447) rotate(-88.6521)"/>
<use xlink:href="#stroke0_8_215" transform="translate(54.9061 53.9948) scale(0.00313257) rotate(84.597)"/>
<use xlink:href="#stroke0_8_215" transform="translate(55.1152 54.4151) scale(0.00260567) rotate(108.999)"/>
<use xlink:href="#stroke0_8_215" transform="translate(54.4823 55.4589) scale(0.00358559) rotate(-114.221)"/>
<use xlink:href="#stroke0_8_215" transform="translate(55.3006 55.3983) scale(0.00271945) rotate(-176.507)"/>
<use xlink:href="#stroke0_8_215" transform="translate(55.193 54.3535) scale(0.00379562) rotate(45.8662)"/>
<use xlink:href="#stroke0_8_215" transform="translate(55.2075 54.741) scale(0.00281109) rotate(31.1646)"/>
<use xlink:href="#stroke0_8_215" transform="translate(54.9354 55.3374) scale(0.00259441) rotate(-35.762)"/>
<use xlink:href="#stroke0_8_215" transform="translate(54.9383 55.4225) scale(0.00344633) rotate(-32.4602)"/>
<use xlink:href="#stroke0_8_215" transform="translate(56.2715 56.4786) scale(0.00389699) rotate(-173.075)"/>
<use xlink:href="#stroke0_8_215" transform="translate(56.7526 56.3338) scale(0.0038352) rotate(154.368)"/>
<use xlink:href="#stroke0_8_215" transform="translate(56.2272 56.957) scale(0.00355652) rotate(-138.762)"/>
<use xlink:href="#stroke0_8_215" transform="translate(55.8157 56.2272) scale(0.00296577) rotate(-32.0681)"/>
<use xlink:href="#stroke0_8_215" transform="translate(57.1725 56.2902) scale(0.00323279) rotate(106.741)"/>
<use xlink:href="#stroke0_8_215" transform="translate(56.9964 57.2672) scale(0.00289415) rotate(-164.847)"/>
<use xlink:href="#stroke0_8_215" transform="translate(57.5741 57.3791) scale(0.00390825) rotate(166.532)"/>
</g>
<defs>
<filter id="filter0_n_8_215" x="0.292725" y="0.567871" width="57.2814" height="57.15" filterUnits="userSpaceOnUse" color-interpolation-filters="sRGB">
<feFlood flood-opacity="0" result="BackgroundImageFix"/>
<feBlend mode="normal" in="SourceGraphic" in2="BackgroundImageFix" result="shape"/>
<feTurbulence type="fractalNoise" baseFrequency="0.38759690523147583 0.38759690523147583" stitchTiles="stitch" numOctaves="3" result="noise" seed="9800" />
<feColorMatrix in="noise" type="luminanceToAlpha" result="alphaNoise" />
<feComponentTransfer in="alphaNoise" result="coloredNoise1">
<feFuncA type="discrete" tableValues="0 0 0 0 0 0 0 0 0 0 0 0 0 0 1 1 1 1 1 1 1 1 1 1 1 1 1 1 1 1 1 1 1 1 1 1 0 0 0 0 0 0 0 0 0 0 0 0 0 0 0 0 0 0 0 0 0 0 0 0 0 0 0 0 0 0 0 0 0 0 0 0 0 0 0 0 0 0 0 0 0 0 0 0 0 0 0 0 0 0 0 0 0 0 0 0 0 0 0 0 "/>
</feComponentTransfer>
<feComposite operator="in" in2="shape" in="coloredNoise1" result="noise1Clipped" />
<feComponentTransfer in="alphaNoise" result="coloredNoise2">
<feFuncA type="discrete" tableValues="0 0 0 0 0 0 0 0 0 0 0 0 0 0 0 0 0 0 0 0 0 0 0 0 0 0 0 0 0 0 0 0 0 0 0 0 0 0 0 0 0 0 0 0 0 0 0 0 0 0 0 0 0 0 0 0 0 0 0 0 0 0 0 0 1 1 1 1 1 1 1 1 1 1 1 1 1 1 1 1 1 1 1 1 1 1 0 0 0 0 0 0 0 0 0 0 0 0 0 0 "/>
</feComponentTransfer>
<feComposite operator="in" in2="shape" in="coloredNoise2" result="noise2Clipped" />
<feFlood flood-color="rgba(255, 255, 255, 0.75)" result="color1Flood" />
<feComposite operator="in" in2="noise1Clipped" in="color1Flood" result="color1" />
<feFlood flood-color="rgba(255, 255, 255, 0.25)" result="color2Flood" />
<feComposite operator="in" in2="noise2Clipped" in="color2Flood" result="color2" />
<feMerge result="effect1_noise_8_215">
<feMergeNode in="shape" />
<feMergeNode in="color1" />
<feMergeNode in="color2" />
</feMerge>
</filter>
<g id="stroke0_8_215" data-figma-scatter-ref="stroke0_8_215_ref" data-figma-scatter="f0.28_w0_aj180_sj0.25_r0_s0_sw1">
<path d="M103.731 283.547C110.352 281.363 112.807 281.348 116.121 283.468C130.109 292.418 124.85 308.718 107.972 308.727C90.3768 308.737 87.0606 289.046 103.731 283.547ZM139.837 35.4146C140.937 35.1787 142.512 35.114 143.337 35.271C144.162 35.4281 146.516 35.8391 148.567 36.1851C155.802 37.4051 160.179 46.6969 156.734 53.5249C152.924 61.0769 144.715 67.5811 140.859 66.1021C135.872 64.1881 137.625 69.8792 144.066 76.5152C148.306 80.8841 150.337 81.2685 150.337 77.7066C150.337 76.6574 151.622 74.3218 153.193 72.5161C154.823 70.6412 156.597 66.9201 157.324 63.8501C158.925 57.0892 160.788 55.2289 167.369 53.8169C177.32 51.6829 185.581 56.9263 183.752 64.2153C183.293 66.0423 183.901 67.6656 186.09 70.4585C196.859 84.1975 193.875 104.273 180.596 107.418C177.049 108.258 176.832 108.532 176.773 112.27C176.739 114.448 176.365 116.987 175.943 117.912C175.255 119.417 175.946 119.564 182.506 119.31C190.415 119.003 192.674 119.705 195.953 123.487C199.054 127.064 201.598 126.114 202.609 121.002C203.503 116.483 209.096 110.731 212.596 110.731C214.841 110.731 215.934 108.156 214.449 106.367C206.1 96.3056 222.234 73.6632 235.605 76.6792C241.572 78.0252 246.302 83.6302 246.367 89.4312C246.384 90.9712 247.505 94.4811 248.858 97.231C255.362 110.453 243.304 126.225 232.777 118.263C229.924 116.105 229.837 116.226 229.837 122.341C229.837 128.93 225.932 133.292 219.049 134.393C216.068 134.87 214.933 135.67 213.775 138.116C212.964 139.829 211.55 142.415 210.63 143.863C208.984 146.456 209.02 146.565 213.147 151.254C215.451 153.871 217.337 156.555 217.337 157.218C217.337 157.882 218.074 159.901 218.974 161.706C222.148 168.067 221.073 181.731 217.4 181.731C217.052 181.731 215.97 183.081 214.995 184.731C214.02 186.381 212.573 187.731 211.779 187.731C209.595 187.731 210.044 189.817 212.863 192.76C216.384 196.435 217.425 204.867 214.728 207.858C209.503 213.649 203.05 218.01 198.064 219.122C193.944 220.041 192.83 220.705 192.804 222.259C192.669 230.389 188.242 235.387 179.682 237.077C172.845 238.427 172.072 240.31 177.577 242.203C190.358 246.597 192.892 257.693 182.442 263.506C176.521 266.799 172.426 266.758 167.515 263.354C163.894 260.845 163.161 260.686 159.679 261.653C153.737 263.303 147.363 262.934 141.337 260.593C135.874 258.47 130.724 257.068 124.689 256.061C118.715 255.064 115.151 249.943 114.592 241.551C114.184 235.417 113.671 233.745 111.425 231.231C109.951 229.581 107.986 226.544 107.058 224.481C105.42 220.844 105.211 220.731 100.164 220.731C93.7935 220.731 89.0798 217.922 86.2168 212.42C83.0468 206.327 78.9427 207.336 78.8477 214.231C78.8097 216.981 78.4233 220.817 77.9883 222.755C77.2354 226.113 77.3507 226.324 80.4366 227.255C90.5004 230.29 90.3981 247.946 80.2881 252.934C55.9904 264.92 26.2411 240.473 47.875 226.298C49.556 225.196 50.1805 223.494 50.6895 218.626C51.0495 215.185 52.1298 211.262 53.0908 209.91C54.0507 208.557 55.2736 206.856 55.8086 206.127C56.5016 205.184 56.0161 204.003 54.1221 202.017C50.6273 198.355 49.3112 194.657 49.9981 190.428C50.3281 188.392 50.1033 186.705 49.4463 186.299C48.8364 185.922 48.337 184.345 48.3369 182.794C48.3369 181.244 47.6012 179.366 46.7032 178.621C43.9996 176.376 34.3369 162.856 34.3369 161.317C34.3368 160.529 32.7627 157.822 30.8389 155.302C28.915 152.781 27.3998 150.384 27.4727 149.975C28.4457 144.478 24.6467 141.425 20.4727 144.348C18.2547 145.902 11.2222 145.776 6.86624 144.104C-3.23648 140.227 -1.78745 115.126 8.56839 114.62C14.8594 114.313 23.3369 117.551 23.3369 120.261C23.3372 122.018 26.1103 124.731 27.9073 124.731C28.6933 124.731 29.3369 124.041 29.3369 123.198C29.3372 109.814 50.1851 94.3087 69.8369 93.0767C82.9305 92.2547 88.2617 93.4969 97.1895 99.4468C101.45 102.287 108.337 96.8837 108.337 90.7007C108.337 88.6598 109.172 86.4706 110.483 85.0747C112.734 82.6789 111.804 79.7313 108.796 79.731C106.403 79.731 103.556 73.5422 104.077 69.4702C105.046 61.8843 117.633 57.7673 123.289 63.1861C125.639 65.4379 126.708 65.8083 129.245 65.2515C133.054 64.4145 133.128 63.4739 129.587 60.895C121.36 54.902 128.195 37.9086 139.837 35.4146ZM227.337 203.429C239.094 199.654 252.722 207.291 252.722 217.653C252.722 228.495 231.921 239.44 223.927 232.806C221.665 230.929 220.403 232.363 221.012 236.118C222.097 242.802 213.511 254.731 207.616 254.731C194.246 254.731 188.8 246.232 194.457 234.198C198.202 226.231 204.453 223.784 213.238 226.847C217.536 228.345 217.88 227.687 215.921 221.697C213.052 212.925 216.89 206.783 227.337 203.429ZM179.7 192.695C179.049 192.044 178.051 192.413 176.774 193.779C168.37 202.768 165.063 203.713 156.506 199.571C149.746 196.298 146.45 201.459 151.961 206.689C154.209 208.822 154.482 209.744 154.038 213.682C153.54 218.098 153.664 218.344 158.682 222.967C163.836 227.716 163.837 227.716 164.351 222.867C164.987 216.872 169.522 209.969 174.077 208.066C177.094 206.805 177.337 206.359 177.337 202.046C177.337 199.092 177.95 196.711 179.013 195.536C180.117 194.315 180.352 193.347 179.7 192.695ZM13.7354 183.697C21.2304 180.362 25.9355 181.225 32.1055 187.066C40.5644 195.074 37.0287 205.612 24.6309 209.343C9.40689 213.925 -0.704596 190.124 13.7354 183.697ZM252.956 148.251C262.129 145.732 267.81 147.203 270.983 152.921C277.397 164.478 257.352 180.919 247.179 172.445C237.093 164.044 240.016 151.805 252.956 148.251ZM175.822 162.709C174.842 161.123 172.482 161.589 171.417 163.579C170.283 165.699 171.384 170.913 173.086 171.481C174.366 171.905 176.761 164.229 175.822 162.709ZM150.152 111.481C150.492 108.526 149.534 108.177 145.513 109.79C142.108 111.155 143.035 114.231 146.851 114.231C149.365 114.231 149.886 113.796 150.152 111.481ZM156.837 98.731C156.012 98.731 155.337 99.406 155.337 100.231C155.337 101.056 156.012 101.731 156.837 101.731C157.662 101.731 158.337 101.056 158.337 100.231C158.337 99.4061 157.662 98.7312 156.837 98.731ZM131.337 85.6382C131.337 82.8002 129.491 81.4004 127.429 82.6743C126.501 83.2473 126.685 84.2905 128.185 86.9605C129.273 88.9003 130.316 91.46 130.5 92.6489C130.685 93.8379 131.287 94.905 131.837 95.021C133.25 95.317 133.729 90.7224 132.422 89.4155C131.825 88.8185 131.337 87.1191 131.337 85.6382ZM79.8369 36.9214C89.8819 31.2487 102.893 46.8492 95.6582 55.8921C92.2024 60.211 91.2042 63.981 91.8701 70.1997C92.5322 76.3837 92.4821 76.5638 89.0371 80.3628C76.0391 94.6997 55.1533 78.5005 64.8242 61.5825C66.3391 58.9327 67.3172 55.6452 67.3242 53.1753C67.3402 47.7053 72.4159 41.1124 79.8369 36.9214ZM120.896 78.731C120.653 78.731 120.177 79.1811 119.837 79.731C119.497 80.2809 119.695 80.7309 120.277 80.731C120.859 80.731 121.337 80.281 121.337 79.731C121.337 79.181 121.139 78.731 120.896 78.731ZM205.485 39.4898C219.631 37.0418 227.598 50.9151 220.597 65.8081C213.393 81.13 190.339 77.7861 190.091 61.3823C189.98 54.0764 199.509 40.5238 205.485 39.4898ZM51.8369 14.5542C64.4449 5.86451 75.68 19.3671 68.6241 34.731C62.385 48.3167 41.3372 43.775 41.3369 28.8423C41.3369 26.0333 47.6529 17.4382 51.8369 14.5542ZM108.212 2.17043C121.43 -6.81137 141.546 14.0924 133.237 28.1743C132.084 30.1297 130.819 31.7302 130.427 31.731C130.035 31.731 128.813 32.5703 127.713 33.5962C119.456 41.2872 107.786 35.7761 103.367 22.0991C100.152 12.1461 101.463 6.75643 108.212 2.17043Z" fill="#538FDF"/>
</g>
<path id="stroke0_8_215_ref" d="M57 57H1V1L57 57Z"/>
</defs>
</svg>
