<svg xmlns="http://www.w3.org/2000/svg" xmlns:xlink="http://www.w3.org/1999/xlink" width="58" height="58" fill="none" viewBox="0 0 58 58"><g filter="url(#a)"><path fill="#538fdf" d="M57 1A56 56 0 0 1 1 57V1z"/><use xlink:href="#b" transform="rotate(218.86 28.828 -9.177)scale(.00372)"/><use xlink:href="#b" transform="rotate(48.675 28.009 63.367)scale(.00393)"/><use xlink:href="#b" transform="rotate(82.535 28.106 33.256)scale(.0032)"/><use xlink:href="#b" transform="rotate(211.801 28.886 -6.941)scale(.0029)"/><use xlink:href="#b" transform="rotate(255.61 29.298 -20.74)scale(.00279)"/><use xlink:href="#b" transform="rotate(199.575 28.83 -3.57)scale(.00266)"/><use xlink:href="#b" transform="rotate(121.025 28.217 17.49)scale(.00379)"/><use xlink:href="#b" transform="rotate(82.248 27.36 33.981)scale(.00272)"/><use xlink:href="#b" transform="rotate(-39.356 32.162 -77.455)scale(.00274)"/><use xlink:href="#b" transform="rotate(51.33 25.923 60.64)scale(.00312)"/><use xlink:href="#b" transform="rotate(237.301 29.496 -13.445)scale(.0036)"/><use xlink:href="#b" transform="rotate(-25.72 35.463 -121.344)scale(.00402)"/><use xlink:href="#b" transform="rotate(30.077 22.402 107.246)scale(.00385)"/><use xlink:href="#b" transform="rotate(148.361 28.183 10.418)scale(.00375)"/><use xlink:href="#b" transform="rotate(62.833 25.484 48.716)scale(.00405)"/><use xlink:href="#b" transform="rotate(156.838 28.174 8.422)scale(.0028)"/><use xlink:href="#b" transform="rotate(152.697 28.143 9.683)scale(.00387)"/><use xlink:href="#b" transform="rotate(-95.615 30.845 -22.548)scale(.00374)"/><use xlink:href="#b" transform="rotate(77.16 25.349 38.398)scale(.00287)"/><use xlink:href="#b" transform="rotate(44.395 22.119 72.201)scale(.0036)"/><use xlink:href="#b" transform="rotate(245.848 30.443 -14.839)scale(.0038)"/><use xlink:href="#b" transform="rotate(98.804 26.104 27.602)scale(.0037)"/><use xlink:href="#b" transform="rotate(15.8 5.928 206.588)scale(.00263)"/><use xlink:href="#b" transform="rotate(218.977 29.728 -6.169)scale(.00392)"/><use xlink:href="#b" transform="rotate(-24.252 44.075 -126.834)scale(.00356)"/><use xlink:href="#b" transform="rotate(169.985 28.236 6.457)scale(.00336)"/><use xlink:href="#b" transform="rotate(59.506 22.258 53.222)scale(.00359)"/><use xlink:href="#b" transform="rotate(162.017 27.947 8.732)scale(.00376)"/><use xlink:href="#b" transform="rotate(193.573 28.908 .986)scale(.0026)"/><use xlink:href="#b" transform="rotate(30.414 13.665 107.68)scale(.00277)"/><use xlink:href="#b" transform="rotate(109.862 25.633 24.282)scale(.00372)"/><use xlink:href="#b" transform="rotate(89.144 24.178 33.157)scale(.00356)"/><use xlink:href="#b" transform="rotate(56.484 20.2 56.967)scale(.00275)"/><use xlink:href="#b" transform="rotate(-48.097 38.458 -57.832)scale(.00266)"/><use xlink:href="#b" transform="rotate(-92.311 32.772 -21.832)scale(.00285)"/><use xlink:href="#b" transform="rotate(-45.893 39.43 -60.83)scale(.00307)"/><use xlink:href="#b" transform="rotate(80.601 22.725 38.204)scale(.00345)"/><use xlink:href="#b" transform="rotate(222.409 30.227 -5.428)scale(.00298)"/><use xlink:href="#b" transform="rotate(-20.093 56.723 -151.747)scale(.00327)"/><use xlink:href="#b" transform="rotate(-29.537 47.944 -100.182)scale(.00266)"/><use xlink:href="#b" transform="rotate(71.505 20.873 44.412)scale(.0026)"/><use xlink:href="#b" transform="rotate(3.564 -144.443 900.417)scale(.00297)"/><use xlink:href="#b" transform="rotate(42.954 14.497 76.532)scale(.004)"/><use xlink:href="#b" transform="rotate(-17.404 64.98 -175.398)scale(.00299)"/><use xlink:href="#b" transform="rotate(140.282 26.17 16.297)scale(.00395)"/><use xlink:href="#b" transform="rotate(-60.25 38.253 -41.236)scale(.00387)"/><use xlink:href="#b" transform="rotate(166.341 27.352 9.78)scale(.0026)"/><use xlink:href="#b" transform="rotate(121.648 24.742 22.094)scale(.00385)"/><use xlink:href="#b" transform="rotate(127.437 24.96 20.394)scale(.00307)"/><use xlink:href="#b" transform="rotate(-46.627 42.78 -56.966)scale(.00402)"/><use xlink:href="#b" transform="rotate(-85.529 35.063 -22.714)scale(.00363)"/><use xlink:href="#b" transform="rotate(191.031 28.645 4.546)scale(.00368)"/><use xlink:href="#b" transform="rotate(180.833 28.028 7.149)scale(.00379)"/><use xlink:href="#b" transform="rotate(-26.77 56.992 -107.852)scale(.0036)"/><use xlink:href="#b" transform="rotate(156.607 26.467 13.307)scale(.00395)"/><use xlink:href="#b" transform="rotate(36.66 5.97 90.463)scale(.00287)"/><use xlink:href="#b" transform="rotate(88.864 20.433 35.757)scale(.00396)"/><use xlink:href="#b" transform="rotate(241.824 32.23 -8.473)scale(.0027)"/><use xlink:href="#b" transform="rotate(181.294 27.794 7.698)scale(.00261)"/><use xlink:href="#b" transform="rotate(2.733 -292.049 1150.066)scale(.00383)"/><use xlink:href="#b" transform="rotate(168.622 26.95 11.075)scale(.0039)"/><use xlink:href="#b" transform="rotate(92.695 20.077 34.401)scale(.00338)"/><use xlink:href="#b" transform="rotate(-28.847 59.011 -97.11)scale(.00308)"/><use xlink:href="#b" transform="rotate(-40.205 49.93 -65.44)scale(.00326)"/><use xlink:href="#b" transform="rotate(-56.842 42.851 -41.128)scale(.00385)"/><use xlink:href="#b" transform="rotate(-50.284 45.47 -48.644)scale(.00347)"/><use xlink:href="#b" transform="rotate(-78.357 37.97 -24.079)scale(.00325)"/><use xlink:href="#b" transform="rotate(136.504 23.966 19.959)scale(.00339)"/><use xlink:href="#b" transform="rotate(91.646 18.768 35.476)scale(.00281)"/><use xlink:href="#b" transform="rotate(103.054 20.308 30.808)scale(.00364)"/><use xlink:href="#b" transform="rotate(-1.716 629.473 -1781.67)scale(.00364)"/><use xlink:href="#b" transform="rotate(209.573 29.718 2.687)scale(.00403)"/><use xlink:href="#b" transform="rotate(25.895 -13.496 126.374)scale(.00273)"/><use xlink:href="#b" transform="rotate(73.51 14.521 45.717)scale(.00293)"/><use xlink:href="#b" transform="rotate(134.235 23.065 21.252)scale(.0026)"/><use xlink:href="#b" transform="rotate(58.864 9.97 57.4)scale(.0027)"/><use xlink:href="#b" transform="rotate(-96.796 35.7 -13.391)scale(.00348)"/><use xlink:href="#b" transform="rotate(122.053 21.52 25.028)scale(.00262)"/><use xlink:href="#b" transform="rotate(174.08 26.441 11.754)scale(.00265)"/><use xlink:href="#b" transform="rotate(229.112 31.552 -1.541)scale(.00359)"/><use xlink:href="#b" transform="rotate(143.815 23.585 19.299)scale(.00316)"/><use xlink:href="#b" transform="rotate(119.807 20.88 26.068)scale(.00289)"/><use xlink:href="#b" transform="rotate(228.844 31.517 -1.183)scale(.00267)"/><use xlink:href="#b" transform="rotate(5.778 -180.536 532.995)scale(.0033)"/><use xlink:href="#b" transform="rotate(-43.21 53.512 -55.466)scale(.00277)"/><use xlink:href="#b" transform="rotate(212.361 29.778 3.493)scale(.00265)"/><use xlink:href="#b" transform="rotate(101.082 17.743 32.847)scale(.00275)"/><use xlink:href="#b" transform="rotate(-5.038 274.253 -584.547)scale(.00289)"/><use xlink:href="#b" transform="rotate(-9.902 152.874 -289.713)scale(.00387)"/><use xlink:href="#b" transform="rotate(50.09 2.849 67.406)scale(.00377)"/><use xlink:href="#b" transform="rotate(141.524 22.539 20.819)scale(.00311)"/><use xlink:href="#b" transform="rotate(221.472 30.7 1.94)scale(.00264)"/><use xlink:href="#b" transform="rotate(103.922 17.424 32.24)scale(.00317)"/><use xlink:href="#b" transform="rotate(197.096 28.048 8.11)scale(.00275)"/><use xlink:href="#b" transform="rotate(17.858 -47.863 176.709)scale(.00323)"/><use xlink:href="#b" transform="rotate(-30.603 69.115 -81.762)scale(.00401)"/><use xlink:href="#b" transform="rotate(-68.157 43.79 -25.766)scale(.00266)"/><use xlink:href="#b" transform="rotate(-83.45 39.588 -16.308)scale(.00332)"/><use xlink:href="#b" transform="rotate(202.277 28.487 7.6)scale(.0036)"/><use xlink:href="#b" transform="rotate(76.374 10.461 45.262)scale(.00314)"/><use xlink:href="#b" transform="rotate(180.508 26.07 12.793)scale(.00392)"/><use xlink:href="#b" transform="rotate(-43.966 56.823 -50.14)scale(.00316)"/><use xlink:href="#b" transform="rotate(124.197 19.212 26.553)scale(.00343)"/><use xlink:href="#b" transform="rotate(-51.888 51.872 -38.788)scale(.00377)"/><use xlink:href="#b" transform="rotate(113.446 17.263 29.908)scale(.00272)"/><use xlink:href="#b" transform="rotate(-46.66 55.665 -45.168)scale(.00305)"/><use xlink:href="#b" transform="rotate(167.582 24.263 16.325)scale(.00391)"/><use xlink:href="#b" transform="rotate(-37.177 64.663 -60.973)scale(.0035)"/><use xlink:href="#b" transform="rotate(-88.587 39.113 -11.861)scale(.00355)"/><use xlink:href="#b" transform="rotate(234.109 32.274 1.08)scale(.00288)"/><use xlink:href="#b" transform="rotate(68.978 5.804 50.303)scale(.0036)"/><use xlink:href="#b" transform="rotate(-84.09 40.425 -13.57)scale(.00273)"/><use xlink:href="#b" transform="rotate(-98.322 37.124 -7.212)scale(.00355)"/><use xlink:href="#b" transform="rotate(115.213 16.422 30.03)scale(.00305)"/><use xlink:href="#b" transform="rotate(-90.753 38.897 -10.01)scale(.00297)"/><use xlink:href="#b" transform="rotate(74.178 6.487 47.144)scale(.0028)"/><use xlink:href="#b" transform="rotate(121.123 17.13 28.53)scale(.00379)"/><use xlink:href="#b" transform="rotate(205.778 28.207 9.063)scale(.00265)"/><use xlink:href="#b" transform="rotate(127.265 17.835 26.974)scale(.0034)"/><use xlink:href="#b" transform="rotate(-12.081 161.338 -215.815)scale(.00322)"/><use xlink:href="#b" transform="rotate(182.613 25.16 14.546)scale(.00381)"/><use xlink:href="#b" transform="rotate(-23.006 96.931 -104.366)scale(.00276)"/><use xlink:href="#b" transform="rotate(-66.14 47.34 -21.956)scale(.00318)"/><use xlink:href="#b" transform="rotate(150.225 20.637 21.774)scale(.00304)"/><use xlink:href="#b" transform="rotate(-49.11 57.278 -37.23)scale(.00346)"/><use xlink:href="#b" transform="rotate(-95.897 38.07 -6.182)scale(.00275)"/><use xlink:href="#b" transform="rotate(-69.667 46.223 -18.88)scale(.0028)"/><use xlink:href="#b" transform="rotate(-97.494 37.738 -5.32)scale(.00264)"/><use xlink:href="#b" transform="rotate(133.429 17.674 26.09)scale(.00287)"/><use xlink:href="#b" transform="rotate(172.913 23.336 17.47)scale(.00396)"/><use xlink:href="#b" transform="rotate(251.405 35.343 -1.021)scale(.00303)"/><use xlink:href="#b" transform="rotate(-47.799 59.45 -37.3)scale(.00301)"/><use xlink:href="#b" transform="rotate(-1.067 1713.307 -2514.83)scale(.00353)"/><use xlink:href="#b" transform="rotate(-67.341 47.796 -19.073)scale(.00264)"/><use xlink:href="#b" transform="rotate(138.16 17.805 25.412)scale(.00316)"/><use xlink:href="#b" transform="rotate(108.082 12.17 33.51)scale(.00295)"/><use xlink:href="#b" transform="rotate(184.822 24.492 15.721)scale(.00391)"/><use xlink:href="#b" transform="rotate(-44.624 63.266 -39.736)scale(.0038)"/><use xlink:href="#b" transform="rotate(83.109 5.184 43.017)scale(.00368)"/><use xlink:href="#b" transform="rotate(139.559 17.48 25.521)scale(.00361)"/><use xlink:href="#b" transform="rotate(91.313 7.148 39.582)scale(.00265)"/><use xlink:href="#b" transform="rotate(141.1 17.46 25.263)scale(.0028)"/><use xlink:href="#b" transform="rotate(-38.378 71.581 -48.63)scale(.00277)"/><use xlink:href="#b" transform="rotate(35.134 -30.014 89.458)scale(.00316)"/><use xlink:href="#b" transform="rotate(161.917 20.541 21.135)scale(.00397)"/><use xlink:href="#b" transform="rotate(67.752 -2.399 51.339)scale(.00283)"/><use xlink:href="#b" transform="rotate(-96.57 38.335 -2.43)scale(.00353)"/><use xlink:href="#b" transform="rotate(13.793 -120.052 204.112)scale(.00287)"/><use xlink:href="#b" transform="rotate(135.948 15.877 26.947)scale(.0034)"/><use xlink:href="#b" transform="rotate(181.593 23.05 17.649)scale(.00324)"/><use xlink:href="#b" transform="rotate(53.74 -11.78 61.999)scale(.00402)"/><use xlink:href="#b" transform="rotate(93.626 5.974 39)scale(.00263)"/><use xlink:href="#b" transform="rotate(-77.168 44.841 -9.599)scale(.00265)"/><use xlink:href="#b" transform="rotate(76.539 -.05 46.306)scale(.00359)"/><use xlink:href="#b" transform="rotate(94.2 5.813 38.878)scale(.00377)"/><use xlink:href="#b" transform="rotate(-73 46.747 -11.163)scale(.0026)"/><use xlink:href="#b" transform="rotate(-65.815 50.275 -15.058)scale(.00346)"/><use xlink:href="#b" transform="rotate(225.439 29.812 9.599)scale(.00303)"/><use xlink:href="#b" transform="rotate(-96.228 38.539 -.634)scale(.00313)"/><use xlink:href="#b" transform="rotate(160.444 18.84 22.605)scale(.00292)"/><use xlink:href="#b" transform="rotate(165.271 19.532 21.725)scale(.00262)"/><use xlink:href="#b" transform="rotate(226.241 29.81 9.842)scale(.00271)"/><use xlink:href="#b" transform="rotate(-16.465 150.94 -129.066)scale(.00264)"/><use xlink:href="#b" transform="rotate(-54.154 58.405 -22.554)scale(.00296)"/><use xlink:href="#b" transform="rotate(124.215 11.714 30.543)scale(.00303)"/><use xlink:href="#b" transform="rotate(-34.002 83.5 -50.069)scale(.0026)"/><use xlink:href="#b" transform="rotate(-26.868 101.026 -69.026)scale(.0029)"/><use xlink:href="#b" transform="rotate(89.46 2.17 40.773)scale(.00267)"/><use xlink:href="#b" transform="rotate(177.528 21.006 20.105)scale(.00354)"/><use xlink:href="#b" transform="rotate(66.484 -8.092 51.581)scale(.00277)"/><use xlink:href="#b" transform="rotate(209.873 26.368 14.195)scale(.00271)"/><use xlink:href="#b" transform="rotate(-16.213 157.095 -125.43)scale(.00356)"/><use xlink:href="#b" transform="rotate(198.932 24.324 16.54)scale(.00326)"/><use xlink:href="#b" transform="rotate(-61.386 53.954 -14.55)scale(.00324)"/><use xlink:href="#b" transform="rotate(259.253 37.18 3.11)scale(.0026)"/><use xlink:href="#b" transform="rotate(64.757 -10.187 52.369)scale(.00382)"/><use xlink:href="#b" transform="rotate(-36.65 80.642 -41.006)scale(.00303)"/><use xlink:href="#b" transform="rotate(87.616 -.154 41.484)scale(.00287)"/><use xlink:href="#b" transform="rotate(-82.114 43.515 -2.487)scale(.00398)"/><use xlink:href="#b" transform="rotate(63.738 -11.94 52.834)scale(.00275)"/><use xlink:href="#b" transform="rotate(13.092 -155.604 194.75)scale(.00293)"/><use xlink:href="#b" transform="rotate(195.927 23.15 17.98)scale(.00332)"/><use xlink:href="#b" transform="rotate(120.002 8.549 32.294)scale(.00398)"/><use xlink:href="#b" transform="rotate(3.653 -620.583 637.347)scale(.00344)"/><use xlink:href="#b" transform="rotate(-96.919 38.216 3.63)scale(.00287)"/><use xlink:href="#b" transform="rotate(225.521 28.593 12.954)scale(.00343)"/><use xlink:href="#b" transform="rotate(203.994 24.227 17.034)scale(.00283)"/><use xlink:href="#b" transform="rotate(246.093 33.276 8.641)scale(.00281)"/><use xlink:href="#b" transform="rotate(-65.47 52.131 -8.658)scale(.00293)"/><use xlink:href="#b" transform="rotate(-8.61 297.554 -233.172)scale(.00321)"/><use xlink:href="#b" transform="rotate(89.064 -1.781 40.896)scale(.0037)"/><use xlink:href="#b" transform="rotate(-77.817 45.539 -1.812)scale(.0037)"/><use xlink:href="#b" transform="rotate(205.166 24.012 17.42)scale(.00265)"/><use xlink:href="#b" transform="rotate(227.411 28.575 13.566)scale(.00368)"/><use xlink:href="#b" transform="rotate(32.9 -53.29 85.192)scale(.00289)"/><use xlink:href="#b" transform="rotate(67.446 -13.004 49.778)scale(.0036)"/><use xlink:href="#b" transform="rotate(240.991 31.616 11.203)scale(.00383)"/><use xlink:href="#b" transform="rotate(-84.297 42.7 1.792)scale(.00321)"/><use xlink:href="#b" transform="rotate(237.989 30.755 12.083)scale(.00347)"/><use xlink:href="#b" transform="rotate(202.816 23.024 18.603)scale(.00324)"/><use xlink:href="#b" transform="rotate(-65.648 52.412 -5.704)scale(.00322)"/><use xlink:href="#b" transform="rotate(154.166 13.45 26.598)scale(.00381)"/><use xlink:href="#b" transform="rotate(95.35 -1.673 38.818)scale(.00373)"/><use xlink:href="#b" transform="rotate(45.256 -34.896 65.293)scale(.0029)"/><use xlink:href="#b" transform="rotate(93.909 -2.555 39.204)scale(.0035)"/><use xlink:href="#b" transform="rotate(22.303 -95.086 112.124)scale(.00277)"/><use xlink:href="#b" transform="rotate(-6.196 430.668 -300.85)scale(.00304)"/><use xlink:href="#b" transform="rotate(85.43 -6.47 41.756)scale(.00275)"/><use xlink:href="#b" transform="rotate(162.171 14.28 25.72)scale(.00378)"/><use xlink:href="#b" transform="rotate(148.955 11.388 27.827)scale(.0032)"/><use xlink:href="#b" transform="rotate(259.963 36.527 8.766)scale(.00321)"/><use xlink:href="#b" transform="rotate(-73.963 47.583 .685)scale(.00368)"/><use xlink:href="#b" transform="rotate(92.183 -4.542 39.556)scale(.00358)"/><use xlink:href="#b" transform="rotate(210.116 23.366 18.778)scale(.00266)"/><use xlink:href="#b" transform="rotate(147.735 10.576 28.3)scale(.00396)"/><use xlink:href="#b" transform="rotate(191.466 19.322 21.8)scale(.0028)"/><use xlink:href="#b" transform="rotate(175.399 16.014 24.226)scale(.00316)"/><use xlink:href="#b" transform="rotate(238.708 29.863 14.435)scale(.0034)"/><use xlink:href="#b" transform="rotate(256.576 35.066 10.935)scale(.00381)"/><use xlink:href="#b" transform="rotate(72.751 -15.083 45.777)scale(.0027)"/><use xlink:href="#b" transform="rotate(153.121 10.953 27.699)scale(.0032)"/><use xlink:href="#b" transform="rotate(206.79 22.02 20.136)scale(.00344)"/><use xlink:href="#b" transform="rotate(96.793 -4.458 38.113)scale(.00395)"/><use xlink:href="#b" transform="rotate(28.414 -77.017 86.394)scale(.003)"/><use xlink:href="#b" transform="rotate(241.421 30.156 14.889)scale(.0036)"/><use xlink:href="#b" transform="rotate(133.78 5.928 30.892)scale(.00396)"/><use xlink:href="#b" transform="rotate(234.084 28.007 16.375)scale(.00283)"/><use xlink:href="#b" transform="rotate(26.714 -84.53 88.792)scale(.00377)"/><use xlink:href="#b" transform="rotate(106.879 -2.135 35.708)scale(.00288)"/><use xlink:href="#b" transform="rotate(-36.07 89.318 -22.081)scale(.00283)"/><use xlink:href="#b" transform="rotate(171.527 13.73 25.727)scale(.004)"/><use xlink:href="#b" transform="rotate(231.921 27.089 17.39)scale(.00332)"/><use xlink:href="#b" transform="rotate(54.503 -31.606 53.35)scale(.00402)"/><use xlink:href="#b" transform="rotate(179.566 15.021 24.856)scale(.00351)"/><use xlink:href="#b" transform="rotate(-33.135 96.78 -23.963)scale(.00344)"/><use xlink:href="#b" transform="rotate(94.832 -7.517 38.176)scale(.00365)"/><use xlink:href="#b" transform="rotate(151.302 8.528 28.68)scale(.00383)"/><use xlink:href="#b" transform="rotate(224.423 24.657 19.302)scale(.00356)"/><use xlink:href="#b" transform="rotate(222.871 24.192 19.694)scale(.00403)"/><use xlink:href="#b" transform="rotate(242.227 29.28 16.811)scale(.0034)"/><use xlink:href="#b" transform="rotate(253.575 32.772 14.874)scale(.00288)"/><use xlink:href="#b" transform="rotate(-41.28 80.11 -11.293)scale(.00267)"/><use xlink:href="#b" transform="rotate(-63.555 54.209 3.343)scale(.00318)"/><use xlink:href="#b" transform="rotate(103.879 -5.611 35.996)scale(.0026)"/><use xlink:href="#b" transform="rotate(-89.66 38.999 11.89)scale(.0029)"/><use xlink:href="#b" transform="rotate(21.271 -119.596 96.689)scale(.00287)"/><use xlink:href="#b" transform="rotate(102.376 -6.43 36.229)scale(.00372)"/><use xlink:href="#b" transform="rotate(122.11 -.37 32.876)scale(.00292)"/><use xlink:href="#b" transform="rotate(223.33 23.464 20.52)scale(.00329)"/><use xlink:href="#b" transform="rotate(145.886 5.596 29.696)scale(.00315)"/><use xlink:href="#b" transform="rotate(105.317 -5.984 35.575)scale(.00397)"/><use xlink:href="#b" transform="rotate(38.076 -60.284 62.49)scale(.00368)"/><use xlink:href="#b" transform="rotate(54.415 -36.51 50.327)scale(.00305)"/><use xlink:href="#b" transform="rotate(-14.05 219.255 -74.379)scale(.00394)"/><use xlink:href="#b" transform="rotate(256.865 33.004 16.287)scale(.00328)"/><use xlink:href="#b" transform="rotate(-82.816 41.636 12.348)scale(.00364)"/><use xlink:href="#b" transform="rotate(216.6 20.986 22.176)scale(.00335)"/><use xlink:href="#b" transform="rotate(101.493 -8.64 35.962)scale(.00306)"/><use xlink:href="#b" transform="rotate(66.06 -27.324 44.457)scale(.0033)"/><use xlink:href="#b" transform="rotate(137.963 2.266 30.821)scale(.00347)"/><use xlink:href="#b" transform="rotate(139.134 2.411 30.683)scale(.00327)"/><use xlink:href="#b" transform="rotate(48.227 -46.003 52.097)scale(.00301)"/><use xlink:href="#b" transform="rotate(.464 -6399.627 2841.522)scale(.00298)"/><use xlink:href="#b" transform="rotate(220.585 21.317 22.26)scale(.00264)"/><use xlink:href="#b" transform="rotate(21.242 -127.159 86.123)scale(.0034)"/><use xlink:href="#b" transform="rotate(224.09 22.07 22.1)scale(.00317)"/><use xlink:href="#b" transform="rotate(-.512 5849.867 -2414.746)scale(.00368)"/><use xlink:href="#b" transform="rotate(-11.227 277.362 -82.931)scale(.00377)"/><use xlink:href="#b" transform="rotate(-59.302 57.233 7.956)scale(.00322)"/><use xlink:href="#b" transform="rotate(181.096 11.285 26.714)scale(.00356)"/><use xlink:href="#b" transform="rotate(158.114 5.79 28.848)scale(.00309)"/><use xlink:href="#b" transform="rotate(-62.867 53.89 10.143)scale(.00405)"/><use xlink:href="#b" transform="rotate(36.07 -70.712 58.36)scale(.00263)"/><use xlink:href="#b" transform="rotate(15.438 -185.11 101.856)scale(.0026)"/><use xlink:href="#b" transform="rotate(-36.32 91.186 -3.364)scale(.00367)"/><use xlink:href="#b" transform="rotate(-89.388 37.163 17.024)scale(.00297)"/><use xlink:href="#b" transform="rotate(-61.614 54.76 10.866)scale(.00395)"/><use xlink:href="#b" transform="rotate(155.086 4.159 29.244)scale(.00283)"/><use xlink:href="#b" transform="rotate(211.514 17.492 24.473)scale(.00308)"/><use xlink:href="#b" transform="rotate(100.277 -12.445 35.08)scale(.00328)"/><use xlink:href="#b" transform="rotate(221.906 19.992 23.726)scale(.00349)"/><use xlink:href="#b" transform="rotate(112.231 -8.4 33.457)scale(.00308)"/><use xlink:href="#b" transform="rotate(255.83 30.407 20.248)scale(.00303)"/><use xlink:href="#b" transform="rotate(-56.296 59.645 10.568)scale(.00294)"/><use xlink:href="#b" transform="rotate(143.598 .425 30.305)scale(.00304)"/><use xlink:href="#b" transform="rotate(-94.27 34.18 19.345)scale(.0033)"/><use xlink:href="#b" transform="rotate(42.535 -60.318 49.648)scale(.003)"/><use xlink:href="#b" transform="rotate(259.989 31.608 20.406)scale(.00342)"/><use xlink:href="#b" transform="rotate(103.005 -12.68 34.22)scale(.00337)"/><use xlink:href="#b" transform="rotate(-57.081 58.455 12.559)scale(.00388)"/><use xlink:href="#b" transform="rotate(26.563 -106.361 62.003)scale(.00329)"/><use xlink:href="#b" transform="rotate(13.827 -215.768 93.778)scale(.00298)"/><use xlink:href="#b" transform="rotate(73.05 -28.475 38.365)scale(.00268)"/><use xlink:href="#b" transform="rotate(250.671 27.531 22.22)scale(.00336)"/><use xlink:href="#b" transform="rotate(199.006 12.698 26.548)scale(.004)"/><use xlink:href="#b" transform="rotate(-87.991 36.244 19.926)scale(.00274)"/><use xlink:href="#b" transform="rotate(-69.205 47.43 17.204)scale(.00387)"/><use xlink:href="#b" transform="rotate(101.97 -14.38 33.764)scale(.0039)"/><use xlink:href="#b" transform="rotate(-14.12 228.513 -29.252)scale(.00378)"/><use xlink:href="#b" transform="rotate(-93.99 33.008 21.502)scale(.00378)"/><use xlink:href="#b" transform="rotate(109.888 -11.957 32.78)scale(.00348)"/><use xlink:href="#b" transform="rotate(152.609 .432 29.61)scale(.0028)"/><use xlink:href="#b" transform="rotate(125.808 -6.97 31.432)scale(.00387)"/><use xlink:href="#b" transform="rotate(24.056 -122.649 58.634)scale(.00264)"/><use xlink:href="#b" transform="rotate(-49.253 66.974 14.183)scale(.00329)"/><use xlink:href="#b" transform="rotate(-12.04 267.98 -30.498)scale(.004)"/><use xlink:href="#b" transform="rotate(81.818 -25.31 35.176)scale(.00355)"/><use xlink:href="#b" transform="rotate(1.786 -1767.817 410.788)scale(.00332)"/><use xlink:href="#b" transform="rotate(241.04 22.611 24.716)scale(.00303)"/><use xlink:href="#b" transform="rotate(188.809 8.309 27.77)scale(.00321)"/><use xlink:href="#b" transform="rotate(221.677 16.604 26.05)scale(.0028)"/><use xlink:href="#b" transform="rotate(98.4 -18.026 33.012)scale(.00308)"/><use xlink:href="#b" transform="rotate(10.157 -306.912 89.145)scale(.00305)"/><use xlink:href="#b" transform="rotate(259.62 28.886 23.958)scale(.00362)"/><use xlink:href="#b" transform="rotate(254.887 26.887 24.48)scale(.00388)"/><use xlink:href="#b" transform="rotate(-12.267 264.674 -18.262)scale(.00313)"/><use xlink:href="#b" transform="rotate(-34.472 95 12.929)scale(.00405)"/><use xlink:href="#b" transform="rotate(-44.077 74.101 16.658)scale(.00305)"/><use xlink:href="#b" transform="rotate(85.006 -25.461 33.453)scale(.0028)"/><use xlink:href="#b" transform="rotate(150.002 -2.564 29.612)scale(.0028)"/><use xlink:href="#b" transform="rotate(87.626 -24.306 33.036)scale(.00306)"/><use xlink:href="#b" transform="rotate(65.56 -38.76 35.141)scale(.00284)"/><use xlink:href="#b" transform="rotate(161.179 -.033 29.152)scale(.00296)"/><use xlink:href="#b" transform="rotate(-55.861 57.333 20.757)scale(.00299)"/><use xlink:href="#b" transform="rotate(-71.057 43.62 22.971)scale(.00325)"/><use xlink:href="#b" transform="rotate(-15.648 208.12 .772)scale(.00343)"/><use xlink:href="#b" transform="rotate(176.565 3.276 28.612)scale(.00273)"/><use xlink:href="#b" transform="rotate(8.553 -370.55 76.116)scale(.00376)"/><use xlink:href="#b" transform="rotate(92.029 -23.131 31.903)scale(.00376)"/><use xlink:href="#b" transform="rotate(-80.839 36.728 24.716)scale(.00336)"/><use xlink:href="#b" transform="rotate(21.331 -145.742 45.666)scale(.00286)"/><use xlink:href="#b" transform="rotate(147.187 -4.798 29.485)scale(.00266)"/><use xlink:href="#b" transform="rotate(111.114 -15.906 30.654)scale(.00285)"/><use xlink:href="#b" transform="rotate(179.434 3.165 28.634)scale(.00311)"/><use xlink:href="#b" transform="rotate(174.415 1.83 28.789)scale(.00343)"/><use xlink:href="#b" transform="rotate(4.936 -650.686 90.168)scale(.00288)"/><use xlink:href="#b" transform="rotate(228.177 15.548 27.578)scale(.00358)"/><use xlink:href="#b" transform="rotate(1.01 -3199.833 302.95)scale(.00278)"/><use xlink:href="#b" transform="rotate(132.167 -9.745 29.706)scale(.00374)"/><use xlink:href="#b" transform="rotate(31.387 -97.64 36.176)scale(.00362)"/><use xlink:href="#b" transform="rotate(-16.301 199.578 14.423)scale(.0027)"/><use xlink:href="#b" transform="rotate(-52.478 59.503 24.981)scale(.00366)"/><use xlink:href="#b" transform="rotate(202.111 7.724 28.431)scale(.00388)"/><use xlink:href="#b" transform="rotate(-95.02 27.883 27.31)scale(.0036)"/><use xlink:href="#b" transform="rotate(170.504 -.474 28.803)scale(.00263)"/><use xlink:href="#b" transform="rotate(152.629 -5.079 29.054)scale(.0031)"/><use xlink:href="#b" transform="rotate(249.287 21.196 27.82)scale(.00286)"/><use xlink:href="#b" transform="rotate(186.324 3.157 28.71)scale(.00368)"/><use xlink:href="#b" transform="rotate(-36.893 86.2 25.57)scale(.0027)"/><use xlink:href="#b" transform="rotate(54.919 -53.117 30.51)scale(.00272)"/><use xlink:href="#b" transform="rotate(-55.293 55.177 27.176)scale(.00299)"/><use xlink:href="#b" transform="rotate(181.464 1.509 28.79)scale(.00388)"/><use xlink:href="#b" transform="rotate(43.668 -69.607 30.108)scale(.00295)"/><use xlink:href="#b" transform="rotate(-82.694 32.968 28.237)scale(.00301)"/><use xlink:href="#b" transform="rotate(28.886 -108.695 29.734)scale(.00395)"/><use xlink:href="#b" transform="rotate(106.175 -20.49 28.827)scale(.00262)"/><use xlink:href="#b" transform="rotate(3.7 -866.515 37.053)scale(.0033)"/><use xlink:href="#b" transform="rotate(-64.86 44.621 27.964)scale(.0033)"/><use xlink:href="#b" transform="rotate(70.35 -38.578 28.647)scale(.00375)"/><use xlink:href="#b" transform="rotate(178.705 .437 28.154)scale(.00365)"/><use xlink:href="#b" transform="rotate(7.788 -404.036 32.67)scale(.00263)"/><use xlink:href="#b" transform="rotate(-87.492 29.34 27.574)scale(.00307)"/><use xlink:href="#b" transform="rotate(-70.806 39.123 27.3)scale(.00274)"/><use xlink:href="#b" transform="rotate(-85.568 30.082 27.333)scale(.003)"/><use xlink:href="#b" transform="rotate(185.385 2.036 27.58)scale(.00393)"/><use xlink:href="#b" transform="rotate(93.205 -24.752 27.668)scale(.00302)"/><use xlink:href="#b" transform="rotate(-37.862 78.934 26.335)scale(.0027)"/><use xlink:href="#b" transform="rotate(-51.255 56.26 26.728)scale(.00388)"/><use xlink:href="#b" transform="rotate(103.595 -20.223 27.254)scale(.00283)"/><use xlink:href="#b" transform="rotate(-97.261 23.997 26.668)scale(.00312)"/><use xlink:href="#b" transform="rotate(254.543 20.741 26.615)scale(.0034)"/><use xlink:href="#b" transform="rotate(-41.088 70.643 25.853)scale(.0029)"/><use xlink:href="#b" transform="rotate(-26.98 109.606 25.187)scale(.0026)"/><use xlink:href="#b" transform="rotate(-10.991 271.214 23.098)scale(.00263)"/><use xlink:href="#b" transform="rotate(80.314 -30.033 26.712)scale(.00272)"/><use xlink:href="#b" transform="rotate(157.297 -4.494 26.3)scale(.00276)"/><use xlink:href="#b" transform="rotate(101.914 -20.184 26.386)scale(.0026)"/><use xlink:href="#b" transform="rotate(75.936 -32.14 26.435)scale(.00269)"/><use xlink:href="#b" transform="rotate(90.402 -24.482 26.232)scale(.00372)"/><use xlink:href="#b" transform="rotate(134.566 -9.902 25.928)scale(.00302)"/><use xlink:href="#b" transform="rotate(122.803 -12.95 25.866)scale(.00382)"/><use xlink:href="#b" transform="rotate(61.397 -41.503 26.032)scale(.00314)"/><use xlink:href="#b" transform="rotate(235.672 13.899 25.348)scale(.00386)"/><use xlink:href="#b" transform="rotate(10.167 -277.075 27.899)scale(.004)"/><use xlink:href="#b" transform="rotate(66.521 -36.96 25.588)scale(.00269)"/><use xlink:href="#b" transform="rotate(-38.161 71.613 24.27)scale(.00341)"/><use xlink:href="#b" transform="rotate(-94.392 23.324 24.635)scale(.00315)"/><use xlink:href="#b" transform="rotate(143.276 -7.334 24.879)scale(.0033)"/><use xlink:href="#b" transform="rotate(254.294 19.021 24.477)scale(.00352)"/><use xlink:href="#b" transform="rotate(-41.888 63.376 23.94)scale(.00386)"/><use xlink:href="#b" transform="rotate(-91.232 24.094 24.084)scale(.00308)"/><use xlink:href="#b" transform="rotate(246.918 16.42 24.04)scale(.0029)"/><use xlink:href="#b" transform="rotate(13.546 -197.728 26.105)scale(.00401)"/><use xlink:href="#b" transform="rotate(188.418 2.433 23.96)scale(.00297)"/><use xlink:href="#b" transform="rotate(.467 -5747.214 101.92)scale(.00267)"/><use xlink:href="#b" transform="rotate(230.143 11.62 23.68)scale(.00356)"/><use xlink:href="#b" transform="rotate(100.469 -18.513 23.88)scale(.00343)"/><use xlink:href="#b" transform="rotate(243.294 14.908 23.368)scale(.00348)"/><use xlink:href="#b" transform="rotate(-79.448 28.265 23.03)scale(.00313)"/><use xlink:href="#b" transform="rotate(106.698 -16.245 23.47)scale(.00303)"/><use xlink:href="#b" transform="rotate(154.766 -4.351 23.21)scale(.00322)"/><use xlink:href="#b" transform="rotate(-59.174 40.458 22.42)scale(.0026)"/><use xlink:href="#b" transform="rotate(9.512 -268.781 26.251)scale(.00329)"/><use xlink:href="#b" transform="rotate(232.977 11.831 22.65)scale(.00312)"/><use xlink:href="#b" transform="rotate(91.775 -20.776 22.952)scale(.0033)"/><use xlink:href="#b" transform="rotate(34.926 -69.57 23.52)scale(.00276)"/><use xlink:href="#b" transform="rotate(.497 -5070.155 94.908)scale(.00273)"/><use xlink:href="#b" transform="rotate(208.79 6.311 22.246)scale(.00285)"/><use xlink:href="#b" transform="rotate(105.738 -15.825 22.446)scale(.00262)"/><use xlink:href="#b" transform="rotate(73.283 -28.448 22.527)scale(.00285)"/><use xlink:href="#b" transform="rotate(-75.98 28.321 21.581)scale(.00262)"/><use xlink:href="#b" transform="rotate(78.728 -25.464 22.279)scale(.0029)"/><use xlink:href="#b" transform="rotate(236.084 12.087 21.733)scale(.0039)"/><use xlink:href="#b" transform="rotate(97.8 -17.667 21.914)scale(.00377)"/><use xlink:href="#b" transform="rotate(180.107 .698 21.49)scale(.00262)"/><use xlink:href="#b" transform="rotate(-26.728 89.016 20.037)scale(.00262)"/><use xlink:href="#b" transform="rotate(11.084 -214.008 24.257)scale(.00316)"/><use xlink:href="#b" transform="rotate(-47.494 47.77 20.593)scale(.00334)"/><use xlink:href="#b" transform="rotate(85.458 -21.474 21.374)scale(.00373)"/><use xlink:href="#b" transform="rotate(-63.631 33.627 20.553)scale(.00364)"/><use xlink:href="#b" transform="rotate(136.667 -7.374 20.9)scale(.00295)"/><use xlink:href="#b" transform="rotate(177.312 .247 20.692)scale(.00324)"/><use xlink:href="#b" transform="rotate(246.696 13.92 20.316)scale(.00263)"/><use xlink:href="#b" transform="rotate(222.876 8.56 20.358)scale(.0033)"/><use xlink:href="#b" transform="rotate(128.535 -8.862 20.466)scale(.00305)"/><use xlink:href="#b" transform="rotate(-71.712 28.032 19.772)scale(.00284)"/><use xlink:href="#b" transform="rotate(29.184 -74.696 21.224)scale(.00305)"/><use xlink:href="#b" transform="rotate(27.647 -78.37 21.065)scale(.00354)"/><use xlink:href="#b" transform="rotate(132.072 -7.931 19.973)scale(.00282)"/><use xlink:href="#b" transform="rotate(-50.975 41.016 19.304)scale(.00392)"/><use xlink:href="#b" transform="rotate(-71.36 27.316 19.236)scale(.00338)"/><use xlink:href="#b" transform="rotate(63.305 -30.057 19.928)scale(.00325)"/><use xlink:href="#b" transform="rotate(150.831 -4.181 19.425)scale(.00328)"/><use xlink:href="#b" transform="rotate(243.55 12.317 19.02)scale(.0029)"/><use xlink:href="#b" transform="rotate(-57.251 34.868 18.534)scale(.00286)"/><use xlink:href="#b" transform="rotate(92.851 -16.76 19.267)scale(.00403)"/><use xlink:href="#b" transform="rotate(123.215 -9.173 19.008)scale(.00346)"/><use xlink:href="#b" transform="rotate(153.841 -3.548 18.769)scale(.00285)"/><use xlink:href="#b" transform="rotate(95.364 -15.706 18.865)scale(.00365)"/><use xlink:href="#b" transform="rotate(255.271 14.58 18.228)scale(.00297)"/><use xlink:href="#b" transform="rotate(160.739 -2.34 18.39)scale(.00288)"/><use xlink:href="#b" transform="rotate(182.931 1.187 18.254)scale(.00342)"/><use xlink:href="#b" transform="rotate(8.58 -235 22.369)scale(.00262)"/><use xlink:href="#b" transform="rotate(190.682 2.377 18.014)scale(.00356)"/><use xlink:href="#b" transform="rotate(-71.177 25.032 17.448)scale(.00294)"/><use xlink:href="#b" transform="rotate(59.007 -29.638 18.223)scale(.00393)"/><use xlink:href="#b" transform="rotate(6.568 -296.304 21.595)scale(.00404)"/><use xlink:href="#b" transform="rotate(10.736 -180.493 20.832)scale(.00266)"/><use xlink:href="#b" transform="rotate(257.356 14.217 17.22)scale(.00392)"/><use xlink:href="#b" transform="rotate(94.636 -14.593 17.472)scale(.0039)"/><use xlink:href="#b" transform="rotate(254.376 13.29 16.88)scale(.00345)"/><use xlink:href="#b" transform="rotate(-71.442 23.547 16.62)scale(.00371)"/><use xlink:href="#b" transform="rotate(-23.944 77.734 15.32)scale(.00282)"/><use xlink:href="#b" transform="rotate(81.95 -18.028 17.023)scale(.00263)"/><use xlink:href="#b" transform="rotate(257.663 13.663 16.452)scale(.00402)"/><use xlink:href="#b" transform="rotate(251.426 12.177 16.212)scale(.00304)"/><use xlink:href="#b" transform="rotate(194.095 2.644 16.247)scale(.00267)"/><use xlink:href="#b" transform="rotate(37.728 -45.254 17.025)scale(.00332)"/><use xlink:href="#b" transform="rotate(61.606 -25.382 16.548)scale(.00345)"/><use xlink:href="#b" transform="rotate(212.906 5.268 15.841)scale(.00278)"/><use xlink:href="#b" transform="rotate(21.444 -80.13 17.207)scale(.00365)"/><use xlink:href="#b" transform="rotate(-85.674 17.134 15.397)scale(.00312)"/><use xlink:href="#b" transform="rotate(50.68 -31.125 16.176)scale(.00336)"/><use xlink:href="#b" transform="rotate(-38.114 43.958 14.77)scale(.00368)"/><use xlink:href="#b" transform="rotate(130.325 -6.072 15.474)scale(.00387)"/><use xlink:href="#b" transform="rotate(218.252 5.794 15.041)scale(.00272)"/><use xlink:href="#b" transform="rotate(171.412 -.383 15.091)scale(.00312)"/><use xlink:href="#b" transform="rotate(-58.486 26.477 14.573)scale(.00388)"/><use xlink:href="#b" transform="rotate(211.19 4.73 14.76)scale(.00361)"/><use xlink:href="#b" transform="rotate(65.54 -21.225 15.09)scale(.00356)"/><use xlink:href="#b" transform="rotate(72.684 -18.224 14.893)scale(.00391)"/><use xlink:href="#b" transform="rotate(101.786 -10.472 14.616)scale(.0039)"/><use xlink:href="#b" transform="rotate(201.547 3.323 14.168)scale(.003)"/><use xlink:href="#b" transform="rotate(146.463 -3.384 14.208)scale(.00324)"/><use xlink:href="#b" transform="rotate(2.187 -706.498 28.492)scale(.00328)"/><use xlink:href="#b" transform="rotate(197.037 2.755 13.873)scale(.00382)"/><use xlink:href="#b" transform="rotate(200.168 3.075 13.683)scale(.00327)"/><use xlink:href="#b" transform="rotate(21.099 -69.681 15.123)scale(.00318)"/><use xlink:href="#b" transform="rotate(67.146 -18.707 13.877)scale(.00387)"/><use xlink:href="#b" transform="rotate(174.544 .143 13.376)scale(.00371)"/><use xlink:href="#b" transform="rotate(-.167 8704.75 -164.505)scale(.00355)"/><use xlink:href="#b" transform="rotate(-30.125 47.542 11.857)scale(.00271)"/><use xlink:href="#b" transform="rotate(-41.287 33.7 12.32)scale(.00369)"/><use xlink:href="#b" transform="rotate(-93.256 12.353 12.562)scale(.00332)"/><use xlink:href="#b" transform="rotate(77.007 -14.553 13.033)scale(.0035)"/><use xlink:href="#b" transform="rotate(-90.907 12.568 12.371)scale(.00396)"/><use xlink:href="#b" transform="rotate(137.137 -3.965 12.51)scale(.00312)"/><use xlink:href="#b" transform="rotate(218.335 4.798 12.142)scale(.00267)"/><use xlink:href="#b" transform="rotate(28.344 -45.375 13.209)scale(.00363)"/><use xlink:href="#b" transform="rotate(-74.598 15.9 11.623)scale(.00286)"/><use xlink:href="#b" transform="rotate(35.438 -35.219 12.872)scale(.00285)"/><use xlink:href="#b" transform="rotate(19.952 -64.004 13.588)scale(.00272)"/><use xlink:href="#b" transform="rotate(2.866 -445.34 21.13)scale(.0039)"/><use xlink:href="#b" transform="rotate(161.079 -1.168 11.598)scale(.00273)"/><use xlink:href="#b" transform="rotate(126.786 -4.751 11.617)scale(.00345)"/><use xlink:href="#b" transform="rotate(114.907 -6.176 11.522)scale(.00341)"/><use xlink:href="#b" transform="rotate(-38.78 31.083 10.502)scale(.00358)"/><use xlink:href="#b" transform="rotate(139.237 -3.16 11.193)scale(.0037)"/><use xlink:href="#b" transform="rotate(112.647 -6.212 11.121)scale(.00338)"/><use xlink:href="#b" transform="rotate(115.232 -5.83 10.98)scale(.00312)"/><use xlink:href="#b" transform="rotate(66.182 -14.997 11.133)scale(.00283)"/><use xlink:href="#b" transform="rotate(169.178 -.281 10.572)scale(.00263)"/><use xlink:href="#b" transform="rotate(223.638 4.711 10.354)scale(.00311)"/><use xlink:href="#b" transform="rotate(-94.7 9.808 10.066)scale(.00295)"/><use xlink:href="#b" transform="rotate(159.182 -1.003 10.333)scale(.00402)"/><use xlink:href="#b" transform="rotate(148.411 -2.054 10.147)scale(.0026)"/><use xlink:href="#b" transform="rotate(209.8 3.256 9.937)scale(.00347)"/><use xlink:href="#b" transform="rotate(235.815 5.687 9.761)scale(.00375)"/><use xlink:href="#b" transform="rotate(241.878 6.25 9.598)scale(.00372)"/><use xlink:href="#b" transform="rotate(123.944 -4.033 9.74)scale(.0039)"/><use xlink:href="#b" transform="rotate(23.82 -41.39 10.644)scale(.00365)"/><use xlink:href="#b" transform="rotate(-43.518 22.708 8.63)scale(.00342)"/><use xlink:href="#b" transform="rotate(-10.18 98.302 5.715)scale(.00287)"/><use xlink:href="#b" transform="rotate(85.45 -8.466 9.345)scale(.00364)"/><use xlink:href="#b" transform="rotate(258.461 7.593 8.622)scale(.00272)"/><use xlink:href="#b" transform="rotate(158.873 -.851 8.847)scale(.00298)"/><use xlink:href="#b" transform="rotate(231.325 4.657 8.56)scale(.00326)"/><use xlink:href="#b" transform="rotate(103.385 -5.62 8.791)scale(.00348)"/><use xlink:href="#b" transform="rotate(29.173 -30.005 9.616)scale(.00272)"/><use xlink:href="#b" transform="rotate(90.993 -6.995 8.609)scale(.00313)"/><use xlink:href="#b" transform="rotate(42.742 -19.077 8.96)scale(.00297)"/><use xlink:href="#b" transform="rotate(21.316 -39.502 9.5)scale(.00352)"/><use xlink:href="#b" transform="rotate(-48.408 17.228 7.491)scale(.00394)"/><use xlink:href="#b" transform="rotate(-98.153 7.066 7.554)scale(.00307)"/><use xlink:href="#b" transform="rotate(38.226 -19.987 8.479)scale(.00343)"/><use xlink:href="#b" transform="rotate(54.157 -12.917 8.06)scale(.00397)"/><use xlink:href="#b" transform="rotate(-2.266 352.428 -8.169)scale(.00282)"/><use xlink:href="#b" transform="rotate(217.64 3.03 7.19)scale(.00294)"/><use xlink:href="#b" transform="rotate(-36.66 20.844 6.462)scale(.00365)"/><use xlink:href="#b" transform="rotate(139.619 -1.673 7.167)scale(.00342)"/><use xlink:href="#b" transform="rotate(223.55 3.305 6.865)scale(.0038)"/><use xlink:href="#b" transform="rotate(86.084 -6.043 7.085)scale(.00303)"/><use xlink:href="#b" transform="rotate(-66.44 10.11 6.297)scale(.00359)"/><use xlink:href="#b" transform="rotate(83.68 -5.943 6.836)scale(.00365)"/><use xlink:href="#b" transform="rotate(17.176 -38.371 8.288)scale(.00312)"/><use xlink:href="#b" transform="rotate(201.833 1.872 6.274)scale(.00401)"/><use xlink:href="#b" transform="rotate(-40.241 16.099 5.308)scale(.00304)"/><use xlink:href="#b" transform="rotate(225.79 3.038 5.865)scale(.003)"/><use xlink:href="#b" transform="rotate(79.235 -5.729 6.22)scale(.00357)"/><use xlink:href="#b" transform="rotate(182.393 .879 5.792)scale(.00398)"/><use xlink:href="#b" transform="rotate(-51.406 11.338 4.994)scale(.0031)"/><use xlink:href="#b" transform="rotate(-29.73 19.366 4.57)scale(.00368)"/><use xlink:href="#b" transform="rotate(140.73 -.997 5.446)scale(.00334)"/><use xlink:href="#b" transform="rotate(42.276 -11.444 5.927)scale(.00334)"/><use xlink:href="#b" transform="rotate(253.944 4.171 4.959)scale(.00397)"/><use xlink:href="#b" transform="rotate(201.933 1.589 4.895)scale(.00341)"/><use xlink:href="#b" transform="rotate(132.014 -1.2 4.93)scale(.00322)"/><use xlink:href="#b" transform="rotate(31.586 -14.292 5.77)scale(.0027)"/><use xlink:href="#b" transform="rotate(114.347 -1.872 4.766)scale(.00355)"/><use xlink:href="#b" transform="rotate(-78.167 5.57 4.126)scale(.0034)"/><use xlink:href="#b" transform="rotate(-60.952 7.146 3.95)scale(.00386)"/><use xlink:href="#b" transform="rotate(-90.83 4.324 3.956)scale(.00373)"/><use xlink:href="#b" transform="rotate(240.763 2.786 3.846)scale(.00307)"/><use xlink:href="#b" transform="rotate(-67.731 5.837 3.418)scale(.00277)"/><use xlink:href="#b" transform="rotate(190.524 1.014 3.767)scale(.00306)"/><use xlink:href="#b" transform="rotate(-34.489 11.07 2.696)scale(.00291)"/><use xlink:href="#b" transform="rotate(228.659 2.108 3.438)scale(.0031)"/><use xlink:href="#b" transform="rotate(89.715 -2.135 3.733)scale(.00396)"/><use xlink:href="#b" transform="rotate(25.512 -11.712 4.557)scale(.00318)"/><use xlink:href="#b" transform="rotate(16.903 -17.157 4.953)scale(.00353)"/><use xlink:href="#b" transform="rotate(250.734 2.532 2.927)scale(.00393)"/><use xlink:href="#b" transform="rotate(-28.91 10.233 1.616)scale(.00261)"/><use xlink:href="#b" transform="rotate(-38.782 7.322 1.937)scale(.00295)"/><use xlink:href="#b" transform="rotate(-74.972 3.542 2.413)scale(.00383)"/><use xlink:href="#b" transform="rotate(228.367 1.633 2.4)scale(.00303)"/><use xlink:href="#b" transform="rotate(82.694 -1.564 2.757)scale(.00272)"/><use xlink:href="#b" transform="rotate(-9.843 22.484 -1.379)scale(.0027)"/><use xlink:href="#b" transform="rotate(153.511 .373 2.315)scale(.00388)"/><use xlink:href="#b" transform="rotate(171.974 .58 2.072)scale(.00283)"/><use xlink:href="#b" transform="rotate(-50.45 3.727 1.532)scale(.00403)"/><use xlink:href="#b" transform="rotate(205.795 .999 1.713)scale(.00275)"/><use xlink:href="#b" transform="rotate(82.108 -.54 2.015)scale(.00395)"/><use xlink:href="#b" transform="rotate(76.515 -.666 1.92)scale(.003)"/><use xlink:href="#b" transform="rotate(182.696 .712 1.409)scale(.00277)"/><use xlink:href="#b" transform="rotate(235.858 1.166 1.196)scale(.0033)"/><use xlink:href="#b" transform="rotate(182.102 .717 1.192)scale(.00298)"/><use xlink:href="#b" transform="rotate(-56.388 1.815 .612)scale(.00343)"/><use xlink:href="#b" transform="rotate(74.156 .223 1.318)scale(.00386)"/><use xlink:href="#b" transform="rotate(103.648 .399 1.038)scale(.00275)"/><use xlink:href="#b" transform="rotate(220.875 .883 .69)scale(.00383)"/><use xlink:href="#b" transform="rotate(54.244 .331 1.654)scale(.0029)"/><use xlink:href="#b" transform="rotate(244.004 1.182 .434)scale(.00361)"/><use xlink:href="#b" transform="rotate(-76.499 1.46 -.079)scale(.00374)"/><use xlink:href="#b" transform="rotate(-95.107 1.51 -.104)scale(.00261)"/><use xlink:href="#b" transform="rotate(237.502 1.558 .298)scale(.0039)"/><use xlink:href="#b" transform="rotate(154.745 1.461 .982)scale(.00302)"/><use xlink:href="#b" transform="rotate(-62.185 2.092 -1.35)scale(.0027)"/><use xlink:href="#b" transform="rotate(154.943 1.755 1.076)scale(.00375)"/><use xlink:href="#b" transform="rotate(-15.361 3.465 -9.81)scale(.00384)"/><use xlink:href="#b" transform="rotate(-29.104 3.1 -5.55)scale(.00281)"/><use xlink:href="#b" transform="rotate(151.994 2.158 1.218)scale(.00386)"/><use xlink:href="#b" transform="rotate(-35.948 3.157 -5.113)scale(.00267)"/><use xlink:href="#b" transform="rotate(-3.745 11.222 -60.072)scale(.00272)"/><use xlink:href="#b" transform="rotate(-74.233 2.84 -2.005)scale(.00306)"/><use xlink:href="#b" transform="rotate(183.569 2.64 .69)scale(.00333)"/><use xlink:href="#b" transform="rotate(139.399 2.679 1.615)scale(.00342)"/><use xlink:href="#b" transform="rotate(-68.808 3.257 -2.88)scale(.00279)"/><use xlink:href="#b" transform="rotate(-86.383 3.256 -1.903)scale(.0037)"/><use xlink:href="#b" transform="rotate(34.608 2.426 9.352)scale(.00354)"/><use xlink:href="#b" transform="rotate(-37.372 3.975 -7.552)scale(.00343)"/><use xlink:href="#b" transform="rotate(184.65 3.35 .58)scale(.0026)"/><use xlink:href="#b" transform="rotate(240.922 3.657 -1.003)scale(.00363)"/><use xlink:href="#b" transform="rotate(-50.28 4.19 -6.111)scale(.0029)"/><use xlink:href="#b" transform="rotate(34.509 2.756 11.422)scale(.0027)"/><use xlink:href="#b" transform="rotate(71.718 3.494 5.46)scale(.00321)"/><use xlink:href="#b" transform="rotate(-36.565 4.73 -9.934)scale(.0032)"/><use xlink:href="#b" transform="rotate(-78.797 4.391 -3.643)scale(.0036)"/><use xlink:href="#b" transform="rotate(-94.116 4.47 -2.69)scale(.0039)"/><use xlink:href="#b" transform="rotate(223.174 4.5 -.764)scale(.00368)"/><use xlink:href="#b" transform="rotate(140.112 4.494 2.264)scale(.00384)"/><use xlink:href="#b" transform="rotate(-60.325 5.059 -6.395)scale(.00397)"/><use xlink:href="#b" transform="rotate(59.253 4.544 8.431)scale(.004)"/><use xlink:href="#b" transform="rotate(103.075 4.857 4.367)scale(.00384)"/><use xlink:href="#b" transform="rotate(16.54 3.8 32.716)scale(.0039)"/><use xlink:href="#b" transform="rotate(232.064 5.38 -1.612)scale(.00316)"/><use xlink:href="#b" transform="rotate(-61.035 5.773 -7.511)scale(.00399)"/><use xlink:href="#b" transform="rotate(247.54 5.7 -2.654)scale(.00325)"/><use xlink:href="#b" transform="rotate(96.314 5.37 5.407)scale(.00283)"/><use xlink:href="#b" transform="rotate(-67.24 6.138 -7.242)scale(.00334)"/><use xlink:href="#b" transform="rotate(209.85 5.96 -.7)scale(.00326)"/><use xlink:href="#b" transform="rotate(.276 -101.952 2315.435)scale(.0031)"/><use xlink:href="#b" transform="rotate(-96.87 6.35 -4.336)scale(.00293)"/><use xlink:href="#b" transform="rotate(141.376 6.111 2.76)scale(.00282)"/><use xlink:href="#b" transform="rotate(157.763 6.245 1.873)scale(.00265)"/><use xlink:href="#b" transform="rotate(-52.905 6.975 -11.383)scale(.00298)"/><use xlink:href="#b" transform="rotate(-20.485 7.88 -33.09)scale(.00345)"/><use xlink:href="#b" transform="rotate(-63.404 7.122 -9.454)scale(.0028)"/><use xlink:href="#b" transform="rotate(31.22 5.774 23.573)scale(.00286)"/><use xlink:href="#b" transform="rotate(60.987 6.365 11.749)scale(.00266)"/><use xlink:href="#b" transform="rotate(164.913 6.992 1.627)scale(.00332)"/><use xlink:href="#b" transform="rotate(161.173 7.081 1.847)scale(.00303)"/><use xlink:href="#b" transform="rotate(251.502 7.433 -4.182)scale(.00303)"/><use xlink:href="#b" transform="rotate(42.141 6.57 18.774)scale(.0027)"/><use xlink:href="#b" transform="rotate(93.536 7.17 7.351)scale(.00279)"/><use xlink:href="#b" transform="rotate(28.527 6.829 28.78)scale(.00382)"/><use xlink:href="#b" transform="rotate(240.677 7.86 -3.556)scale(.00286)"/><use xlink:href="#b" transform="rotate(-69.686 8.186 -9.805)scale(.00373)"/><use xlink:href="#b" transform="rotate(81.322 7.752 9.535)scale(.00359)"/><use xlink:href="#b" transform="rotate(-5.324 14.174 -164.857)scale(.0028)"/><use xlink:href="#b" transform="rotate(163.226 8.234 1.93)scale(.0037)"/><use xlink:href="#b" transform="rotate(106.814 8.2 6.64)scale(.00338)"/><use xlink:href="#b" transform="rotate(163.78 8.459 1.897)scale(.00324)"/><use xlink:href="#b" transform="rotate(-97.49 8.833 -6.45)scale(.00302)"/><use xlink:href="#b" transform="rotate(-9.805 11.505 -95.807)scale(.00341)"/><use xlink:href="#b" transform="rotate(-39.802 9.635 -22.652)scale(.0026)"/><use xlink:href="#b" transform="rotate(-27.18 9.956 -34.452)scale(.00342)"/><use xlink:href="#b" transform="rotate(145.473 8.987 3.423)scale(.00299)"/><use xlink:href="#b" transform="rotate(-87.501 9.464 -8.475)scale(.0027)"/><use xlink:href="#b" transform="rotate(-61.144 9.74 -14.293)scale(.00305)"/><use xlink:href="#b" transform="rotate(218.099 9.548 -2.297)scale(.00383)"/><use xlink:href="#b" transform="rotate(74.07 9.204 12.85)scale(.00304)"/><use xlink:href="#b" transform="rotate(59.554 9.36 16.907)scale(.00373)"/><use xlink:href="#b" transform="rotate(221.453 9.95 -2.763)scale(.00366)"/><use xlink:href="#b" transform="rotate(233.789 10.086 -4.105)scale(.00302)"/><use xlink:href="#b" transform="rotate(158.792 10.074 2.58)scale(.0036)"/><use xlink:href="#b" transform="rotate(137.309 10.101 4.561)scale(.00304)"/><use xlink:href="#b" transform="rotate(205.827 10.404 -1.508)scale(.00337)"/><use xlink:href="#b" transform="rotate(-52.572 10.973 -19.55)scale(.00323)"/><use xlink:href="#b" transform="rotate(174.981 10.543 1.165)scale(.00285)"/><use xlink:href="#b" transform="rotate(215.698 10.803 -2.516)scale(.00363)"/><use xlink:href="#b" transform="rotate(152.15 10.823 3.357)scale(.0037)"/><use xlink:href="#b" transform="rotate(24.563 9.803 49.156)scale(.00318)"/><use xlink:href="#b" transform="rotate(172.12 11.078 1.481)scale(.0032)"/><use xlink:href="#b" transform="rotate(155.036 11.104 3.097)scale(.00265)"/><use xlink:href="#b" transform="rotate(-10.956 13.51 -112.363)scale(.00382)"/><use xlink:href="#b" transform="rotate(-58.125 11.94 -19.166)scale(.00279)"/><use xlink:href="#b" transform="rotate(240.014 11.705 -5.711)scale(.00294)"/><use xlink:href="#b" transform="rotate(-28.95 12.51 -42.626)scale(.00392)"/><use xlink:href="#b" transform="rotate(.7 -35.27 1867.942)scale(.00275)"/><use xlink:href="#b" transform="rotate(156.494 11.917 3.161)scale(.00352)"/><use xlink:href="#b" transform="rotate(-2.31 22.627 -574.954)scale(.00373)"/><use xlink:href="#b" transform="rotate(255.643 12.402 -8.425)scale(.00295)"/><use xlink:href="#b" transform="rotate(-98.213 12.533 -9.611)scale(.00268)"/><use xlink:href="#b" transform="rotate(65.792 11.92 19.285)scale(.00264)"/><use xlink:href="#b" transform="rotate(234.033 12.629 -5.477)scale(.00262)"/><use xlink:href="#b" transform="rotate(9.682 9.216 144.918)scale(.00278)"/><use xlink:href="#b" transform="rotate(-75.103 13.06 -15.23)scale(.00334)"/><use xlink:href="#b" transform="rotate(158.749 12.889 3.129)scale(.00394)"/><use xlink:href="#b" transform="rotate(217.354 13.076 -3.535)scale(.00287)"/><use xlink:href="#b" transform="rotate(1.295 -7.002 1121.583)scale(.00353)"/><use xlink:href="#b" transform="rotate(29.931 12.626 48.614)scale(.00405)"/><use xlink:href="#b" transform="rotate(-84.345 13.689 -13.553)scale(.00336)"/><use xlink:href="#b" transform="rotate(244.596 13.68 -7.581)scale(.00277)"/><use xlink:href="#b" transform="rotate(143.909 13.515 5.025)scale(.0028)"/><use xlink:href="#b" transform="rotate(221.706 13.855 -4.309)scale(.00336)"/><use xlink:href="#b" transform="rotate(219.611 14.007 -4.033)scale(.00385)"/><use xlink:href="#b" transform="rotate(253.545 14.218 -9.392)scale(.00335)"/><use xlink:href="#b" transform="rotate(54.194 13.859 27.539)scale(.00405)"/><use xlink:href="#b" transform="rotate(129.15 14.25 7.369)scale(.00372)"/><use xlink:href="#b" transform="rotate(166.16 14.41 2.443)scale(.00313)"/><use xlink:href="#b" transform="rotate(44.095 13.932 35.643)scale(.00316)"/><use xlink:href="#b" transform="rotate(-84.724 14.967 -14.781)scale(.00397)"/><use xlink:href="#b" transform="rotate(34.88 13.957 46.615)scale(.00297)"/><use xlink:href="#b" transform="rotate(193.336 14.977 -.956)scale(.00313)"/><use xlink:href="#b" transform="rotate(-72.3 15.426 -19.352)scale(.00275)"/><use xlink:href="#b" transform="rotate(-26.578 16.085 -61.472)scale(.00388)"/><use xlink:href="#b" transform="rotate(256.99 15.512 -11.157)scale(.00266)"/><use xlink:href="#b" transform="rotate(-4.455 22.804 -385.249)scale(.00274)"/><use xlink:href="#b" transform="rotate(48.27 14.966 34.435)scale(.0032)"/><use xlink:href="#b" transform="rotate(52.217 14.989 31.81)scale(.0026)"/><use xlink:href="#b" transform="rotate(-33.311 16.59 -50.438)scale(.00324)"/><use xlink:href="#b" transform="rotate(107.014 15.778 12.194)scale(.00383)"/><use xlink:href="#b" transform="rotate(138.647 16.02 6.677)scale(.00402)"/><use xlink:href="#b" transform="rotate(98.367 15.998 14.35)scale(.00347)"/><use xlink:href="#b" transform="rotate(-96.183 16.524 -13.562)scale(.00267)"/><use xlink:href="#b" transform="rotate(14.55 14.97 125.628)scale(.00399)"/><use xlink:href="#b" transform="rotate(96.205 16.451 15.239)scale(.00395)"/><use xlink:href="#b" transform="rotate(125.259 16.589 9.176)scale(.00327)"/><use xlink:href="#b" transform="rotate(21.497 15.272 87.224)scale(.00273)"/><use xlink:href="#b" transform="rotate(-68.85 17.301 -23.291)scale(.00349)"/><use xlink:href="#b" transform="rotate(-90.673 17.328 -15.633)scale(.0037)"/><use xlink:href="#b" transform="rotate(97.697 17.106 15.435)scale(.00394)"/><use xlink:href="#b" transform="rotate(1.214 -8.747 1599.61)scale(.0029)"/><use xlink:href="#b" transform="rotate(246.36 17.617 -10.46)scale(.0026)"/><use xlink:href="#b" transform="rotate(73.588 17.256 23.662)scale(.00331)"/><use xlink:href="#b" transform="rotate(.522 -45.322 3792.282)scale(.00276)"/><use xlink:href="#b" transform="rotate(-78.183 18.12 -20.685)scale(.00281)"/><use xlink:href="#b" transform="rotate(211.279 17.975 -4.156)scale(.00309)"/><use xlink:href="#b" transform="rotate(32.892 17.254 60.329)scale(.00343)"/><use xlink:href="#b" transform="rotate(-97.009 18.385 -14.928)scale(.00323)"/><use xlink:href="#b" transform="rotate(211.96 18.369 -4.346)scale(.0034)"/><use xlink:href="#b" transform="rotate(226.063 18.533 -6.873)scale(.00343)"/><use xlink:href="#b" transform="rotate(103.407 18.272 15.027)scale(.00271)"/><use xlink:href="#b" transform="rotate(154.968 18.603 4.797)scale(.00331)"/><use xlink:href="#b" transform="rotate(151.22 18.785 5.498)scale(.00392)"/><use xlink:href="#b" transform="rotate(101.441 18.633 15.847)scale(.00265)"/><use xlink:href="#b" transform="rotate(-42.769 19.718 -46.811)scale(.00276)"/><use xlink:href="#b" transform="rotate(-84.928 19.404 -19.743)scale(.00271)"/><use xlink:href="#b" transform="rotate(177.622 19.251 1.158)scale(.00348)"/><use xlink:href="#b" transform="rotate(116.23 19.157 12.505)scale(.00283)"/><use xlink:href="#b" transform="rotate(233.369 19.606 -8.807)scale(.00334)"/><use xlink:href="#b" transform="rotate(84.955 19.283 21.672)scale(.00297)"/><use xlink:href="#b" transform="rotate(57.39 19.13 35.971)scale(.00267)"/><use xlink:href="#b" transform="rotate(25.697 18.923 85.641)scale(.00371)"/><use xlink:href="#b" transform="rotate(146.926 19.818 6.507)scale(.00263)"/><use xlink:href="#b" transform="rotate(134.207 19.922 9.02)scale(.00297)"/><use xlink:href="#b" transform="rotate(173.404 20.17 1.896)scale(.00336)"/><use xlink:href="#b" transform="rotate(68.39 20.033 29.98)scale(.00374)"/><use xlink:href="#b" transform="rotate(160.921 20.343 4.071)scale(.00266)"/><use xlink:href="#b" transform="rotate(-36.512 21.333 -60.242)scale(.00303)"/><use xlink:href="#b" transform="rotate(-23.423 21.872 -96.793)scale(.00322)"/><use xlink:href="#b" transform="rotate(193.743 20.872 -1.638)scale(.004)"/><use xlink:href="#b" transform="rotate(-60.925 21.355 -34.075)scale(.00336)"/><use xlink:href="#b" transform="rotate(46.598 20.484 48.637)scale(.00324)"/><use xlink:href="#b" transform="rotate(38.857 20.31 59.603)scale(.00269)"/><use xlink:href="#b" transform="rotate(92.456 20.966 20.708)scale(.00272)"/><use xlink:href="#b" transform="rotate(77.613 21.08 26.803)scale(.00323)"/><use xlink:href="#b" transform="rotate(-51.527 21.99 -42.807)scale(.00386)"/><use xlink:href="#b" transform="rotate(183.488 21.732 .16)scale(.00396)"/><use xlink:href="#b" transform="rotate(124.205 21.697 12.072)scale(.00336)"/><use xlink:href="#b" transform="rotate(214.738 22.035 -5.954)scale(.00347)"/><use xlink:href="#b" transform="rotate(1.39 3.614 1781.826)scale(.00357)"/><use xlink:href="#b" transform="rotate(207.99 22.269 -4.681)scale(.00318)"/><use xlink:href="#b" transform="rotate(-67.905 22.711 -31.807)scale(.00294)"/><use xlink:href="#b" transform="rotate(226.348 22.52 -8.724)scale(.00267)"/><use xlink:href="#b" transform="rotate(39.597 21.82 62.16)scale(.00313)"/><use xlink:href="#b" transform="rotate(64 22.132 36.318)scale(.0026)"/><use xlink:href="#b" transform="rotate(200.779 22.836 -3.313)scale(.00359)"/><use xlink:href="#b" transform="rotate(138.493 22.746 9.23)scale(.00272)"/><use xlink:href="#b" transform="rotate(.866 -4.335 2982.04)scale(.0038)"/><use xlink:href="#b" transform="rotate(-13.835 25.445 -186.627)scale(.00281)"/><use xlink:href="#b" transform="rotate(-80.762 23.553 -26.164)scale(.0026)"/><use xlink:href="#b" transform="rotate(-77.46 23.666 -27.794)scale(.00345)"/><use xlink:href="#b" transform="rotate(141.925 23.476 8.742)scale(.0039)"/><use xlink:href="#b" transform="rotate(109.368 23.544 17.208)scale(.00384)"/><use xlink:href="#b" transform="rotate(176.238 23.803 1.54)scale(.00356)"/><use xlink:href="#b" transform="rotate(-77.068 24.235 -28.767)scale(.00297)"/><use xlink:href="#b" transform="rotate(61.741 23.611 40.212)scale(.00323)"/><use xlink:href="#b" transform="rotate(150.153 24.05 7.048)scale(.0029)"/><use xlink:href="#b" transform="rotate(121.532 24.212 14.116)scale(.0039)"/><use xlink:href="#b" transform="rotate(121.132 24.22 14.257)scale(.00284)"/><use xlink:href="#b" transform="rotate(-49.92 25.076 -51.024)scale(.00302)"/><use xlink:href="#b" transform="rotate(194.943 24.7 -2.39)scale(.00364)"/><use xlink:href="#b" transform="rotate(35.459 23.912 76.885)scale(.003)"/><use xlink:href="#b" transform="rotate(-22.693 26.17 -121.129)scale(.00313)"/><use xlink:href="#b" transform="rotate(-2.923 36.666 -963.54)scale(.0026)"/><use xlink:href="#b" transform="rotate(220.479 25.185 -8.37)scale(.00298)"/><use xlink:href="#b" transform="rotate(60.281 24.783 43.43)scale(.0032)"/><use xlink:href="#b" transform="rotate(8.498 22.223 335.798)scale(.00346)"/><use xlink:href="#b" transform="rotate(223.036 25.558 -9.148)scale(.00295)"/><use xlink:href="#b" transform="rotate(238.672 25.718 -13.408)scale(.003)"/><use xlink:href="#b" transform="rotate(172.307 25.745 2.496)scale(.00388)"/><use xlink:href="#b" transform="rotate(-49.554 26.334 -54.167)scale(.00396)"/><use xlink:href="#b" transform="rotate(-35.237 26.828 -79.796)scale(.00299)"/><use xlink:href="#b" transform="rotate(216.333 26.238 -7.612)scale(.0039)"/><use xlink:href="#b" transform="rotate(151.591 26.189 7.28)scale(.00313)"/><use xlink:href="#b" transform="rotate(237.908 26.542 -13.554)scale(.0037)"/><use xlink:href="#b" transform="rotate(124.492 26.389 14.474)scale(.00321)"/><use xlink:href="#b" transform="rotate(144.172 26.494 9.182)scale(.0026)"/><use xlink:href="#b" transform="rotate(122.346 26.65 15.244)scale(.00356)"/><use xlink:href="#b" transform="rotate(71.311 26.608 37.61)scale(.00363)"/><use xlink:href="#b" transform="rotate(-55.906 27.495 -49.35)scale(.00317)"/><use xlink:href="#b" transform="rotate(178.681 27.166 1.082)scale(.00356)"/><use xlink:href="#b" transform="rotate(222.537 27.36 -9.72)scale(.003)"/><use xlink:href="#b" transform="rotate(-16.306 29.316 -187.522)scale(.00284)"/><use xlink:href="#b" transform="rotate(180.642 27.482 .582)scale(.00303)"/><use xlink:href="#b" transform="rotate(-8.036 31.823 -386.61)scale(.0026)"/><use xlink:href="#b" transform="rotate(-51.064 28.204 -56.268)scale(.00367)"/><use xlink:href="#b" transform="rotate(134.269 27.798 12.334)scale(.00366)"/><use xlink:href="#b" transform="rotate(-99.72 28.211 -22.44)scale(.0036)"/><use xlink:href="#b" transform="rotate(88.01 27.835 29.412)scale(.00302)"/><use xlink:href="#b" transform="rotate(-28.003 29.088 -110.56)scale(.00396)"/><use xlink:href="#b" transform="rotate(83.06 28.038 32.305)scale(.0028)"/><use xlink:href="#b" transform="rotate(252.951 28.683 -20.013)scale(.0031)"/><use xlink:href="#b" transform="rotate(250.12 28.793 -19.037)scale(.00314)"/><use xlink:href="#b" transform="rotate(83.403 28.44 32.489)scale(.00324)"/></g><defs><filter id="a" width="57.323" height="57.336" x=".277" y=".271" color-interpolation-filters="sRGB" filterUnits="userSpaceOnUse"><feFlood flood-opacity="0" result="BackgroundImageFix"/><feBlend in="SourceGraphic" in2="BackgroundImageFix" result="shape"/><feTurbulence baseFrequency="0.38759690523147583 0.38759690523147583" numOctaves="3" result="noise" seed="9800" stitchTiles="stitch" type="fractalNoise"/><feColorMatrix in="noise" result="alphaNoise" type="luminanceToAlpha"/><feComponentTransfer in="alphaNoise" result="coloredNoise1"><feFuncA tableValues="0 0 0 0 0 0 0 0 0 0 0 0 0 0 1 1 1 1 1 1 1 1 1 1 1 1 1 1 1 1 1 1 1 1 1 1 0 0 0 0 0 0 0 0 0 0 0 0 0 0 0 0 0 0 0 0 0 0 0 0 0 0 0 0 0 0 0 0 0 0 0 0 0 0 0 0 0 0 0 0 0 0 0 0 0 0 0 0 0 0 0 0 0 0 0 0 0 0 0 0" type="discrete"/></feComponentTransfer><feComposite in="coloredNoise1" in2="shape" operator="in" result="noise1Clipped"/><feComponentTransfer in="alphaNoise" result="coloredNoise2"><feFuncA tableValues="0 0 0 0 0 0 0 0 0 0 0 0 0 0 0 0 0 0 0 0 0 0 0 0 0 0 0 0 0 0 0 0 0 0 0 0 0 0 0 0 0 0 0 0 0 0 0 0 0 0 0 0 0 0 0 0 0 0 0 0 0 0 0 0 1 1 1 1 1 1 1 1 1 1 1 1 1 1 1 1 1 1 1 1 1 1 0 0 0 0 0 0 0 0 0 0 0 0 0 0" type="discrete"/></feComponentTransfer><feComposite in="coloredNoise2" in2="shape" operator="in" result="noise2Clipped"/><feFlood flood-color="rgba(255, 255, 255, 0.75)" result="color1Flood"/><feComposite in="color1Flood" in2="noise1Clipped" operator="in" result="color1"/><feFlood flood-color="rgba(255, 255, 255, 0.25)" result="color2Flood"/><feComposite in="color2Flood" in2="noise2Clipped" operator="in" result="color2"/><feMerge result="effect1_noise_8_211"><feMergeNode in="shape"/><feMergeNode in="color1"/><feMergeNode in="color2"/></feMerge></filter><path id="b" fill="#538fdf" d="M103.731 283.547c6.621-2.184 9.076-2.199 12.39-.079 13.988 8.95 8.729 25.25-8.149 25.259-17.595.01-20.911-19.681-4.241-25.18m36.106-248.132c1.1-.236 2.675-.301 3.5-.144s3.179.568 5.23.914c7.235 1.22 11.612 10.512 8.167 17.34-3.81 7.552-12.019 14.056-15.875 12.577-4.987-1.914-3.234 3.777 3.207 10.413 4.24 4.37 6.271 4.754 6.271 1.192 0-1.05 1.285-3.385 2.856-5.19 1.63-1.876 3.404-5.597 4.131-8.667 1.601-6.76 3.464-8.621 10.045-10.033 9.951-2.134 18.212 3.11 16.383 10.398-.459 1.827.149 3.45 2.338 6.243 10.769 13.74 7.785 33.815-5.494 36.96-3.547.84-3.764 1.114-3.823 4.852-.034 2.178-.408 4.717-.83 5.642-.688 1.505.003 1.652 6.563 1.398 7.909-.307 10.168.395 13.447 4.177 3.101 3.577 5.645 2.627 6.656-2.485.894-4.519 6.487-10.271 9.987-10.271 2.245 0 3.338-2.575 1.853-4.364-8.349-10.061 7.785-32.704 21.156-29.688 5.967 1.346 10.697 6.951 10.762 12.752.017 1.54 1.138 5.05 2.491 7.8 6.504 13.222-5.554 28.994-16.081 21.032-2.853-2.158-2.94-2.037-2.94 4.078 0 6.589-3.905 10.951-10.788 12.052-2.981.477-4.116 1.277-5.274 3.723-.811 1.713-2.225 4.299-3.145 5.747-1.646 2.593-1.61 2.702 2.517 7.391 2.304 2.617 4.19 5.301 4.19 5.964s.737 2.683 1.637 4.488c3.174 6.361 2.099 20.025-1.574 20.025-.348 0-1.43 1.35-2.405 3s-2.422 3-3.216 3c-2.184 0-1.735 2.086 1.084 5.029 3.521 3.675 4.562 12.107 1.865 15.098-5.225 5.791-11.678 10.152-16.664 11.264-4.12.919-5.234 1.583-5.26 3.137-.135 8.13-4.562 13.128-13.122 14.818-6.837 1.35-7.61 3.233-2.105 5.126 12.781 4.394 15.315 15.49 4.865 21.303-5.921 3.293-10.016 3.252-14.927-.152-3.621-2.509-4.354-2.668-7.836-1.701-5.942 1.65-12.316 1.281-18.342-1.06-5.463-2.123-10.613-3.525-16.648-4.532-5.974-.997-9.538-6.118-10.097-14.51-.408-6.134-.921-7.806-3.167-10.32-1.474-1.65-3.439-4.687-4.367-6.75-1.638-3.637-1.847-3.75-6.894-3.75-6.37 0-11.084-2.809-13.947-8.311-3.17-6.093-7.274-5.084-7.37 1.811-.037 2.75-.424 6.586-.859 8.524-.753 3.358-.637 3.569 2.449 4.5 10.063 3.035 9.961 20.691-.149 25.679-24.298 11.986-54.047-12.461-32.413-26.636 1.681-1.102 2.306-2.804 2.815-7.672.36-3.441 1.44-7.364 2.4-8.716a375 375 0 0 1 2.719-3.783c.693-.943.207-2.124-1.687-4.11-3.495-3.662-4.81-7.36-4.124-11.589.33-2.036.105-3.723-.552-4.129-.61-.377-1.109-1.954-1.11-3.505 0-1.55-.735-3.428-1.633-4.173-2.703-2.245-12.366-15.765-12.366-17.304 0-.788-1.574-3.495-3.498-6.015-1.924-2.521-3.44-4.918-3.366-5.327.973-5.497-2.826-8.55-7-5.627-2.218 1.554-9.25 1.428-13.607-.244-10.102-3.877-8.653-28.978 1.702-29.484 6.291-.307 14.769 2.931 14.769 5.641 0 1.757 2.773 4.47 4.57 4.47.786 0 1.43-.69 1.43-1.533 0-13.384 20.848-28.89 40.5-30.121 13.093-.822 18.425.42 27.352 6.37 4.261 2.84 11.148-2.563 11.148-8.746 0-2.041.835-4.23 2.146-5.626 2.251-2.396 1.321-5.344-1.687-5.344-2.393 0-5.24-6.189-4.719-10.26.969-7.587 13.556-11.704 19.212-6.285 2.35 2.252 3.419 2.622 5.956 2.065 3.809-.837 3.883-1.777.342-4.356-8.227-5.993-1.392-22.986 10.25-25.48m87.5 168.014c11.757-3.775 25.385 3.862 25.385 14.224 0 10.842-20.801 21.787-28.795 15.153-2.262-1.877-3.524-.443-2.915 3.312 1.085 6.684-7.501 18.613-13.396 18.613-13.37 0-18.816-8.499-13.159-20.533 3.745-7.967 9.996-10.414 18.781-7.351 4.298 1.498 4.642.84 2.683-5.15-2.869-8.772.969-14.914 11.416-18.268M179.7 192.695c-.651-.651-1.649-.282-2.926 1.084-8.404 8.989-11.711 9.934-20.268 5.792-6.76-3.273-10.056 1.888-4.545 7.118 2.248 2.133 2.521 3.055 2.077 6.993-.498 4.416-.374 4.662 4.644 9.285 5.154 4.749 5.155 4.749 5.669-.1.636-5.995 5.171-12.898 9.726-14.801 3.017-1.261 3.26-1.707 3.26-6.02 0-2.954.613-5.335 1.676-6.51 1.104-1.221 1.339-2.189.687-2.841m-165.965-8.998c7.495-3.335 12.2-2.472 18.37 3.369 8.46 8.008 4.924 18.546-7.474 22.277-15.224 4.582-25.336-19.219-10.896-25.646m239.221-35.446c9.173-2.519 14.854-1.048 18.027 4.67 6.414 11.557-13.631 27.998-23.804 19.524-10.086-8.401-7.163-20.64 5.777-24.194m-77.134 14.458c-.98-1.586-3.34-1.12-4.405.87-1.134 2.12-.033 7.334 1.669 7.902 1.28.424 3.675-7.252 2.736-8.772m-25.67-51.228c.34-2.955-.618-3.304-4.639-1.691-3.405 1.365-2.478 4.441 1.338 4.441 2.514 0 3.035-.435 3.301-2.75m6.685-12.75c-.825 0-1.5.675-1.5 1.5s.675 1.5 1.5 1.5 1.5-.675 1.5-1.5-.675-1.5-1.5-1.5m-25.5-13.093c0-2.838-1.846-4.238-3.908-2.964-.928.573-.744 1.616.756 4.286 1.088 1.94 2.131 4.5 2.315 5.689s.787 2.256 1.337 2.372c1.413.296 1.892-4.299.585-5.606-.597-.597-1.085-2.296-1.085-3.777m-51.5-48.717c10.045-5.672 23.056 9.928 15.821 18.971-3.456 4.319-4.454 8.089-3.788 14.308.662 6.184.612 6.364-2.833 10.163C76.04 94.7 55.153 78.5 64.824 61.583c1.515-2.65 2.493-5.938 2.5-8.408.016-5.47 5.092-12.063 12.513-16.254m41.059 41.81c-.243 0-.719.45-1.059 1s-.142 1 .44 1 1.06-.45 1.06-1-.198-1-.441-1m84.589-39.241c14.146-2.448 22.113 11.425 15.112 26.318-7.204 15.322-30.258 11.978-30.506-4.426-.111-7.306 9.418-20.858 15.394-21.892M51.837 14.554c12.608-8.69 23.843 4.813 16.787 20.177-6.239 13.586-27.287 9.044-27.287-5.889 0-2.809 6.316-11.404 10.5-14.288M108.212 2.17c13.218-8.981 33.334 11.922 25.025 26.004-1.153 1.956-2.418 3.556-2.81 3.557s-1.614.84-2.714 1.865c-8.257 7.691-19.927 2.18-24.346-11.497-3.215-9.953-1.904-15.343 4.845-19.929" data-figma-scatter="f0.28_w0_aj180_sj0.25_r0_s0_sw1" data-figma-scatter-ref="stroke0_8_211_ref"/></defs></svg>