<svg xmlns="http://www.w3.org/2000/svg" xmlns:xlink="http://www.w3.org/1999/xlink" width="58" height="58" fill="none" viewBox="0 0 58 58"><g filter="url(#a)"><path fill="#538fdf" d="M1 57h56L1 1z"/><use xlink:href="#b" transform="rotate(-51.14 87.718 -30.249)scale(.00372)"/><use xlink:href="#b" transform="rotate(138.377 17.904 39.479)scale(.00393)"/><use xlink:href="#b" transform="rotate(171.959 26.45 30.715)scale(.0032)"/><use xlink:href="#b" transform="rotate(-59.012 78.267 -20.589)scale(.0029)"/><use xlink:href="#b" transform="rotate(-15.424 237.053 -176.608)scale(.00279)"/><use xlink:href="#b" transform="rotate(-71.672 67.251 -9.664)scale(.00266)"/><use xlink:href="#b" transform="rotate(209.527 35.46 21.543)scale(.00379)"/><use xlink:href="#b" transform="rotate(170.496 25.477 30.993)scale(.00272)"/><use xlink:href="#b" transform="rotate(48.678 -34.813 89.182)scale(.00274)"/><use xlink:href="#b" transform="rotate(139.136 17.113 38.88)scale(.00312)"/><use xlink:href="#b" transform="rotate(-35.154 116.634 -56.627)scale(.0036)"/><use xlink:href="#b" transform="rotate(61.528 -19.928 73.968)scale(.00402)"/><use xlink:href="#b" transform="rotate(117.017 9.99 45.18)scale(.00385)"/><use xlink:href="#b" transform="rotate(235.005 41.802 14.939)scale(.00375)"/><use xlink:href="#b" transform="rotate(149.173 19.215 36.1)scale(.00405)"/><use xlink:href="#b" transform="rotate(242.911 44.073 12.573)scale(.0028)"/><use xlink:href="#b" transform="rotate(238.51 42.514 14.128)scale(.00387)"/><use xlink:href="#b" transform="rotate(-10.1 345.815 -266.048)scale(.00374)"/><use xlink:href="#b" transform="rotate(162.417 22.004 32.74)scale(.00287)"/><use xlink:href="#b" transform="rotate(129.4 12.963 40.98)scale(.0036)"/><use xlink:href="#b" transform="rotate(-29.435 133.56 -68.894)scale(.0038)"/><use xlink:href="#b" transform="rotate(183.229 26.822 28.066)scale(.0037)"/><use xlink:href="#b" transform="rotate(99.979 2.081 50.088)scale(.00263)"/><use xlink:href="#b" transform="rotate(-57.101 77.62 -17.628)scale(.00392)"/><use xlink:href="#b" transform="rotate(59.379 -23.876 72.878)scale(.00356)"/><use xlink:href="#b" transform="rotate(253.345 46.513 10.123)scale(.00336)"/><use xlink:href="#b" transform="rotate(142.595 15.813 37.2)scale(.00359)"/><use xlink:href="#b" transform="rotate(244.82 43.148 13.091)scale(.00376)"/><use xlink:href="#b" transform="rotate(-83.871 56.54 1.224)scale(.0026)"/><use xlink:href="#b" transform="rotate(112.759 6.14 45.051)scale(.00277)"/><use xlink:href="#b" transform="rotate(191.954 27.842 26.234)scale(.00372)"/><use xlink:href="#b" transform="rotate(170.952 22.506 30.694)scale(.00356)"/><use xlink:href="#b" transform="rotate(138.046 13.718 37.986)scale(.00275)"/><use xlink:href="#b" transform="rotate(33.255 -70.294 109.383)scale(.00266)"/><use xlink:href="#b" transform="rotate(-11.174 313.468 -216.375)scale(.00285)"/><use xlink:href="#b" transform="rotate(35.014 -65.337 104.34)scale(.00307)"/><use xlink:href="#b" transform="rotate(161.253 19.506 32.678)scale(.00345)"/><use xlink:href="#b" transform="rotate(-57.19 75.875 -14.578)scale(.00298)"/><use xlink:href="#b" transform="rotate(60.065 -24.95 69.347)scale(.00327)"/><use xlink:href="#b" transform="rotate(50.39 -36.384 78.436)scale(.00266)"/><use xlink:href="#b" transform="rotate(151.227 16.395 34.677)scale(.0026)"/><use xlink:href="#b" transform="rotate(83.067 -8.344 54.885)scale(.00297)"/><use xlink:href="#b" transform="rotate(122.185 7.943 41.49)scale(.004)"/><use xlink:href="#b" transform="rotate(61.555 -24.157 67.182)scale(.00299)"/><use xlink:href="#b" transform="rotate(218.971 33.217 20.771)scale(.00395)"/><use xlink:href="#b" transform="rotate(18.133 -153.637 170.172)scale(.00387)"/><use xlink:href="#b" transform="rotate(244.473 40.723 14.496)scale(.0026)"/><use xlink:href="#b" transform="rotate(199.527 27.692 24.957)scale(.00385)"/><use xlink:href="#b" transform="rotate(205.046 28.931 23.798)scale(.00307)"/><use xlink:href="#b" transform="rotate(30.706 -80.085 109.068)scale(.00402)"/><use xlink:href="#b" transform="rotate(-8.494 402.4 -266.336)scale(.00363)"/><use xlink:href="#b" transform="rotate(-92.22 49.418 7.837)scale(.00368)"/><use xlink:href="#b" transform="rotate(257.291 44.695 11.502)scale(.00379)"/><use xlink:href="#b" transform="rotate(49.4 -39.372 75.514)scale(.0036)"/><use xlink:href="#b" transform="rotate(232.482 35.765 18.291)scale(.00395)"/><use xlink:href="#b" transform="rotate(112.27 2.685 42.997)scale(.00287)"/><use xlink:href="#b" transform="rotate(164.207 17.696 31.727)scale(.00396)"/><use xlink:href="#b" transform="rotate(-43.093 93.045 -24.543)scale(.0027)"/><use xlink:href="#b" transform="rotate(256.17 43.464 12.299)scale(.00261)"/><use xlink:href="#b" transform="rotate(77.357 -13.985 54.685)scale(.00383)"/><use xlink:href="#b" transform="rotate(242.945 38.366 16.206)scale(.0039)"/><use xlink:href="#b" transform="rotate(166.734 17.646 31.141)scale(.00338)"/><use xlink:href="#b" transform="rotate(44.94 -47.546 77.982)scale(.00308)"/><use xlink:href="#b" transform="rotate(33.335 -73.673 96.336)scale(.00326)"/><use xlink:href="#b" transform="rotate(16.421 -174.877 167.813)scale(.00385)"/><use xlink:href="#b" transform="rotate(22.694 -120.27 128.16)scale(.00347)"/><use xlink:href="#b" transform="rotate(-5.641 593.63 -373.769)scale(.00325)"/><use xlink:href="#b" transform="rotate(208.961 27.45 23.675)scale(.00339)"/><use xlink:href="#b" transform="rotate(163.861 15.99 31.498)scale(.00281)"/><use xlink:href="#b" transform="rotate(175.017 18.705 29.627)scale(.00364)"/><use xlink:href="#b" transform="rotate(69.963 -20.533 56.362)scale(.00364)"/><use xlink:href="#b" transform="rotate(-79.046 53.843 5.627)scale(.00403)"/><use xlink:href="#b" transform="rotate(97.013 -5.565 45.593)scale(.00273)"/><use xlink:href="#b" transform="rotate(144.408 10.288 34.813)scale(.00293)"/><use xlink:href="#b" transform="rotate(204.916 25.488 24.53)scale(.0026)"/><use xlink:href="#b" transform="rotate(129.338 5.75 37.595)scale(.0027)"/><use xlink:href="#b" transform="rotate(-26.563 138.674 -50.038)scale(.00348)"/><use xlink:href="#b" transform="rotate(192.048 21.888 26.745)scale(.00262)"/><use xlink:href="#b" transform="rotate(243.868 36.439 17.21)scale(.00265)"/><use xlink:href="#b" transform="rotate(-61.343 66.335 -2.01)scale(.00359)"/><use xlink:href="#b" transform="rotate(213.097 26.986 23.348)scale(.00316)"/><use xlink:href="#b" transform="rotate(188.853 20.645 27.324)scale(.00289)"/><use xlink:href="#b" transform="rotate(-62.327 65.122 -1.013)scale(.00267)"/><use xlink:href="#b" transform="rotate(74.374 -18.963 52.237)scale(.0033)"/><use xlink:href="#b" transform="rotate(25.15 -108.697 108.225)scale(.00277)"/><use xlink:href="#b" transform="rotate(-79.49 52.029 7.49)scale(.00265)"/><use xlink:href="#b" transform="rotate(169.019 15.186 30.397)scale(.00275)"/><use xlink:href="#b" transform="rotate(62.68 -28.627 57.32)scale(.00289)"/><use xlink:href="#b" transform="rotate(57.552 -33.602 60.15)scale(.00387)"/><use xlink:href="#b" transform="rotate(117.247 .39 39.207)scale(.00377)"/><use xlink:href="#b" transform="rotate(208.412 24.571 24.438)scale(.00311)"/><use xlink:href="#b" transform="rotate(-71.864 56.32 5.362)scale(.00264)"/><use xlink:href="#b" transform="rotate(170.359 14.818 30.159)scale(.00317)"/><use xlink:href="#b" transform="rotate(-96.697 42.22 13.871)scale(.00275)"/><use xlink:href="#b" transform="rotate(83.832 -14.49 47.172)scale(.00323)"/><use xlink:href="#b" transform="rotate(35.089 -72.274 80.518)scale(.00401)"/><use xlink:href="#b" transform="rotate(-2.725 1206.121 -657.028)scale(.00266)"/><use xlink:href="#b" transform="rotate(-18.253 192.42 -71.799)scale(.00332)"/><use xlink:href="#b" transform="rotate(-92.794 43.37 13.537)scale(.0036)"/><use xlink:href="#b" transform="rotate(141.039 6.338 34.369)scale(.00314)"/><use xlink:href="#b" transform="rotate(244.897 34.18 18.81)scale(.00392)"/><use xlink:href="#b" transform="rotate(20.148 -142.984 116.747)scale(.00316)"/><use xlink:href="#b" transform="rotate(188.053 17.945 27.674)scale(.00343)"/><use xlink:href="#b" transform="rotate(11.687 -259.78 178.578)scale(.00377)"/><use xlink:href="#b" transform="rotate(176.769 14.85 29.14)scale(.00272)"/><use xlink:href="#b" transform="rotate(16.438 -180.127 133.595)scale(.00305)"/><use xlink:href="#b" transform="rotate(230.409 28.759 21.764)scale(.00391)"/><use xlink:href="#b" transform="rotate(25.361 -110.15 94.732)scale(.0035)"/><use xlink:href="#b" transform="rotate(-26.323 135.892 -34.105)scale(.00355)"/><use xlink:href="#b" transform="rotate(-63.879 60.38 5.26)scale(.00288)"/><use xlink:href="#b" transform="rotate(130.738 2.005 35.405)scale(.0036)"/><use xlink:href="#b" transform="rotate(-22.578 156.481 -43.39)scale(.00273)"/><use xlink:href="#b" transform="rotate(-37.055 98.925 -13.65)scale(.00355)"/><use xlink:href="#b" transform="rotate(176.223 13.609 29.201)scale(.00305)"/><use xlink:href="#b" transform="rotate(-29.978 120.008 -23.618)scale(.00297)"/><use xlink:href="#b" transform="rotate(134.728 2.504 34.52)scale(.0028)"/><use xlink:href="#b" transform="rotate(181.416 14.59 28.623)scale(.00379)"/><use xlink:href="#b" transform="rotate(-94.18 40.343 15.988)scale(.00265)"/><use xlink:href="#b" transform="rotate(187.071 15.72 27.928)scale(.0034)"/><use xlink:href="#b" transform="rotate(47.467 -50.42 59.225)scale(.00322)"/><use xlink:href="#b" transform="rotate(241.887 30.654 20.866)scale(.00381)"/><use xlink:href="#b" transform="rotate(36.012 -73.482 69.236)scale(.00276)"/><use xlink:href="#b" transform="rotate(-7.354 453.148 -174.013)scale(.00318)"/><use xlink:href="#b" transform="rotate(208.768 20.583 25.421)scale(.00304)"/><use xlink:href="#b" transform="rotate(9.18 -338.468 187.821)scale(.00346)"/><use xlink:href="#b" transform="rotate(-37.85 95.578 -8.323)scale(.00275)"/><use xlink:href="#b" transform="rotate(-11.836 285.819 -92.724)scale(.0028)"/><use xlink:href="#b" transform="rotate(-39.876 90.86 -5.743)scale(.00264)"/><use xlink:href="#b" transform="rotate(190.832 15.447 27.548)scale(.00287)"/><use xlink:href="#b" transform="rotate(230.05 25.872 23.124)scale(.00396)"/><use xlink:href="#b" transform="rotate(-51.73 70.814 3.776)scale(.00303)"/><use xlink:href="#b" transform="rotate(8.83 -353.724 183.983)scale(.00301)"/><use xlink:href="#b" transform="rotate(55.306 -41.565 51.344)scale(.00353)"/><use xlink:href="#b" transform="rotate(-11.209 300.485 -91.236)scale(.00264)"/><use xlink:href="#b" transform="rotate(194.066 15.54 27.31)scale(.00316)"/><use xlink:href="#b" transform="rotate(163.75 7.887 30.373)scale(.00295)"/><use xlink:href="#b" transform="rotate(240.223 28.211 22.234)scale(.00391)"/><use xlink:href="#b" transform="rotate(10.476 -295.98 150.813)scale(.0038)"/><use xlink:href="#b" transform="rotate(137.917 .698 33.036)scale(.00368)"/><use xlink:href="#b" transform="rotate(194.083 14.895 27.43)scale(.00361)"/><use xlink:href="#b" transform="rotate(145.593 2.464 32.068)scale(.00265)"/><use xlink:href="#b" transform="rotate(195.167 14.896 27.285)scale(.0028)"/><use xlink:href="#b" transform="rotate(15.472 -197.21 107.08)scale(.00277)"/><use xlink:href="#b" transform="rotate(88.752 -17.943 39.48)scale(.00316)"/><use xlink:href="#b" transform="rotate(215.257 19.814 25.53)scale(.00397)"/><use xlink:href="#b" transform="rotate(120.827 -5.41 34.545)scale(.00283)"/><use xlink:href="#b" transform="rotate(-43.743 80.894 3.627)scale(.00353)"/><use xlink:href="#b" transform="rotate(66.37 -32.831 44.038)scale(.00287)"/><use xlink:href="#b" transform="rotate(188.282 12.368 28.048)scale(.0034)"/><use xlink:href="#b" transform="rotate(233.668 24.478 23.82)scale(.00324)"/><use xlink:href="#b" transform="rotate(105.532 -11.321 36.072)scale(.00402)"/><use xlink:href="#b" transform="rotate(145.158 1.001 31.69)scale(.00263)"/><use xlink:href="#b" transform="rotate(-25.841 133.121 -12.359)scale(.00265)"/><use xlink:href="#b" transform="rotate(127.622 -4.155 33.32)scale(.00359)"/><use xlink:href="#b" transform="rotate(144.996 .703 31.656)scale(.00377)"/><use xlink:href="#b" transform="rotate(-22.451 151.984 -16.865)scale(.0026)"/><use xlink:href="#b" transform="rotate(-15.504 216.739 -36.386)scale(.00346)"/><use xlink:href="#b" transform="rotate(-84.503 40.304 19.075)scale(.00303)"/><use xlink:href="#b" transform="rotate(-46.41 74.992 8.564)scale(.00313)"/><use xlink:href="#b" transform="rotate(210.026 16.53 26.433)scale(.00292)"/><use xlink:href="#b" transform="rotate(214.636 17.644 26.063)scale(.00262)"/><use xlink:href="#b" transform="rotate(-84.602 39.815 19.526)scale(.00271)"/><use xlink:href="#b" transform="rotate(32.484 -88.511 57.053)scale(.00264)"/><use xlink:href="#b" transform="rotate(-5.424 605.378 -142.918)scale(.00296)"/><use xlink:href="#b" transform="rotate(172.711 6.624 29.244)scale(.00303)"/><use xlink:href="#b" transform="rotate(14.274 -217.715 92.055)scale(.0026)"/><use xlink:href="#b" transform="rotate(21.193 -142.936 70.455)scale(.0029)"/><use xlink:href="#b" transform="rotate(137.303 -2.979 31.722)scale(.00267)"/><use xlink:href="#b" transform="rotate(225.129 19.75 25.64)scale(.00354)"/><use xlink:href="#b" transform="rotate(113.839 -10.577 33.58)scale(.00277)"/><use xlink:href="#b" transform="rotate(257.014 30.249 22.845)scale(.00271)"/><use xlink:href="#b" transform="rotate(30.684 -95.2 54.994)scale(.00356)"/><use xlink:href="#b" transform="rotate(245.563 25.72 24.19)scale(.00326)"/><use xlink:href="#b" transform="rotate(-15.01 221.846 -24.093)scale(.00324)"/><use xlink:href="#b" transform="rotate(-54.597 62.08 15.343)scale(.0026)"/><use xlink:href="#b" transform="rotate(110.655 -12.302 33.421)scale(.00382)"/><use xlink:href="#b" transform="rotate(8.98 -352.93 112.92)scale(.00303)"/><use xlink:href="#b" transform="rotate(133.016 -5.391 31.55)scale(.00287)"/><use xlink:href="#b" transform="rotate(-36.98 91.153 9.957)scale(.00398)"/><use xlink:href="#b" transform="rotate(108.609 -13.69 33.209)scale(.00275)"/><use xlink:href="#b" transform="rotate(57.742 -44.742 39.86)scale(.00293)"/><use xlink:href="#b" transform="rotate(240.334 22.861 25.273)scale(.00332)"/><use xlink:href="#b" transform="rotate(164.123 2.42 29.617)scale(.00398)"/><use xlink:href="#b" transform="rotate(47.485 -58.017 41.733)scale(.00344)"/><use xlink:href="#b" transform="rotate(-53.333 62.321 17.526)scale(.00287)"/><use xlink:href="#b" transform="rotate(-91.139 33.61 23.408)scale(.00343)"/><use xlink:href="#b" transform="rotate(247.09 24.522 25.147)scale(.00283)"/><use xlink:href="#b" transform="rotate(-71.03 45.291 21.32)scale(.00281)"/><use xlink:href="#b" transform="rotate(-22.818 145.67 3.147)scale(.00293)"/><use xlink:href="#b" transform="rotate(33.802 -87.52 45.289)scale(.00321)"/><use xlink:href="#b" transform="rotate(131.207 -7.432 30.99)scale(.0037)"/><use xlink:href="#b" transform="rotate(-35.963 92.153 14.245)scale(.0037)"/><use xlink:href="#b" transform="rotate(246.772 23.678 25.626)scale(.00265)"/><use xlink:href="#b" transform="rotate(-91.23 32.597 24.399)scale(.00368)"/><use xlink:href="#b" transform="rotate(74.004 -32.72 34.573)scale(.00289)"/><use xlink:href="#b" transform="rotate(108.297 -15.667 31.839)scale(.0036)"/><use xlink:href="#b" transform="rotate(-78.448 39.153 23.798)scale(.00383)"/><use xlink:href="#b" transform="rotate(-44.01 74.334 18.88)scale(.00321)"/><use xlink:href="#b" transform="rotate(-81.984 36.801 24.346)scale(.00347)"/><use xlink:href="#b" transform="rotate(242.581 21.341 26.483)scale(.00324)"/><use xlink:href="#b" transform="rotate(-26.135 125.763 13.202)scale(.00322)"/><use xlink:href="#b" transform="rotate(193.405 7.268 28.39)scale(.00381)"/><use xlink:href="#b" transform="rotate(134.294 -8.087 30.177)scale(.00373)"/><use xlink:href="#b" transform="rotate(83.943 -27.813 32.31)scale(.0029)"/><use xlink:href="#b" transform="rotate(132.345 -8.927 30.123)scale(.0035)"/><use xlink:href="#b" transform="rotate(60.495 -45.137 33.848)scale(.00277)"/><use xlink:href="#b" transform="rotate(31.77 -96.05 38.801)scale(.00304)"/><use xlink:href="#b" transform="rotate(123.17 -12.157 30.213)scale(.00275)"/><use xlink:href="#b" transform="rotate(199.657 7.98 28.344)scale(.00378)"/><use xlink:href="#b" transform="rotate(186.169 4.444 28.612)scale(.0032)"/><use xlink:href="#b" transform="rotate(-63.073 48.838 24.897)scale(.00321)"/><use xlink:href="#b" transform="rotate(-37.267 86.38 22.26)scale(.00368)"/><use xlink:href="#b" transform="rotate(128.595 -11.029 29.772)scale(.00358)"/><use xlink:href="#b" transform="rotate(246.285 20.85 27.391)scale(.00266)"/><use xlink:href="#b" transform="rotate(183.646 3.234 28.748)scale(.00396)"/><use xlink:href="#b" transform="rotate(227.114 14.46 27.954)scale(.0028)"/><use xlink:href="#b" transform="rotate(210.814 9.826 28.3)scale(.00316)"/><use xlink:href="#b" transform="rotate(-86.132 32.142 27.192)scale(.0034)"/><use xlink:href="#b" transform="rotate(-68.546 43.212 26.882)scale(.00381)"/><use xlink:href="#b" transform="rotate(107.375 -19.17 29.63)scale(.0027)"/><use xlink:href="#b" transform="rotate(187.515 3.4 28.674)scale(.0032)"/><use xlink:href="#b" transform="rotate(240.925 18.04 28.197)scale(.00344)"/><use xlink:href="#b" transform="rotate(130.64 -11.629 29.168)scale(.00395)"/><use xlink:href="#b" transform="rotate(61.99 -45.926 29.934)scale(.003)"/><use xlink:href="#b" transform="rotate(-85.26 31.704 28.175)scale(.0036)"/><use xlink:href="#b" transform="rotate(166.804 -2.335 28.85)scale(.00396)"/><use xlink:href="#b" transform="rotate(-93.157 27.484 28.402)scale(.00283)"/><use xlink:href="#b" transform="rotate(149.216 -6.982 28.76)scale(.00377)"/><use xlink:href="#b" transform="rotate(229.121 13.516 28.358)scale(.00288)"/><use xlink:href="#b" transform="rotate(85.95 -29.303 28.714)scale(.00283)"/><use xlink:href="#b" transform="rotate(-66.72 42.885 27.999)scale(.004)"/><use xlink:href="#b" transform="rotate(-6.612 479.213 23.412)scale(.00332)"/><use xlink:href="#b" transform="rotate(175.684 -.26 28.074)scale(.00402)"/><use xlink:href="#b" transform="rotate(-59.547 48.53 27.427)scale(.00351)"/><use xlink:href="#b" transform="rotate(87.48 -27.703 28.023)scale(.00344)"/><use xlink:href="#b" transform="rotate(215.171 9.326 27.547)scale(.00365)"/><use xlink:href="#b" transform="rotate(-88.65 28.308 27.252)scale(.00383)"/><use xlink:href="#b" transform="rotate(-15.818 193.559 25.478)scale(.00356)"/><use xlink:href="#b" transform="rotate(-17.666 171.984 25.774)scale(.00403)"/><use xlink:href="#b" transform="rotate(1.4 -2168.52 48.977)scale(.0034)"/><use xlink:href="#b" transform="rotate(12.503 -240.598 29.651)scale(.00288)"/><use xlink:href="#b" transform="rotate(77.432 -32.18 27.152)scale(.00267)"/><use xlink:href="#b" transform="rotate(54.929 -49.674 27.228)scale(.00318)"/><use xlink:href="#b" transform="rotate(222.137 10.742 26.404)scale(.0026)"/><use xlink:href="#b" transform="rotate(28.383 -102.111 27.643)scale(.0029)"/><use xlink:href="#b" transform="rotate(139.089 -8.962 26.447)scale(.00287)"/><use xlink:href="#b" transform="rotate(219.936 10.09 26.184)scale(.00372)"/><use xlink:href="#b" transform="rotate(239.412 15.324 25.914)scale(.00292)"/><use xlink:href="#b" transform="rotate(-19.61 148.2 24.397)scale(.00329)"/><use xlink:href="#b" transform="rotate(-97.305 23.045 25.61)scale(.00315)"/><use xlink:href="#b" transform="rotate(221.848 10.396 25.702)scale(.00397)"/><use xlink:href="#b" transform="rotate(154.309 -4.962 25.679)scale(.00368)"/><use xlink:href="#b" transform="rotate(170.385 -1.393 25.47)scale(.00305)"/><use xlink:href="#b" transform="rotate(101.648 -19.418 25.57)scale(.00394)"/><use xlink:href="#b" transform="rotate(12.281 -228.728 27.766)scale(.00328)"/><use xlink:href="#b" transform="rotate(32.33 -83.864 25.959)scale(.00364)"/><use xlink:href="#b" transform="rotate(-28.526 96.773 23.861)scale(.00335)"/><use xlink:href="#b" transform="rotate(216.117 8.636 24.693)scale(.00306)"/><use xlink:href="#b" transform="rotate(180.436 .816 24.684)scale(.0033)"/><use xlink:href="#b" transform="rotate(252.075 18.222 24.378)scale(.00347)"/><use xlink:href="#b" transform="rotate(252.983 18.417 24.22)scale(.00327)"/><use xlink:href="#b" transform="rotate(161.831 -3.104 24.333)scale(.00301)"/><use xlink:href="#b" transform="rotate(113.835 -14.742 24.362)scale(.00298)"/><use xlink:href="#b" transform="rotate(-26.264 101.96 22.662)scale(.00264)"/><use xlink:href="#b" transform="rotate(134.158 -9.186 24.093)scale(.0034)"/><use xlink:href="#b" transform="rotate(-23.25 114.2 22.453)scale(.00317)"/><use xlink:href="#b" transform="rotate(111.88 -14.917 23.914)scale(.00368)"/><use xlink:href="#b" transform="rotate(100.875 -18.269 23.811)scale(.00377)"/><use xlink:href="#b" transform="rotate(52.528 -45.765 24.004)scale(.00322)"/><use xlink:href="#b" transform="rotate(-67.339 34.942 22.945)scale(.00356)"/><use xlink:href="#b" transform="rotate(-90.58 23.173 22.882)scale(.00309)"/><use xlink:href="#b" transform="rotate(48.16 -49.53 23.609)scale(.00405)"/><use xlink:href="#b" transform="rotate(146.838 -6.01 22.965)scale(.00263)"/><use xlink:href="#b" transform="rotate(126.001 -10.718 22.932)scale(.0026)"/><use xlink:href="#b" transform="rotate(73.998 -28.664 23.062)scale(.00367)"/><use xlink:href="#b" transform="rotate(20.67 -120.432 24.182)scale(.00297)"/><use xlink:href="#b" transform="rotate(48.175 -48.182 23.01)scale(.00395)"/><use xlink:href="#b" transform="rotate(-95.389 20.57 21.998)scale(.00283)"/><use xlink:href="#b" transform="rotate(-39.192 61.69 21.368)scale(.00308)"/><use xlink:href="#b" transform="rotate(209.323 6.367 22.007)scale(.00328)"/><use xlink:href="#b" transform="rotate(-29.312 82.669 20.961)scale(.00349)"/><use xlink:href="#b" transform="rotate(220.757 8.635 21.701)scale(.00308)"/><use xlink:href="#b" transform="rotate(4.117 -589.664 29.861)scale(.00303)"/><use xlink:href="#b" transform="rotate(51.758 -42.824 22.186)scale(.00294)"/><use xlink:href="#b" transform="rotate(251.419 15.797 21.251)scale(.00304)"/><use xlink:href="#b" transform="rotate(13.304 -178.08 23.725)scale(.0033)"/><use xlink:href="#b" transform="rotate(149.864 -4.884 21.297)scale(.003)"/><use xlink:href="#b" transform="rotate(7.068 -332.826 25.458)scale(.00342)"/><use xlink:href="#b" transform="rotate(209.819 6.18 20.923)scale(.00337)"/><use xlink:href="#b" transform="rotate(49.45 -43.315 21.409)scale(.00388)"/><use xlink:href="#b" transform="rotate(132.816 -8.1 20.835)scale(.00329)"/><use xlink:href="#b" transform="rotate(119.835 -10.947 20.743)scale(.00298)"/><use xlink:href="#b" transform="rotate(178.838 .479 20.443)scale(.00268)"/><use xlink:href="#b" transform="rotate(-3.777 602.977 12.154)scale(.00336)"/><use xlink:href="#b" transform="rotate(-55.729 37.977 19.855)scale(.004)"/><use xlink:href="#b" transform="rotate(17.011 -130.626 22.157)scale(.00274)"/><use xlink:href="#b" transform="rotate(35.54 -59.848 20.76)scale(.00387)"/><use xlink:href="#b" transform="rotate(206.412 5.289 19.822)scale(.0039)"/><use xlink:href="#b" transform="matrix(0 .00378 -.00378 0 1.584 38.343)"/><use xlink:href="#b" transform="rotate(9.856 -219.516 22.389)scale(.00378)"/><use xlink:href="#b" transform="rotate(213.451 6.41 19.336)scale(.00348)"/><use xlink:href="#b" transform="rotate(255.927 15.367 19.001)scale(.0028)"/><use xlink:href="#b" transform="rotate(228.866 9.214 19.09)scale(.00387)"/><use xlink:href="#b" transform="rotate(126.86 -8.608 19.14)scale(.00264)"/><use xlink:href="#b" transform="rotate(53.32 -35.941 19.466)scale(.00329)"/><use xlink:href="#b" transform="rotate(90.249 -17.362 19.059)scale(.004)"/><use xlink:href="#b" transform="rotate(183.812 1.344 18.644)scale(.00355)"/><use xlink:href="#b" transform="rotate(103.512 -13.455 18.72)scale(.00332)"/><use xlink:href="#b" transform="rotate(-17.481 117.09 16.45)scale(.00303)"/><use xlink:href="#b" transform="rotate(-69.956 26.105 17.854)scale(.00321)"/><use xlink:href="#b" transform="rotate(-37.322 53.036 17.193)scale(.0028)"/><use xlink:href="#b" transform="rotate(199.171 3.673 17.971)scale(.00308)"/><use xlink:href="#b" transform="rotate(110.689 -11.34 18.103)scale(.00305)"/><use xlink:href="#b" transform="matrix(.00362 0 0 .00362 .506 34.517)"/><use xlink:href="#b" transform="rotate(-5.134 382.105 12.436)scale(.00388)"/><use xlink:href="#b" transform="rotate(87.44 -17.086 17.803)scale(.00313)"/><use xlink:href="#b" transform="rotate(64.954 -25.638 17.79)scale(.00405)"/><use xlink:href="#b" transform="rotate(55.072 -31.427 17.786)scale(.00305)"/><use xlink:href="#b" transform="rotate(183.928 1.262 17.083)scale(.0028)"/><use xlink:href="#b" transform="rotate(248.705 12.006 16.776)scale(.0028)"/><use xlink:href="#b" transform="rotate(186.1 1.584 16.88)scale(.00306)"/><use xlink:href="#b" transform="rotate(163.804 -1.63 16.81)scale(.00284)"/><use xlink:href="#b" transform="rotate(259.198 14.11 16.418)scale(.00296)"/><use xlink:href="#b" transform="rotate(41.925 -41.301 17.328)scale(.00299)"/><use xlink:href="#b" transform="rotate(26.486 -67.066 17.639)scale(.00325)"/><use xlink:href="#b" transform="rotate(81.634 -17.573 16.65)scale(.00343)"/><use xlink:href="#b" transform="rotate(-86.393 17.458 15.835)scale(.00273)"/><use xlink:href="#b" transform="rotate(105.342 -11.098 16.312)scale(.00376)"/><use xlink:href="#b" transform="rotate(188.524 1.904 15.964)scale(.00376)"/><use xlink:href="#b" transform="rotate(15.379 -112.568 17.824)scale(.00336)"/><use xlink:href="#b" transform="rotate(117.306 -8.575 15.845)scale(.00286)"/><use xlink:href="#b" transform="rotate(242.947 9.941 15.343)scale(.00266)"/><use xlink:href="#b" transform="rotate(206.659 4.25 15.375)scale(.00285)"/><use xlink:href="#b" transform="rotate(-85.254 16.872 15.041)scale(.00311)"/><use xlink:href="#b" transform="rotate(-90.528 15.323 14.99)scale(.00343)"/><use xlink:href="#b" transform="rotate(99.748 -11.65 15.348)scale(.00288)"/><use xlink:href="#b" transform="rotate(-37.263 43.662 14.262)scale(.00358)"/><use xlink:href="#b" transform="rotate(95.321 -12.441 15.123)scale(.00278)"/><use xlink:href="#b" transform="rotate(226.225 6.82 14.684)scale(.00374)"/><use xlink:href="#b" transform="rotate(125.157 -6.56 14.772)scale(.00362)"/><use xlink:href="#b" transform="rotate(77.224 -16.888 14.845)scale(.0027)"/><use xlink:href="#b" transform="rotate(40.799 -36.458 15.076)scale(.00366)"/><use xlink:href="#b" transform="rotate(-64.906 22.27 13.905)scale(.00388)"/><use xlink:href="#b" transform="rotate(-2.329 667.619 1.596)scale(.0036)"/><use xlink:href="#b" transform="rotate(-97.048 12.622 13.633)scale(.00263)"/><use xlink:href="#b" transform="rotate(244.852 9.202 13.661)scale(.0031)"/><use xlink:href="#b" transform="rotate(-18.722 81.193 11.86)scale(.00286)"/><use xlink:href="#b" transform="rotate(-81.94 15.816 13.363)scale(.00368)"/><use xlink:href="#b" transform="rotate(54.594 -24.579 14.067)scale(.0027)"/><use xlink:href="#b" transform="rotate(146.195 -3.245 13.447)scale(.00272)"/><use xlink:href="#b" transform="rotate(35.761 -38.98 14.183)scale(.00299)"/><use xlink:href="#b" transform="rotate(-87.75 13.872 12.957)scale(.00388)"/><use xlink:href="#b" transform="rotate(134.188 -4.6 13.126)scale(.00295)"/><use xlink:href="#b" transform="rotate(7.593 -186.55 17.338)scale(.00301)"/><use xlink:href="#b" transform="rotate(118.903 -6.444 12.967)scale(.00395)"/><use xlink:href="#b" transform="rotate(106.175 -8.485 12.845)scale(.00262)"/><use xlink:href="#b" transform="rotate(3.7 -371.778 21.071)scale(.0033)"/><use xlink:href="#b" transform="rotate(-64.86 19.467 11.982)scale(.0033)"/><use xlink:href="#b" transform="rotate(70.35 -15.901 12.665)scale(.00375)"/><use xlink:href="#b" transform="rotate(178.705 .618 12.172)scale(.00365)"/><use xlink:href="#b" transform="rotate(7.788 -169.229 16.689)scale(.00263)"/><use xlink:href="#b" transform="rotate(-87.492 12.642 11.592)scale(.00307)"/><use xlink:href="#b" transform="rotate(-70.806 16.637 11.318)scale(.00274)"/><use xlink:href="#b" transform="rotate(-85.568 12.813 11.35)scale(.003)"/><use xlink:href="#b" transform="rotate(185.385 1.285 11.599)scale(.00393)"/><use xlink:href="#b" transform="rotate(93.205 -9.64 11.686)scale(.00302)"/><use xlink:href="#b" transform="rotate(-37.862 32.337 10.353)scale(.0027)"/><use xlink:href="#b" transform="rotate(-51.255 22.945 10.746)scale(.00388)"/><use xlink:href="#b" transform="rotate(103.595 -7.645 11.272)scale(.00283)"/><use xlink:href="#b" transform="rotate(-97.261 9.922 10.686)scale(.00312)"/><use xlink:href="#b" transform="rotate(254.543 8.579 10.633)scale(.0034)"/><use xlink:href="#b" transform="rotate(-41.088 27.996 9.871)scale(.0029)"/><use xlink:href="#b" transform="rotate(-26.98 42.983 9.205)scale(.0026)"/><use xlink:href="#b" transform="rotate(-10.991 105.1 7.116)scale(.00263)"/><use xlink:href="#b" transform="rotate(80.314 -11.092 10.73)scale(.00272)"/><use xlink:href="#b" transform="rotate(157.297 -1.286 10.318)scale(.00276)"/><use xlink:href="#b" transform="rotate(101.914 -7.222 10.404)scale(.0026)"/><use xlink:href="#b" transform="rotate(75.936 -11.66 10.453)scale(.00269)"/><use xlink:href="#b" transform="rotate(90.402 -8.612 10.25)scale(.00372)"/><use xlink:href="#b" transform="rotate(134.566 -3.211 9.945)scale(.00302)"/><use xlink:href="#b" transform="rotate(122.803 -4.236 9.884)scale(.00382)"/><use xlink:href="#b" transform="rotate(61.397 -14.585 10.05)scale(.00314)"/><use xlink:href="#b" transform="rotate(235.672 5.46 9.365)scale(.00386)"/><use xlink:href="#b" transform="rotate(10.167 -97.416 11.917)scale(.004)"/><use xlink:href="#b" transform="rotate(66.521 -12.594 9.606)scale(.00269)"/><use xlink:href="#b" transform="rotate(-38.161 25.409 8.289)scale(.00341)"/><use xlink:href="#b" transform="rotate(-94.392 8.522 8.653)scale(.00315)"/><use xlink:href="#b" transform="rotate(143.276 -2.03 8.897)scale(.0033)"/><use xlink:href="#b" transform="rotate(254.294 6.913 8.495)scale(.00352)"/><use xlink:href="#b" transform="rotate(-41.888 21.62 7.958)scale(.00386)"/><use xlink:href="#b" transform="rotate(-91.232 8.452 8.102)scale(.00308)"/><use xlink:href="#b" transform="rotate(246.918 5.86 8.057)scale(.0029)"/><use xlink:href="#b" transform="rotate(13.546 -63.161 10.123)scale(.00401)"/><use xlink:href="#b" transform="rotate(188.418 1.257 7.977)scale(.00297)"/><use xlink:href="#b" transform="rotate(.467 -1827.943 85.939)scale(.00267)"/><use xlink:href="#b" transform="rotate(230.143 4.143 7.698)scale(.00356)"/><use xlink:href="#b" transform="rotate(100.469 -5.213 7.897)scale(.00343)"/><use xlink:href="#b" transform="rotate(243.294 5.058 7.386)scale(.00348)"/><use xlink:href="#b" transform="rotate(-79.448 9.03 7.049)scale(.00313)"/><use xlink:href="#b" transform="rotate(106.698 -4.354 7.488)scale(.00303)"/><use xlink:href="#b" transform="rotate(154.766 -.774 7.228)scale(.00322)"/><use xlink:href="#b" transform="rotate(-59.174 12.31 6.438)scale(.0026)"/><use xlink:href="#b" transform="rotate(9.512 -76.679 10.27)scale(.00329)"/><use xlink:href="#b" transform="rotate(232.977 3.867 6.669)scale(.00312)"/><use xlink:href="#b" transform="rotate(91.775 -5.281 6.97)scale(.0033)"/><use xlink:href="#b" transform="rotate(34.926 -18.767 7.539)scale(.00276)"/><use xlink:href="#b" transform="rotate(.497 -1386.507 78.927)scale(.00273)"/><use xlink:href="#b" transform="rotate(208.79 2.209 6.264)scale(.00285)"/><use xlink:href="#b" transform="rotate(105.738 -3.725 6.464)scale(.00262)"/><use xlink:href="#b" transform="rotate(73.283 -6.96 6.545)scale(.00285)"/><use xlink:href="#b" transform="rotate(-75.98 7.858 5.6)scale(.00262)"/><use xlink:href="#b" transform="rotate(78.728 -5.982 6.297)scale(.0029)"/><use xlink:href="#b" transform="rotate(236.084 3.574 5.75)scale(.0039)"/><use xlink:href="#b" transform="rotate(97.8 -3.725 5.932)scale(.00377)"/><use xlink:href="#b" transform="rotate(180.107 .683 5.508)scale(.00262)"/><use xlink:href="#b" transform="rotate(-26.728 21.743 4.055)scale(.00262)"/><use xlink:href="#b" transform="rotate(11.084 -49.293 8.275)scale(.00316)"/><use xlink:href="#b" transform="rotate(-47.494 11.444 4.61)scale(.00334)"/><use xlink:href="#b" transform="rotate(85.458 -4.172 5.392)scale(.00373)"/><use xlink:href="#b" transform="rotate(-63.631 7.867 4.571)scale(.00364)"/><use xlink:href="#b" transform="rotate(136.667 -1.025 4.919)scale(.00295)"/><use xlink:href="#b" transform="rotate(177.312 .622 4.71)scale(.00324)"/><use xlink:href="#b" transform="rotate(246.696 3.403 4.334)scale(.00263)"/><use xlink:href="#b" transform="rotate(222.876 2.285 4.376)scale(.0033)"/><use xlink:href="#b" transform="rotate(128.535 -1.159 4.484)scale(.00305)"/><use xlink:href="#b" transform="rotate(-71.712 5.918 3.79)scale(.00284)"/><use xlink:href="#b" transform="rotate(29.184 -13.305 5.242)scale(.00305)"/><use xlink:href="#b" transform="rotate(27.647 -13.418 5.083)scale(.00354)"/><use xlink:href="#b" transform="rotate(132.072 -.828 3.99)scale(.00282)"/><use xlink:href="#b" transform="rotate(-50.975 7.49 3.322)scale(.00392)"/><use xlink:href="#b" transform="rotate(-71.36 5.058 3.254)scale(.00338)"/><use xlink:href="#b" transform="rotate(63.305 -4.132 3.946)scale(.00325)"/><use xlink:href="#b" transform="rotate(150.831 -.023 3.443)scale(.00328)"/><use xlink:href="#b" transform="rotate(243.55 2.417 3.038)scale(.0029)"/><use xlink:href="#b" transform="rotate(-57.251 5.586 2.552)scale(.00286)"/><use xlink:href="#b" transform="rotate(92.851 -1.555 3.285)scale(.00403)"/><use xlink:href="#b" transform="rotate(123.215 -.535 3.026)scale(.00346)"/><use xlink:href="#b" transform="rotate(153.841 .165 2.787)scale(.00285)"/><use xlink:href="#b" transform="rotate(95.364 -1.155 2.883)scale(.00365)"/><use xlink:href="#b" transform="rotate(255.271 2.257 2.246)scale(.00297)"/><use xlink:href="#b" transform="rotate(160.739 .371 2.408)scale(.00288)"/><use xlink:href="#b" transform="rotate(182.931 .778 2.272)scale(.00342)"/><use xlink:href="#b" transform="rotate(8.58 -21.943 6.387)scale(.00262)"/><use xlink:href="#b" transform="rotate(190.682 .883 2.032)scale(.00356)"/><use xlink:href="#b" transform="rotate(-71.177 2.699 1.466)scale(.00294)"/><use xlink:href="#b" transform="rotate(59.007 -1.394 2.24)scale(.00393)"/><use xlink:href="#b" transform="rotate(6.568 -17.754 5.613)scale(.00404)"/><use xlink:href="#b" transform="rotate(10.736 -10.41 4.85)scale(.00266)"/><use xlink:href="#b" transform="rotate(257.356 1.423 1.238)scale(.00392)"/><use xlink:href="#b" transform="rotate(94.636 .146 1.49)scale(.0039)"/><use xlink:href="#b" transform="rotate(254.376 1.165 .897)scale(.00345)"/><use xlink:href="#b" transform="rotate(-71.442 1.323 .639)scale(.00371)"/><use xlink:href="#b" transform="rotate(-23.944 2.363 -.662)scale(.00282)"/><use xlink:href="#b" transform="rotate(216.951 .808 .61)scale(.00263)"/><use xlink:href="#b" transform="rotate(32.663 -.144 2.077)scale(.00402)"/><use xlink:href="#b" transform="rotate(26.426 -1.1 3.073)scale(.00304)"/><use xlink:href="#b" transform="rotate(-30.905 3.057 -1.189)scale(.00267)"/><use xlink:href="#b" transform="rotate(172.728 1.052 1.162)scale(.00332)"/><use xlink:href="#b" transform="rotate(196.606 1.292 1.117)scale(.00345)"/><use xlink:href="#b" transform="rotate(-12.094 9.021 -6.777)scale(.00278)"/><use xlink:href="#b" transform="rotate(156.444 1.199 1.591)scale(.00365)"/><use xlink:href="#b" transform="rotate(49.326 -.698 3.649)scale(.00312)"/><use xlink:href="#b" transform="rotate(185.681 1.585 1.51)scale(.00336)"/><use xlink:href="#b" transform="rotate(96.886 .66 2.703)scale(.00368)"/><use xlink:href="#b" transform="rotate(-94.675 2.873 .659)scale(.00387)"/><use xlink:href="#b" transform="rotate(-6.748 25.184 -22.03)scale(.00272)"/><use xlink:href="#b" transform="rotate(-53.589 4.71 -.974)scale(.00312)"/><use xlink:href="#b" transform="rotate(76.514 .17 3.964)scale(.00388)"/><use xlink:href="#b" transform="rotate(-13.81 15.202 -11.221)scale(.00361)"/><use xlink:href="#b" transform="rotate(200.54 2.509 1.924)scale(.00356)"/><use xlink:href="#b" transform="rotate(207.684 2.762 1.922)scale(.00391)"/><use xlink:href="#b" transform="rotate(236.786 3.441 1.44)scale(.0039)"/><use xlink:href="#b" transform="rotate(-23.453 12.236 -7.413)scale(.003)"/><use xlink:href="#b" transform="rotate(-78.537 5.126 -.003)scale(.00324)"/><use xlink:href="#b" transform="rotate(137.187 1.801 3.551)scale(.00328)"/><use xlink:href="#b" transform="rotate(-27.963 11.756 -6.286)scale(.00382)"/><use xlink:href="#b" transform="rotate(-24.832 13.614 -8.028)scale(.00327)"/><use xlink:href="#b" transform="rotate(156.099 2.405 3.484)scale(.00318)"/><use xlink:href="#b" transform="rotate(202.146 3.56 2.607)scale(.00387)"/><use xlink:href="#b" transform="rotate(-50.456 8.723 -2.44)scale(.00371)"/><use xlink:href="#b" transform="rotate(134.833 2.11 4.429)scale(.00355)"/><use xlink:href="#b" transform="rotate(104.875 1.06 5.533)scale(.00271)"/><use xlink:href="#b" transform="rotate(93.713 .717 6.202)scale(.00369)"/><use xlink:href="#b" transform="rotate(41.744 -4.408 11.511)scale(.00332)"/><use xlink:href="#b" transform="rotate(212.007 4.487 2.736)scale(.0035)"/><use xlink:href="#b" transform="rotate(44.093 -4.063 11.653)scale(.00396)"/><use xlink:href="#b" transform="rotate(-87.864 7.214 .326)scale(.00312)"/><use xlink:href="#b" transform="rotate(-6.665 62.722 -55.48)scale(.00267)"/><use xlink:href="#b" transform="rotate(163.344 3.464 4.51)scale(.00363)"/><use xlink:href="#b" transform="rotate(60.402 -2.161 10.238)scale(.00286)"/><use xlink:href="#b" transform="rotate(170.438 3.773 4.414)scale(.00285)"/><use xlink:href="#b" transform="rotate(154.952 3.312 5.009)scale(.00272)"/><use xlink:href="#b" transform="rotate(137.866 2.871 5.809)scale(.0039)"/><use xlink:href="#b" transform="rotate(-63.921 10.621 -1.987)scale(.00273)"/><use xlink:href="#b" transform="rotate(-98.214 7.883 1.035)scale(.00345)"/><use xlink:href="#b" transform="rotate(249.907 7.379 1.724)scale(.00341)"/><use xlink:href="#b" transform="rotate(96.22 .946 8.42)scale(.00358)"/><use xlink:href="#b" transform="rotate(-85.763 9.304 .21)scale(.0037)"/><use xlink:href="#b" transform="rotate(247.647 7.741 1.934)scale(.00338)"/><use xlink:href="#b" transform="rotate(250.232 8.031 1.782)scale(.00312)"/><use xlink:href="#b" transform="rotate(201.182 5.814 4.133)scale(.00283)"/><use xlink:href="#b" transform="rotate(-55.822 13.784 -3.76)scale(.00263)"/><use xlink:href="#b" transform="rotate(-1.362 399.022 -391.118)scale(.00311)"/><use xlink:href="#b" transform="rotate(40.3 -7.81 18.317)scale(.00295)"/><use xlink:href="#b" transform="rotate(-65.818 12.767 -2.046)scale(.00402)"/><use xlink:href="#b" transform="rotate(-76.59 11.676 -.957)scale(.0026)"/><use xlink:href="#b" transform="rotate(-15.2 42.976 -32.173)scale(.00347)"/><use xlink:href="#b" transform="rotate(10.815 -48.004 59.64)scale(.00375)"/><use xlink:href="#b" transform="rotate(16.878 -29.191 40.891)scale(.00372)"/><use xlink:href="#b" transform="rotate(258.944 10.172 1.502)scale(.0039)"/><use xlink:href="#b" transform="rotate(158.821 4.912 6.966)scale(.00365)"/><use xlink:href="#b" transform="rotate(91.482 .637 11.421)scale(.00342)"/><use xlink:href="#b" transform="rotate(124.82 3.104 9.027)scale(.00287)"/><use xlink:href="#b" transform="rotate(220.45 8.27 4.123)scale(.00364)"/><use xlink:href="#b" transform="rotate(33.461 -13.134 25.658)scale(.00272)"/><use xlink:href="#b" transform="rotate(-66.127 15.321 -2.73)scale(.00298)"/><use xlink:href="#b" transform="rotate(6.325 -100.98 114.36)scale(.00326)"/><use xlink:href="#b" transform="rotate(238.385 9.868 3.17)scale(.00348)"/><use xlink:href="#b" transform="rotate(164.173 5.69 7.427)scale(.00272)"/><use xlink:href="#b" transform="rotate(225.993 9.28 4.038)scale(.00313)"/><use xlink:href="#b" transform="rotate(177.742 6.598 6.873)scale(.00297)"/><use xlink:href="#b" transform="rotate(156.316 5.518 8.214)scale(.00352)"/><use xlink:href="#b" transform="rotate(86.592 .18 13.846)scale(.00394)"/><use xlink:href="#b" transform="rotate(36.847 -12.698 26.832)scale(.00307)"/><use xlink:href="#b" transform="rotate(173.226 6.731 7.549)scale(.00343)"/><use xlink:href="#b" transform="rotate(189.157 7.795 6.758)scale(.00397)"/><use xlink:href="#b" transform="rotate(132.734 4.27 10.314)scale(.00282)"/><use xlink:href="#b" transform="rotate(-7.36 115.135 -100.808)scale(.00294)"/><use xlink:href="#b" transform="rotate(98.34 1.477 13.577)scale(.00365)"/><use xlink:href="#b" transform="rotate(-85.38 15.25 -.101)scale(.00342)"/><use xlink:href="#b" transform="rotate(-1.45 572.572 -559.886)scale(.0038)"/><use xlink:href="#b" transform="rotate(221.084 10.473 5.02)scale(.00303)"/><use xlink:href="#b" transform="rotate(68.56 -2.909 18.721)scale(.00359)"/><use xlink:href="#b" transform="rotate(218.681 10.578 5.379)scale(.00365)"/><use xlink:href="#b" transform="rotate(152.176 6.148 9.933)scale(.00312)"/><use xlink:href="#b" transform="rotate(-23.167 45.243 -29.026)scale(.00401)"/><use xlink:href="#b" transform="rotate(94.759 1.061 15.409)scale(.00304)"/><use xlink:href="#b" transform="rotate(.79 -1130.63 1151.199)scale(.003)"/><use xlink:href="#b" transform="rotate(214.235 10.846 6.005)scale(.00357)"/><use xlink:href="#b" transform="rotate(-42.607 28.972 -11.94)scale(.00398)"/><use xlink:href="#b" transform="rotate(83.594 -.513 17.732)scale(.0031)"/><use xlink:href="#b" transform="rotate(105.27 2.468 15.013)scale(.00368)"/><use xlink:href="#b" transform="rotate(-84.27 17.953 -.393)scale(.00334)"/><use xlink:href="#b" transform="rotate(177.276 8.673 9.103)scale(.00334)"/><use xlink:href="#b" transform="rotate(28.944 -23.673 41.877)scale(.00397)"/><use xlink:href="#b" transform="rotate(-23.067 51.119 -33.09)scale(.00341)"/><use xlink:href="#b" transform="rotate(-92.986 17.393 .91)scale(.00322)"/><use xlink:href="#b" transform="rotate(166.586 8.16 10.259)scale(.0027)"/><use xlink:href="#b" transform="rotate(249.347 15.44 3.245)scale(.00355)"/><use xlink:href="#b" transform="rotate(56.833 -7.077 26.008)scale(.0034)"/><use xlink:href="#b" transform="rotate(74.048 -2.369 21.551)scale(.00386)"/><use xlink:href="#b" transform="rotate(44.17 -12.788 32.193)scale(.00373)"/><use xlink:href="#b" transform="rotate(15.763 -57.088 76.7)scale(.00307)"/><use xlink:href="#b" transform="rotate(67.269 -4.301 23.861)scale(.00277)"/><use xlink:href="#b" transform="rotate(-34.476 40.15 -20.518)scale(.00306)"/><use xlink:href="#b" transform="rotate(100.511 2.022 17.86)scale(.00291)"/><use xlink:href="#b" transform="rotate(3.66 -289.286 310.22)scale(.0031)"/><use xlink:href="#b" transform="rotate(224.715 14.109 6.242)scale(.00396)"/><use xlink:href="#b" transform="rotate(160.512 8.534 11.915)scale(.00318)"/><use xlink:href="#b" transform="rotate(151.903 7.867 12.817)scale(.00353)"/><use xlink:href="#b" transform="rotate(25.734 -32.799 53.89)scale(.00393)"/><use xlink:href="#b" transform="rotate(106.09 2.873 18.065)scale(.00261)"/><use xlink:href="#b" transform="rotate(96.218 1.471 19.673)scale(.00295)"/><use xlink:href="#b" transform="rotate(60.028 -6.857 28.348)scale(.00383)"/><use xlink:href="#b" transform="rotate(3.367 -339.531 361.97)scale(.00303)"/><use xlink:href="#b" transform="rotate(217.694 14.34 7.26)scale(.00272)"/><use xlink:href="#b" transform="rotate(125.157 5.43 16.334)scale(.0027)"/><use xlink:href="#b" transform="rotate(-71.49 25.578 -3.526)scale(.00388)"/><use xlink:href="#b" transform="rotate(-53.026 32.381 -10.304)scale(.00283)"/><use xlink:href="#b" transform="rotate(84.55 -.479 23.006)scale(.00403)"/><use xlink:href="#b" transform="rotate(-19.205 75.247 -52.91)scale(.00275)"/><use xlink:href="#b" transform="rotate(217.108 15.036 7.79)scale(.00395)"/><use xlink:href="#b" transform="rotate(211.515 14.533 8.348)scale(.003)"/><use xlink:href="#b" transform="rotate(-42.304 40.157 -17.212)scale(.00277)"/><use xlink:href="#b" transform="rotate(10.858 -105.508 129.078)scale(.0033)"/><use xlink:href="#b" transform="rotate(-42.898 40.285 -16.979)scale(.00298)"/><use xlink:href="#b" transform="rotate(78.612 -2.003 25.654)scale(.00343)"/><use xlink:href="#b" transform="rotate(209.155 14.872 8.99)scale(.00386)"/><use xlink:href="#b" transform="rotate(238.648 18.41 5.465)scale(.00275)"/><use xlink:href="#b" transform="rotate(-94.126 22.83 1.361)scale(.00383)"/><use xlink:href="#b" transform="rotate(99.244 2.17 22.12)scale(.0029)"/><use xlink:href="#b" transform="rotate(-70.996 28.708 -4.206)scale(.00361)"/><use xlink:href="#b" transform="rotate(-31.499 54.286 -29.642)scale(.00374)"/><use xlink:href="#b" transform="rotate(-50.107 38.034 -13.313)scale(.00261)"/><use xlink:href="#b" transform="rotate(-77.498 27.481 -2.39)scale(.0039)"/><use xlink:href="#b" transform="rotate(199.745 14.697 10.493)scale(.00302)"/><use xlink:href="#b" transform="rotate(-17.185 93.685 -68.548)scale(.0027)"/><use xlink:href="#b" transform="rotate(199.943 14.95 10.67)scale(.00375)"/><use xlink:href="#b" transform="rotate(29.639 -33.765 59.741)scale(.00384)"/><use xlink:href="#b" transform="rotate(15.896 -76.72 102.779)scale(.00281)"/><use xlink:href="#b" transform="rotate(196.994 14.957 11.244)scale(.00386)"/><use xlink:href="#b" transform="rotate(9.052 -147.403 173.922)scale(.00267)"/><use xlink:href="#b" transform="rotate(41.255 -20.765 47.194)scale(.00272)"/><use xlink:href="#b" transform="rotate(-29.232 62.45 -35.989)scale(.00306)"/><use xlink:href="#b" transform="rotate(228.569 19.19 7.575)scale(.00333)"/><use xlink:href="#b" transform="rotate(184.399 13.97 13.003)scale(.00342)"/><use xlink:href="#b" transform="rotate(-23.808 75.689 -48.76)scale(.00279)"/><use xlink:href="#b" transform="rotate(-41.383 48.41 -21.142)scale(.0037)"/><use xlink:href="#b" transform="rotate(79.608 -2.134 29.702)scale(.00354)"/><use xlink:href="#b" transform="rotate(7.628 -186.23 214.4)scale(.00343)"/><use xlink:href="#b" transform="rotate(229.65 20.096 7.636)scale(.0026)"/><use xlink:href="#b" transform="rotate(-74.078 31.886 -3.869)scale(.00363)"/><use xlink:href="#b" transform="rotate(-5.28 309.695 -282.137)scale(.0029)"/><use xlink:href="#b" transform="rotate(79.509 -2.382 30.664)scale(.0027)"/><use xlink:href="#b" transform="rotate(116.717 5.749 22.756)scale(.00321)"/><use xlink:href="#b" transform="rotate(8.435 -173.488 202.54)scale(.0032)"/><use xlink:href="#b" transform="rotate(-33.797 60.221 -31.431)scale(.0036)"/><use xlink:href="#b" transform="rotate(-49.116 45.165 -16.098)scale(.0039)"/><use xlink:href="#b" transform="rotate(-91.826 28.306 .979)scale(.00368)"/><use xlink:href="#b" transform="rotate(185.112 15.387 14.153)scale(.00384)"/><use xlink:href="#b" transform="rotate(-15.325 121.09 -91.588)scale(.00397)"/><use xlink:href="#b" transform="rotate(104.253 3.782 26.24)scale(.004)"/><use xlink:href="#b" transform="rotate(148.075 10.92 19.27)scale(.00384)"/><use xlink:href="#b" transform="rotate(61.54 -9.364 39.82)scale(.0039)"/><use xlink:href="#b" transform="rotate(-82.936 31.935 -1.487)scale(.00316)"/><use xlink:href="#b" transform="rotate(-16.035 120.447 -89.913)scale(.00399)"/><use xlink:href="#b" transform="rotate(-67.46 37.822 -6.987)scale(.00325)"/><use xlink:href="#b" transform="rotate(141.314 10.19 20.803)scale(.00283)"/><use xlink:href="#b" transform="rotate(-22.24 92.478 -61.41)scale(.00334)"/><use xlink:href="#b" transform="rotate(254.85 27.317 4.05)scale(.00326)"/><use xlink:href="#b" transform="rotate(45.276 -20.942 52.55)scale(.0031)"/><use xlink:href="#b" transform="rotate(-51.87 47.489 -15.867)scale(.00293)"/><use xlink:href="#b" transform="rotate(186.376 16.757 15.057)scale(.00282)"/><use xlink:href="#b" transform="rotate(202.763 19.092 12.842)scale(.00265)"/><use xlink:href="#b" transform="rotate(-7.905 242.16 -210.415)scale(.00298)"/><use xlink:href="#b" transform="rotate(24.515 -55.963 88.49)scale(.00345)"/><use xlink:href="#b" transform="rotate(-18.404 113.791 -81.496)scale(.0028)"/><use xlink:href="#b" transform="rotate(76.22 -3.95 36.598)scale(.00286)"/><use xlink:href="#b" transform="rotate(105.987 4.32 28.434)scale(.00266)"/><use xlink:href="#b" transform="rotate(209.913 20.754 12.229)scale(.00332)"/><use xlink:href="#b" transform="rotate(206.173 20.29 12.823)scale(.00303)"/><use xlink:href="#b" transform="rotate(-63.498 42.788 -9.549)scale(.00303)"/><use xlink:href="#b" transform="rotate(87.141 -.442 33.858)scale(.0027)"/><use xlink:href="#b" transform="rotate(138.536 10.571 22.99)scale(.00279)"/><use xlink:href="#b" transform="rotate(73.527 -4.985 38.911)scale(.00382)"/><use xlink:href="#b" transform="rotate(-74.323 38.756 -4.87)scale(.00286)"/><use xlink:href="#b" transform="rotate(-24.686 92.74 -58.672)scale(.00373)"/><use xlink:href="#b" transform="rotate(126.322 8.753 25.664)scale(.00359)"/><use xlink:href="#b" transform="rotate(39.676 -29.375 63.905)scale(.0028)"/><use xlink:href="#b" transform="rotate(208.226 21.597 13.16)scale(.0037)"/><use xlink:href="#b" transform="rotate(151.814 13.184 21.732)scale(.00338)"/><use xlink:href="#b" transform="rotate(208.78 21.893 13.166)scale(.00324)"/><use xlink:href="#b" transform="rotate(-52.49 52.372 -17.225)scale(.00302)"/><use xlink:href="#b" transform="rotate(35.195 -36.546 72.078)scale(.00341)"/><use xlink:href="#b" transform="rotate(5.198 -364.468 400.468)scale(.0026)"/><use xlink:href="#b" transform="rotate(17.82 -92.92 128.878)scale(.00342)"/><use xlink:href="#b" transform="rotate(190.473 19.524 16.343)scale(.00299)"/><use xlink:href="#b" transform="rotate(-42.501 63.199 -27.28)scale(.0027)"/><use xlink:href="#b" transform="rotate(-16.144 142.436 -106.445)scale(.00305)"/><use xlink:href="#b" transform="rotate(-96.9 33.885 2.57)scale(.00383)"/><use xlink:href="#b" transform="rotate(119.071 7.781 28.792)scale(.00304)"/><use xlink:href="#b" transform="rotate(104.554 4.587 32.279)scale(.00373)"/><use xlink:href="#b" transform="rotate(-93.547 35.384 1.613)scale(.00366)"/><use xlink:href="#b" transform="rotate(-81.211 39.663 -2.58)scale(.00302)"/><use xlink:href="#b" transform="rotate(203.793 22.496 14.875)scale(.0036)"/><use xlink:href="#b" transform="rotate(182.309 19.092 18.383)scale(.00304)"/><use xlink:href="#b" transform="rotate(250.827 31.875 5.8)scale(.00337)"/><use xlink:href="#b" transform="rotate(-7.572 297.619 -260.21)scale(.00323)"/><use xlink:href="#b" transform="rotate(219.981 25.717 12.235)scale(.00285)"/><use xlink:href="#b" transform="rotate(-99.302 34.893 3.328)scale(.00363)"/><use xlink:href="#b" transform="rotate(197.15 22.028 16.424)scale(.0037)"/><use xlink:href="#b" transform="rotate(69.563 -7.81 46.419)scale(.00318)"/><use xlink:href="#b" transform="rotate(217.12 25.7 13.033)scale(.0032)"/><use xlink:href="#b" transform="rotate(200.036 22.757 16.06)scale(.00265)"/><use xlink:href="#b" transform="rotate(34.044 -42.528 81.807)scale(.00382)"/><use xlink:href="#b" transform="rotate(-13.125 186.3 -147.329)scale(.00279)"/><use xlink:href="#b" transform="rotate(-74.986 44.757 -5.423)scale(.00294)"/><use xlink:href="#b" transform="rotate(16.05 -116.78 156.73)scale(.00392)"/><use xlink:href="#b" transform="rotate(45.7 -26.295 66.06)scale(.00275)"/><use xlink:href="#b" transform="rotate(201.494 23.672 16.309)scale(.00352)"/><use xlink:href="#b" transform="rotate(42.69 -29.931 70.232)scale(.00373)"/><use xlink:href="#b" transform="rotate(-59.356 54.691 -14.46)scale(.00295)"/><use xlink:href="#b" transform="rotate(-53.213 59.701 -19.358)scale(.00268)"/><use xlink:href="#b" transform="rotate(110.792 6.543 34.002)scale(.00264)"/><use xlink:href="#b" transform="rotate(-80.967 43.684 -3.044)scale(.00262)"/><use xlink:href="#b" transform="rotate(54.682 -18.28 59.166)scale(.00278)"/><use xlink:href="#b" transform="rotate(-30.103 95.054 -54.084)scale(.00334)"/><use xlink:href="#b" transform="rotate(203.749 24.89 16.47)scale(.00394)"/><use xlink:href="#b" transform="rotate(-97.646 38.413 2.96)scale(.00287)"/><use xlink:href="#b" transform="rotate(46.295 -26.675 68.413)scale(.00353)"/><use xlink:href="#b" transform="rotate(74.931 -5.62 47.611)scale(.00405)"/><use xlink:href="#b" transform="rotate(-39.345 78.397 -36.44)scale(.00336)"/><use xlink:href="#b" transform="rotate(-70.404 50.314 -8.228)scale(.00277)"/><use xlink:href="#b" transform="rotate(188.909 22.74 19.535)scale(.0028)"/><use xlink:href="#b" transform="rotate(-93.294 40.845 1.65)scale(.00336)"/><use xlink:href="#b" transform="rotate(-95.389 40.324 2.433)scale(.00385)"/><use xlink:href="#b" transform="rotate(-61.455 56.692 -13.833)scale(.00335)"/><use xlink:href="#b" transform="rotate(99.194 3.713 39.53)scale(.00405)"/><use xlink:href="#b" transform="rotate(174.15 20.59 22.785)scale(.00372)"/><use xlink:href="#b" transform="rotate(211.16 27.652 15.813)scale(.00313)"/><use xlink:href="#b" transform="rotate(89.095 .119 43.556)scale(.00316)"/><use xlink:href="#b" transform="rotate(-39.724 81.153 -37.298)scale(.00397)"/><use xlink:href="#b" transform="rotate(79.88 -3.757 47.786)scale(.00297)"/><use xlink:href="#b" transform="rotate(238.336 34.148 10.022)scale(.00313)"/><use xlink:href="#b" transform="rotate(-27.3 111.62 -67.435)scale(.00275)"/><use xlink:href="#b" transform="rotate(18.422 -111.729 156.578)scale(.00388)"/><use xlink:href="#b" transform="rotate(-58.01 61.834 -17.247)scale(.00266)"/><use xlink:href="#b" transform="rotate(40.545 -37.135 81.99)scale(.00274)"/><use xlink:href="#b" transform="rotate(93.27 1.688 43.355)scale(.0032)"/><use xlink:href="#b" transform="rotate(97.217 3.006 42.099)scale(.0026)"/><use xlink:href="#b" transform="rotate(11.689 -194.055 239.679)scale(.00324)"/><use xlink:href="#b" transform="rotate(152.014 17.248 28.371)scale(.00383)"/><use xlink:href="#b" transform="rotate(183.648 23.618 22.231)scale(.00402)"/><use xlink:href="#b" transform="rotate(143.367 15.533 30.45)scale(.00347)"/><use xlink:href="#b" transform="rotate(-51.183 70.208 -24.238)scale(.00267)"/><use xlink:href="#b" transform="rotate(59.55 -16.322 62.778)scale(.00399)"/><use xlink:href="#b" transform="rotate(141.205 15.287 31.327)scale(.00395)"/><use xlink:href="#b" transform="rotate(170.259 21.386 25.314)scale(.00327)"/><use xlink:href="#b" transform="rotate(66.497 -11.676 58.494)scale(.00273)"/><use xlink:href="#b" transform="rotate(-23.85 132.452 -85.545)scale(.00349)"/><use xlink:href="#b" transform="rotate(-45.673 78.448 -31.246)scale(.0037)"/><use xlink:href="#b" transform="rotate(142.697 15.922 31.612)scale(.00394)"/><use xlink:href="#b" transform="rotate(46.214 -30.945 78.563)scale(.0029)"/><use xlink:href="#b" transform="rotate(-68.64 58.156 -10.53)scale(.0026)"/><use xlink:href="#b" transform="rotate(118.588 10.01 37.931)scale(.00331)"/><use xlink:href="#b" transform="rotate(45.522 -32.235 80.301)scale(.00276)"/><use xlink:href="#b" transform="rotate(-33.183 103.482 -55.403)scale(.00281)"/><use xlink:href="#b" transform="rotate(256.279 42.793 5.549)scale(.00309)"/><use xlink:href="#b" transform="rotate(77.892 -5.144 53.772)scale(.00343)"/><use xlink:href="#b" transform="rotate(-52.009 73.319 -24.639)scale(.00323)"/><use xlink:href="#b" transform="rotate(256.96 43.503 5.415)scale(.0034)"/><use xlink:href="#b" transform="rotate(-88.937 49.052 .047)scale(.00343)"/><use xlink:href="#b" transform="rotate(148.407 17.74 31.459)scale(.00271)"/><use xlink:href="#b" transform="rotate(199.968 28.97 20.466)scale(.00331)"/><use xlink:href="#b" transform="rotate(196.22 28.304 21.416)scale(.00392)"/><use xlink:href="#b" transform="rotate(146.441 17.47 32.254)scale(.00265)"/><use xlink:href="#b" transform="rotate(2.231 -1234.62 1285.792)scale(.00276)"/><use xlink:href="#b" transform="rotate(-39.928 92.729 -42.777)scale(.00271)"/><use xlink:href="#b" transform="rotate(222.622 34.74 15.545)scale(.00348)"/><use xlink:href="#b" transform="rotate(161.23 21.081 29.297)scale(.00283)"/><use xlink:href="#b" transform="rotate(-81.63 54.015 -3.436)scale(.00334)"/><use xlink:href="#b" transform="rotate(129.955 13.719 37.024)scale(.00297)"/><use xlink:href="#b" transform="rotate(102.39 5.288 45.57)scale(.00267)"/><use xlink:href="#b" transform="rotate(70.697 -9.717 60.926)scale(.00371)"/><use xlink:href="#b" transform="rotate(191.926 28.207 22.966)scale(.00263)"/><use xlink:href="#b" transform="rotate(179.207 25.5 25.876)scale(.00297)"/><use xlink:href="#b" transform="rotate(218.404 34.597 16.996)scale(.00336)"/><use xlink:href="#b" transform="rotate(113.391 9.243 42.628)scale(.00374)"/><use xlink:href="#b" transform="rotate(205.921 31.797 20.062)scale(.00266)"/><use xlink:href="#b" transform="rotate(8.488 -318.717 371.162)scale(.00303)"/><use xlink:href="#b" transform="rotate(21.577 -108.498 160.921)scale(.00322)"/><use xlink:href="#b" transform="rotate(238.743 40.728 11.828)scale(.004)"/><use xlink:href="#b" transform="rotate(-15.925 211.049 -158.586)scale(.00336)"/><use xlink:href="#b" transform="rotate(91.598 1.185 51.687)scale(.00324)"/><use xlink:href="#b" transform="rotate(83.857 -2.565 55.514)scale(.00269)"/><use xlink:href="#b" transform="rotate(137.456 16.351 36.73)scale(.00272)"/><use xlink:href="#b" transform="rotate(122.613 12.315 41.008)scale(.00323)"/><use xlink:href="#b" transform="rotate(-6.527 486.567 -433.595)scale(.00386)"/><use xlink:href="#b" transform="rotate(228.488 38.739 15.058)scale(.00396)"/><use xlink:href="#b" transform="rotate(169.205 24.447 29.48)scale(.00336)"/><use xlink:href="#b" transform="rotate(259.738 49.215 4.884)scale(.00347)"/><use xlink:href="#b" transform="rotate(46.39 -34.997 89.402)scale(.00357)"/><use xlink:href="#b" transform="rotate(252.99 47.003 7.429)scale(.00318)"/><use xlink:href="#b" transform="rotate(-22.905 159.82 -105.37)scale(.00294)"/><use xlink:href="#b" transform="rotate(-88.652 54.925 -.254)scale(.00267)"/><use xlink:href="#b" transform="rotate(84.597 -2.218 57.17)scale(.00313)"/><use xlink:href="#b" transform="rotate(108.999 8.15 46.865)scale(.0026)"/><use xlink:href="#b" transform="rotate(245.779 45.173 10.113)scale(.00359)"/><use xlink:href="#b" transform="rotate(183.493 28.495 26.856)scale(.00272)"/><use xlink:href="#b" transform="rotate(45.866 -36.636 92.402)scale(.0038)"/><use xlink:href="#b" transform="rotate(31.165 -70.543 126.354)scale(.00281)"/><use xlink:href="#b" transform="rotate(-35.762 113.229 -57.47)scale(.0026)"/><use xlink:href="#b" transform="rotate(-32.46 122.665 -66.653)scale(.00345)"/><use xlink:href="#b" transform="rotate(186.925 29.844 26.537)scale(.0039)"/><use xlink:href="#b" transform="rotate(154.368 21.969 34.622)scale(.00384)"/><use xlink:href="#b" transform="rotate(221.238 38.829 17.9)scale(.00356)"/><use xlink:href="#b" transform="rotate(-32.068 125.732 -68.995)scale(.00297)"/><use xlink:href="#b" transform="rotate(106.741 7.661 49.398)scale(.00323)"/><use xlink:href="#b" transform="rotate(195.153 32.307 24.843)scale(.0029)"/><use xlink:href="#b" transform="rotate(166.532 25.4 32.089)scale(.0039)"/></g><defs><filter id="a" width="57.281" height="57.15" x=".293" y=".568" color-interpolation-filters="sRGB" filterUnits="userSpaceOnUse"><feFlood flood-opacity="0" result="BackgroundImageFix"/><feBlend in="SourceGraphic" in2="BackgroundImageFix" result="shape"/><feTurbulence baseFrequency="0.38759690523147583 0.38759690523147583" numOctaves="3" result="noise" seed="9800" stitchTiles="stitch" type="fractalNoise"/><feColorMatrix in="noise" result="alphaNoise" type="luminanceToAlpha"/><feComponentTransfer in="alphaNoise" result="coloredNoise1"><feFuncA tableValues="0 0 0 0 0 0 0 0 0 0 0 0 0 0 1 1 1 1 1 1 1 1 1 1 1 1 1 1 1 1 1 1 1 1 1 1 0 0 0 0 0 0 0 0 0 0 0 0 0 0 0 0 0 0 0 0 0 0 0 0 0 0 0 0 0 0 0 0 0 0 0 0 0 0 0 0 0 0 0 0 0 0 0 0 0 0 0 0 0 0 0 0 0 0 0 0 0 0 0 0" type="discrete"/></feComponentTransfer><feComposite in="coloredNoise1" in2="shape" operator="in" result="noise1Clipped"/><feComponentTransfer in="alphaNoise" result="coloredNoise2"><feFuncA tableValues="0 0 0 0 0 0 0 0 0 0 0 0 0 0 0 0 0 0 0 0 0 0 0 0 0 0 0 0 0 0 0 0 0 0 0 0 0 0 0 0 0 0 0 0 0 0 0 0 0 0 0 0 0 0 0 0 0 0 0 0 0 0 0 0 1 1 1 1 1 1 1 1 1 1 1 1 1 1 1 1 1 1 1 1 1 1 0 0 0 0 0 0 0 0 0 0 0 0 0 0" type="discrete"/></feComponentTransfer><feComposite in="coloredNoise2" in2="shape" operator="in" result="noise2Clipped"/><feFlood flood-color="rgba(255, 255, 255, 0.75)" result="color1Flood"/><feComposite in="color1Flood" in2="noise1Clipped" operator="in" result="color1"/><feFlood flood-color="rgba(255, 255, 255, 0.25)" result="color2Flood"/><feComposite in="color2Flood" in2="noise2Clipped" operator="in" result="color2"/><feMerge result="effect1_noise_8_215"><feMergeNode in="shape"/><feMergeNode in="color1"/><feMergeNode in="color2"/></feMerge></filter><path id="b" fill="#538fdf" d="M103.731 283.547c6.621-2.184 9.076-2.199 12.39-.079 13.988 8.95 8.729 25.25-8.149 25.259-17.595.01-20.911-19.681-4.241-25.18m36.106-248.132c1.1-.236 2.675-.301 3.5-.144s3.179.568 5.23.914c7.235 1.22 11.612 10.512 8.167 17.34-3.81 7.552-12.019 14.056-15.875 12.577-4.987-1.914-3.234 3.777 3.207 10.413 4.24 4.37 6.271 4.754 6.271 1.192 0-1.05 1.285-3.385 2.856-5.19 1.63-1.876 3.404-5.597 4.131-8.667 1.601-6.76 3.464-8.621 10.045-10.033 9.951-2.134 18.212 3.11 16.383 10.398-.459 1.827.149 3.45 2.338 6.243 10.769 13.74 7.785 33.815-5.494 36.96-3.547.84-3.764 1.114-3.823 4.852-.034 2.178-.408 4.717-.83 5.642-.688 1.505.003 1.652 6.563 1.398 7.909-.307 10.168.395 13.447 4.177 3.101 3.577 5.645 2.627 6.656-2.485.894-4.519 6.487-10.271 9.987-10.271 2.245 0 3.338-2.575 1.853-4.364-8.349-10.061 7.785-32.704 21.156-29.688 5.967 1.346 10.697 6.951 10.762 12.752.017 1.54 1.138 5.05 2.491 7.8 6.504 13.222-5.554 28.994-16.081 21.032-2.853-2.158-2.94-2.037-2.94 4.078 0 6.589-3.905 10.951-10.788 12.052-2.981.477-4.116 1.277-5.274 3.723-.811 1.713-2.225 4.299-3.145 5.747-1.646 2.593-1.61 2.702 2.517 7.391 2.304 2.617 4.19 5.301 4.19 5.964s.737 2.683 1.637 4.488c3.174 6.361 2.099 20.025-1.574 20.025-.348 0-1.43 1.35-2.405 3s-2.422 3-3.216 3c-2.184 0-1.735 2.086 1.084 5.029 3.521 3.675 4.562 12.107 1.865 15.098-5.225 5.791-11.678 10.152-16.664 11.264-4.12.919-5.234 1.583-5.26 3.137-.135 8.13-4.562 13.128-13.122 14.818-6.837 1.35-7.61 3.233-2.105 5.126 12.781 4.394 15.315 15.49 4.865 21.303-5.921 3.293-10.016 3.252-14.927-.152-3.621-2.509-4.354-2.668-7.836-1.701-5.942 1.65-12.316 1.281-18.342-1.06-5.463-2.123-10.613-3.525-16.648-4.532-5.974-.997-9.538-6.118-10.097-14.51-.408-6.134-.921-7.806-3.167-10.32-1.474-1.65-3.439-4.687-4.367-6.75-1.638-3.637-1.847-3.75-6.894-3.75-6.37 0-11.084-2.809-13.947-8.311-3.17-6.093-7.274-5.084-7.37 1.811-.037 2.75-.424 6.586-.859 8.524-.753 3.358-.637 3.569 2.449 4.5 10.063 3.035 9.961 20.691-.149 25.679-24.298 11.986-54.047-12.461-32.413-26.636 1.681-1.102 2.306-2.804 2.815-7.672.36-3.441 1.44-7.364 2.4-8.716a375 375 0 0 1 2.719-3.783c.693-.943.207-2.124-1.687-4.11-3.495-3.662-4.81-7.36-4.124-11.589.33-2.036.105-3.723-.552-4.129-.61-.377-1.109-1.954-1.11-3.505 0-1.55-.735-3.428-1.633-4.173-2.703-2.245-12.366-15.765-12.366-17.304 0-.788-1.574-3.495-3.498-6.015-1.924-2.521-3.44-4.918-3.366-5.327.973-5.497-2.826-8.55-7-5.627-2.218 1.554-9.25 1.428-13.607-.244-10.102-3.877-8.653-28.978 1.702-29.484 6.291-.307 14.769 2.931 14.769 5.641 0 1.757 2.773 4.47 4.57 4.47.786 0 1.43-.69 1.43-1.533 0-13.384 20.848-28.89 40.5-30.121 13.093-.822 18.425.42 27.352 6.37 4.261 2.84 11.148-2.563 11.148-8.746 0-2.041.835-4.23 2.146-5.626 2.251-2.396 1.321-5.344-1.687-5.344-2.393 0-5.24-6.189-4.719-10.26.969-7.587 13.556-11.704 19.212-6.285 2.35 2.252 3.419 2.622 5.956 2.065 3.809-.837 3.883-1.777.342-4.356-8.227-5.993-1.392-22.986 10.25-25.48m87.5 168.014c11.757-3.775 25.385 3.862 25.385 14.224 0 10.842-20.801 21.787-28.795 15.153-2.262-1.877-3.524-.443-2.915 3.312 1.085 6.684-7.501 18.613-13.396 18.613-13.37 0-18.816-8.499-13.159-20.533 3.745-7.967 9.996-10.414 18.781-7.351 4.298 1.498 4.642.84 2.683-5.15-2.869-8.772.969-14.914 11.416-18.268M179.7 192.695c-.651-.651-1.649-.282-2.926 1.084-8.404 8.989-11.711 9.934-20.268 5.792-6.76-3.273-10.056 1.888-4.545 7.118 2.248 2.133 2.521 3.055 2.077 6.993-.498 4.416-.374 4.662 4.644 9.285 5.154 4.749 5.155 4.749 5.669-.1.636-5.995 5.171-12.898 9.726-14.801 3.017-1.261 3.26-1.707 3.26-6.02 0-2.954.613-5.335 1.676-6.51 1.104-1.221 1.339-2.189.687-2.841m-165.965-8.998c7.495-3.335 12.2-2.472 18.37 3.369 8.46 8.008 4.924 18.546-7.474 22.277-15.224 4.582-25.336-19.219-10.896-25.646m239.221-35.446c9.173-2.519 14.854-1.048 18.027 4.67 6.414 11.557-13.631 27.998-23.804 19.524-10.086-8.401-7.163-20.64 5.777-24.194m-77.134 14.458c-.98-1.586-3.34-1.12-4.405.87-1.134 2.12-.033 7.334 1.669 7.902 1.28.424 3.675-7.252 2.736-8.772m-25.67-51.228c.34-2.955-.618-3.304-4.639-1.691-3.405 1.365-2.478 4.441 1.338 4.441 2.514 0 3.035-.435 3.301-2.75m6.685-12.75c-.825 0-1.5.675-1.5 1.5s.675 1.5 1.5 1.5 1.5-.675 1.5-1.5-.675-1.5-1.5-1.5m-25.5-13.093c0-2.838-1.846-4.238-3.908-2.964-.928.573-.744 1.616.756 4.286 1.088 1.94 2.131 4.5 2.315 5.689s.787 2.256 1.337 2.372c1.413.296 1.892-4.299.585-5.606-.597-.597-1.085-2.296-1.085-3.777m-51.5-48.717c10.045-5.672 23.056 9.928 15.821 18.971-3.456 4.319-4.454 8.089-3.788 14.308.662 6.184.612 6.364-2.833 10.163C76.04 94.7 55.153 78.5 64.824 61.583c1.515-2.65 2.493-5.938 2.5-8.408.016-5.47 5.092-12.063 12.513-16.254m41.059 41.81c-.243 0-.719.45-1.059 1s-.142 1 .44 1 1.06-.45 1.06-1-.198-1-.441-1m84.589-39.241c14.146-2.448 22.113 11.425 15.112 26.318-7.204 15.322-30.258 11.978-30.506-4.426-.111-7.306 9.418-20.858 15.394-21.892M51.837 14.554c12.608-8.69 23.843 4.813 16.787 20.177-6.239 13.586-27.287 9.044-27.287-5.889 0-2.809 6.316-11.404 10.5-14.288M108.212 2.17c13.218-8.981 33.334 11.922 25.025 26.004-1.153 1.956-2.418 3.556-2.81 3.557s-1.614.84-2.714 1.865c-8.257 7.691-19.927 2.18-24.346-11.497-3.215-9.953-1.904-15.343 4.845-19.929" data-figma-scatter="f0.28_w0_aj180_sj0.25_r0_s0_sw1" data-figma-scatter-ref="stroke0_8_215_ref"/></defs></svg>