<svg xmlns="http://www.w3.org/2000/svg" xmlns:xlink="http://www.w3.org/1999/xlink" width="58" height="58" fill="none" viewBox="0 0 58 58"><g filter="url(#a)"><path fill="#538fdf" d="M1 1h56v56H1z"/><use xlink:href="#b" transform="rotate(128.86 .651 .905)scale(.00372)"/><use xlink:href="#b" transform="rotate(-41.623 1.431 -.193)scale(.00393)"/><use xlink:href="#b" transform="rotate(-8.04 4.605 -7.278)scale(.0032)"/><use xlink:href="#b" transform="rotate(120.988 .937 1.12)scale(.0029)"/><use xlink:href="#b" transform="rotate(164.576 1.157 .826)scale(.00279)"/><use xlink:href="#b" transform="rotate(108.328 1.078 1.376)scale(.00266)"/><use xlink:href="#b" transform="rotate(29.527 .702 4.49)scale(.00379)"/><use xlink:href="#b" transform="rotate(-9.504 5.028 -13.377)scale(.00272)"/><use xlink:href="#b" transform="rotate(228.679 1.777 .135)scale(.00274)"/><use xlink:href="#b" transform="rotate(-40.864 2.48 -2.908)scale(.00312)"/><use xlink:href="#b" transform="rotate(144.845 1.875 1.239)scale(.0036)"/><use xlink:href="#b" transform="rotate(241.527 2.232 -.125)scale(.00402)"/><use xlink:href="#b" transform="rotate(-62.983 2.589 -2.033)scale(.00385)"/><use xlink:href="#b" transform="rotate(55.005 1.992 4.41)scale(.00375)"/><use xlink:href="#b" transform="rotate(-30.827 3.245 -6.491)scale(.00405)"/><use xlink:href="#b" transform="rotate(62.91 2.146 4.36)scale(.0028)"/><use xlink:href="#b" transform="rotate(58.51 2.45 4.875)scale(.00387)"/><use xlink:href="#b" transform="rotate(169.9 2.928 1.004)scale(.00374)"/><use xlink:href="#b" transform="rotate(-17.583 4.812 -16.233)scale(.00287)"/><use xlink:href="#b" transform="rotate(-50.6 3.656 -4.926)scale(.0036)"/><use xlink:href="#b" transform="rotate(150.565 3.286 1.535)scale(.0038)"/><use xlink:href="#b" transform="rotate(3.229 -4.14 106.27)scale(.0037)"/><use xlink:href="#b" transform="rotate(-80.021 3.878 -3.069)scale(.00263)"/><use xlink:href="#b" transform="rotate(122.899 3.63 2.546)scale(.00392)"/><use xlink:href="#b" transform="rotate(239.379 3.983 -1.147)scale(.00356)"/><use xlink:href="#b" transform="rotate(73.345 3.65 5.48)scale(.00336)"/><use xlink:href="#b" transform="rotate(-37.405 4.78 -9.954)scale(.00359)"/><use xlink:href="#b" transform="rotate(64.82 3.942 6.714)scale(.00376)"/><use xlink:href="#b" transform="rotate(96.128 4.046 4.26)scale(.0026)"/><use xlink:href="#b" transform="rotate(-67.241 4.86 -5.38)scale(.00277)"/><use xlink:href="#b" transform="rotate(11.954 2.58 40.057)scale(.00372)"/><use xlink:href="#b" transform="rotate(-9.048 7.593 -53.079)scale(.00356)"/><use xlink:href="#b" transform="rotate(-41.954 5.561 -10.859)scale(.00275)"/><use xlink:href="#b" transform="rotate(213.255 4.995 -.652)scale(.00266)"/><use xlink:href="#b" transform="rotate(168.826 4.997 1.173)scale(.00285)"/><use xlink:href="#b" transform="rotate(215.014 5.236 -.757)scale(.00307)"/><use xlink:href="#b" transform="rotate(-18.747 6.719 -28.514)scale(.00345)"/><use xlink:href="#b" transform="rotate(122.81 5.246 3.449)scale(.00298)"/><use xlink:href="#b" transform="rotate(240.065 5.675 -2.189)scale(.00327)"/><use xlink:href="#b" transform="rotate(230.39 5.742 -1.76)scale(.00266)"/><use xlink:href="#b" transform="rotate(-28.773 6.867 -20.14)scale(.0026)"/><use xlink:href="#b" transform="rotate(-96.933 6.071 -4.078)scale(.00297)"/><use xlink:href="#b" transform="rotate(-57.815 6.38 -9.133)scale(.004)"/><use xlink:href="#b" transform="rotate(241.555 6.26 -2.66)scale(.00299)"/><use xlink:href="#b" transform="rotate(38.971 5.744 17.08)scale(.00395)"/><use xlink:href="#b" transform="rotate(198.133 6.472 -.145)scale(.00387)"/><use xlink:href="#b" transform="rotate(64.473 6.001 10.41)scale(.0026)"/><use xlink:href="#b" transform="rotate(19.527 5.505 36.603)scale(.00385)"/><use xlink:href="#b" transform="rotate(25.046 5.579 29.308)scale(.00307)"/><use xlink:href="#b" transform="rotate(210.706 7.016 -.951)scale(.00402)"/><use xlink:href="#b" transform="rotate(171.506 7.067 1.27)scale(.00363)"/><use xlink:href="#b" transform="rotate(87.78 7.001 7.775)scale(.00368)"/><use xlink:href="#b" transform="rotate(77.29 7.116 9.372)scale(.00379)"/><use xlink:href="#b" transform="rotate(229.399 7.606 -2.447)scale(.0036)"/><use xlink:href="#b" transform="rotate(52.483 7.276 15.276)scale(.00395)"/><use xlink:href="#b" transform="rotate(-67.73 8.143 -10.213)scale(.00287)"/><use xlink:href="#b" transform="rotate(-15.793 9.335 -52.5)scale(.00396)"/><use xlink:href="#b" transform="rotate(136.907 7.859 3.712)scale(.0027)"/><use xlink:href="#b" transform="rotate(76.17 7.688 10.544)scale(.00261)"/><use xlink:href="#b" transform="rotate(257.357 8.438 -5.411)scale(.00383)"/><use xlink:href="#b" transform="rotate(62.945 8.1 13.7)scale(.0039)"/><use xlink:href="#b" transform="rotate(-13.266 10.586 -68.634)scale(.00338)"/><use xlink:href="#b" transform="rotate(224.94 8.741 -2.66)scale(.00308)"/><use xlink:href="#b" transform="rotate(213.335 8.84 -1.74)scale(.00326)"/><use xlink:href="#b" transform="rotate(196.421 8.97 -.418)scale(.00385)"/><use xlink:href="#b" transform="rotate(202.694 9.102 -.954)scale(.00347)"/><use xlink:href="#b" transform="rotate(174.359 9.155 1.18)scale(.00325)"/><use xlink:href="#b" transform="rotate(28.961 8.38 35.002)scale(.00339)"/><use xlink:href="#b" transform="rotate(-16.14 11.378 -62.76)scale(.00281)"/><use xlink:href="#b" transform="rotate(-4.983 14.6 -207.607)scale(.00364)"/><use xlink:href="#b" transform="rotate(249.963 9.854 -5.66)scale(.00364)"/><use xlink:href="#b" transform="rotate(100.954 9.717 8.504)scale(.00403)"/><use xlink:href="#b" transform="rotate(-82.987 10.24 -10.078)scale(.00273)"/><use xlink:href="#b" transform="rotate(-35.592 10.889 -29.295)scale(.00293)"/><use xlink:href="#b" transform="rotate(24.916 8.763 44.896)scale(.0026)"/><use xlink:href="#b" transform="rotate(-50.662 10.842 -20.117)scale(.0027)"/><use xlink:href="#b" transform="rotate(153.437 10.343 3.111)scale(.00348)"/><use xlink:href="#b" transform="rotate(12.048 7.63 96.4)scale(.00262)"/><use xlink:href="#b" transform="rotate(63.868 10.084 17.064)scale(.00265)"/><use xlink:href="#b" transform="rotate(118.657 10.608 6.857)scale(.00359)"/><use xlink:href="#b" transform="rotate(33.097 9.979 35.777)scale(.00316)"/><use xlink:href="#b" transform="rotate(8.853 7.356 136.92)scale(.00289)"/><use xlink:href="#b" transform="rotate(117.673 10.85 7.155)scale(.00267)"/><use xlink:href="#b" transform="rotate(254.374 11.37 -7.389)scale(.0033)"/><use xlink:href="#b" transform="rotate(205.149 11.328 -1.715)scale(.00277)"/><use xlink:href="#b" transform="rotate(100.509 11.113 9.85)scale(.00265)"/><use xlink:href="#b" transform="rotate(-10.98 14.464 -114.715)scale(.00275)"/><use xlink:href="#b" transform="rotate(242.68 11.754 -6.093)scale(.00289)"/><use xlink:href="#b" transform="rotate(237.552 11.892 -5.382)scale(.00387)"/><use xlink:href="#b" transform="rotate(-62.754 12.263 -17.914)scale(.00377)"/><use xlink:href="#b" transform="rotate(28.412 10.981 46.494)scale(.00311)"/><use xlink:href="#b" transform="rotate(108.136 11.869 9.2)scale(.00264)"/><use xlink:href="#b" transform="rotate(-9.64 15.262 -139.176)scale(.00317)"/><use xlink:href="#b" transform="rotate(83.303 11.99 14.137)scale(.00275)"/><use xlink:href="#b" transform="rotate(-96.168 12.686 -10.043)scale(.00323)"/><use xlink:href="#b" transform="rotate(215.089 12.713 -3.018)scale(.00401)"/><use xlink:href="#b" transform="rotate(177.275 12.68 .999)scale(.00266)"/><use xlink:href="#b" transform="rotate(161.747 12.807 2.747)scale(.00332)"/><use xlink:href="#b" transform="rotate(87.206 12.764 13.91)scale(.0036)"/><use xlink:href="#b" transform="rotate(-38.961 13.822 -35.066)scale(.00314)"/><use xlink:href="#b" transform="rotate(64.897 12.972 20.854)scale(.00392)"/><use xlink:href="#b" transform="rotate(200.148 13.411 -1.554)scale(.00316)"/><use xlink:href="#b" transform="rotate(8.053 10.169 186.044)scale(.00343)"/><use xlink:href="#b" transform="rotate(191.688 13.691 -.556)scale(.00377)"/><use xlink:href="#b" transform="rotate(-3.231 24.018 -472.698)scale(.00272)"/><use xlink:href="#b" transform="rotate(196.437 13.893 -1.205)scale(.00305)"/><use xlink:href="#b" transform="rotate(50.409 13.625 29.513)scale(.00391)"/><use xlink:href="#b" transform="rotate(205.361 14.21 -2.31)scale(.0035)"/><use xlink:href="#b" transform="rotate(153.676 14.243 4.004)scale(.00355)"/><use xlink:href="#b" transform="rotate(116.121 14.2 9.438)scale(.00288)"/><use xlink:href="#b" transform="rotate(-49.262 15.03 -29.879)scale(.0036)"/><use xlink:href="#b" transform="rotate(157.422 14.55 3.553)scale(.00273)"/><use xlink:href="#b" transform="rotate(142.945 14.707 5.566)scale(.00355)"/><use xlink:href="#b" transform="rotate(-3.777 22.89 -437.826)scale(.00305)"/><use xlink:href="#b" transform="rotate(150.022 14.912 4.633)scale(.00297)"/><use xlink:href="#b" transform="rotate(-45.272 15.763 -34.54)scale(.0028)"/><use xlink:href="#b" transform="rotate(1.416 -1.514 1195.07)scale(.00379)"/><use xlink:href="#b" transform="rotate(85.82 15.003 16.797)scale(.00265)"/><use xlink:href="#b" transform="rotate(7.071 11.645 243.914)scale(.0034)"/><use xlink:href="#b" transform="rotate(227.467 15.711 -5.918)scale(.00322)"/><use xlink:href="#b" transform="rotate(61.886 15.432 26.242)scale(.00381)"/><use xlink:href="#b" transform="rotate(216.012 15.922 -4.31)scale(.00276)"/><use xlink:href="#b" transform="rotate(172.646 15.954 1.744)scale(.00318)"/><use xlink:href="#b" transform="rotate(28.769 15.046 61.818)scale(.00304)"/><use xlink:href="#b" transform="rotate(189.179 16.25 -.498)scale(.00346)"/><use xlink:href="#b" transform="rotate(142.151 16.204 6.173)scale(.00275)"/><use xlink:href="#b" transform="rotate(168.164 16.382 2.378)scale(.0028)"/><use xlink:href="#b" transform="rotate(140.124 16.397 6.56)scale(.00264)"/><use xlink:href="#b" transform="rotate(10.832 13.69 171.95)scale(.00287)"/><use xlink:href="#b" transform="rotate(50.05 16.414 35.7)scale(.00396)"/><use xlink:href="#b" transform="rotate(128.269 16.77 8.727)scale(.00303)"/><use xlink:href="#b" transform="rotate(188.83 17.034 -.55)scale(.00301)"/><use xlink:href="#b" transform="rotate(235.306 17.293 -7.974)scale(.00353)"/><use xlink:href="#b" transform="rotate(168.791 17.201 2.36)scale(.00264)"/><use xlink:href="#b" transform="rotate(14.066 15.3 138.1)scale(.00316)"/><use xlink:href="#b" transform="rotate(-16.25 19.385 -118.883)scale(.00295)"/><use xlink:href="#b" transform="rotate(60.222 17.334 30.36)scale(.00391)"/><use xlink:href="#b" transform="rotate(190.476 17.833 -.793)scale(.0038)"/><use xlink:href="#b" transform="rotate(-42.083 18.51 -44.57)scale(.00368)"/><use xlink:href="#b" transform="rotate(14.083 16.292 143.197)scale(.00361)"/><use xlink:href="#b" transform="rotate(-34.407 19.09 -56.706)scale(.00265)"/><use xlink:href="#b" transform="rotate(15.167 16.12 134.94)scale(.0028)"/><use xlink:href="#b" transform="rotate(195.472 18.394 -1.729)scale(.00277)"/><use xlink:href="#b" transform="rotate(-91.247 18.745 -16.932)scale(.00316)"/><use xlink:href="#b" transform="rotate(35.257 18.077 57.907)scale(.00397)"/><use xlink:href="#b" transform="rotate(-59.173 19.233 -31.605)scale(.00283)"/><use xlink:href="#b" transform="rotate(136.257 18.815 8.169)scale(.00353)"/><use xlink:href="#b" transform="rotate(246.371 19.165 -11.439)scale(.00287)"/><use xlink:href="#b" transform="rotate(8.282 15.847 258.712)scale(.0034)"/><use xlink:href="#b" transform="rotate(53.668 18.76 37.938)scale(.00324)"/><use xlink:href="#b" transform="rotate(-74.468 19.695 -24.056)scale(.00402)"/><use xlink:href="#b" transform="rotate(-34.842 20.424 -60.23)scale(.00263)"/><use xlink:href="#b" transform="rotate(154.159 19.512 5.113)scale(.00265)"/><use xlink:href="#b" transform="rotate(-52.378 20.216 -38.412)scale(.00359)"/><use xlink:href="#b" transform="rotate(-35.004 20.578 -60.737)scale(.00377)"/><use xlink:href="#b" transform="rotate(157.549 19.897 4.591)scale(.0026)"/><use xlink:href="#b" transform="rotate(164.496 20.099 3.443)scale(.00346)"/><use xlink:href="#b" transform="rotate(95.497 19.984 18.732)scale(.00303)"/><use xlink:href="#b" transform="rotate(133.59 20.24 9.283)scale(.00313)"/><use xlink:href="#b" transform="rotate(30.025 19.428 75.498)scale(.00292)"/><use xlink:href="#b" transform="rotate(34.636 19.582 65.419)scale(.00262)"/><use xlink:href="#b" transform="rotate(95.398 20.38 19.159)scale(.00271)"/><use xlink:href="#b" transform="rotate(212.484 20.828 -5.233)scale(.00264)"/><use xlink:href="#b" transform="rotate(174.576 20.856 1.698)scale(.00296)"/><use xlink:href="#b" transform="rotate(-7.289 25.163 -322.323)scale(.00303)"/><use xlink:href="#b" transform="rotate(194.274 21.105 -1.892)scale(.0026)"/><use xlink:href="#b" transform="rotate(201.193 21.244 -3.166)scale(.0029)"/><use xlink:href="#b" transform="rotate(-42.697 22.035 -52.817)scale(.00267)"/><use xlink:href="#b" transform="rotate(45.129 20.916 51.26)scale(.00354)"/><use xlink:href="#b" transform="rotate(-66.16 21.968 -31.756)scale(.00277)"/><use xlink:href="#b" transform="rotate(77.014 21.264 27.43)scale(.00271)"/><use xlink:href="#b" transform="rotate(210.684 21.868 -5.075)scale(.00356)"/><use xlink:href="#b" transform="rotate(65.563 21.531 34.094)scale(.00326)"/><use xlink:href="#b" transform="rotate(164.991 22.006 3.595)scale(.00324)"/><use xlink:href="#b" transform="rotate(125.402 21.951 11.927)scale(.0026)"/><use xlink:href="#b" transform="rotate(-69.345 22.609 -30.71)scale(.00382)"/><use xlink:href="#b" transform="rotate(188.98 22.41 -.992)scale(.00303)"/><use xlink:href="#b" transform="matrix(.00196 -.0021 .0021 .00196 44 .983)"/><use xlink:href="#b" transform="rotate(143.02 22.632 8.216)scale(.00398)"/><use xlink:href="#b" transform="rotate(-71.39 23.142 -30.42)scale(.00275)"/><use xlink:href="#b" transform="rotate(237.742 23.013 -11.66)scale(.00293)"/><use xlink:href="#b" transform="rotate(60.334 22.587 39.562)scale(.00332)"/><use xlink:href="#b" transform="rotate(-15.877 24.573 -161.62)scale(.00398)"/><use xlink:href="#b" transform="rotate(227.485 23.4 -9.275)scale(.00344)"/><use xlink:href="#b" transform="rotate(126.667 23.238 12.266)scale(.00287)"/><use xlink:href="#b" transform="rotate(88.861 23.295 24.297)scale(.00343)"/><use xlink:href="#b" transform="rotate(67.09 23.19 35.753)scale(.00283)"/><use xlink:href="#b" transform="rotate(108.969 23.518 17.373)scale(.00281)"/><use xlink:href="#b" transform="rotate(157.182 23.783 5.456)scale(.00293)"/><use xlink:href="#b" transform="rotate(213.802 24.05 -6.404)scale(.00321)"/><use xlink:href="#b" transform="rotate(-48.793 24.611 -51.326)scale(.0037)"/><use xlink:href="#b" transform="rotate(144.037 24.21 8.503)scale(.0037)"/><use xlink:href="#b" transform="rotate(66.772 23.88 37.075)scale(.00265)"/><use xlink:href="#b" transform="rotate(88.77 24.3 25.325)scale(.00368)"/><use xlink:href="#b" transform="rotate(254.004 24.8 -17.513)scale(.00289)"/><use xlink:href="#b" transform="rotate(-71.703 25.071 -32.816)scale(.0036)"/><use xlink:href="#b" transform="rotate(101.552 24.754 20.712)scale(.00383)"/><use xlink:href="#b" transform="rotate(135.99 24.91 10.68)scale(.00321)"/><use xlink:href="#b" transform="rotate(98.016 24.956 22.22)scale(.00347)"/><use xlink:href="#b" transform="rotate(62.581 24.859 41.601)scale(.00324)"/><use xlink:href="#b" transform="rotate(153.865 25.333 6.54)scale(.00322)"/><use xlink:href="#b" transform="rotate(13.405 23.813 213.932)scale(.00381)"/><use xlink:href="#b" transform="rotate(-45.706 26.208 -58.998)scale(.00373)"/><use xlink:href="#b" transform="rotate(-96.057 26.022 -22.103)scale(.0029)"/><use xlink:href="#b" transform="rotate(-47.655 26.457 -56.881)scale(.0035)"/><use xlink:href="#b" transform="rotate(240.495 26.173 -14.231)scale(.00277)"/><use xlink:href="#b" transform="rotate(211.769 26.21 -6.585)scale(.00304)"/><use xlink:href="#b" transform="rotate(-56.83 26.758 -47.07)scale(.00275)"/><use xlink:href="#b" transform="rotate(19.657 25.216 150.327)scale(.00378)"/><use xlink:href="#b" transform="rotate(6.17 21.809 484.666)scale(.0032)"/><use xlink:href="#b" transform="rotate(116.927 26.482 16.826)scale(.00321)"/><use xlink:href="#b" transform="rotate(142.733 26.727 9.652)scale(.00368)"/><use xlink:href="#b" transform="rotate(-51.405 27.396 -54.164)scale(.00358)"/><use xlink:href="#b" transform="rotate(66.285 26.536 41.483)scale(.00266)"/><use xlink:href="#b" transform="rotate(3.646 21.086 838.521)scale(.00396)"/><use xlink:href="#b" transform="rotate(47.114 26.602 62.348)scale(.0028)"/><use xlink:href="#b" transform="rotate(30.814 26.46 98.577)scale(.00316)"/><use xlink:href="#b" transform="rotate(93.868 27.31 26.063)scale(.0034)"/><use xlink:href="#b" transform="rotate(111.454 27.557 19.315)scale(.00381)"/><use xlink:href="#b" transform="rotate(-72.625 28.142 -36.545)scale(.0027)"/><use xlink:href="#b" transform="rotate(7.515 24.042 418.814)scale(.0032)"/><use xlink:href="#b" transform="rotate(60.925 27.635 47.634)scale(.00344)"/><use xlink:href="#b" transform="rotate(-49.36 28.635 -59.414)scale(.00395)"/><use xlink:href="#b" transform="rotate(241.99 28.44 -16.011)scale(.003)"/><use xlink:href="#b" transform="rotate(94.74 28.24 26.51)scale(.0036)"/><use xlink:href="#b" transform="rotate(-13.196 30.294 -241.904)scale(.00396)"/><use xlink:href="#b" transform="rotate(86.843 28.368 30.602)scale(.00283)"/><use xlink:href="#b" transform="rotate(-30.784 29.875 -101.701)scale(.00377)"/><use xlink:href="#b" transform="rotate(49.121 27.595 62.882)scale(.00288)"/><use xlink:href="#b" transform="rotate(-94.05 29.267 -25.32)scale(.00283)"/><use xlink:href="#b" transform="rotate(113.28 28.34 19.858)scale(.004)"/><use xlink:href="#b" transform="rotate(173.388 28.677 2.994)scale(.00332)"/><use xlink:href="#b" transform="rotate(-4.316 53.563 -747.524)scale(.00402)"/><use xlink:href="#b" transform="rotate(120.453 28.1 17.827)scale(.00351)"/><use xlink:href="#b" transform="rotate(-92.52 29.935 -25.263)scale(.00344)"/><use xlink:href="#b" transform="rotate(35.171 24.415 91.075)scale(.00365)"/><use xlink:href="#b" transform="rotate(91.35 27.293 29.676)scale(.00383)"/><use xlink:href="#b" transform="rotate(164.182 28.51 6.14)scale(.00356)"/><use xlink:href="#b" transform="rotate(162.334 28.499 6.78)scale(.00403)"/><use xlink:href="#b" transform="rotate(181.4 28.756 2.143)scale(.0034)"/><use xlink:href="#b" transform="rotate(192.503 28.929 -.533)scale(.00288)"/><use xlink:href="#b" transform="rotate(257.432 30.481 -20.043)scale(.00267)"/><use xlink:href="#b" transform="rotate(234.929 29.92 -11.893)scale(.00318)"/><use xlink:href="#b" transform="rotate(42.137 22.262 76.395)scale(.0026)"/><use xlink:href="#b" transform="rotate(208.383 29.343 -4.155)scale(.0029)"/><use xlink:href="#b" transform="rotate(-40.911 35.844 -72.773)scale(.00287)"/><use xlink:href="#b" transform="rotate(39.936 21.249 81.043)scale(.00372)"/><use xlink:href="#b" transform="rotate(59.412 23.59 52.971)scale(.00292)"/><use xlink:href="#b" transform="rotate(160.389 28.205 8.4)scale(.00329)"/><use xlink:href="#b" transform="rotate(82.695 25.148 35.767)scale(.00315)"/><use xlink:href="#b" transform="rotate(41.848 20.373 77.657)scale(.00397)"/><use xlink:href="#b" transform="rotate(-25.691 43.565 -119.938)scale(.00368)"/><use xlink:href="#b" transform="rotate(-9.615 70.976 -332.369)scale(.00305)"/><use xlink:href="#b" transform="rotate(-78.352 33.21 -30.417)scale(.00394)"/><use xlink:href="#b" transform="rotate(192.281 29.133 1.272)scale(.00328)"/><use xlink:href="#b" transform="rotate(212.33 29.882 -3.716)scale(.00364)"/><use xlink:href="#b" transform="rotate(151.474 27.694 11.772)scale(.00335)"/><use xlink:href="#b" transform="rotate(36.117 15.79 91.456)scale(.00306)"/><use xlink:href="#b" transform="rotate(.436 -1104.55 7431.039)scale(.0033)"/><use xlink:href="#b" transform="rotate(72.075 22.647 43.814)scale(.00347)"/><use xlink:href="#b" transform="rotate(72.983 22.539 43.306)scale(.00327)"/><use xlink:href="#b" transform="rotate(-18.17 58.188 -171.774)scale(.00301)"/><use xlink:href="#b" transform="rotate(-66.165 36.119 -38.145)scale(.00298)"/><use xlink:href="#b" transform="rotate(153.736 27.521 11.979)scale(.00264)"/><use xlink:href="#b" transform="rotate(-45.842 40.605 -61.307)scale(.0034)"/><use xlink:href="#b" transform="rotate(156.749 27.653 11.472)scale(.00317)"/><use xlink:href="#b" transform="rotate(-68.12 36.524 -35.963)scale(.00368)"/><use xlink:href="#b" transform="rotate(-79.125 35.28 -28.215)scale(.00377)"/><use xlink:href="#b" transform="rotate(232.528 31.465 -7.893)scale(.00322)"/><use xlink:href="#b" transform="rotate(112.661 24.966 25.042)scale(.00356)"/><use xlink:href="#b" transform="rotate(89.42 22.82 34.886)scale(.00309)"/><use xlink:href="#b" transform="rotate(228.161 31.41 -6.096)scale(.00405)"/><use xlink:href="#b" transform="rotate(-33.162 49.268 -88.58)scale(.00263)"/><use xlink:href="#b" transform="rotate(-53.999 40.909 -48.953)scale(.0026)"/><use xlink:href="#b" transform="rotate(253.998 33.474 -14.452)scale(.00367)"/><use xlink:href="#b" transform="rotate(200.671 29.879 1.748)scale(.00297)"/><use xlink:href="#b" transform="rotate(228.175 31.678 -5.505)scale(.00395)"/><use xlink:href="#b" transform="rotate(84.611 21.307 38.262)scale(.00283)"/><use xlink:href="#b" transform="rotate(140.808 26.283 17.362)scale(.00308)"/><use xlink:href="#b" transform="rotate(29.323 2.27 115.508)scale(.00328)"/><use xlink:href="#b" transform="rotate(150.688 26.898 14.964)scale(.00349)"/><use xlink:href="#b" transform="rotate(40.757 9.352 83.824)scale(.00308)"/><use xlink:href="#b" transform="rotate(184.117 28.969 6.762)scale(.00303)"/><use xlink:href="#b" transform="rotate(231.758 32.305 -5.843)scale(.00294)"/><use xlink:href="#b" transform="rotate(71.419 18.22 47.368)scale(.00304)"/><use xlink:href="#b" transform="rotate(193.303 29.615 4.85)scale(.0033)"/><use xlink:href="#b" transform="rotate(-30.136 57.611 -96.86)scale(.003)"/><use xlink:href="#b" transform="rotate(187.068 29.219 6.654)scale(.00342)"/><use xlink:href="#b" transform="rotate(29.82 -1.336 114.703)scale(.00337)"/><use xlink:href="#b" transform="rotate(229.451 32.496 -4.3)scale(.00388)"/><use xlink:href="#b" transform="rotate(-47.184 47.696 -55.952)scale(.00329)"/><use xlink:href="#b" transform="rotate(-60.165 43.254 -39.962)scale(.00298)"/><use xlink:href="#b" transform="rotate(-1.162 872.876 -2783.692)scale(.00268)"/><use xlink:href="#b" transform="rotate(176.223 28.445 10.073)scale(.00336)"/><use xlink:href="#b" transform="rotate(124.271 24.165 24.254)scale(.004)"/><use xlink:href="#b" transform="rotate(197.011 30.023 5.128)scale(.00274)"/><use xlink:href="#b" transform="rotate(215.54 31.64 .526)scale(.00387)"/><use xlink:href="#b" transform="rotate(26.412 -10.112 130.048)scale(.0039)"/><use xlink:href="#b" transform="matrix(0 -.00378 .00378 0 56.416 19.657)"/><use xlink:href="#b" transform="rotate(189.856 29.57 7.572)scale(.00378)"/><use xlink:href="#b" transform="rotate(33.452 -3.16 104.174)scale(.00348)"/><use xlink:href="#b" transform="rotate(75.927 16.186 46.472)scale(.0028)"/><use xlink:href="#b" transform="rotate(48.866 7.187 72.552)scale(.00387)"/><use xlink:href="#b" transform="rotate(-53.14 48.717 -46.2)scale(.00264)"/><use xlink:href="#b" transform="rotate(233.32 33.787 -3.605)scale(.00329)"/><use xlink:href="#b" transform="rotate(-89.751 38.985 -17.564)scale(.004)"/><use xlink:href="#b" transform="rotate(3.812 -282.202 860.106)scale(.00355)"/><use xlink:href="#b" transform="rotate(-76.488 42.042 -24.866)scale(.00332)"/><use xlink:href="#b" transform="rotate(162.519 27.07 15.456)scale(.00303)"/><use xlink:href="#b" transform="rotate(110.044 21.202 31.026)scale(.00321)"/><use xlink:href="#b" transform="rotate(142.679 25.013 20.882)scale(.0028)"/><use xlink:href="#b" transform="rotate(19.171 -36.307 178.975)scale(.00308)"/><use xlink:href="#b" transform="rotate(-69.31 44.764 -29.357)scale(.00305)"/><use xlink:href="#b" transform="matrix(-.00362 0 0 -.00362 57.494 23.483)"/><use xlink:href="#b" transform="rotate(174.866 28.257 13.17)scale(.00388)"/><use xlink:href="#b" transform="rotate(-92.56 39.708 -15.07)scale(.00313)"/><use xlink:href="#b" transform="rotate(244.954 36.135 -5.777)scale(.00405)"/><use xlink:href="#b" transform="rotate(235.072 34.847 -2.504)scale(.00305)"/><use xlink:href="#b" transform="rotate(3.928 -318.522 837.903)scale(.0028)"/><use xlink:href="#b" transform="rotate(68.705 11.116 53.863)scale(.0028)"/><use xlink:href="#b" transform="rotate(6.1 -198.439 543.501)scale(.00306)"/><use xlink:href="#b" transform="rotate(-16.196 114.676 -186.273)scale(.00284)"/><use xlink:href="#b" transform="rotate(79.198 13.79 47)scale(.00296)"/><use xlink:href="#b" transform="rotate(221.925 33.472 2.067)scale(.00299)"/><use xlink:href="#b" transform="rotate(206.486 31.674 6.392)scale(.00325)"/><use xlink:href="#b" transform="rotate(-98.366 39.667 -11.225)scale(.00343)"/><use xlink:href="#b" transform="rotate(93.607 16.64 39.837)scale(.00273)"/><use xlink:href="#b" transform="rotate(-74.658 45.638 -23.581)scale(.00376)"/><use xlink:href="#b" transform="rotate(8.524 -145.925 392.598)scale(.00376)"/><use xlink:href="#b" transform="rotate(195.379 30.509 9.886)scale(.00336)"/><use xlink:href="#b" transform="rotate(-62.694 50.597 -32.686)scale(.00286)"/><use xlink:href="#b" transform="rotate(62.947 6.69 60.133)scale(.00266)"/><use xlink:href="#b" transform="rotate(26.659 -28.507 133.462)scale(.00285)"/><use xlink:href="#b" transform="rotate(94.746 16.152 40.163)scale(.00311)"/><use xlink:href="#b" transform="rotate(89.472 14.86 42.803)scale(.00343)"/><use xlink:href="#b" transform="rotate(-80.252 45.198 -19.229)scale(.00288)"/><use xlink:href="#b" transform="rotate(142.737 24.031 24.057)scale(.00358)"/><use xlink:href="#b" transform="rotate(-84.679 44.23 -16.48)scale(.00278)"/><use xlink:href="#b" transform="rotate(46.225 -4.542 80.968)scale(.00374)"/><use xlink:href="#b" transform="rotate(-54.843 56.424 -39.539)scale(.00362)"/><use xlink:href="#b" transform="rotate(257.224 40.305 -7.648)scale(.0027)"/><use xlink:href="#b" transform="rotate(220.799 34.178 4.657)scale(.00366)"/><use xlink:href="#b" transform="rotate(115.094 19.4 33.28)scale(.00388)"/><use xlink:href="#b" transform="rotate(177.671 28.443 16.02)scale(.0036)"/><use xlink:href="#b" transform="rotate(82.952 11.616 47.527)scale(.00263)"/><use xlink:href="#b" transform="rotate(64.852 4.854 60.166)scale(.0031)"/><use xlink:href="#b" transform="rotate(161.278 26.174 20.396)scale(.00286)"/><use xlink:href="#b" transform="rotate(98.06 15.421 40.448)scale(.00368)"/><use xlink:href="#b" transform="rotate(234.594 36.707 1.35)scale(.0027)"/><use xlink:href="#b" transform="rotate(-33.805 80.182 -77.114)scale(.00272)"/><use xlink:href="#b" transform="rotate(215.761 33.78 7.069)scale(.00299)"/><use xlink:href="#b" transform="rotate(92.25 13.575 43.546)scale(.00388)"/><use xlink:href="#b" transform="rotate(-45.812 66.568 -50.52)scale(.00295)"/><use xlink:href="#b" transform="rotate(187.593 29.774 14.696)scale(.00301)"/><use xlink:href="#b" transform="rotate(-61.097 56.166 -31.056)scale(.00395)"/><use xlink:href="#b" transform="rotate(-73.825 50.507 -20.902)scale(.00262)"/><use xlink:href="#b" transform="rotate(183.7 29.256 16.053)scale(.0033)"/><use xlink:href="#b" transform="rotate(115.14 18.188 35.057)scale(.0033)"/><use xlink:href="#b" transform="rotate(250.351 40.513 -2.646)scale(.00375)"/><use xlink:href="#b" transform="rotate(-1.295 1517.82 -2482.083)scale(.00365)"/><use xlink:href="#b" transform="rotate(187.788 29.838 15.508)scale(.00263)"/><use xlink:href="#b" transform="rotate(92.508 12.338 44.657)scale(.00307)"/><use xlink:href="#b" transform="rotate(109.193 16.433 37.787)scale(.00274)"/><use xlink:href="#b" transform="rotate(94.432 12.666 43.98)scale(.003)"/><use xlink:href="#b" transform="rotate(5.385 -341.028 618.35)scale(.00393)"/><use xlink:href="#b" transform="rotate(-86.795 47.311 -11.864)scale(.00302)"/><use xlink:href="#b" transform="rotate(142.138 22.604 27.855)scale(.0027)"/><use xlink:href="#b" transform="rotate(128.745 20.244 31.905)scale(.00388)"/><use xlink:href="#b" transform="rotate(-76.405 51.526 -17.563)scale(.00283)"/><use xlink:href="#b" transform="rotate(82.739 8.205 50.663)scale(.00312)"/><use xlink:href="#b" transform="rotate(74.543 4.864 55.834)scale(.0034)"/><use xlink:href="#b" transform="rotate(138.912 21.831 29.376)scale(.0029)"/><use xlink:href="#b" transform="rotate(153.021 24.251 25.646)scale(.0026)"/><use xlink:href="#b" transform="rotate(169.009 26.895 21.678)scale(.00263)"/><use xlink:href="#b" transform="rotate(-99.686 44.416 -4.829)scale(.00272)"/><use xlink:href="#b" transform="rotate(-22.703 122.059 -121.862)scale(.00276)"/><use xlink:href="#b" transform="rotate(-78.086 51.93 -15.661)scale(.0026)"/><use xlink:href="#b" transform="rotate(255.936 43.474 -2.73)scale(.00269)"/><use xlink:href="#b" transform="rotate(-89.598 47.882 -8.876)scale(.00372)"/><use xlink:href="#b" transform="rotate(-45.434 74.514 -47.94)scale(.00302)"/><use xlink:href="#b" transform="rotate(-57.197 64.063 -31.964)scale(.00382)"/><use xlink:href="#b" transform="rotate(241.397 40.25 3.123)scale(.00314)"/><use xlink:href="#b" transform="rotate(55.672 -8.184 73.581)scale(.00386)"/><use xlink:href="#b" transform="rotate(190.167 30.52 17.754)scale(.004)"/><use xlink:href="#b" transform="rotate(246.521 41.72 1.719)scale(.00269)"/><use xlink:href="#b" transform="rotate(141.839 21.836 30.242)scale(.00341)"/><use xlink:href="#b" transform="rotate(85.608 7.03 51.11)scale(.00315)"/><use xlink:href="#b" transform="rotate(-36.724 89.566 -64.485)scale(.0033)"/><use xlink:href="#b" transform="rotate(74.294 1.934 58.154)scale(.00352)"/><use xlink:href="#b" transform="rotate(138.112 20.946 31.825)scale(.00386)"/><use xlink:href="#b" transform="rotate(88.768 7.648 49.995)scale(.00308)"/><use xlink:href="#b" transform="rotate(66.918 -2.69 64.017)scale(.0029)"/><use xlink:href="#b" transform="rotate(193.546 31.242 18.054)scale(.00401)"/><use xlink:href="#b" transform="rotate(8.418 -256.661 405.977)scale(.00297)"/><use xlink:href="#b" transform="rotate(180.467 28.768 21.428)scale(.00267)"/><use xlink:href="#b" transform="rotate(50.143 -16.533 82.132)scale(.00356)"/><use xlink:href="#b" transform="rotate(-79.53 54.36 -12.114)scale(.00343)"/><use xlink:href="#b" transform="rotate(63.294 -6.069 67.846)scale(.00348)"/><use xlink:href="#b" transform="rotate(100.552 10.76 45.593)scale(.00313)"/><use xlink:href="#b" transform="rotate(-73.302 57.912 -15.828)scale(.00303)"/><use xlink:href="#b" transform="rotate(-25.234 126.27 -104.016)scale(.00322)"/><use xlink:href="#b" transform="rotate(120.826 16.19 38.476)scale(.0026)"/><use xlink:href="#b" transform="rotate(189.512 30.558 20.208)scale(.00329)"/><use xlink:href="#b" transform="rotate(52.977 -15.811 79.434)scale(.00312)"/><use xlink:href="#b" transform="rotate(-88.225 51.723 -6.36)scale(.0033)"/><use xlink:href="#b" transform="rotate(214.926 35.751 13.973)scale(.00276)"/><use xlink:href="#b" transform="rotate(180.497 28.783 22.859)scale(.00273)"/><use xlink:href="#b" transform="rotate(28.79 -59.582 133.381)scale(.00285)"/><use xlink:href="#b" transform="rotate(-74.262 58.764 -14.22)scale(.00262)"/><use xlink:href="#b" transform="rotate(253.283 45.702 2.253)scale(.00285)"/><use xlink:href="#b" transform="rotate(104.02 10.724 45.512)scale(.00262)"/><use xlink:href="#b" transform="rotate(258.728 47.625 .302)scale(.0029)"/><use xlink:href="#b" transform="rotate(56.084 -14.649 76.734)scale(.0039)"/><use xlink:href="#b" transform="rotate(-82.2 55.444 -8.514)scale(.00377)"/><use xlink:href="#b" transform="matrix(.00262 0 0 .00262 56.644 46.982)"/><use xlink:href="#b" transform="rotate(153.272 23.074 30.724)scale(.00262)"/><use xlink:href="#b" transform="rotate(191.084 31.011 21.403)scale(.00316)"/><use xlink:href="#b" transform="rotate(132.506 18.27 36.724)scale(.00334)"/><use xlink:href="#b" transform="rotate(-94.542 50.807 -1.642)scale(.00373)"/><use xlink:href="#b" transform="rotate(116.369 13.844 42.111)scale(.00364)"/><use xlink:href="#b" transform="rotate(-43.333 89.618 -46.578)scale(.00295)"/><use xlink:href="#b" transform="rotate(-2.688 1064.126 -1180.363)scale(.00324)"/><use xlink:href="#b" transform="rotate(66.696 -8.482 67.897)scale(.00263)"/><use xlink:href="#b" transform="rotate(42.876 -33.71 97.036)scale(.0033)"/><use xlink:href="#b" transform="rotate(-51.465 79.867 -33.575)scale(.00305)"/><use xlink:href="#b" transform="rotate(108.288 10.78 45.681)scale(.00284)"/><use xlink:href="#b" transform="rotate(209.184 35.185 17.987)scale(.00305)"/><use xlink:href="#b" transform="rotate(207.647 34.885 18.563)scale(.00354)"/><use xlink:href="#b" transform="rotate(-47.928 85.267 -38.108)scale(.00282)"/><use xlink:href="#b" transform="rotate(129.025 16.759 39.254)scale(.00392)"/><use xlink:href="#b" transform="rotate(108.64 10.513 46.191)scale(.00338)"/><use xlink:href="#b" transform="rotate(243.305 44.445 8.575)scale(.00325)"/><use xlink:href="#b" transform="rotate(-29.169 127.225 -82.545)scale(.00328)"/><use xlink:href="#b" transform="rotate(63.55 -12.914 71.915)scale(.0029)"/><use xlink:href="#b" transform="rotate(122.749 14.565 41.78)scale(.00286)"/><use xlink:href="#b" transform="rotate(-87.149 56.028 -3.114)scale(.00403)"/><use xlink:href="#b" transform="rotate(-56.785 77.053 -25.64)scale(.00346)"/><use xlink:href="#b" transform="rotate(-26.159 141.828 -95.115)scale(.00285)"/><use xlink:href="#b" transform="rotate(-84.636 57.684 -4.118)scale(.00365)"/><use xlink:href="#b" transform="rotate(75.271 -5.697 63.682)scale(.00297)"/><use xlink:href="#b" transform="rotate(-19.261 185.712 -139.717)scale(.00288)"/><use xlink:href="#b" transform="rotate(2.93 -1015.867 1132.282)scale(.00342)"/><use xlink:href="#b" transform="rotate(188.58 30.696 25.179)scale(.00262)"/><use xlink:href="#b" transform="rotate(10.682 -259.443 329.734)scale(.00356)"/><use xlink:href="#b" transform="rotate(108.823 9.296 47.822)scale(.00294)"/><use xlink:href="#b" transform="rotate(239.007 44.142 11.802)scale(.00393)"/><use xlink:href="#b" transform="rotate(186.568 30.342 26.317)scale(.00404)"/><use xlink:href="#b" transform="rotate(190.736 31.27 25.297)scale(.00266)"/><use xlink:href="#b" transform="rotate(77.356 -5.68 63.45)scale(.00392)"/><use xlink:href="#b" transform="rotate(-85.364 58.83 -2.289)scale(.0039)"/><use xlink:href="#b" transform="rotate(74.376 -8.04 65.688)scale(.00345)"/><use xlink:href="#b" transform="rotate(108.557 8.604 48.904)scale(.00371)"/><use xlink:href="#b" transform="rotate(156.056 22.71 34.648)scale(.00282)"/><use xlink:href="#b" transform="rotate(-8.05 430.828 -373.368)scale(.00263)"/><use xlink:href="#b" transform="rotate(167.663 25.569 31.844)scale(.00402)"/><use xlink:href="#b" transform="rotate(161.426 23.792 33.313)scale(.00304)"/><use xlink:href="#b" transform="rotate(104.095 6.212 50.48)scale(.00267)"/><use xlink:href="#b" transform="rotate(-52.272 85.771 -27.815)scale(.00332)"/><use xlink:href="#b" transform="rotate(-28.394 139.69 -80.409)scale(.00345)"/><use xlink:href="#b" transform="rotate(122.906 12.538 43.7)scale(.00278)"/><use xlink:href="#b" transform="rotate(-68.556 69.263 -11.368)scale(.00365)"/><use xlink:href="#b" transform="rotate(184.326 28.764 27.71)scale(.00312)"/><use xlink:href="#b" transform="rotate(-39.32 106.639 -47.188)scale(.00336)"/><use xlink:href="#b" transform="rotate(231.886 41.205 15.66)scale(.00368)"/><use xlink:href="#b" transform="rotate(40.325 -49.458 101.841)scale(.00387)"/><use xlink:href="#b" transform="rotate(128.252 13.423 41.695)scale(.00272)"/><use xlink:href="#b" transform="rotate(81.412 -5.788 59.7)scale(.00312)"/><use xlink:href="#b" transform="rotate(211.514 34.934 21.337)scale(.00388)"/><use xlink:href="#b" transform="rotate(121.19 10.911 43.615)scale(.00361)"/><use xlink:href="#b" transform="rotate(-24.46 156.895 -92.06)scale(.00356)"/><use xlink:href="#b" transform="rotate(-17.316 211.74 -142.11)scale(.00391)"/><use xlink:href="#b" transform="rotate(11.786 -246.805 279.517)scale(.0039)"/><use xlink:href="#b" transform="rotate(111.547 6.985 46.287)scale(.003)"/><use xlink:href="#b" transform="rotate(56.464 -26.503 76.563)scale(.00324)"/><use xlink:href="#b" transform="rotate(-87.814 55.337 2.215)scale(.00328)"/><use xlink:href="#b" transform="rotate(107.037 5.035 47.557)scale(.00382)"/><use xlink:href="#b" transform="rotate(110.168 6.003 46.395)scale(.00327)"/><use xlink:href="#b" transform="rotate(-68.901 66.777 -7.926)scale(.00318)"/><use xlink:href="#b" transform="rotate(-22.854 165.027 -94.77)scale(.00387)"/><use xlink:href="#b" transform="rotate(84.544 -5.689 56.115)scale(.00371)"/><use xlink:href="#b" transform="rotate(-90.167 53.342 4.13)scale(.00355)"/><use xlink:href="#b" transform="rotate(239.875 41.315 14.512)scale(.00271)"/><use xlink:href="#b" transform="rotate(228.713 37.74 17.71)scale(.00369)"/><use xlink:href="#b" transform="rotate(176.744 24.005 29.449)scale(.00332)"/><use xlink:href="#b" transform="rotate(-12.993 272.599 -183.872)scale(.0035)"/><use xlink:href="#b" transform="rotate(179.093 24.357 28.996)scale(.00396)"/><use xlink:href="#b" transform="rotate(47.137 -40.393 83.672)scale(.00312)"/><use xlink:href="#b" transform="rotate(128.335 10.549 40.268)scale(.00267)"/><use xlink:href="#b" transform="rotate(-61.656 71.479 -10.93)scale(.00363)"/><use xlink:href="#b" transform="rotate(195.402 27.84 25.526)scale(.00286)"/><use xlink:href="#b" transform="rotate(-54.562 78.742 -16.883)scale(.00285)"/><use xlink:href="#b" transform="rotate(-70.048 64.157 -4.709)scale(.00272)"/><use xlink:href="#b" transform="rotate(-87.134 53.391 4.396)scale(.0039)"/><use xlink:href="#b" transform="rotate(71.079 -16.064 61.144)scale(.00273)"/><use xlink:href="#b" transform="rotate(36.786 -61.438 97.938)scale(.00345)"/><use xlink:href="#b" transform="rotate(24.906 -104.524 132.337)scale(.00341)"/><use xlink:href="#b" transform="rotate(231.221 36.745 17.881)scale(.00358)"/><use xlink:href="#b" transform="rotate(49.237 -38.488 78.066)scale(.0037)"/><use xlink:href="#b" transform="rotate(22.646 -118.095 140.967)scale(.00338)"/><use xlink:href="#b" transform="rotate(25.232 -103.47 128.652)scale(.00312)"/><use xlink:href="#b" transform="rotate(-23.818 156.757 -76.871)scale(.00283)"/><use xlink:href="#b" transform="rotate(79.178 -11.682 55.522)scale(.00263)"/><use xlink:href="#b" transform="rotate(133.638 10.358 38.176)scale(.00311)"/><use xlink:href="#b" transform="rotate(175.3 21.173 29.628)scale(.00295)"/><use xlink:href="#b" transform="rotate(69.182 -18.604 60.314)scale(.00402)"/><use xlink:href="#b" transform="rotate(58.41 -28.574 67.513)scale(.0026)"/><use xlink:href="#b" transform="rotate(119.8 5.628 41.243)scale(.00347)"/><use xlink:href="#b" transform="rotate(145.815 13.2 35.359)scale(.00375)"/><use xlink:href="#b" transform="rotate(151.878 14.664 34.103)scale(.00372)"/><use xlink:href="#b" transform="rotate(33.944 -70.8 97.828)scale(.0039)"/><use xlink:href="#b" transform="rotate(-66.18 64.74 -3.352)scale(.00365)"/><use xlink:href="#b" transform="rotate(226.482 33.412 19.823)scale(.00342)"/><use xlink:href="#b" transform="rotate(259.82 44.781 11.376)scale(.00287)"/><use xlink:href="#b" transform="rotate(-4.55 731.39 -488.795)scale(.00364)"/><use xlink:href="#b" transform="rotate(168.461 18.014 30.781)scale(.00272)"/><use xlink:href="#b" transform="rotate(68.873 -20.45 58.45)scale(.00298)"/><use xlink:href="#b" transform="rotate(141.325 10.77 35.854)scale(.00326)"/><use xlink:href="#b" transform="rotate(13.385 -220.025 200.028)scale(.00348)"/><use xlink:href="#b" transform="rotate(-60.827 68.593 -5.41)scale(.00272)"/><use xlink:href="#b" transform="rotate(.993 -3240.958 2324.213)scale(.00313)"/><use xlink:href="#b" transform="rotate(-47.258 84.81 -16.495)scale(.00297)"/><use xlink:href="#b" transform="rotate(-68.684 61.419 .05)scale(.00352)"/><use xlink:href="#b" transform="rotate(221.591 30.697 21.416)scale(.00394)"/><use xlink:href="#b" transform="rotate(171.847 17.782 30.118)scale(.00307)"/><use xlink:href="#b" transform="rotate(-51.773 77.879 -10.86)scale(.00343)"/><use xlink:href="#b" transform="rotate(-35.843 106.77 -30.104)scale(.00397)"/><use xlink:href="#b" transform="rotate(-92.266 46.57 10.454)scale(.00282)"/><use xlink:href="#b" transform="rotate(127.64 5.383 38.01)scale(.00294)"/><use xlink:href="#b" transform="rotate(233.34 33.38 19.384)scale(.00365)"/><use xlink:href="#b" transform="rotate(49.62 -42.026 68.979)scale(.00342)"/><use xlink:href="#b" transform="rotate(133.55 6.84 36.7)scale(.0038)"/><use xlink:href="#b" transform="rotate(-3.916 845.508 -507.939)scale(.00303)"/><use xlink:href="#b" transform="rotate(203.56 24.559 24.985)scale(.00359)"/><use xlink:href="#b" transform="rotate(-6.32 529.724 -298.062)scale(.00365)"/><use xlink:href="#b" transform="rotate(-72.824 56.687 4.406)scale(.00312)"/><use xlink:href="#b" transform="rotate(111.833 -.776 40.822)scale(.00401)"/><use xlink:href="#b" transform="rotate(229.759 31.206 20.533)scale(.00304)"/><use xlink:href="#b" transform="rotate(135.79 6.499 35.869)scale(.003)"/><use xlink:href="#b" transform="rotate(-10.765 317.45 -155.982)scale(.00357)"/><use xlink:href="#b" transform="rotate(92.393 -9.261 45.338)scale(.00398)"/><use xlink:href="#b" transform="rotate(218.594 27.478 22.73)scale(.0031)"/><use xlink:href="#b" transform="rotate(240.27 33.873 18.92)scale(.00368)"/><use xlink:href="#b" transform="rotate(50.73 -42.236 64.367)scale(.00334)"/><use xlink:href="#b" transform="rotate(-47.724 81.055 -9.118)scale(.00334)"/><use xlink:href="#b" transform="rotate(163.944 13.137 31.144)scale(.00397)"/><use xlink:href="#b" transform="rotate(111.933 -2.136 39.886)scale(.00341)"/><use xlink:href="#b" transform="rotate(42.014 -56.777 71.343)scale(.00322)"/><use xlink:href="#b" transform="rotate(-58.414 67.254 -.41)scale(.0027)"/><use xlink:href="#b" transform="rotate(24.347 -114.256 103.414)scale(.00355)"/><use xlink:href="#b" transform="rotate(191.833 19.369 27.107)scale(.0034)"/><use xlink:href="#b" transform="rotate(209.048 23.641 24.702)scale(.00386)"/><use xlink:href="#b" transform="rotate(179.17 15.978 28.902)scale(.00373)"/><use xlink:href="#b" transform="rotate(150.763 8.635 32.803)scale(.00307)"/><use xlink:href="#b" transform="rotate(202.269 21.443 25.663)scale(.00277)"/><use xlink:href="#b" transform="rotate(100.524 -7.713 41.512)scale(.00306)"/><use xlink:href="#b" transform="rotate(235.511 30.54 20.692)scale(.00291)"/><use xlink:href="#b" transform="rotate(138.659 4.896 34.45)scale(.0031)"/><use xlink:href="#b" transform="rotate(-.285 11347.389 -5977.43)scale(.00396)"/><use xlink:href="#b" transform="rotate(-64.488 60.084 5.188)scale(.00318)"/><use xlink:href="#b" transform="rotate(-73.097 53.27 8.929)scale(.00353)"/><use xlink:href="#b" transform="rotate(160.734 10.289 31.271)scale(.00393)"/><use xlink:href="#b" transform="rotate(241.09 31.56 20.142)scale(.00261)"/><use xlink:href="#b" transform="rotate(231.218 28.329 21.838)scale(.00295)"/><use xlink:href="#b" transform="rotate(195.028 18.428 26.925)scale(.00383)"/><use xlink:href="#b" transform="rotate(138.367 3.776 34.098)scale(.00303)"/><use xlink:href="#b" transform="rotate(-7.306 457.51 -190.919)scale(.00272)"/><use xlink:href="#b" transform="rotate(-99.843 38.093 16.996)scale(.0027)"/><use xlink:href="#b" transform="rotate(63.51 -31.32 50.956)scale(.00388)"/><use xlink:href="#b" transform="rotate(81.974 -18.506 44.437)scale(.00283)"/><use xlink:href="#b" transform="rotate(219.551 24.129 23.976)scale(.00403)"/><use xlink:href="#b" transform="rotate(115.795 -3.969 37.121)scale(.00275)"/><use xlink:href="#b" transform="rotate(-7.892 422.501 -162.484)scale(.00395)"/><use xlink:href="#b" transform="rotate(-13.485 252.644 -82.296)scale(.003)"/><use xlink:href="#b" transform="rotate(92.696 -13.577 41.147)scale(.00277)"/><use xlink:href="#b" transform="rotate(145.858 4.656 32.71)scale(.0033)"/><use xlink:href="#b" transform="rotate(92.102 -14.063 41.052)scale(.00298)"/><use xlink:href="#b" transform="rotate(213.612 21.624 24.95)scale(.00343)"/><use xlink:href="#b" transform="rotate(-15.844 215.65 -60.75)scale(.00386)"/><use xlink:href="#b" transform="rotate(13.648 -223.595 132.418)scale(.00275)"/><use xlink:href="#b" transform="rotate(40.874 -62.955 61.566)scale(.00383)"/><use xlink:href="#b" transform="rotate(234.244 27.025 22.502)scale(.0029)"/><use xlink:href="#b" transform="rotate(64.004 -32.693 47.94)scale(.00361)"/><use xlink:href="#b" transform="rotate(103.501 -9.906 38.11)scale(.00374)"/><use xlink:href="#b" transform="rotate(84.893 -18.803 41.583)scale(.00261)"/><use xlink:href="#b" transform="rotate(57.502 -39.296 49.888)scale(.0039)"/><use xlink:href="#b" transform="rotate(-25.255 138.084 -22.586)scale(.00302)"/><use xlink:href="#b" transform="rotate(117.815 -5.285 35.589)scale(.0027)"/><use xlink:href="#b" transform="rotate(-25.057 138.679 -21.685)scale(.00375)"/><use xlink:href="#b" transform="rotate(164.639 7.784 30.288)scale(.00384)"/><use xlink:href="#b" transform="rotate(150.896 4.05 31.575)scale(.00281)"/><use xlink:href="#b" transform="rotate(-28.006 124.423 -14.549)scale(.00386)"/><use xlink:href="#b" transform="rotate(144.052 1.951 32.2)scale(.00267)"/><use xlink:href="#b" transform="rotate(176.255 10.106 29.059)scale(.00272)"/><use xlink:href="#b" transform="rotate(105.768 -10.444 36.702)scale(.00306)"/><use xlink:href="#b" transform="rotate(3.569 -895.787 362.175)scale(.00333)"/><use xlink:href="#b" transform="rotate(-40.601 87.047 1.05)scale(.00342)"/><use xlink:href="#b" transform="rotate(111.192 -8.814 35.684)scale(.00279)"/><use xlink:href="#b" transform="rotate(93.617 -15.993 38.165)scale(.0037)"/><use xlink:href="#b" transform="rotate(214.608 19.14 25.7)scale(.00354)"/><use xlink:href="#b" transform="rotate(142.628 .656 32.058)scale(.00343)"/><use xlink:href="#b" transform="rotate(4.65 -686.912 267.094)scale(.0026)"/><use xlink:href="#b" transform="rotate(60.922 -37.997 44.917)scale(.00363)"/><use xlink:href="#b" transform="rotate(129.72 -3.46 33.143)scale(.0029)"/><use xlink:href="#b" transform="rotate(214.509 18.478 25.813)scale(.0027)"/><use xlink:href="#b" transform="rotate(251.717 30.033 22.117)scale(.00321)"/><use xlink:href="#b" transform="rotate(143.435 .155 31.738)scale(.0032)"/><use xlink:href="#b" transform="rotate(101.203 -13.794 36.086)scale(.0036)"/><use xlink:href="#b" transform="rotate(85.884 -21.035 38.186)scale(.0039)"/><use xlink:href="#b" transform="rotate(43.174 -62.206 50.53)scale(.00368)"/><use xlink:href="#b" transform="rotate(-39.888 86.699 5.508)scale(.00384)"/><use xlink:href="#b" transform="rotate(119.675 -7.552 33.626)scale(.00397)"/><use xlink:href="#b" transform="rotate(239.253 24.715 24.181)scale(.004)"/><use xlink:href="#b" transform="rotate(-76.925 44.027 18.726)scale(.00384)"/><use xlink:href="#b" transform="rotate(196.54 12.478 27.66)scale(.0039)"/><use xlink:href="#b" transform="rotate(52.064 -49.657 44.64)scale(.00316)"/><use xlink:href="#b" transform="rotate(118.965 -8.504 33.27)scale(.00399)"/><use xlink:href="#b" transform="rotate(67.54 -34.32 39.943)scale(.00325)"/><use xlink:href="#b" transform="rotate(-83.686 39.365 20.458)scale(.00283)"/><use xlink:href="#b" transform="rotate(112.76 -11.079 33.575)scale(.00334)"/><use xlink:href="#b" transform="rotate(29.85 -98.412 55.478)scale(.00326)"/><use xlink:href="#b" transform="rotate(180.276 7.504 28.723)scale(.0031)"/><use xlink:href="#b" transform="rotate(83.13 -24.576 36.519)scale(.00293)"/><use xlink:href="#b" transform="rotate(-38.624 87.9 9.29)scale(.00282)"/><use xlink:href="#b" transform="rotate(-22.237 151.049 -5.462)scale(.00265)"/><use xlink:href="#b" transform="rotate(127.095 -7.075 32.007)scale(.00298)"/><use xlink:href="#b" transform="rotate(159.515 1.799 29.929)scale(.00345)"/><use xlink:href="#b" transform="rotate(116.596 -10.734 32.642)scale(.0028)"/><use xlink:href="#b" transform="rotate(211.22 14.534 26.976)scale(.00286)"/><use xlink:href="#b" transform="rotate(240.987 23.177 25.082)scale(.00266)"/><use xlink:href="#b" transform="rotate(-15.087 219.723 -16.503)scale(.00332)"/><use xlink:href="#b" transform="rotate(-18.827 176.8 -6.809)scale(.00303)"/><use xlink:href="#b" transform="rotate(71.502 -33.073 36.758)scale(.00303)"/><use xlink:href="#b" transform="rotate(222.141 16.958 26.516)scale(.0027)"/><use xlink:href="#b" transform="rotate(-86.464 36.046 22.78)scale(.00279)"/><use xlink:href="#b" transform="rotate(208.527 13.074 27.427)scale(.00382)"/><use xlink:href="#b" transform="rotate(60.677 -42.608 37.813)scale(.00286)"/><use xlink:href="#b" transform="rotate(110.314 -13.995 32.364)scale(.00373)"/><use xlink:href="#b" transform="rotate(-98.678 29.737 24.477)scale(.00359)"/><use xlink:href="#b" transform="rotate(174.676 4.005 28.946)scale(.0028)"/><use xlink:href="#b" transform="rotate(-16.774 196.62 -3.448)scale(.0037)"/><use xlink:href="#b" transform="rotate(-73.186 43.134 22.511)scale(.00338)"/><use xlink:href="#b" transform="rotate(-16.22 203.216 -2.996)scale(.00324)"/><use xlink:href="#b" transform="rotate(82.51 -27.396 33.771)scale(.00302)"/><use xlink:href="#b" transform="rotate(170.195 2.313 29.13)scale(.00341)"/><use xlink:href="#b" transform="rotate(140.198 -5.68 30.225)scale(.0026)"/><use xlink:href="#b" transform="rotate(152.82 -2.321 29.74)scale(.00342)"/><use xlink:href="#b" transform="rotate(-34.527 95.32 16.029)scale(.00299)"/><use xlink:href="#b" transform="rotate(92.499 -22.858 32.402)scale(.0027)"/><use xlink:href="#b" transform="rotate(118.856 -12.557 30.936)scale(.00305)"/><use xlink:href="#b" transform="rotate(38.1 -77.62 39.05)scale(.00383)"/><use xlink:href="#b" transform="rotate(254.071 25.204 26.122)scale(.00304)"/><use xlink:href="#b" transform="rotate(239.554 19.937 26.907)scale(.00373)"/><use xlink:href="#b" transform="rotate(41.453 -70.921 37.11)scale(.00366)"/><use xlink:href="#b" transform="rotate(53.789 -52.252 34.78)scale(.00302)"/><use xlink:href="#b" transform="rotate(-21.208 154.142 13.276)scale(.0036)"/><use xlink:href="#b" transform="rotate(-42.691 75.553 21.536)scale(.00304)"/><use xlink:href="#b" transform="rotate(25.827 -120.042 40.4)scale(.00337)"/><use xlink:href="#b" transform="rotate(127.428 -10.962 30.01)scale(.00323)"/><use xlink:href="#b" transform="rotate(-5.019 648.134 -27.478)scale(.00285)"/><use xlink:href="#b" transform="rotate(35.698 -84.857 35.88)scale(.00363)"/><use xlink:href="#b" transform="rotate(-27.85 116.444 20.146)scale(.0037)"/><use xlink:href="#b" transform="rotate(204.563 8.63 28.3)scale(.00318)"/><use xlink:href="#b" transform="rotate(-7.88 412.59 .83)scale(.0032)"/><use xlink:href="#b" transform="rotate(-24.964 130.032 20.353)scale(.00265)"/><use xlink:href="#b" transform="rotate(169.044 -.539 28.953)scale(.00382)"/><use xlink:href="#b" transform="rotate(121.875 -13.75 29.599)scale(.00279)"/><use xlink:href="#b" transform="rotate(60.014 -47.087 31.274)scale(.00294)"/><use xlink:href="#b" transform="rotate(151.051 -5.472 29.131)scale(.00392)"/><use xlink:href="#b" transform="rotate(180.701 1.773 28.705)scale(.00275)"/><use xlink:href="#b" transform="rotate(-23.506 137.212 23.707)scale(.00352)"/><use xlink:href="#b" transform="rotate(177.69 .84 28.806)scale(.00373)"/><use xlink:href="#b" transform="rotate(75.644 -35.192 29.793)scale(.00295)"/><use xlink:href="#b" transform="rotate(81.787 -31.567 29.56)scale(.00268)"/><use xlink:href="#b" transform="rotate(245.792 19.302 28.29)scale(.00264)"/><use xlink:href="#b" transform="rotate(54.033 -54.6 29.763)scale(.00262)"/><use xlink:href="#b" transform="rotate(189.682 3.2 28.678)scale(.00278)"/><use xlink:href="#b" transform="rotate(194.897 4.42 28.722)scale(.00334)"/><use xlink:href="#b" transform="rotate(68.75 -40.246 29.004)scale(.00394)"/><use xlink:href="#b" transform="rotate(127.354 -13.162 28.604)scale(.00287)"/><use xlink:href="#b" transform="rotate(-88.705 29.214 28.116)scale(.00353)"/><use xlink:href="#b" transform="rotate(-60.069 48.605 27.889)scale(.00405)"/><use xlink:href="#b" transform="rotate(185.655 2.09 28.07)scale(.00336)"/><use xlink:href="#b" transform="rotate(154.596 -5.508 27.99)scale(.00277)"/><use xlink:href="#b" transform="rotate(53.909 -53.16 28.425)scale(.0028)"/><use xlink:href="#b" transform="rotate(131.706 -11.476 27.864)scale(.00336)"/><use xlink:href="#b" transform="rotate(129.611 -11.963 27.755)scale(.00385)"/><use xlink:href="#b" transform="rotate(163.545 -3.17 27.506)scale(.00335)"/><use xlink:href="#b" transform="rotate(-35.806 83.597 26.685)scale(.00405)"/><use xlink:href="#b" transform="rotate(39.15 -74.143 27.9)scale(.00372)"/><use xlink:href="#b" transform="rotate(76.16 -33.169 27.397)scale(.00313)"/><use xlink:href="#b" transform="rotate(-45.905 63.112 26.24)scale(.00316)"/><use xlink:href="#b" transform="rotate(185.276 1.979 26.83)scale(.00397)"/><use xlink:href="#b" transform="rotate(-55.12 50.85 26.06)scale(.00297)"/><use xlink:href="#b" transform="rotate(103.336 -19.878 26.753)scale(.00313)"/><use xlink:href="#b" transform="rotate(197.7 4.73 26.336)scale(.00275)"/><use xlink:href="#b" transform="rotate(243.422 16.673 26.2)scale(.00388)"/><use xlink:href="#b" transform="rotate(166.99 -2.251 26.163)scale(.00266)"/><use xlink:href="#b" transform="rotate(-94.455 24.376 25.74)scale(.00274)"/><use xlink:href="#b" transform="rotate(-41.73 67.51 25.213)scale(.0032)"/><use xlink:href="#b" transform="rotate(-37.783 74.884 24.852)scale(.0026)"/><use xlink:href="#b" transform="rotate(236.689 14.333 25.583)scale(.00324)"/><use xlink:href="#b" transform="rotate(17.014 -166.735 27.246)scale(.00383)"/><use xlink:href="#b" transform="rotate(48.647 -54.288 26.01)scale(.00402)"/><use xlink:href="#b" transform="rotate(8.367 -338.161 28.928)scale(.00347)"/><use xlink:href="#b" transform="rotate(173.817 -.654 25.163)scale(.00267)"/><use xlink:href="#b" transform="rotate(-75.45 32.448 24.825)scale(.00399)"/><use xlink:href="#b" transform="rotate(6.205 -448.616 29.227)scale(.00395)"/><use xlink:href="#b" transform="rotate(35.26 -75.652 25.649)scale(.00327)"/><use xlink:href="#b" transform="rotate(-68.503 36.224 24.159)scale(.00273)"/><use xlink:href="#b" transform="rotate(201.151 5.222 24.51)scale(.00349)"/><use xlink:href="#b" transform="rotate(179.327 .612 24.44)scale(.0037)"/><use xlink:href="#b" transform="rotate(7.697 -351.598 27.763)scale(.00394)"/><use xlink:href="#b" transform="rotate(-88.786 24.858 23.792)scale(.0029)"/><use xlink:href="#b" transform="rotate(156.36 -4.257 24.041)scale(.0026)"/><use xlink:href="#b" transform="rotate(-16.412 163.026 22.01)scale(.00331)"/><use xlink:href="#b" transform="rotate(-89.478 24.233 23.442)scale(.00276)"/><use xlink:href="#b" transform="rotate(191.817 3.095 23.624)scale(.00281)"/><use xlink:href="#b" transform="rotate(121.279 -12.278 23.727)scale(.00309)"/><use xlink:href="#b" transform="rotate(-57.108 42.883 22.977)scale(.00343)"/><use xlink:href="#b" transform="rotate(172.991 -.678 23.341)scale(.00323)"/><use xlink:href="#b" transform="rotate(121.96 -11.854 23.36)scale(.0034)"/><use xlink:href="#b" transform="rotate(136.063 -8.364 23.19)scale(.00343)"/><use xlink:href="#b" transform="rotate(13.407 -190.685 25.595)scale(.00271)"/><use xlink:href="#b" transform="rotate(64.968 -34.349 23.273)scale(.00331)"/><use xlink:href="#b" transform="rotate(61.22 -36.666 23.146)scale(.00392)"/><use xlink:href="#b" transform="rotate(11.441 -220.123 25.72)scale(.00265)"/><use xlink:href="#b" transform="rotate(227.231 10.31 22.297)scale(.00276)"/><use xlink:href="#b" transform="rotate(185.072 1.655 22.312)scale(.00271)"/><use xlink:href="#b" transform="rotate(87.622 -21.915 22.541)scale(.00348)"/><use xlink:href="#b" transform="rotate(26.23 -92.274 23.416)scale(.00283)"/><use xlink:href="#b" transform="rotate(143.369 -6.39 22.109)scale(.00334)"/><use xlink:href="#b" transform="rotate(-5.045 486.704 15.103)scale(.00297)"/><use xlink:href="#b" transform="rotate(-32.61 73.59 20.652)scale(.00267)"/><use xlink:href="#b" transform="rotate(-64.303 34.361 21.304)scale(.00371)"/><use xlink:href="#b" transform="rotate(56.925 -38.22 22.086)scale(.00263)"/><use xlink:href="#b" transform="rotate(44.207 -50.895 22.147)scale(.00297)"/><use xlink:href="#b" transform="rotate(83.404 -22.62 21.627)scale(.00336)"/><use xlink:href="#b" transform="rotate(-21.61 108.903 19.93)scale(.00374)"/><use xlink:href="#b" transform="rotate(70.921 -28.243 21.46)scale(.00266)"/><use xlink:href="#b" transform="rotate(233.488 11.018 20.784)scale(.00303)"/><use xlink:href="#b" transform="rotate(246.577 14.068 20.643)scale(.00322)"/><use xlink:href="#b" transform="rotate(103.743 -15.03 20.928)scale(.004)"/><use xlink:href="#b" transform="rotate(209.075 5.926 20.49)scale(.00336)"/><use xlink:href="#b" transform="rotate(-43.402 50.787 19.723)scale(.00324)"/><use xlink:href="#b" transform="rotate(-51.143 42.175 19.606)scale(.00269)"/><use xlink:href="#b" transform="rotate(2.456 -920.78 34.867)scale(.00272)"/><use xlink:href="#b" transform="rotate(-12.387 181.298 17.511)scale(.00323)"/><use xlink:href="#b" transform="rotate(218.473 7.537 19.925)scale(.00386)"/><use xlink:href="#b" transform="rotate(93.487 -17.35 20.084)scale(.00396)"/><use xlink:href="#b" transform="rotate(34.205 -61.551 20.563)scale(.00336)"/><use xlink:href="#b" transform="rotate(124.738 -9.222 19.698)scale(.00347)"/><use xlink:href="#b" transform="rotate(-88.61 20.089 19.17)scale(.00357)"/><use xlink:href="#b" transform="rotate(117.99 -10.572 19.445)scale(.00318)"/><use xlink:href="#b" transform="rotate(202.095 4.348 19.081)scale(.00294)"/><use xlink:href="#b" transform="rotate(136.348 -6.767 19.14)scale(.00267)"/><use xlink:href="#b" transform="rotate(-50.403 39.925 18.327)scale(.00313)"/><use xlink:href="#b" transform="rotate(-26.001 80.305 17.389)scale(.0026)"/><use xlink:href="#b" transform="rotate(110.779 -11.81 18.92)scale(.00359)"/><use xlink:href="#b" transform="rotate(48.493 -39.584 19.256)scale(.00272)"/><use xlink:href="#b" transform="rotate(-89.134 18.961 18.27)scale(.0038)"/><use xlink:href="#b" transform="rotate(256.165 14.702 18.072)scale(.00281)"/><use xlink:href="#b" transform="rotate(189.238 2.114 18.168)scale(.0026)"/><use xlink:href="#b" transform="rotate(192.54 2.67 18.115)scale(.00345)"/><use xlink:href="#b" transform="rotate(51.925 -35.046 18.521)scale(.0039)"/><use xlink:href="#b" transform="rotate(19.368 -100.59 19.287)scale(.00384)"/><use xlink:href="#b" transform="rotate(86.238 -17.6 18)scale(.00356)"/><use xlink:href="#b" transform="rotate(192.932 2.64 17.52)scale(.00297)"/><use xlink:href="#b" transform="rotate(-28.259 68.087 16.345)scale(.00323)"/><use xlink:href="#b" transform="rotate(60.153 -28.428 17.837)scale(.0029)"/><use xlink:href="#b" transform="rotate(31.532 -58.24 18.092)scale(.0039)"/><use xlink:href="#b" transform="rotate(31.132 -58.947 18.153)scale(.00284)"/><use xlink:href="#b" transform="rotate(220.079 6.72 16.847)scale(.00302)"/><use xlink:href="#b" transform="rotate(104.943 -11.782 17.069)scale(.00364)"/><use xlink:href="#b" transform="rotate(-54.541 32.201 16.123)scale(.003)"/><use xlink:href="#b" transform="rotate(247.307 11.438 16.4)scale(.00313)"/><use xlink:href="#b" transform="rotate(-92.923 15.92 16.136)scale(.0026)"/><use xlink:href="#b" transform="rotate(130.479 -6.633 16.502)scale(.00298)"/><use xlink:href="#b" transform="rotate(-29.719 60.157 15.2)scale(.0032)"/><use xlink:href="#b" transform="rotate(-81.502 18.867 15.85)scale(.00346)"/><use xlink:href="#b" transform="rotate(133.036 -6.05 16.126)scale(.00295)"/><use xlink:href="#b" transform="rotate(148.672 -3.62 15.97)scale(.003)"/><use xlink:href="#b" transform="rotate(82.307 -16.655 16.093)scale(.00388)"/><use xlink:href="#b" transform="rotate(220.446 6.32 15.595)scale(.00396)"/><use xlink:href="#b" transform="rotate(234.763 8.478 15.319)scale(.00299)"/><use xlink:href="#b" transform="rotate(126.333 -6.726 15.53)scale(.0039)"/><use xlink:href="#b" transform="rotate(61.59 -24.01 15.7)scale(.00313)"/><use xlink:href="#b" transform="rotate(147.908 -3.436 15.204)scale(.0037)"/><use xlink:href="#b" transform="rotate(34.492 -45.884 15.87)scale(.00321)"/><use xlink:href="#b" transform="rotate(54.172 -27.487 15.436)scale(.0026)"/><use xlink:href="#b" transform="rotate(32.346 -48.261 15.65)scale(.00356)"/><use xlink:href="#b" transform="rotate(-18.689 86.25 13.09)scale(.00363)"/><use xlink:href="#b" transform="rotate(214.094 5 14.377)scale(.00317)"/><use xlink:href="#b" transform="rotate(88.681 -13.397 14.63)scale(.00356)"/><use xlink:href="#b" transform="rotate(132.537 -5.335 14.328)scale(.003)"/><use xlink:href="#b" transform="rotate(253.694 10.912 13.845)scale(.00284)"/><use xlink:href="#b" transform="rotate(90.641 -12.653 14.269)scale(.00303)"/><use xlink:href="#b" transform="rotate(-98.036 12.35 13.556)scale(.0026)"/><use xlink:href="#b" transform="rotate(218.936 5.428 13.712)scale(.00367)"/><use xlink:href="#b" transform="rotate(44.27 -31.444 14.277)scale(.00366)"/><use xlink:href="#b" transform="rotate(170.281 -.357 13.539)scale(.0036)"/><use xlink:href="#b" transform="rotate(-1.99 742.455 -3.608)scale(.00302)"/><use xlink:href="#b" transform="rotate(241.997 8.384 13.146)scale(.00396)"/><use xlink:href="#b" transform="rotate(-6.94 209.03 7.974)scale(.0028)"/><use xlink:href="#b" transform="rotate(162.951 -1.163 13.02)scale(.0031)"/><use xlink:href="#b" transform="rotate(160.12 -1.456 12.912)scale(.00314)"/><use xlink:href="#b" transform="rotate(-6.597 213.234 7.894)scale(.00324)"/><use xlink:href="#b" transform="rotate(17.07 -80.365 14.652)scale(.00282)"/><use xlink:href="#b" transform="rotate(-54.534 24.054 11.945)scale(.00308)"/><use xlink:href="#b" transform="rotate(56.626 -21.24 12.883)scale(.00376)"/><use xlink:href="#b" transform="rotate(208.76 3.713 12.147)scale(.00274)"/><use xlink:href="#b" transform="rotate(160.731 -1.24 12.21)scale(.00345)"/><use xlink:href="#b" transform="rotate(-47.99 26.493 11.547)scale(.00397)"/><use xlink:href="#b" transform="rotate(-21.828 59.605 10.491)scale(.00341)"/><use xlink:href="#b" transform="rotate(-89.143 12.109 11.542)scale(.00392)"/><use xlink:href="#b" transform="rotate(7.394 -171.133 16.06)scale(.0031)"/><use xlink:href="#b" transform="rotate(146.672 -2.572 11.552)scale(.00315)"/><use xlink:href="#b" transform="rotate(-20.107 61.963 9.744)scale(.00317)"/><use xlink:href="#b" transform="rotate(-77.346 14.154 10.809)scale(.00273)"/><use xlink:href="#b" transform="rotate(92.346 -9.406 11.392)scale(.0037)"/><use xlink:href="#b" transform="rotate(60.828 -17.246 11.488)scale(.0028)"/><use xlink:href="#b" transform="rotate(-30.634 38.711 9.756)scale(.0029)"/><use xlink:href="#b" transform="rotate(200.181 2.56 10.737)scale(.00349)"/><use xlink:href="#b" transform="rotate(231.915 5.641 10.442)scale(.0026)"/><use xlink:href="#b" transform="rotate(72.167 -12.955 10.903)scale(.00372)"/><use xlink:href="#b" transform="rotate(73.37 -12.612 10.778)scale(.00298)"/><use xlink:href="#b" transform="rotate(-17.214 65.227 8.534)scale(.00344)"/><use xlink:href="#b" transform="rotate(134.777 -3.344 10.254)scale(.00282)"/><use xlink:href="#b" transform="rotate(211.073 3.375 9.967)scale(.00327)"/><use xlink:href="#b" transform="rotate(97.683 -7.407 10.161)scale(.00393)"/><use xlink:href="#b" transform="rotate(-62.327 16.082 9.238)scale(.00284)"/><use xlink:href="#b" transform="rotate(121.792 -4.398 9.812)scale(.00308)"/><use xlink:href="#b" transform="rotate(-86.092 10.399 9.254)scale(.00332)"/><use xlink:href="#b" transform="rotate(231.224 4.996 9.287)scale(.0033)"/><use xlink:href="#b" transform="rotate(7.965 -126.258 13.76)scale(.00274)"/><use xlink:href="#b" transform="rotate(169.553 -.067 9.215)scale(.00332)"/><use xlink:href="#b" transform="rotate(38.702 -23.688 9.87)scale(.00313)"/><use xlink:href="#b" transform="rotate(90.329 -7.752 9.223)scale(.00274)"/><use xlink:href="#b" transform="rotate(-29.679 32.296 7.658)scale(.00285)"/><use xlink:href="#b" transform="rotate(-39.054 23.962 7.884)scale(.00302)"/><use xlink:href="#b" transform="rotate(158.995 -.72 8.697)scale(.00398)"/><use xlink:href="#b" transform="rotate(95.07 -6.606 8.717)scale(.00297)"/><use xlink:href="#b" transform="rotate(5.495 -161.586 13.39)scale(.00381)"/><use xlink:href="#b" transform="rotate(104.605 -5.122 8.422)scale(.004)"/><use xlink:href="#b" transform="rotate(138.389 -2.121 8.163)scale(.0035)"/><use xlink:href="#b" transform="rotate(136.275 -2.227 8.036)scale(.0035)"/><use xlink:href="#b" transform="rotate(135.754 -2.155 7.92)scale(.00403)"/><use xlink:href="#b" transform="rotate(196.823 1.804 7.624)scale(.00378)"/><use xlink:href="#b" transform="rotate(248.139 5.442 7.236)scale(.00267)"/><use xlink:href="#b" transform="rotate(-32.03 24.787 6.31)scale(.0029)"/><use xlink:href="#b" transform="rotate(232.591 4.074 7.168)scale(.00362)"/><use xlink:href="#b" transform="rotate(259.975 6.29 6.839)scale(.00272)"/><use xlink:href="#b" transform="rotate(33.314 -20.936 7.891)scale(.00367)"/><use xlink:href="#b" transform="rotate(125.904 -2.614 7.018)scale(.00262)"/><use xlink:href="#b" transform="rotate(-85.709 7.495 6.509)scale(.0034)"/><use xlink:href="#b" transform="rotate(110.504 -3.574 6.853)scale(.00308)"/><use xlink:href="#b" transform="rotate(-17.96 38.807 4.915)scale(.00353)"/><use xlink:href="#b" transform="rotate(212.543 2.446 6.329)scale(.00326)"/><use xlink:href="#b" transform="rotate(153.667 -.682 6.327)scale(.0027)"/><use xlink:href="#b" transform="rotate(219.022 2.757 6.139)scale(.00392)"/><use xlink:href="#b" transform="rotate(252.105 4.749 5.772)scale(.0027)"/><use xlink:href="#b" transform="rotate(-24.175 26.141 4.556)scale(.00306)"/><use xlink:href="#b" transform="rotate(118.675 -2.493 5.97)scale(.00273)"/><use xlink:href="#b" transform="rotate(-89.033 6.034 5.356)scale(.0027)"/><use xlink:href="#b" transform="rotate(149.496 -.6 5.711)scale(.00399)"/><use xlink:href="#b" transform="rotate(212.438 2.192 5.433)scale(.00402)"/><use xlink:href="#b" transform="rotate(-95.945 5.036 5.115)scale(.0038)"/><use xlink:href="#b" transform="rotate(134.074 -1.22 5.283)scale(.00354)"/><use xlink:href="#b" transform="rotate(-70.692 7.053 4.722)scale(.00386)"/><use xlink:href="#b" transform="rotate(-17.76 28.786 3.02)scale(.0031)"/><use xlink:href="#b" transform="rotate(217.164 2.13 4.613)scale(.00265)"/><use xlink:href="#b" transform="rotate(-22.185 22.169 2.982)scale(.00263)"/><use xlink:href="#b" transform="rotate(1.637 -286.027 26.15)scale(.0028)"/><use xlink:href="#b" transform="rotate(-49.43 9.183 4.006)scale(.00405)"/><use xlink:href="#b" transform="rotate(-56.296 7.81 3.77)scale(.00324)"/><use xlink:href="#b" transform="rotate(-84.402 4.756 3.9)scale(.00354)"/><use xlink:href="#b" transform="rotate(49.368 -6.832 4.598)scale(.00374)"/><use xlink:href="#b" transform="rotate(112.467 -1.5 4.084)scale(.0036)"/><use xlink:href="#b" transform="rotate(-52.724 7.265 3.23)scale(.00343)"/><use xlink:href="#b" transform="rotate(164.493 .249 3.635)scale(.00267)"/><use xlink:href="#b" transform="rotate(161.012 .228 3.576)scale(.00339)"/><use xlink:href="#b" transform="rotate(228.939 2.026 3.226)scale(.00278)"/><use xlink:href="#b" transform="rotate(163.484 .297 3.317)scale(.00301)"/><use xlink:href="#b" transform="rotate(-93.283 3.248 2.886)scale(.00306)"/><use xlink:href="#b" transform="rotate(18.75 -14.641 4.684)scale(.00343)"/><use xlink:href="#b" transform="rotate(243.009 2.203 2.706)scale(.00276)"/><use xlink:href="#b" transform="rotate(152.551 .104 2.866)scale(.0027)"/><use xlink:href="#b" transform="rotate(150.809 .162 2.799)scale(.00344)"/><use xlink:href="#b" transform="rotate(-59.775 4.366 2.074)scale(.00309)"/><use xlink:href="#b" transform="rotate(4.609 -46.573 8.334)scale(.0039)"/><use xlink:href="#b" transform="rotate(-68.135 3.419 1.892)scale(.00315)"/><use xlink:href="#b" transform="rotate(257.236 2.083 1.924)scale(.00277)"/><use xlink:href="#b" transform="rotate(67.496 -1.682 2.516)scale(.00316)"/><use xlink:href="#b" transform="rotate(12.367 -12.553 4.356)scale(.00359)"/><use xlink:href="#b" transform="rotate(94.813 -.454 2.093)scale(.0036)"/><use xlink:href="#b" transform="rotate(235.951 1.347 1.492)scale(.0026)"/><use xlink:href="#b" transform="rotate(-18.813 7.062 .19)scale(.00383)"/><use xlink:href="#b" transform="rotate(127.455 .178 1.578)scale(.00263)"/><use xlink:href="#b" transform="rotate(-23.451 4.815 .03)scale(.0033)"/><use xlink:href="#b" transform="rotate(211.309 .9 1.105)scale(.00265)"/><use xlink:href="#b" transform="rotate(-63.306 1.679 .791)scale(.00393)"/><use xlink:href="#b" transform="rotate(-23.024 2.851 -.183)scale(.00378)"/><use xlink:href="#b" transform="rotate(-99.855 .991 .692)scale(.00404)"/></g><defs><filter id="a" width="57.436" height="57.441" x=".271" y=".282" color-interpolation-filters="sRGB" filterUnits="userSpaceOnUse"><feFlood flood-opacity="0" result="BackgroundImageFix"/><feBlend in="SourceGraphic" in2="BackgroundImageFix" result="shape"/><feTurbulence baseFrequency="0.38759690523147583 0.38759690523147583" numOctaves="3" result="noise" seed="9800" stitchTiles="stitch" type="fractalNoise"/><feColorMatrix in="noise" result="alphaNoise" type="luminanceToAlpha"/><feComponentTransfer in="alphaNoise" result="coloredNoise1"><feFuncA tableValues="0 0 0 0 0 0 0 0 0 0 0 0 0 0 1 1 1 1 1 1 1 1 1 1 1 1 1 1 1 1 1 1 1 1 1 1 0 0 0 0 0 0 0 0 0 0 0 0 0 0 0 0 0 0 0 0 0 0 0 0 0 0 0 0 0 0 0 0 0 0 0 0 0 0 0 0 0 0 0 0 0 0 0 0 0 0 0 0 0 0 0 0 0 0 0 0 0 0 0 0" type="discrete"/></feComponentTransfer><feComposite in="coloredNoise1" in2="shape" operator="in" result="noise1Clipped"/><feComponentTransfer in="alphaNoise" result="coloredNoise2"><feFuncA tableValues="0 0 0 0 0 0 0 0 0 0 0 0 0 0 0 0 0 0 0 0 0 0 0 0 0 0 0 0 0 0 0 0 0 0 0 0 0 0 0 0 0 0 0 0 0 0 0 0 0 0 0 0 0 0 0 0 0 0 0 0 0 0 0 0 1 1 1 1 1 1 1 1 1 1 1 1 1 1 1 1 1 1 1 1 1 1 0 0 0 0 0 0 0 0 0 0 0 0 0 0" type="discrete"/></feComponentTransfer><feComposite in="coloredNoise2" in2="shape" operator="in" result="noise2Clipped"/><feFlood flood-color="rgba(255, 255, 255, 0.75)" result="color1Flood"/><feComposite in="color1Flood" in2="noise1Clipped" operator="in" result="color1"/><feFlood flood-color="rgba(255, 255, 255, 0.25)" result="color2Flood"/><feComposite in="color2Flood" in2="noise2Clipped" operator="in" result="color2"/><feMerge result="effect1_noise_6_51"><feMergeNode in="shape"/><feMergeNode in="color1"/><feMergeNode in="color2"/></feMerge></filter><path id="b" fill="#538fdf" d="M103.731 283.547c6.621-2.184 9.076-2.199 12.39-.079 13.988 8.95 8.729 25.25-8.149 25.259-17.595.01-20.911-19.681-4.241-25.18m36.106-248.132c1.1-.236 2.675-.301 3.5-.144s3.179.568 5.23.914c7.235 1.22 11.612 10.512 8.167 17.34-3.81 7.552-12.019 14.056-15.875 12.577-4.987-1.914-3.234 3.777 3.207 10.413 4.24 4.37 6.271 4.754 6.271 1.192 0-1.05 1.285-3.385 2.856-5.19 1.63-1.876 3.404-5.597 4.131-8.667 1.601-6.76 3.464-8.621 10.045-10.033 9.951-2.134 18.212 3.11 16.383 10.398-.459 1.827.149 3.45 2.338 6.243 10.769 13.74 7.785 33.815-5.494 36.96-3.547.84-3.764 1.114-3.823 4.852-.034 2.178-.408 4.717-.83 5.642-.688 1.505.003 1.652 6.563 1.398 7.909-.307 10.168.395 13.447 4.177 3.101 3.577 5.645 2.627 6.656-2.485.894-4.519 6.487-10.271 9.987-10.271 2.245 0 3.338-2.575 1.853-4.364-8.349-10.061 7.785-32.704 21.156-29.688 5.967 1.346 10.697 6.951 10.762 12.752.017 1.54 1.138 5.05 2.491 7.8 6.504 13.222-5.554 28.994-16.081 21.032-2.853-2.158-2.94-2.037-2.94 4.078 0 6.589-3.905 10.951-10.788 12.052-2.981.477-4.116 1.277-5.274 3.723-.811 1.713-2.225 4.299-3.145 5.747-1.646 2.593-1.61 2.702 2.517 7.391 2.304 2.617 4.19 5.301 4.19 5.964s.737 2.683 1.637 4.488c3.174 6.361 2.099 20.025-1.574 20.025-.348 0-1.43 1.35-2.405 3s-2.422 3-3.216 3c-2.184 0-1.735 2.086 1.084 5.029 3.521 3.675 4.562 12.107 1.865 15.098-5.225 5.791-11.678 10.152-16.664 11.264-4.12.919-5.234 1.583-5.26 3.137-.135 8.13-4.562 13.128-13.122 14.818-6.837 1.35-7.61 3.233-2.105 5.126 12.781 4.394 15.315 15.49 4.865 21.303-5.921 3.293-10.016 3.252-14.927-.152-3.621-2.509-4.354-2.668-7.836-1.701-5.942 1.65-12.316 1.281-18.342-1.06-5.463-2.123-10.613-3.525-16.648-4.532-5.974-.997-9.538-6.118-10.097-14.51-.408-6.134-.921-7.806-3.167-10.32-1.474-1.65-3.439-4.687-4.367-6.75-1.638-3.637-1.847-3.75-6.894-3.75-6.37 0-11.084-2.809-13.947-8.311-3.17-6.093-7.274-5.084-7.37 1.811-.037 2.75-.424 6.586-.859 8.524-.753 3.358-.637 3.569 2.449 4.5 10.063 3.035 9.961 20.691-.149 25.679-24.298 11.986-54.047-12.461-32.413-26.636 1.681-1.102 2.306-2.804 2.815-7.672.36-3.441 1.44-7.364 2.4-8.716a375 375 0 0 1 2.719-3.783c.693-.943.207-2.124-1.687-4.11-3.495-3.662-4.81-7.36-4.124-11.589.33-2.036.105-3.723-.552-4.129-.61-.377-1.109-1.954-1.11-3.505 0-1.55-.735-3.428-1.633-4.173-2.703-2.245-12.366-15.765-12.366-17.304 0-.788-1.574-3.495-3.498-6.015-1.924-2.521-3.44-4.918-3.366-5.327.973-5.497-2.826-8.55-7-5.627-2.218 1.554-9.25 1.428-13.607-.244-10.102-3.877-8.653-28.978 1.702-29.484 6.291-.307 14.769 2.931 14.769 5.641 0 1.757 2.773 4.47 4.57 4.47.786 0 1.43-.69 1.43-1.533 0-13.384 20.848-28.89 40.5-30.121 13.093-.822 18.425.42 27.352 6.37 4.261 2.84 11.148-2.563 11.148-8.746 0-2.041.835-4.23 2.146-5.626 2.251-2.396 1.321-5.344-1.687-5.344-2.393 0-5.24-6.189-4.719-10.26.969-7.587 13.556-11.704 19.212-6.285 2.35 2.252 3.419 2.622 5.956 2.065 3.809-.837 3.883-1.777.342-4.356-8.227-5.993-1.392-22.986 10.25-25.48m87.5 168.014c11.757-3.775 25.385 3.862 25.385 14.224 0 10.842-20.801 21.787-28.795 15.153-2.262-1.877-3.524-.443-2.915 3.312 1.085 6.684-7.501 18.613-13.396 18.613-13.37 0-18.816-8.499-13.159-20.533 3.745-7.967 9.996-10.414 18.781-7.351 4.298 1.498 4.642.84 2.683-5.15-2.869-8.772.969-14.914 11.416-18.268M179.7 192.695c-.651-.651-1.649-.282-2.926 1.084-8.404 8.989-11.711 9.934-20.268 5.792-6.76-3.273-10.056 1.888-4.545 7.118 2.248 2.133 2.521 3.055 2.077 6.993-.498 4.416-.374 4.662 4.644 9.285 5.154 4.749 5.155 4.749 5.669-.1.636-5.995 5.171-12.898 9.726-14.801 3.017-1.261 3.26-1.707 3.26-6.02 0-2.954.613-5.335 1.676-6.51 1.104-1.221 1.339-2.189.687-2.841m-165.965-8.998c7.495-3.335 12.2-2.472 18.37 3.369 8.46 8.008 4.924 18.546-7.474 22.277-15.224 4.582-25.336-19.219-10.896-25.646m239.221-35.446c9.173-2.519 14.854-1.048 18.027 4.67 6.414 11.557-13.631 27.998-23.804 19.524-10.086-8.401-7.163-20.64 5.777-24.194m-77.134 14.458c-.98-1.586-3.34-1.12-4.405.87-1.134 2.12-.033 7.334 1.669 7.902 1.28.424 3.675-7.252 2.736-8.772m-25.67-51.228c.34-2.955-.618-3.304-4.639-1.691-3.405 1.365-2.478 4.441 1.338 4.441 2.514 0 3.035-.435 3.301-2.75m6.685-12.75c-.825 0-1.5.675-1.5 1.5s.675 1.5 1.5 1.5 1.5-.675 1.5-1.5-.675-1.5-1.5-1.5m-25.5-13.093c0-2.838-1.846-4.238-3.908-2.964-.928.573-.744 1.616.756 4.286 1.088 1.94 2.131 4.5 2.315 5.689s.787 2.256 1.337 2.372c1.413.296 1.892-4.299.585-5.606-.597-.597-1.085-2.296-1.085-3.777m-51.5-48.717c10.045-5.672 23.056 9.928 15.821 18.971-3.456 4.319-4.454 8.089-3.788 14.308.662 6.184.612 6.364-2.833 10.163C76.04 94.7 55.153 78.5 64.824 61.583c1.515-2.65 2.493-5.938 2.5-8.408.016-5.47 5.092-12.063 12.513-16.254m41.059 41.81c-.243 0-.719.45-1.059 1s-.142 1 .44 1 1.06-.45 1.06-1-.198-1-.441-1m84.589-39.241c14.146-2.448 22.113 11.425 15.112 26.318-7.204 15.322-30.258 11.978-30.506-4.426-.111-7.306 9.418-20.858 15.394-21.892M51.837 14.554c12.608-8.69 23.843 4.813 16.787 20.177-6.239 13.586-27.287 9.044-27.287-5.889 0-2.809 6.316-11.404 10.5-14.288M108.212 2.17c13.218-8.981 33.334 11.922 25.025 26.004-1.153 1.956-2.418 3.556-2.81 3.557s-1.614.84-2.714 1.865c-8.257 7.691-19.927 2.18-24.346-11.497-3.215-9.953-1.904-15.343 4.845-19.929" data-figma-scatter="f0.28_w0_aj180_sj0.25_r0_s0_sw1" data-figma-scatter-ref="stroke0_6_51_ref"/></defs></svg>